<?xml version="1.0" encoding="UTF-8"?>
<svg width="214px" height="44px" viewBox="0 0 214 44" version="1.1" xmlns="http://www.w3.org/2000/svg" xmlns:xlink="http://www.w3.org/1999/xlink">
    <!-- Generator: Sketch 52.4 (67378) - http://www.bohemiancoding.com/sketch -->
    <title>weblogo</title>
    <desc>Created with Sketch.</desc>
    <g id="weblogo" stroke="none" stroke-width="1" fill="none" fill-rule="evenodd">
        <g id="Group" transform="translate(11.000000, 1.000000)">
            <g id="Group-3-Copy" transform="translate(12.804878, 21.000000) rotate(-90.000000) translate(-12.804878, -21.000000) translate(-8.195122, 8.195122)" fill-rule="nonzero">
                <path d="M11.7470269,6.98964818 C10.3611758,6.98964818 9.18645044,7.50115206 8.22285084,8.52415982 C7.25925125,9.56940688 6.77745145,10.8148076 6.77745145,12.2603621 C6.77745145,13.3500877 7.0481255,14.5954885 7.58947358,15.9965643 L11.7470269,27.3552864 L14.9139132,18.5985623 C16.104879,15.7408124 16.7003619,13.628079 16.7003619,12.2603621 C16.7003619,10.8148076 16.2185621,9.56940688 15.2549625,8.52415982 C14.2913629,7.50115206 13.122051,6.98964818 11.7470269,6.98964818 Z M9.70073112,10.1587483 C10.2420792,9.60276583 10.8971104,9.32477459 11.6658247,9.32477459 C12.423712,9.32477459 13.0679162,9.60276583 13.5984373,10.1587483 C14.1506124,10.7147308 14.4266999,11.3874696 14.4266999,12.1769647 C14.4266999,12.9664598 14.1506124,13.6391986 13.5984373,14.1951811 C13.0679162,14.7511636 12.423712,15.0291548 11.6658247,15.0291548 C10.8971104,15.0291548 10.2420792,14.7511636 9.70073112,14.1951811 C9.17021,13.6391986 8.90494943,12.9664598 8.90494943,12.1769647 C8.90494943,11.3874696 9.17021,10.7147308 9.70073112,10.1587483 Z" id="Shape" fill="#986FFF" transform="translate(11.738907, 17.172467) rotate(-69.000000) translate(-11.738907, -17.172467) "></path>
                <path d="M30.2590162,6.97426422 C28.8731651,6.97426422 27.6984398,7.4857681 26.7348402,8.50877587 C25.7712406,9.55402293 25.2894408,10.7994237 25.2894408,12.2449781 C25.2894408,13.3347038 25.5601148,14.5801045 26.1014629,15.9811804 L30.2590162,27.3399024 L33.4259025,18.5831784 C34.6168683,15.7254284 35.2123512,13.612695 35.2123512,12.2449781 C35.2123512,10.7994237 34.7305514,9.55402293 33.7669518,8.50877587 C32.8033522,7.4857681 31.6340404,6.97426422 30.2590162,6.97426422 Z M28.2127204,10.1433644 C28.7540685,9.58738187 29.4090997,9.30939063 30.177814,9.30939063 C30.9357013,9.30939063 31.5799055,9.58738187 32.1104267,10.1433644 C32.6626017,10.6993468 32.9386892,11.3720856 32.9386892,12.1615808 C32.9386892,12.9510759 32.6626017,13.6238147 32.1104267,14.1797971 C31.5799055,14.7357796 30.9357013,15.0137709 30.177814,15.0137709 C29.4090997,15.0137709 28.7540685,14.7357796 28.2127204,14.1797971 C27.6821993,13.6238147 27.4169388,12.9510759 27.4169388,12.1615808 C27.4169388,11.3720856 27.6821993,10.6993468 28.2127204,10.1433644 Z" id="Shape-Copy-3" fill="#0083E7" transform="translate(30.250896, 17.157083) rotate(69.000000) translate(-30.250896, -17.157083) "></path>
                <path d="M21.3482372,2.78932845 C20.3846377,3.83457551 19.9028379,5.07997626 19.9028379,6.52553071 C19.9028379,7.61525637 20.1735119,8.86065712 20.71486,10.261733 L24.8724133,21.620455 L28.0392996,12.863731 C29.2302654,10.005981 29.8257483,7.8932476 29.8257483,6.52553071 C29.8257483,5.07997626 29.3439485,3.83457551 28.3803489,2.78932845 C27.4167493,1.76632069 26.2474374,1.25481681 24.8724133,1.25481681 C23.4865622,1.25481681 22.3118368,1.76632069 21.3482372,2.78932845 Z M22.7247954,4.4079269 C23.2661435,3.85194442 23.9211747,3.57395318 24.689889,3.57395318 C25.4477763,3.57395318 26.0919805,3.85194442 26.6225017,4.4079269 C27.1746767,4.96390937 27.4507642,5.63664817 27.4507642,6.42614329 C27.4507642,7.21563841 27.1746767,7.88837721 26.6225017,8.44435969 C26.0919805,9.00034217 25.4477763,9.27833341 24.689889,9.27833341 C23.9211747,9.27833341 23.2661435,9.00034217 22.7247954,8.44435969 C22.1942743,7.88837721 21.9290138,7.21563841 21.9290138,6.42614329 C21.9290138,5.63664817 22.1942743,4.96390937 22.7247954,4.4079269 Z" id="Shape-Copy-4" fill="#00E4DD" transform="translate(24.864293, 11.437636) rotate(23.000000) translate(-24.864293, -11.437636) "></path>
                <path d="M13.6000303,2.79566302 C12.6364307,3.84091008 12.1546309,5.08631083 12.1546309,6.53186528 C12.1546309,7.62159093 12.4253049,8.86699169 12.966653,10.2680675 L17.1242063,21.6267896 L20.2910926,12.8700655 C21.4820584,10.0123156 22.0775413,7.89958217 22.0775413,6.53186528 C22.0775413,5.08631083 21.5957415,3.84091008 20.6321419,2.79566302 C19.6685423,1.77265526 18.4992304,1.26115138 17.1242063,1.26115138 C15.7383552,1.26115138 14.5636299,1.77265526 13.6000303,2.79566302 Z M14.9765885,4.41426146 C15.5179365,3.85827898 16.1729677,3.58028775 16.941682,3.58028775 C17.6995693,3.58028775 18.3437736,3.85827898 18.8742947,4.41426146 C19.4264697,4.97024394 19.7025573,5.64298274 19.7025573,6.43247786 C19.7025573,7.22197298 19.4264697,7.89471178 18.8742947,8.45069426 C18.3437736,9.00667674 17.6995693,9.28466798 16.941682,9.28466798 C16.1729677,9.28466798 15.5179365,9.00667674 14.9765885,8.45069426 C14.4460673,7.89471178 14.1808068,7.22197298 14.1808068,6.43247786 C14.1808068,5.64298274 14.4460673,4.97024394 14.9765885,4.41426146 Z" id="Shape-Copy-5" fill="#00BCFF" transform="translate(17.116086, 11.443970) rotate(-23.000000) translate(-17.116086, -11.443970) "></path>
            </g>
            <g id="Group-4" transform="translate(22.536585, 8.195122)">
                <path d="M15.4898339,26.9538605 L12.2463389,26.9538605 L12.2463389,0.417541229 L15.4898339,0.417541229 L15.4898339,26.9538605 Z M5.95756243,26.9538605 L2.75010624,26.9538605 L2.75010624,10.2625337 L0.0652131276,10.2625337 L0.0652131276,7.69741643 L2.75010624,7.69741643 L2.75010624,4.2652172 C2.75010624,2.83211632 3.19157753,1.76934947 4.07453337,1.07688476 C4.95748921,0.384420055 6.13774922,0.0381928936 7.61534878,0.0381928936 C7.9036609,0.0381928936 8.16493983,0.0472249065 8.39919342,0.0652892033 C8.63344701,0.0833535001 8.90073235,0.116470881 9.20105747,0.164642339 L9.20105747,3.07297958 C8.86469334,3.04889385 8.62143364,3.03384049 8.47127108,3.02781906 C8.32110853,3.02179763 8.17995784,3.01878696 8.04781479,3.01878696 C7.13482644,3.01878696 6.5281788,3.283726 6.22785369,3.81361204 C6.04765862,4.11468365 5.95756243,4.60843369 5.95756243,5.29487697 L5.95756243,7.69741643 L9.20105747,7.69741643 L9.20105747,10.2625337 L5.95756243,10.2625337 L5.95756243,26.9538605 Z M27.2556413,7.17355444 C28.6251239,7.17355444 29.952541,7.49569623 31.2379325,8.13998948 C32.5233239,8.78428273 33.5023691,9.61823859 34.1750974,10.6418821 C34.8237996,11.6173541 35.2562613,12.7553877 35.4724954,14.0560171 C35.6647035,14.9471891 35.7608061,16.3682258 35.7608061,18.3191698 L21.6155639,18.3191698 C21.6756289,20.2821567 22.1381226,21.8567376 23.003059,23.0429598 C23.8679953,24.229182 25.2074252,24.8222841 27.0213889,24.8222841 C28.7152226,24.8222841 30.0666653,24.2622993 31.0757577,23.1423129 C31.6523819,22.4919983 32.060818,21.7393305 32.301078,20.8842871 L35.4905148,20.8842871 C35.4064238,21.5948161 35.1271256,22.3866226 34.6526119,23.2597303 C34.1780983,24.132838 33.6465308,24.846367 33.0578936,25.4003387 C32.0728272,26.3637679 30.8535255,27.0140728 29.3999519,27.351273 C28.6191066,27.5439589 27.736164,27.6403003 26.7510977,27.6403003 C24.3484967,27.6403003 22.312323,26.7641951 20.6425154,25.0119583 C18.9727077,23.2597215 18.1378164,20.8060247 18.1378164,17.6507942 C18.1378164,14.5437351 18.9787141,12.0207929 20.6605348,10.0818917 C22.3423554,8.14299049 24.5407023,7.17355444 27.2556413,7.17355444 Z M32.427214,15.7359883 C32.2950709,14.3269731 31.9887439,13.2009822 31.5082237,12.3579817 C30.6192614,10.7924093 29.1356775,10.0096349 27.0574277,10.0096349 C25.5678152,10.0096349 24.3184814,10.548545 23.309389,11.6263813 C22.3002967,12.7042177 21.765726,14.074073 21.7056609,15.7359883 L32.427214,15.7359883 Z M46.6076232,7.17355444 C47.9771057,7.17355444 49.3045228,7.49569623 50.5899143,8.13998948 C51.8753058,8.78428273 52.854351,9.61823859 53.5270793,10.6418821 C54.1757815,11.6173541 54.6082432,12.7553877 54.8244773,14.0560171 C55.0166854,14.9471891 55.112788,16.3682258 55.112788,18.3191698 L40.9675457,18.3191698 C41.0276108,20.2821567 41.4901045,21.8567376 42.3550408,23.0429598 C43.2199772,24.229182 44.5594071,24.8222841 46.3733708,24.8222841 C48.0672044,24.8222841 49.4186472,24.2622993 50.4277396,23.1423129 C51.0043638,22.4919983 51.4127998,21.7393305 51.6530599,20.8842871 L54.8424967,20.8842871 C54.7584057,21.5948161 54.4791075,22.3866226 54.0045938,23.2597303 C53.5300801,24.132838 52.9985127,24.846367 52.4098754,25.4003387 C51.4248091,26.3637679 50.2055074,27.0140728 48.7519338,27.351273 C47.9710885,27.5439589 47.0881459,27.6403003 46.1030795,27.6403003 C43.7004786,27.6403003 41.6643049,26.7641951 39.9944972,25.0119583 C38.3246896,23.2597215 37.4897983,20.8060247 37.4897983,17.6507942 C37.4897983,14.5437351 38.330696,12.0207929 40.0125166,10.0818917 C41.6943373,8.14299049 43.8926842,7.17355444 46.6076232,7.17355444 Z M51.7791958,15.7359883 C51.6470528,14.3269731 51.3407258,13.2009822 50.8602056,12.3579817 C49.9712432,10.7924093 48.4876594,10.0096349 46.4094096,10.0096349 C44.919797,10.0096349 43.6704633,10.548545 42.6613709,11.6263813 C41.6522785,12.7042177 41.1177078,14.074073 41.0576428,15.7359883 L51.7791958,15.7359883 Z M58.5716442,2.20589767 L61.851178,2.20589767 L61.851178,7.60709539 L64.9324983,7.60709539 L64.9324983,10.2625337 L61.851178,10.2625337 L61.851178,22.889414 C61.851178,23.5638145 62.0794217,24.0154151 62.5359159,24.2442295 C62.788189,24.376701 63.2086378,24.4429358 63.7972751,24.4429358 C63.9534441,24.4429358 64.1216237,24.4399251 64.3018187,24.4339037 C64.4820138,24.4278823 64.6922382,24.4128289 64.9324983,24.3887432 L64.9324983,26.9538605 C64.5600952,27.0622463 64.1726816,27.1405237 63.7702459,27.1886952 C63.3678103,27.2368666 62.9323454,27.260952 62.4638382,27.260952 C60.9501996,27.260952 59.9231031,26.8725754 59.3825179,26.0958107 C58.8419327,25.3190459 58.5716442,24.3104712 58.5716442,23.0700561 L58.5716442,10.2625337 L55.9588287,10.2625337 L55.9588287,7.60709539 L58.5716442,7.60709539 L58.5716442,2.20589767 Z" id="fleet" fill="#0083E7"></path>
                <path d="M74.9968129,7.17355444 C76.3662954,7.17355444 77.6937125,7.49569623 78.979104,8.13998948 C80.2644955,8.78428273 81.2435407,9.61823859 81.916269,10.6418821 C82.5649712,11.6173541 82.9974329,12.7553877 83.213667,14.0560171 C83.405875,14.9471891 83.5019776,16.3682258 83.5019776,18.3191698 L69.3567354,18.3191698 C69.4168004,20.2821567 69.8792942,21.8567376 70.7442305,23.0429598 C71.6091669,24.229182 72.9485968,24.8222841 74.7625605,24.8222841 C76.4563941,24.8222841 77.8078369,24.2622993 78.8169293,23.1423129 C79.3935535,22.4919983 79.8019895,21.7393305 80.0422496,20.8842871 L83.2316864,20.8842871 C83.1475954,21.5948161 82.8682972,22.3866226 82.3937835,23.2597303 C81.9192698,24.132838 81.3877023,24.846367 80.7990651,25.4003387 C79.8139987,26.3637679 78.5946971,27.0140728 77.1411235,27.351273 C76.3602782,27.5439589 75.4773356,27.6403003 74.4922692,27.6403003 C72.0896683,27.6403003 70.0534946,26.7641951 68.3836869,25.0119583 C66.7138793,23.2597215 65.878988,20.8060247 65.878988,17.6507942 C65.878988,14.5437351 66.7198857,12.0207929 68.4017063,10.0818917 C70.083527,8.14299049 72.2818738,7.17355444 74.9968129,7.17355444 Z M80.1683855,15.7359883 C80.0362425,14.3269731 79.7299155,13.2009822 79.2493953,12.3579817 C78.3604329,10.7924093 76.8768491,10.0096349 74.7985993,10.0096349 C73.3089867,10.0096349 72.059653,10.548545 71.0505606,11.6263813 C70.0414682,12.7042177 69.5068975,14.074073 69.4468325,15.7359883 L80.1683855,15.7359883 Z M86.3121349,7.60709539 L89.3934551,7.60709539 L89.3934551,10.3528548 C90.3064435,9.22082551 91.2734759,8.40794435 92.2945812,7.9141869 C93.3156866,7.42042946 94.4508986,7.17355444 95.700251,7.17355444 C98.4392161,7.17355444 100.289191,8.13094781 101.250231,10.0457633 C101.778804,11.0934925 102.043086,12.5928066 102.043086,14.5437507 L102.043086,26.9538605 L98.7455325,26.9538605 L98.7455325,14.7605211 C98.7455325,13.5803204 98.5713465,12.6289484 98.2229694,11.9063765 C97.6463452,10.7020901 96.6012294,10.0999559 95.0875909,10.0999559 C94.3187586,10.0999559 93.6880853,10.1782333 93.1955521,10.3347906 C92.3065897,10.5997336 91.5257562,11.1296117 90.8530279,11.9244407 C90.3124427,12.5627126 89.9610676,13.2220495 89.798892,13.9024713 C89.6367165,14.5828932 89.5556299,15.5553399 89.5556299,16.8198407 L89.5556299,26.9538605 L86.3121349,26.9538605 L86.3121349,7.60709539 Z M108.150796,21.8055617 C108.150796,22.7449051 108.493162,23.4855301 109.177903,24.0274591 C109.862644,24.569388 110.67351,24.8403483 111.610524,24.8403483 C112.75176,24.8403483 113.85694,24.5754093 114.926097,24.0455233 C116.728048,23.1663941 117.62901,21.7272934 117.62901,19.7281779 L117.62901,17.108868 C117.23258,17.3617681 116.722035,17.5725151 116.097359,17.7411152 C115.472683,17.9097153 114.860029,18.0301421 114.259379,18.1023993 L112.295262,18.3552982 C111.117988,18.5118555 110.235045,18.7587305 109.646408,19.0959307 C108.649328,19.6619453 108.150796,20.5651466 108.150796,21.8055617 Z M116.007262,15.2301905 C116.752068,15.1338476 117.250601,14.8207378 117.502874,14.2908518 C117.64703,14.001823 117.719107,13.5863504 117.719107,13.0444215 C117.719107,11.936478 117.325687,11.1326288 116.538835,10.63285 C115.751983,10.1330711 114.625781,9.88318541 113.160194,9.88318541 C111.46636,9.88318541 110.265078,10.3408074 109.556311,11.2560651 C109.159882,11.7618654 108.901606,12.5145331 108.781476,13.5140909 L105.754214,13.5140909 C105.814279,11.1296037 106.586103,9.47072402 108.069709,8.53740203 C109.553315,7.60408003 111.274152,7.13742603 113.232272,7.13742603 C115.50273,7.13742603 117.346698,7.57096265 118.764233,8.43804889 C120.169754,9.30513513 120.872505,10.6539157 120.872505,12.4844311 L120.872505,23.6300465 C120.872505,23.9672467 120.941578,24.2382071 121.079728,24.4429358 C121.217877,24.6476645 121.509188,24.7500273 121.95367,24.7500273 C122.097826,24.7500273 122.259999,24.7409953 122.440194,24.722931 C122.620389,24.7048667 122.812594,24.6777707 123.016815,24.6416421 L123.016815,27.0441815 C122.512269,27.1886959 122.127859,27.279016 121.863572,27.3151446 C121.599286,27.3512732 121.238902,27.3693372 120.782407,27.3693372 C119.665198,27.3693372 118.854332,26.9719287 118.349786,26.1770996 C118.0855,25.7555994 117.899301,25.1594865 117.791184,24.3887432 C117.130469,25.2558294 116.181456,26.0084972 114.944116,26.646769 C113.706777,27.2850408 112.343321,27.6041719 110.853709,27.6041719 C109.063771,27.6041719 107.60121,27.0592405 106.465981,25.9693612 C105.330752,24.879482 104.763146,23.5156481 104.763146,21.8778185 C104.763146,20.0834317 105.321742,18.6925017 106.438952,17.7049868 C107.556161,16.7174719 109.021726,16.1093164 110.835689,15.8805019 L116.007262,15.2301905 Z M124.763827,0.327220197 L127.917225,0.327220197 L127.917225,9.95544223 C128.625992,9.02814166 129.472896,8.32063399 130.457962,7.83289797 C131.443029,7.34516196 132.51217,7.10129761 133.665419,7.10129761 C136.06802,7.10129761 138.0171,7.92923213 139.512719,9.585126 C141.008339,11.2410199 141.756137,13.682674 141.756137,16.9101617 C141.756137,19.9690493 141.017348,22.5100556 139.539749,24.5332568 C138.062149,26.5564581 136.013962,27.5680435 133.395127,27.5680435 C131.929541,27.5680435 130.69222,27.2127843 129.683128,26.5022553 C129.082477,26.0807551 128.439791,25.4063648 127.75505,24.4790642 L127.75505,26.9538605 L124.763827,26.9538605 L124.763827,0.327220197 Z M133.196914,24.6958347 C134.950813,24.6958347 136.263214,23.997359 137.134156,22.6003867 C138.005099,21.2034145 138.440564,19.3608838 138.440564,17.0727396 C138.440564,15.0374955 138.005099,13.3515197 137.134156,12.0147618 C136.263214,10.6780038 134.980845,10.0096349 133.287011,10.0096349 C131.809411,10.0096349 130.51503,10.557577 129.403827,11.6534776 C128.292624,12.7493783 127.737031,14.5557809 127.737031,17.0727396 C127.737031,18.8912121 127.965274,20.3664409 128.421768,21.4984701 C129.274692,23.6300572 130.866391,24.6958347 133.196914,24.6958347 Z M144.458178,0.417541229 L147.701673,0.417541229 L147.701673,26.9538605 L144.458178,26.9538605 L144.458178,0.417541229 Z M159.431441,7.17355444 C160.800924,7.17355444 162.128341,7.49569623 163.413732,8.13998948 C164.699124,8.78428273 165.678169,9.61823859 166.350897,10.6418821 C166.999599,11.6173541 167.432061,12.7553877 167.648295,14.0560171 C167.840503,14.9471891 167.936606,16.3682258 167.936606,18.3191698 L153.791364,18.3191698 C153.851429,20.2821567 154.313922,21.8567376 155.178859,23.0429598 C156.043795,24.229182 157.383225,24.8222841 159.197189,24.8222841 C160.891022,24.8222841 162.242465,24.2622993 163.251558,23.1423129 C163.828182,22.4919983 164.236618,21.7393305 164.476878,20.8842871 L167.666315,20.8842871 C167.582224,21.5948161 167.302925,22.3866226 166.828412,23.2597303 C166.353898,24.132838 165.822331,24.846367 165.233693,25.4003387 C164.248627,26.3637679 163.029325,27.0140728 161.575752,27.351273 C160.794906,27.5439589 159.911964,27.6403003 158.926897,27.6403003 C156.524297,27.6403003 154.488123,26.7641951 152.818315,25.0119583 C151.148508,23.2597215 150.313616,20.8060247 150.313616,17.6507942 C150.313616,14.5437351 151.154514,12.0207929 152.836335,10.0818917 C154.518155,8.14299049 156.716502,7.17355444 159.431441,7.17355444 Z M164.603014,15.7359883 C164.470871,14.3269731 164.164544,13.2009822 163.684024,12.3579817 C162.795061,10.7924093 161.311477,10.0096349 159.233228,10.0096349 C157.743615,10.0096349 156.494281,10.548545 155.485189,11.6263813 C154.476096,12.7042177 153.941526,14.074073 153.881461,15.7359883 L164.603014,15.7359883 Z" id="enable" fill="#123672"></path>
            </g>
        </g>
    </g>
</svg>