<svg width="411" height="303" viewBox="0 0 411 303" fill="none" xmlns="http://www.w3.org/2000/svg">
<path d="M247.926 57.0947L274.292 44.2888C276.284 43.3216 278.625 43.4076 280.54 44.5184L342.568 80.4972C344.835 81.8121 344.763 85.1097 342.442 86.3251L321.803 97.1274C319.761 98.1962 317.312 98.1327 315.328 96.9593L247.926 57.0947Z" fill="#D7D8DF"/>
<path d="M313.599 97.1585L341.857 81.4157C344.125 80.152 346.902 81.8566 346.803 84.4513L344.917 133.435C344.836 135.548 343.755 137.497 342.006 138.686L313.599 157.984L313.599 97.1585Z" fill="#D6D9E4"/>
<path d="M243.707 62.5161C243.707 57.3486 249.339 54.1517 253.776 56.8004L315.35 93.5565C317.362 94.7577 318.595 96.9287 318.595 99.2723L318.594 151.218C318.594 156.392 312.95 159.588 308.513 156.926L246.938 119.982C244.933 118.779 243.706 116.612 243.706 114.273L243.707 62.5161Z" fill="#7B94B8"/>
<path d="M119.104 163.912L242.036 91.4158C244.313 90.073 247.142 90.0815 249.411 91.438L320.029 133.657C322.415 135.083 322.362 138.556 319.935 139.91L199.319 207.191C197.075 208.443 194.336 208.408 192.124 207.1L119.104 163.912Z" fill="#C2CCDA"/>
<path d="M81.291 154.707L107.657 141.901C109.648 140.934 111.99 141.02 113.905 142.131L175.933 178.109C178.2 179.424 178.128 182.722 175.806 183.937L155.168 194.74C153.126 195.809 150.676 195.745 148.692 194.572L81.291 154.707Z" fill="#D7D8DF"/>
<path d="M146.964 194.771L175.222 179.028C177.49 177.764 180.268 179.469 180.168 182.064L178.283 231.048C178.201 233.161 177.121 235.11 175.371 236.298L146.965 255.596L146.964 194.771Z" fill="#D6D9E4"/>
<path d="M77.0722 160.128C77.0722 154.961 82.7038 151.764 87.1408 154.413L148.715 191.169C150.727 192.37 151.96 194.541 151.96 196.885L151.959 249.043C151.959 254.17 146.406 257.373 141.968 254.804L80.3934 219.16C78.3375 217.97 77.0716 215.775 77.0716 213.399L77.0722 160.128Z" fill="#7B94B8"/>
<path d="M144.817 174.693C144.464 174.491 144.462 173.983 144.814 173.779L328.969 67.026C330.246 66.2856 331.823 66.2867 333.099 67.0289L369.061 87.9436C370.413 88.7303 370.426 90.6797 369.084 91.4843L190.625 198.465C189.35 199.23 187.761 199.246 186.47 198.508L144.817 174.693Z" fill="#F9FAFE"/>
<path d="M186.005 199.704L369.854 89.6945L369.956 170.688C369.957 172.161 369.172 173.522 367.896 174.257L186.005 279.002L186.005 199.704Z" fill="#C2CCDA"/>
<path d="M142.831 178.305C142.831 175.113 146.31 173.138 149.051 174.774L187.087 197.479C188.33 198.221 189.091 199.562 189.091 201.01L189.091 274.964C189.091 278.129 185.664 280.108 182.923 278.526L144.887 256.571C143.615 255.837 142.831 254.479 142.831 253.01L142.831 178.305Z" fill="#7B94B8"/>
<path d="M92.8171 57.3478C93.1223 57.1951 93.5325 57.228 93.9725 57.4402L104.678 62.6059C105.678 63.0886 106.569 64.3554 106.677 65.4495L108.793 86.7845C108.857 87.4333 108.63 87.9073 108.184 88.056L106.369 88.6608C106.05 88.7672 105.642 88.6986 105.216 88.467L97.0181 84.0096C96.1116 83.5168 95.3174 82.4014 95.148 81.3835L91.4534 59.1791C91.3426 58.5133 91.5201 57.9964 91.9299 57.7915L92.8171 57.3478Z" fill="white"/>
<rect width="15.1018" height="26.1765" rx="2.01357" transform="matrix(0.906844 0.421467 0.101451 0.994841 90.7739 57.1118)" fill="#191847"/>
<path d="M130.544 32.9221C141.618 32.9221 154.707 41.4797 144.136 56.0781C143.062 57.5613 141.618 58.9079 139.95 60.1053L146.149 76.7172L159.245 85.2749L188.421 145.446L211.578 149.977C208.222 151.823 199.295 155.111 190.435 153.501C181.575 151.89 185.401 152.829 188.421 153.501L185.905 162.058C184.605 159.893 182.188 153.33 181.538 149.231L156.217 90.2684L150.68 92.8258V122.023C152.861 124.372 157.022 131.99 156.217 143.669C155.412 155.347 154.539 187.799 154.203 202.566C156.049 216.661 159.036 252.402 156.217 264.483C156.049 266.497 159.154 267.915 158.734 272.537C158.23 278.075 145.766 289.795 143.632 282.605C142.956 280.328 145.094 279.553 147.659 272.537C147.659 272.537 149.169 270.02 148.666 265.993C148.239 262.579 145.646 242.166 144.639 234.279L140.612 213.137C139.269 211.291 136.786 205.787 137.591 198.538L136.081 153.736L130.041 152.226L128.027 202.566C129.369 212.801 131.651 235.286 130.041 243.34C129.537 245.857 128.832 251.596 130.041 254.415C130.391 255.232 131.943 260.822 131.047 261.966C128.845 264.776 109.77 264.527 107.891 261.463C107.235 260.393 119.672 258.123 119.972 255.422C119.972 255.422 121.483 250.589 119.469 243.34L115.946 211.627C114.268 209.445 111.214 203.371 112.422 196.525L110.912 149.206C110.912 141.487 112.623 125.446 119.469 123.029L113.429 99.8733L109.401 112.458L91.2793 86.7851C88.4267 83.9325 84.9365 77.422 93.7962 74.2003C100.844 71.3477 111.515 69.569 97.8231 85.2749L109.401 99.8733L113.429 94.8394L124 74.2003L130.041 70.6765L128.027 65.5036C125.213 66.2549 122.555 66.6489 120.476 66.6489C120.476 66.6489 111.415 64.6356 111.918 52.0505C112.422 39.4654 118.073 32.4693 130.544 32.9221Z" fill="#CEA885"/>
<path d="M127.018 261.463C131.046 261.463 131.717 258.778 131.549 257.436C132.891 259.114 134.167 262.973 128.528 264.986C122.89 267 110.406 265.825 104.869 264.986C101.245 263.376 108.393 260.288 112.42 258.946V261.463H127.018Z" fill="#E3E3E3"/>
<path d="M157.724 277.571C138.595 299.721 140.105 282.605 147.656 272.034C146.056 276.434 145.841 278.95 146.146 280.088C147.153 280.592 147.153 280.592 148.663 281.095C151.377 279.446 154.942 273.832 158.731 268.51C160.744 273.343 158.898 276.565 157.724 277.571Z" fill="#E3E3E3"/>
<path d="M108.896 185.45L109.903 131.587L135.576 140.648L140.106 188.47L108.896 185.45Z" fill="#55B06E"/>
<path d="M133.058 191.994L131.044 134.104L159.234 137.124L164.268 195.015L133.058 191.994Z" fill="#6CD98B"/>
<path d="M102.354 90.3089L109.402 99.37C111.878 97.3433 117.235 89.6655 118.846 75.1678C119.349 72.9864 121.967 69.0264 128.41 70.6372L120.859 101.344L115.322 106.882L109.402 113.968L93.7964 105.411L102.354 90.3089Z" fill="#191847"/>
<path d="M166.789 152.226L154.707 92.8257L150.177 84.7714L123.376 79.229L117.839 94.2964L105.375 150.213L166.789 152.226Z" fill="#2F3676"/>
<path d="M148.525 74.2206L127.404 70.1338L117.839 88.2559C117.839 88.2559 112.06 96.6303 116.833 98.3238C121.544 99.9957 126.397 99.834 141.499 103.358L166.668 151.684C166.668 151.684 156.097 98.8272 155.069 94.8598L174.198 144.961L186.396 129.616L159.246 78.4642L148.525 74.2206Z" fill="#2F3676"/>
<path fill-rule="evenodd" clip-rule="evenodd" d="M118.462 35.4392C116.866 34.3741 120.762 28.5308 122.838 28.9389C123.211 27.9354 123.776 27.1624 124.398 26.4855C125.569 25.2111 126.974 24.2607 128.525 23.6943C131.358 22.6597 134.964 23.2016 138.51 25.7492C140.301 27.0354 142.039 28.8281 143.518 30.9959C144.855 32.9544 146.14 35.4438 147.871 36.5685C149.754 37.7923 151.481 36.8683 152.991 36.554C154.694 36.1999 156.505 36.2714 158.496 37.0417C161.83 38.3323 164.962 41.4423 167.26 45.9299C169.705 50.7053 171.483 56.6644 169.877 60.1941C169.578 60.8503 169.194 61.327 168.643 61.5877C168.138 61.8267 167.366 61.9458 167.161 62.6757C166.943 63.4516 167.594 64.9901 167.846 65.9492C168.207 67.3233 168.503 68.718 168.398 69.924C168.225 71.9045 167.093 73.2373 165.899 73.915C164.683 74.6045 163.186 74.5385 161.588 73.9836C160.521 73.613 159.43 73.1188 158.345 72.4003C157.807 72.0437 157.332 71.5965 156.81 71.1579C156.303 70.7313 153.421 78.5051 152.991 78.5781C149.691 80.166 145.298 77.6301 145.298 77.6301C145.298 77.6301 131.277 70.1698 132.372 60.9572C133.467 51.7446 141.616 58.2265 142.031 55.942C141.591 55.9399 140.374 55.393 141.101 54.8085C141.389 54.577 141.934 54.7295 142.304 54.709C142.734 54.6852 143.172 54.5854 143.506 54.334C144.856 53.3189 143.493 48.8793 141.796 47.2976C139.274 44.9477 138.71 48.7421 136.91 48.7687C135.875 48.784 134.792 47.3214 134.017 46.0185C132.978 44.2732 131.047 41.9833 130.04 39.4663C129.637 38.4595 128.53 37.4527 128.53 37.4527C122.124 43.5739 112.925 43.9969 112.925 43.9969C110.795 44.3588 114.775 35.5647 118.462 35.4392Z" fill="#191847"/>
<path d="M116.832 50.9775C116.496 50.1385 115.322 48.7626 113.308 49.9707" stroke="black" stroke-width="1.00679"/>
<path d="M124.886 52.9912C124.55 52.1522 123.375 50.7762 121.362 51.9844" stroke="black" stroke-width="1.00679"/>
<path d="M121.689 57.2386C119.72 57.5052 115.552 57.7501 114.636 56.5968C113.491 55.1552 116.165 67.8858 121.689 57.2386Z" fill="white"/>
<path d="M9.56448 30.8267L61.414 1.12647C67.7314 -1.89491 75.0056 1.63008 75.0056 6.16031V16.7319C75.0056 20.2557 70.7771 28.1088 61.9174 33.3439C59.9038 34.5521 63.2598 38.21 64.9378 39.3846C61.3133 42.6063 54.7021 40.2234 52.3529 38.3776L9.56458 66.9513C0.503148 62.9242 0 63.5475 0 57.5065V48.9488C0 36.8674 3.02036 35.3575 9.56448 30.8267Z" fill="#B0C2FF"/>
<path d="M14.5982 32.8404L66.4477 3.14015C72.7651 0.118764 76.0122 3.64376 76.0122 8.17398V18.7456C76.0122 22.2694 75.8108 30.1225 66.9511 35.3576C64.9375 36.5657 68.2935 40.2237 69.9714 41.3983C66.347 44.62 59.7358 42.237 57.3866 40.3912L17.6185 64.051C8.05405 70.5951 5.03369 65.5612 5.03369 59.5202V50.9625C5.03369 38.8811 8.05405 37.3712 14.5982 32.8404Z" fill="white"/>
<path d="M16.3571 43.2851C16.7 42.5177 17.4283 42.0972 17.7804 42.4634L19.061 43.7951C19.1732 43.9116 19.3332 43.9532 19.5166 43.9134L21.6111 43.4585C22.187 43.3334 22.4186 44.0033 22.0637 44.7675L20.773 47.547C20.66 47.7903 20.6011 48.0412 20.6052 48.2609L20.6529 50.7707C20.666 51.4607 20.0808 52.2953 19.5094 52.4014L17.431 52.7876C17.2491 52.8214 17.0526 52.9348 16.8718 53.1105L14.8068 55.1165C14.239 55.668 13.6457 55.5139 13.6474 54.8153L13.6536 52.2745C13.6542 52.052 13.5917 51.8713 13.4758 51.7601L12.1519 50.4901C11.7878 50.141 12.0063 49.2112 12.5788 48.6732L14.661 46.7168C14.8433 46.5455 15.0012 46.3203 15.1103 46.076L16.3571 43.2851Z" fill="#FFBA07"/>
<path d="M28.4382 36.2373C28.781 35.4699 29.5094 35.0494 29.8615 35.4155L31.1421 36.7472C31.2542 36.8638 31.4143 36.9054 31.5977 36.8655L33.6921 36.4106C34.268 36.2856 34.4996 36.9554 34.1448 37.7197L32.8541 40.4992C32.7411 40.7425 32.6821 40.9934 32.6863 41.2131L32.734 43.7228C32.7471 44.4129 32.1619 45.2474 31.5904 45.3536L29.5121 45.7397C29.3302 45.7735 29.1336 45.887 28.9529 46.0626L26.8878 48.0686C26.32 48.6202 25.7267 48.4661 25.7284 47.7674L25.7347 45.2266C25.7352 45.0042 25.6727 44.8234 25.5568 44.7122L24.2329 43.4423C23.8689 43.0931 24.0874 42.1633 24.6599 41.6254L26.7421 39.6689C26.9243 39.4976 27.0822 39.2725 27.1914 39.0281L28.4382 36.2373Z" fill="#FFBA07"/>
<path d="M40.5207 29.1899C40.8635 28.4225 41.5919 28.002 41.944 28.3682L43.2246 29.6998C43.3367 29.8164 43.4968 29.858 43.6802 29.8182L45.7746 29.3633C46.3505 29.2382 46.5822 29.9081 46.2273 30.6723L44.9366 33.4518C44.8236 33.6951 44.7647 33.946 44.7688 34.1657L44.8165 36.6754C44.8296 37.3655 44.2444 38.2 43.6729 38.3062L41.5946 38.6924C41.4127 38.7262 41.2162 38.8396 41.0354 39.0152L38.9704 41.0213C38.4026 41.5728 37.8093 41.4187 37.811 40.7201L37.8172 38.1792C37.8177 37.9568 37.7552 37.7761 37.6393 37.6649L36.3154 36.3949C35.9514 36.0457 36.1699 35.116 36.7424 34.578L38.8246 32.6216C39.0069 32.4503 39.1648 32.2251 39.2739 31.9808L40.5207 29.1899Z" fill="#FFBA07"/>
<path d="M52.6013 22.1425C52.9441 21.3752 53.6724 20.9547 54.0246 21.3208L55.3052 22.6525C55.4173 22.7691 55.5774 22.8106 55.7607 22.7708L57.8552 22.3159C58.4311 22.1908 58.6627 22.8607 58.3079 23.625L57.0172 26.4044C56.9042 26.6478 56.8452 26.8986 56.8494 27.1183L56.897 29.6281C56.9101 30.3182 56.3249 31.1527 55.7535 31.2588L53.6752 31.645C53.4932 31.6788 53.2967 31.7923 53.1159 31.9679L51.0509 33.9739C50.4831 34.5255 49.8898 34.3713 49.8915 33.6727L49.8977 31.1319C49.8983 30.9095 49.8358 30.7287 49.7199 30.6175L48.396 29.3476C48.032 28.9984 48.2505 28.0686 48.823 27.5307L50.9051 25.5742C51.0874 25.4029 51.2453 25.1777 51.3545 24.9334L52.6013 22.1425Z" fill="#FFBA07"/>
<path d="M64.6823 15.0952C65.0252 14.3278 65.7535 13.9073 66.1056 14.2734L67.3862 15.6051C67.4984 15.7217 67.6584 15.7633 67.8418 15.7235L69.9363 15.2685C70.5122 15.1435 70.7438 15.8134 70.3889 16.5776L69.0982 19.3571C68.9852 19.6004 68.9263 19.8513 68.9304 20.071L68.9781 22.5807C68.9912 23.2708 68.406 24.1053 67.8346 24.2115L65.7562 24.5976C65.5743 24.6314 65.3778 24.7449 65.197 24.9205L63.132 26.9265C62.5642 27.4781 61.9709 27.324 61.9726 26.6253L61.9788 24.0845C61.9793 23.8621 61.9168 23.6813 61.8009 23.5702L60.477 22.3002C60.113 21.951 60.3315 21.0212 60.904 20.4833L62.9862 18.5268C63.1685 18.3556 63.3264 18.1304 63.4355 17.8861L64.6823 15.0952Z" fill="#FFBA07"/>
<path d="M291.59 177.46L356.005 140.266L355.808 265.078L291.715 301.949L291.59 177.46Z" fill="#D4AA79"/>
<path d="M226.177 140.487L291.592 179.801V301.221L226.177 263.196V140.487Z" fill="#9D734F"/>
<path d="M356.981 140.81L291.592 107.025L225.854 140.81L291.592 179.801L356.981 140.81Z" fill="#E9BD99"/>
<path d="M250.706 173.397V155.998L258.162 159.726V178.368L250.706 173.397Z" fill="#E0CFBE"/>
<path d="M250.706 156.396L316 119.903L324.195 123.415L257.601 159.844L250.706 156.396Z" fill="#F9E8DD"/>
</svg>
