<svg version="1.2" baseProfile="tiny-ps" xmlns="http://www.w3.org/2000/svg" viewBox="0 0 1440 750" width="1440" height="750">
	<title>about-banner-svg</title>
	<defs>
		<linearGradient id="grd1" gradientUnits="userSpaceOnUse"  x1="994.195" y1="306.422" x2="1022.95" y2="356.521">
			<stop offset="0" stop-color="#2b4499"  />
			<stop offset="0.75" stop-color="#2b4499"  />
			<stop offset="0.75" stop-color="#404143"  />
			<stop offset="1" stop-color="#404143"  />
		</linearGradient>
		<linearGradient id="grd2" gradientUnits="userSpaceOnUse"  x1="965.759" y1="284.046" x2="908.599" y2="383.888">
			<stop offset="0" stop-color="#3f5cc2"  />
			<stop offset="0.234" stop-color="#405dc2"  />
			<stop offset="0.234" stop-color="#a3a3a3"  />
			<stop offset="0.234" stop-color="#293b7a"  />
			<stop offset="0.552" stop-color="#2a3c7b"  />
			<stop offset="0.552" stop-color="#3f5cc2"  />
			<stop offset="0.804" stop-color="#405dc2"  />
			<stop offset="0.81" stop-color="#415ec2"  />
			<stop offset="0.814" stop-color="#293b7a"  />
			<stop offset="0.865" stop-color="#2a3c7b"  />
			<stop offset="0.867" stop-color="#535456"  />
			<stop offset="1" stop-color="#525356"  />
		</linearGradient>
		<linearGradient id="grd3" gradientUnits="userSpaceOnUse"  x1="931.28" y1="311.394" x2="999.882" y2="305.703">
			<stop offset="0" stop-color="#a0b3f6"  />
			<stop offset="0.192" stop-color="#a0b3f7"  />
			<stop offset="0.195" stop-color="#607ad6"  />
			<stop offset="0.886" stop-color="#607ad6"  />
			<stop offset="0.888" stop-color="#a0b3f7"  />
			<stop offset="0.998" stop-color="#a0b3f7"  />
		</linearGradient>
		<linearGradient id="grd4" gradientUnits="userSpaceOnUse"  x1="931.28" y1="311.394" x2="999.882" y2="305.703">
			<stop offset="0" stop-color="#a0b3f6"  />
			<stop offset="0.192" stop-color="#a0b3f7"  />
			<stop offset="0.195" stop-color="#607ad6"  />
			<stop offset="0.886" stop-color="#607ad6"  />
			<stop offset="0.888" stop-color="#a0b3f7"  />
			<stop offset="0.998" stop-color="#a0b3f7"  />
		</linearGradient>
		<linearGradient id="grd5" gradientUnits="userSpaceOnUse"  x1="1091.3" y1="364" x2="1120.06" y2="414.098">
			<stop offset="0" stop-color="#2b4499"  />
			<stop offset="0.75" stop-color="#2b4499"  />
			<stop offset="0.75" stop-color="#404143"  />
			<stop offset="1" stop-color="#404143"  />
		</linearGradient>
		<linearGradient id="grd6" gradientUnits="userSpaceOnUse"  x1="1062.87" y1="341.624" x2="1005.71" y2="441.466">
			<stop offset="0" stop-color="#3f5cc2"  />
			<stop offset="0.234" stop-color="#405dc2"  />
			<stop offset="0.234" stop-color="#a3a3a3"  />
			<stop offset="0.234" stop-color="#293b7a"  />
			<stop offset="0.552" stop-color="#2a3c7b"  />
			<stop offset="0.552" stop-color="#3f5cc2"  />
			<stop offset="0.804" stop-color="#405dc2"  />
			<stop offset="0.81" stop-color="#415ec2"  />
			<stop offset="0.814" stop-color="#293b7a"  />
			<stop offset="0.865" stop-color="#2a3c7b"  />
			<stop offset="0.867" stop-color="#535456"  />
			<stop offset="1" stop-color="#525356"  />
		</linearGradient>
		<linearGradient id="grd7" gradientUnits="userSpaceOnUse"  x1="1028.39" y1="368.972" x2="1096.99" y2="363.28">
			<stop offset="0" stop-color="#a0b3f6"  />
			<stop offset="0.192" stop-color="#a0b3f7"  />
			<stop offset="0.195" stop-color="#607ad6"  />
			<stop offset="0.886" stop-color="#607ad6"  />
			<stop offset="0.888" stop-color="#a0b3f7"  />
			<stop offset="0.998" stop-color="#a0b3f7"  />
		</linearGradient>
		<linearGradient id="grd8" gradientUnits="userSpaceOnUse"  x1="1028.39" y1="368.972" x2="1096.99" y2="363.28">
			<stop offset="0" stop-color="#a0b3f6"  />
			<stop offset="0.192" stop-color="#a0b3f7"  />
			<stop offset="0.195" stop-color="#607ad6"  />
			<stop offset="0.886" stop-color="#607ad6"  />
			<stop offset="0.888" stop-color="#a0b3f7"  />
			<stop offset="0.998" stop-color="#a0b3f7"  />
		</linearGradient>
		<linearGradient id="grd9" gradientUnits="userSpaceOnUse"  x1="1104.2" y1="483.075" x2="1133.12" y2="533.272">
			<stop offset="0" stop-color="#2b4499"  />
			<stop offset="0.75" stop-color="#2b4499"  />
			<stop offset="0.75" stop-color="#404143"  />
			<stop offset="1" stop-color="#404143"  />
		</linearGradient>
		<linearGradient id="grd10" gradientUnits="userSpaceOnUse"  x1="1075.76" y1="460.611" x2="1018.26" y2="560.651">
			<stop offset="0" stop-color="#3f5cc2"  />
			<stop offset="0.234" stop-color="#405dc2"  />
			<stop offset="0.234" stop-color="#a3a3a3"  />
			<stop offset="0.234" stop-color="#293b7a"  />
			<stop offset="0.552" stop-color="#2a3c7b"  />
			<stop offset="0.552" stop-color="#3f5cc2"  />
			<stop offset="0.804" stop-color="#405dc2"  />
			<stop offset="0.81" stop-color="#415ec2"  />
			<stop offset="0.814" stop-color="#293b7a"  />
			<stop offset="0.865" stop-color="#2a3c7b"  />
			<stop offset="0.867" stop-color="#535456"  />
			<stop offset="1" stop-color="#525356"  />
		</linearGradient>
		<linearGradient id="grd11" gradientUnits="userSpaceOnUse"  x1="1041.28" y1="488.067" x2="1109.89" y2="482.397">
			<stop offset="0" stop-color="#a0b3f6"  />
			<stop offset="0.192" stop-color="#a0b3f7"  />
			<stop offset="0.195" stop-color="#607ad6"  />
			<stop offset="0.886" stop-color="#607ad6"  />
			<stop offset="0.888" stop-color="#a0b3f7"  />
			<stop offset="0.998" stop-color="#a0b3f7"  />
		</linearGradient>
		<linearGradient id="grd12" gradientUnits="userSpaceOnUse"  x1="1041.28" y1="488.067" x2="1109.89" y2="482.397">
			<stop offset="0" stop-color="#a0b3f6"  />
			<stop offset="0.192" stop-color="#a0b3f7"  />
			<stop offset="0.195" stop-color="#607ad6"  />
			<stop offset="0.886" stop-color="#607ad6"  />
			<stop offset="0.888" stop-color="#a0b3f7"  />
			<stop offset="0.998" stop-color="#a0b3f7"  />
		</linearGradient>
		<linearGradient id="grd13" gradientUnits="userSpaceOnUse"  x1="1266.23" y1="487.749" x2="1295.05" y2="537.746">
			<stop offset="0" stop-color="#2b4499"  />
			<stop offset="0.75" stop-color="#2b4499"  />
			<stop offset="0.75" stop-color="#404143"  />
			<stop offset="1" stop-color="#404143"  />
		</linearGradient>
		<linearGradient id="grd14" gradientUnits="userSpaceOnUse"  x1="1237.91" y1="465.374" x2="1180.63" y2="565.014">
			<stop offset="0" stop-color="#3f5cc2"  />
			<stop offset="0.234" stop-color="#405dc2"  />
			<stop offset="0.234" stop-color="#a3a3a3"  />
			<stop offset="0.234" stop-color="#293b7a"  />
			<stop offset="0.552" stop-color="#2a3c7b"  />
			<stop offset="0.552" stop-color="#3f5cc2"  />
			<stop offset="0.804" stop-color="#405dc2"  />
			<stop offset="0.81" stop-color="#415ec2"  />
			<stop offset="0.814" stop-color="#293b7a"  />
			<stop offset="0.865" stop-color="#2a3c7b"  />
			<stop offset="0.867" stop-color="#535456"  />
			<stop offset="1" stop-color="#525356"  />
		</linearGradient>
		<linearGradient id="grd15" gradientUnits="userSpaceOnUse"  x1="1203.57" y1="492.722" x2="1271.9" y2="487.076">
			<stop offset="0" stop-color="#a0b3f6"  />
			<stop offset="0.192" stop-color="#a0b3f7"  />
			<stop offset="0.195" stop-color="#607ad6"  />
			<stop offset="0.886" stop-color="#607ad6"  />
			<stop offset="0.888" stop-color="#a0b3f7"  />
			<stop offset="0.998" stop-color="#a0b3f7"  />
		</linearGradient>
		<linearGradient id="grd16" gradientUnits="userSpaceOnUse"  x1="1203.57" y1="492.722" x2="1271.9" y2="487.076">
			<stop offset="0" stop-color="#a0b3f6"  />
			<stop offset="0.192" stop-color="#a0b3f7"  />
			<stop offset="0.195" stop-color="#607ad6"  />
			<stop offset="0.886" stop-color="#607ad6"  />
			<stop offset="0.888" stop-color="#a0b3f7"  />
			<stop offset="0.998" stop-color="#a0b3f7"  />
		</linearGradient>
	</defs>
	<style>
		tspan { white-space:pre }
		.shp0 { fill: #607ad6 } 
		.shp1 { fill: #2d2d2e } 
		.shp2 { fill: #4c4c4c } 
		.shp3 { fill: #f2f2f2 } 
		.shp4 { fill: #898989 } 
		.shp5 { fill: url(#grd1) } 
		.shp6 { fill: url(#grd2) } 
		.shp7 { fill: url(#grd3) } 
		.shp8 { fill: url(#grd4) } 
		.shp9 { fill: #c2ccda } 
		.shp10 { fill: none;stroke: #363636;stroke-width: 0.307 } 
		.shp11 { fill: #363636 } 
		.shp12 { fill: #535456 } 
		.shp13 { fill: #d1d1d1 } 
		.shp14 { fill: #3a3a3a } 
		.shp15 { fill: #de9753 } 
		.shp16 { fill: #c4c4c4 } 
		.shp17 { fill: #303133 } 
		.shp18 { fill: #525357 } 
		.shp19 { fill: url(#grd5) } 
		.shp20 { fill: url(#grd6) } 
		.shp21 { fill: url(#grd7) } 
		.shp22 { fill: url(#grd8) } 
		.shp23 { fill: url(#grd9) } 
		.shp24 { fill: url(#grd10) } 
		.shp25 { fill: url(#grd11) } 
		.shp26 { fill: url(#grd12) } 
		.shp27 { fill: url(#grd13) } 
		.shp28 { fill: url(#grd14) } 
		.shp29 { fill: url(#grd15) } 
		.shp30 { fill: url(#grd16) } 
	</style>
	<path id="Layer" class="shp0" d="M-1 525.22C-1 525.22 1193.14 1030.98 1439 525.22C1558.51 279.36 1439 -174.78 1439 -174.78L-1 -174.78L-1 525.22Z" />
	<path id="Layer" class="shp1" d="M924.17 312.81L922.04 314.59L925.24 316.37L927.37 314.59L924.17 312.81Z" />
	<path id="Layer" class="shp2" d="M922.04 314.59L925.24 316.37L925.24 327.73L922.04 326.31L922.04 314.59Z" />
	<path id="Layer" class="shp3" d="M949.76 259.06L1052.74 200.83L1109.97 234.22L1007.96 292.11L949.76 259.06Z" />
	<path id="Layer" class="shp4" d="M950.37 258.27L1008.83 291.65L1008.83 357.59L950.37 323.62L950.37 258.27Z" />
	<path id="Layer" class="shp5" d="M1000.59 352.59L1000.59 303.23L965.76 315.3L942.65 362.89L942.65 402.67L1108.3 307.49L1108.3 301.09L1008.77 357.57L1000.59 352.59Z" />
	<path id="Layer" class="shp6" d="M928.79 294.7L957.58 278.01L1000.59 303.23L972.16 319.56L964.69 357.92L942.65 378.52L942.65 402.67L900 378.52L900 361.47L900 353.3L921.68 332.7L928.79 294.7Z" />
	<path id="Layer" class="shp7" d="M968.96 322.76L930.21 300.03L924.88 327.73L963.98 350.11L968.96 322.76Z" />
	<path id="Layer" class="shp8" d="M998.46 309.97L975.36 322.76L970.74 349.04L998.46 333.77L998.46 309.97Z" />
	<path id="Layer" class="shp9" d="M1007.96 291.3L1109.97 233.41L1109.97 300.18L1009.02 358.07L1007.96 291.3Z" />
	<path id="Layer" class="shp2" d="M1066.66 327.71C1066.66 332.41 1063.36 338.12 1059.29 340.47C1055.22 342.82 1055.74 342.39 1051.1 338.3C1050.82 333.39 1055.22 325.81 1059.29 323.46C1063.36 321.11 1066.66 323.01 1066.66 327.71Z" />
	<path id="Layer" class="shp10" d="M1060.68 323.11C1061.63 322.88 1065.02 323.68 1066.72 325.95" />
	<path id="Layer" class="shp10" d="M1054.42 348.48C1053.33 348.75 1049.52 347.4 1047.75 344.07" />
	<path id="Layer" class="shp11" d="M1066.01 329.57C1066.01 335.69 1061.72 343.12 1056.42 346.18C1051.11 349.24 1051.79 348.69 1045.75 343.36C1045.4 336.97 1051.11 327.09 1056.42 324.03C1061.72 320.98 1066.01 323.45 1066.01 329.57Z" />
	<path id="Layer" class="shp12" d="M1059.26 347.6C1053.95 350.66 1049.66 348.19 1049.66 342.06C1049.66 335.94 1053.95 328.52 1059.26 325.45C1064.57 322.39 1068.86 324.87 1068.86 330.99C1068.86 337.11 1064.57 344.54 1059.26 347.6Z" />
	<path id="Layer" class="shp13" d="M1059.97 343.74C1056.63 345.67 1053.93 344.11 1053.93 340.25C1053.93 336.4 1056.63 331.72 1059.97 329.8C1063.31 327.87 1066.01 329.43 1066.01 333.28C1066.01 337.14 1063.31 341.81 1059.97 343.74Z" />
	<path id="Layer" class="shp14" d="M1059.97 339.64C1058.59 340.43 1057.48 339.79 1057.48 338.2C1057.48 336.62 1058.59 334.69 1059.97 333.9C1061.35 333.1 1062.46 333.75 1062.46 335.33C1062.46 336.92 1061.35 338.85 1059.97 339.64Z" />
	<path id="Layer" class="shp2" d="M1101.49 307.11C1101.49 311.81 1098.19 317.52 1094.12 319.87C1090.05 322.21 1090.57 321.79 1085.93 317.7C1085.66 312.79 1090.05 305.21 1094.12 302.86C1098.19 300.51 1101.49 302.42 1101.49 307.11Z" />
	<path id="Layer" class="shp10" d="M1095.51 302.51C1096.46 302.28 1099.85 303.08 1101.56 305.36" />
	<path id="Layer" class="shp10" d="M1089.26 327.88C1088.16 328.15 1084.36 326.8 1082.58 323.47" />
	<path id="Layer" class="shp11" d="M1100.85 308.97C1100.85 315.09 1096.55 322.52 1091.25 325.58C1085.95 328.64 1086.63 328.09 1080.59 322.76C1080.23 316.37 1085.95 306.49 1091.25 303.43C1096.55 300.38 1100.85 302.86 1100.85 308.97Z" />
	<path id="Layer" class="shp12" d="M1094.09 327C1088.78 330.06 1084.49 327.59 1084.49 321.46C1084.49 315.34 1088.78 307.92 1094.09 304.85C1099.4 301.79 1103.69 304.27 1103.69 310.39C1103.69 316.51 1099.4 323.94 1094.09 327Z" />
	<path id="Layer" class="shp13" d="M1094.8 323.14C1091.46 325.07 1088.76 323.51 1088.76 319.65C1088.76 315.8 1091.46 311.12 1094.8 309.2C1098.14 307.27 1100.84 308.83 1100.84 312.68C1100.84 316.54 1098.14 321.21 1094.8 323.14Z" />
	<path id="Layer" class="shp14" d="M1094.8 319.04C1093.42 319.83 1092.31 319.19 1092.31 317.6C1092.31 316.02 1093.42 314.09 1094.8 313.3C1096.18 312.5 1097.29 313.15 1097.29 314.73C1097.29 316.32 1096.18 318.25 1094.8 319.04Z" />
	<path id="Layer" class="shp2" d="M984.19 376.01C984.19 380.71 980.89 386.42 976.82 388.77C972.75 391.12 973.27 390.7 968.63 386.61C968.36 381.69 972.75 374.11 976.82 371.76C980.89 369.42 984.19 371.32 984.19 376.01Z" />
	<path id="Layer" class="shp10" d="M978.22 371.42C979.17 371.18 982.55 371.99 984.26 374.26" />
	<path id="Layer" class="shp10" d="M971.96 396.78C970.86 397.06 967.06 395.71 965.29 392.37" />
	<path id="Layer" class="shp11" d="M983.55 377.87C983.55 383.99 979.25 391.43 973.95 394.48C968.65 397.54 969.33 396.99 963.29 391.66C962.93 385.27 968.65 375.39 973.95 372.34C979.25 369.28 983.55 371.76 983.55 377.87Z" />
	<path id="Layer" class="shp12" d="M976.79 395.9C971.49 398.97 967.2 396.49 967.2 390.37C967.2 384.24 971.49 376.82 976.79 373.76C982.1 370.7 986.39 373.17 986.39 379.29C986.39 385.42 982.1 392.84 976.79 395.9Z" />
	<path id="Layer" class="shp13" d="M977.5 392.04C974.16 393.97 971.46 392.41 971.46 388.56C971.46 384.7 974.16 380.03 977.5 378.1C980.85 376.17 983.55 377.73 983.55 381.59C983.55 385.44 980.85 390.12 977.5 392.04Z" />
	<path id="Layer" class="shp14" d="M977.51 387.94C976.13 388.74 975.02 388.09 975.02 386.51C975.02 384.92 976.13 382.99 977.51 382.2C978.88 381.41 979.99 382.05 979.99 383.64C979.99 385.22 978.88 387.15 977.51 387.94Z" />
	<path id="Layer" class="shp9" d="M1007.92 291.4L1109.93 233.51L1109.93 300.28L1008.99 358.17L1007.92 291.4Z" />
	<path id="Layer" class="shp15" d="M930.82 385.98L938.98 390.83L938.98 395.58L930.82 390.73L930.82 385.98Z" />
	<path id="Layer" class="shp15" d="M902.13 369.64L910.3 374.5L910.3 379.24L902.13 374.39L902.13 369.64Z" />
	<path id="Layer" class="shp16" d="M912.69 375.9L927.19 384.52L927.19 389.26L912.69 380.64L912.69 375.9Z" />
	<path id="Layer" class="shp4" d="M976.07 356.82L983.18 352.59L983.18 355.44L976.07 359.66L976.07 356.82Z" />
	<path id="Layer" class="shp14" d="M974.65 355.44L974.65 343.36L976.78 341.94L976.78 354.02L974.65 355.44Z" />
	<path id="Layer" class="shp17" d="M971.8 339.1L969.67 340.52L974.64 343.36L976.78 341.94L971.8 339.1Z" />
	<path id="Layer" class="shp18" d="M974.64 343.36L969.67 340.52L969.67 352.6L974.64 355.44L974.64 343.36Z" />
	<path id="Layer" class="shp1" d="M1021.28 370.39L1019.15 372.17L1022.35 373.94L1024.48 372.17L1021.28 370.39Z" />
	<path id="Layer" class="shp2" d="M1019.15 372.17L1022.35 373.94L1022.35 385.31L1019.15 383.89L1019.15 372.17Z" />
	<path id="Layer" class="shp3" d="M1046.87 316.64L1149.85 258.41L1207.08 291.8L1105.07 349.69L1046.87 316.64Z" />
	<path id="Layer" class="shp4" d="M1047.48 315.85L1105.94 349.23L1105.94 415.17L1047.48 381.2L1047.48 315.85Z" />
	<path id="Layer" class="shp19" d="M1097.7 410.17L1097.7 360.8L1062.87 372.88L1039.76 420.47L1039.76 460.25L1205.4 365.06L1205.4 358.67L1105.88 415.14L1097.7 410.17Z" />
	<path id="Layer" class="shp20" d="M1025.9 352.28L1054.69 335.59L1097.7 360.8L1069.27 377.14L1061.8 415.5L1039.76 436.1L1039.76 460.25L997.11 436.1L997.11 419.05L997.11 410.88L1018.79 390.28L1025.9 352.28Z" />
	<path id="Layer" class="shp21" d="M1066.07 380.34L1027.32 357.61L1021.99 385.31L1061.09 407.69L1066.07 380.34Z" />
	<path id="Layer" class="shp22" d="M1095.57 367.55L1072.47 380.34L1067.84 406.62L1095.57 391.35L1095.57 367.55Z" />
	<path id="Layer" class="shp9" d="M1105.07 348.88L1207.08 290.98L1207.08 357.75L1106.13 415.65L1105.07 348.88Z" />
	<path id="Layer" class="shp2" d="M1163.76 385.29C1163.76 389.99 1160.46 395.7 1156.39 398.05C1152.32 400.39 1152.85 399.97 1148.2 395.88C1147.93 390.97 1152.32 383.39 1156.39 381.04C1160.46 378.69 1163.76 380.59 1163.76 385.29Z" />
	<path id="Layer" class="shp10" d="M1157.79 380.69C1158.74 380.45 1162.13 381.26 1163.83 383.53" />
	<path id="Layer" class="shp10" d="M1151.53 406.05C1150.43 406.33 1146.63 404.98 1144.86 401.65" />
	<path id="Layer" class="shp11" d="M1163.12 387.15C1163.12 393.26 1158.82 400.7 1153.52 403.76C1148.22 406.82 1148.9 406.26 1142.86 400.94C1142.5 394.54 1148.22 384.67 1153.52 381.61C1158.82 378.55 1163.12 381.03 1163.12 387.15Z" />
	<path id="Layer" class="shp12" d="M1156.37 405.18C1151.06 408.24 1146.77 405.76 1146.77 399.64C1146.77 393.52 1151.06 386.09 1156.37 383.03C1161.68 379.97 1165.97 382.45 1165.97 388.57C1165.97 394.69 1161.68 402.12 1156.37 405.18Z" />
	<path id="Layer" class="shp13" d="M1157.08 401.32C1153.74 403.25 1151.04 401.69 1151.04 397.83C1151.04 393.98 1153.74 389.3 1157.08 387.37C1160.42 385.45 1163.12 387 1163.12 390.86C1163.12 394.72 1160.42 399.39 1157.08 401.32Z" />
	<path id="Layer" class="shp14" d="M1157.08 397.22C1155.7 398.01 1154.59 397.37 1154.59 395.78C1154.59 394.19 1155.7 392.27 1157.08 391.48C1158.46 390.68 1159.57 391.32 1159.57 392.91C1159.57 394.5 1158.46 396.42 1157.08 397.22Z" />
	<path id="Layer" class="shp2" d="M1198.6 364.69C1198.6 369.39 1195.3 375.1 1191.23 377.44C1187.16 379.79 1187.68 379.37 1183.04 375.28C1182.77 370.37 1187.16 362.79 1191.23 360.44C1195.3 358.09 1198.6 359.99 1198.6 364.69Z" />
	<path id="Layer" class="shp10" d="M1192.62 360.09C1193.57 359.86 1196.96 360.66 1198.67 362.93" />
	<path id="Layer" class="shp10" d="M1186.37 385.45C1185.27 385.73 1181.46 384.38 1179.69 381.05" />
	<path id="Layer" class="shp11" d="M1197.95 366.55C1197.95 372.66 1193.66 380.1 1188.36 383.16C1183.06 386.22 1183.74 385.67 1177.69 380.34C1177.34 373.94 1183.06 364.07 1188.36 361.01C1193.66 357.95 1197.95 360.43 1197.95 366.55Z" />
	<path id="Layer" class="shp12" d="M1191.2 384.58C1185.89 387.64 1181.6 385.16 1181.6 379.04C1181.6 372.92 1185.89 365.49 1191.2 362.43C1196.51 359.37 1200.8 361.85 1200.8 367.97C1200.8 374.09 1196.51 381.52 1191.2 384.58Z" />
	<path id="Layer" class="shp13" d="M1191.91 380.72C1188.57 382.65 1185.87 381.09 1185.87 377.23C1185.87 373.38 1188.57 368.7 1191.91 366.77C1195.25 364.85 1197.95 366.4 1197.95 370.26C1197.95 374.12 1195.25 378.79 1191.91 380.72Z" />
	<path id="Layer" class="shp14" d="M1191.91 376.62C1190.53 377.41 1189.42 376.77 1189.42 375.18C1189.42 373.59 1190.53 371.67 1191.91 370.88C1193.29 370.08 1194.4 370.72 1194.4 372.31C1194.4 373.9 1193.29 375.82 1191.91 376.62Z" />
	<path id="Layer" class="shp2" d="M1081.3 433.59C1081.3 438.29 1078 444 1073.93 446.35C1069.86 448.7 1070.38 448.27 1065.74 444.18C1065.47 439.27 1069.86 431.69 1073.93 429.34C1078 426.99 1081.3 428.9 1081.3 433.59Z" />
	<path id="Layer" class="shp10" d="M1075.33 429C1076.27 428.76 1079.66 429.56 1081.37 431.84" />
	<path id="Layer" class="shp10" d="M1069.07 454.36C1067.97 454.63 1064.17 453.28 1062.39 449.95" />
	<path id="Layer" class="shp11" d="M1080.66 435.45C1080.66 441.57 1076.36 449 1071.06 452.06C1065.76 455.12 1066.44 454.57 1060.4 449.24C1060.04 442.85 1065.76 432.97 1071.06 429.92C1076.36 426.86 1080.66 429.34 1080.66 435.45Z" />
	<path id="Layer" class="shp12" d="M1073.9 453.48C1068.59 456.54 1064.3 454.07 1064.3 447.94C1064.3 441.82 1068.59 434.4 1073.9 431.33C1079.21 428.27 1083.5 430.75 1083.5 436.87C1083.5 442.99 1079.21 450.42 1073.9 453.48Z" />
	<path id="Layer" class="shp13" d="M1074.61 449.62C1071.27 451.55 1068.57 449.99 1068.57 446.14C1068.57 442.28 1071.27 437.61 1074.61 435.68C1077.95 433.75 1080.65 435.31 1080.65 439.16C1080.65 443.02 1077.95 447.69 1074.61 449.62Z" />
	<path id="Layer" class="shp14" d="M1074.61 445.52C1073.23 446.31 1072.12 445.67 1072.12 444.08C1072.12 442.5 1073.23 440.57 1074.61 439.78C1075.99 438.98 1077.1 439.63 1077.1 441.21C1077.1 442.8 1075.99 444.73 1074.61 445.52Z" />
	<path id="Layer" class="shp9" d="M1105.03 348.98L1207.04 291.08L1207.04 357.86L1106.09 415.75L1105.03 348.98Z" />
	<path id="Layer" class="shp15" d="M1027.92 443.56L1036.08 448.41L1036.08 453.16L1027.92 448.31L1027.92 443.56Z" />
	<path id="Layer" class="shp15" d="M999.24 427.22L1007.41 432.07L1007.41 436.82L999.24 431.97L999.24 427.22Z" />
	<path id="Layer" class="shp16" d="M1009.8 433.48L1024.3 442.09L1024.3 446.84L1009.8 438.22L1009.8 433.48Z" />
	<path id="Layer" class="shp4" d="M1073.18 414.4L1080.29 410.17L1080.29 413.01L1073.18 417.24L1073.18 414.4Z" />
	<path id="Layer" class="shp14" d="M1071.75 413.01L1071.75 400.94L1073.89 399.52L1073.89 411.59L1071.75 413.01Z" />
	<path id="Layer" class="shp17" d="M1068.91 396.68L1066.78 398.1L1071.75 400.94L1073.89 399.52L1068.91 396.68Z" />
	<path id="Layer" class="shp18" d="M1071.75 400.94L1066.78 398.1L1066.78 410.17L1071.75 413.01L1071.75 400.94Z" />
	<path id="Layer" class="shp1" d="M1034.17 489.49L1032.04 491.28L1035.24 493.06L1037.37 491.28L1034.17 489.49Z" />
	<path id="Layer" class="shp2" d="M1032.04 491.28L1035.24 493.06L1035.24 504.47L1032.04 503.04L1032.04 491.28Z" />
	<path id="Layer" class="shp3" d="M1059.76 435.53L1162.74 377.07L1219.97 410.59L1117.96 468.71L1059.76 435.53Z" />
	<path id="Layer" class="shp4" d="M1060.37 434.73L1118.83 468.25L1118.83 534.45L1060.37 500.34L1060.37 434.73Z" />
	<path id="Layer" class="shp23" d="M1110.59 529.43L1110.59 479.87L1075.76 491.99L1052.65 539.77L1052.65 579.7L1218.3 484.14L1218.3 477.73L1118.77 534.42L1110.59 529.43Z" />
	<path id="Layer" class="shp24" d="M1038.79 471.31L1067.58 454.55L1110.59 479.87L1082.16 496.27L1074.69 534.78L1052.65 555.46L1052.65 579.7L1010 555.46L1010 538.34L1010 530.14L1031.68 509.46L1038.79 471.31Z" />
	<path id="Layer" class="shp25" d="M1078.96 499.48L1040.21 476.66L1034.88 504.47L1073.98 526.93L1078.96 499.48Z" />
	<path id="Layer" class="shp26" d="M1108.46 486.64L1085.36 499.48L1080.74 525.86L1108.46 510.53L1108.46 486.64Z" />
	<path id="Layer" class="shp9" d="M1117.96 467.89L1219.97 409.77L1219.97 476.81L1119.02 534.93L1117.96 467.89Z" />
	<path id="Layer" class="shp2" d="M1176.66 504.45C1176.66 509.16 1173.36 514.9 1169.29 517.25C1165.22 519.61 1165.74 519.19 1161.1 515.08C1160.82 510.15 1165.22 502.54 1169.29 500.18C1173.36 497.82 1176.66 499.73 1176.66 504.45Z" />
	<path id="Layer" class="shp10" d="M1170.68 499.83C1171.63 499.6 1175.02 500.4 1176.72 502.69" />
	<path id="Layer" class="shp10" d="M1164.42 525.29C1163.33 525.57 1159.52 524.22 1157.75 520.87" />
	<path id="Layer" class="shp11" d="M1176.01 506.31C1176.01 512.45 1171.72 519.92 1166.42 522.99C1161.11 526.06 1161.79 525.51 1155.75 520.16C1155.4 513.74 1161.11 503.83 1166.42 500.76C1171.72 497.69 1176.01 500.18 1176.01 506.31Z" />
	<path id="Layer" class="shp12" d="M1169.26 524.42C1163.95 527.49 1159.66 525 1159.66 518.86C1159.66 512.71 1163.95 505.26 1169.26 502.18C1174.57 499.11 1178.86 501.59 1178.86 507.74C1178.86 513.89 1174.57 521.34 1169.26 524.42Z" />
	<path id="Layer" class="shp13" d="M1169.97 520.54C1166.63 522.47 1163.93 520.91 1163.93 517.04C1163.93 513.17 1166.63 508.48 1169.97 506.54C1173.31 504.61 1176.01 506.17 1176.01 510.04C1176.01 513.91 1173.31 518.6 1169.97 520.54Z" />
	<path id="Layer" class="shp14" d="M1169.97 516.42C1168.59 517.22 1167.48 516.57 1167.48 514.98C1167.48 513.39 1168.59 511.45 1169.97 510.66C1171.35 509.86 1172.46 510.51 1172.46 512.1C1172.46 513.69 1171.35 515.63 1169.97 516.42Z" />
	<path id="Layer" class="shp2" d="M1211.49 483.77C1211.49 488.48 1208.19 494.21 1204.12 496.57C1200.05 498.93 1200.57 498.51 1195.93 494.4C1195.66 489.47 1200.05 481.86 1204.12 479.5C1208.19 477.14 1211.49 479.05 1211.49 483.77Z" />
	<path id="Layer" class="shp10" d="M1205.51 479.15C1206.46 478.92 1209.85 479.72 1211.56 482" />
	<path id="Layer" class="shp10" d="M1199.26 504.61C1198.16 504.89 1194.36 503.54 1192.58 500.19" />
	<path id="Layer" class="shp11" d="M1210.85 485.63C1210.85 491.77 1206.55 499.24 1201.25 502.31C1195.95 505.38 1196.63 504.82 1190.59 499.48C1190.23 493.06 1195.95 483.14 1201.25 480.07C1206.55 477 1210.85 479.49 1210.85 485.63Z" />
	<path id="Layer" class="shp12" d="M1204.09 503.73C1198.78 506.81 1194.49 504.32 1194.49 498.18C1194.49 492.03 1198.78 484.58 1204.09 481.5C1209.4 478.43 1213.69 480.91 1213.69 487.06C1213.69 493.21 1209.4 500.66 1204.09 503.73Z" />
	<path id="Layer" class="shp13" d="M1204.8 499.86C1201.46 501.79 1198.76 500.23 1198.76 496.36C1198.76 492.49 1201.46 487.8 1204.8 485.86C1208.14 483.93 1210.84 485.49 1210.84 489.36C1210.84 493.23 1208.14 497.92 1204.8 499.86Z" />
	<path id="Layer" class="shp14" d="M1204.8 495.74C1203.42 496.54 1202.31 495.89 1202.31 494.3C1202.31 492.71 1203.42 490.77 1204.8 489.98C1206.18 489.18 1207.29 489.82 1207.29 491.42C1207.29 493.01 1206.18 494.94 1204.8 495.74Z" />
	<path id="Layer" class="shp2" d="M1094.19 552.94C1094.19 557.66 1090.89 563.39 1086.82 565.75C1082.75 568.1 1083.27 567.68 1078.63 563.57C1078.36 558.64 1082.75 551.03 1086.82 548.67C1090.89 546.32 1094.19 548.23 1094.19 552.94Z" />
	<path id="Layer" class="shp10" d="M1088.22 548.33C1089.17 548.09 1092.55 548.9 1094.26 551.18" />
	<path id="Layer" class="shp10" d="M1081.96 573.79C1080.86 574.07 1077.06 572.71 1075.29 569.36" />
	<path id="Layer" class="shp11" d="M1093.55 554.81C1093.55 560.95 1089.25 568.41 1083.95 571.48C1078.65 574.55 1079.33 574 1073.29 568.65C1072.93 562.23 1078.65 552.32 1083.95 549.25C1089.25 546.18 1093.55 548.67 1093.55 554.81Z" />
	<path id="Layer" class="shp12" d="M1086.8 572.91C1081.49 575.98 1077.2 573.5 1077.2 567.35C1077.2 561.2 1081.49 553.75 1086.8 550.67C1092.11 547.6 1096.4 550.09 1096.4 556.23C1096.4 562.38 1092.11 569.83 1086.8 572.91Z" />
	<path id="Layer" class="shp13" d="M1087.51 569.03C1084.17 570.97 1081.47 569.4 1081.47 565.53C1081.47 561.66 1084.17 556.97 1087.51 555.03C1090.85 553.1 1093.55 554.66 1093.55 558.53C1093.55 562.4 1090.85 567.1 1087.51 569.03Z" />
	<path id="Layer" class="shp14" d="M1087.51 564.92C1086.13 565.71 1085.02 565.07 1085.02 563.47C1085.02 561.88 1086.13 559.95 1087.51 559.15C1088.89 558.35 1090 559 1090 560.59C1090 562.19 1088.89 564.12 1087.51 564.92Z" />
	<path id="Layer" class="shp9" d="M1117.92 468L1219.93 409.88L1219.93 476.91L1118.99 535.03L1117.92 468Z" />
	<path id="Layer" class="shp15" d="M1040.82 562.95L1048.98 567.82L1048.98 572.58L1040.82 567.71L1040.82 562.95Z" />
	<path id="Layer" class="shp15" d="M1012.13 546.54L1020.29 551.42L1020.29 556.18L1012.13 551.31L1012.13 546.54Z" />
	<path id="Layer" class="shp16" d="M1022.69 552.82L1037.19 561.47L1037.19 566.24L1022.69 557.59L1022.69 552.82Z" />
	<path id="Layer" class="shp4" d="M1086.07 533.67L1093.18 529.43L1093.18 532.28L1086.07 536.52L1086.07 533.67Z" />
	<path id="Layer" class="shp14" d="M1084.65 532.28L1084.65 520.16L1086.78 518.73L1086.78 530.86L1084.65 532.28Z" />
	<path id="Layer" class="shp17" d="M1081.8 515.88L1079.67 517.31L1084.65 520.16L1086.78 518.73L1081.8 515.88Z" />
	<path id="Layer" class="shp18" d="M1084.65 520.16L1079.67 517.31L1079.67 529.43L1084.65 532.28L1084.65 520.16Z" />
	<path id="Layer" class="shp1" d="M1196.5 494.14L1194.37 495.92L1197.56 497.69L1199.68 495.92L1196.5 494.14Z" />
	<path id="Layer" class="shp2" d="M1194.37 495.92L1197.56 497.69L1197.56 509.06L1194.37 507.64L1194.37 495.92Z" />
	<path id="Layer" class="shp3" d="M1221.98 440.39L1324.54 382.16L1381.54 415.55L1279.94 473.44L1221.98 440.39Z" />
	<path id="Layer" class="shp4" d="M1222.59 439.59L1280.81 472.98L1280.81 538.92L1222.59 504.95L1222.59 439.59Z" />
	<path id="Layer" class="shp27" d="M1272.6 533.92L1272.6 484.55L1237.91 496.63L1214.9 544.22L1214.9 584L1379.87 488.81L1379.87 482.42L1280.75 538.89L1272.6 533.92Z" />
	<path id="Layer" class="shp28" d="M1201.1 476.03L1229.77 459.34L1272.6 484.55L1244.28 500.89L1236.85 539.25L1214.9 559.85L1214.9 584L1172.42 559.85L1172.42 542.8L1172.42 534.63L1194.02 514.03L1201.1 476.03Z" />
	<path id="Layer" class="shp29" d="M1241.1 504.09L1202.51 481.36L1197.2 509.06L1236.14 531.43L1241.1 504.09Z" />
	<path id="Layer" class="shp30" d="M1270.48 491.3L1247.47 504.09L1242.87 530.37L1270.48 515.1L1270.48 491.3Z" />
	<path id="Layer" class="shp9" d="M1279.94 472.63L1381.54 414.73L1381.54 481.5L1281 539.4L1279.94 472.63Z" />
	<path id="Layer" class="shp2" d="M1338.4 509.04C1338.4 513.74 1335.11 519.45 1331.06 521.79C1327 524.14 1327.52 523.72 1322.9 519.63C1322.63 514.72 1327 507.13 1331.06 504.79C1335.11 502.44 1338.4 504.34 1338.4 509.04Z" />
	<path id="Layer" class="shp10" d="M1332.45 504.44C1333.39 504.2 1336.77 505.01 1338.46 507.28" />
	<path id="Layer" class="shp10" d="M1326.22 529.8C1325.12 530.08 1321.33 528.73 1319.57 525.4" />
	<path id="Layer" class="shp11" d="M1337.76 510.9C1337.76 517.01 1333.48 524.45 1328.2 527.51C1322.92 530.57 1323.6 530.01 1317.58 524.69C1317.22 518.29 1322.92 508.42 1328.2 505.36C1333.48 502.3 1337.76 504.78 1337.76 510.9Z" />
	<path id="Layer" class="shp12" d="M1331.03 528.93C1325.74 531.99 1321.47 529.51 1321.47 523.39C1321.47 517.27 1325.74 509.84 1331.03 506.78C1336.32 503.72 1340.59 506.2 1340.59 512.32C1340.59 518.44 1336.32 525.87 1331.03 528.93Z" />
	<path id="Layer" class="shp13" d="M1331.74 525.07C1328.41 527 1325.72 525.44 1325.72 521.58C1325.72 517.73 1328.41 513.05 1331.74 511.12C1335.07 509.2 1337.76 510.75 1337.76 514.61C1337.76 518.47 1335.07 523.14 1331.74 525.07Z" />
	<path id="Layer" class="shp14" d="M1331.74 520.97C1330.37 521.76 1329.26 521.12 1329.26 519.53C1329.26 517.94 1330.37 516.02 1331.74 515.22C1333.11 514.43 1334.22 515.07 1334.22 516.66C1334.22 518.25 1333.11 520.17 1331.74 520.97Z" />
	<path id="Layer" class="shp2" d="M1373.09 488.44C1373.09 493.14 1369.8 498.85 1365.75 501.19C1361.69 503.54 1362.21 503.12 1357.59 499.03C1357.32 494.12 1361.69 486.54 1365.75 484.19C1369.8 481.84 1373.09 483.74 1373.09 488.44Z" />
	<path id="Layer" class="shp10" d="M1367.14 483.84C1368.08 483.61 1371.46 484.41 1373.16 486.68" />
	<path id="Layer" class="shp10" d="M1360.91 509.2C1359.81 509.48 1356.02 508.13 1354.26 504.8" />
	<path id="Layer" class="shp11" d="M1372.45 490.3C1372.45 496.41 1368.17 503.85 1362.89 506.91C1357.61 509.96 1358.29 509.41 1352.27 504.09C1351.92 497.69 1357.61 487.82 1362.89 484.76C1368.17 481.7 1372.45 484.18 1372.45 490.3Z" />
	<path id="Layer" class="shp12" d="M1365.72 508.33C1360.43 511.39 1356.16 508.91 1356.16 502.79C1356.16 496.67 1360.43 489.24 1365.72 486.18C1371.01 483.12 1375.28 485.6 1375.28 491.72C1375.28 497.84 1371.01 505.27 1365.72 508.33Z" />
	<path id="Layer" class="shp13" d="M1366.43 504.47C1363.1 506.4 1360.41 504.84 1360.41 500.98C1360.41 497.13 1363.1 492.45 1366.43 490.52C1369.76 488.6 1372.45 490.15 1372.45 494.01C1372.45 497.87 1369.76 502.54 1366.43 504.47Z" />
	<path id="Layer" class="shp14" d="M1366.43 500.37C1365.06 501.16 1363.95 500.52 1363.95 498.93C1363.95 497.34 1365.06 495.42 1366.43 494.63C1367.8 493.83 1368.91 494.47 1368.91 496.06C1368.91 497.65 1367.8 499.57 1366.43 500.37Z" />
	<path id="Layer" class="shp2" d="M1256.27 557.34C1256.27 562.04 1252.98 567.75 1248.93 570.1C1244.88 572.45 1245.39 572.02 1240.77 567.93C1240.5 563.02 1244.88 555.44 1248.93 553.09C1252.98 550.74 1256.27 552.65 1256.27 557.34Z" />
	<path id="Layer" class="shp10" d="M1250.32 552.75C1251.26 552.51 1254.64 553.31 1256.34 555.59" />
	<path id="Layer" class="shp10" d="M1244.09 578.11C1242.99 578.38 1239.21 577.03 1237.44 573.7" />
	<path id="Layer" class="shp11" d="M1255.63 559.2C1255.63 565.32 1251.35 572.75 1246.07 575.81C1240.79 578.87 1241.47 578.32 1235.45 572.99C1235.1 566.6 1240.79 556.72 1246.07 553.66C1251.35 550.61 1255.63 553.09 1255.63 559.2Z" />
	<path id="Layer" class="shp12" d="M1248.9 577.23C1243.61 580.29 1239.34 577.82 1239.34 571.69C1239.34 565.57 1243.61 558.15 1248.9 555.08C1254.19 552.02 1258.46 554.5 1258.46 560.62C1258.46 566.74 1254.19 574.17 1248.9 577.23Z" />
	<path id="Layer" class="shp13" d="M1249.61 573.37C1246.28 575.3 1243.59 573.74 1243.59 569.88C1243.59 566.03 1246.28 561.35 1249.61 559.43C1252.94 557.5 1255.63 559.06 1255.63 562.91C1255.63 566.77 1252.94 571.44 1249.61 573.37Z" />
	<path id="Layer" class="shp14" d="M1249.61 569.27C1248.24 570.06 1247.13 569.42 1247.13 567.83C1247.13 566.25 1248.24 564.32 1249.61 563.53C1250.98 562.73 1252.09 563.38 1252.09 564.96C1252.09 566.55 1250.98 568.48 1249.61 569.27Z" />
	<path id="Layer" class="shp9" d="M1279.9 472.73L1381.5 414.83L1381.5 481.61L1280.96 539.5L1279.9 472.73Z" />
	<path id="Layer" class="shp15" d="M1203.11 567.31L1211.24 572.16L1211.24 576.91L1203.11 572.05L1203.11 567.31Z" />
	<path id="Layer" class="shp15" d="M1174.55 550.97L1182.68 555.82L1182.68 560.57L1174.55 555.72L1174.55 550.97Z" />
	<path id="Layer" class="shp16" d="M1185.06 557.23L1199.5 565.84L1199.5 570.59L1185.06 561.97L1185.06 557.23Z" />
	<path id="Layer" class="shp4" d="M1248.18 538.15L1255.26 533.92L1255.26 536.76L1248.18 540.99L1248.18 538.15Z" />
	<path id="Layer" class="shp14" d="M1246.76 536.76L1246.76 524.69L1248.89 523.27L1248.89 535.34L1246.76 536.76Z" />
	<path id="Layer" class="shp17" d="M1243.93 520.43L1241.81 521.85L1246.76 524.69L1248.89 523.27L1243.93 520.43Z" />
	<path id="Layer" class="shp18" d="M1246.76 524.69L1241.81 521.85L1241.81 533.92L1246.76 536.76L1246.76 524.69Z" />
</svg>