<svg width="1440" height="976" viewBox="0 0 1440 976" fill="none" xmlns="http://www.w3.org/2000/svg">
<g clip-path="url(#clip0)">
<mask id="mask0" mask-type="alpha" maskUnits="userSpaceOnUse" x="0" y="-51" width="1440" height="575">
<path d="M1440 -51H0V293.776C148.269 274.19 265.03 322.589 304.876 349.236C660.516 584.933 847.752 579.561 1162.25 349.236C1221.31 295.275 1372.03 289.779 1440 293.776V-51Z" fill="white"/>
</mask>
<g mask="url(#mask0)">
<path d="M1440 -50H0V294.776C148.269 275.19 265.03 323.589 304.876 350.236C660.516 585.933 847.752 580.561 1162.25 350.236C1221.31 296.275 1372.03 290.779 1440 294.776V-50Z" fill="white"/>
<rect x="0.968692" width="92.0498" height="92.0498" transform="matrix(0.968692 -0.248265 0.968692 0.248265 1.03033 343.129)" stroke="#F2F2F2"/>
<rect x="0.968692" width="92.0498" height="92.0498" transform="matrix(0.968692 -0.248265 0.968692 0.248265 180.991 343.129)" stroke="#F2F2F2"/>
<rect x="0.968692" width="92.0498" height="92.0498" transform="matrix(0.968692 -0.248265 0.968692 0.248265 1.03033 389.478)" stroke="#F2F2F2"/>
<rect x="0.968692" width="92.0498" height="92.0498" transform="matrix(0.968692 -0.248265 0.968692 0.248265 180.991 389.478)" stroke="#F2F2F2"/>
<rect x="0.968692" width="92.0498" height="92.0498" transform="matrix(0.968692 -0.248265 0.968692 0.248265 1.03033 65.0381)" stroke="#F2F2F2"/>
<rect x="0.968692" width="92.0498" height="92.0498" transform="matrix(0.968692 -0.248265 0.968692 0.248265 180.991 65.0381)" stroke="#F2F2F2"/>
<rect x="0.968692" width="92.0498" height="92.0498" transform="matrix(0.968692 -0.248265 0.968692 0.248265 1.03033 111.387)" stroke="#F2F2F2"/>
<rect x="0.968692" width="92.0498" height="92.0498" transform="matrix(0.968692 -0.248265 0.968692 0.248265 180.991 111.387)" stroke="#F2F2F2"/>
<rect x="0.968692" width="92.0498" height="92.0498" transform="matrix(0.968692 -0.248265 0.968692 0.248265 720.874 343.129)" stroke="#F2F2F2"/>
<rect x="0.968692" width="92.0498" height="92.0498" transform="matrix(0.968692 -0.248265 0.968692 0.248265 900.835 343.129)" stroke="#F2F2F2"/>
<rect x="0.968692" width="92.0498" height="92.0498" transform="matrix(0.968692 -0.248265 0.968692 0.248265 720.874 389.478)" stroke="#F2F2F2"/>
<rect x="0.968692" width="92.0498" height="92.0498" transform="matrix(0.968692 -0.248265 0.968692 0.248265 900.835 389.478)" stroke="#F2F2F2"/>
<rect x="0.968692" width="92.0498" height="92.0498" transform="matrix(0.968692 -0.248265 0.968692 0.248265 720.874 65.0381)" stroke="#F2F2F2"/>
<rect x="0.968692" width="92.0498" height="92.0498" transform="matrix(0.968692 -0.248265 0.968692 0.248265 900.835 65.0381)" stroke="#F2F2F2"/>
<rect x="0.968692" width="92.0498" height="92.0498" transform="matrix(0.968692 -0.248265 0.968692 0.248265 720.874 111.387)" stroke="#F2F2F2"/>
<rect x="0.968692" width="92.0498" height="92.0498" transform="matrix(0.968692 -0.248265 0.968692 0.248265 900.835 111.387)" stroke="#F2F2F2"/>
<rect x="0.968692" width="92.0498" height="92.0498" transform="matrix(0.968692 -0.248265 0.968692 0.248265 1.03033 435.826)" stroke="#F2F2F2"/>
<rect x="0.968692" width="92.0498" height="92.0498" transform="matrix(0.968692 -0.248265 0.968692 0.248265 180.991 435.826)" stroke="#F2F2F2"/>
<rect x="0.968692" width="92.0498" height="92.0498" transform="matrix(0.968692 -0.248265 0.968692 0.248265 1.03033 482.174)" stroke="#F2F2F2"/>
<rect x="0.968692" width="92.0498" height="92.0498" transform="matrix(0.968692 -0.248265 0.968692 0.248265 180.991 482.174)" stroke="#F2F2F2"/>
<rect x="0.968692" width="92.0498" height="92.0498" transform="matrix(0.968692 -0.248265 0.968692 0.248265 1.03033 157.735)" stroke="#F2F2F2"/>
<rect x="0.968692" width="92.0498" height="92.0498" transform="matrix(0.968692 -0.248265 0.968692 0.248265 180.991 157.735)" stroke="#F2F2F2"/>
<rect x="0.968692" width="92.0498" height="92.0498" transform="matrix(0.968692 -0.248265 0.968692 0.248265 1.03033 204.084)" stroke="#F2F2F2"/>
<rect x="0.968692" width="92.0498" height="92.0498" transform="matrix(0.968692 -0.248265 0.968692 0.248265 180.991 204.084)" stroke="#F2F2F2"/>
<rect x="0.968692" width="92.0498" height="92.0498" transform="matrix(0.968692 -0.248265 0.968692 0.248265 720.874 435.826)" stroke="#F2F2F2"/>
<rect x="0.968692" width="92.0498" height="92.0498" transform="matrix(0.968692 -0.248265 0.968692 0.248265 900.835 435.826)" stroke="#F2F2F2"/>
<rect x="0.968692" width="92.0498" height="92.0498" transform="matrix(0.968692 -0.248265 0.968692 0.248265 720.874 482.174)" stroke="#F2F2F2"/>
<rect x="0.968692" width="92.0498" height="92.0498" transform="matrix(0.968692 -0.248265 0.968692 0.248265 900.835 482.174)" stroke="#F2F2F2"/>
<rect x="0.968692" width="92.0498" height="92.0498" transform="matrix(0.968692 -0.248265 0.968692 0.248265 720.874 157.735)" stroke="#F2F2F2"/>
<rect x="0.968692" width="92.0498" height="92.0498" transform="matrix(0.968692 -0.248265 0.968692 0.248265 900.835 157.735)" stroke="#F2F2F2"/>
<rect x="0.968692" width="92.0498" height="92.0498" transform="matrix(0.968692 -0.248265 0.968692 0.248265 720.874 204.084)" stroke="#F2F2F2"/>
<rect x="0.968692" width="92.0498" height="92.0498" transform="matrix(0.968692 -0.248265 0.968692 0.248265 900.835 204.084)" stroke="#F2F2F2"/>
<rect x="0.968692" width="92.0498" height="92.0498" transform="matrix(0.968692 -0.248265 0.968692 0.248265 1.03033 250.432)" stroke="#F2F2F2"/>
<rect x="0.968692" width="92.0498" height="92.0498" transform="matrix(0.968692 -0.248265 0.968692 0.248265 180.991 250.432)" stroke="#F2F2F2"/>
<rect x="0.968692" width="92.0498" height="92.0498" transform="matrix(0.968692 -0.248265 0.968692 0.248265 1.03033 296.781)" stroke="#F2F2F2"/>
<rect x="0.968692" width="92.0498" height="92.0498" transform="matrix(0.968692 -0.248265 0.968692 0.248265 180.991 296.781)" stroke="#F2F2F2"/>
<rect x="0.968692" width="92.0498" height="92.0498" transform="matrix(0.968692 -0.248265 0.968692 0.248265 1.03033 18.69)" stroke="#F2F2F2"/>
<rect x="0.968692" width="92.0498" height="92.0498" transform="matrix(0.968692 -0.248265 0.968692 0.248265 180.991 18.69)" stroke="#F2F2F2"/>
<rect x="0.968692" width="92.0498" height="92.0498" transform="matrix(0.968692 -0.248265 0.968692 0.248265 720.874 250.432)" stroke="#F2F2F2"/>
<rect x="0.968692" width="92.0498" height="92.0498" transform="matrix(0.968692 -0.248265 0.968692 0.248265 900.835 250.432)" stroke="#F2F2F2"/>
<rect x="0.968692" width="92.0498" height="92.0498" transform="matrix(0.968692 -0.248265 0.968692 0.248265 720.874 296.781)" stroke="#F2F2F2"/>
<rect x="0.968692" width="92.0498" height="92.0498" transform="matrix(0.968692 -0.248265 0.968692 0.248265 900.835 296.78)" stroke="#F2F2F2"/>
<rect x="0.968692" width="92.0498" height="92.0498" transform="matrix(0.968692 -0.248265 0.968692 0.248265 720.874 18.69)" stroke="#F2F2F2"/>
<rect x="0.968692" width="92.0498" height="92.0498" transform="matrix(0.968692 -0.248265 0.968692 0.248265 900.835 18.69)" stroke="#F2F2F2"/>
<rect x="0.968692" width="92.0498" height="92.0498" transform="matrix(0.968692 -0.248265 0.968692 0.248265 360.952 343.129)" stroke="#F2F2F2"/>
<rect x="0.968692" width="92.0498" height="92.0498" transform="matrix(0.968692 -0.248265 0.968692 0.248265 540.913 343.129)" stroke="#F2F2F2"/>
<rect x="0.968692" width="92.0498" height="92.0498" transform="matrix(0.968692 -0.248265 0.968692 0.248265 360.952 389.478)" stroke="#F2F2F2"/>
<rect x="0.968692" width="92.0498" height="92.0498" transform="matrix(0.968692 -0.248265 0.968692 0.248265 540.913 389.478)" stroke="#F2F2F2"/>
<rect x="0.968692" width="92.0498" height="92.0498" transform="matrix(0.968692 -0.248265 0.968692 0.248265 360.952 65.0381)" stroke="#F2F2F2"/>
<rect x="0.968692" width="92.0498" height="92.0498" transform="matrix(0.968692 -0.248265 0.968692 0.248265 540.913 65.0381)" stroke="#F2F2F2"/>
<rect x="0.968692" width="92.0498" height="92.0498" transform="matrix(0.968692 -0.248265 0.968692 0.248265 360.952 111.387)" stroke="#F2F2F2"/>
<rect x="0.968692" width="92.0498" height="92.0498" transform="matrix(0.968692 -0.248265 0.968692 0.248265 540.913 111.387)" stroke="#F2F2F2"/>
<rect x="0.968692" width="92.0498" height="92.0498" transform="matrix(0.968692 -0.248265 0.968692 0.248265 1080.8 343.129)" stroke="#F2F2F2"/>
<rect x="0.968692" width="92.0498" height="92.0498" transform="matrix(0.968692 -0.248265 0.968692 0.248265 1260.76 343.129)" stroke="#F2F2F2"/>
<rect x="0.968692" width="92.0498" height="92.0498" transform="matrix(0.968692 -0.248265 0.968692 0.248265 1080.8 389.478)" stroke="#F2F2F2"/>
<rect x="0.968692" width="92.0498" height="92.0498" transform="matrix(0.968692 -0.248265 0.968692 0.248265 1260.76 389.478)" stroke="#F2F2F2"/>
<rect x="0.968692" width="92.0498" height="92.0498" transform="matrix(0.968692 -0.248265 0.968692 0.248265 1080.8 65.0381)" stroke="#F2F2F2"/>
<rect x="0.968692" width="92.0498" height="92.0498" transform="matrix(0.968692 -0.248265 0.968692 0.248265 1260.76 65.0381)" stroke="#F2F2F2"/>
<rect x="0.968692" width="92.0498" height="92.0498" transform="matrix(0.968692 -0.248265 0.968692 0.248265 1080.8 111.387)" stroke="#F2F2F2"/>
<rect x="0.968692" width="92.0498" height="92.0498" transform="matrix(0.968692 -0.248265 0.968692 0.248265 1260.76 111.387)" stroke="#F2F2F2"/>
<rect x="0.968692" width="92.0498" height="92.0498" transform="matrix(0.968692 -0.248265 0.968692 0.248265 360.952 435.826)" stroke="#F2F2F2"/>
<rect x="0.968692" width="92.0498" height="92.0498" transform="matrix(0.968692 -0.248265 0.968692 0.248265 540.913 435.826)" stroke="#F2F2F2"/>
<rect x="0.968692" width="92.0498" height="92.0498" transform="matrix(0.968692 -0.248265 0.968692 0.248265 360.952 482.174)" stroke="#F2F2F2"/>
<rect x="0.968692" width="92.0498" height="92.0498" transform="matrix(0.968692 -0.248265 0.968692 0.248265 540.913 482.174)" stroke="#F2F2F2"/>
<rect x="0.968692" width="92.0498" height="92.0498" transform="matrix(0.968692 -0.248265 0.968692 0.248265 360.952 157.735)" stroke="#F2F2F2"/>
<rect x="0.968692" width="92.0498" height="92.0498" transform="matrix(0.968692 -0.248265 0.968692 0.248265 540.913 157.735)" stroke="#F2F2F2"/>
<rect x="0.968692" width="92.0498" height="92.0498" transform="matrix(0.968692 -0.248265 0.968692 0.248265 360.952 204.084)" stroke="#F2F2F2"/>
<rect x="0.968692" width="92.0498" height="92.0498" transform="matrix(0.968692 -0.248265 0.968692 0.248265 540.913 204.084)" stroke="#F2F2F2"/>
<rect x="0.968692" width="92.0498" height="92.0498" transform="matrix(0.968692 -0.248265 0.968692 0.248265 1080.8 435.826)" stroke="#F2F2F2"/>
<rect x="0.968692" width="92.0498" height="92.0498" transform="matrix(0.968692 -0.248265 0.968692 0.248265 1260.76 435.826)" stroke="#F2F2F2"/>
<rect x="0.968692" width="92.0498" height="92.0498" transform="matrix(0.968692 -0.248265 0.968692 0.248265 1080.8 482.174)" stroke="#F2F2F2"/>
<rect x="0.968692" width="92.0498" height="92.0498" transform="matrix(0.968692 -0.248265 0.968692 0.248265 1260.76 482.174)" stroke="#F2F2F2"/>
<rect x="0.968692" width="92.0498" height="92.0498" transform="matrix(0.968692 -0.248265 0.968692 0.248265 1080.8 157.735)" stroke="#F2F2F2"/>
<rect x="0.968692" width="92.0498" height="92.0498" transform="matrix(0.968692 -0.248265 0.968692 0.248265 1260.76 157.735)" stroke="#F2F2F2"/>
<rect x="0.968692" width="92.0498" height="92.0498" transform="matrix(0.968692 -0.248265 0.968692 0.248265 1080.8 204.084)" stroke="#F2F2F2"/>
<rect x="0.968692" width="92.0498" height="92.0498" transform="matrix(0.968692 -0.248265 0.968692 0.248265 1260.76 204.084)" stroke="#F2F2F2"/>
<rect x="0.968692" width="92.0498" height="92.0498" transform="matrix(0.968692 -0.248265 0.968692 0.248265 360.952 250.432)" stroke="#F2F2F2"/>
<rect x="0.968692" width="92.0498" height="92.0498" transform="matrix(0.968692 -0.248265 0.968692 0.248265 540.913 250.432)" stroke="#F2F2F2"/>
<rect x="0.968692" width="92.0498" height="92.0498" transform="matrix(0.968692 -0.248265 0.968692 0.248265 360.952 296.781)" stroke="#F2F2F2"/>
<rect x="0.968692" width="92.0498" height="92.0498" transform="matrix(0.968692 -0.248265 0.968692 0.248265 540.913 296.78)" stroke="#F2F2F2"/>
<rect x="0.968692" width="92.0498" height="92.0498" transform="matrix(0.968692 -0.248265 0.968692 0.248265 360.952 18.69)" stroke="#F2F2F2"/>
<rect x="0.968692" width="92.0498" height="92.0498" transform="matrix(0.968692 -0.248265 0.968692 0.248265 540.913 18.69)" stroke="#F2F2F2"/>
<rect x="0.968692" width="92.0498" height="92.0498" transform="matrix(0.968692 -0.248265 0.968692 0.248265 1080.8 250.432)" stroke="#F2F2F2"/>
<rect x="0.968692" width="92.0498" height="92.0498" transform="matrix(0.968692 -0.248265 0.968692 0.248265 1260.76 250.432)" stroke="#F2F2F2"/>
<rect x="0.968692" width="92.0498" height="92.0498" transform="matrix(0.968692 -0.248265 0.968692 0.248265 1080.8 296.781)" stroke="#F2F2F2"/>
<rect x="0.968692" width="92.0498" height="92.0498" transform="matrix(0.968692 -0.248265 0.968692 0.248265 1260.76 296.78)" stroke="#F2F2F2"/>
<rect x="0.968692" width="92.0498" height="92.0498" transform="matrix(0.968692 -0.248265 0.968692 0.248265 1080.8 18.69)" stroke="#F2F2F2"/>
<rect x="0.968692" width="92.0498" height="92.0498" transform="matrix(0.968692 -0.248265 0.968692 0.248265 1260.76 18.69)" stroke="#F2F2F2"/>
<rect x="0.968692" width="92.0498" height="92.0498" transform="matrix(0.968692 -0.248265 0.968692 0.248265 1.03033 366.094)" stroke="#F2F2F2"/>
<rect x="0.968692" width="92.0498" height="92.0498" transform="matrix(0.968692 -0.248265 0.968692 0.248265 180.991 366.094)" stroke="#F2F2F2"/>
<rect x="0.968692" width="92.0498" height="92.0498" transform="matrix(0.968692 -0.248265 0.968692 0.248265 1.03033 412.443)" stroke="#F2F2F2"/>
<rect x="0.968692" width="92.0498" height="92.0498" transform="matrix(0.968692 -0.248265 0.968692 0.248265 180.991 412.443)" stroke="#F2F2F2"/>
<rect x="0.968692" width="92.0498" height="92.0498" transform="matrix(0.968692 -0.248265 0.968692 0.248265 1.03033 88.0037)" stroke="#F2F2F2"/>
<rect x="0.968692" width="92.0498" height="92.0498" transform="matrix(0.968692 -0.248265 0.968692 0.248265 180.991 88.0037)" stroke="#F2F2F2"/>
<rect x="0.968692" width="92.0498" height="92.0498" transform="matrix(0.968692 -0.248265 0.968692 0.248265 1.03033 134.352)" stroke="#F2F2F2"/>
<rect x="0.968692" width="92.0498" height="92.0498" transform="matrix(0.968692 -0.248265 0.968692 0.248265 180.991 134.352)" stroke="#F2F2F2"/>
<rect x="0.968692" width="92.0498" height="92.0498" transform="matrix(0.968692 -0.248265 0.968692 0.248265 720.874 366.094)" stroke="#F2F2F2"/>
<rect x="0.968692" width="92.0498" height="92.0498" transform="matrix(0.968692 -0.248265 0.968692 0.248265 900.835 366.094)" stroke="#F2F2F2"/>
<rect x="0.968692" width="92.0498" height="92.0498" transform="matrix(0.968692 -0.248265 0.968692 0.248265 720.874 412.443)" stroke="#F2F2F2"/>
<rect x="0.968692" width="92.0498" height="92.0498" transform="matrix(0.968692 -0.248265 0.968692 0.248265 900.835 412.443)" stroke="#F2F2F2"/>
<rect x="0.968692" width="92.0498" height="92.0498" transform="matrix(0.968692 -0.248265 0.968692 0.248265 720.874 88.0037)" stroke="#F2F2F2"/>
<rect x="0.968692" width="92.0498" height="92.0498" transform="matrix(0.968692 -0.248265 0.968692 0.248265 900.835 88.0037)" stroke="#F2F2F2"/>
<rect x="0.968692" width="92.0498" height="92.0498" transform="matrix(0.968692 -0.248265 0.968692 0.248265 720.874 134.352)" stroke="#F2F2F2"/>
<rect x="0.968692" width="92.0498" height="92.0498" transform="matrix(0.968692 -0.248265 0.968692 0.248265 900.835 134.352)" stroke="#F2F2F2"/>
<rect x="0.968692" width="92.0498" height="92.0498" transform="matrix(0.968692 -0.248265 0.968692 0.248265 1.03033 458.791)" stroke="#F2F2F2"/>
<rect x="0.968692" width="92.0498" height="92.0498" transform="matrix(0.968692 -0.248265 0.968692 0.248265 180.991 458.791)" stroke="#F2F2F2"/>
<rect x="0.968692" width="92.0498" height="92.0498" transform="matrix(0.968692 -0.248265 0.968692 0.248265 1.03033 505.14)" stroke="#F2F2F2"/>
<rect x="0.968692" width="92.0498" height="92.0498" transform="matrix(0.968692 -0.248265 0.968692 0.248265 180.991 505.14)" stroke="#F2F2F2"/>
<rect x="0.968692" width="92.0498" height="92.0498" transform="matrix(0.968692 -0.248265 0.968692 0.248265 1.03033 180.7)" stroke="#F2F2F2"/>
<rect x="0.968692" width="92.0498" height="92.0498" transform="matrix(0.968692 -0.248265 0.968692 0.248265 180.991 180.7)" stroke="#F2F2F2"/>
<rect x="0.968692" width="92.0498" height="92.0498" transform="matrix(0.968692 -0.248265 0.968692 0.248265 1.03033 227.049)" stroke="#F2F2F2"/>
<rect x="0.968692" width="92.0498" height="92.0498" transform="matrix(0.968692 -0.248265 0.968692 0.248265 180.991 227.049)" stroke="#F2F2F2"/>
<rect x="0.968692" width="92.0498" height="92.0498" transform="matrix(0.968692 -0.248265 0.968692 0.248265 720.874 458.791)" stroke="#F2F2F2"/>
<rect x="0.968692" width="92.0498" height="92.0498" transform="matrix(0.968692 -0.248265 0.968692 0.248265 900.835 458.791)" stroke="#F2F2F2"/>
<rect x="0.968692" width="92.0498" height="92.0498" transform="matrix(0.968692 -0.248265 0.968692 0.248265 720.874 505.14)" stroke="#F2F2F2"/>
<rect x="0.968692" width="92.0498" height="92.0498" transform="matrix(0.968692 -0.248265 0.968692 0.248265 900.835 505.139)" stroke="#F2F2F2"/>
<rect x="0.968692" width="92.0498" height="92.0498" transform="matrix(0.968692 -0.248265 0.968692 0.248265 720.874 180.7)" stroke="#F2F2F2"/>
<rect x="0.968692" width="92.0498" height="92.0498" transform="matrix(0.968692 -0.248265 0.968692 0.248265 900.835 180.7)" stroke="#F2F2F2"/>
<rect x="0.968692" width="92.0498" height="92.0498" transform="matrix(0.968692 -0.248265 0.968692 0.248265 720.874 227.049)" stroke="#F2F2F2"/>
<rect x="0.968692" width="92.0498" height="92.0498" transform="matrix(0.968692 -0.248265 0.968692 0.248265 900.835 227.049)" stroke="#F2F2F2"/>
<rect x="0.968692" width="92.0498" height="92.0498" transform="matrix(0.968692 -0.248265 0.968692 0.248265 1.03033 273.397)" stroke="#F2F2F2"/>
<rect x="0.968692" width="92.0498" height="92.0498" transform="matrix(0.968692 -0.248265 0.968692 0.248265 180.991 273.397)" stroke="#F2F2F2"/>
<rect x="0.968692" width="92.0498" height="92.0498" transform="matrix(0.968692 -0.248265 0.968692 0.248265 1.03033 319.746)" stroke="#F2F2F2"/>
<rect x="0.968692" width="92.0498" height="92.0498" transform="matrix(0.968692 -0.248265 0.968692 0.248265 180.991 319.746)" stroke="#F2F2F2"/>
<rect x="0.968692" width="92.0498" height="92.0498" transform="matrix(0.968692 -0.248265 0.968692 0.248265 1.03033 -4.6931)" stroke="#F2F2F2"/>
<rect x="0.968692" width="92.0498" height="92.0498" transform="matrix(0.968692 -0.248265 0.968692 0.248265 180.991 -4.6931)" stroke="#F2F2F2"/>
<rect x="0.968692" width="92.0498" height="92.0498" transform="matrix(0.968692 -0.248265 0.968692 0.248265 1.03033 41.6553)" stroke="#F2F2F2"/>
<rect x="0.968692" width="92.0498" height="92.0498" transform="matrix(0.968692 -0.248265 0.968692 0.248265 180.991 41.6553)" stroke="#F2F2F2"/>
<rect x="0.968692" width="92.0498" height="92.0498" transform="matrix(0.968692 -0.248265 0.968692 0.248265 720.874 273.397)" stroke="#F2F2F2"/>
<rect x="0.968692" width="92.0498" height="92.0498" transform="matrix(0.968692 -0.248265 0.968692 0.248265 900.835 273.397)" stroke="#F2F2F2"/>
<rect x="0.968692" width="92.0498" height="92.0498" transform="matrix(0.968692 -0.248265 0.968692 0.248265 720.874 319.746)" stroke="#F2F2F2"/>
<rect x="0.968692" width="92.0498" height="92.0498" transform="matrix(0.968692 -0.248265 0.968692 0.248265 900.835 319.746)" stroke="#F2F2F2"/>
<rect x="0.968692" width="92.0498" height="92.0498" transform="matrix(0.968692 -0.248265 0.968692 0.248265 720.874 -4.6931)" stroke="#F2F2F2"/>
<rect x="0.968692" width="92.0498" height="92.0498" transform="matrix(0.968692 -0.248265 0.968692 0.248265 900.835 -4.6931)" stroke="#F2F2F2"/>
<rect x="0.968692" width="92.0498" height="92.0498" transform="matrix(0.968692 -0.248265 0.968692 0.248265 720.874 41.6553)" stroke="#F2F2F2"/>
<rect x="0.968692" width="92.0498" height="92.0498" transform="matrix(0.968692 -0.248265 0.968692 0.248265 900.835 41.6553)" stroke="#F2F2F2"/>
<rect x="0.968692" width="92.0498" height="92.0498" transform="matrix(0.968692 -0.248265 0.968692 0.248265 360.952 366.094)" stroke="#F2F2F2"/>
<rect x="0.968692" width="92.0498" height="92.0498" transform="matrix(0.968692 -0.248265 0.968692 0.248265 540.913 366.094)" stroke="#F2F2F2"/>
<rect x="0.968692" width="92.0498" height="92.0498" transform="matrix(0.968692 -0.248265 0.968692 0.248265 360.952 412.443)" stroke="#F2F2F2"/>
<rect x="0.968692" width="92.0498" height="92.0498" transform="matrix(0.968692 -0.248265 0.968692 0.248265 540.913 412.443)" stroke="#F2F2F2"/>
<rect x="0.968692" width="92.0498" height="92.0498" transform="matrix(0.968692 -0.248265 0.968692 0.248265 360.952 88.0037)" stroke="#F2F2F2"/>
<rect x="0.968692" width="92.0498" height="92.0498" transform="matrix(0.968692 -0.248265 0.968692 0.248265 540.913 88.0037)" stroke="#F2F2F2"/>
<rect x="0.968692" width="92.0498" height="92.0498" transform="matrix(0.968692 -0.248265 0.968692 0.248265 360.952 134.352)" stroke="#F2F2F2"/>
<rect x="0.968692" width="92.0498" height="92.0498" transform="matrix(0.968692 -0.248265 0.968692 0.248265 540.913 134.352)" stroke="#F2F2F2"/>
<rect x="0.968692" width="92.0498" height="92.0498" transform="matrix(0.968692 -0.248265 0.968692 0.248265 1080.8 366.094)" stroke="#F2F2F2"/>
<rect x="0.968692" width="92.0498" height="92.0498" transform="matrix(0.968692 -0.248265 0.968692 0.248265 1260.76 366.094)" stroke="#F2F2F2"/>
<rect x="0.968692" width="92.0498" height="92.0498" transform="matrix(0.968692 -0.248265 0.968692 0.248265 1080.8 412.443)" stroke="#F2F2F2"/>
<rect x="0.968692" width="92.0498" height="92.0498" transform="matrix(0.968692 -0.248265 0.968692 0.248265 1260.76 412.443)" stroke="#F2F2F2"/>
<rect x="0.968692" width="92.0498" height="92.0498" transform="matrix(0.968692 -0.248265 0.968692 0.248265 1080.8 88.0037)" stroke="#F2F2F2"/>
<rect x="0.968692" width="92.0498" height="92.0498" transform="matrix(0.968692 -0.248265 0.968692 0.248265 1260.76 88.0037)" stroke="#F2F2F2"/>
<rect x="0.968692" width="92.0498" height="92.0498" transform="matrix(0.968692 -0.248265 0.968692 0.248265 1080.8 134.352)" stroke="#F2F2F2"/>
<rect x="0.968692" width="92.0498" height="92.0498" transform="matrix(0.968692 -0.248265 0.968692 0.248265 1260.76 134.352)" stroke="#F2F2F2"/>
<rect x="0.968692" width="92.0498" height="92.0498" transform="matrix(0.968692 -0.248265 0.968692 0.248265 360.952 458.791)" stroke="#F2F2F2"/>
<rect x="0.968692" width="92.0498" height="92.0498" transform="matrix(0.968692 -0.248265 0.968692 0.248265 540.913 458.791)" stroke="#F2F2F2"/>
<rect x="0.968692" width="92.0498" height="92.0498" transform="matrix(0.968692 -0.248265 0.968692 0.248265 360.952 505.14)" stroke="#F2F2F2"/>
<rect x="0.968692" width="92.0498" height="92.0498" transform="matrix(0.968692 -0.248265 0.968692 0.248265 540.913 505.14)" stroke="#F2F2F2"/>
<rect x="0.968692" width="92.0498" height="92.0498" transform="matrix(0.968692 -0.248265 0.968692 0.248265 360.952 180.7)" stroke="#F2F2F2"/>
<rect x="0.968692" width="92.0498" height="92.0498" transform="matrix(0.968692 -0.248265 0.968692 0.248265 540.913 180.7)" stroke="#F2F2F2"/>
<rect x="0.968692" width="92.0498" height="92.0498" transform="matrix(0.968692 -0.248265 0.968692 0.248265 360.952 227.049)" stroke="#F2F2F2"/>
<rect x="0.968692" width="92.0498" height="92.0498" transform="matrix(0.968692 -0.248265 0.968692 0.248265 540.913 227.049)" stroke="#F2F2F2"/>
<rect x="0.968692" width="92.0498" height="92.0498" transform="matrix(0.968692 -0.248265 0.968692 0.248265 1080.8 458.791)" stroke="#F2F2F2"/>
<rect x="0.968692" width="92.0498" height="92.0498" transform="matrix(0.968692 -0.248265 0.968692 0.248265 1260.76 458.791)" stroke="#F2F2F2"/>
<rect x="0.968692" width="92.0498" height="92.0498" transform="matrix(0.968692 -0.248265 0.968692 0.248265 1080.8 505.14)" stroke="#F2F2F2"/>
<rect x="0.968692" width="92.0498" height="92.0498" transform="matrix(0.968692 -0.248265 0.968692 0.248265 1260.76 505.14)" stroke="#F2F2F2"/>
<rect x="0.968692" width="92.0498" height="92.0498" transform="matrix(0.968692 -0.248265 0.968692 0.248265 1080.8 180.7)" stroke="#F2F2F2"/>
<rect x="0.968692" width="92.0498" height="92.0498" transform="matrix(0.968692 -0.248265 0.968692 0.248265 1260.76 180.7)" stroke="#F2F2F2"/>
<rect x="0.968692" width="92.0498" height="92.0498" transform="matrix(0.968692 -0.248265 0.968692 0.248265 1080.8 227.049)" stroke="#F2F2F2"/>
<rect x="0.968692" width="92.0498" height="92.0498" transform="matrix(0.968692 -0.248265 0.968692 0.248265 1260.76 227.049)" stroke="#F2F2F2"/>
<rect x="0.968692" width="92.0498" height="92.0498" transform="matrix(0.968692 -0.248265 0.968692 0.248265 360.952 273.397)" stroke="#F2F2F2"/>
<rect x="0.968692" width="92.0498" height="92.0498" transform="matrix(0.968692 -0.248265 0.968692 0.248265 540.913 273.397)" stroke="#F2F2F2"/>
<rect x="0.968692" width="92.0498" height="92.0498" transform="matrix(0.968692 -0.248265 0.968692 0.248265 360.952 319.746)" stroke="#F2F2F2"/>
<rect x="0.968692" width="92.0498" height="92.0498" transform="matrix(0.968692 -0.248265 0.968692 0.248265 540.913 319.746)" stroke="#F2F2F2"/>
<rect x="0.968692" width="92.0498" height="92.0498" transform="matrix(0.968692 -0.248265 0.968692 0.248265 360.952 -4.6931)" stroke="#F2F2F2"/>
<rect x="0.968692" width="92.0498" height="92.0498" transform="matrix(0.968692 -0.248265 0.968692 0.248265 540.913 -4.6931)" stroke="#F2F2F2"/>
<rect x="0.968692" width="92.0498" height="92.0498" transform="matrix(0.968692 -0.248265 0.968692 0.248265 360.952 41.6553)" stroke="#F2F2F2"/>
<rect x="0.968692" width="92.0498" height="92.0498" transform="matrix(0.968692 -0.248265 0.968692 0.248265 540.913 41.6553)" stroke="#F2F2F2"/>
<rect x="0.968692" width="92.0498" height="92.0498" transform="matrix(0.968692 -0.248265 0.968692 0.248265 1080.8 273.397)" stroke="#F2F2F2"/>
<rect x="0.968692" width="92.0498" height="92.0498" transform="matrix(0.968692 -0.248265 0.968692 0.248265 1260.76 273.397)" stroke="#F2F2F2"/>
<rect x="0.968692" width="92.0498" height="92.0498" transform="matrix(0.968692 -0.248265 0.968692 0.248265 1080.8 319.746)" stroke="#F2F2F2"/>
<rect x="0.968692" width="92.0498" height="92.0498" transform="matrix(0.968692 -0.248265 0.968692 0.248265 1260.76 319.746)" stroke="#F2F2F2"/>
<rect x="0.968692" width="92.0498" height="92.0498" transform="matrix(0.968692 -0.248265 0.968692 0.248265 1080.8 -4.6931)" stroke="#F2F2F2"/>
<rect x="0.968692" width="92.0498" height="92.0498" transform="matrix(0.968692 -0.248265 0.968692 0.248265 1260.76 -4.6931)" stroke="#F2F2F2"/>
<rect x="0.968692" width="92.0498" height="92.0498" transform="matrix(0.968692 -0.248265 0.968692 0.248265 1080.8 41.6553)" stroke="#F2F2F2"/>
<rect x="0.968692" width="92.0498" height="92.0498" transform="matrix(0.968692 -0.248265 0.968692 0.248265 1260.76 41.6553)" stroke="#F2F2F2"/>
</g>
<rect x="123.606" y="577.835" width="46.1382" height="38.8699" transform="rotate(-30 123.606 577.835)" fill="#2B2B2B"/>
<path d="M141.482 560.821C151.119 577.512 160.21 601.636 143.891 611.057C127.573 620.479 108.899 599.683 100.217 584.646C93.4454 572.916 94.6735 549.909 106.069 543.33C117.464 536.751 134.71 549.092 141.482 560.821Z" fill="white"/>
<path d="M141.482 560.821C151.119 577.512 160.21 601.636 143.891 611.057C127.573 620.479 108.899 599.683 100.217 584.646C93.4454 572.916 94.6735 549.909 106.069 543.33C117.464 536.751 134.71 549.092 141.482 560.821Z" fill="black"/>
<path d="M133.19 573.017C137.289 580.116 141.074 590.423 133.768 594.641C126.462 598.86 118.408 590.079 114.715 583.684C111.835 578.695 112.601 568.769 117.703 565.823C122.805 562.878 130.31 568.028 133.19 573.017Z" fill="white"/>
<path d="M133.19 573.017C137.289 580.116 141.074 590.423 133.768 594.641C126.462 598.86 118.408 590.079 114.715 583.684C111.835 578.695 112.601 568.769 117.703 565.823C122.805 562.878 130.31 568.028 133.19 573.017Z" fill="white"/>
<path d="M261.448 387.758L144.579 454.204L96.983 426.4C79.2642 416.221 62.8962 417.132 58.3408 417.918L164.371 358.069C187.462 344.875 201.6 352.414 211.496 358.069L261.448 387.758Z" fill="#3F5CC2"/>
<path d="M145.05 453.295L261.919 384.931V505.565L145.05 574.372V453.295Z" fill="#132152"/>
<rect x="36.7207" y="508" width="16" height="18" rx="2" fill="#F2F2F2"/>
<path d="M44.2209 460.5L49.2209 458L51.2207 456.5V460.5L44.2209 463.5V476L51.2207 473.5V476L49.2209 477.5C47.5542 477.5 44.2209 478 44.2209 480C44.2209 482 42.8874 484.5 42.2207 485.5C40.7208 486.5 37.3208 488.5 35.7207 488.5C34.1206 488.5 32.0541 486.5 31.2209 485.5C31.0542 481.333 30.8209 472 31.2209 468C31.7209 463 32.7209 462 37.7209 458C41.7209 454.8 43.7209 455.667 44.2209 456.5V460.5Z" fill="#333333" stroke="#333333"/>
<path d="M37.028 464.949L41.7207 462V479.695C41.7207 481.661 40.3798 482.153 39.7093 482.153C35.9552 484.512 35.0168 484.119 35.0168 483.627C34.7934 479.859 34.4805 471.634 35.0168 468.881C35.5531 466.129 36.5811 465.113 37.028 464.949Z" fill="white"/>
<path d="M43.3493 435.352C61.2752 391.141 99.8345 430.117 146.05 453.261L145.841 573.49L139.514 565.717C109.638 529.347 91.3388 555.847 99.2747 578.991C99.8989 580.812 100.675 583.666 100.675 585.604C98.8079 590.327 94.3883 585.24 92.3654 583.666L45.6833 556.27C40.0814 555.137 38.0586 544.777 37.7474 539.738C37.2806 535.96 36.4403 528.024 36.8138 526.513C37.1872 525.001 39.1479 524.624 40.0815 524.624C47.9241 516.31 43.3493 510.453 40.0815 508.564V494.866C40.0815 492.977 41.3264 492.19 41.9488 492.032C47.5507 490.899 49.2623 487.781 49.4179 486.364V443.854C49.4179 440.075 45.839 436.611 43.3493 435.352Z" fill="#293B7A"/>
<path d="M57.7207 458.423C57.7207 454.627 61.7831 452.216 65.115 454.033L110.115 478.579C111.721 479.455 112.721 481.138 112.721 482.968V517.606C112.721 521.275 108.901 523.694 105.584 522.126L60.5838 500.853C58.8356 500.027 57.7207 498.267 57.7207 496.333V458.423Z" fill="#607AD6"/>
<path d="M63.7207 453.5L110.099 478.582C111.714 479.456 112.721 481.144 112.721 482.98V518.5L67.0791 497.326C65.3325 496.516 64.2063 494.775 64.1836 492.849L63.7207 453.5Z" fill="#A0B3F6"/>
<path d="M436 718L159.5 560V604.5L436 766V718Z" fill="#293B7A"/>
<path d="M437.721 602.65L158.721 440L159.719 561.296L437.721 720V602.65Z" fill="#C2CCDA"/>
<path d="M557.721 533L277.747 372.207L158.721 440L436.337 602.51L557.721 533Z" fill="#F2F2F2"/>
<line x1="1.5" y1="-1.5" x2="18.2298" y2="-1.5" transform="matrix(0.866026 0.499999 -0.500001 0.866025 94.7295 532.984)" stroke="#4F4F4F" stroke-width="3" stroke-linecap="round"/>
<line x1="97.8357" y1="535.334" x2="107.276" y2="540.785" stroke="#E8E8E8" stroke-width="3" stroke-linecap="round"/>
<path d="M119.405 455.776C118.405 457.776 117.341 457.702 115.906 456.874C114.471 456.045 113.406 454.776 114.405 452.776C115.405 450.776 117.471 450.849 118.906 451.678C120.341 452.506 120.405 453.776 119.405 455.776Z" fill="#FFBA07"/>
<path d="M65.4053 427.776C64.4054 429.776 63.3406 429.702 61.9057 428.874C60.4709 428.045 59.4057 426.776 60.4055 424.776C61.4053 422.776 63.4709 422.849 64.9057 423.678C66.3406 424.506 66.4053 425.776 65.4053 427.776Z" fill="#FFBA07"/>
<path d="M396.864 281.29L419.484 295.427L263.973 385.435C258.318 392.221 257.847 398.63 258.318 400.986L259.26 753.478C252.349 749.08 234.096 739.247 231.457 738.87C228.818 738.493 228.472 732.744 228.63 729.916V379.78C230.138 370.355 237.426 365.172 240.882 363.758L384.612 281.29C389.89 277.143 394.979 279.562 396.864 281.29Z" fill="url(#paint0_linear)"/>
<path fill-rule="evenodd" clip-rule="evenodd" d="M259.735 386.844C258.275 387.685 257.375 389.242 257.375 390.927V749.561C257.375 753.188 261.301 755.455 264.442 753.643L340.786 709.609L421.838 662.858C423.297 662.016 424.196 660.459 424.196 658.774L424.071 300.28C424.069 296.655 420.146 294.389 417.005 296.199L259.735 386.844ZM262.563 392.02C261.103 392.861 260.203 394.418 260.203 396.104V742.023C260.203 745.65 264.127 747.917 267.269 746.106L419.009 658.629C420.469 657.787 421.369 656.23 421.368 654.545L421.248 308.76C421.246 305.136 417.324 302.869 414.183 304.679L262.563 392.02Z" fill="#A4B0DB"/>
<path d="M412.5 305.5L287.5 377.5L421.5 455V310.323C421.5 302.5 416.5 303 412.5 305.5Z" fill="url(#paint1_linear)"/>
<path d="M232.871 432.156C232.871 426.986 238.548 423.825 242.943 426.548C244.885 427.751 246.066 429.873 246.066 432.156V493.282C246.066 498.453 240.389 501.614 235.994 498.891C234.052 497.688 232.871 495.566 232.871 493.282V432.156Z" fill="#E3E5EC"/>
<path d="M232.871 431.576C232.871 427.537 237.62 425.37 240.671 428.017C241.703 428.912 242.296 430.21 242.296 431.576V495.748C242.296 499.787 237.547 501.954 234.495 499.308C233.464 498.413 232.871 497.114 232.871 495.748V431.576Z" fill="#A4B0DB"/>
<path d="M232.871 516.693C232.871 512.044 237.551 508.853 241.879 510.551C244.405 511.543 246.066 513.979 246.066 516.693V551.062C246.066 555.711 241.386 558.902 237.058 557.204C234.533 556.213 232.871 553.776 232.871 551.062V516.693Z" fill="#E3E5EC"/>
<path d="M232.871 515.925C232.871 512.342 236.712 510.069 239.852 511.795C241.359 512.623 242.296 514.206 242.296 515.925V553.715C242.296 557.299 238.455 559.571 235.314 557.846C233.807 557.018 232.871 555.435 232.871 553.715V515.925Z" fill="#A4B0DB"/>
<path d="M400 700.5C415 721 412 739.5 396.171 752C383.374 760.681 365.181 746.297 356.5 733.5C347.819 720.703 343.703 697.681 356.5 689C372.5 678.146 391.319 687.703 400 700.5Z" fill="#333333"/>
<path d="M384 714.5C389 723.5 390.232 733.434 384 737C377.768 740.566 367.022 732.428 363.456 726.196C359.891 719.965 358.768 708.066 365 704.5C371.232 700.934 379 705.5 384 714.5Z" fill="#F2F2F2"/>
<path d="M435.867 603.118L557.721 533L557.721 650L435.721 720L435.867 603.118Z" fill="#898989"/>
<path d="M440.396 631.721L479 609.5L555 646L440.396 712.203L440.396 631.721Z" fill="#333333"/>
<path d="M479 609.5L555 565.578L555 646L479 609.5Z" fill="#4F4F4F"/>
<path d="M473.447 560.553L529.74 528.05L529.567 637.124L473.556 669.345L473.447 560.553Z" fill="#D4AA79"/>
<path d="M416.282 528.242L473.449 562.599V668.709L416.282 635.478V528.242Z" fill="#9D734F"/>
<path d="M530.593 528.525L473.45 499L416.001 528.525L473.45 562.6L530.593 528.525Z" fill="#E9BD99"/>
<path d="M437.719 557.003V541.798L444.235 545.056V561.347L437.719 557.003Z" fill="#E0CFBE"/>
<path d="M437.719 542.146L494.779 510.254L501.941 513.323L443.745 545.159L437.719 542.146Z" fill="#F9E8DD"/>
<path d="M439.181 622.047L438.68 622.335L438.68 622.913L438.68 631.08L438.68 632.813L440.181 631.945L554.5 565.866L555 565.577L555 565L555 557L555 555.269L553.501 556.134L439.181 622.047Z" fill="#E0E0E0" stroke="#898989" stroke-width="2"/>
<path d="M439.181 612.114L438.68 612.402L438.68 612.98L438.68 621.147L438.68 622.88L440.181 622.012L554.5 555.932L555 555.644L555 555.067L555 547.067L555 545.336L553.501 546.2L439.181 612.114Z" fill="#E0E0E0" stroke="#898989" stroke-width="2"/>
<path d="M439.181 602.114L438.68 602.402L438.68 602.98L438.68 611.147L438.68 612.88L440.181 612.012L554.5 545.932L555 545.644L555 545.067L555 537.067L555 535.336L553.501 536.2L439.181 602.114Z" fill="#E0E0E0" stroke="#898989" stroke-width="2"/>
<line x1="1.5" y1="-1.5" x2="2.10555" y2="-1.5" transform="matrix(0.866023 -0.500004 0.499996 0.866028 497 596.803)" stroke="black" stroke-width="3" stroke-linecap="round"/>
<path d="M438.08 714.856L438.219 603.741L555.075 536.499L555.075 647.728L438.08 714.856Z" stroke="#898989" stroke-width="5"/>
<path d="M260.221 500L435.867 603.118L435.721 720L260.221 618.5V500Z" fill="#C2CCDA"/>
<path d="M557.72 533L348.215 413.205L288.221 377.5L261.721 392.5C261.721 392.5 260.864 393.213 260.72 393.5C260.471 394 260.221 395 260.221 395L260.221 500L435.867 603.118L557.72 533Z" fill="#F9FAFE"/>
<path d="M435.5 720L557.72 650L558.123 696.077L436 766L435.5 720Z" fill="#3F5CC2"/>
<path d="M260.221 617.5L435.5 720L436 766L402 746C402 746 405 702.164 375 688.5C345 674.836 348.964 715 348.964 715L260.221 663V617.5Z" fill="#293B7A"/>
<path d="M453 724.5C453 721.961 451.402 719.697 449.009 718.847C445.103 717.458 441 720.355 441 724.5V745.218C441 749.377 445.127 752.274 449.039 750.861C451.416 750.002 453 747.746 453 745.218V724.5Z" fill="#923531"/>
<path d="M453 724.646C453 721.932 450.834 719.713 448.12 719.648C445.313 719.58 443 721.838 443 724.646V746.116C443 749.962 447.162 752.368 450.495 750.449C452.045 749.556 453 747.904 453 746.116V724.646Z" fill="#FF523E"/>
<path d="M557 664.5C557 661.961 555.402 659.697 553.009 658.847C549.103 657.458 545 660.355 545 664.5V685.218C545 689.377 549.127 692.274 553.039 690.861C555.416 690.002 557 687.746 557 685.218V664.5Z" fill="#923531"/>
<path d="M557 664.646C557 661.932 554.834 659.713 552.12 659.648C549.313 659.58 547 661.838 547 664.646V686.116C547 689.962 551.162 692.368 554.495 690.449C556.045 689.556 557 687.904 557 686.116V664.646Z" fill="#FF523E"/>
<path d="M487 713L522.5 693.5L522.5 704L487 723.66L487 713Z" fill="#F2F2F2"/>
<path d="M423 722.5C422 724.5 420.935 724.426 419.5 723.598C418.066 722.769 417 721.5 418 719.5C419 717.5 421.066 717.573 422.5 718.402C423.935 719.23 424 720.5 423 722.5Z" fill="#FFBA07"/>
<path fill-rule="evenodd" clip-rule="evenodd" d="M770.208 586.926C767.478 588.573 764.796 589.369 763.537 589.044C760.38 588.23 760.09 576.672 762.532 572.116C764.975 567.56 777.532 565.574 778.165 574.601C778.385 577.734 777.071 580.53 775.128 582.812L778.611 599.057H768.494L770.208 586.926Z" fill="#CEA885"/>
<path fill-rule="evenodd" clip-rule="evenodd" d="M761.577 574.162C761.678 573.571 761.923 572.915 762.12 572.357C762.375 571.636 762.761 570.987 763.185 570.375C763.984 569.223 764.942 568.182 766 567.318C767.933 565.741 770.393 564.831 772.812 565.126C774.034 565.275 775.219 565.742 776.229 566.518C777.14 567.219 778.017 568.251 779.198 568.325C780.483 568.406 781.661 567.271 782.691 566.57C783.853 565.78 785.088 565.205 786.446 564.981C788.721 564.606 790.858 565.375 792.425 567.243C794.093 569.23 795.306 572.144 794.21 574.777C794.007 575.267 793.745 575.679 793.369 576.021C793.024 576.335 792.497 576.669 792.358 577.17C792.209 577.702 792.653 578.39 792.825 578.87C793.071 579.559 793.273 580.282 793.202 581.03C793.083 582.259 792.311 583.433 791.496 584.241C790.667 585.063 789.646 585.534 788.556 585.751C787.828 585.897 787.084 585.977 786.344 585.922C785.976 585.895 785.652 585.793 785.296 585.712C784.95 585.633 782.985 591.208 782.691 591.398C780.439 593.462 777.443 593.462 777.443 593.462C777.443 593.462 767.877 593.837 768.624 588.021C769.372 582.205 774.931 583.255 775.214 581.763C774.914 581.912 774.083 582.004 774.58 581.411C774.776 581.176 775.148 581.08 775.4 580.942C775.694 580.781 775.992 580.573 776.22 580.31C777.141 579.25 776.211 577.092 775.053 576.737C773.333 576.208 772.948 578.643 771.72 579.272C771.014 579.634 770.276 579.139 769.747 578.634C769.038 577.957 768.555 577.06 768.138 576.148C767.795 575.396 767.475 574.634 767.125 573.887C766.962 573.537 766.396 572.55 766.68 572.156C765.448 571.91 764.076 572.422 763.015 573.094C762.576 573.372 762.242 573.678 762.008 574.168C761.958 574.273 761.849 574.586 761.712 574.598C761.457 574.622 761.552 574.31 761.577 574.162Z" fill="#191847"/>
<path d="M790.201 679.604L790.345 636L773.541 641.19L788.268 710.551C788.125 714.548 790.526 716.236 791.833 717.156L791.872 717.183L795.189 713.696L790.201 679.604Z" fill="#CEA885"/>
<path fill-rule="evenodd" clip-rule="evenodd" d="M777.079 644.399L776.934 688.003L781.478 720.835C780.138 721.193 779.733 724.481 778.898 725.401C778.349 726.006 774.541 725.284 772.122 723.383C770.898 722.421 770.459 720.539 770.103 719.634C769.815 716.895 774.428 718.094 774.573 718.048L759.257 641.04L777.079 644.399Z" fill="#CEA885"/>
<path d="M785.098 709.831C786.482 710.638 787.645 710.455 788.27 710.407C788.039 713.868 791.105 716.559 792.451 717.328C788.991 717.039 788.27 716.319 785.098 714.444C781.926 712.57 783.368 708.821 785.098 709.831Z" fill="#CEA885"/>
<path d="M777.457 727.421C779.763 728.69 781.878 727.949 782.647 727.421C784.723 723.845 782.743 721.509 781.493 720.789C779.187 721.365 778.37 723.48 777.745 724.537C773.449 723.249 771.232 722.221 771.257 720.789C772.017 719.041 772.906 718.642 774.429 718.049C771.891 715.165 767.854 716.175 767.076 717.472C764.654 721.509 773.131 725.643 777.457 727.421Z" fill="#E3E3E3"/>
<path d="M791.146 719.765C793.453 721.034 795.568 720.294 796.337 719.765C798.413 716.189 796.433 713.854 795.183 713.133C792.876 713.71 792.497 715.55 791.872 716.607C786.495 715.195 784.866 714.316 785.379 712.556L788.118 710.393C785.581 707.51 781.544 708.519 780.765 709.817C778.343 713.854 786.821 717.987 791.146 719.765Z" fill="#E3E3E3"/>
<path fill-rule="evenodd" clip-rule="evenodd" d="M769.187 637.742L775.203 673.391H793.579L790.839 637.742H769.187Z" fill="#55B06E"/>
<path fill-rule="evenodd" clip-rule="evenodd" d="M762.619 637.742C759.659 651.205 761.494 673.391 761.494 673.391H780.184L785.323 637.742H762.619Z" fill="#6CD98B"/>
<path fill-rule="evenodd" clip-rule="evenodd" d="M769.36 619.929C769.36 619.929 751.532 612.881 750.69 612.412C749.848 611.942 748.461 610.158 748.461 610.158C748.461 610.158 744.679 606.888 743.153 606.884C739.338 606.874 748.825 611.285 740.551 607.409C732.278 603.532 740.685 611.96 741.587 613.272C742.488 614.584 747.594 615.165 749.205 616.191C750.279 616.874 768.158 626.269 768.158 626.269L769.36 619.929Z" fill="#CEA885"/>
<path fill-rule="evenodd" clip-rule="evenodd" d="M782.799 625.07C784.87 622.964 784.989 621.833 781.224 619.997C772.386 619.861 763.373 617.169 754.186 611.921L749.375 620.381C761.217 624.613 773.42 628.979 782.799 625.07Z" fill="#191847"/>
<path fill-rule="evenodd" clip-rule="evenodd" d="M796.999 677L757.5 680.5C757.5 680.5 767.155 604.075 766.269 595.056L777.286 594.497C777.286 594.497 778.982 594.203 779.812 594.067L780.276 594.007C786.445 602.352 794.095 662.276 796.999 677Z" fill="#2F3676"/>
<path fill-rule="evenodd" clip-rule="evenodd" d="M764.727 627.467C764.727 627.467 761.014 646.275 760.704 647.188C760.395 648.101 758.89 649.786 758.89 649.786C758.89 649.786 756.357 654.097 756.628 655.599C757.307 659.352 759.933 649.225 757.614 658.063C755.295 666.9 762.067 657.11 763.195 655.986C764.322 654.862 763.972 649.735 764.689 647.966C765.168 646.786 771.18 627.505 771.18 627.505L764.727 627.467Z" fill="#CEA885"/>
<path fill-rule="evenodd" clip-rule="evenodd" d="M775.588 600.492C775.588 600.492 775.908 620.276 768.942 648.05L758.004 644.222C767.636 622.154 767.824 600.655 767.824 600.655C770.697 597.714 772.418 598.092 775.588 600.492Z" fill="#4E55A5"/>
<path fill-rule="evenodd" clip-rule="evenodd" d="M700.22 548.436C703.011 550.118 705.754 550.931 707.041 550.599C710.27 549.767 710.567 537.957 708.069 533.301C705.571 528.644 692.729 526.615 692.082 535.84C691.857 539.042 693.201 541.899 695.188 544.231L691.626 560.832H701.972L700.22 548.436Z" fill="#CEA885"/>
<path fill-rule="evenodd" clip-rule="evenodd" d="M699.325 533.686C697.867 534.456 696.848 535.952 695.616 537.929C695.324 537.813 695.004 537.75 694.671 537.75C693.242 537.75 692.863 538.65 692.863 540.078C692.863 540.803 695.143 544.327 695.143 544.327C695.143 546.216 693.251 546.343 692.252 545.744C689.365 544.011 685.796 538.021 688.619 533.15C689.399 530.763 691.637 528.072 693.723 527.481C695.413 526.774 699.977 526.671 701.458 527.095C704.361 527.344 709.694 530.818 710.429 531.344C710.429 534.092 703.873 533.757 699.325 533.686Z" fill="#191847"/>
<path fill-rule="evenodd" clip-rule="evenodd" d="M718.128 596.979L720.501 613.873C722.385 617.245 723.664 620.35 724.339 623.187C724.366 623.986 724.084 625.259 722.508 623.372C720.931 621.486 719.188 619.573 718.353 619.914C717.518 620.256 717.838 622.016 716.553 622.314C715.697 622.513 715.543 619.655 716.092 613.74L710.627 600.049L718.128 596.979Z" fill="#CEA885"/>
<path fill-rule="evenodd" clip-rule="evenodd" d="M702.459 551.681L700.557 557.866C700.557 557.866 705.135 590.189 712.609 609.465L720.324 607.83C716.83 591.897 710.071 563.575 710.071 563.575C710.071 563.575 707.243 553.092 702.459 551.681Z" fill="#093061"/>
<path d="M723.885 584.694L703.347 580.209L700.987 586.111C705.393 586.897 715.528 588.613 720.816 589.179C727.426 589.888 727.898 589.651 732.147 592.012C736.396 594.373 738.521 592.72 739.701 592.012C740.881 591.304 743.95 587.999 740.173 588.471C737.151 588.849 734.508 587.842 733.563 587.291C730.542 585.591 725.852 584.852 723.885 584.694Z" fill="#CEA885"/>
<path fill-rule="evenodd" clip-rule="evenodd" d="M684.125 604.489L708.644 606.392C718.635 575.468 705.314 555.963 702.459 551.681H700.081C700.081 551.681 700.556 558.341 700.081 558.341C699.605 558.341 697.702 551.681 697.702 551.681L693.662 551.205C688.759 552.986 688.244 554.43 685.67 556.837C680.96 566.447 685.334 580.881 684.125 604.489Z" fill="#1958A5"/>
<rect width="6.71373" height="11.9395" rx="0.665267" transform="matrix(0.866794 -0.498667 0.866794 0.498667 726.482 586.862)" fill="#333333"/>
<rect width="5.7877" height="10.5828" rx="0.665267" transform="matrix(0.866794 -0.498667 0.866794 0.498667 727.354 586.901)" fill="white"/>
<rect width="2.54659" height="0.814059" rx="0.332633" transform="matrix(0.866794 -0.498667 0.866794 0.498667 728.524 585.958)" fill="#333333"/>
<path d="M726.009 586.819C724.522 587.355 722.872 588.775 722.468 589.179C722.101 588.314 722.359 586.063 726.009 586.819Z" fill="#CEA885"/>
<path fill-rule="evenodd" clip-rule="evenodd" d="M689.501 552.977C689.501 552.977 682.758 554.06 680.855 562.147L688.467 586.886L722.946 592.116L723.897 583.552L700.56 578.799L689.501 552.977Z" fill="#2A6FC3"/>
<path d="M702.801 551.712L700.621 549.393L700.204 551.712L701.827 556.257L702.801 551.712Z" fill="#2A6FC3"/>
<path fill-rule="evenodd" clip-rule="evenodd" d="M688.239 596.733L703.895 640.492L715.317 672.745H723.648L711.51 596.733H688.239Z" fill="#093061"/>
<path fill-rule="evenodd" clip-rule="evenodd" d="M683.998 596.61C683.636 624.878 682.403 640.296 682.024 642.864C681.644 645.432 678.088 663.775 686.114 682.66H693.904C693.904 657.401 695.439 646.657 697.084 642.864C698.73 639.071 703.807 623.653 711.455 596.61H683.998Z" fill="#1958A5"/>
<path d="M739.7 677.619C738.756 674.702 731.608 674.044 725.17 669.517L722.315 657.637H711.373C711.569 660.809 715.508 667.245 712.844 669.517C710.18 671.79 711.734 673.035 712.844 675.106L719.936 677.619L726.717 682.188C726.717 682.188 732.619 684.076 736.159 683.132C739.7 682.188 740.645 680.535 739.7 677.619Z" fill="#191847"/>
<path d="M710.901 693.671C709.957 690.754 702.809 690.096 696.37 685.57L693.516 673.69H682.574C682.77 676.861 686.709 683.297 684.045 685.57C681.38 687.843 682.935 689.088 684.045 691.158L691.137 693.671L697.918 698.24C697.918 698.24 703.819 700.129 707.36 699.184C710.901 698.24 711.845 696.588 710.901 693.671Z" fill="#191847"/>
<path fill-rule="evenodd" clip-rule="evenodd" d="M695.509 536.624C695.509 536.624 696.103 544.899 698.652 544.899C701.2 544.899 705.816 541.731 706.935 541.731C708.776 541.258 709.957 544.191 709.721 544.899L706.935 544.114C705.944 544.899 701.957 546.283 701.957 547.251C701.957 548.218 709.721 545.878 709.721 546.452C709.721 547.401 708.54 551.173 705.632 551.722C700.278 552.732 695.879 550.17 695.06 547.696C694.241 545.221 694.02 537.266 694.02 537.266L695.509 536.624Z" fill="#191847"/>
<path d="M692.737 551.712L694.128 548.466L697.839 551.712V556.35L692.737 551.712Z" fill="#2A6FC3"/>
<path d="M267.5 746L335.5 707L260 663.5L260.5 742C260.394 746.342 265.289 747.334 267.5 746Z" fill="url(#paint2_linear)"/>
<path d="M956 668.424L1268 849.924V510.924L1132.5 295.924C1053.42 352.539 1005.8 394.808 956 397.924V668.424Z" fill="#293B7A"/>
<path d="M1267.5 478.924V848.924L1463.5 756.924V369.924L1267.5 478.924Z" fill="#132152"/>
<path d="M1276.5 526.424L1132 296.424C1222.5 239.424 1311.5 224.424 1440 233.424V435.924L1276.5 526.424Z" fill="#3F5CC2"/>
<path d="M1039 496.424L1149 561.924L1149 802.424L1039 740.424L1039 496.424Z" fill="url(#paint3_linear)"/>
<path fill-rule="evenodd" clip-rule="evenodd" d="M1148.59 557.445C1149.57 558.011 1150.18 559.057 1150.18 560.19V801.359C1150.18 803.798 1147.54 805.323 1145.42 804.104L1094.09 774.493L1039.58 743.055C1038.6 742.489 1038 741.441 1038 740.308L1038.08 499.234C1038.08 496.796 1040.72 495.272 1042.83 496.489L1148.59 557.445ZM1146.69 560.926C1147.67 561.491 1148.28 562.538 1148.28 563.672V796.29C1148.28 798.729 1145.64 800.254 1143.52 799.036L1041.48 740.211C1040.5 739.645 1039.9 738.598 1039.9 737.464L1039.98 504.936C1039.98 502.499 1042.62 500.975 1044.73 502.192L1146.69 560.926Z" fill="#A4B0DB"/>
<path d="M1065.73 680.8L1085.79 671.056C1087.31 670.32 1089.09 670.385 1090.55 671.23L1137.75 698.608C1139.47 699.609 1139.42 702.118 1137.65 703.043L1121.95 711.263C1120.39 712.076 1118.53 712.028 1117.02 711.135L1065.73 680.8Z" fill="#D7D8DF"/>
<path d="M1115.7 711.286L1137.21 699.307C1138.93 698.345 1141.05 699.643 1140.97 701.617L1139.54 738.891C1139.47 740.499 1138.65 741.982 1137.32 742.886L1115.7 757.571L1115.7 711.286Z" fill="#D6D9E4"/>
<path d="M1062.52 684.926C1062.52 680.993 1066.8 678.561 1070.18 680.576L1117.04 708.546C1118.57 709.46 1119.5 711.112 1119.5 712.895L1119.5 752.423C1119.5 756.36 1115.21 758.792 1111.83 756.767L1064.98 728.654C1063.45 727.738 1062.52 726.089 1062.52 724.31L1062.52 684.926Z" fill="#7B94B8"/>
<path d="M967.702 762.083L1061.25 706.917C1062.98 705.895 1065.13 705.901 1066.86 706.934L1120.59 739.06C1122.41 740.145 1122.37 742.788 1120.52 743.818L1028.74 795.015C1027.03 795.968 1024.95 795.941 1023.27 794.946L967.702 762.083Z" fill="#C2CCDA"/>
<path d="M938.93 755.078L958.993 745.333C960.509 744.597 962.291 744.662 963.748 745.508L1010.95 772.885C1012.67 773.886 1012.62 776.395 1010.85 777.32L995.147 785.54C993.593 786.354 991.729 786.305 990.219 785.412L938.93 755.078Z" fill="#D7D8DF"/>
<path d="M988.904 785.564L1010.41 773.584C1012.13 772.623 1014.25 773.92 1014.17 775.894L1012.74 813.168C1012.67 814.776 1011.85 816.259 1010.52 817.164L988.904 831.848L988.904 785.564Z" fill="#D6D9E4"/>
<path d="M935.719 759.203C935.719 755.271 940.004 752.838 943.381 754.853L990.235 782.823C991.767 783.737 992.704 785.389 992.704 787.172L992.704 826.862C992.704 830.764 988.478 833.2 985.101 831.246L938.246 804.123C936.682 803.217 935.719 801.547 935.719 799.739L935.719 759.203Z" fill="#7B94B8"/>
<path d="M987.268 770.286C987 770.133 986.998 769.746 987.266 769.59L1127.4 688.357C1128.37 687.794 1129.57 687.795 1130.54 688.36L1157.91 704.275C1158.93 704.873 1158.94 706.357 1157.92 706.969L1022.13 788.376C1021.16 788.957 1019.95 788.97 1018.96 788.408L987.268 770.286Z" fill="#F9FAFE"/>
<path d="M1018.61 789.318L1158.51 705.607L1158.59 767.239C1158.59 768.359 1157.99 769.395 1157.02 769.954L1018.61 849.659L1018.61 789.318Z" fill="#C2CCDA"/>
<path d="M985.757 773.034C985.757 770.605 988.404 769.103 990.49 770.348L1019.43 787.625C1020.38 788.19 1020.96 789.21 1020.96 790.312L1020.96 846.587C1020.96 848.995 1018.35 850.501 1016.26 849.297L987.321 832.591C986.353 832.032 985.756 830.999 985.756 829.881L985.757 773.034Z" fill="#7B94B8"/>
<path d="M1056.38 486.463L1041.16 495.97L1145.74 556.497C1149.54 561.061 1149.86 565.371 1149.54 566.955L1148.91 803.994C1153.56 801.036 1165.83 794.423 1167.61 794.17C1169.38 793.916 1169.61 790.05 1169.51 788.149V552.695C1168.49 546.357 1163.59 542.871 1161.27 541.92L1064.61 486.463C1061.07 483.675 1057.64 485.301 1056.38 486.463Z" fill="url(#paint4_linear)"/>
<path d="M1166.66 644.764C1166.66 641.637 1163.51 639.492 1160.6 640.634C1158.9 641.3 1157.78 642.939 1157.78 644.764V667.876C1157.78 671.002 1160.93 673.148 1163.84 672.006C1165.54 671.339 1166.66 669.701 1166.66 667.876V644.764Z" fill="#E3E5EC"/>
<path d="M1166.66 644.247C1166.66 641.837 1164.07 640.309 1161.96 641.47C1160.95 642.026 1160.32 643.091 1160.32 644.247V669.66C1160.32 672.069 1162.9 673.598 1165.01 672.437C1166.03 671.88 1166.66 670.816 1166.66 669.66V644.247Z" fill="#A4B0DB"/>
<path d="M1166.66 587.916C1166.66 584.439 1162.84 582.313 1159.88 584.145C1158.58 584.954 1157.78 586.38 1157.78 587.916V629.021C1157.78 632.498 1161.6 634.624 1164.56 632.792C1165.86 631.983 1166.66 630.557 1166.66 629.021V587.916Z" fill="#E3E5EC"/>
<path d="M1166.66 587.526C1166.66 584.809 1163.46 583.352 1161.41 585.132C1160.72 585.734 1160.32 586.607 1160.32 587.526V630.679C1160.32 633.395 1163.51 634.852 1165.56 633.073C1166.26 632.471 1166.66 631.597 1166.66 630.679V587.526Z" fill="#A4B0DB"/>
<path d="M937.446 622.553L993.739 590.05L993.566 699.124L937.555 731.346L937.446 622.553Z" fill="#D4AA79"/>
<path d="M880.281 590.242L937.448 624.599V730.709L880.281 697.478V590.242Z" fill="#9D734F"/>
<path d="M994.592 590.525L937.449 561L880 590.525L937.449 624.6L994.592 590.525Z" fill="#E9BD99"/>
<path d="M901.718 619.003V603.798L908.234 607.056V623.347L901.718 619.003Z" fill="#E0CFBE"/>
<path d="M901.718 604.146L958.778 572.254L965.94 575.323L907.744 607.159L901.718 604.146Z" fill="#F9E8DD"/>
<path d="M299.207 820.463L371.836 778.68L371.664 848.578L299.316 890.08L299.207 820.463Z" fill="#D4AA79"/>
<path d="M242.28 786.251L299.205 820.463V889.446L242.28 856.356V786.251Z" fill="#9D734F"/>
<path d="M371.835 778.68L311.027 750L242 786.532L299.206 820.462L371.835 778.68Z" fill="#E9BD99"/>
<path d="M263.629 837.419V799.748L270.117 802.031V840.844L263.629 837.419Z" fill="#E0CFBE"/>
<path d="M263.629 800.097L326.633 764.094L332.633 767.094L269.629 803.097L263.629 800.097Z" fill="#F9E8DD"/>
<path d="M307.051 756.637L354.091 729.575L353.979 774.846L307.121 801.726L307.051 756.637Z" fill="#D4AA79"/>
<path d="M270.181 734.479L307.05 756.637V801.316L270.181 779.884V734.479Z" fill="#A57556"/>
<path d="M354.09 729.575L314.707 711L270 734.661L307.051 756.637L354.09 729.575Z" fill="#E9BD99"/>
<path d="M282.979 759.178V742.677L288.979 745.677V763.679L282.979 759.178Z" fill="#E0CFBE"/>
<path d="M282.979 742.677L326.726 716.652L332.726 719.652L288.979 745.677L282.979 742.677Z" fill="#F9E8DD"/>
</g>
<defs>
<linearGradient id="paint0_linear" x1="271.042" y1="369.884" x2="239.939" y2="414.181" gradientUnits="userSpaceOnUse">
<stop stop-color="#96A2CC"/>
<stop offset="0.239538" stop-color="#A6B2DD"/>
<stop offset="0.744445" stop-color="#5E688C"/>
</linearGradient>
<linearGradient id="paint1_linear" x1="398" y1="443.5" x2="472" y2="320" gradientUnits="userSpaceOnUse">
<stop stop-color="#3F55A4"/>
<stop offset="1" stop-color="#607AD6"/>
</linearGradient>
<linearGradient id="paint2_linear" x1="276.697" y1="668.697" x2="233.585" y2="735.512" gradientUnits="userSpaceOnUse">
<stop stop-color="#3F55A4"/>
<stop offset="1" stop-color="#607AD6"/>
</linearGradient>
<linearGradient id="paint3_linear" x1="1136" y1="676.424" x2="1051.5" y2="520.424" gradientUnits="userSpaceOnUse">
<stop offset="0.0213965" stop-color="#293B7A"/>
<stop offset="1" stop-color="#7489D6"/>
</linearGradient>
<linearGradient id="paint4_linear" x1="1140.99" y1="546.04" x2="1161.9" y2="575.828" gradientUnits="userSpaceOnUse">
<stop stop-color="#9EA9D1"/>
<stop offset="0.239538" stop-color="#A6B2DC"/>
<stop offset="0.744445" stop-color="#5F698D"/>
</linearGradient>
<clipPath id="clip0">
<rect width="1440" height="976" fill="white"/>
</clipPath>
</defs>
</svg>
