<svg width="934" height="864" viewBox="0 0 934 864" fill="none" xmlns="http://www.w3.org/2000/svg">
<path d="M556.1 583.5C156.1 366.5 -145.999 269.5 -54.9993 2" stroke="#5B73CB" stroke-width="10"/>
<path d="M532.389 590C132.389 373 -169.71 276 -78.7102 8.5" stroke="#5B73CB" stroke-width="10"/>
<path d="M541.1 679.5C141.1 462.5 -160.999 365.5 -69.9993 98" stroke="#5B73CB" stroke-width="10"/>
<path d="M-93.7102 104.5C-184.71 372 117.389 469 517.389 686L792 847.5" stroke="#5B73CB" stroke-width="10"/>
<path d="M886.441 689.228L890.565 692.665L884.378 696.102L880.254 692.665L886.441 689.228Z" fill="#2D2D2E"/>
<path d="M890.568 692.666L884.381 696.103V718.101L890.568 715.351V692.666Z" fill="#4C4C4C"/>
<path d="M836.95 585.185L637.787 472.485L527.11 537.104L724.405 649.157L836.95 585.185Z" fill="#F2F2F2"/>
<path d="M835.768 583.649L722.714 648.268V775.892L835.768 710.138V583.649Z" fill="#898989"/>
<path d="M738.645 766.22V670.666L806.014 694.039L850.698 786.155V863.148L530.351 678.915V666.541L722.834 775.844L738.645 766.22Z" fill="url(#paint0_linear)"/>
<path d="M877.509 654.168L821.826 621.858L738.646 670.667L793.641 702.289L808.078 776.532L850.699 816.404V863.149L933.191 816.404V783.406V767.595L891.258 727.724L877.509 654.168Z" fill="url(#paint1_linear)"/>
<path d="M799.825 708.475L874.756 664.479L885.068 718.099L809.449 761.408L799.825 708.475Z" fill="url(#paint2_linear)"/>
<path d="M742.768 683.727L787.451 708.475L796.388 759.346L742.768 729.786V683.727Z" fill="url(#paint3_linear)"/>
<path d="M724.404 647.582L527.109 535.529L527.109 664.768L722.342 776.82L724.404 647.582Z" fill="#C2CCDA"/>
<path d="M610.884 718.061C610.884 727.151 617.266 738.205 625.138 742.75C633.01 747.295 632.001 746.477 640.976 738.558C641.504 729.054 633.01 714.376 625.138 709.831C617.266 705.286 610.884 708.971 610.884 718.061Z" fill="#4C4C4C"/>
<path d="M622.437 709.163C620.604 708.705 614.051 710.262 610.751 714.662" stroke="#363636" stroke-width="1.37488"/>
<path d="M634.541 758.249C636.666 758.788 644.022 756.174 647.45 749.722" stroke="#363636" stroke-width="1.37488"/>
<path d="M612.129 721.659C612.129 733.496 620.439 747.889 630.69 753.807C640.941 759.726 639.626 758.66 651.313 748.348C652 735.973 640.941 716.861 630.69 710.943C620.439 705.025 612.129 709.822 612.129 721.659Z" fill="#363636"/>
<circle r="21.4322" transform="matrix(-0.866025 -0.5 0 1 625.19 735.125)" fill="#535456"/>
<circle r="13.4944" transform="matrix(-0.866025 -0.5 0 1 623.816 735.59)" fill="#D1D1D1"/>
<circle r="5.5565" transform="matrix(-0.866025 -0.5 0 1 623.815 735.591)" fill="#3A3A3A"/>
<path d="M543.514 678.189C543.514 687.279 549.896 698.333 557.769 702.878C565.641 707.423 564.632 706.604 573.607 698.685C574.135 689.182 565.641 674.504 557.769 669.959C549.896 665.414 543.514 669.099 543.514 678.189Z" fill="#4C4C4C"/>
<path d="M555.072 669.292C553.238 668.834 546.685 670.391 543.385 674.791" stroke="#363636" stroke-width="1.37488"/>
<path d="M567.175 718.377C569.301 718.916 576.656 716.302 580.084 709.851" stroke="#363636" stroke-width="1.37488"/>
<path d="M544.759 681.787C544.759 693.624 553.069 708.017 563.32 713.935C573.571 719.854 572.257 718.788 583.943 708.476C584.631 696.101 573.571 676.989 563.32 671.071C553.069 665.152 544.759 669.95 544.759 681.787Z" fill="#363636"/>
<circle r="21.4322" transform="matrix(-0.866025 -0.5 0 1 557.821 695.253)" fill="#535456"/>
<circle r="13.4944" transform="matrix(-0.866025 -0.5 0 1 556.447 695.718)" fill="#D1D1D1"/>
<circle r="5.5565" transform="matrix(-0.866025 -0.5 0 1 556.446 695.719)" fill="#3A3A3A"/>
<path d="M770.369 811.553C770.369 820.643 776.751 831.697 784.623 836.242C792.496 840.787 791.486 839.968 800.461 832.049C800.989 822.545 792.496 807.868 784.623 803.323C776.751 798.778 770.369 802.462 770.369 811.553Z" fill="#4C4C4C"/>
<path d="M781.922 802.656C780.089 802.198 773.536 803.755 770.236 808.155" stroke="#363636" stroke-width="1.37488"/>
<path d="M794.026 851.741C796.151 852.28 803.507 849.666 806.935 843.215" stroke="#363636" stroke-width="1.37488"/>
<path d="M771.614 815.151C771.614 826.987 779.924 841.381 790.175 847.299C800.426 853.217 799.112 852.151 810.798 841.84C811.485 829.465 800.426 810.353 790.175 804.435C779.924 798.516 771.614 803.314 771.614 815.151Z" fill="#363636"/>
<circle r="21.4322" transform="matrix(-0.866025 -0.5 0 1 784.675 828.617)" fill="#535456"/>
<circle r="13.4944" transform="matrix(-0.866025 -0.5 0 1 783.301 829.082)" fill="#D1D1D1"/>
<circle r="5.5565" transform="matrix(-0.866025 -0.5 0 1 783.3 829.082)" fill="#3A3A3A"/>
<path d="M724.476 647.779L527.181 535.727L527.181 664.965L722.414 777.018L724.476 647.779Z" fill="#C2CCDA"/>
<rect width="18.3725" height="9.18625" transform="matrix(-0.859406 0.511293 0 1 873.593 830.842)" fill="#DE9753"/>
<rect width="18.3725" height="9.18625" transform="matrix(-0.859406 0.511293 0 1 929.063 799.219)" fill="#DE9753"/>
<rect width="32.6246" height="9.18625" transform="matrix(-0.859406 0.511293 0 1 908.65 811.325)" fill="#C4C4C4"/>
<rect width="15.998" height="5.49951" transform="matrix(-0.859406 -0.511293 0 1 786.075 774.401)" fill="#898989"/>
<path d="M788.828 771.723V748.35L784.703 745.6V768.973L788.828 771.723Z" fill="#3A3A3A"/>
<path d="M794.329 740.1L798.454 742.849L788.829 748.349L784.705 745.599L794.329 740.1Z" fill="#303133"/>
<path d="M788.829 748.35L798.454 742.85V766.223L788.829 771.723V748.35Z" fill="#525357"/>
<defs>
<linearGradient id="paint0_linear" x1="751.019" y1="676.853" x2="695.336" y2="773.781" gradientUnits="userSpaceOnUse">
<stop stop-color="#2B4499"/>
<stop offset="0.749464" stop-color="#2B4499"/>
<stop offset="0.75" stop-color="#404143"/>
<stop offset="1" stop-color="#404143"/>
</linearGradient>
<linearGradient id="paint1_linear" x1="806.015" y1="633.545" x2="916.693" y2="826.715" gradientUnits="userSpaceOnUse">
<stop stop-color="#3F5CC2"/>
<stop offset="0.234175" stop-color="#405DC2"/>
<stop offset="0.234275" stop-color="#A3A3A3"/>
<stop offset="0.234375" stop-color="#293B7A"/>
<stop offset="0.552083" stop-color="#2A3C7B"/>
<stop offset="0.552183" stop-color="#3F5CC2"/>
<stop offset="0.804454" stop-color="#405DC2"/>
<stop offset="0.810077" stop-color="#415EC2"/>
<stop offset="0.814339" stop-color="#293B7A"/>
<stop offset="0.865219" stop-color="#2A3C7B"/>
<stop offset="0.867454" stop-color="#535456"/>
<stop offset="1" stop-color="#525356"/>
</linearGradient>
<linearGradient id="paint2_linear" x1="872.694" y1="686.477" x2="740.018" y2="675.478" gradientUnits="userSpaceOnUse">
<stop stop-color="#A0B3F6"/>
<stop offset="0.192159" stop-color="#A0B3F7"/>
<stop offset="0.195181" stop-color="#607AD6"/>
<stop offset="0.886167" stop-color="#607AD6"/>
<stop offset="0.887989" stop-color="#A0B3F7"/>
<stop offset="0.997653" stop-color="#A0B3F7"/>
</linearGradient>
<linearGradient id="paint3_linear" x1="872.694" y1="686.477" x2="740.018" y2="675.478" gradientUnits="userSpaceOnUse">
<stop stop-color="#A0B3F6"/>
<stop offset="0.192159" stop-color="#A0B3F7"/>
<stop offset="0.195181" stop-color="#607AD6"/>
<stop offset="0.886167" stop-color="#607AD6"/>
<stop offset="0.887989" stop-color="#A0B3F7"/>
<stop offset="0.997653" stop-color="#A0B3F7"/>
</linearGradient>
</defs>
</svg>
