<svg width="1440" height="867" viewBox="0 0 1440 867" fill="none" xmlns="http://www.w3.org/2000/svg">
<path d="M-1 525.216C-1 525.216 1193.14 1030.98 1439 525.216C1558.51 279.359 1439 -174.784 1439 -174.784H-1V525.216Z" fill="#607AD6"/>
<path d="M1030.37 256.273L887.119 322.662C796.196 362.703 814.943 379.083 887.119 417.287L991.924 473.014" stroke="#5B73CB" stroke-width="5" stroke-linejoin="bevel"/>
<path d="M1012.67 247.604L869.423 313.992C778.5 354.033 780.677 381.829 852.853 420.033L960.136 478.312" stroke="#5B73CB" stroke-width="5" stroke-linejoin="bevel"/>
<path d="M1062.44 283.727L968.031 332.765C912.616 360.308 922.064 377.648 964.646 398.84L1221.24 529.366C1411.75 630.03 1250.28 768.744 1132.49 827.505" stroke="#5B73CB" stroke-width="6" stroke-linejoin="bevel"/>
<path d="M1048.85 274.576L932.716 336.227C889.582 358.864 887.37 379.575 929.951 400.767L1199.82 537.073C1390.33 637.737 1221.75 765.373 1103.96 824.134" stroke="#5B73CB" stroke-width="6" stroke-linejoin="bevel"/>
<rect width="263.484" height="54.1431" transform="matrix(0.88788 0.460074 0 1 981.223 191.111)" fill="#293B7A"/>
<path d="M1234.64 321.134L1293.21 288.649L1349.16 261.699V335.505L1234.64 396.086V321.134Z" fill="#132152"/>
<path d="M1186.82 295.701L1245.39 263.215L1301.33 236.044V310.071L1186.82 370.652V295.701Z" fill="#132152"/>
<rect width="66.3293" height="75.4922" transform="matrix(0.88788 0.460075 0 1 1176.22 289.599)" fill="#22326B"/>
<path d="M981.223 190.881L1099.52 139.219L1301.33 236.045L1178.84 294.322L981.223 190.881Z" fill="#3F5CC2"/>
<path d="M1175.69 293.254L1290.28 234.118L1349.16 261.699L1234.88 322.745L1175.69 293.254Z" fill="#4B69D3"/>
<path d="M1229.09 334.466L1181.25 310.488L1181.25 367.595L1229.08 392.497L1229.09 334.466Z" fill="#898989"/>
<path d="M1227.31 362.485L1227.31 346.903L1182.31 367.367L1227.31 390.006L1227.31 362.485Z" fill="#333333"/>
<path d="M1182.31 367.368L1212.15 353.746L1227.44 346.903L1227.44 344.338L1210.1 335.618L1182.31 321.629L1182.31 367.368Z" fill="#4F4F4F"/>
<path d="M1227.59 341.235L1182.71 318.695L1182.71 321.431L1227.59 344.028L1227.59 341.235Z" fill="#E0E0E0"/>
<path d="M1227.59 337.838L1182.71 315.299L1182.71 318.034L1227.59 340.631L1227.59 337.838Z" fill="#E0E0E0"/>
<path d="M1227.59 334.418L1182.71 311.879L1182.71 314.614L1227.59 337.211L1227.59 334.418Z" fill="#E0E0E0"/>
<line x1="0.532489" y1="-0.532489" x2="0.839768" y2="-0.532489" transform="matrix(-0.893406 -0.44925 -0.552518 0.833501 1205.08 332.306)" stroke="black" stroke-width="1.06498" stroke-linecap="round"/>
<path d="M1165.75 301.14L1133.19 284.822L1133.19 323.687L1165.75 340.634L1165.75 301.14Z" fill="#898989"/>
<path d="M1164.54 320.209L1164.54 309.605L1133.92 323.532L1164.54 338.939L1164.54 320.209Z" fill="#333333"/>
<path d="M1133.92 323.532L1154.23 314.262L1164.64 309.605L1164.64 307.859L1152.83 301.924L1133.92 292.404L1133.92 323.532Z" fill="#4F4F4F"/>
<path d="M1164.73 305.747L1134.19 290.408L1134.19 292.269L1164.73 307.648L1164.73 305.747Z" fill="#E0E0E0"/>
<path d="M1164.73 303.436L1134.19 288.096L1134.19 289.958L1164.73 305.336L1164.73 303.436Z" fill="#E0E0E0"/>
<path d="M1164.73 301.108L1134.19 285.769L1134.19 287.631L1164.73 303.009L1164.73 301.108Z" fill="#E0E0E0"/>
<line x1="0.362388" y1="-0.362388" x2="0.571525" y2="-0.362388" transform="matrix(-0.893425 -0.449212 -0.552558 0.833475 1149.42 299.671)" stroke="black" stroke-width="0.724776" stroke-linecap="round"/>
<path d="M1118.64 276.633L1086.08 260.315L1086.08 299.18L1118.63 316.127L1118.64 276.633Z" fill="#898989"/>
<path d="M1117.43 295.702L1117.43 285.098L1086.81 299.025L1117.43 314.432L1117.43 295.702Z" fill="#333333"/>
<path d="M1086.81 299.025L1107.11 289.755L1117.52 285.098L1117.52 283.352L1105.72 277.417L1086.81 267.897L1086.81 299.025Z" fill="#4F4F4F"/>
<path d="M1117.62 281.24L1087.08 265.901L1087.08 267.762L1117.62 283.141L1117.62 281.24Z" fill="#E0E0E0"/>
<path d="M1117.62 278.929L1087.08 263.589L1087.08 265.451L1117.62 280.829L1117.62 278.929Z" fill="#E0E0E0"/>
<path d="M1117.62 276.601L1087.08 261.262L1087.08 263.124L1117.62 278.502L1117.62 276.601Z" fill="#E0E0E0"/>
<line x1="0.362388" y1="-0.362388" x2="0.571532" y2="-0.362388" transform="matrix(-0.893418 -0.449225 -0.552544 0.833484 1102.31 275.164)" stroke="black" stroke-width="0.724776" stroke-linecap="round"/>
<path d="M1072.18 252.696L1039.62 236.378L1039.62 275.243L1072.18 292.19L1072.18 252.696Z" fill="#898989"/>
<path d="M1070.97 271.765L1070.97 261.161L1040.35 275.088L1070.97 290.495L1070.97 271.765Z" fill="#333333"/>
<path d="M1040.35 275.088L1060.65 265.818L1071.06 261.161L1071.06 259.415L1059.26 253.48L1040.35 243.96L1040.35 275.088Z" fill="#4F4F4F"/>
<path d="M1071.16 257.303L1040.62 241.964L1040.62 243.826L1071.16 259.204L1071.16 257.303Z" fill="#E0E0E0"/>
<path d="M1071.16 254.992L1040.62 239.652L1040.62 241.514L1071.16 256.893L1071.16 254.992Z" fill="#E0E0E0"/>
<path d="M1071.16 252.665L1040.62 237.325L1040.62 239.187L1071.16 254.565L1071.16 252.665Z" fill="#E0E0E0"/>
<line x1="0.362388" y1="-0.362388" x2="0.571504" y2="-0.362388" transform="matrix(-0.893412 -0.449238 -0.55253 0.833493 1055.85 251.227)" stroke="black" stroke-width="0.724776" stroke-linecap="round"/>
<path d="M1026.37 228.76L993.815 212.442L993.815 251.306L1026.37 268.254L1026.37 228.76Z" fill="#898989"/>
<path d="M1025.16 247.828L1025.16 237.224L994.542 251.151L1025.16 266.558L1025.16 247.828Z" fill="#333333"/>
<path d="M994.542 251.152L1014.85 241.881L1025.26 237.224L1025.26 235.479L1013.46 229.544L994.542 220.024L994.542 251.152Z" fill="#4F4F4F"/>
<path d="M1025.36 233.367L994.809 218.027L994.81 219.889L1025.36 235.267L1025.36 233.367Z" fill="#E0E0E0"/>
<path d="M1025.36 231.056L994.809 215.716L994.81 217.578L1025.36 232.956L1025.36 231.056Z" fill="#E0E0E0"/>
<path d="M1025.36 228.728L994.809 213.388L994.81 215.25L1025.36 230.629L1025.36 228.728Z" fill="#E0E0E0"/>
<line x1="0.362388" y1="-0.362388" x2="0.571494" y2="-0.362388" transform="matrix(-0.893405 -0.449252 -0.552516 0.833503 1010.04 227.291)" stroke="black" stroke-width="0.724776" stroke-linecap="round"/>
<path d="M1036.5 477.77L1037.52 478.51L1035.99 479.25L1034.97 478.51L1036.5 477.77Z" fill="#2D2D2E"/>
<path d="M1037.52 478.51L1035.99 479.25V483.987L1037.52 483.395V478.51Z" fill="#4C4C4C"/>
<path d="M1024.27 455.365L975.027 431.097L947.663 445.012L996.442 469.141L1024.27 455.365Z" fill="#F2F2F2"/>
<path d="M1023.98 455.035L996.024 468.949V496.432L1023.98 482.272V455.035Z" fill="#898989"/>
<path d="M999.963 494.349V473.773L1016.62 478.806L1027.67 498.642V515.222L948.464 475.549V472.885L996.053 496.422L999.963 494.349Z" fill="url(#paint0_linear)"/>
<path d="M1034.3 470.22L1020.53 463.263L999.963 473.773L1013.56 480.582L1017.13 496.57L1027.67 505.156V515.222L1048.06 505.156V498.05V494.645L1037.69 486.059L1034.3 470.22Z" fill="url(#paint1_linear)"/>
<path d="M1015.09 481.915L1033.61 472.441L1036.16 483.987L1017.47 493.313L1015.09 481.915Z" fill="url(#paint2_linear)"/>
<path d="M1000.98 476.585L1012.03 481.915L1014.24 492.869L1000.98 486.504V476.585Z" fill="url(#paint3_linear)"/>
<path d="M996.442 468.802L947.663 444.672L947.663 472.502L995.932 496.631L996.442 468.802Z" fill="#C2CCDA"/>
<path d="M968.374 483.978C968.374 485.936 969.952 488.316 971.898 489.295C973.845 490.274 973.595 490.097 975.814 488.392C975.945 486.345 973.845 483.185 971.898 482.206C969.952 481.227 968.374 482.021 968.374 483.978Z" fill="#4C4C4C"/>
<path d="M971.231 482.062C970.778 481.964 969.158 482.299 968.342 483.246" stroke="#363636" stroke-width="0.307346"/>
<path d="M974.223 492.632C974.748 492.748 976.567 492.185 977.415 490.796" stroke="#363636" stroke-width="0.307346"/>
<path d="M968.682 484.753C968.682 487.302 970.737 490.401 973.271 491.676C975.805 492.95 975.48 492.721 978.37 490.5C978.54 487.835 975.805 483.72 973.271 482.446C970.737 481.171 968.682 482.204 968.682 484.753Z" fill="#363636"/>
<ellipse rx="5.13651" ry="4.61517" transform="matrix(-0.893405 -0.449252 0 1 971.911 487.653)" fill="#535456"/>
<ellipse rx="3.2341" ry="2.90585" transform="matrix(-0.893405 -0.449252 0 1 971.572 487.753)" fill="#D1D1D1"/>
<ellipse rx="1.33169" ry="1.19652" transform="matrix(-0.893406 -0.44925 0 1 971.571 487.753)" fill="#3A3A3A"/>
<path d="M951.718 475.392C951.718 477.35 953.296 479.73 955.242 480.709C957.189 481.688 956.939 481.511 959.158 479.806C959.289 477.76 957.189 474.599 955.242 473.62C953.296 472.642 951.718 473.435 951.718 475.392Z" fill="#4C4C4C"/>
<path d="M954.575 473.477C954.122 473.378 952.502 473.713 951.686 474.661" stroke="#363636" stroke-width="0.307346"/>
<path d="M957.567 484.047C958.093 484.163 959.911 483.6 960.759 482.211" stroke="#363636" stroke-width="0.307346"/>
<path d="M952.026 476.167C952.026 478.716 954.08 481.816 956.615 483.09C959.149 484.365 958.824 484.135 961.714 481.914C961.884 479.25 959.149 475.134 956.615 473.86C954.08 472.585 952.026 473.618 952.026 476.167Z" fill="#363636"/>
<ellipse rx="5.13651" ry="4.61517" transform="matrix(-0.893405 -0.449252 0 1 955.255 479.067)" fill="#535456"/>
<ellipse rx="3.23409" ry="2.90585" transform="matrix(-0.893405 -0.449253 0 1 954.916 479.167)" fill="#D1D1D1"/>
<ellipse rx="1.33168" ry="1.19652" transform="matrix(-0.893405 -0.449252 0 1 954.915 479.167)" fill="#3A3A3A"/>
<path d="M1007.8 504.111C1007.8 506.068 1009.38 508.449 1011.33 509.427C1013.28 510.406 1013.03 510.23 1015.24 508.524C1015.38 506.478 1013.28 503.317 1011.33 502.339C1009.38 501.36 1007.8 502.153 1007.8 504.111Z" fill="#4C4C4C"/>
<path d="M1010.66 502.195C1010.21 502.096 1008.59 502.432 1007.77 503.379" stroke="#363636" stroke-width="0.307346"/>
<path d="M1013.65 512.765C1014.18 512.881 1016 512.318 1016.85 510.929" stroke="#363636" stroke-width="0.307346"/>
<path d="M1008.11 504.886C1008.11 507.434 1010.17 510.534 1012.7 511.808C1015.24 513.083 1014.91 512.853 1017.8 510.633C1017.97 507.968 1015.24 503.852 1012.7 502.578C1010.17 501.304 1008.11 502.337 1008.11 504.886Z" fill="#363636"/>
<ellipse rx="5.13651" ry="4.61517" transform="matrix(-0.893405 -0.449252 0 1 1011.34 507.785)" fill="#535456"/>
<ellipse rx="3.2341" ry="2.90584" transform="matrix(-0.893406 -0.449251 0 1 1011 507.886)" fill="#D1D1D1"/>
<ellipse rx="1.33169" ry="1.19652" transform="matrix(-0.893406 -0.449251 0 1 1011 507.886)" fill="#3A3A3A"/>
<path d="M996.46 468.844L947.681 444.715L947.681 472.545L995.95 496.674L996.46 468.844Z" fill="#C2CCDA"/>
<rect width="4.39673" height="1.97814" transform="matrix(-0.887881 0.460073 0 1 1033.33 508.265)" fill="#DE9753"/>
<rect width="4.39674" height="1.97815" transform="matrix(-0.887539 0.460732 0 1 1047.04 501.455)" fill="#DE9753"/>
<rect width="7.80742" height="1.97814" transform="matrix(-0.887881 0.460074 0 1 1041.99 504.062)" fill="#C4C4C4"/>
<rect width="3.82849" height="1.18425" transform="matrix(-0.887881 -0.460074 0 1 1011.69 496.111)" fill="#898989"/>
<path d="M1012.37 495.534V490.501L1011.35 489.909V494.942L1012.37 495.534Z" fill="#3A3A3A"/>
<path d="M1013.73 488.724L1014.75 489.316L1012.37 490.501L1011.35 489.909L1013.73 488.724Z" fill="#303133"/>
<path d="M1012.37 490.501L1014.75 489.317V494.35L1012.37 495.534V490.501Z" fill="#525357"/>
<path d="M1055.17 829.371L1054.15 830.111L1055.68 830.851L1056.7 830.111L1055.17 829.371Z" fill="#2D2D2E"/>
<path d="M1054.15 830.111L1055.68 830.851V835.589L1054.15 834.996V830.111Z" fill="#4C4C4C"/>
<path d="M1067.4 806.967L1116.65 782.698L1144.01 796.613L1095.23 820.742L1067.4 806.967Z" fill="#F2F2F2"/>
<path d="M1067.7 806.636L1095.65 820.551V848.033L1067.7 833.874V806.636Z" fill="#898989"/>
<path d="M1091.71 845.95V825.374L1075.05 830.407L1064.01 850.243V866.823L1143.21 827.15V824.486L1095.62 848.023L1091.71 845.95Z" fill="url(#paint4_linear)"/>
<path d="M1057.38 821.821L1071.14 814.864L1091.71 825.374L1078.11 832.184L1074.54 848.171L1064.01 856.757V866.823L1043.61 856.757V849.651V846.247L1053.98 837.661L1057.38 821.821Z" fill="url(#paint5_linear)"/>
<path d="M1076.58 833.516L1058.06 824.042L1055.51 835.588L1074.2 844.914L1076.58 833.516Z" fill="url(#paint6_linear)"/>
<path d="M1090.69 828.187L1079.64 833.516L1077.43 844.47L1090.69 838.105V828.187Z" fill="url(#paint7_linear)"/>
<path d="M1095.23 820.403L1144.01 796.274L1144.01 824.104L1095.74 848.233L1095.23 820.403Z" fill="#C2CCDA"/>
<path d="M1123.3 835.58C1123.3 837.537 1121.72 839.917 1119.77 840.896C1117.83 841.875 1118.08 841.699 1115.86 839.993C1115.73 837.947 1117.83 834.786 1119.77 833.807C1121.72 832.829 1123.3 833.622 1123.3 835.58Z" fill="#4C4C4C"/>
<path d="M1120.44 833.664C1120.89 833.565 1122.51 833.9 1123.33 834.848" stroke="#363636" stroke-width="0.307346"/>
<path d="M1117.45 844.234C1116.92 844.35 1115.1 843.787 1114.26 842.397" stroke="#363636" stroke-width="0.307346"/>
<path d="M1122.99 836.354C1122.99 838.903 1120.94 842.003 1118.4 843.277C1115.87 844.552 1116.19 844.322 1113.3 842.102C1113.13 839.437 1115.87 835.321 1118.4 834.047C1120.94 832.772 1122.99 833.806 1122.99 836.354Z" fill="#363636"/>
<ellipse rx="5.13651" ry="4.61517" transform="matrix(0.893406 -0.449251 0 1 1119.76 839.254)" fill="#535456"/>
<ellipse rx="3.23409" ry="2.90584" transform="matrix(0.893405 -0.449252 0 1 1120.1 839.354)" fill="#D1D1D1"/>
<ellipse rx="1.33169" ry="1.19653" transform="matrix(0.893405 -0.449251 0 1 1120.1 839.354)" fill="#3A3A3A"/>
<path d="M1139.95 826.994C1139.95 828.951 1138.38 831.332 1136.43 832.31C1134.48 833.289 1134.73 833.113 1132.51 831.407C1132.38 829.361 1134.48 826.2 1136.43 825.222C1138.38 824.243 1139.95 825.036 1139.95 826.994Z" fill="#4C4C4C"/>
<path d="M1137.1 825.078C1137.55 824.979 1139.17 825.315 1139.99 826.262" stroke="#363636" stroke-width="0.307346"/>
<path d="M1134.1 835.648C1133.58 835.764 1131.76 835.201 1130.91 833.812" stroke="#363636" stroke-width="0.307346"/>
<path d="M1139.65 827.769C1139.65 830.318 1137.59 833.417 1135.06 834.691C1132.52 835.966 1132.85 835.736 1129.96 833.516C1129.79 830.851 1132.52 826.735 1135.06 825.461C1137.59 824.187 1139.65 825.22 1139.65 827.769Z" fill="#363636"/>
<ellipse rx="5.13651" ry="4.61517" transform="matrix(0.893405 -0.449252 0 1 1136.42 830.668)" fill="#535456"/>
<ellipse rx="3.2341" ry="2.90584" transform="matrix(0.893406 -0.44925 0 1 1136.76 830.769)" fill="#D1D1D1"/>
<ellipse rx="1.33169" ry="1.19653" transform="matrix(0.893405 -0.449252 0 1 1136.76 830.769)" fill="#3A3A3A"/>
<path d="M1083.87 855.712C1083.87 857.67 1082.29 860.05 1080.34 861.029C1078.4 862.007 1078.65 861.831 1076.43 860.126C1076.3 858.079 1078.4 854.919 1080.34 853.94C1082.29 852.961 1083.87 853.755 1083.87 855.712Z" fill="#4C4C4C"/>
<path d="M1081.01 853.796C1081.46 853.698 1083.08 854.033 1083.9 854.98" stroke="#363636" stroke-width="0.307346"/>
<path d="M1078.02 864.366C1077.49 864.482 1075.67 863.919 1074.83 862.53" stroke="#363636" stroke-width="0.307346"/>
<path d="M1083.56 856.487C1083.56 859.036 1081.5 862.135 1078.97 863.41C1076.44 864.684 1076.76 864.455 1073.87 862.234C1073.7 859.569 1076.44 855.454 1078.97 854.179C1081.5 852.905 1083.56 853.938 1083.56 856.487Z" fill="#363636"/>
<ellipse rx="5.13651" ry="4.61517" transform="matrix(0.893405 -0.449252 0 1 1080.33 859.386)" fill="#535456"/>
<ellipse rx="3.2341" ry="2.90585" transform="matrix(0.893405 -0.449252 0 1 1080.67 859.487)" fill="#D1D1D1"/>
<ellipse rx="1.33168" ry="1.19652" transform="matrix(0.893405 -0.449253 0 1 1080.67 859.487)" fill="#3A3A3A"/>
<path d="M1095.21 820.446L1143.99 796.316L1143.99 824.146L1095.72 848.276L1095.21 820.446Z" fill="#C2CCDA"/>
<rect width="4.39674" height="1.97815" transform="matrix(0.887881 0.460074 0 1 1058.34 859.866)" fill="#DE9753"/>
<rect width="4.39675" height="1.97816" transform="matrix(0.887539 0.460733 0 1 1044.63 853.056)" fill="#DE9753"/>
<rect width="7.80741" height="1.97814" transform="matrix(0.887881 0.460073 0 1 1049.68 855.663)" fill="#C4C4C4"/>
<rect width="3.82849" height="1.18425" transform="matrix(0.88788 -0.460074 0 1 1079.98 847.712)" fill="#898989"/>
<path d="M1079.3 847.135V842.102L1080.32 841.51V846.543L1079.3 847.135Z" fill="#3A3A3A"/>
<path d="M1077.94 840.326L1076.92 840.918L1079.3 842.102L1080.32 841.51L1077.94 840.326Z" fill="#303133"/>
<path d="M1079.3 842.102L1076.92 840.918V845.951L1079.3 847.135V842.102Z" fill="#525357"/>
<path d="M1027.52 316.9L1026.5 317.64L1028.03 318.38L1029.05 317.64L1027.52 316.9Z" fill="#2D2D2E"/>
<path d="M1026.5 317.64L1028.03 318.381V323.118L1026.5 322.525V317.64Z" fill="#4C4C4C"/>
<path d="M1039.75 294.496L1089 270.227L1116.36 284.142L1067.58 308.271L1039.75 294.496Z" fill="#F2F2F2"/>
<path d="M1040.05 294.165L1068 308.08V335.562L1040.05 321.403V294.165Z" fill="#898989"/>
<path d="M1064.06 333.479V312.903L1047.4 317.936L1036.36 337.772V354.352L1115.56 314.679V312.015L1067.97 335.552L1064.06 333.479Z" fill="url(#paint8_linear)"/>
<path d="M1029.73 309.35L1043.49 302.393L1064.06 312.903L1050.46 319.713L1046.89 335.7L1036.36 344.286V354.352L1015.96 344.286V337.18V333.776L1026.33 325.19L1029.73 309.35Z" fill="url(#paint9_linear)"/>
<path d="M1048.93 321.045L1030.41 311.571L1027.86 323.117L1046.55 332.443L1048.93 321.045Z" fill="url(#paint10_linear)"/>
<path d="M1063.04 315.716L1051.99 321.045L1049.78 331.999L1063.04 325.634V315.716Z" fill="url(#paint11_linear)"/>
<path d="M1067.58 307.932L1116.36 283.803L1116.36 311.633L1068.09 335.762L1067.58 307.932Z" fill="#C2CCDA"/>
<path d="M1095.65 323.109C1095.65 325.066 1094.07 327.447 1092.12 328.425C1090.18 329.404 1090.43 329.228 1088.21 327.522C1088.08 325.476 1090.18 322.315 1092.12 321.337C1094.07 320.358 1095.65 321.151 1095.65 323.109Z" fill="#4C4C4C"/>
<path d="M1092.79 321.193C1093.24 321.094 1094.86 321.429 1095.68 322.377" stroke="#363636" stroke-width="0.307346"/>
<path d="M1089.8 331.763C1089.27 331.879 1087.45 331.316 1086.61 329.927" stroke="#363636" stroke-width="0.307346"/>
<path d="M1095.34 323.884C1095.34 326.433 1093.29 329.532 1090.75 330.806C1088.22 332.081 1088.54 331.851 1085.65 329.631C1085.48 326.966 1088.22 322.85 1090.75 321.576C1093.29 320.302 1095.34 321.335 1095.34 323.884Z" fill="#363636"/>
<ellipse rx="5.13649" ry="4.61517" transform="matrix(0.893405 -0.449253 0 1 1092.11 326.783)" fill="#535456"/>
<ellipse rx="3.23409" ry="2.90585" transform="matrix(0.893405 -0.449253 0 1 1092.45 326.884)" fill="#D1D1D1"/>
<ellipse rx="1.33169" ry="1.19653" transform="matrix(0.893405 -0.449253 0 1 1092.45 326.883)" fill="#3A3A3A"/>
<path d="M1112.3 314.523C1112.3 316.48 1110.73 318.861 1108.78 319.839C1106.83 320.818 1107.08 320.642 1104.86 318.937C1104.73 316.89 1106.83 313.729 1108.78 312.751C1110.73 311.772 1112.3 312.565 1112.3 314.523Z" fill="#4C4C4C"/>
<path d="M1109.45 312.607C1109.9 312.508 1111.52 312.844 1112.34 313.791" stroke="#363636" stroke-width="0.307346"/>
<path d="M1106.45 323.177C1105.93 323.293 1104.11 322.73 1103.26 321.341" stroke="#363636" stroke-width="0.307346"/>
<path d="M1112 315.298C1112 317.847 1109.94 320.946 1107.41 322.22C1104.87 323.495 1105.2 323.265 1102.31 321.045C1102.14 318.38 1104.87 314.265 1107.41 312.99C1109.94 311.716 1112 312.749 1112 315.298Z" fill="#363636"/>
<ellipse rx="5.1365" ry="4.61517" transform="matrix(0.893405 -0.449252 0 1 1108.77 318.197)" fill="#535456"/>
<ellipse rx="3.2341" ry="2.90585" transform="matrix(0.893405 -0.449252 0 1 1109.11 318.298)" fill="#D1D1D1"/>
<ellipse rx="1.33168" ry="1.19652" transform="matrix(0.893405 -0.449253 0 1 1109.11 318.298)" fill="#3A3A3A"/>
<path d="M1056.22 343.241C1056.22 345.199 1054.64 347.579 1052.69 348.558C1050.75 349.536 1051 349.36 1048.78 347.655C1048.65 345.608 1050.75 342.448 1052.69 341.469C1054.64 340.49 1056.22 341.284 1056.22 343.241Z" fill="#4C4C4C"/>
<path d="M1053.36 341.325C1053.81 341.227 1055.43 341.562 1056.25 342.509" stroke="#363636" stroke-width="0.307346"/>
<path d="M1050.37 351.895C1049.84 352.011 1048.02 351.448 1047.18 350.059" stroke="#363636" stroke-width="0.307346"/>
<path d="M1055.91 344.016C1055.91 346.565 1053.85 349.664 1051.32 350.939C1048.79 352.213 1049.11 351.984 1046.22 349.763C1046.05 347.098 1048.79 342.983 1051.32 341.708C1053.85 340.434 1055.91 341.467 1055.91 344.016Z" fill="#363636"/>
<ellipse rx="5.1365" ry="4.61518" transform="matrix(0.893405 -0.449253 0 1 1052.68 346.915)" fill="#535456"/>
<ellipse rx="3.2341" ry="2.90585" transform="matrix(0.893405 -0.449252 0 1 1053.02 347.016)" fill="#D1D1D1"/>
<ellipse rx="1.33168" ry="1.19653" transform="matrix(0.893404 -0.449254 0 1 1053.02 347.016)" fill="#3A3A3A"/>
<path d="M1067.56 307.975L1116.34 283.845L1116.34 311.675L1068.07 335.805L1067.56 307.975Z" fill="#C2CCDA"/>
<rect width="4.39674" height="1.97815" transform="matrix(0.88788 0.460075 0 1 1030.69 347.395)" fill="#DE9753"/>
<rect width="4.39674" height="1.97815" transform="matrix(0.88754 0.460731 0 1 1016.98 340.585)" fill="#DE9753"/>
<rect width="7.80742" height="1.97815" transform="matrix(0.88788 0.460074 0 1 1022.03 343.192)" fill="#C4C4C4"/>
<rect width="3.82849" height="1.18425" transform="matrix(0.88788 -0.460075 0 1 1052.33 335.241)" fill="#898989"/>
<path d="M1051.65 334.664V329.631L1052.67 329.039V334.072L1051.65 334.664Z" fill="#3A3A3A"/>
<path d="M1050.29 327.855L1049.27 328.447L1051.65 329.631L1052.67 329.039L1050.29 327.855Z" fill="#303133"/>
<path d="M1051.65 329.631L1049.27 328.447V333.48L1051.65 334.664V329.631Z" fill="#525357"/>
<path d="M1073.97 340.982L1072.95 341.722L1074.48 342.463L1075.5 341.722L1073.97 340.982Z" fill="#2D2D2E"/>
<path d="M1072.95 341.723L1074.48 342.463V347.2L1072.95 346.608V341.723Z" fill="#4C4C4C"/>
<path d="M1086.21 318.578L1135.45 294.309L1162.81 308.224L1114.03 332.354L1086.21 318.578Z" fill="#F2F2F2"/>
<path d="M1086.5 318.247L1114.45 332.162V359.644L1086.5 345.485V318.247Z" fill="#898989"/>
<path d="M1110.51 357.562V336.985L1093.86 342.018L1082.81 361.855V378.434L1162.01 338.762V336.097L1114.42 359.634L1110.51 357.562Z" fill="url(#paint12_linear)"/>
<path d="M1076.18 333.433L1089.95 326.475L1110.51 336.985L1096.91 343.795L1093.35 359.782L1082.81 368.368V378.434L1062.41 368.368V361.263V357.858L1072.78 349.272L1076.18 333.433Z" fill="url(#paint13_linear)"/>
<path d="M1095.39 345.127L1076.86 335.653L1074.31 347.2L1093.01 356.526L1095.39 345.127Z" fill="url(#paint14_linear)"/>
<path d="M1109.49 339.798L1098.44 345.127L1096.23 356.082L1109.49 349.716V339.798Z" fill="url(#paint15_linear)"/>
<path d="M1114.03 332.014L1162.81 307.885L1162.81 335.715L1114.54 359.844L1114.03 332.014Z" fill="#C2CCDA"/>
<path d="M1142.1 347.191C1142.1 349.148 1140.52 351.529 1138.58 352.507C1136.63 353.486 1136.88 353.31 1134.66 351.605C1134.53 349.558 1136.63 346.398 1138.58 345.419C1140.52 344.44 1142.1 345.233 1142.1 347.191Z" fill="#4C4C4C"/>
<path d="M1139.24 345.275C1139.7 345.176 1141.32 345.512 1142.13 346.459" stroke="#363636" stroke-width="0.307346"/>
<path d="M1136.25 355.845C1135.73 355.961 1133.91 355.398 1133.06 354.009" stroke="#363636" stroke-width="0.307346"/>
<path d="M1141.79 347.966C1141.79 350.515 1139.74 353.614 1137.2 354.889C1134.67 356.163 1134.99 355.933 1132.1 353.713C1131.93 351.048 1134.67 346.933 1137.2 345.658C1139.74 344.384 1141.79 345.417 1141.79 347.966Z" fill="#363636"/>
<ellipse rx="5.1365" ry="4.61517" transform="matrix(0.893405 -0.449252 0 1 1138.56 350.865)" fill="#535456"/>
<ellipse rx="3.2341" ry="2.90585" transform="matrix(0.893405 -0.449252 0 1 1138.9 350.966)" fill="#D1D1D1"/>
<ellipse rx="1.33169" ry="1.19653" transform="matrix(0.893405 -0.449252 0 1 1138.9 350.966)" fill="#3A3A3A"/>
<path d="M1158.76 338.605C1158.76 340.563 1157.18 342.943 1155.23 343.922C1153.29 344.9 1153.53 344.724 1151.32 343.019C1151.19 340.972 1153.29 337.812 1155.23 336.833C1157.18 335.854 1158.76 336.648 1158.76 338.605Z" fill="#4C4C4C"/>
<path d="M1155.9 336.689C1156.35 336.591 1157.97 336.926 1158.79 337.873" stroke="#363636" stroke-width="0.307346"/>
<path d="M1152.91 347.259C1152.38 347.375 1150.56 346.812 1149.71 345.423" stroke="#363636" stroke-width="0.307346"/>
<path d="M1158.45 339.38C1158.45 341.929 1156.39 345.028 1153.86 346.303C1151.32 347.577 1151.65 347.348 1148.76 345.127C1148.59 342.462 1151.32 338.347 1153.86 337.072C1156.39 335.798 1158.45 336.831 1158.45 339.38Z" fill="#363636"/>
<ellipse rx="5.1365" ry="4.61517" transform="matrix(0.893405 -0.449252 0 1 1155.22 342.28)" fill="#535456"/>
<ellipse rx="3.23409" ry="2.90585" transform="matrix(0.893405 -0.449252 0 1 1155.56 342.38)" fill="#D1D1D1"/>
<ellipse rx="1.33169" ry="1.19653" transform="matrix(0.893405 -0.449251 0 1 1155.56 342.38)" fill="#3A3A3A"/>
<path d="M1102.67 367.323C1102.67 369.281 1101.09 371.661 1099.14 372.64C1097.2 373.619 1097.45 373.442 1095.23 371.737C1095.1 369.691 1097.2 366.53 1099.14 365.551C1101.09 364.572 1102.67 365.366 1102.67 367.323Z" fill="#4C4C4C"/>
<path d="M1099.81 365.408C1100.27 365.309 1101.89 365.644 1102.7 366.592" stroke="#363636" stroke-width="0.307346"/>
<path d="M1096.82 375.978C1096.29 376.094 1094.48 375.531 1093.63 374.141" stroke="#363636" stroke-width="0.307346"/>
<path d="M1102.36 368.098C1102.36 370.647 1100.31 373.747 1097.77 375.021C1095.24 376.295 1095.56 376.066 1092.67 373.845C1092.5 371.181 1095.24 367.065 1097.77 365.791C1100.31 364.516 1102.36 365.549 1102.36 368.098Z" fill="#363636"/>
<ellipse rx="5.1365" ry="4.61517" transform="matrix(0.893405 -0.449252 0 1 1099.13 370.998)" fill="#535456"/>
<ellipse rx="3.2341" ry="2.90585" transform="matrix(0.893405 -0.449252 0 1 1099.47 371.098)" fill="#D1D1D1"/>
<ellipse rx="1.33168" ry="1.19653" transform="matrix(0.893404 -0.449255 0 1 1099.47 371.098)" fill="#3A3A3A"/>
<path d="M1114.01 332.057L1162.79 307.928L1162.79 335.758L1114.52 359.887L1114.01 332.057Z" fill="#C2CCDA"/>
<rect width="4.39674" height="1.97815" transform="matrix(0.88788 0.460074 0 1 1077.15 371.477)" fill="#DE9753"/>
<rect width="4.39674" height="1.97815" transform="matrix(0.88754 0.460731 0 1 1063.43 364.668)" fill="#DE9753"/>
<rect width="7.80742" height="1.97815" transform="matrix(0.88788 0.460074 0 1 1068.48 367.274)" fill="#C4C4C4"/>
<rect width="3.82849" height="1.18425" transform="matrix(0.887882 -0.460072 0 1 1098.79 359.323)" fill="#898989"/>
<path d="M1098.1 358.747V353.714L1099.12 353.121V358.155L1098.1 358.747Z" fill="#3A3A3A"/>
<path d="M1096.74 351.937L1095.72 352.529L1098.1 353.713L1099.12 353.121L1096.74 351.937Z" fill="#303133"/>
<path d="M1098.1 353.713L1095.72 352.529V357.562L1098.1 358.747V353.713Z" fill="#525357"/>
<defs>
<linearGradient id="paint0_linear" x1="1003.02" y1="475.105" x2="991.913" y2="497.307" gradientUnits="userSpaceOnUse">
<stop stop-color="#2B4499"/>
<stop offset="0.749464" stop-color="#2B4499"/>
<stop offset="0.75" stop-color="#404143"/>
<stop offset="1" stop-color="#404143"/>
</linearGradient>
<linearGradient id="paint1_linear" x1="1016.62" y1="465.779" x2="1038.69" y2="510.015" gradientUnits="userSpaceOnUse">
<stop stop-color="#3F5CC2"/>
<stop offset="0.234175" stop-color="#405DC2"/>
<stop offset="0.234275" stop-color="#A3A3A3"/>
<stop offset="0.234375" stop-color="#293B7A"/>
<stop offset="0.552083" stop-color="#2A3C7B"/>
<stop offset="0.552183" stop-color="#3F5CC2"/>
<stop offset="0.804454" stop-color="#405DC2"/>
<stop offset="0.810077" stop-color="#415EC2"/>
<stop offset="0.814339" stop-color="#293B7A"/>
<stop offset="0.865219" stop-color="#2A3C7B"/>
<stop offset="0.867454" stop-color="#535456"/>
<stop offset="1" stop-color="#525356"/>
</linearGradient>
<linearGradient id="paint2_linear" x1="1033.1" y1="477.178" x2="1000.37" y2="474.062" gradientUnits="userSpaceOnUse">
<stop stop-color="#A0B3F6"/>
<stop offset="0.192159" stop-color="#A0B3F7"/>
<stop offset="0.195181" stop-color="#607AD6"/>
<stop offset="0.886167" stop-color="#607AD6"/>
<stop offset="0.887989" stop-color="#A0B3F7"/>
<stop offset="0.997653" stop-color="#A0B3F7"/>
</linearGradient>
<linearGradient id="paint3_linear" x1="1033.1" y1="477.178" x2="1000.37" y2="474.062" gradientUnits="userSpaceOnUse">
<stop stop-color="#A0B3F6"/>
<stop offset="0.192159" stop-color="#A0B3F7"/>
<stop offset="0.195181" stop-color="#607AD6"/>
<stop offset="0.886167" stop-color="#607AD6"/>
<stop offset="0.887989" stop-color="#A0B3F7"/>
<stop offset="0.997653" stop-color="#A0B3F7"/>
</linearGradient>
<linearGradient id="paint4_linear" x1="1088.65" y1="826.706" x2="1099.76" y2="848.909" gradientUnits="userSpaceOnUse">
<stop stop-color="#2B4499"/>
<stop offset="0.749464" stop-color="#2B4499"/>
<stop offset="0.75" stop-color="#404143"/>
<stop offset="1" stop-color="#404143"/>
</linearGradient>
<linearGradient id="paint5_linear" x1="1075.05" y1="817.38" x2="1052.98" y2="861.617" gradientUnits="userSpaceOnUse">
<stop stop-color="#3F5CC2"/>
<stop offset="0.234175" stop-color="#405DC2"/>
<stop offset="0.234275" stop-color="#A3A3A3"/>
<stop offset="0.234375" stop-color="#293B7A"/>
<stop offset="0.552083" stop-color="#2A3C7B"/>
<stop offset="0.552183" stop-color="#3F5CC2"/>
<stop offset="0.804454" stop-color="#405DC2"/>
<stop offset="0.810077" stop-color="#415EC2"/>
<stop offset="0.814339" stop-color="#293B7A"/>
<stop offset="0.865219" stop-color="#2A3C7B"/>
<stop offset="0.867454" stop-color="#535456"/>
<stop offset="1" stop-color="#525356"/>
</linearGradient>
<linearGradient id="paint6_linear" x1="1058.57" y1="828.779" x2="1091.3" y2="825.663" gradientUnits="userSpaceOnUse">
<stop stop-color="#A0B3F6"/>
<stop offset="0.192159" stop-color="#A0B3F7"/>
<stop offset="0.195181" stop-color="#607AD6"/>
<stop offset="0.886167" stop-color="#607AD6"/>
<stop offset="0.887989" stop-color="#A0B3F7"/>
<stop offset="0.997653" stop-color="#A0B3F7"/>
</linearGradient>
<linearGradient id="paint7_linear" x1="1058.57" y1="828.779" x2="1091.3" y2="825.663" gradientUnits="userSpaceOnUse">
<stop stop-color="#A0B3F6"/>
<stop offset="0.192159" stop-color="#A0B3F7"/>
<stop offset="0.195181" stop-color="#607AD6"/>
<stop offset="0.886167" stop-color="#607AD6"/>
<stop offset="0.887989" stop-color="#A0B3F7"/>
<stop offset="0.997653" stop-color="#A0B3F7"/>
</linearGradient>
<linearGradient id="paint8_linear" x1="1061" y1="314.235" x2="1072.11" y2="336.438" gradientUnits="userSpaceOnUse">
<stop stop-color="#2B4499"/>
<stop offset="0.749464" stop-color="#2B4499"/>
<stop offset="0.75" stop-color="#404143"/>
<stop offset="1" stop-color="#404143"/>
</linearGradient>
<linearGradient id="paint9_linear" x1="1047.4" y1="304.909" x2="1025.33" y2="349.146" gradientUnits="userSpaceOnUse">
<stop stop-color="#3F5CC2"/>
<stop offset="0.234175" stop-color="#405DC2"/>
<stop offset="0.234275" stop-color="#A3A3A3"/>
<stop offset="0.234375" stop-color="#293B7A"/>
<stop offset="0.552083" stop-color="#2A3C7B"/>
<stop offset="0.552183" stop-color="#3F5CC2"/>
<stop offset="0.804454" stop-color="#405DC2"/>
<stop offset="0.810077" stop-color="#415EC2"/>
<stop offset="0.814339" stop-color="#293B7A"/>
<stop offset="0.865219" stop-color="#2A3C7B"/>
<stop offset="0.867454" stop-color="#535456"/>
<stop offset="1" stop-color="#525356"/>
</linearGradient>
<linearGradient id="paint10_linear" x1="1030.92" y1="316.308" x2="1063.65" y2="313.192" gradientUnits="userSpaceOnUse">
<stop stop-color="#A0B3F6"/>
<stop offset="0.192159" stop-color="#A0B3F7"/>
<stop offset="0.195181" stop-color="#607AD6"/>
<stop offset="0.886167" stop-color="#607AD6"/>
<stop offset="0.887989" stop-color="#A0B3F7"/>
<stop offset="0.997653" stop-color="#A0B3F7"/>
</linearGradient>
<linearGradient id="paint11_linear" x1="1030.92" y1="316.308" x2="1063.65" y2="313.192" gradientUnits="userSpaceOnUse">
<stop stop-color="#A0B3F6"/>
<stop offset="0.192159" stop-color="#A0B3F7"/>
<stop offset="0.195181" stop-color="#607AD6"/>
<stop offset="0.886167" stop-color="#607AD6"/>
<stop offset="0.887989" stop-color="#A0B3F7"/>
<stop offset="0.997653" stop-color="#A0B3F7"/>
</linearGradient>
<linearGradient id="paint12_linear" x1="1107.45" y1="338.318" x2="1118.56" y2="360.52" gradientUnits="userSpaceOnUse">
<stop stop-color="#2B4499"/>
<stop offset="0.749464" stop-color="#2B4499"/>
<stop offset="0.75" stop-color="#404143"/>
<stop offset="1" stop-color="#404143"/>
</linearGradient>
<linearGradient id="paint13_linear" x1="1093.85" y1="328.992" x2="1071.78" y2="373.228" gradientUnits="userSpaceOnUse">
<stop stop-color="#3F5CC2"/>
<stop offset="0.234175" stop-color="#405DC2"/>
<stop offset="0.234275" stop-color="#A3A3A3"/>
<stop offset="0.234375" stop-color="#293B7A"/>
<stop offset="0.552083" stop-color="#2A3C7B"/>
<stop offset="0.552183" stop-color="#3F5CC2"/>
<stop offset="0.804454" stop-color="#405DC2"/>
<stop offset="0.810077" stop-color="#415EC2"/>
<stop offset="0.814339" stop-color="#293B7A"/>
<stop offset="0.865219" stop-color="#2A3C7B"/>
<stop offset="0.867454" stop-color="#535456"/>
<stop offset="1" stop-color="#525356"/>
</linearGradient>
<linearGradient id="paint14_linear" x1="1077.37" y1="340.39" x2="1110.1" y2="337.275" gradientUnits="userSpaceOnUse">
<stop stop-color="#A0B3F6"/>
<stop offset="0.192159" stop-color="#A0B3F7"/>
<stop offset="0.195181" stop-color="#607AD6"/>
<stop offset="0.886167" stop-color="#607AD6"/>
<stop offset="0.887989" stop-color="#A0B3F7"/>
<stop offset="0.997653" stop-color="#A0B3F7"/>
</linearGradient>
<linearGradient id="paint15_linear" x1="1077.37" y1="340.39" x2="1110.1" y2="337.275" gradientUnits="userSpaceOnUse">
<stop stop-color="#A0B3F6"/>
<stop offset="0.192159" stop-color="#A0B3F7"/>
<stop offset="0.195181" stop-color="#607AD6"/>
<stop offset="0.886167" stop-color="#607AD6"/>
<stop offset="0.887989" stop-color="#A0B3F7"/>
<stop offset="0.997653" stop-color="#A0B3F7"/>
</linearGradient>
</defs>
</svg>
