<svg width="1440" height="750" viewBox="0 0 1440 750" fill="none" xmlns="http://www.w3.org/2000/svg">
<path d="M-1 525.216C-1 525.216 1193.14 1030.98 1439 525.216C1558.51 279.359 1439 -174.784 1439 -174.784H-1V525.216Z" fill="#607AD6"/>
<g clip-path="url(#clip0)">
<path d="M995.388 604.774C991.333 595.042 1005.16 595.189 1008.78 599.981C1010.43 602.162 1014.54 604.266 1018.53 605.913C1019.39 605.059 1020.45 604.292 1021.78 603.676C1029.75 599.99 1027.94 609.207 1027.94 609.207C1027.94 609.207 1033.73 612.155 1026.12 616.579C1018.52 621.003 1015.26 616.579 1015.26 616.579C1015.26 616.579 1011.85 615.711 1004.79 612.272C997.724 608.833 995.388 604.774 995.388 604.774Z" fill="#463B31"/>
<path d="M973.962 618.781C969.908 609.049 983.737 609.198 987.357 613.991C989.004 616.169 993.114 618.275 997.106 619.923C997.961 619.068 999.027 618.299 1000.36 617.685C1008.32 613.999 1006.51 623.214 1006.51 623.214C1006.51 623.214 1012.3 626.164 1004.7 630.586C997.097 635.011 993.839 630.586 993.839 630.586C993.839 630.586 987.357 628.493 982.704 625.911C978.051 623.332 973.962 618.781 973.962 618.781Z" fill="#463B31"/>
<path fill-rule="evenodd" clip-rule="evenodd" d="M1014.52 469.979L1014.27 546.526L1022.1 604.162C1016.67 605.637 1014.27 615.958 1011.96 606.373L985.546 479.088L1014.52 469.979Z" fill="#B59173"/>
<path fill-rule="evenodd" clip-rule="evenodd" d="M991.642 484.725L991.393 561.27L999.226 618.908C993.795 620.383 991.393 630.704 989.089 621.119L968.131 471.543L991.642 484.725Z" fill="#CEA885"/>
<path fill-rule="evenodd" clip-rule="evenodd" d="M978.64 353.92C973.373 357.154 968.197 358.717 965.768 358.079C959.676 356.48 959.117 333.773 963.83 324.821C968.543 315.869 992.773 311.968 993.994 329.705C994.418 335.86 991.881 341.352 988.134 345.835L994.854 377.752H975.334L978.64 353.92Z" fill="#CEA885"/>
<path fill-rule="evenodd" clip-rule="evenodd" d="M979.444 325.801C982.258 327.314 984.223 330.253 986.6 334.136C987.165 333.909 987.781 333.786 988.425 333.786C991.181 333.786 991.912 335.553 991.912 338.359C991.912 339.784 987.514 346.708 987.514 346.708C987.514 350.418 991.163 350.669 993.092 349.492C998.663 346.088 1005.55 334.319 1000.1 324.748C998.597 320.059 994.277 314.771 990.252 313.609C986.992 312.22 978.185 312.018 975.328 312.851C969.727 313.34 959.437 320.167 958.02 321.199C958.02 326.599 970.669 325.941 979.444 325.801Z" fill="#191847"/>
<path d="M975.387 312.82C989.505 311.402 990.881 323.644 990.549 330.14L984.335 328.368C984.137 315.815 978.784 312.904 975.387 312.82Z" fill="#C4C4C4"/>
<path d="M996.763 338.081C996.763 342.887 994.964 347.013 988.217 346.784C981.471 346.554 979.672 342.887 979.672 338.081C979.672 333.276 981.246 329.38 988.217 329.38C995.189 329.38 996.763 333.276 996.763 338.081Z" fill="#C4C4C4"/>
<path d="M994.963 336.708C994.963 341.513 993.164 345.638 986.417 345.41C979.67 345.18 977.871 341.513 977.871 336.708C977.871 331.902 979.445 328.005 986.417 328.005C993.389 328.005 994.963 331.902 994.963 336.708Z" fill="#E0E0E0"/>
<path d="M986.821 336.864C984.501 340.83 983.49 349.672 973.15 349.267" stroke="#C4C4C4" stroke-width="1.75676"/>
<path d="M972.404 346.736H970.912C969.539 346.736 968.427 347.869 968.427 349.267V349.267C968.427 350.665 969.539 351.798 970.912 351.798H972.404C973.776 351.798 974.889 350.665 974.889 349.267V349.267C974.889 347.869 973.776 346.736 972.404 346.736Z" fill="#191847"/>
<path d="M986.323 340.66C987.971 340.66 989.306 339.3 989.306 337.623C989.306 335.946 987.971 334.586 986.323 334.586C984.676 334.586 983.341 335.946 983.341 337.623C983.341 339.3 984.676 340.66 986.323 340.66Z" fill="#C4C4C4"/>
<path fill-rule="evenodd" clip-rule="evenodd" d="M976.843 453.758L1006.96 592.644H1023.91L1018.62 453.758H976.843Z" fill="#1E2951"/>
<path fill-rule="evenodd" clip-rule="evenodd" d="M964.167 453.758C958.457 480.21 982.345 608.842 982.345 608.842H998.059L1007.97 453.758H964.167Z" fill="#4B5884"/>
<path fill-rule="evenodd" clip-rule="evenodd" d="M977.174 418.762C977.174 418.762 942.776 404.915 941.151 403.992C939.527 403.07 936.851 399.564 936.851 399.564C936.851 399.564 929.553 393.14 926.609 393.131C919.249 393.112 937.552 401.779 921.589 394.163C905.625 386.547 921.847 403.105 923.586 405.683C925.326 408.261 935.178 409.402 938.286 411.418C940.358 412.759 974.856 431.217 974.856 431.217L977.174 418.762Z" fill="#CEA885"/>
<path fill-rule="evenodd" clip-rule="evenodd" d="M968.237 433.572C968.237 433.572 961.073 470.523 960.475 472.318C959.878 474.111 956.975 477.423 956.975 477.423C956.975 477.423 952.087 485.893 952.611 488.843C953.92 496.218 958.988 476.32 954.513 493.684C950.039 511.047 963.104 491.811 965.28 489.603C967.457 487.396 966.78 477.323 968.164 473.846C969.088 471.53 980.687 433.646 980.687 433.646L968.237 433.572Z" fill="#CEA885"/>
<path fill-rule="evenodd" clip-rule="evenodd" d="M1010.86 429.505C1015.39 424.924 1015.67 422.493 1007.62 418.67C988.586 418.65 971.409 416.34 950.53 407.227L946.801 418.67C971.161 429.505 990.54 438.177 1010.86 429.505Z" fill="#BD3F30"/>
<path fill-rule="evenodd" clip-rule="evenodd" d="M1020.38 468.478L962.213 471.77C962.213 471.77 970.633 394.827 968.924 377.107L977.624 360.15H992.471L1004.97 380.145C1008.45 402.925 1014.66 419.123 1020.38 468.478Z" fill="#CE4333"/>
<path fill-rule="evenodd" clip-rule="evenodd" d="M989.195 380.574C989.195 380.574 994.528 422.413 969.672 471.77L959.232 466.96C977.818 423.603 974.214 380.892 974.214 380.892C979.757 375.114 983.078 375.857 989.195 380.574Z" fill="#EF4D3B"/>
<path d="M851.126 309.3L934.782 260.506C944.974 255.542 956.711 261.333 956.711 268.776V286.144C956.711 291.933 949.888 304.835 935.594 313.436C932.345 315.42 937.76 321.43 940.467 323.36C934.619 328.653 923.952 324.737 920.162 321.705L851.127 368.65C836.507 362.033 835.695 363.057 835.695 353.133V339.073C835.695 319.224 840.568 316.744 851.126 309.3Z" fill="#B0C2FF"/>
<path d="M859.249 312.608L942.905 263.814C953.097 258.85 958.336 264.641 958.336 272.084V289.452C958.336 295.241 958.011 308.143 943.717 316.744C940.468 318.728 945.883 324.737 948.59 326.667C942.742 331.961 932.076 328.045 928.285 325.014L864.123 363.883C848.691 374.635 843.818 366.364 843.818 356.44V342.381C843.818 322.532 848.691 320.052 859.249 312.608Z" fill="white"/>
<path d="M890.632 316.69C891.514 316.171 892.289 315.916 892.957 315.924C893.639 315.924 894.16 316.195 894.52 316.738C894.893 317.256 895.072 318.009 895.056 318.997C895.028 320.747 894.545 322.306 893.609 323.674C892.686 325.019 891.433 326.157 889.848 327.087L889.743 329.796L888.503 330.526L888.484 326.688L889.021 326.371C890.44 325.536 891.56 324.622 892.381 323.626C893.217 322.605 893.647 321.334 893.672 319.811C893.689 318.742 893.413 318.062 892.845 317.771C892.29 317.471 891.545 317.597 890.608 318.147C889.671 318.698 888.922 319.435 888.362 320.358C887.801 321.282 887.512 322.262 887.495 323.298L886.11 324.112C886.126 323.14 886.326 322.189 886.71 321.257C887.107 320.302 887.64 319.435 888.307 318.658C888.989 317.856 889.764 317.2 890.632 316.69ZM889.048 334.777C888.745 334.955 888.492 334.983 888.289 334.862C888.1 334.732 888.009 334.49 888.014 334.134C888.02 333.778 888.121 333.429 888.318 333.088C888.529 332.725 888.785 332.454 889.088 332.276C889.378 332.104 889.617 332.085 889.806 332.213C890.009 332.319 890.107 332.55 890.102 332.907C890.096 333.263 889.988 333.622 889.777 333.987C889.58 334.343 889.337 334.608 889.048 334.777ZM901.207 310.473C902.088 309.954 902.863 309.699 903.532 309.707C904.214 309.707 904.735 309.979 905.095 310.521C905.468 311.039 905.647 311.792 905.631 312.78C905.602 314.53 905.12 316.089 904.183 317.457C903.261 318.802 902.007 319.94 900.423 320.871L900.318 323.58L899.078 324.309L899.058 320.47L899.596 320.154C901.015 319.32 902.135 318.405 902.956 317.409C903.791 316.388 904.222 315.117 904.246 313.594C904.264 312.525 903.988 311.845 903.42 311.554C902.865 311.254 902.12 311.38 901.183 311.931C900.246 312.481 899.497 313.218 898.936 314.141C898.376 315.065 898.087 316.045 898.07 317.081L896.685 317.895C896.701 316.923 896.901 315.972 897.284 315.041C897.682 314.085 898.215 313.218 898.882 312.441C899.564 311.639 900.339 310.983 901.207 310.473ZM899.623 328.56C899.319 328.738 899.067 328.768 898.864 328.645C898.675 328.515 898.583 328.273 898.589 327.917C898.595 327.561 898.696 327.212 898.893 326.873C899.103 326.508 899.36 326.236 899.663 326.058C899.953 325.887 900.192 325.868 900.381 325.998C900.584 326.102 900.682 326.333 900.676 326.689C900.671 327.046 900.562 327.407 900.352 327.77C900.155 328.128 899.912 328.391 899.623 328.56ZM911.781 304.256C912.663 303.738 913.438 303.482 914.107 303.49C914.789 303.49 915.31 303.762 915.669 304.304C916.043 304.823 916.222 305.576 916.206 306.564C916.177 308.313 915.695 309.872 914.758 311.24C913.836 312.585 912.582 313.723 910.998 314.654L910.893 317.363L909.653 318.092L909.633 314.253L910.171 313.937C911.59 313.103 912.71 312.188 913.531 311.192C914.366 310.172 914.796 308.9 914.821 307.378C914.839 306.309 914.563 305.628 913.995 305.337C913.44 305.037 912.694 305.163 911.758 305.714C910.821 306.264 910.072 307.001 909.511 307.925C908.95 308.848 908.662 309.828 908.645 310.864L907.26 311.678C907.276 310.706 907.476 309.755 907.859 308.824C908.257 307.868 908.789 307.001 909.457 306.224C910.139 305.422 910.913 304.766 911.781 304.256ZM910.197 322.344C909.894 322.522 909.641 322.55 909.439 322.429C909.25 322.299 909.158 322.056 909.164 321.7C909.17 321.343 909.271 320.995 909.467 320.655C909.678 320.291 909.935 320.019 910.238 319.841C910.527 319.671 910.767 319.651 910.956 319.78C911.158 319.886 911.257 320.116 911.251 320.473C911.245 320.829 911.137 321.189 910.927 321.554C910.73 321.91 910.487 322.173 910.197 322.344Z" fill="black"/>
<path d="M1211.58 548.55L1211.33 472.003L1240.3 481.113L1214.91 602.877C1215.16 609.893 1211.02 612.858 1208.77 614.471L1208.7 614.52L1202.98 608.398L1211.58 548.55Z" fill="#CEA885"/>
<path fill-rule="evenodd" clip-rule="evenodd" d="M1234.21 486.749L1234.45 563.294L1226.62 620.932C1228.93 621.56 1229.63 627.331 1231.07 628.947C1232.02 630.009 1238.58 628.742 1242.75 625.403C1244.86 623.716 1245.62 620.412 1246.23 618.823C1246.73 614.013 1238.78 616.121 1238.53 616.039L1264.93 480.85L1234.21 486.749Z" fill="#CEA885"/>
<path d="M1220.38 601.612C1217.99 603.03 1215.99 602.708 1214.91 602.625C1215.31 608.699 1210.02 613.424 1207.7 614.774C1213.67 614.267 1214.91 613.002 1220.38 609.712C1225.85 606.422 1223.36 599.84 1220.38 601.612Z" fill="#CEA885"/>
<path d="M1233.55 632.492C1229.58 634.719 1225.93 633.42 1224.6 632.492C1221.02 626.214 1224.44 622.115 1226.59 620.849C1230.57 621.861 1231.98 625.573 1233.05 627.43C1240.46 625.166 1244.28 623.363 1244.24 620.849C1242.93 617.781 1241.4 617.08 1238.77 616.04C1243.15 610.977 1250.11 612.749 1251.45 615.026C1255.62 622.113 1241.01 629.369 1233.55 632.492Z" fill="#E3E3E3"/>
<path d="M1209.95 619.051C1205.97 621.28 1202.33 619.98 1201 619.051C1197.42 612.775 1200.84 608.674 1202.99 607.409C1206.97 608.422 1207.62 611.652 1208.7 613.508C1217.97 611.029 1220.78 609.487 1219.89 606.397L1215.17 602.601C1219.54 597.539 1226.5 599.309 1227.85 601.588C1232.02 608.674 1217.4 615.931 1209.95 619.051Z" fill="#E3E3E3"/>
<path fill-rule="evenodd" clip-rule="evenodd" d="M1249 455.784L1237.4 525.824H1201.94L1207.23 455.784H1249Z" fill="#55B06E"/>
<path fill-rule="evenodd" clip-rule="evenodd" d="M1261.68 455.784C1267.39 482.235 1263.85 525.824 1263.85 525.824H1227.79L1217.87 455.784H1261.68Z" fill="#6CD98B"/>
<path d="M1257.66 356.828C1256.98 358.593 1273.92 384.448 1273.92 384.448C1273.92 384.448 1245.73 378.627 1235.44 374.324L1238.17 391.535L1280.88 392.042L1273.92 368.503C1273.92 368.503 1265.86 362.528 1266.62 360.15C1267.76 356.582 1272.54 349.874 1272.27 346.758C1272 343.641 1265.78 322.814 1258.21 339.03C1254.07 347.922 1257.34 345.623 1260.21 342.523C1258.99 346.01 1258.21 350.628 1258.21 350.628C1258.21 350.628 1258.34 355.064 1257.66 356.828Z" fill="#C59971"/>
<path fill-rule="evenodd" clip-rule="evenodd" d="M1239.12 399.887C1232.8 399.002 1237.18 385.097 1241.35 377.109C1241.35 377.109 1259 380.145 1269.44 382.17L1262.23 372.047L1272.18 364.958C1272.18 364.958 1297.6 390.847 1284.11 399.887C1284.11 399.887 1244.83 404.697 1239.12 399.887Z" fill="#191847"/>
<path fill-rule="evenodd" clip-rule="evenodd" d="M1194.8 537.242L1271.21 532.919C1271.21 532.919 1252.92 389.637 1254.63 371.919L1233.37 370.821C1233.37 370.821 1230.1 370.242 1228.5 369.974L1227.6 369.856C1215.7 386.252 1197.35 500.07 1194.8 537.242Z" fill="#2F3676"/>
<path fill-rule="evenodd" clip-rule="evenodd" d="M1253.81 431.5C1253.81 431.5 1266.13 467.014 1266.98 468.701C1267.82 470.388 1271.16 473.239 1271.16 473.239C1271.16 473.239 1277.2 480.902 1277.1 483.898C1276.85 491.389 1269.02 472.444 1275.9 488.969C1282.79 505.492 1267.14 488.378 1264.67 486.512C1262.21 484.647 1261.45 474.579 1259.59 471.343C1258.34 469.185 1241.5 433.402 1241.5 433.402L1253.81 431.5Z" fill="#CEA885"/>
<path d="M1246.3 339.37L1258.35 329.896C1258.61 329.691 1258.99 329.74 1259.19 330.006L1274.33 349.982C1274.53 350.248 1274.49 350.63 1274.23 350.835L1262.17 360.309C1261.91 360.515 1261.53 360.465 1261.33 360.2L1246.19 340.223C1245.99 339.958 1246.04 339.576 1246.3 339.37Z" fill="#333333"/>
<path d="M1248.39 340.23L1258.64 332.175C1258.86 332 1259.18 332.042 1259.35 332.268L1272.23 349.252C1272.4 349.478 1272.36 349.803 1272.13 349.977L1261.89 358.032C1261.66 358.206 1261.34 358.165 1261.17 357.939L1248.3 340.955C1248.13 340.729 1248.17 340.404 1248.39 340.23Z" fill="white"/>
<path fill-rule="evenodd" clip-rule="evenodd" d="M1246 355.289C1251.61 358.966 1257.32 360.785 1259.9 360.106C1266 358.505 1266.56 335.797 1261.84 326.847C1257.13 317.894 1232.9 313.992 1231.68 331.729C1231.25 337.979 1233.87 343.546 1237.71 348.065L1234.31 370.871L1247.48 371.54L1246 355.289Z" fill="#CEA885"/>
<path fill-rule="evenodd" clip-rule="evenodd" d="M1263.69 330.866C1263.49 329.705 1263.02 328.416 1262.64 327.319C1262.15 325.904 1261.4 324.628 1260.58 323.425C1259.04 321.161 1257.19 319.117 1255.15 317.42C1251.42 314.32 1246.68 312.532 1242.01 313.113C1239.65 313.406 1237.36 314.322 1235.42 315.847C1233.66 317.225 1231.96 319.253 1229.69 319.398C1227.21 319.557 1224.93 317.327 1222.95 315.95C1220.71 314.398 1218.32 313.267 1215.7 312.827C1211.31 312.091 1207.19 313.602 1204.16 317.271C1200.95 321.175 1198.61 326.902 1200.72 332.075C1201.11 333.036 1201.62 333.847 1202.34 334.52C1203.01 335.135 1204.03 335.79 1204.3 336.776C1204.58 337.822 1203.73 339.172 1203.39 340.116C1202.92 341.47 1202.53 342.889 1202.67 344.36C1202.89 346.776 1204.39 349.08 1205.96 350.667C1207.56 352.282 1209.53 353.209 1211.63 353.636C1213.04 353.921 1214.47 354.079 1215.9 353.971C1216.61 353.918 1217.23 353.717 1217.92 353.558C1218.59 353.403 1222.38 364.357 1222.95 364.73C1227.29 368.786 1233.07 368.786 1233.07 368.786C1233.07 368.786 1251.53 369.523 1250.09 358.095C1248.65 346.667 1237.92 348.731 1237.37 345.801C1237.95 346.093 1239.56 346.274 1238.6 345.107C1238.22 344.646 1237.5 344.457 1237.02 344.186C1236.45 343.869 1235.87 343.461 1235.43 342.946C1233.66 340.863 1235.45 336.622 1237.68 335.923C1241 334.886 1241.75 339.668 1244.12 340.906C1245.48 341.617 1246.9 340.645 1247.92 339.653C1249.29 338.323 1250.22 336.561 1251.03 334.768C1251.69 333.292 1252.3 331.795 1252.98 330.325C1253.3 329.639 1254.39 327.699 1253.84 326.923C1256.22 326.44 1258.86 327.447 1260.91 328.767C1261.76 329.312 1262.4 329.914 1262.85 330.878C1262.95 331.084 1263.16 331.698 1263.43 331.724C1263.92 331.771 1263.73 331.157 1263.69 330.866Z" fill="#191847"/>
<path fill-rule="evenodd" clip-rule="evenodd" d="M1225.6 387.697C1225.6 387.697 1231.38 426.124 1253.61 477.627L1273.18 466.613C1247.73 427.038 1240.42 385.456 1240.42 385.456C1234 380.705 1230.85 382.006 1225.6 387.697Z" fill="#4E55A5"/>
<path d="M1380.38 319.931L1296.73 271.136C1286.53 266.173 1274.8 271.964 1274.8 279.406V296.774C1274.8 302.564 1281.62 315.465 1295.91 324.067C1299.16 326.051 1293.75 332.061 1291.04 333.99C1296.89 339.283 1307.56 335.368 1311.35 332.336L1380.38 379.279C1395 372.664 1395.81 373.688 1395.81 363.762V349.703C1395.81 329.855 1390.94 327.374 1380.38 319.931Z" fill="#B0C2FF"/>
<path d="M1372.26 323.238L1288.6 274.444C1278.41 269.48 1273.17 275.272 1273.17 282.714V300.082C1273.17 305.871 1273.5 318.773 1287.79 327.374C1291.04 329.359 1285.63 335.368 1282.92 337.298C1288.77 342.592 1299.43 338.676 1303.22 335.643L1367.39 374.514C1382.82 385.266 1387.69 376.995 1387.69 367.071V353.012C1387.69 333.162 1382.82 330.681 1372.26 323.238Z" fill="white"/>
<path d="M1319.51 312.664C1320.38 313.194 1321.15 313.864 1321.81 314.675C1322.49 315.494 1323.01 316.396 1323.37 317.381C1323.74 318.358 1323.91 319.34 1323.9 320.328C1323.87 322.077 1323.39 323.088 1322.46 323.359C1321.54 323.622 1320.3 323.277 1318.73 322.325L1318.62 324.96L1317.39 324.215L1317.37 320.278L1317.91 320.601C1319.32 321.454 1320.43 321.866 1321.24 321.836C1322.07 321.798 1322.5 321.018 1322.52 319.496C1322.54 318.427 1322.27 317.403 1321.7 316.423C1321.15 315.452 1320.41 314.685 1319.48 314.121C1318.55 313.558 1317.81 313.411 1317.25 313.679C1316.7 313.947 1316.41 314.599 1316.39 315.635L1315.02 314.803C1315.04 313.831 1315.23 313.101 1315.62 312.612C1316.01 312.115 1316.54 311.871 1317.2 311.88C1317.88 311.881 1318.65 312.142 1319.51 312.664ZM1317.93 329.203C1317.63 329.022 1317.38 328.747 1317.18 328.378C1316.99 328.021 1316.9 327.663 1316.91 327.307C1316.91 326.95 1317.01 326.717 1317.21 326.606C1317.42 326.487 1317.67 326.518 1317.97 326.701C1318.26 326.874 1318.5 327.141 1318.69 327.5C1318.89 327.851 1318.99 328.206 1318.98 328.562C1318.97 328.918 1318.87 329.155 1318.66 329.274C1318.46 329.4 1318.22 329.378 1317.93 329.203ZM1330 319.021C1330.88 319.551 1331.64 320.222 1332.31 321.032C1332.99 321.851 1333.5 322.753 1333.86 323.738C1334.23 324.715 1334.41 325.697 1334.39 326.686C1334.36 328.436 1333.88 329.445 1332.95 329.717C1332.04 329.979 1330.79 329.635 1329.22 328.683L1329.12 331.318L1327.89 330.572L1327.87 326.636L1328.4 326.957C1329.81 327.811 1330.92 328.223 1331.74 328.193C1332.57 328.155 1332.99 327.376 1333.02 325.853C1333.03 324.784 1332.76 323.761 1332.2 322.78C1331.65 321.809 1330.91 321.042 1329.98 320.479C1329.05 319.915 1328.31 319.768 1327.75 320.036C1327.19 320.304 1326.9 320.956 1326.89 321.993L1325.51 321.16C1325.53 320.188 1325.73 319.458 1326.11 318.969C1326.5 318.472 1327.03 318.228 1327.69 318.237C1328.37 318.238 1329.14 318.499 1330 319.021ZM1328.43 335.56C1328.13 335.379 1327.88 335.104 1327.68 334.736C1327.49 334.378 1327.4 334.02 1327.4 333.664C1327.41 333.308 1327.51 333.074 1327.7 332.963C1327.91 332.844 1328.17 332.875 1328.47 333.059C1328.76 333.231 1328.99 333.498 1329.18 333.857C1329.38 334.208 1329.48 334.563 1329.47 334.919C1329.47 335.275 1329.36 335.512 1329.15 335.631C1328.96 335.757 1328.71 335.735 1328.43 335.56ZM1340.5 325.379C1341.37 325.908 1342.14 326.579 1342.8 327.39C1343.48 328.209 1344 329.11 1344.35 330.095C1344.72 331.072 1344.9 332.054 1344.88 333.043C1344.86 334.793 1344.38 335.802 1343.45 336.074C1342.53 336.337 1341.29 335.993 1339.72 335.04L1339.61 337.675L1338.38 336.93L1338.36 332.993L1338.89 333.314C1340.3 334.169 1341.42 334.58 1342.23 334.551C1343.06 334.513 1343.49 333.733 1343.51 332.21C1343.53 331.141 1343.25 330.118 1342.69 329.137C1342.14 328.166 1341.4 327.4 1340.47 326.836C1339.54 326.273 1338.8 326.126 1338.24 326.394C1337.69 326.662 1337.4 327.313 1337.38 328.351L1336.01 327.517C1336.02 326.546 1336.22 325.816 1336.6 325.327C1337 324.829 1337.53 324.585 1338.19 324.594C1338.86 324.596 1339.63 324.857 1340.5 325.379ZM1338.92 341.917C1338.62 341.736 1338.37 341.461 1338.17 341.094C1337.98 340.735 1337.89 340.377 1337.9 340.021C1337.9 339.665 1338 339.431 1338.2 339.321C1338.41 339.201 1338.66 339.232 1338.96 339.416C1339.25 339.589 1339.49 339.857 1339.67 340.214C1339.87 340.565 1339.97 340.92 1339.97 341.276C1339.96 341.632 1339.85 341.869 1339.65 341.988C1339.45 342.115 1339.21 342.092 1338.92 341.917Z" fill="black"/>
<path d="M1096.02 156.166C1105.3 149.192 1117.96 149.192 1127.23 156.166C1133.51 160.882 1141.52 162.517 1149.09 160.628L1157.77 158.465C1166.36 156.323 1175.17 161.004 1178.37 169.402C1180.79 175.761 1186.54 180.173 1193.21 180.781L1204.57 181.818C1212.37 182.53 1217.43 190.522 1214.86 198.053C1212.83 203.96 1215.51 210.47 1221.06 213.153L1224.64 214.884C1232.72 218.79 1233.92 230 1226.85 235.58L1226.41 235.922C1221.45 239.839 1220.51 247.098 1224.31 252.188C1229.25 258.799 1226.01 268.397 1218.12 270.513L1209.62 272.793C1203.55 274.422 1199.28 279.958 1199.17 286.35C1199.02 294.547 1192.14 300.937 1184.11 300.339L1172.75 299.493C1165.49 298.953 1158.44 302.071 1153.87 307.837C1147.54 315.834 1136.7 318.468 1127.5 314.248L1123.23 312.286C1115.85 308.9 1107.4 308.9 1100.02 312.286L1095.75 314.248C1086.55 318.468 1075.71 315.834 1069.38 307.837C1064.81 302.071 1057.76 298.953 1050.5 299.493L1039.14 300.339C1031.11 300.937 1024.23 294.547 1024.08 286.35C1023.97 279.958 1019.7 274.422 1013.63 272.793L1005.13 270.513C997.245 268.397 994 258.799 998.937 252.188C1002.74 247.098 1001.8 239.839 996.837 235.922L996.404 235.58C989.334 230 990.529 218.79 998.61 214.884L1002.19 213.153C1007.74 210.47 1010.42 203.96 1008.39 198.053C1005.82 190.522 1010.88 182.53 1018.68 181.818L1030.04 180.781C1036.71 180.173 1042.47 175.761 1044.88 169.402C1048.08 161.004 1056.89 156.323 1065.48 158.465L1074.16 160.628C1081.73 162.517 1089.74 160.882 1096.02 156.166Z" fill="white" fill-opacity="0.4"/>
<path d="M1156.34 237.704L1157.56 238.755L1155.73 239.805L1154.51 238.755L1156.34 237.704Z" fill="#2D2D2E"/>
<path d="M1157.56 238.755L1155.73 239.806V246.531L1157.56 245.69V238.755Z" fill="#4C4C4C"/>
<path d="M1141.69 205.897L1082.73 171.443L1049.96 191.198L1108.37 225.454L1141.69 205.897Z" fill="#F2F2F2"/>
<path d="M1141.34 205.427L1107.87 225.182V264.198L1141.34 244.096V205.427Z" fill="#898989"/>
<path d="M1112.59 261.241V232.029L1132.53 239.174L1145.76 267.336V290.873L1050.92 234.551V230.768L1107.9 264.183L1112.59 261.241Z" fill="url(#paint0_linear)"/>
<path d="M1153.7 226.986L1137.21 217.108L1112.59 232.029L1128.87 241.697L1133.14 264.394L1145.76 276.583V290.874L1170.18 276.583V266.495V261.662L1157.77 249.473L1153.7 226.986Z" fill="url(#paint1_linear)"/>
<path d="M1130.7 243.588L1152.88 230.138L1155.93 246.53L1133.55 259.77L1130.7 243.588Z" fill="url(#paint2_linear)"/>
<path d="M1113.81 236.022L1127.03 243.588L1129.68 259.139L1113.81 250.103V236.022Z" fill="url(#paint3_linear)"/>
<path d="M1108.37 224.972L1049.96 190.716V230.226L1107.76 264.481L1108.37 224.972Z" fill="#C2CCDA"/>
<path d="M1074.76 246.518C1074.76 249.297 1076.65 252.676 1078.98 254.066C1081.31 255.455 1081.01 255.205 1083.67 252.784C1083.83 249.879 1081.31 245.392 1078.98 244.002C1076.65 242.613 1074.76 243.739 1074.76 246.518Z" fill="#4C4C4C"/>
<path d="M1078.18 243.798C1077.64 243.658 1075.7 244.134 1074.72 245.479" stroke="#363636" stroke-width="0.307346"/>
<path d="M1081.77 258.804C1082.39 258.969 1084.57 258.169 1085.59 256.197" stroke="#363636" stroke-width="0.307346"/>
<path d="M1075.13 247.618C1075.13 251.237 1077.59 255.637 1080.62 257.446C1083.66 259.256 1083.27 258.93 1086.73 255.777C1086.93 251.994 1083.66 246.151 1080.62 244.342C1077.59 242.533 1075.13 243.999 1075.13 247.618Z" fill="#363636"/>
<path d="M1079 258.287C1075.96 256.477 1073.5 252.077 1073.5 248.458C1073.5 244.84 1075.96 243.373 1079 245.182C1082.03 246.992 1084.49 251.392 1084.49 255.011C1084.49 258.629 1082.03 260.096 1079 258.287Z" fill="#535456"/>
<path d="M1078.59 256.002C1076.68 254.863 1075.13 252.093 1075.13 249.814C1075.13 247.536 1076.68 246.612 1078.59 247.752C1080.5 248.891 1082.05 251.661 1082.05 253.94C1082.05 256.218 1080.5 257.142 1078.59 256.002Z" fill="#D1D1D1"/>
<path d="M1078.59 253.576C1077.8 253.107 1077.16 251.966 1077.16 251.028C1077.16 250.09 1077.8 249.709 1078.59 250.178C1079.38 250.648 1080.01 251.788 1080.01 252.727C1080.01 253.665 1079.38 254.045 1078.59 253.576Z" fill="#3A3A3A"/>
<path d="M1054.82 234.329C1054.82 237.108 1056.71 240.487 1059.04 241.877C1061.37 243.266 1061.07 243.016 1063.73 240.595C1063.88 237.689 1061.37 233.202 1059.04 231.813C1056.71 230.423 1054.82 231.55 1054.82 234.329Z" fill="#4C4C4C"/>
<path d="M1058.24 231.609C1057.69 231.469 1055.76 231.945 1054.78 233.29" stroke="#363636" stroke-width="0.307346"/>
<path d="M1061.82 246.615C1062.45 246.779 1064.63 245.98 1065.64 244.008" stroke="#363636" stroke-width="0.307346"/>
<path d="M1055.19 235.429C1055.19 239.048 1057.65 243.448 1060.68 245.257C1063.72 247.067 1063.33 246.741 1066.79 243.588C1066.99 239.805 1063.72 233.962 1060.68 232.153C1057.65 230.344 1055.19 231.81 1055.19 235.429Z" fill="#363636"/>
<path d="M1059.05 246.097C1056.02 244.288 1053.56 239.888 1053.56 236.269C1053.56 232.651 1056.02 231.184 1059.05 232.993C1062.09 234.803 1064.55 239.203 1064.55 242.821C1064.55 246.44 1062.09 247.907 1059.05 246.097Z" fill="#535456"/>
<path d="M1058.65 243.813C1056.73 242.674 1055.19 239.903 1055.19 237.625C1055.19 235.347 1056.73 234.423 1058.65 235.562C1060.56 236.702 1062.11 239.472 1062.11 241.751C1062.11 244.029 1060.56 244.952 1058.65 243.813Z" fill="#D1D1D1"/>
<path d="M1058.65 241.387C1057.86 240.918 1057.22 239.777 1057.22 238.839C1057.22 237.9 1057.86 237.52 1058.65 237.989C1059.43 238.458 1060.07 239.599 1060.07 240.537C1060.07 241.475 1059.43 241.856 1058.65 241.387Z" fill="#3A3A3A"/>
<path d="M1121.98 275.1C1121.98 277.879 1123.87 281.258 1126.2 282.647C1128.53 284.037 1128.23 283.787 1130.89 281.366C1131.04 278.46 1128.53 273.973 1126.2 272.584C1123.87 271.194 1121.98 272.321 1121.98 275.1Z" fill="#4C4C4C"/>
<path d="M1125.4 272.38C1124.85 272.24 1122.92 272.716 1121.94 274.061" stroke="#363636" stroke-width="0.307346"/>
<path d="M1128.98 287.386C1129.61 287.55 1131.79 286.751 1132.8 284.779" stroke="#363636" stroke-width="0.307346"/>
<path d="M1122.35 276.2C1122.35 279.818 1124.81 284.218 1127.84 286.028C1130.88 287.837 1130.49 287.511 1133.95 284.359C1134.15 280.575 1130.88 274.733 1127.84 272.924C1124.81 271.114 1122.35 272.581 1122.35 276.2Z" fill="#363636"/>
<path d="M1126.21 286.868C1123.18 285.059 1120.72 280.658 1120.72 277.04C1120.72 273.421 1123.18 271.954 1126.21 273.764C1129.25 275.573 1131.71 279.973 1131.71 283.592C1131.71 287.21 1129.25 288.677 1126.21 286.868Z" fill="#535456"/>
<path d="M1125.8 284.584C1123.89 283.445 1122.35 280.674 1122.35 278.396C1122.35 276.118 1123.89 275.194 1125.8 276.333C1127.72 277.472 1129.26 280.243 1129.26 282.521C1129.26 284.8 1127.72 285.723 1125.8 284.584Z" fill="#D1D1D1"/>
<path d="M1125.81 282.158C1125.02 281.688 1124.38 280.548 1124.38 279.609C1124.38 278.671 1125.02 278.291 1125.81 278.76C1126.59 279.229 1127.23 280.37 1127.23 281.308C1127.23 282.246 1126.59 282.627 1125.81 282.158Z" fill="#3A3A3A"/>
<path d="M1108.39 225.033L1049.98 190.777V230.287L1107.78 264.542L1108.39 225.033Z" fill="#C2CCDA"/>
<path d="M1147.86 283.868L1152.54 280.997V283.805L1147.86 286.677V283.868Z" fill="#DE9753"/>
<path d="M1164.28 274.201L1168.96 271.329V274.138L1164.28 277.009V274.201Z" fill="#DE9753"/>
<path d="M1154.62 280.13L1162.92 275.03V277.838L1154.62 282.938V280.13Z" fill="#C4C4C4"/>
<path d="M1122.56 261.242L1126.63 263.742V265.423L1122.56 262.923V261.242Z" fill="#898989"/>
<path d="M1127.44 262.923V255.778L1126.22 254.937V262.083L1127.44 262.923Z" fill="#3A3A3A"/>
<path d="M1129.07 253.256L1130.29 254.096L1127.44 255.778L1126.22 254.937L1129.07 253.256Z" fill="#303133"/>
<path d="M1127.44 255.778L1130.29 254.096V261.242L1127.44 262.923V255.778Z" fill="#525357"/>
</g>
<defs>
<linearGradient id="paint0_linear" x1="1116.25" y1="233.92" x2="1098.96" y2="263.073" gradientUnits="userSpaceOnUse">
<stop stop-color="#2B4499"/>
<stop offset="0.749464" stop-color="#2B4499"/>
<stop offset="0.75" stop-color="#404143"/>
<stop offset="1" stop-color="#404143"/>
</linearGradient>
<linearGradient id="paint1_linear" x1="1132.53" y1="220.681" x2="1166.91" y2="278.783" gradientUnits="userSpaceOnUse">
<stop stop-color="#3F5CC2"/>
<stop offset="0.234175" stop-color="#405DC2"/>
<stop offset="0.234275" stop-color="#A3A3A3"/>
<stop offset="0.234375" stop-color="#293B7A"/>
<stop offset="0.552083" stop-color="#2A3C7B"/>
<stop offset="0.552183" stop-color="#3F5CC2"/>
<stop offset="0.804454" stop-color="#405DC2"/>
<stop offset="0.810077" stop-color="#415EC2"/>
<stop offset="0.814339" stop-color="#293B7A"/>
<stop offset="0.865219" stop-color="#2A3C7B"/>
<stop offset="0.867454" stop-color="#535456"/>
<stop offset="1" stop-color="#525356"/>
</linearGradient>
<linearGradient id="paint2_linear" x1="1152.27" y1="236.863" x2="1112.98" y2="233.708" gradientUnits="userSpaceOnUse">
<stop stop-color="#A0B3F6"/>
<stop offset="0.192159" stop-color="#A0B3F7"/>
<stop offset="0.195181" stop-color="#607AD6"/>
<stop offset="0.886167" stop-color="#607AD6"/>
<stop offset="0.887989" stop-color="#A0B3F7"/>
<stop offset="0.997653" stop-color="#A0B3F7"/>
</linearGradient>
<linearGradient id="paint3_linear" x1="1152.27" y1="236.863" x2="1112.98" y2="233.708" gradientUnits="userSpaceOnUse">
<stop stop-color="#A0B3F6"/>
<stop offset="0.192159" stop-color="#A0B3F7"/>
<stop offset="0.195181" stop-color="#607AD6"/>
<stop offset="0.886167" stop-color="#607AD6"/>
<stop offset="0.887989" stop-color="#A0B3F7"/>
<stop offset="0.997653" stop-color="#A0B3F7"/>
</linearGradient>
<clipPath id="clip0">
<rect width="562" height="484.091" fill="white" transform="translate(834 150.833)"/>
</clipPath>
</defs>
</svg>
