<svg width="235" height="71" viewBox="0 0 235 71" fill="none" xmlns="http://www.w3.org/2000/svg">
<path d="M54.6 32.164L50.92 32.164L50.92 47.3L48.008 47.3L48.008 32.164L45.736 32.164L45.736 29.764L48.008 29.764L48.008 28.516C48.008 26.5533 48.5093 25.124 49.512 24.228C50.536 23.3107 52.168 22.852 54.408 22.852L54.408 25.284C53.128 25.284 52.2213 25.54 51.688 26.052C51.176 26.5427 50.92 27.364 50.92 28.516L50.92 29.764L54.6 29.764L54.6 32.164ZM58.9873 23.62L58.9873 47.3L56.0753 47.3L56.0753 23.62L58.9873 23.62ZM78.0303 37.86C78.0303 38.4147 77.9983 39.0013 77.9343 39.62L63.9183 39.62C64.0249 41.348 64.6116 42.7027 65.6783 43.684C66.7663 44.644 68.0783 45.124 69.6143 45.124C70.8729 45.124 71.9183 44.836 72.7503 44.26C73.6036 43.6627 74.2009 42.8733 74.5423 41.892L77.6783 41.892C77.2089 43.5773 76.2703 44.9533 74.8623 46.02C73.4543 47.0653 71.7049 47.588 69.6143 47.588C67.9503 47.588 66.4569 47.2147 65.1343 46.468C63.8329 45.7213 62.8089 44.6653 62.0623 43.3C61.3156 41.9133 60.9423 40.3133 60.9423 38.5C60.9423 36.6867 61.3049 35.0973 62.0303 33.732C62.7556 32.3667 63.7689 31.3213 65.0703 30.596C66.3929 29.8493 67.9076 29.476 69.6143 29.476C71.2783 29.476 72.7503 29.8387 74.0303 30.564C75.3103 31.2893 76.2916 32.292 76.9743 33.572C77.6783 34.8307 78.0303 36.26 78.0303 37.86ZM75.0223 37.252C75.0223 36.1427 74.7769 35.1933 74.2863 34.404C73.7956 33.5933 73.1236 32.9853 72.2703 32.58C71.4383 32.1533 70.5103 31.94 69.4863 31.94C68.0143 31.94 66.7556 32.4093 65.7103 33.348C64.6863 34.2867 64.0996 35.588 63.9503 37.252L75.0223 37.252ZM95.954 37.86C95.954 38.4147 95.922 39.0013 95.858 39.62L81.842 39.62C81.9487 41.348 82.5353 42.7027 83.602 43.684C84.69 44.644 86.002 45.124 87.538 45.124C88.7967 45.124 89.842 44.836 90.674 44.26C91.5273 43.6627 92.1247 42.8733 92.466 41.892L95.602 41.892C95.1327 43.5773 94.194 44.9533 92.786 46.02C91.378 47.0653 89.6287 47.588 87.538 47.588C85.874 47.588 84.3807 47.2147 83.058 46.468C81.7567 45.7213 80.7327 44.6653 79.986 43.3C79.2393 41.9133 78.866 40.3133 78.866 38.5C78.866 36.6867 79.2287 35.0973 79.954 33.732C80.6793 32.3667 81.6927 31.3213 82.994 30.596C84.3167 29.8493 85.8313 29.476 87.538 29.476C89.202 29.476 90.674 29.8387 91.954 30.564C93.234 31.2893 94.2153 32.292 94.898 33.572C95.602 34.8307 95.954 36.26 95.954 37.86ZM92.946 37.252C92.946 36.1427 92.7007 35.1933 92.21 34.404C91.7193 33.5933 91.0473 32.9853 90.194 32.58C89.362 32.1533 88.434 31.94 87.41 31.94C85.938 31.94 84.6793 32.4093 83.634 33.348C82.61 34.2867 82.0233 35.588 81.874 37.252L92.946 37.252ZM101.43 32.164L101.43 42.5C101.43 43.3533 101.611 43.9613 101.974 44.324C102.336 44.6653 102.966 44.836 103.862 44.836L106.006 44.836L106.006 47.3L103.382 47.3C101.76 47.3 100.544 46.9267 99.7338 46.18C98.9231 45.4333 98.5178 44.2067 98.5178 42.5L98.5177 32.164L96.2457 32.164L96.2457 29.764L98.5177 29.764L98.5177 25.348L101.43 25.348L101.43 29.764L106.006 29.764L106.006 32.164L101.43 32.164ZM130.225 37.86C130.225 38.4147 130.193 39.0013 130.129 39.62L116.113 39.62C116.22 41.348 116.807 42.7027 117.873 43.684C118.961 44.644 120.273 45.124 121.809 45.124C123.068 45.124 124.113 44.836 124.945 44.26C125.799 43.6627 126.396 42.8733 126.737 41.892L129.873 41.892C129.404 43.5773 128.465 44.9533 127.057 46.02C125.649 47.0653 123.9 47.588 121.809 47.588C120.145 47.588 118.652 47.2147 117.329 46.468C116.028 45.7213 115.004 44.6653 114.257 43.3C113.511 41.9133 113.137 40.3133 113.137 38.5C113.137 36.6867 113.5 35.0973 114.225 33.732C114.951 32.3667 115.964 31.3213 117.265 30.596C118.588 29.8493 120.103 29.476 121.809 29.476C123.473 29.476 124.945 29.8387 126.225 30.564C127.505 31.2893 128.487 32.292 129.169 33.572C129.873 34.8307 130.225 36.26 130.225 37.86ZM127.217 37.252C127.217 36.1427 126.972 35.1933 126.481 34.404C125.991 33.5933 125.319 32.9853 124.465 32.58C123.633 32.1533 122.705 31.94 121.681 31.94C120.209 31.94 118.951 32.4093 117.905 33.348C116.881 34.2867 116.295 35.588 116.145 37.252L127.217 37.252ZM140.693 29.444C142.826 29.444 144.554 30.0947 145.877 31.396C147.2 32.676 147.861 34.532 147.861 36.964L147.861 47.3L144.981 47.3L144.981 37.38C144.981 35.6307 144.544 34.2973 143.669 33.38C142.794 32.4413 141.6 31.972 140.085 31.972C138.549 31.972 137.322 32.452 136.405 33.412C135.509 34.372 135.061 35.7693 135.061 37.604L135.061 47.3L132.149 47.3L132.149 29.764L135.061 29.764L135.061 32.26C135.637 31.364 136.416 30.6707 137.397 30.18C138.4 29.6893 139.498 29.444 140.693 29.444ZM149.61 38.468C149.61 36.676 149.972 35.108 150.698 33.764C151.423 32.3987 152.415 31.3427 153.674 30.596C154.954 29.8493 156.372 29.476 157.93 29.476C159.466 29.476 160.799 29.8067 161.93 30.468C163.06 31.1293 163.903 31.9613 164.458 32.964L164.458 29.764L167.402 29.764L167.402 47.3L164.458 47.3L164.458 44.036C163.882 45.06 163.018 45.9133 161.866 46.596C160.735 47.2573 159.412 47.588 157.898 47.588C156.34 47.588 154.932 47.204 153.674 46.436C152.415 45.668 151.423 44.5907 150.698 43.204C149.972 41.8173 149.61 40.2387 149.61 38.468ZM164.458 38.5C164.458 37.1773 164.191 36.0253 163.658 35.044C163.124 34.0627 162.399 33.316 161.482 32.804C160.586 32.2707 159.594 32.004 158.506 32.004C157.418 32.004 156.426 32.26 155.53 32.772C154.634 33.284 153.919 34.0307 153.386 35.012C152.852 35.9933 152.586 37.1453 152.586 38.468C152.586 39.812 152.852 40.9853 153.386 41.988C153.919 42.9693 154.634 43.7267 155.53 44.26C156.426 44.772 157.418 45.028 158.506 45.028C159.594 45.028 160.586 44.772 161.482 44.26C162.399 43.7267 163.124 42.9693 163.658 41.988C164.191 40.9853 164.458 39.8227 164.458 38.5ZM173.315 33.028C173.912 31.9827 174.787 31.1293 175.939 30.468C177.091 29.8067 178.403 29.476 179.875 29.476C181.453 29.476 182.872 29.8493 184.131 30.596C185.389 31.3427 186.381 32.3987 187.107 33.764C187.832 35.108 188.195 36.676 188.195 38.468C188.195 40.2387 187.832 41.8173 187.107 43.204C186.381 44.5907 185.379 45.668 184.099 46.436C182.84 47.204 181.432 47.588 179.875 47.588C178.36 47.588 177.027 47.2573 175.875 46.596C174.744 45.9347 173.891 45.092 173.315 44.068L173.315 47.3L170.403 47.3L170.403 23.62L173.315 23.62L173.315 33.028ZM185.219 38.468C185.219 37.1453 184.952 35.9933 184.419 35.012C183.885 34.0307 183.16 33.284 182.243 32.772C181.347 32.26 180.355 32.004 179.267 32.004C178.2 32.004 177.208 32.2707 176.291 32.804C175.395 33.316 174.669 34.0733 174.115 35.076C173.581 36.0573 173.315 37.1987 173.315 38.5C173.315 39.8227 173.581 40.9853 174.115 41.988C174.669 42.9693 175.395 43.7267 176.291 44.26C177.208 44.772 178.2 45.028 179.267 45.028C180.355 45.028 181.347 44.772 182.243 44.26C183.16 43.7267 183.885 42.9693 184.419 41.988C184.952 40.9853 185.219 39.812 185.219 38.468ZM193.02 23.62L193.02 47.3L190.108 47.3L190.108 23.62L193.02 23.62ZM212.063 37.86C212.063 38.4147 212.031 39.0013 211.967 39.62L197.951 39.62C198.057 41.348 198.644 42.7027 199.711 43.684C200.799 44.644 202.111 45.124 203.647 45.124C204.905 45.124 205.951 44.836 206.783 44.26C207.636 43.6627 208.233 42.8733 208.575 41.892L211.711 41.892C211.241 43.5773 210.303 44.9533 208.895 46.02C207.487 47.0653 205.737 47.588 203.647 47.588C201.983 47.588 200.489 47.2147 199.167 46.468C197.865 45.7213 196.841 44.6653 196.095 43.3C195.348 41.9133 194.975 40.3133 194.975 38.5C194.975 36.6867 195.337 35.0973 196.063 33.732C196.788 32.3667 197.801 31.3213 199.103 30.596C200.425 29.8493 201.94 29.476 203.647 29.476C205.311 29.476 206.783 29.8387 208.063 30.564C209.343 31.2893 210.324 32.292 211.007 33.572C211.711 34.8307 212.063 36.26 212.063 37.86ZM209.055 37.252C209.055 36.1427 208.809 35.1933 208.319 34.404C207.828 33.5933 207.156 32.9853 206.303 32.58C205.471 32.1533 204.543 31.94 203.519 31.94C202.047 31.94 200.788 32.4093 199.743 33.348C198.719 34.2867 198.132 35.588 197.983 37.252L209.055 37.252Z" fill="#607AD6"/>
<path d="M36.2203 26.4876C38.0041 30.1598 38.4748 39.4681 38.6341 47.3928L22.9379 33.8148L25.7442 32.3466C25.7442 32.3466 26.0619 34.0707 31.6602 34.0631C33.4803 31.5642 34.2752 29.6017 33.4281 27.9827C32.7364 26.6606 29.9208 26.1402 27.6226 26.3459C26.2407 28.2375 25.1196 30.2332 25.7109 32.0203L22.7968 33.545C20.665 29.4705 22.2841 25.6676 26.0722 23.5139C30.7133 21.0857 34.6533 23.4924 36.2203 26.4876Z" fill="#FFBA07"/>
<path d="M26.1174 23.4686L27.6233 26.347C25.8712 28.8447 25.239 30.7333 25.7116 32.0214C26.604 33.9132 27.8736 33.7128 31.6618 34.0563L33.722 38.0038L38.6348 47.3939C30.9765 41.7359 24.9061 37.2889 22.7974 33.546C20.3896 29.2723 22.6601 25.3349 26.1174 23.4686Z" fill="#DC9F03"/>
</svg>
