<svg width="1440" height="750" viewBox="0 0 1440 750" fill="none" xmlns="http://www.w3.org/2000/svg">
<path d="M-1 525.216C-1 525.216 1193.14 1030.98 1439 525.216C1558.51 279.359 1439 -174.784 1439 -174.784H-1V525.216Z" fill="#607AD6"/>
<path d="M1153.67 610.669L1276.02 539.997C1279.05 538.256 1279.05 535.429 1276.02 533.687L1143.42 457.172C1141.73 456.313 1139.86 455.865 1137.96 455.865C1136.06 455.865 1134.19 456.313 1132.49 457.172L1010.08 527.844C1007.06 529.586 1007.06 532.4 1010.08 534.154L1142.74 610.669C1144.43 611.528 1146.31 611.976 1148.21 611.976C1150.1 611.976 1151.98 611.528 1153.67 610.669Z" fill="#E0E0E0"/>
<path d="M943.156 604.902C911.339 604.902 885.546 590.008 885.546 571.636C885.546 553.263 911.339 538.369 943.156 538.369C974.974 538.369 1000.77 553.263 1000.77 571.636C1000.77 590.008 974.974 604.902 943.156 604.902Z" fill="#E0E0E0"/>
<path d="M1350.68 579.801L1401.97 550.194C1404.86 548.528 1404.86 545.815 1401.97 544.149L1103.65 371.911C1102.02 371.09 1100.23 370.662 1098.41 370.662C1096.59 370.662 1094.79 371.09 1093.17 371.911L1041.88 401.518C1038.99 403.196 1038.99 405.897 1041.88 407.563L1340.21 579.801C1341.83 580.628 1343.62 581.06 1345.44 581.06C1347.26 581.06 1349.06 580.628 1350.68 579.801Z" fill="#E0E0E0"/>
<path d="M1166.33 521.168L1122.23 495.676C1117.69 493.051 1115.42 489.606 1115.42 486.173C1115.42 482.74 1115.42 480.04 1115.42 480.04L1161.17 454.244C1162.44 453.414 1163.5 452.296 1164.26 450.981C1165.03 449.666 1165.47 448.19 1165.56 446.672V399.612L1242.54 444.11V491.145C1242.45 492.663 1242.01 494.139 1241.25 495.454C1240.48 496.769 1239.42 497.887 1238.15 498.717L1199.23 521.143C1190.16 526.418 1175.42 526.418 1166.33 521.168Z" fill="#263238"/>
<path d="M1224.05 500.761V506.869L1238.17 498.742C1239.45 497.91 1240.5 496.792 1241.26 495.477C1242.02 494.162 1242.47 492.687 1242.55 491.17V444.11L1227.89 435.642C1227.57 439.365 1227.25 443.214 1226.94 447L1237.23 452.957V488.091C1237.15 489.609 1236.71 491.085 1235.95 492.401C1235.18 493.717 1234.12 494.835 1232.85 495.663L1224.05 500.761Z" fill="black"/>
<path d="M1237.24 488.078C1237.15 489.597 1236.71 491.074 1235.95 492.389C1235.19 493.705 1234.12 494.822 1232.85 495.65L1199.25 515.009C1190.16 520.259 1175.41 520.259 1166.33 515.009L1122.22 489.517C1113.12 484.28 1113.12 475.774 1122.22 470.587L1155.84 451.215C1157.12 450.386 1158.18 449.269 1158.94 447.953C1159.7 446.638 1160.15 445.162 1160.23 443.643V408.434L1237.21 452.932L1237.24 488.078Z" fill="#455A64"/>
<path d="M1146.89 456.352L1155.83 451.19C1157.1 450.361 1158.16 449.244 1158.93 447.928C1159.69 446.613 1160.13 445.136 1160.22 443.618V408.434L1237.2 452.932V488.078C1237.12 489.597 1236.67 491.074 1235.91 492.389C1235.15 493.705 1234.09 494.822 1232.81 495.65L1223.98 500.698L1146.89 456.352Z" fill="#37474F"/>
<path d="M1115.41 480.039V486.198C1115.41 489.643 1117.69 493.063 1122.22 495.7L1166.32 521.155C1171.15 523.738 1176.55 525.078 1182.03 525.055V519.01C1176.55 519.033 1171.15 517.693 1166.32 515.11L1122.22 489.605C1117.67 486.93 1115.41 483.484 1115.41 480.039Z" fill="#37474F"/>
<path d="M1360.89 540.88C1359.23 541.685 1357.4 542.086 1355.55 542.051C1353.7 542.016 1351.88 541.546 1350.25 540.678L1052.42 368.731C1050.82 367.691 1049.49 366.288 1048.54 364.637C1047.58 362.986 1047.03 361.132 1046.93 359.228V125.619C1046.99 123.776 1047.49 121.974 1048.37 120.358C1049.26 118.742 1050.52 117.358 1052.04 116.318C1053.7 115.514 1055.53 115.113 1057.38 115.148C1059.23 115.183 1061.04 115.653 1062.67 116.52L1360.5 288.468C1362.1 289.507 1363.42 290.908 1364.37 292.557C1365.33 294.206 1365.88 296.057 1365.98 297.958V531.63C1365.91 533.461 1365.41 535.251 1364.53 536.856C1363.64 538.462 1362.4 539.84 1360.89 540.88Z" fill="#455A64"/>
<path d="M1350.25 540.666L1052.42 368.731C1050.83 367.689 1049.5 366.285 1048.55 364.634C1047.59 362.983 1047.05 361.131 1046.94 359.228V125.619C1046.94 122.123 1049.39 120.697 1052.42 122.452L1350.25 294.374C1351.85 295.415 1353.18 296.818 1354.13 298.469C1355.09 300.12 1355.64 301.973 1355.74 303.877V537.473C1355.74 541.006 1353.28 542.42 1350.25 540.666Z" fill="#37474F"/>
<path d="M1351.06 546.938C1352.62 547.608 1354.3 547.936 1356 547.901C1357.69 547.866 1359.36 547.469 1360.89 546.736C1362.42 545.694 1363.68 544.307 1364.58 542.687C1365.47 541.067 1365.97 539.259 1366.04 537.41V522.796L1355.74 528.753V543.366C1355.74 546.559 1353.66 548.036 1351.06 546.938Z" fill="#37474F"/>
<path d="M1355.74 528.753V543.354C1355.74 546.85 1353.22 548.276 1350.25 546.522L1052.42 374.574C1050.83 373.524 1049.51 372.114 1048.57 370.458C1047.63 368.803 1047.09 366.949 1046.99 365.046V350.419L1355.74 528.753Z" fill="#455A64"/>
<path d="M1345.44 501.228V307.309C1345.38 306.169 1345.05 305.059 1344.48 304.07C1343.91 303.081 1343.11 302.241 1342.15 301.618L1060.54 139.022C1058.72 137.974 1057.24 138.82 1057.24 140.915V334.834C1057.3 335.977 1057.63 337.089 1058.21 338.08C1058.78 339.071 1059.58 339.913 1060.54 340.538L1342.16 503.134C1343.98 504.181 1345.44 503.323 1345.44 501.228Z" fill="#607AD6"/>
<path d="M1345.44 501.228V307.309C1345.38 306.169 1345.05 305.059 1344.48 304.07C1343.91 303.081 1343.11 302.241 1342.15 301.618L1060.54 139.022C1058.72 137.974 1057.24 138.82 1057.24 140.915V334.834C1057.3 335.977 1057.63 337.089 1058.21 338.08C1058.78 339.071 1059.58 339.913 1060.54 340.538L1342.16 503.134C1343.98 504.181 1345.44 503.323 1345.44 501.228Z" fill="#607AD6"/>
<path opacity="0.8" d="M1345.44 501.228V307.309C1345.38 306.169 1345.05 305.059 1344.48 304.07C1343.91 303.081 1343.11 302.241 1342.15 301.618L1060.54 139.022C1058.72 137.974 1057.24 138.82 1057.24 140.915V334.834C1057.3 335.977 1057.63 337.089 1058.21 338.08C1058.78 339.071 1059.58 339.913 1060.54 340.538L1342.16 503.134C1343.98 504.181 1345.44 503.323 1345.44 501.228Z" fill="white"/>
<path d="M1201.35 445.044C1202.67 445.91 1203.76 447.072 1204.55 448.438C1205.33 449.803 1205.79 451.333 1205.88 452.906C1205.88 455.796 1203.85 456.97 1201.35 455.519C1200.03 454.661 1198.93 453.503 1198.14 452.139C1197.35 450.775 1196.89 449.243 1196.81 447.669C1196.81 444.766 1198.84 443.593 1201.35 445.044Z" fill="#BA68C8"/>
<path d="M1354.13 298.475C1355.1 300.12 1355.66 301.979 1355.74 303.889V528.752L1366.04 522.796V297.958C1365.97 296.045 1365.42 294.181 1364.42 292.544L1354.13 298.475Z" fill="#263238"/>
<path d="M1288.04 318.541L1119.71 221.367L1112.97 225.254C1112.05 225.857 1111.28 226.668 1110.73 227.622C1110.18 228.575 1109.87 229.645 1109.8 230.744V354.95C1109.87 356.047 1110.18 357.115 1110.73 358.066C1111.28 359.018 1112.05 359.827 1112.97 360.427L1275.03 453.916C1276.01 454.404 1277.09 454.658 1278.18 454.658C1279.28 454.658 1280.35 454.404 1281.34 453.916L1284.91 451.846C1285.83 451.246 1286.59 450.437 1287.14 449.486C1287.69 448.534 1288.01 447.467 1288.07 446.369L1288.04 318.541Z" fill="#F2B107"/>
<path opacity="0.2" d="M1288.04 318.541L1119.71 221.367L1112.97 225.254C1112.05 225.857 1111.28 226.668 1110.73 227.622C1110.18 228.575 1109.87 229.645 1109.8 230.744V354.95C1109.87 356.047 1110.18 357.115 1110.73 358.066C1111.28 359.018 1112.05 359.827 1112.97 360.427L1275.03 453.916C1276.01 454.404 1277.09 454.658 1278.18 454.658C1279.28 454.658 1280.35 454.404 1281.34 453.916L1284.91 451.846C1285.83 451.246 1286.59 450.437 1287.14 449.486C1287.69 448.534 1288.01 447.467 1288.07 446.369L1288.04 318.541Z" fill="black"/>
<path d="M1120.69 210.438L1120.01 210.06L1122.63 208.545C1122.85 208.418 1123.08 208.309 1123.32 208.217L1197.4 180.794C1198.42 180.464 1199.52 180.461 1200.54 180.787C1201.56 181.113 1202.45 181.751 1203.09 182.611L1285.95 303.587C1287.25 305.67 1287.99 308.051 1288.1 310.502V318.541L1285.57 320.03L1119.82 221.355V213.316C1119.84 212.294 1120.14 211.296 1120.69 210.438Z" fill="#FFBA07"/>
<path opacity="0.1" d="M1199.7 183.154C1200.03 183.412 1200.31 183.719 1200.55 184.063L1283.43 305.076C1284.11 306.146 1284.63 307.311 1284.97 308.534L1287.49 307.045C1287.31 306.422 1287.08 305.811 1286.82 305.215C1286.71 304.962 1286.6 304.722 1286.47 304.483V304.369C1286.34 304.116 1286.19 303.871 1286.03 303.637L1203.17 182.624C1203.04 182.445 1202.9 182.276 1202.75 182.119L1202.31 181.715L1199.7 183.154Z" fill="black"/>
<path opacity="0.35" d="M1120.04 210.047C1120.26 209.911 1120.5 209.797 1120.74 209.706L1194.84 182.245C1195.65 181.974 1196.52 181.916 1197.37 182.075C1198.21 182.234 1199 182.605 1199.66 183.154L1202.18 181.665C1201.52 181.121 1200.73 180.753 1199.88 180.594C1199.04 180.436 1198.17 180.491 1197.35 180.756L1123.27 208.205C1123.03 208.295 1122.79 208.409 1122.57 208.545L1120.04 210.047Z" fill="white"/>
<path d="M1286.4 304.318C1286.26 304.067 1286.11 303.822 1285.95 303.586C1286.11 303.822 1286.26 304.067 1286.4 304.318Z" fill="#BA68C8"/>
<path d="M1202.67 182.056L1202.23 181.652L1202.67 182.056Z" fill="#BA68C8"/>
<path d="M1287.51 307.057C1287.32 306.43 1287.1 305.814 1286.84 305.214C1287.1 305.814 1287.32 306.43 1287.51 307.057Z" fill="#BA68C8"/>
<path d="M1286.77 305.164C1286.66 304.912 1286.55 304.672 1286.42 304.432C1286.59 304.672 1286.7 304.912 1286.77 305.164Z" fill="#BA68C8"/>
<path opacity="0.2" d="M1286.46 304.47C1286.46 304.432 1286.46 304.394 1286.46 304.356C1286.46 304.394 1286.46 304.432 1286.46 304.47Z" fill="black"/>
<path opacity="0.2" d="M1203.09 182.573C1202.96 182.396 1202.82 182.228 1202.67 182.068C1202.82 182.228 1202.96 182.396 1203.09 182.573Z" fill="black"/>
<path d="M1200.52 184.062L1283.39 305.076C1284.68 307.178 1285.41 309.577 1285.51 312.042V320.081L1117.19 222.907V214.868C1117.25 213.779 1117.61 212.729 1118.24 211.836C1118.86 210.944 1119.73 210.245 1120.73 209.82L1194.84 182.258C1195.85 181.917 1196.95 181.908 1197.97 182.233C1198.99 182.557 1199.88 183.198 1200.52 184.062Z" fill="#FFBA07"/>
<path opacity="0.05" d="M1117.2 214.868C1117.23 213.861 1117.54 212.883 1118.09 212.041L1284.93 308.597C1285.29 309.712 1285.48 310.872 1285.51 312.042V320.081L1117.19 222.907L1117.2 214.868Z" fill="black"/>
<path d="M1213.44 335.338C1210.03 343.396 1208.27 352.056 1208.28 360.806V365.715L1271.15 398.527V322.958C1271.15 321.501 1270.99 320.049 1270.66 318.63C1270.53 318.074 1270.37 317.532 1270.2 316.989L1269.93 316.181C1269.63 315.382 1269.28 314.606 1268.87 313.859C1268.19 312.609 1267.38 311.44 1266.44 310.376C1266.18 310.061 1265.89 309.758 1265.6 309.467C1265.31 309.177 1264.99 308.887 1264.68 308.609C1261.67 305.95 1257.9 304.304 1253.9 303.903C1249.9 303.503 1245.88 304.367 1242.4 306.376C1242.4 306.376 1241.29 305.921 1239.25 305.114C1230.08 310.812 1222.46 318.678 1217.06 328.019C1215.71 330.384 1214.5 332.828 1213.44 335.338Z" fill="#E0E0E0"/>
<path d="M1011.52 528.791L1148.19 607.88V600.46L1011.53 521.37L1011.52 528.791Z" fill="#F5F5F5"/>
<path d="M1213.44 335.339C1214.5 332.832 1215.71 330.392 1217.06 328.032C1218.06 326.307 1219.14 324.624 1220.29 322.984C1220.61 322.529 1220.94 322.075 1221.28 321.633C1221.62 321.191 1221.88 320.813 1222.2 320.371C1222.51 319.929 1222.73 319.69 1223.01 319.362L1223.27 319.033L1224.3 317.771C1224.45 317.582 1224.61 317.401 1224.78 317.229C1225.05 316.913 1225.34 316.598 1225.62 316.295C1226.25 315.601 1226.88 314.919 1227.57 314.276C1227.95 313.885 1228.33 313.506 1228.72 313.153C1228.83 313.037 1228.94 312.927 1229.06 312.824L1230.12 311.853C1230.54 311.474 1230.96 311.108 1231.38 310.755C1231.81 310.401 1232.08 310.162 1232.44 309.871C1232.61 309.718 1232.79 309.575 1232.97 309.442C1233.38 309.114 1233.8 308.799 1234.24 308.483C1234.68 308.168 1235.31 307.675 1235.86 307.221C1236.42 306.767 1236.99 306.426 1237.56 306.06L1239.27 304.95L1239.6 304.748L1241.08 303.864C1241.52 303.612 1241.97 303.372 1242.41 303.158C1243.18 302.786 1243.97 302.453 1244.77 302.161C1245.65 301.852 1246.54 301.595 1247.45 301.391L1248.35 301.214C1249.54 301.013 1250.75 300.912 1251.96 300.911H1252.93C1253.4 300.923 1253.88 300.961 1254.35 301.025L1255.15 301.126L1255.67 301.201C1255.87 301.227 1256.06 301.265 1256.26 301.315H1256.33L1257.22 301.517C1257.44 301.568 1257.67 301.631 1257.89 301.706L1258.23 301.807C1258.46 301.874 1258.7 301.95 1258.95 302.034C1259.59 302.241 1260.22 302.485 1260.84 302.766C1261.22 302.93 1261.6 303.12 1261.98 303.309C1262.09 303.355 1262.2 303.414 1262.3 303.486C1262.51 303.587 1262.72 303.7 1262.92 303.826L1263.52 304.192C1264.24 304.634 1264.94 305.119 1265.61 305.644C1265.61 305.644 1265.69 305.707 1265.71 305.732C1266.05 306.01 1266.39 306.287 1266.73 306.603L1267.44 307.272C1267.58 307.398 1267.71 307.537 1267.83 307.663C1268.46 308.318 1269.04 309.009 1269.59 309.733C1269.81 310.035 1270.03 310.338 1270.23 310.654C1270.43 310.969 1270.71 311.386 1270.94 311.777C1271.16 312.144 1271.37 312.524 1271.55 312.913C1271.82 313.43 1272.06 313.961 1272.27 314.503C1272.37 314.755 1272.49 315.02 1272.58 315.298C1272.66 315.576 1272.66 315.538 1272.7 315.651C1272.84 316.055 1272.96 316.459 1273.07 316.913C1273.18 317.368 1273.28 317.721 1273.36 318.175C1273.43 318.45 1273.48 318.728 1273.52 319.008C1273.53 319.113 1273.53 319.219 1273.52 319.324C1273.52 319.601 1273.61 319.866 1273.64 320.131C1273.66 320.396 1273.71 320.851 1273.72 321.217C1273.74 321.583 1273.72 322.214 1273.72 322.731V383.017H1267.24V322.971C1267.24 320.271 1266.53 317.618 1265.19 315.278C1263.84 312.939 1261.9 310.997 1259.56 309.646C1257.22 308.296 1254.57 307.586 1251.87 307.588C1249.17 307.59 1246.52 308.304 1244.18 309.657C1233.27 315.987 1224.65 325.633 1219.6 337.194L1211.9 339.024C1212.45 337.787 1212.93 336.55 1213.44 335.339Z" fill="#EBEBEB"/>
<path d="M1114.13 356.553C1114.18 356.643 1114.24 356.727 1114.31 356.805L1184.46 334.569C1187.13 333.392 1190.12 333.215 1192.9 334.071C1195.69 334.926 1198.07 336.756 1199.61 339.226L1274.6 450.685L1277.37 452.288C1277.68 452.504 1278.04 452.639 1278.41 452.681C1278.79 452.723 1279.17 452.67 1279.52 452.528L1202.4 337.686C1200.85 335.223 1198.47 333.396 1195.69 332.539C1192.91 331.682 1189.92 331.852 1187.25 333.017L1114.13 356.553Z" fill="#BA68C8"/>
<path opacity="0.4" d="M1206.52 350.167L1206.35 350.016L1274.61 450.685L1277.38 452.288C1277.7 452.501 1278.05 452.634 1278.43 452.676C1278.8 452.718 1279.18 452.667 1279.53 452.528L1209.2 348.539L1206.52 350.167Z" fill="white"/>
<path opacity="0.4" d="M1114.13 356.553C1114.18 356.643 1114.24 356.727 1114.31 356.805L1184.46 334.556C1187.13 333.378 1190.13 333.202 1192.91 334.06C1195.69 334.918 1198.07 336.752 1199.61 339.226L1202.38 337.61C1200.84 335.147 1198.46 333.323 1195.68 332.47C1192.9 331.618 1189.9 331.794 1187.24 332.966L1114.13 356.553Z" fill="white"/>
<path d="M1109.93 229.936C1110.08 229.028 1110.56 228.775 1111.19 229.204C1111.5 229.437 1111.78 229.718 1112 230.037L1112.35 230.529L1181.57 335.768L1191.91 350.167C1192.57 351.006 1193.46 351.648 1194.46 352.024C1195.46 352.4 1196.55 352.495 1197.6 352.3L1206.52 350.18L1274.67 325.104C1275.13 325.01 1275.6 325.01 1276.06 325.104C1276.24 325.14 1276.41 325.195 1276.58 325.268L1274.05 323.779L1208.76 347.757L1200.16 350.836C1199.11 351.034 1198.02 350.94 1197.02 350.564C1196.02 350.188 1195.14 349.544 1194.47 348.703L1184.14 334.316L1114.57 228.586C1114.36 228.298 1114.1 228.054 1113.79 227.867L1119.81 224.396L1117.29 222.945L1113.12 225.343C1112.31 225.857 1111.61 226.529 1111.06 227.318C1110.52 228.106 1110.13 228.997 1109.93 229.936Z" fill="#FFBA07"/>
<path opacity="0.4" d="M1181.57 335.755L1191.91 350.154C1192.57 350.993 1193.46 351.635 1194.46 352.011C1195.46 352.387 1196.55 352.482 1197.6 352.287L1206.52 350.167L1206.35 350.015L1205.92 349.334L1200.07 350.722C1199.02 350.92 1197.93 350.826 1196.93 350.45C1195.93 350.074 1195.05 349.431 1194.38 348.589L1184.15 334.354L1181.57 335.755Z" fill="white"/>
<path opacity="0.1" d="M1113.03 225.229L1117.2 222.831L1119.72 224.282L1113.7 227.753C1114.01 227.937 1114.28 228.182 1114.49 228.472L1184.05 334.203L1184.15 334.341L1181.62 335.742L1112.4 230.504L1112.05 230.012C1111.83 229.693 1111.55 229.412 1111.24 229.179C1110.62 228.75 1110.14 229.002 1109.98 229.911C1110.15 228.967 1110.51 228.066 1111.04 227.262C1111.56 226.458 1112.24 225.767 1113.03 225.229Z" fill="black"/>
<path d="M1273.25 327.11L1288.04 318.541V446.369C1287.97 447.466 1287.66 448.534 1287.11 449.486C1286.56 450.437 1285.79 451.246 1284.87 451.846L1281.3 453.903C1280.32 454.394 1279.24 454.649 1278.14 454.649C1277.05 454.649 1275.97 454.394 1274.99 453.903L1273.21 452.868L1273.25 327.11Z" fill="#FFBA07"/>
<path opacity="0.15" d="M1273.25 327.11L1288.04 318.541V446.369C1287.97 447.466 1287.66 448.534 1287.11 449.486C1286.56 450.437 1285.79 451.246 1284.87 451.846L1281.3 453.903C1280.32 454.394 1279.24 454.649 1278.14 454.649C1277.05 454.649 1275.97 454.394 1274.99 453.903L1273.21 452.868L1273.25 327.11Z" fill="black"/>
<path d="M1112.35 230.529V353.347C1112.39 354.485 1112.73 355.592 1113.34 356.553C1113.8 357.367 1114.43 358.073 1115.19 358.622L1115.31 358.698L1115.52 358.837L1277.51 452.351C1277.71 452.471 1277.91 452.568 1278.13 452.641C1278.14 452.452 1278.14 452.262 1278.13 452.073V327.893C1278.16 327.448 1278.08 327.003 1277.9 326.596C1277.71 326.19 1277.44 325.833 1277.09 325.558C1276.74 325.282 1276.32 325.095 1275.89 325.014C1275.45 324.933 1275 324.959 1274.57 325.091L1206.42 350.167L1197.5 352.287C1196.45 352.482 1195.36 352.387 1194.36 352.011C1193.36 351.635 1192.47 350.993 1191.81 350.154L1181.47 335.755L1112.35 230.529Z" fill="#455A64"/>
<path d="M1109.87 230.732V354.95C1109.91 356.087 1110.25 357.193 1110.85 358.156C1111.32 358.969 1111.95 359.677 1112.71 360.238H1112.83C1112.9 360.288 1112.96 360.335 1113.03 360.377L1275.03 453.891C1275.33 454.111 1275.69 454.25 1276.07 454.294C1276.45 454.338 1276.83 454.286 1277.18 454.143C1277.45 453.987 1277.68 453.767 1277.84 453.503C1278.01 453.239 1278.11 452.939 1278.13 452.629C1278.14 452.44 1278.14 452.25 1278.13 452.061V327.88C1278.16 327.436 1278.08 326.991 1277.9 326.584C1277.71 326.177 1277.44 325.821 1277.09 325.545C1276.74 325.27 1276.32 325.083 1275.89 325.002C1275.45 324.921 1275 324.947 1274.57 325.079L1206.42 350.155L1197.5 352.275C1196.45 352.47 1195.36 352.374 1194.36 351.999C1193.36 351.623 1192.47 350.981 1191.81 350.142L1181.47 335.743L1112.25 230.504L1111.9 230.012C1110.83 228.409 1109.87 228.75 1109.87 230.732Z" fill="#FFBA07"/>
<path d="M1113.03 360.389L1112.82 360.25L1112.71 360.175C1111.95 359.622 1111.32 358.917 1110.85 358.105C1110.25 357.157 1109.91 356.069 1109.87 354.95L1181.56 335.768L1133.6 372.239L1113.03 360.389Z" fill="#BA68C8"/>
<path opacity="0.2" d="M1113.03 360.389L1112.82 360.25L1112.71 360.175C1111.95 359.622 1111.32 358.917 1110.85 358.105C1110.25 357.157 1109.91 356.069 1109.87 354.95L1181.56 335.768L1133.6 372.239L1113.03 360.389Z" fill="black"/>
<path d="M1278.19 452.124C1278.24 452.528 1278.17 452.937 1278 453.305C1277.82 453.673 1277.55 453.985 1277.21 454.206C1276.86 454.355 1276.48 454.412 1276.1 454.37C1275.72 454.328 1275.36 454.189 1275.05 453.966L1219.27 421.773L1206.54 350.23L1278.22 450.079L1278.19 452.124Z" fill="#E9B123"/>
<path opacity="0.15" d="M1199.7 339.213L1277.26 454.156C1277.6 453.935 1277.87 453.623 1278.05 453.255C1278.22 452.887 1278.29 452.478 1278.24 452.073V450.016L1202.52 337.698L1199.7 339.213Z" fill="black"/>
<path d="M1110.85 358.105C1111.32 358.917 1111.95 359.622 1112.71 360.175L1112.82 360.251L1275.02 453.904C1275.33 454.126 1275.69 454.265 1276.07 454.307C1276.45 454.349 1276.83 454.293 1277.18 454.143L1199.61 339.188C1198.05 336.705 1195.66 334.864 1192.86 334.004C1190.06 333.145 1187.04 333.323 1184.36 334.506L1110.85 358.105Z" fill="#FFBA07"/>
<path d="M1110.85 358.105C1111.31 358.919 1111.95 359.625 1112.71 360.174L1112.82 360.25L1275.02 453.903C1275.34 454.119 1275.7 454.254 1276.07 454.296C1276.45 454.338 1276.83 454.285 1277.18 454.143L1275.02 450.71L1115.65 358.736L1115.52 358.66C1114.85 358.168 1114.28 357.551 1113.84 356.843L1110.85 358.105Z" fill="#F2B107"/>
<path opacity="0.15" d="M1287.51 306.994L1284.98 308.483C1285.33 309.638 1285.51 310.837 1285.51 312.042V320.068L1288.04 318.579V310.54C1288.03 309.339 1287.85 308.145 1287.51 306.994Z" fill="black"/>
<path d="M1273.96 323.728L1276.54 325.217L1279.14 323.715L1285.54 320.03L1283.05 318.554L1273.96 323.728Z" fill="#FFBA07"/>
<path opacity="0.1" d="M1273.85 323.778L1282.99 318.554L1285.51 320.03L1279.11 323.715L1276.51 325.217L1276.02 325.066C1275.56 324.972 1275.09 324.972 1274.63 325.066L1269.46 326.984L1210.01 348.867L1209.07 347.491L1273.85 323.778Z" fill="black"/>
<path d="M1011.83 521.61L1148.5 600.7L1175.81 584.925C1185.78 579.177 1194.07 570.902 1199.83 560.931C1205.59 550.961 1208.62 539.649 1208.62 528.135V361.046C1208.61 352.297 1210.36 343.637 1213.77 335.579C1214.83 333.072 1216.04 330.632 1217.39 328.272C1223.14 318.312 1231.41 310.042 1241.37 304.294C1244.52 302.441 1248.09 301.42 1251.75 301.327C1255.4 301.234 1259.02 302.073 1262.27 303.764L1245.99 294.374L1185.94 259.707L1126.69 225.28L1126.51 225.179C1123.2 223.246 1119.44 222.228 1115.61 222.228C1111.78 222.228 1108.01 223.246 1104.7 225.179C1094.73 230.929 1086.45 239.205 1080.69 249.175C1074.93 259.144 1071.89 270.455 1071.89 281.969V449.07C1071.89 460.584 1068.86 471.895 1063.1 481.864C1057.34 491.834 1049.06 500.11 1039.08 505.86L1011.83 521.61Z" fill="white"/>
<path d="M1115.6 222.225V223.487C1111.99 223.492 1108.45 224.459 1105.34 226.289C1095.56 231.927 1087.44 240.04 1081.8 249.813C1076.16 259.585 1073.19 270.671 1073.19 281.956V449.07C1073.17 460.794 1070.08 472.307 1064.21 482.46C1058.35 492.614 1049.93 501.052 1039.79 506.933L1014.36 521.622L1148.5 599.235L1175.19 583.826C1184.94 578.172 1193.04 570.055 1198.67 560.288C1204.3 550.52 1207.26 539.446 1207.27 528.172V361.045C1207.27 349.314 1210.37 337.792 1216.24 327.638C1222.12 317.484 1230.57 309.058 1240.74 303.208C1244.23 301.156 1248.21 300.075 1252.26 300.078C1252.62 300.078 1252.99 300.078 1253.37 300.078L1245.35 295.459L1185.31 260.78L1125.99 226.352L1125.84 226.264C1122.72 224.448 1119.17 223.486 1115.56 223.475V222.213L1115.6 222.225ZM1115.56 222.213C1119.39 222.224 1123.16 223.242 1126.47 225.166L1126.65 225.267L1185.94 259.707L1245.99 294.374L1262.27 303.763C1259.17 302.168 1255.74 301.333 1252.26 301.328C1248.43 301.33 1244.67 302.354 1241.37 304.293C1231.41 310.042 1223.14 318.312 1217.39 328.271C1216.04 330.632 1214.83 333.072 1213.77 335.578C1210.33 343.63 1208.55 352.291 1208.53 361.045V528.172C1208.53 539.687 1205.5 550.999 1199.74 560.969C1193.98 570.939 1185.7 579.215 1175.72 584.962L1148.41 600.737L1011.75 521.648L1039.07 505.873C1049.04 500.122 1057.33 491.846 1063.09 481.877C1068.85 471.907 1071.88 460.596 1071.88 449.083V281.956C1071.88 270.442 1074.91 259.131 1080.67 249.162C1086.43 239.192 1094.72 230.916 1104.69 225.166C1108 223.234 1111.75 222.21 1115.58 222.2L1115.56 222.213Z" fill="#F5F5F5"/>
<path d="M1148.19 600.46L1175.5 584.634C1185.48 578.886 1193.77 570.61 1199.53 560.64C1205.29 550.67 1208.32 539.359 1208.32 527.844V360.806C1208.33 353.383 1209.61 346.016 1212.1 339.024L1219.8 337.194L1219.38 338.153C1216.38 345.328 1214.84 353.028 1214.84 360.806V527.933C1214.82 540.569 1211.48 552.978 1205.16 563.922C1198.84 574.866 1189.77 583.961 1178.84 590.301L1151.39 606.088L1148.19 607.88V600.46Z" fill="#F0F0F0"/>
<path d="M1173.81 314.856L1114.94 280.896C1114.49 280.623 1114.15 280.203 1113.98 279.708C1113.81 279.212 1113.82 278.673 1114.01 278.182C1114.8 276.252 1115.71 274.396 1116.68 272.503C1117.53 270.926 1118.42 269.386 1119.38 267.885C1119.66 267.459 1120.1 267.156 1120.6 267.039C1121.09 266.922 1121.62 266.998 1122.06 267.254L1180.94 301.239C1181.14 301.332 1181.33 301.465 1181.47 301.63C1181.62 301.794 1181.74 301.988 1181.81 302.198C1181.88 302.408 1181.91 302.63 1181.89 302.851C1181.88 303.073 1181.82 303.289 1181.71 303.486L1180.88 304.748C1179.48 306.997 1178.22 309.328 1177.09 311.726C1176.75 312.471 1176.41 313.228 1176.1 313.998C1176.02 314.216 1175.89 314.415 1175.73 314.58C1175.57 314.745 1175.37 314.873 1175.15 314.954C1174.94 315.036 1174.7 315.07 1174.47 315.053C1174.24 315.036 1174.02 314.969 1173.81 314.856Z" fill="#607AD6"/>
<path d="M1212.32 307.499L1103.68 244.803C1103.47 244.703 1103.29 244.554 1103.16 244.368C1103.02 244.182 1102.93 243.965 1102.9 243.736C1102.87 243.507 1102.89 243.274 1102.97 243.058C1103.05 242.841 1103.18 242.647 1103.35 242.493L1104.48 241.408C1104.89 241.053 1105.4 240.832 1105.94 240.773C1106.48 240.715 1107.03 240.822 1107.51 241.08L1216.1 303.789C1216.32 303.871 1216.51 304.011 1216.65 304.194C1216.8 304.378 1216.89 304.597 1216.91 304.828C1216.94 305.059 1216.9 305.293 1216.8 305.504C1216.7 305.715 1216.55 305.894 1216.35 306.022L1215.24 307.095C1214.86 307.462 1214.37 307.698 1213.85 307.77C1213.32 307.843 1212.78 307.748 1212.32 307.499Z" fill="#C0BCBC"/>
<path d="M1223.52 300.141C1224.22 299.662 1224.91 299.182 1225.63 298.715C1226.7 298.021 1227.8 297.352 1228.92 296.721C1229.43 296.427 1229.95 296.162 1230.48 295.926C1231.35 295.522 1231.35 294.828 1230.48 294.298L1121.79 231.552C1121.22 231.164 1120.59 230.874 1119.92 230.693L1119.7 230.782C1118.62 231.223 1117.57 231.738 1116.56 232.321C1114.86 233.318 1113.21 234.391 1111.62 235.514C1111.43 235.618 1111.27 235.774 1111.17 235.963C1111.06 236.153 1111.01 236.368 1111.02 236.585C1111.04 236.801 1111.11 237.01 1111.24 237.187C1111.36 237.364 1111.53 237.501 1111.73 237.584L1220.39 300.318C1220.89 300.56 1221.43 300.671 1221.98 300.64C1222.53 300.609 1223.06 300.437 1223.52 300.141Z" fill="#607AD6"/>
<path opacity="0.4" d="M1223.52 300.141C1224.22 299.662 1224.91 299.182 1225.63 298.715C1226.7 298.021 1227.8 297.352 1228.92 296.721C1229.43 296.427 1229.95 296.162 1230.48 295.926C1231.35 295.522 1231.35 294.828 1230.48 294.298L1121.79 231.552C1121.22 231.164 1120.59 230.874 1119.92 230.693L1119.7 230.782C1118.62 231.223 1117.57 231.738 1116.56 232.321C1114.86 233.318 1113.21 234.391 1111.62 235.514C1111.43 235.618 1111.27 235.774 1111.17 235.963C1111.06 236.153 1111.01 236.368 1111.02 236.585C1111.04 236.801 1111.11 237.01 1111.24 237.187C1111.36 237.364 1111.53 237.501 1111.73 237.584L1220.39 300.318C1220.89 300.56 1221.43 300.671 1221.98 300.64C1222.53 300.609 1223.06 300.437 1223.52 300.141Z" fill="black"/>
<path d="M1121.33 359.632V312.938C1121.33 311.436 1121.4 307.474 1121.57 305.997C1121.72 303.694 1122.01 301.402 1122.42 299.132C1122.44 298.91 1122.52 298.698 1122.65 298.517C1122.78 298.335 1122.95 298.191 1123.16 298.099C1123.36 298.007 1123.58 297.97 1123.8 297.991C1124.03 298.013 1124.24 298.093 1124.42 298.223L1195.63 339.326C1196.09 339.623 1196.45 340.045 1196.68 340.542C1196.9 341.039 1196.98 341.589 1196.89 342.128C1196.26 345.712 1195.92 349.342 1195.88 352.981C1195.88 353.196 1195.88 359.544 1195.88 359.758V402.666C1195.88 403.701 1195.15 404.13 1194.24 403.613L1122.95 362.522C1122.47 362.205 1122.07 361.777 1121.79 361.274C1121.51 360.772 1121.35 360.209 1121.33 359.632Z" fill="#607AD6"/>
<path opacity="0.8" d="M1121.33 359.632V312.938C1121.33 311.436 1121.4 307.474 1121.57 305.997C1121.72 303.694 1122.01 301.402 1122.42 299.132C1122.44 298.91 1122.52 298.698 1122.65 298.517C1122.78 298.335 1122.95 298.191 1123.16 298.099C1123.36 298.007 1123.58 297.97 1123.8 297.991C1124.03 298.013 1124.24 298.093 1124.42 298.223L1195.63 339.326C1196.09 339.623 1196.45 340.045 1196.68 340.542C1196.9 341.039 1196.98 341.589 1196.89 342.128C1196.26 345.712 1195.92 349.342 1195.88 352.981C1195.88 353.196 1195.88 359.544 1195.88 359.758V402.666C1195.88 403.701 1195.15 404.13 1194.24 403.613L1122.95 362.522C1122.47 362.205 1122.07 361.777 1121.79 361.274C1121.51 360.772 1121.35 360.209 1121.33 359.632Z" fill="white"/>
<path d="M1143.08 334.354L1155.53 359.291L1151.01 365.21L1176.31 343.592L1195.91 391.624V402.679C1195.91 403.714 1195.18 404.143 1194.27 403.625L1122.95 362.522C1122.48 362.21 1122.08 361.79 1121.8 361.296C1121.52 360.803 1121.36 360.25 1121.33 359.682V352.426L1143.08 334.354Z" fill="#607AD6"/>
<path d="M1169.41 401.114L1110.57 367.141C1109.67 366.623 1108.93 367.04 1108.93 368.087V376.139C1108.96 376.708 1109.13 377.262 1109.41 377.756C1109.7 378.249 1110.1 378.668 1110.57 378.978L1169.41 413.002C1170.32 413.519 1171.05 413.103 1171.05 412.055V404.004C1171.03 403.426 1170.87 402.862 1170.58 402.359C1170.3 401.856 1169.89 401.429 1169.41 401.114Z" fill="#607AD6"/>
<path d="M1181.8 426.038L1098.12 377.729C1097.21 377.199 1096.48 377.628 1096.48 378.675V380.808C1096.51 381.377 1096.67 381.931 1096.96 382.424C1097.24 382.918 1097.64 383.337 1098.12 383.648L1181.8 431.932C1182.71 432.462 1183.44 432.033 1183.44 430.985V428.853C1183.4 428.288 1183.24 427.741 1182.95 427.252C1182.67 426.764 1182.27 426.348 1181.8 426.038Z" fill="#E0E0E0"/>
<path d="M1187.58 441.22L1093.46 386.879C1092.55 386.361 1091.82 386.778 1091.82 387.825V389.958C1091.85 390.527 1092.01 391.081 1092.3 391.575C1092.58 392.068 1092.98 392.487 1093.46 392.797L1187.58 447.139C1188.49 447.657 1189.22 447.24 1189.22 446.193V444.06C1189.19 443.491 1189.02 442.938 1188.74 442.445C1188.45 441.951 1188.06 441.532 1187.58 441.22Z" fill="#E0E0E0"/>
<path d="M1194.22 462.826L1165.19 446.066C1164.3 445.549 1163.56 445.978 1163.56 447.013V478.727C1163.59 479.295 1163.76 479.848 1164.04 480.341C1164.32 480.834 1164.72 481.254 1165.19 481.566L1194.22 498.326C1195.11 498.843 1195.85 498.427 1195.85 497.379V465.665C1195.82 465.097 1195.65 464.544 1195.37 464.051C1195.09 463.558 1194.69 463.138 1194.22 462.826Z" fill="#607AD6"/>
<path opacity="0.5" d="M1194.22 462.826L1165.19 446.066C1164.3 445.549 1163.56 445.978 1163.56 447.013V478.727C1163.59 479.295 1163.76 479.848 1164.04 480.341C1164.32 480.834 1164.72 481.254 1165.19 481.566L1194.22 498.326C1195.11 498.843 1195.85 498.427 1195.85 497.379V465.665C1195.82 465.097 1195.65 464.544 1195.37 464.051C1195.09 463.558 1194.69 463.138 1194.22 462.826Z" fill="white"/>
<path d="M1154.45 439.87L1125.43 423.111C1124.52 422.593 1123.79 423.022 1123.79 424.057V455.784C1123.82 456.352 1123.98 456.905 1124.27 457.398C1124.55 457.892 1124.95 458.311 1125.43 458.623L1154.45 475.37C1155.36 475.888 1156.09 475.471 1156.09 474.424V442.71C1156.06 442.14 1155.9 441.586 1155.61 441.093C1155.33 440.599 1154.93 440.18 1154.45 439.87Z" fill="#607AD6"/>
<path d="M1114.7 416.914L1085.67 400.167C1084.77 399.637 1084.03 400.066 1084.03 401.114V432.828C1084.06 433.397 1084.23 433.951 1084.51 434.444C1084.8 434.937 1085.2 435.357 1085.67 435.667L1114.7 452.414C1115.61 452.932 1116.34 452.515 1116.34 451.468V419.754C1116.31 419.184 1116.15 418.63 1115.86 418.137C1115.58 417.643 1115.18 417.224 1114.7 416.914Z" fill="#607AD6"/>
<path opacity="0.3" d="M1114.7 416.914L1085.67 400.167C1084.77 399.637 1084.03 400.066 1084.03 401.114V432.828C1084.06 433.397 1084.23 433.951 1084.51 434.444C1084.8 434.937 1085.2 435.357 1085.67 435.667L1114.7 452.414C1115.61 452.932 1116.34 452.515 1116.34 451.468V419.754C1116.31 419.184 1116.15 418.63 1115.86 418.137C1115.58 417.643 1115.18 417.224 1114.7 416.914Z" fill="black"/>
<path d="M1090.04 455.986L1186.16 511.514C1187.06 512.031 1187.8 511.602 1187.8 510.567V508.434C1187.76 507.866 1187.6 507.313 1187.31 506.82C1187.03 506.327 1186.63 505.907 1186.16 505.595L1090.04 450.067C1089.15 449.549 1088.4 449.978 1088.4 451.013V453.146C1088.43 453.715 1088.59 454.269 1088.88 454.763C1089.17 455.256 1089.56 455.675 1090.04 455.986Z" fill="#E0E0E0"/>
<path d="M1185.67 523.048L1089.55 467.52C1089.08 467.216 1088.71 466.794 1088.46 466.298C1088.21 465.802 1088.09 465.248 1088.12 464.694C1088.19 464.075 1088.24 463.432 1088.29 462.826C1088.26 462.614 1088.3 462.399 1088.4 462.209C1088.5 462.019 1088.65 461.864 1088.84 461.763C1089.03 461.662 1089.24 461.62 1089.45 461.643C1089.67 461.666 1089.87 461.753 1090.03 461.892L1186.12 517.42C1186.59 517.723 1186.98 518.141 1187.25 518.635C1187.53 519.129 1187.67 519.683 1187.67 520.247C1187.67 520.878 1187.58 521.509 1187.52 522.14C1187.52 522.355 1187.46 522.567 1187.35 522.751C1187.24 522.935 1187.08 523.083 1186.88 523.178C1186.69 523.273 1186.47 523.312 1186.26 523.289C1186.05 523.266 1185.84 523.182 1185.67 523.048Z" fill="#E0E0E0"/>
<path d="M1132.71 504.257L1191.57 538.243C1192.02 538.53 1192.37 538.952 1192.56 539.448C1192.76 539.945 1192.79 540.49 1192.65 541.007C1188.09 554.994 1178.96 567.043 1166.73 575.22C1166.25 575.503 1165.7 575.659 1165.13 575.675C1164.57 575.69 1164.02 575.564 1163.51 575.308L1104.6 541.297C1104.41 541.218 1104.24 541.082 1104.12 540.907C1104 540.732 1103.94 540.525 1103.94 540.313C1103.94 540.101 1104 539.894 1104.12 539.718C1104.24 539.543 1104.41 539.407 1104.6 539.328C1116.82 531.149 1125.95 519.106 1130.51 505.128C1130.57 504.902 1130.67 504.692 1130.82 504.517C1130.98 504.341 1131.17 504.204 1131.38 504.119C1131.6 504.033 1131.83 504.001 1132.06 504.025C1132.29 504.049 1132.52 504.129 1132.71 504.257Z" fill="#7B90DC"/>
<path opacity="0.8" d="M1132.71 504.257L1191.57 538.243C1192.02 538.53 1192.37 538.952 1192.56 539.448C1192.76 539.945 1192.79 540.49 1192.65 541.007C1188.09 554.994 1178.96 567.043 1166.73 575.22C1166.25 575.503 1165.7 575.659 1165.13 575.675C1164.57 575.69 1164.02 575.564 1163.51 575.308L1104.6 541.297C1104.41 541.218 1104.24 541.082 1104.12 540.907C1104 540.732 1103.94 540.525 1103.94 540.313C1103.94 540.101 1104 539.894 1104.12 539.718C1104.24 539.543 1104.41 539.407 1104.6 539.328C1116.82 531.149 1125.95 519.106 1130.51 505.128C1130.57 504.902 1130.67 504.692 1130.82 504.517C1130.98 504.341 1131.17 504.204 1131.38 504.119C1131.6 504.033 1131.83 504.001 1132.06 504.025C1132.29 504.049 1132.52 504.129 1132.71 504.257Z" fill="white"/>
<path opacity="0.8" d="M1104.55 539.328C1108.36 536.787 1111.88 533.856 1115.08 530.583C1124.9 529.775 1140.52 526.519 1140.52 526.519L1145.1 542.054L1134.6 545.752C1143.52 546.459 1171.01 539.833 1171.01 539.833C1172.99 549.222 1172.89 565.326 1172.8 570.626C1170.87 572.277 1168.85 573.811 1166.73 575.22C1166.25 575.503 1165.7 575.659 1165.13 575.675C1164.57 575.69 1164.02 575.564 1163.51 575.308L1104.6 541.297C1104.41 541.224 1104.23 541.092 1104.11 540.92C1103.99 540.747 1103.92 540.542 1103.91 540.33C1103.91 540.118 1103.96 539.909 1104.08 539.731C1104.19 539.552 1104.36 539.412 1104.55 539.328Z" fill="#607AD6"/>
<path opacity="0.8" d="M1139.51 519.552C1138.92 520.479 1137.99 521.148 1136.93 521.429C1135.86 521.709 1134.73 521.58 1133.76 521.067C1132.87 520.497 1132.23 519.612 1131.97 518.591C1131.71 517.57 1131.85 516.489 1132.36 515.565C1132.89 514.608 1133.76 513.891 1134.81 513.563C1135.85 513.234 1136.98 513.318 1137.96 513.798C1138.89 514.388 1139.57 515.307 1139.86 516.373C1140.14 517.438 1140.02 518.573 1139.51 519.552Z" fill="#607AD6"/>
<path d="M1108.16 513.76L1074.09 494.111C1073.88 493.991 1073.69 493.828 1073.55 493.633C1073.4 493.438 1073.3 493.214 1073.24 492.977C1073.19 492.739 1073.18 492.493 1073.23 492.254C1073.28 492.014 1073.37 491.787 1073.51 491.587C1074.67 489.782 1075.76 487.914 1076.74 485.996C1076.84 485.771 1077 485.57 1077.19 485.408C1077.37 485.245 1077.59 485.124 1077.83 485.053C1078.07 484.981 1078.32 484.961 1078.57 484.993C1078.81 485.025 1079.05 485.109 1079.26 485.239L1113.29 504.875C1113.73 505.135 1114.06 505.553 1114.21 506.044C1114.35 506.536 1114.31 507.065 1114.08 507.526C1113.1 509.444 1112.01 511.312 1110.85 513.129C1110.56 513.551 1110.13 513.85 1109.63 513.967C1109.13 514.084 1108.61 514.01 1108.16 513.76Z" fill="#607AD6"/>
<path d="M1107.85 525.408L1061.38 498.591C1061.18 498.486 1061 498.334 1060.86 498.147C1060.73 497.959 1060.64 497.743 1060.6 497.514C1060.57 497.286 1060.59 497.053 1060.66 496.834C1060.74 496.615 1060.86 496.417 1061.03 496.256L1061.99 495.158C1062.34 494.771 1062.81 494.511 1063.33 494.42C1063.84 494.329 1064.37 494.411 1064.84 494.653L1111.29 521.534C1111.5 521.641 1111.69 521.795 1111.83 521.985C1111.97 522.174 1112.06 522.394 1112.1 522.626C1112.15 522.859 1112.13 523.097 1112.07 523.324C1112 523.55 1111.88 523.759 1111.72 523.932C1111.41 524.298 1111.09 524.664 1110.76 525.017C1110.39 525.391 1109.9 525.632 1109.37 525.703C1108.84 525.773 1108.31 525.67 1107.85 525.408Z" fill="#E0E0E0"/>
<path d="M1104.23 531.302C1103.8 531.664 1103.38 532.017 1102.96 532.362C1102.51 532.685 1101.98 532.876 1101.42 532.914C1100.87 532.952 1100.31 532.835 1099.82 532.577L1053.3 505.772C1053.1 505.686 1052.93 505.547 1052.8 505.37C1052.67 505.192 1052.6 504.982 1052.58 504.764C1052.57 504.546 1052.61 504.328 1052.71 504.134C1052.81 503.94 1052.97 503.777 1053.15 503.664C1053.61 503.311 1054.04 502.945 1054.41 502.591C1054.85 502.253 1055.36 502.045 1055.91 501.991C1056.46 501.937 1057.01 502.041 1057.49 502.289L1104.01 529.106C1104.22 529.196 1104.4 529.339 1104.53 529.521C1104.66 529.703 1104.74 529.917 1104.76 530.141C1104.79 530.365 1104.75 530.591 1104.65 530.795C1104.56 530.999 1104.41 531.174 1104.23 531.302Z" fill="#E0E0E0"/>
<path d="M1128.42 566.89L1069.51 532.892C1069 532.631 1068.44 532.495 1067.87 532.495C1067.3 532.495 1066.74 532.631 1066.24 532.892L1064.38 533.952C1063.48 534.482 1063.48 535.328 1064.38 535.845L1123.29 569.856C1123.8 570.117 1124.36 570.254 1124.93 570.254C1125.51 570.254 1126.07 570.117 1126.58 569.856L1128.42 568.796C1129.33 568.228 1129.33 567.408 1128.42 566.89Z" fill="#E0E0E0"/>
<path d="M1144.53 327.59L1085.69 293.604C1084.78 293.074 1084.05 293.503 1084.05 294.551V302.602C1084.08 303.171 1084.24 303.725 1084.53 304.219C1084.81 304.712 1085.21 305.131 1085.69 305.442L1144.52 339.415C1145.43 339.932 1146.16 339.516 1146.16 338.469V330.43C1146.13 329.862 1145.97 329.309 1145.69 328.815C1145.4 328.322 1145.01 327.902 1144.53 327.59Z" fill="#FAFAFA"/>
<path d="M1145.27 340.26C1145.52 340.264 1145.78 340.198 1146 340.071C1146.26 339.9 1146.48 339.661 1146.62 339.379C1146.76 339.097 1146.82 338.782 1146.79 338.468V330.43C1146.76 329.752 1146.57 329.092 1146.23 328.504C1145.89 327.916 1145.42 327.417 1144.85 327.047L1086 293.112C1085.75 292.917 1085.44 292.802 1085.12 292.78C1084.81 292.759 1084.49 292.833 1084.21 292.992C1083.93 293.152 1083.71 293.39 1083.57 293.676C1083.43 293.962 1083.37 294.284 1083.42 294.601V302.653C1083.45 303.332 1083.64 303.993 1083.98 304.582C1084.32 305.17 1084.8 305.669 1085.37 306.035L1144.17 339.958C1144.5 340.157 1144.88 340.262 1145.27 340.26ZM1144.22 328.133C1144.59 328.397 1144.89 328.74 1145.11 329.138C1145.33 329.535 1145.46 329.977 1145.48 330.43V338.468C1145.48 338.771 1145.39 338.935 1145.32 338.986C1145.24 339.036 1145.06 338.986 1144.8 338.86L1085.95 304.899C1085.57 304.641 1085.26 304.3 1085.03 303.902C1084.8 303.504 1084.66 303.06 1084.63 302.602V294.551C1084.63 294.235 1084.72 294.084 1084.79 294.033C1084.88 294.013 1084.98 294.012 1085.07 294.032C1085.16 294.051 1085.25 294.091 1085.32 294.147L1144.22 328.133Z" fill="#E0E0E0"/>
<path d="M1144.53 345.435L1085.69 311.449C1084.78 310.932 1084.05 311.348 1084.05 312.395V320.447C1084.08 321.016 1084.24 321.57 1084.53 322.064C1084.81 322.557 1085.21 322.976 1085.69 323.287L1144.52 357.26C1145.43 357.79 1146.16 357.361 1146.16 356.313V348.274C1146.13 347.707 1145.97 347.154 1145.68 346.661C1145.4 346.168 1145.01 345.748 1144.53 345.435Z" fill="#FAFAFA"/>
<path d="M1145.27 358.118C1145.52 358.122 1145.78 358.052 1146 357.916C1146.26 357.744 1146.48 357.505 1146.62 357.223C1146.76 356.941 1146.82 356.627 1146.79 356.313V348.274C1146.76 347.597 1146.57 346.937 1146.23 346.348C1145.89 345.76 1145.42 345.261 1144.85 344.892L1086 310.906C1085.75 310.711 1085.44 310.596 1085.12 310.574C1084.81 310.553 1084.49 310.627 1084.21 310.786C1083.93 310.946 1083.71 311.184 1083.57 311.47C1083.43 311.756 1083.37 312.078 1083.42 312.395V320.447C1083.45 321.128 1083.64 321.791 1083.98 322.381C1084.32 322.972 1084.8 323.472 1085.37 323.842L1144.17 357.802C1144.5 358.011 1144.88 358.121 1145.27 358.118ZM1084.95 311.853C1085.11 311.863 1085.25 311.915 1085.37 312.004L1144.17 345.99C1144.54 346.252 1144.84 346.594 1145.06 346.989C1145.28 347.384 1145.4 347.823 1145.43 348.274V356.313C1145.43 356.628 1145.34 356.78 1145.27 356.83C1145.19 356.881 1145.01 356.83 1144.75 356.717L1085.9 322.744C1085.52 322.487 1085.2 322.147 1084.97 321.749C1084.74 321.351 1084.61 320.905 1084.58 320.447V312.395C1084.58 312.092 1084.66 311.928 1084.74 311.878L1084.95 311.853Z" fill="#E0E0E0"/>
<path d="M954.559 203.478L1019.06 236.828C1019.62 237.153 1020.1 237.606 1020.45 238.15C1020.8 238.694 1021.01 239.314 1021.08 239.957L1024.58 316.241C1024.57 316.887 1024.41 317.521 1024.11 318.093C1023.8 318.665 1023.37 319.157 1022.84 319.529L1019.54 321.601C1018.97 321.925 1018.33 322.11 1017.67 322.14C1017.01 322.171 1016.36 322.045 1015.76 321.774L951.254 288.436C950.694 288.109 950.22 287.653 949.87 287.107C949.52 286.561 949.304 285.94 949.24 285.295L945.743 209.024C945.75 208.379 945.909 207.745 946.208 207.174C946.507 206.602 946.936 206.11 947.462 205.736L950.778 203.664C951.349 203.337 951.989 203.15 952.646 203.118C953.303 203.085 953.959 203.209 954.559 203.478Z" fill="#7C96F2"/>
<path d="M1017.63 320.589L1014.13 244.318C1014.06 243.673 1013.85 243.052 1013.5 242.506C1013.15 241.96 1012.67 241.504 1012.11 241.176L947.609 207.839C946.548 207.294 945.738 207.811 945.792 208.996L949.289 285.267C949.354 285.912 949.569 286.533 949.919 287.079C950.269 287.625 950.744 288.081 951.303 288.409L1015.81 321.746C1016.87 322.291 1017.68 321.774 1017.63 320.589Z" fill="#7C96F2"/>
<path opacity="0.2" d="M1015.81 321.746C1016.41 322.01 1017.06 322.132 1017.72 322.102C1018.38 322.072 1019.02 321.891 1019.59 321.573L1022.85 319.579C1023.38 319.212 1023.81 318.722 1024.11 318.152C1024.41 317.582 1024.57 316.948 1024.58 316.303L1021.08 239.957C1021.02 239.287 1020.78 238.645 1020.4 238.093L1013.49 242.516C1013.86 243.05 1014.08 243.672 1014.13 244.318L1017.62 320.589C1017.67 321.673 1016.96 322.376 1015.81 321.746Z" fill="black"/>
<path opacity="0.4" d="M945.802 208.655C945.91 207.715 946.652 207.352 947.609 207.839L1012.11 241.177C1012.66 241.502 1013.12 241.964 1013.44 242.518L1020.36 238.095C1020.03 237.59 1019.58 237.176 1019.04 236.892L954.524 203.542C953.926 203.266 953.27 203.138 952.612 203.168C951.954 203.198 951.313 203.386 950.742 203.716L947.439 205.788C946.98 206.124 946.597 206.553 946.315 207.047C946.033 207.541 945.858 208.088 945.802 208.655Z" fill="white"/>
<path d="M1031.81 291.274C1032.95 290.527 1038.28 287.187 1038.56 286.998C1038.77 286.853 1038.95 286.663 1039.08 286.441C1039.21 286.22 1039.29 285.973 1039.31 285.717C1039.34 285.461 1039.3 285.203 1039.21 284.962C1039.13 284.72 1038.99 284.502 1038.8 284.321L1022.08 265.291L1015.29 269.607L1032 288.625C1032.18 288.804 1032.31 289.019 1032.4 289.255C1032.49 289.491 1032.52 289.743 1032.5 289.993C1032.49 290.244 1032.41 290.488 1032.29 290.709C1032.17 290.93 1032.01 291.123 1031.81 291.274Z" fill="#7C96F2"/>
<path opacity="0.4" d="M1031.81 291.274C1032.95 290.527 1038.28 287.187 1038.56 286.998C1038.77 286.853 1038.95 286.663 1039.08 286.441C1039.21 286.22 1039.29 285.973 1039.31 285.717C1039.34 285.461 1039.3 285.203 1039.21 284.962C1039.13 284.72 1038.99 284.502 1038.8 284.321L1022.08 265.291L1015.29 269.607L1032 288.625C1032.18 288.804 1032.31 289.019 1032.4 289.255C1032.49 289.491 1032.52 289.743 1032.5 289.993C1032.49 290.244 1032.41 290.488 1032.29 290.709C1032.17 290.93 1032.01 291.123 1031.81 291.274Z" fill="white"/>
<path d="M1015.29 269.633L1032 288.65C1032.24 288.864 1032.42 289.144 1032.5 289.454C1032.58 289.765 1032.58 290.093 1032.48 290.4C1032.38 290.706 1032.2 290.978 1031.95 291.182C1031.7 291.385 1031.39 291.512 1031.07 291.548L1016.4 293.825L1011.3 281.577L1015.29 269.633Z" fill="#7C96F2"/>
<path d="M988.592 266.4C987.459 266.4 986.442 266.133 985.542 265.6C984.659 265.067 984.042 264.208 983.692 263.025C982.709 264.225 981.667 265.083 980.567 265.6C979.467 266.117 978.284 266.375 977.017 266.375C975.967 266.375 975.051 266.192 974.267 265.825C973.501 265.458 972.851 264.958 972.317 264.325C971.801 263.675 971.409 262.917 971.142 262.05C970.892 261.167 970.767 260.208 970.767 259.175C970.767 258.225 970.884 257.267 971.117 256.3C971.367 255.317 971.734 254.375 972.217 253.475C972.701 252.558 973.301 251.708 974.017 250.925C974.751 250.125 975.609 249.433 976.592 248.85C977.576 248.25 978.676 247.783 979.892 247.45C981.109 247.1 982.459 246.925 983.942 246.925C985.226 246.925 986.326 247.025 987.242 247.225C988.159 247.425 989.042 247.708 989.892 248.075L987.492 257.35C987.226 258.417 987.092 259.308 987.092 260.025C987.092 260.525 987.151 260.942 987.267 261.275C987.401 261.608 987.567 261.875 987.767 262.075C987.984 262.275 988.242 262.417 988.542 262.5C988.842 262.567 989.167 262.6 989.517 262.6C990.217 262.6 990.876 262.383 991.492 261.95C992.126 261.5 992.676 260.875 993.142 260.075C993.609 259.275 993.976 258.325 994.242 257.225C994.526 256.125 994.667 254.925 994.667 253.625C994.667 251.458 994.326 249.55 993.642 247.9C992.976 246.25 992.034 244.875 990.817 243.775C989.617 242.658 988.176 241.825 986.492 241.275C984.809 240.708 982.967 240.425 980.967 240.425C978.784 240.425 976.751 240.842 974.867 241.675C973.001 242.492 971.376 243.617 969.992 245.05C968.626 246.483 967.551 248.175 966.767 250.125C966.001 252.075 965.617 254.175 965.617 256.425C965.617 259.158 966.042 261.567 966.892 263.65C967.742 265.717 968.909 267.45 970.392 268.85C971.876 270.233 973.617 271.275 975.617 271.975C977.634 272.675 979.809 273.025 982.142 273.025C983.426 273.025 984.626 272.95 985.742 272.8C986.859 272.667 987.884 272.475 988.817 272.225C989.751 271.992 990.601 271.717 991.367 271.4C992.134 271.1 992.817 270.775 993.417 270.425C993.751 270.242 994.034 270.15 994.267 270.15C994.751 270.15 995.092 270.417 995.292 270.95L996.142 273.175C994.409 274.308 992.384 275.233 990.067 275.95C987.751 276.667 985.109 277.025 982.142 277.025C979.126 277.025 976.334 276.55 973.767 275.6C971.201 274.65 968.976 273.283 967.092 271.5C965.226 269.733 963.759 267.575 962.692 265.025C961.642 262.475 961.117 259.608 961.117 256.425C961.117 254.642 961.342 252.908 961.792 251.225C962.259 249.542 962.917 247.967 963.767 246.5C964.617 245.017 965.642 243.658 966.842 242.425C968.042 241.192 969.376 240.133 970.842 239.25C972.309 238.367 973.892 237.683 975.592 237.2C977.309 236.7 979.101 236.45 980.967 236.45C983.334 236.45 985.601 236.85 987.767 237.65C989.951 238.433 991.876 239.567 993.542 241.05C995.226 242.517 996.567 244.317 997.567 246.45C998.567 248.567 999.067 250.958 999.067 253.625C999.067 255.408 998.801 257.083 998.267 258.65C997.751 260.2 997.017 261.55 996.067 262.7C995.134 263.85 994.026 264.758 992.742 265.425C991.476 266.075 990.092 266.4 988.592 266.4ZM978.242 262.4C978.676 262.4 979.109 262.333 979.542 262.2C979.992 262.067 980.417 261.833 980.817 261.5C981.217 261.15 981.584 260.692 981.917 260.125C982.251 259.558 982.526 258.85 982.742 258L984.567 250.95C984.034 250.85 983.484 250.8 982.917 250.8C981.884 250.8 980.917 251.025 980.017 251.475C979.117 251.925 978.334 252.533 977.667 253.3C977.017 254.067 976.501 254.95 976.117 255.95C975.734 256.933 975.542 257.958 975.542 259.025C975.542 260.092 975.767 260.925 976.217 261.525C976.684 262.108 977.359 262.4 978.242 262.4Z" fill="white"/>
<path d="M956.958 272.808L956.636 273.513L953.569 272.114L952.55 274.347L955.172 275.543L954.85 276.247L952.229 275.051L950.976 277.798L950.107 277.401L953.021 271.013L956.958 272.808ZM958.91 273.484L955.915 280.051L955.121 279.689L958.117 273.122L958.91 273.484ZM961.194 276.917C961.464 277.04 961.693 277.2 961.88 277.397C962.068 277.59 962.206 277.811 962.294 278.059C962.383 278.305 962.416 278.575 962.393 278.869C962.374 279.162 962.291 279.469 962.145 279.79C962.088 279.915 962.037 279.992 961.991 280.022C961.945 280.051 961.885 280.049 961.811 280.015L958.806 278.644C958.682 278.932 958.607 279.198 958.582 279.442C958.557 279.685 958.575 279.907 958.635 280.106C958.696 280.303 958.796 280.476 958.936 280.626C959.077 280.773 959.255 280.896 959.469 280.993C959.668 281.084 959.849 281.14 960.012 281.16C960.179 281.179 960.327 281.186 960.455 281.179C960.584 281.173 960.692 281.164 960.781 281.15C960.874 281.135 960.946 281.139 960.996 281.162C961.062 281.192 961.101 281.241 961.113 281.307L961.204 281.699C961.052 281.773 960.887 281.823 960.71 281.85C960.534 281.874 960.354 281.878 960.171 281.863C959.99 281.849 959.811 281.817 959.632 281.768C959.452 281.722 959.281 281.661 959.117 281.587C958.805 281.444 958.54 281.261 958.323 281.036C958.111 280.81 957.954 280.552 957.853 280.261C957.756 279.97 957.723 279.649 957.753 279.3C957.783 278.951 957.887 278.582 958.064 278.193C958.208 277.878 958.39 277.605 958.609 277.375C958.832 277.146 959.08 276.974 959.352 276.857C959.625 276.738 959.919 276.682 960.232 276.688C960.546 276.691 960.867 276.768 961.194 276.917ZM960.945 277.509C960.562 277.334 960.209 277.308 959.888 277.43C959.567 277.55 959.291 277.794 959.059 278.162L961.515 279.282C961.599 279.098 961.65 278.919 961.669 278.744C961.689 278.566 961.675 278.4 961.627 278.245C961.58 278.088 961.499 277.947 961.384 277.822C961.273 277.696 961.126 277.592 960.945 277.509ZM965.869 279.05C966.14 279.173 966.368 279.333 966.555 279.53C966.743 279.723 966.881 279.944 966.969 280.192C967.058 280.438 967.091 280.708 967.068 281.002C967.05 281.295 966.967 281.602 966.82 281.923C966.764 282.048 966.712 282.125 966.666 282.155C966.621 282.184 966.561 282.182 966.486 282.148L963.482 280.777C963.358 281.065 963.283 281.331 963.258 281.575C963.233 281.818 963.25 282.04 963.31 282.239C963.371 282.436 963.472 282.609 963.612 282.759C963.753 282.906 963.93 283.029 964.144 283.126C964.344 283.217 964.525 283.273 964.688 283.293C964.855 283.312 965.003 283.319 965.131 283.313C965.26 283.306 965.368 283.297 965.457 283.283C965.55 283.268 965.622 283.272 965.672 283.295C965.738 283.325 965.777 283.374 965.789 283.44L965.88 283.832C965.728 283.906 965.563 283.956 965.385 283.983C965.209 284.007 965.03 284.011 964.846 283.996C964.666 283.982 964.487 283.95 964.308 283.901C964.128 283.855 963.956 283.794 963.793 283.72C963.481 283.577 963.216 283.394 962.999 283.169C962.786 282.943 962.63 282.685 962.529 282.394C962.432 282.103 962.399 281.782 962.428 281.433C962.458 281.084 962.562 280.715 962.74 280.326C962.884 280.011 963.065 279.738 963.285 279.508C963.508 279.279 963.755 279.107 964.028 278.991C964.301 278.871 964.594 278.815 964.907 278.821C965.222 278.824 965.542 278.901 965.869 279.05ZM965.621 279.642C965.237 279.467 964.885 279.441 964.563 279.563C964.243 279.683 963.967 279.927 963.734 280.295L966.191 281.415C966.275 281.231 966.326 281.052 966.345 280.877C966.365 280.699 966.351 280.533 966.303 280.378C966.256 280.221 966.175 280.08 966.06 279.955C965.948 279.829 965.802 279.725 965.621 279.642ZM968.001 285.65C967.644 285.488 967.415 285.263 967.312 284.975C967.213 284.689 967.249 284.359 967.42 283.985L968.68 281.221L968.137 280.973C968.089 280.951 968.055 280.919 968.034 280.878C968.015 280.833 968.019 280.781 968.046 280.722L968.191 280.405L968.974 280.649L969.793 279.337C969.819 279.295 969.855 279.268 969.9 279.257C969.946 279.242 969.994 279.246 970.045 279.269L970.446 279.452L969.736 281.008L971.029 281.598L970.767 282.173L969.474 281.583L968.237 284.293C968.151 284.484 968.132 284.646 968.182 284.78C968.233 284.914 968.33 285.014 968.476 285.081C968.559 285.119 968.635 285.141 968.704 285.147C968.778 285.152 968.843 285.151 968.899 285.145C968.956 285.138 969.004 285.131 969.043 285.124C969.087 285.115 969.121 285.116 969.144 285.127C969.186 285.146 969.212 285.188 969.221 285.254L969.28 285.738C969.085 285.804 968.874 285.83 968.647 285.816C968.421 285.799 968.206 285.744 968.001 285.65ZM973.871 282.7C974.142 282.824 974.37 282.984 974.557 283.18C974.745 283.374 974.883 283.595 974.971 283.843C975.06 284.088 975.093 284.358 975.07 284.653C975.051 284.946 974.969 285.253 974.822 285.574C974.765 285.699 974.714 285.776 974.668 285.805C974.623 285.835 974.563 285.832 974.488 285.798L971.484 284.428C971.359 284.716 971.285 284.982 971.26 285.225C971.235 285.469 971.252 285.69 971.312 285.89C971.373 286.086 971.474 286.26 971.613 286.41C971.755 286.557 971.932 286.679 972.146 286.777C972.345 286.867 972.526 286.923 972.689 286.944C972.857 286.963 973.005 286.969 973.133 286.963C973.261 286.957 973.37 286.947 973.459 286.934C973.552 286.919 973.623 286.923 973.674 286.946C973.739 286.976 973.778 287.024 973.791 287.091L973.882 287.482C973.729 287.556 973.565 287.607 973.387 287.634C973.211 287.657 973.031 287.662 972.848 287.646C972.668 287.632 972.488 287.601 972.31 287.551C972.13 287.505 971.958 287.445 971.795 287.37C971.483 287.228 971.218 287.044 971.001 286.82C970.788 286.593 970.631 286.335 970.53 286.045C970.434 285.753 970.4 285.433 970.43 285.084C970.46 284.735 970.564 284.366 970.742 283.976C970.885 283.661 971.067 283.389 971.287 283.159C971.51 282.93 971.757 282.757 972.029 282.641C972.303 282.522 972.596 282.465 972.909 282.471C973.224 282.475 973.544 282.551 973.871 282.7ZM973.623 283.292C973.239 283.117 972.887 283.091 972.565 283.214C972.245 283.333 971.968 283.577 971.736 283.945L974.192 285.066C974.276 284.881 974.328 284.702 974.346 284.527C974.366 284.35 974.352 284.184 974.305 284.029C974.258 283.871 974.177 283.73 974.061 283.606C973.95 283.479 973.804 283.375 973.623 283.292ZM974.667 288.605L976.727 284.089L977.199 284.305C977.312 284.356 977.358 284.444 977.338 284.567L977.177 285.086C977.472 284.959 977.77 284.883 978.072 284.859C978.377 284.836 978.688 284.898 979.006 285.043C979.253 285.155 979.451 285.296 979.6 285.464C979.754 285.631 979.858 285.819 979.914 286.028C979.974 286.235 979.988 286.459 979.958 286.699C979.927 286.94 979.853 287.188 979.736 287.444L978.425 290.319L977.631 289.957L978.943 287.082C979.099 286.74 979.141 286.44 979.069 286.181C979.001 285.92 978.806 285.716 978.485 285.57C978.251 285.463 978.005 285.419 977.748 285.438C977.495 285.459 977.238 285.527 976.977 285.641L975.46 288.967L974.667 288.605ZM982.938 292.378L982.585 292.218C982.508 292.182 982.451 292.142 982.414 292.097C982.378 292.051 982.37 291.986 982.39 291.902L982.492 291.443C982.324 291.495 982.164 291.539 982.012 291.574C981.861 291.605 981.71 291.622 981.558 291.625C981.407 291.624 981.254 291.607 981.098 291.571C980.944 291.537 980.782 291.481 980.609 291.402C980.434 291.322 980.28 291.223 980.147 291.105C980.018 290.985 979.92 290.851 979.852 290.701C979.784 290.552 979.749 290.387 979.749 290.207C979.752 290.026 979.801 289.833 979.895 289.627C979.976 289.449 980.103 289.301 980.276 289.182C980.45 289.06 980.674 288.985 980.95 288.956C981.228 288.929 981.562 288.955 981.952 289.037C982.344 289.115 982.798 289.264 983.315 289.486L983.475 289.134C983.635 288.783 983.68 288.484 983.61 288.236C983.544 287.987 983.364 287.796 983.07 287.661C982.877 287.573 982.702 287.524 982.545 287.513C982.392 287.501 982.253 287.504 982.126 287.522C982.004 287.538 981.896 287.555 981.801 287.573C981.711 287.589 981.632 287.582 981.564 287.551C981.51 287.526 981.469 287.491 981.439 287.445C981.414 287.398 981.399 287.348 981.395 287.296L981.368 286.977C981.727 286.85 982.078 286.793 982.421 286.805C982.763 286.818 983.11 286.904 983.461 287.064C983.713 287.179 983.919 287.323 984.077 287.496C984.235 287.669 984.347 287.86 984.413 288.07C984.479 288.279 984.498 288.505 984.47 288.747C984.442 288.989 984.371 289.237 984.255 289.489L982.938 292.378ZM981.1 290.953C981.239 291.016 981.373 291.061 981.501 291.088C981.631 291.111 981.758 291.12 981.882 291.116C982.01 291.11 982.137 291.09 982.263 291.058C982.392 291.027 982.523 290.985 982.656 290.93L983.085 289.99C982.714 289.835 982.39 289.723 982.112 289.654C981.836 289.582 981.601 289.546 981.407 289.547C981.213 289.548 981.055 289.582 980.935 289.65C980.817 289.718 980.73 289.815 980.673 289.94C980.619 290.058 980.592 290.17 980.591 290.274C980.59 290.377 980.61 290.472 980.649 290.559C980.69 290.642 980.749 290.717 980.826 290.785C980.904 290.849 980.996 290.905 981.1 290.953ZM984.167 292.939L987.162 286.372L987.96 286.736L986.728 289.438C987.014 289.306 987.307 289.23 987.608 289.209C987.912 289.187 988.221 289.246 988.533 289.389C988.794 289.508 989.008 289.665 989.175 289.859C989.341 290.054 989.454 290.283 989.513 290.547C989.573 290.808 989.578 291.101 989.526 291.426C989.477 291.747 989.366 292.096 989.195 292.47C989.043 292.803 988.857 293.093 988.637 293.341C988.417 293.585 988.175 293.775 987.909 293.908C987.648 294.04 987.367 294.112 987.068 294.123C986.773 294.132 986.474 294.067 986.171 293.929C985.88 293.796 985.657 293.626 985.504 293.42C985.353 293.215 985.248 292.976 985.189 292.705L984.962 293.097C984.886 293.199 984.792 293.224 984.679 293.173L984.167 292.939ZM987.985 289.904C987.727 289.786 987.472 289.742 987.222 289.771C986.975 289.802 986.72 289.888 986.457 290.031L985.461 292.215C985.514 292.476 985.608 292.686 985.744 292.845C985.883 293.006 986.059 293.135 986.273 293.232C986.695 293.425 987.088 293.422 987.451 293.225C987.813 293.028 988.122 292.652 988.375 292.096C988.509 291.802 988.598 291.537 988.641 291.301C988.686 291.067 988.691 290.861 988.654 290.683C988.618 290.501 988.543 290.347 988.429 290.219C988.315 290.092 988.167 289.987 987.985 289.904ZM992.999 289.035L990.003 295.601L989.209 295.239L992.205 288.673L992.999 289.035ZM995.282 292.468C995.552 292.591 995.781 292.751 995.968 292.948C996.156 293.141 996.294 293.362 996.382 293.61C996.471 293.856 996.504 294.126 996.481 294.42C996.462 294.713 996.379 295.02 996.233 295.341C996.176 295.466 996.125 295.543 996.079 295.573C996.033 295.602 995.973 295.6 995.899 295.566L992.894 294.195C992.77 294.483 992.695 294.749 992.67 294.993C992.646 295.236 992.663 295.458 992.723 295.657C992.784 295.854 992.884 296.027 993.024 296.177C993.165 296.324 993.343 296.447 993.557 296.544C993.756 296.635 993.937 296.691 994.1 296.711C994.267 296.73 994.415 296.736 994.544 296.73C994.672 296.724 994.781 296.715 994.869 296.701C994.962 296.686 995.034 296.69 995.085 296.713C995.15 296.743 995.189 296.791 995.202 296.858L995.292 297.25C995.14 297.324 994.975 297.374 994.798 297.401C994.622 297.425 994.442 297.429 994.259 297.414C994.079 297.4 993.899 297.368 993.72 297.319C993.54 297.273 993.369 297.212 993.205 297.138C992.893 296.995 992.629 296.812 992.412 296.587C992.199 296.361 992.042 296.103 991.941 295.812C991.844 295.521 991.811 295.2 991.841 294.851C991.871 294.502 991.975 294.133 992.152 293.744C992.296 293.429 992.478 293.156 992.698 292.926C992.92 292.697 993.168 292.525 993.44 292.408C993.714 292.289 994.007 292.233 994.32 292.239C994.634 292.242 994.955 292.319 995.282 292.468ZM995.033 293.06C994.65 292.885 994.297 292.859 993.976 292.981C993.656 293.101 993.379 293.345 993.147 293.713L995.603 294.833C995.687 294.649 995.738 294.469 995.757 294.295C995.777 294.117 995.763 293.951 995.715 293.796C995.669 293.639 995.588 293.498 995.472 293.373C995.361 293.247 995.215 293.143 995.033 293.06ZM996.042 297.764C996.078 297.687 996.124 297.62 996.182 297.564C996.243 297.509 996.309 297.467 996.379 297.439C996.453 297.411 996.531 297.398 996.613 297.4C996.695 297.401 996.774 297.419 996.851 297.455C996.929 297.49 996.995 297.538 997.049 297.599C997.104 297.66 997.145 297.727 997.173 297.801C997.2 297.874 997.212 297.951 997.207 298.032C997.206 298.114 997.188 298.193 997.152 298.271C997.116 298.351 997.067 298.418 997.006 298.473C996.95 298.526 996.884 298.567 996.811 298.594C996.737 298.622 996.66 298.633 996.58 298.629C996.498 298.627 996.418 298.609 996.341 298.574C996.264 298.538 996.198 298.49 996.143 298.429C996.087 298.371 996.045 298.306 996.017 298.232C995.993 298.16 995.981 298.084 995.981 298.005C995.985 297.925 996.006 297.844 996.042 297.764ZM1002.74 296.926C1002.7 296.948 1002.67 296.963 1002.64 296.969C1002.6 296.976 1002.57 296.97 1002.52 296.949C1002.48 296.929 1002.44 296.889 1002.4 296.829C1002.36 296.767 1002.32 296.696 1002.26 296.615C1002.2 296.533 1002.12 296.448 1002.02 296.36C1001.92 296.27 1001.79 296.187 1001.63 296.111C1001.41 296.01 1001.19 295.962 1000.99 295.965C1000.78 295.965 1000.59 296.013 1000.41 296.108C1000.22 296.205 1000.06 296.346 999.901 296.53C999.748 296.715 999.612 296.938 999.493 297.2C999.368 297.473 999.288 297.731 999.253 297.974C999.219 298.213 999.225 298.432 999.272 298.629C999.319 298.823 999.406 298.995 999.531 299.146C999.661 299.295 999.827 299.415 1000.03 299.507C1000.22 299.595 1000.39 299.646 1000.54 299.658C1000.68 299.667 1000.81 299.663 1000.92 299.644C1001.03 299.626 1001.12 299.607 1001.19 299.586C1001.27 299.563 1001.33 299.564 1001.39 299.588C1001.46 299.619 1001.49 299.668 1001.5 299.733L1001.59 300.125C1001.29 300.276 1000.96 300.341 1000.62 300.32C1000.27 300.295 999.937 300.209 999.61 300.06C999.328 299.931 999.088 299.759 998.892 299.544C998.699 299.33 998.558 299.084 998.469 298.807C998.381 298.526 998.351 298.218 998.379 297.882C998.409 297.548 998.509 297.196 998.677 296.828C998.83 296.492 999.018 296.202 999.24 295.959C999.465 295.717 999.714 295.534 999.986 295.411C1000.26 295.285 1000.56 295.225 1000.88 295.23C1001.19 295.235 1001.52 295.315 1001.86 295.471C1002.18 295.615 1002.44 295.794 1002.63 296.009C1002.83 296.221 1002.98 296.464 1003.08 296.737L1002.74 296.926ZM1006.05 297.38C1006.38 297.53 1006.65 297.721 1006.87 297.951C1007.08 298.183 1007.24 298.442 1007.33 298.729C1007.42 299.016 1007.46 299.326 1007.42 299.659C1007.39 299.991 1007.3 300.333 1007.14 300.687C1006.97 301.044 1006.78 301.342 1006.55 301.581C1006.32 301.821 1006.06 302 1005.78 302.117C1005.51 302.235 1005.21 302.288 1004.89 302.276C1004.58 302.262 1004.26 302.18 1003.93 302.029C1003.6 301.879 1003.32 301.689 1003.11 301.46C1002.89 301.229 1002.74 300.97 1002.64 300.683C1002.55 300.395 1002.51 300.086 1002.54 299.755C1002.57 299.423 1002.67 299.079 1002.83 298.722C1002.99 298.369 1003.19 298.072 1003.42 297.833C1003.65 297.591 1003.91 297.411 1004.19 297.295C1004.47 297.178 1004.76 297.125 1005.08 297.136C1005.4 297.148 1005.72 297.229 1006.05 297.38ZM1004.21 301.41C1004.66 301.613 1005.06 301.616 1005.41 301.419C1005.77 301.22 1006.07 300.852 1006.31 300.317C1006.56 299.779 1006.64 299.31 1006.56 298.91C1006.47 298.509 1006.21 298.207 1005.76 298.004C1005.54 297.901 1005.32 297.85 1005.12 297.851C1004.92 297.853 1004.73 297.9 1004.55 297.994C1004.38 298.09 1004.21 298.232 1004.06 298.42C1003.91 298.607 1003.77 298.834 1003.65 299.101C1003.53 299.369 1003.44 299.62 1003.4 299.855C1003.36 300.092 1003.36 300.309 1003.41 300.504C1003.45 300.698 1003.54 300.872 1003.68 301.025C1003.81 301.179 1003.98 301.307 1004.21 301.41ZM1007.08 303.393L1009.14 298.877L1009.62 299.093C1009.73 299.144 1009.77 299.232 1009.75 299.355L1009.6 299.846C1009.86 299.716 1010.12 299.633 1010.39 299.596C1010.66 299.56 1010.93 299.605 1011.2 299.729C1011.51 299.869 1011.71 300.066 1011.82 300.321C1011.94 300.577 1011.97 300.868 1011.92 301.195C1012.06 301.06 1012.2 300.956 1012.36 300.883C1012.52 300.812 1012.68 300.766 1012.84 300.747C1013 300.728 1013.17 300.734 1013.32 300.763C1013.49 300.794 1013.64 300.843 1013.79 300.911C1014.03 301.019 1014.22 301.154 1014.37 301.316C1014.52 301.475 1014.63 301.657 1014.69 301.861C1014.76 302.066 1014.77 302.292 1014.74 302.537C1014.72 302.779 1014.64 303.037 1014.52 303.31L1013.2 306.186L1012.41 305.824L1013.72 302.948C1013.88 302.595 1013.93 302.292 1013.86 302.04C1013.79 301.785 1013.6 301.591 1013.31 301.456C1013.18 301.397 1013.04 301.364 1012.9 301.357C1012.77 301.349 1012.63 301.369 1012.5 301.417C1012.37 301.466 1012.25 301.546 1012.13 301.658C1012.02 301.769 1011.93 301.914 1011.85 302.092L1010.53 304.967L1009.74 304.605L1011.05 301.73C1011.22 301.367 1011.27 301.064 1011.2 300.819C1011.14 300.574 1010.97 300.388 1010.69 300.261C1010.49 300.171 1010.28 300.141 1010.07 300.171C1009.85 300.199 1009.63 300.272 1009.41 300.389L1007.88 303.755L1007.08 303.393Z" fill="white"/>
<path d="M920.681 353.234C911.531 353.234 907.48 354.887 904.186 363.658C900.893 372.429 892.147 392.507 891.983 398.477C891.806 404.673 911.746 423.452 911.026 423.136C910.812 423.035 917.109 411.778 917.109 411.778L905.89 398.022L912.326 379.357L920.681 353.234Z" fill="#FFB9A7"/>
<path d="M917.449 353.02C913.487 353.36 909.612 354.029 906.672 357.537C903.731 361.046 896.374 382.058 896.374 382.058C896.374 382.058 899.819 387.674 910.256 388.507L915.859 373.88L917.449 353.02Z" fill="#4E55A5"/>
<path opacity="0.4" d="M917.449 353.02C913.487 353.36 909.612 354.029 906.672 357.537C903.731 361.046 896.374 382.058 896.374 382.058C896.374 382.058 899.819 387.674 910.256 388.507L915.859 373.88L917.449 353.02Z" fill="black"/>
<path d="M909.65 557.527C909.095 558.057 908.981 558.574 909.007 560.53C909.032 562.486 908.199 564.67 909.196 566.487C909.953 567.85 913.777 568.784 915.721 567.749C917.409 566.642 918.92 565.284 920.201 563.723C921.395 562.348 922.709 561.081 924.125 559.937C925.779 558.675 927.684 557.893 929.413 556.769C930.757 555.898 931.886 554.733 932.714 553.363C933.543 551.992 934.049 550.451 934.196 548.857C934.3 547.812 934.085 546.76 933.578 545.84C933.166 545.351 932.624 544.986 932.015 544.787C931.407 544.589 930.754 544.565 930.133 544.717C928.277 545.008 921.967 548.503 920.504 549.551C918.674 550.825 910.231 556.971 909.65 557.527Z" fill="#AC0015"/>
<path d="M918.812 547.418C918.789 548.093 918.827 548.769 918.926 549.437C918.989 550.838 924.895 547.557 927.318 547.872H927.381C929.628 548.957 927.76 552.1 925.665 553.715C923.57 555.33 917.853 559.533 916.894 560.24C913.815 562.65 910.117 560.694 909.953 559.432C909.688 556.126 909.865 552.642 909.322 547.38L918.812 547.418Z" fill="#FFB9A7"/>
<path d="M944.545 572.254C943.447 572.254 942.955 575.838 942.753 578.564C942.602 580.709 941.794 584.192 942.551 585.77C943.308 587.347 946.186 588.294 950.641 588.231C953.518 588.168 958.036 590.073 961.14 591.752C964.245 593.43 967.791 593.443 971.148 593.014C975.098 592.496 979.174 590.149 979.793 588.496C980.411 586.843 979.578 586.073 970.189 582.186C970.101 582.186 960.295 577.87 955.714 572.935L944.545 572.254Z" fill="#AC0015"/>
<path d="M943.421 565.061H955.044C955.183 567.786 955.397 570.462 955.713 573.049C960.294 577.983 970.1 582.262 970.188 582.299C971.45 582.829 972.611 583.296 973.595 583.726C973.86 584.609 973.52 586.022 969.368 586.704C963.802 587.638 948.772 576.936 945.238 574.349C944.971 574.174 944.714 573.984 944.469 573.781C944.304 571.206 943.926 568.228 943.421 565.061Z" fill="#FFB9A7"/>
<path d="M909.134 548.289C907.872 534.81 905.89 518.064 905.89 511.59C905.793 505.432 906.403 499.284 907.708 493.265C907.708 493.265 905.638 467.041 905.183 452.225C904.224 424.234 903.644 422.959 908.97 408.244C908.97 408.244 952.344 404.13 953.947 422.581C955.929 445.562 957.039 484.04 956.989 494.982C956.989 503.134 956.017 511.968 955.563 530.444C955.335 540.085 955.727 552.781 955.449 565.01C953.379 568.417 944.23 566.903 942.829 565.262C940.62 551.128 936.519 532.084 935.661 524.601C935.087 517.997 935.359 511.347 936.468 504.813C936.468 504.813 931.42 465.691 930.575 459.709C929.286 466.006 928.547 472.403 928.366 478.828C928.366 481.428 926.713 489.858 925.224 504.522C924.543 511.236 921.438 530.822 919.331 547.43C917.816 550.005 910.56 550.838 909.134 548.289Z" fill="#18144C"/>
<path opacity="0.15" d="M930.574 459.696L927.23 440.766C921.531 439.886 916.287 437.133 912.326 432.942C912.326 432.942 914.332 440.514 924.163 443.126L928.088 460.327L928.744 476.001L930.574 459.696Z" fill="#7C7C7C"/>
<path d="M937.175 345.927L935.862 363.153L922.687 362.181L923.621 343.075L937.175 345.927Z" fill="#FFB9A7"/>
<path d="M936.657 305.631C938.89 305.336 941.161 305.581 943.278 306.348C945.396 307.114 947.297 308.379 948.823 310.036C956.572 318.756 948.079 325.18 948.079 325.18L936.657 305.631Z" fill="#263238"/>
<path d="M950.123 326.997C950.123 326.997 953.493 332.045 953.051 332.6C952.278 333.11 951.425 333.486 950.527 333.711L950.123 326.997Z" fill="#F29E8F"/>
<path d="M939.838 310.982C943.106 312.648 948.735 315.74 950.224 327.741C951.738 340.058 948.962 344.337 947.334 345.965C946.198 347.05 940.355 347.466 937.301 346.52C933.515 345.346 925.198 341.283 921.299 334.935C916.718 327.476 915.759 317.506 921.009 313.582C928.366 308.067 937.074 309.518 939.838 310.982Z" fill="#FFB9A7"/>
<path d="M941.466 325.142C948.293 321.671 946.514 312.61 946.514 312.61C946.514 312.61 936.771 298.728 918.75 307.688C912.528 310.805 908.793 317.885 908.944 326.177C908.944 328.74 909.449 331.278 910.43 333.646C911.412 336.014 912.85 338.165 914.663 339.977C916.476 341.789 918.628 343.226 920.997 344.206C923.365 345.185 925.904 345.689 928.467 345.687C931.479 345.687 934.368 344.491 936.498 342.36C938.628 340.23 939.825 337.341 939.825 334.329V333.572L939.245 333.761C938.312 333.983 937.339 333.968 936.414 333.719C935.488 333.47 934.64 332.995 933.944 332.335C930.953 329.811 930.587 324.763 934.373 323.425C938.159 322.088 940.141 326.543 940.141 326.543L941.605 330.568C941.958 330.44 942.284 330.243 942.562 329.989C942.839 329.735 943.064 329.429 943.224 329.088C943.383 328.747 943.474 328.378 943.491 328.002C943.507 327.625 943.45 327.25 943.321 326.896C943.171 326.479 942.925 326.102 942.603 325.798C942.28 325.493 941.891 325.268 941.466 325.142Z" fill="#263238"/>
<path d="M939.723 342.961C936.936 342.961 934.675 340.701 934.675 337.913C934.675 335.125 936.936 332.865 939.723 332.865C942.511 332.865 944.771 335.125 944.771 337.913C944.771 340.701 942.511 342.961 939.723 342.961Z" fill="#263238"/>
<path d="M910.698 340.437C907.91 340.437 905.65 338.177 905.65 335.389C905.65 332.601 907.91 330.341 910.698 330.341C913.486 330.341 915.746 332.601 915.746 335.389C915.746 338.177 913.486 340.437 910.698 340.437Z" fill="#263238"/>
<path d="M925.842 349.271C923.054 349.271 920.794 347.011 920.794 344.223C920.794 341.435 923.054 339.175 925.842 339.175C928.63 339.175 930.89 341.435 930.89 344.223C930.89 347.011 928.63 349.271 925.842 349.271Z" fill="#263238"/>
<path d="M933.414 349.271C929.929 349.271 927.104 346.446 927.104 342.961C927.104 339.476 929.929 336.651 933.414 336.651C936.899 336.651 939.724 339.476 939.724 342.961C939.724 346.446 936.899 349.271 933.414 349.271Z" fill="#263238"/>
<path d="M917.007 348.009C913.522 348.009 910.697 345.184 910.697 341.699C910.697 338.214 913.522 335.389 917.007 335.389C920.492 335.389 923.317 338.214 923.317 341.699C923.317 345.184 920.492 348.009 917.007 348.009Z" fill="#263238"/>
<path d="M913.222 395.335C906.76 374.499 907.631 372.253 908.893 363.343C909.688 357.676 912.212 354.181 917.954 352.856L923.103 352.3C922.699 356.086 935.004 356.528 936.506 353.739L946.097 353.903C948.81 354.862 955.057 368.302 956.067 377.275C956.887 384.557 951.183 390.88 951.183 390.88C950.968 393.77 953.025 399.587 953.025 399.587C953.025 399.587 954.048 417.192 954.628 426.216C954.628 426.216 949.58 433.056 927.382 431.15C912.238 429.888 904.274 422.568 904.274 422.568C905.673 413.045 908.7 403.832 913.222 395.335Z" fill="#029AE6"/>
<path d="M948.23 402.906C946.879 400.382 944.444 373.88 943.535 364.819L957.834 372.114L961.014 397.858C961.796 399.562 968.308 413.356 972.902 418.555C973.725 419.465 974.851 420.043 976.069 420.183C979.351 420.574 981.117 421.723 983.97 422.821C986.191 423.679 987.642 423.464 987.68 424.083C987.636 424.753 987.344 425.383 986.861 425.85C986.378 426.316 985.739 426.586 985.067 426.607C983.561 426.704 982.048 426.619 980.562 426.354C982.528 428.128 984.743 429.604 987.137 430.734C992.728 433.409 995.883 435.782 988.753 439.252C984.285 441.397 977.483 440.022 969.469 431.68C967.16 429.295 964.093 425.37 961.506 422.013C955.36 414.189 951.953 409.885 948.23 402.906Z" fill="#FFB9A7"/>
<path d="M958.654 369.779C958.086 361.79 955.171 353.613 946.16 353.915C942.993 357.386 942.601 362.585 943.321 370.675C943.926 377.527 945.138 390.084 945.138 390.084C948.091 391.927 957.682 390.816 960.9 388.28L958.654 369.779Z" fill="#4E55A5"/>
<path opacity="0.4" d="M958.654 369.779C958.086 361.79 955.171 353.613 946.16 353.915C942.993 357.386 942.601 362.585 943.321 370.675C943.926 377.527 945.138 390.084 945.138 390.084C948.091 391.927 957.682 390.816 960.9 388.28L958.654 369.779Z" fill="black"/>
</svg>
