<svg width="1440" height="750" viewBox="0 0 1440 750" fill="none" xmlns="http://www.w3.org/2000/svg">
<path d="M-1 525.216C-1 525.216 1193.14 1030.98 1439 525.216C1558.51 279.359 1439 -174.784 1439 -174.784H-1V525.216Z" fill="#607AD6"/>
<path d="M1209.69 507.788L1312.4 566.625L1350.91 589L1376.55 573.145V559.886L1282.99 516.075C1277.56 511.792 1277.46 509.169 1282.99 504.059L1300.8 493.7C1311.07 486.739 1319.99 491.905 1323.16 495.358C1334.43 514.583 1357.95 513.175 1366.23 504.059C1377 492.209 1367.89 473.812 1346.77 476.712L1326.48 464.696C1314.27 458.697 1307.2 458.822 1294.18 464.696L1256.49 486.657C1247.42 490.865 1242.43 490.733 1233.71 486.657L1217.98 477.955C1210.94 472.569 1210.11 461.796 1215.08 458.481L1354.64 376.855C1375.76 366.911 1381.14 344.536 1354.64 329.206L1249.86 265.811C1242.41 260.424 1242 250.48 1249.86 244.265L1261.87 236.807C1270.07 232.121 1275.06 231.303 1285.48 236.807L1315.3 254.209C1319.02 268.297 1348.01 275.341 1364.58 262.91C1380.22 251.173 1365.4 237.221 1344.28 236.807L1327.31 226.862C1282.56 194.725 1259.08 194.623 1220.05 226.862C1198.1 249.237 1201.83 276.169 1236.2 291.5C1246.14 296.472 1246 301.637 1240.75 305.588L1225.02 305.064L1223.73 314.594L1251.9 331.168C1251.9 331.168 1268.46 319.566 1272.19 318.323C1275.91 317.08 1282.32 317.814 1291.28 322.576L1323.16 342.05C1333.93 347.851 1339.73 355.724 1323.16 363.596L1203.07 432.377C1163.73 454.752 1169.94 491.214 1209.69 507.788Z" fill="#2C459A"/>
<path d="M1207.21 495.358L1309.91 554.195L1348.43 576.569L1377 559.581L1280.51 503.645C1275.08 499.361 1274.97 496.738 1280.51 491.629L1298.32 481.27C1308.59 474.309 1317.5 479.475 1320.68 482.927C1331.94 502.153 1355.47 500.744 1363.75 491.629C1374.52 479.778 1365.4 461.382 1344.28 464.282L1323.99 452.266C1311.78 446.266 1304.72 446.392 1291.69 452.266L1254 474.226C1244.93 478.434 1239.94 478.303 1231.23 474.226L1215.49 465.525C1208.45 460.138 1207.62 449.366 1212.59 446.051L1352.15 364.425C1373.27 354.481 1378.66 332.106 1352.15 316.775L1247.38 253.38C1239.92 247.994 1239.51 238.05 1247.38 231.835L1259.39 224.376C1267.58 219.691 1272.57 218.873 1282.99 224.376L1312.81 241.779C1316.54 255.867 1345.53 262.91 1362.09 250.48C1377.73 238.743 1362.92 224.791 1341.8 224.376L1324.82 214.432C1280.08 182.294 1256.59 182.193 1217.56 214.432C1195.61 236.807 1199.34 263.739 1233.71 279.07C1243.65 284.042 1243.51 289.207 1238.27 293.158L1215.04 309.622L1243.2 326.196L1265.6 310.146C1274.76 304.95 1279.83 305.384 1288.79 310.146L1320.68 329.62C1331.45 335.421 1337.24 343.293 1320.68 351.166L1200.58 419.947C1161.24 442.322 1167.45 478.784 1207.21 495.358Z" fill="#405DC2"/>
<path d="M1081.28 246.642L978.572 187.805L940.059 165.43L909 169.988L909.414 180.347L1007.98 238.355C1013.41 242.638 1013.51 245.261 1007.98 250.371L990.168 260.73C979.898 267.691 970.98 262.525 967.805 259.072C956.541 239.847 933.019 241.255 924.736 250.371C913.969 262.221 923.08 280.618 944.2 277.718L964.492 289.734C976.699 295.733 983.768 295.608 996.794 289.734L1034.48 267.773C1043.55 263.565 1048.54 263.697 1057.26 267.773L1072.99 276.475C1080.03 281.861 1080.86 292.634 1075.89 295.949L936.332 377.575C915.211 387.519 909.828 409.894 936.332 425.224L1041.11 488.619C1048.56 494.006 1048.97 503.95 1041.11 510.165L1029.1 517.623C1020.9 522.309 1015.91 523.127 1005.49 517.623L975.674 500.221C971.946 486.133 942.958 479.089 926.393 491.52C910.751 503.257 925.564 517.209 946.685 517.623L963.664 527.568C1008.4 559.705 1031.89 559.807 1070.92 527.568C1092.87 505.193 1089.14 478.261 1054.77 462.93C1044.83 457.958 1044.97 452.793 1050.22 448.842L1063.47 440.97L1060.98 428.539L1034.89 424.396L1022.88 431.854C1013.72 437.049 1008.65 436.616 999.693 431.854L967.805 412.38C957.038 406.579 951.24 398.706 967.805 390.834L1087.9 322.053C1127.24 299.678 1121.03 263.216 1081.28 246.642Z" fill="#2C459A"/>
<path d="M1078.79 234.212L976.088 175.375L937.575 153L909 169.988L1005.49 225.925C1010.92 230.208 1011.03 232.831 1005.49 237.941L987.684 248.299C977.413 255.26 968.496 250.095 965.321 246.642C954.057 227.416 930.534 228.825 922.252 237.941C911.485 249.791 920.595 268.188 941.716 265.287L962.008 277.303C974.215 283.303 981.284 283.178 994.31 277.303L1031.99 255.343C1041.07 251.135 1046.06 251.266 1054.77 255.343L1070.51 264.044C1077.55 269.431 1078.38 280.204 1073.41 283.519L933.847 365.145C912.727 375.089 907.344 397.463 933.847 412.794L1038.62 476.189C1046.08 481.575 1046.49 491.52 1038.62 497.735L1026.61 505.193C1018.42 509.879 1013.43 510.697 1003.01 505.193L973.189 487.791C969.462 473.703 940.473 466.659 923.908 479.089C908.267 490.827 923.08 504.779 944.201 505.193L961.18 515.137C1005.92 547.275 1029.41 547.376 1068.44 515.137C1090.39 492.763 1086.66 465.83 1052.29 450.5C1042.35 445.527 1042.49 440.362 1047.73 436.412L1060.98 428.539L1032.41 411.965L1020.4 419.424C1011.24 424.619 1006.17 424.185 997.208 419.424L965.321 399.949C954.554 394.149 948.756 386.276 965.321 378.404L1085.42 309.622C1124.76 287.248 1118.55 250.785 1078.79 234.212Z" fill="#405DC2"/>
<path d="M1327.68 201.801C1329.33 198.072 1332.79 197.105 1334.3 196.829L1342.59 200.972L1348.8 210.916C1348.11 214.231 1351.61 216.552 1352.94 222.518C1354.26 228.485 1349.21 236.191 1343.41 241.992L1338.86 244.478L1341.34 238.678L1345.49 225.833L1345.9 220.446L1346.73 212.988L1341.76 206.773L1327.68 201.801Z" fill="#CD9400"/>
<path fill-rule="evenodd" clip-rule="evenodd" d="M1343.41 241.987C1343.41 241.987 1356.51 233.396 1356.51 219.292C1356.51 211.234 1350.89 201.455 1343.96 197.45C1337.02 193.446 1327.03 197.318 1327.26 205.114C1327.68 218.786 1343.41 241.987 1343.41 241.987ZM1343.6 219.617C1346.77 221.448 1349.34 219.965 1349.34 216.304C1349.34 212.643 1346.77 208.191 1343.6 206.359C1340.43 204.528 1337.86 206.012 1337.86 209.672C1337.86 213.333 1340.43 217.786 1343.6 219.617Z" fill="#CD9400"/>
<path fill-rule="evenodd" clip-rule="evenodd" d="M1346.56 234.391C1348.93 230.909 1351.54 227.068 1351.54 221.778C1351.54 213.72 1345.92 203.941 1338.99 199.936C1332.06 195.932 1326.44 199.218 1326.44 207.276C1326.44 221.867 1338.87 244.612 1338.87 244.612C1338.87 244.612 1342.28 240.746 1345.9 235.36C1346.11 235.039 1346.33 234.717 1346.56 234.391ZM1338.63 222.103C1341.8 223.934 1344.37 222.451 1344.37 218.79C1344.37 215.129 1341.8 210.677 1338.63 208.846C1335.46 207.014 1332.89 208.498 1332.89 212.159C1332.89 215.819 1335.46 220.272 1338.63 222.103Z" fill="#FFBA07"/>
<path d="M926.807 210.088C928.464 206.359 931.915 205.392 933.433 205.116L941.716 209.26L947.927 219.204C947.237 222.519 950.744 224.839 952.069 230.805C953.394 236.772 948.342 244.479 942.544 250.28L937.988 252.766L940.473 246.965L944.614 234.12L945.029 228.734L945.857 221.276L940.887 215.06L926.807 210.088Z" fill="#CD9400"/>
<path fill-rule="evenodd" clip-rule="evenodd" d="M942.544 250.275C942.544 250.275 955.639 241.683 955.639 227.579C955.639 219.521 950.02 209.742 943.087 205.738C936.154 201.733 926.157 205.605 926.393 213.401C926.807 227.073 942.544 250.275 942.544 250.275ZM942.727 227.904C945.896 229.735 948.466 228.252 948.466 224.591C948.466 220.93 945.896 216.478 942.727 214.647C939.558 212.816 936.989 214.299 936.989 217.96C936.989 221.621 939.558 226.073 942.727 227.904Z" fill="#CD9400"/>
<path fill-rule="evenodd" clip-rule="evenodd" d="M945.685 242.678C948.056 239.196 950.67 235.355 950.67 230.065C950.67 222.007 945.05 212.228 938.117 208.224C931.185 204.219 925.565 207.505 925.565 215.563C925.565 230.154 937.998 252.899 937.998 252.899C937.998 252.899 941.412 249.033 945.029 243.647C945.244 243.327 945.464 243.004 945.685 242.678ZM937.758 230.39C940.927 232.221 943.496 230.738 943.496 227.077C943.496 223.416 940.927 218.964 937.758 217.133C934.589 215.302 932.02 216.785 932.02 220.446C932.02 224.107 934.589 228.559 937.758 230.39Z" fill="#FFBA07"/>
<path d="M930.949 448.751C932.606 445.022 936.057 444.055 937.575 443.779L945.858 447.922L952.07 457.866C951.379 461.181 954.886 463.501 956.211 469.468C957.536 475.435 952.484 483.141 946.686 488.942L942.131 491.428L944.615 485.628L948.757 472.783L949.171 467.396L949.999 459.938L945.029 453.723L930.949 448.751Z" fill="#CD9400"/>
<path fill-rule="evenodd" clip-rule="evenodd" d="M946.686 488.938C946.686 488.938 959.781 480.346 959.781 466.242C959.781 458.184 954.161 448.405 947.229 444.4C940.296 440.396 930.299 444.268 930.535 452.064C930.949 465.736 946.686 488.938 946.686 488.938ZM946.87 466.567C950.039 468.398 952.608 466.915 952.608 463.254C952.608 459.593 950.039 455.141 946.87 453.31C943.701 451.479 941.132 452.962 941.132 456.623C941.132 460.284 943.701 464.736 946.87 466.567Z" fill="#CD9400"/>
<path fill-rule="evenodd" clip-rule="evenodd" d="M949.827 481.341C952.197 477.859 954.812 474.018 954.812 468.728C954.812 460.67 949.192 450.891 942.259 446.886C935.327 442.882 929.707 446.168 929.707 454.226C929.707 468.817 942.14 491.562 942.14 491.562C942.14 491.562 945.554 487.696 949.171 482.31C949.386 481.989 949.605 481.667 949.827 481.341ZM941.9 469.053C945.07 470.884 947.639 469.401 947.639 465.74C947.639 462.079 945.07 457.627 941.9 455.796C938.731 453.965 936.162 455.448 936.162 459.109C936.162 462.77 938.731 467.222 941.9 469.053Z" fill="#FFBA07"/>
<path d="M1332.65 443.778C1334.31 440.049 1337.76 439.082 1339.28 438.806L1347.56 442.95L1353.77 452.894C1353.08 456.209 1356.59 458.529 1357.91 464.496C1359.24 470.462 1354.18 478.169 1348.39 483.97L1343.83 486.456L1346.32 480.655L1350.46 467.81L1350.87 462.424L1351.7 454.966L1346.73 448.75L1332.65 443.778Z" fill="#CD9400"/>
<path fill-rule="evenodd" clip-rule="evenodd" d="M1348.39 483.965C1348.39 483.965 1361.48 475.373 1361.48 461.269C1361.48 453.211 1355.86 443.432 1348.93 439.428C1342 435.423 1332 439.295 1332.23 447.091C1332.65 460.763 1348.39 483.965 1348.39 483.965ZM1348.57 461.594C1351.74 463.425 1354.31 461.942 1354.31 458.281C1354.31 454.62 1351.74 450.168 1348.57 448.337C1345.4 446.506 1342.83 447.989 1342.83 451.65C1342.83 455.311 1345.4 459.763 1348.57 461.594Z" fill="#CD9400"/>
<path fill-rule="evenodd" clip-rule="evenodd" d="M1351.53 476.368C1353.9 472.886 1356.51 469.045 1356.51 463.755C1356.51 455.697 1350.89 445.918 1343.96 441.914C1337.03 437.909 1331.41 441.195 1331.41 449.253C1331.41 463.844 1343.84 486.59 1343.84 486.59C1343.84 486.59 1347.25 482.723 1350.87 477.337C1351.09 477.017 1351.31 476.694 1351.53 476.368ZM1343.6 464.08C1346.77 465.911 1349.34 464.428 1349.34 460.767C1349.34 457.106 1346.77 452.654 1343.6 450.823C1340.43 448.992 1337.86 450.475 1337.86 454.136C1337.86 457.797 1340.43 462.249 1343.6 464.08Z" fill="#FFBA07"/>
<path d="M1157.08 296.941C1159.58 295.717 1163.22 295.66 1165.83 296.803L1271.14 342.931C1272.9 343.7 1273.92 344.903 1273.89 346.174L1273.6 360.513C1273.58 361.557 1272.85 362.555 1271.57 363.296L1105.68 459.472C1102.92 461.07 1098.42 461.052 1095.71 459.433L992.302 397.814C991.045 397.066 990.343 396.065 990.343 395.024L990.343 380.516C990.343 379.339 991.24 378.221 992.797 377.458L1157.08 296.941Z" fill="#333333"/>
<rect width="114.015" height="174.103" rx="4.8844" transform="matrix(0.866679 0.498866 -0.866679 0.498866 1162.52 287.267)" fill="#E2E2E2"/>
<rect width="114.015" height="174.103" rx="4.8844" transform="matrix(0.866679 0.498866 -0.866679 0.498866 1162.52 293.14)" fill="white"/>
<rect width="34.3797" height="117.159" rx="3.28686" transform="matrix(0.866679 0.498866 -0.866679 0.498866 1177.02 327.853)" fill="#AAAAAA" fill-opacity="0.2"/>
<path fill-rule="evenodd" clip-rule="evenodd" d="M1167.5 282.766C1164.77 281.198 1160.36 281.198 1157.63 282.766L991.615 378.326C988.89 379.894 988.89 382.437 991.615 384.006L1096.93 444.624C1099.65 446.193 1104.07 446.193 1106.8 444.624L1272.81 349.065C1275.54 347.496 1275.54 344.953 1272.81 343.384L1167.5 282.766ZM1166.75 289.704C1164.41 288.358 1160.62 288.358 1158.29 289.704L1015.86 371.685C1013.52 373.031 1013.52 375.213 1015.86 376.558L1106.21 428.563C1108.55 429.909 1112.34 429.909 1114.68 428.563L1257.1 346.582C1259.44 345.236 1259.44 343.055 1257.1 341.709L1166.75 289.704Z" fill="#4D4D4D"/>
<path d="M1083.5 332.566L1082.21 333.644L1084.15 334.722L1085.44 333.644L1083.5 332.566Z" fill="#2D2D2E"/>
<path d="M1082.21 333.644L1084.15 334.722V341.62L1082.21 340.758V333.644Z" fill="#4C4C4C"/>
<path d="M1099.01 299.941L1161.43 264.6L1196.12 284.864L1134.29 320.001L1099.01 299.941Z" fill="#F2F2F2"/>
<path d="M1099.38 299.459L1134.82 319.722V359.742L1099.38 339.123V299.459Z" fill="#898989"/>
<path d="M1129.82 356.71V326.746L1108.71 334.075L1094.71 362.961V387.104L1195.11 329.333V325.452L1134.78 359.727L1129.82 356.71Z" fill="url(#paint0_linear)"/>
<path d="M1086.3 321.572L1103.75 311.441L1129.82 326.746L1112.59 336.662L1108.06 359.943L1094.7 372.446V387.105L1068.85 372.446V362.099V357.141L1081.99 344.638L1086.3 321.572Z" fill="url(#paint1_linear)"/>
<path d="M1110.65 338.602L1087.16 324.806L1083.93 341.62L1107.63 355.201L1110.65 338.602Z" fill="url(#paint2_linear)"/>
<path d="M1128.53 330.842L1114.53 338.602L1111.73 354.554L1128.53 345.285V330.842Z" fill="url(#paint3_linear)"/>
<path d="M1134.29 319.507L1196.12 284.369L1196.12 324.896L1134.93 360.033L1134.29 319.507Z" fill="#C2CCDA"/>
<path d="M1169.87 341.608C1169.87 344.458 1167.87 347.924 1165.4 349.35C1162.93 350.775 1163.25 350.518 1160.43 348.035C1160.27 345.055 1162.93 340.452 1165.4 339.027C1167.87 337.602 1169.87 338.757 1169.87 341.608Z" fill="#4C4C4C"/>
<path d="M1166.25 338.817C1166.82 338.674 1168.87 339.162 1169.91 340.542" stroke="#363636" stroke-width="0.334358"/>
<path d="M1162.45 354.21C1161.79 354.378 1159.48 353.559 1158.41 351.536" stroke="#363636" stroke-width="0.334358"/>
<path d="M1169.48 342.736C1169.48 346.448 1166.87 350.961 1163.66 352.817C1160.45 354.673 1160.86 354.339 1157.2 351.105C1156.98 347.224 1160.45 341.231 1163.66 339.376C1166.87 337.52 1169.48 339.024 1169.48 342.736Z" fill="#363636"/>
<ellipse rx="6.71802" ry="6.7207" transform="matrix(0.865911 -0.500199 0 1 1165.38 346.958)" fill="#535456"/>
<ellipse rx="4.22987" ry="4.23155" transform="matrix(0.86591 -0.500199 0 1 1165.81 347.104)" fill="#D1D1D1"/>
<ellipse rx="1.74171" ry="1.7424" transform="matrix(0.865911 -0.500199 0 1 1165.81 347.104)" fill="#3A3A3A"/>
<path d="M1190.98 329.105C1190.98 331.955 1188.98 335.421 1186.51 336.847C1184.05 338.272 1184.36 338.015 1181.55 335.532C1181.38 332.552 1184.05 327.949 1186.51 326.524C1188.98 325.099 1190.98 326.254 1190.98 329.105Z" fill="#4C4C4C"/>
<path d="M1187.36 326.315C1187.93 326.171 1189.99 326.659 1191.02 328.039" stroke="#363636" stroke-width="0.334358"/>
<path d="M1183.57 341.707C1182.9 341.876 1180.59 341.056 1179.52 339.033" stroke="#363636" stroke-width="0.334358"/>
<path d="M1190.59 330.233C1190.59 333.945 1187.99 338.458 1184.77 340.314C1181.56 342.17 1181.97 341.836 1178.31 338.602C1178.09 334.722 1181.56 328.728 1184.77 326.873C1187.99 325.017 1190.59 326.521 1190.59 330.233Z" fill="#363636"/>
<ellipse rx="6.71802" ry="6.7207" transform="matrix(0.86591 -0.500199 0 1 1186.5 334.455)" fill="#535456"/>
<ellipse rx="4.22986" ry="4.23155" transform="matrix(0.86591 -0.5002 0 1 1186.93 334.602)" fill="#D1D1D1"/>
<ellipse rx="1.74171" ry="1.7424" transform="matrix(0.86591 -0.500199 0 1 1186.93 334.602)" fill="#3A3A3A"/>
<path d="M1119.88 370.925C1119.88 373.775 1117.88 377.241 1115.41 378.667C1112.95 380.092 1113.26 379.835 1110.45 377.352C1110.28 374.372 1112.95 369.769 1115.41 368.344C1117.88 366.919 1119.88 368.074 1119.88 370.925Z" fill="#4C4C4C"/>
<path d="M1116.26 368.135C1116.84 367.991 1118.89 368.48 1119.92 369.859" stroke="#363636" stroke-width="0.334358"/>
<path d="M1112.47 383.527C1111.8 383.696 1109.5 382.876 1108.42 380.853" stroke="#363636" stroke-width="0.334358"/>
<path d="M1119.49 372.053C1119.49 375.765 1116.89 380.278 1113.67 382.134C1110.46 383.99 1110.87 383.656 1107.21 380.422C1107 376.542 1110.46 370.549 1113.67 368.693C1116.89 366.837 1119.49 368.341 1119.49 372.053Z" fill="#363636"/>
<ellipse rx="6.71802" ry="6.7207" transform="matrix(0.86591 -0.500199 0 1 1115.4 376.276)" fill="#535456"/>
<ellipse rx="4.22986" ry="4.23155" transform="matrix(0.86591 -0.5002 0 1 1115.83 376.422)" fill="#D1D1D1"/>
<ellipse rx="1.74171" ry="1.7424" transform="matrix(0.865911 -0.500199 0 1 1115.83 376.422)" fill="#3A3A3A"/>
<path d="M1134.26 319.569L1196.1 284.431L1196.1 324.958L1134.91 360.095L1134.26 319.569Z" fill="#C2CCDA"/>
<rect width="5.75897" height="2.88061" transform="matrix(0.859288 0.511492 0 1 1087.53 376.973)" fill="#DE9753"/>
<rect width="5.75898" height="2.88062" transform="matrix(0.859286 0.511494 0 1 1070.14 367.057)" fill="#DE9753"/>
<rect width="10.2264" height="2.88062" transform="matrix(0.859287 0.511494 0 1 1076.54 370.853)" fill="#C4C4C4"/>
<rect width="5.01468" height="1.72454" transform="matrix(0.859287 -0.511494 0 1 1114.96 359.275)" fill="#898989"/>
<path d="M1114.1 358.435V351.106L1115.39 350.243V357.573L1114.1 358.435Z" fill="#3A3A3A"/>
<path d="M1112.37 348.519L1111.08 349.381L1114.1 351.105L1115.39 350.243L1112.37 348.519Z" fill="#303133"/>
<path d="M1114.1 351.106L1111.08 349.381V356.71L1114.1 358.435V351.106Z" fill="#525357"/>
<defs>
<linearGradient id="paint0_linear" x1="1125.95" y1="328.686" x2="1143.41" y2="359.073" gradientUnits="userSpaceOnUse">
<stop stop-color="#2B4499"/>
<stop offset="0.749464" stop-color="#2B4499"/>
<stop offset="0.75" stop-color="#404143"/>
<stop offset="1" stop-color="#404143"/>
</linearGradient>
<linearGradient id="paint1_linear" x1="1108.71" y1="315.105" x2="1073.99" y2="375.664" gradientUnits="userSpaceOnUse">
<stop stop-color="#3F5CC2"/>
<stop offset="0.234175" stop-color="#405DC2"/>
<stop offset="0.234275" stop-color="#A3A3A3"/>
<stop offset="0.234375" stop-color="#293B7A"/>
<stop offset="0.552083" stop-color="#2A3C7B"/>
<stop offset="0.552183" stop-color="#3F5CC2"/>
<stop offset="0.804454" stop-color="#405DC2"/>
<stop offset="0.810077" stop-color="#415EC2"/>
<stop offset="0.814339" stop-color="#293B7A"/>
<stop offset="0.865219" stop-color="#2A3C7B"/>
<stop offset="0.867454" stop-color="#535456"/>
<stop offset="1" stop-color="#525356"/>
</linearGradient>
<linearGradient id="paint2_linear" x1="1087.81" y1="331.704" x2="1129.39" y2="328.258" gradientUnits="userSpaceOnUse">
<stop stop-color="#A0B3F6"/>
<stop offset="0.192159" stop-color="#A0B3F7"/>
<stop offset="0.195181" stop-color="#607AD6"/>
<stop offset="0.886167" stop-color="#607AD6"/>
<stop offset="0.887989" stop-color="#A0B3F7"/>
<stop offset="0.997653" stop-color="#A0B3F7"/>
</linearGradient>
<linearGradient id="paint3_linear" x1="1087.81" y1="331.704" x2="1129.39" y2="328.258" gradientUnits="userSpaceOnUse">
<stop stop-color="#A0B3F6"/>
<stop offset="0.192159" stop-color="#A0B3F7"/>
<stop offset="0.195181" stop-color="#607AD6"/>
<stop offset="0.886167" stop-color="#607AD6"/>
<stop offset="0.887989" stop-color="#A0B3F7"/>
<stop offset="0.997653" stop-color="#A0B3F7"/>
</linearGradient>
</defs>
</svg>
