<svg xmlns="http://www.w3.org/2000/svg" width="15" height="15" viewBox="0 0 15 15">
    <g fill="none" fill-rule="evenodd">
        <path fill="#D0E2FF" fill-rule="nonzero" d="M7.5.25a7.25 7.25 0 1 0 0 14.5 7.25 7.25 0 0 0 0-14.5zM6.432 9.432L4.311 7.311l2.121 2.121 4.243-4.243-4.243 4.243z"/>
        <g fill="#3C6CBC">
            <path fill-rule="nonzero" d="M7.5 15A7.5 7.5 0 1 1 15 7.5 7.509 7.509 0 0 1 7.5 15zM7.5.5a7 7 0 1 0 7 7 7.008 7.008 0 0 0-7-7z"/>
            <path d="M6.432 9.682a.25.25 0 0 1-.177-.073L4.134 7.487a.25.25 0 0 1 .353-.353l1.945 1.944 4.066-4.065a.25.25 0 1 1 .353.353L6.61 9.609a.25.25 0 0 1-.177.073z"/>
        </g>
    </g>
</svg>
