<svg xmlns="http://www.w3.org/2000/svg" width="74" height="138" viewBox="0 0 74 138">
    <g fill="#FFF" fill-rule="evenodd">
        <path d="M20.67 50.053a10.55 10.55 0 0 0-5.216 0 1.982 1.982 0 0 0 .988 3.838 6.567 6.567 0 0 1 3.24 0 1.977 1.977 0 0 0 2.412-1.425 1.981 1.981 0 0 0-1.425-2.413z"/>
        <path fill-rule="nonzero" d="M69.13 100.572V40.914c0-4.69-3.817-8.507-8.508-8.507a8.453 8.453 0 0 0-4.465 1.27c-.2-11.821-5.025-20.194-9.09-25.169-4.505-5.515-9.013-8.131-9.203-8.24a2.026 2.026 0 0 0-2.014 0c-.19.108-4.698 2.725-9.204 8.24-4.064 4.975-8.89 13.348-9.089 25.17a8.454 8.454 0 0 0-4.465-1.271c-4.69 0-8.507 3.816-8.507 8.507v59.657a14.887 14.887 0 0 0-4.321 10.526v11.915c0 1.118.907 2.025 2.025 2.025h2.74l1.368 5.472a4.18 4.18 0 0 0 4.06 3.17h5.269a4.18 4.18 0 0 0 4.06-3.17l1.369-5.472h1.55l-.83 10.782a2.026 2.026 0 0 0 2.02 2.181H49.82a2.026 2.026 0 0 0 2.02-2.18l-.83-10.783h1.55l1.367 5.472a4.18 4.18 0 0 0 4.061 3.17h5.268a4.18 4.18 0 0 0 4.061-3.17l1.368-5.472h2.74a2.025 2.025 0 0 0 2.025-2.025v-11.915c0-3.97-1.535-7.703-4.32-10.525zM56.145 80.074c.012-.089.02-.179.02-.271V49.42h8.912v47.096l-4.443-4.443a15.159 15.159 0 0 1-4.469-10.789v-.434c0-.26-.007-.52-.02-.777zM43.474 66.84v39.024H30.24V66.84 51.716a6.624 6.624 0 0 1 6.616-6.616 6.624 6.624 0 0 1 6.617 6.616V66.84zm-15.553 43.2a.136.136 0 0 1 .135-.125h6.776v15.393h-8.086l1.175-15.268zm10.962-.125h6.776c.07 0 .13.055.135.125l1.174 15.268h-8.085v-15.393zm-2.026-68.865c-5.882 0-10.667 4.785-10.667 10.667v14.285l-4.252 4.252c-.116.116-.227.236-.34.356V36.458h30.517v34.15c-.112-.119-.222-.24-.339-.355L47.524 66V51.716c0-5.882-4.785-10.667-10.667-10.667zM8.636 49.42h8.912v30.381c0 .093.008.183.02.272-.013.258-.02.517-.02.777v.434a15.16 15.16 0 0 1-4.469 10.79l-4.443 4.442V49.421zm51.986-12.963a4.461 4.461 0 0 1 4.456 4.456v4.456h-8.912v-4.456a4.461 4.461 0 0 1 4.456-4.456zM29.68 11.199c2.835-3.502 5.706-5.732 7.177-6.757 1.473 1.026 4.343 3.256 7.178 6.757 4.946 6.11 7.642 13.236 8.03 21.208H21.65c.388-7.972 3.083-15.098 8.03-21.208zM13.092 36.458a4.461 4.461 0 0 1 4.456 4.456v4.456H8.636v-4.456a4.461 4.461 0 0 1 4.456-4.456zm2.765 93.068a.135.135 0 0 1-.13.102h-5.27a.135.135 0 0 1-.13-.102l-1.122-4.489h7.774l-1.122 4.489zm-11.542-8.54v-9.889c0-2.921 1.138-5.668 3.204-7.734l8.424-8.424A19.182 19.182 0 0 0 21.6 81.285v-.434c0-2.922 1.138-5.669 3.203-7.734l1.388-1.388v34.58a4.203 4.203 0 0 0-2.308 3.419l-.202 2.616H10.932a2.025 2.025 0 0 0 0 4.051h12.437l-.353 4.591h-18.7zm22.12 8.372h8.397v4.591h-8.75l.353-4.59zm12.448 4.591v-4.59h8.397l.353 4.59h-8.75zm24.504-4.423a.135.135 0 0 1-.13.102h-5.269a.135.135 0 0 1-.13-.102l-1.123-4.489h7.775l-1.123 4.489zm6.012-8.54H50.7l-.354-4.59h12.438a2.025 2.025 0 0 0 0-4.052h-12.75l-.2-2.616a4.204 4.204 0 0 0-2.308-3.42V71.73l1.387 1.388a10.866 10.866 0 0 1 3.204 7.734v.434A19.183 19.183 0 0 0 57.77 94.94l8.425 8.425a10.866 10.866 0 0 1 3.203 7.734v9.888z"/>
    </g>
</svg>
