<svg xmlns="http://www.w3.org/2000/svg" width="57" height="57" viewBox="0 0 57 57">
    <g fill="none" fill-rule="evenodd" transform="translate(1 1)">
        <circle cx="27.5" cy="27.5" r="27.5" stroke="#FFF" stroke-width="2"/>
        <path fill="#FFF" fill-rule="nonzero" d="M33 49.784h-9.595V29.792h-5.286V20.61h5.285v-5.155c0-4.734 2.962-10.26 11.311-10.26 2.943 0 5.104.275 5.194.287l.886.116-.213 8.592-.976-.01c-.002 0-2.196-.02-4.588-.02-1.781 0-2.017.44-2.017 2.187v4.265h7.859l-.436 9.182h-7.422v19.99H33zM25.387 47.8h5.627V27.809h7.514l.248-5.214h-7.762v-6.25c0-2.063.476-4.171 4.001-4.171 1.417 0 2.763.007 3.63.014l.12-4.83a46.377 46.377 0 0 0-4.052-.18c-6.876 0-9.327 4.276-9.327 8.277v7.14h-5.285v5.214h5.286v19.99z"/>
    </g>
</svg>
