<svg xmlns="http://www.w3.org/2000/svg" width="33" height="28" viewBox="0 0 33 28">
    <path fill="#FFF" fill-rule="nonzero" d="M6.29 4.58L5.84 1.888h-1.61A2.152 2.152 0 0 0 2.154.272 2.156 2.156 0 0 0 0 2.426C0 3.614.966 4.58 2.154 4.58c1 0 1.837-.69 2.077-1.615h.697l.27 1.615h-.016l.12.625v.002l1.378 7.201.562 2.941.723 3.778c-1.329.1-2.437 1.122-2.567 2.41a2.695 2.695 0 0 0 2.678 2.966h1.077a3.234 3.234 0 0 0 3.231 3.231 3.234 3.234 0 0 0 3.23-3.23h5.924a3.234 3.234 0 0 0 3.23 3.23A3.234 3.234 0 0 0 28 24.504h2.154a.538.538 0 1 0 0-1.078h-2.342a3.233 3.233 0 0 0-3.042-2.154c-1.404 0-2.598.901-3.043 2.154h-6.3a3.233 3.233 0 0 0-3.042-2.154c-1.404 0-2.597.901-3.042 2.154H8.077a1.62 1.62 0 0 1-1.607-1.781c.081-.813.832-1.449 1.708-1.449H8.631l3.3-.001 5.838-.002 3.848-.002h5.845v-.001h2.166a2.688 2.688 0 0 0 2.686-2.686V4.574L6.29 4.58zM2.153 3.503a1.078 1.078 0 0 1 0-2.154 1.078 1.078 0 0 1 0 2.154zM24.769 22.35c1.188 0 2.154.966 2.154 2.154a2.156 2.156 0 0 1-2.154 2.154 2.156 2.156 0 0 1-2.154-2.154c0-1.188.966-2.154 2.154-2.154zm-12.384 0c1.187 0 2.153.966 2.153 2.154a2.156 2.156 0 0 1-2.153 2.154 2.156 2.156 0 0 1-2.154-2.154c0-1.188.966-2.154 2.154-2.154zM31.238 9.426h-3.776V5.651h3.776v3.775zm-8.623 9.688V15.35h3.77v3.763l-3.77.001zm0-4.842v-3.769h3.77v3.77h-3.77zm-9.692 4.845v-3.768h3.77v3.767l-3.77.001zm0-4.845v-3.769h3.77v3.77h-3.77zm-5.511-3.769h4.434v3.77H8.133l-.721-3.77zm18.973-1.077h-3.77V5.657h3.77v3.77zm-4.847 0H17.77V5.654l3.77-.001v3.773zm-4.846-3.769v3.77h-3.769v-3.77h3.77zm1.077 4.846h3.77v3.77h-3.77v-3.77zm9.693 0h3.769v3.77h-3.77v-3.77zM11.846 5.656v3.77h-4.64l-.722-3.768 5.362-.002zM8.34 15.349h3.507v3.768l-2.785.001-.722-3.769zm9.43 0h3.77v3.765l-3.77.001V15.35zm11.86 3.763h-2.167V15.35h3.776v2.154a1.61 1.61 0 0 1-1.61 1.61z"/>
</svg>
