<svg xmlns="http://www.w3.org/2000/svg" width="28" height="28" viewBox="0 0 28 28">
    <g fill="#FFF" fill-rule="nonzero">
        <path d="M14.664 13.282a.546.546 0 1 0-.773.772.546.546 0 0 0 .773-.772zM21.61 6.335a2.728 2.728 0 1 0-3.859 3.86 2.733 2.733 0 0 0 3.86 0 2.728 2.728 0 0 0 0-3.86zm-.772 3.088a1.64 1.64 0 0 1-2.315 0 1.637 1.637 0 1 1 2.316 0z"/>
        <path d="M27.785.16A.544.544 0 0 0 27.38 0c-.123.005-3.062.123-6.555 1.357-2.799.989-5.132 2.404-6.934 4.206a20.77 20.77 0 0 0-1.173 1.277c-1.782-1.05-3.21-.72-4.112-.237-2.079 1.112-3.365 4.133-3.365 6.293a.546.546 0 0 0 .932.386c1.096-1.096 2.448-1.028 2.89-.97l.19.191c-.376.896-.679 1.786-.9 2.651-.081.314-.054.645.065.948a5.169 5.169 0 0 0-1.474 1.04c-1.405 1.405-1.69 4.829-1.701 4.974a.546.546 0 0 0 .587.587c.145-.011 3.569-.297 4.974-1.702a5.169 5.169 0 0 0 1.039-1.473c.32.126.651.141.948.065a19.2 19.2 0 0 0 2.651-.901l.191.191c.058.442.127 1.794-.97 2.89a.546.546 0 0 0 .387.932c2.16 0 5.18-1.287 6.292-3.365.484-.903.812-2.331-.236-4.113.444-.376.873-.769 1.277-1.173 1.802-1.802 3.217-4.135 4.205-6.934C27.823 3.627 27.94.69 27.945.565a.546.546 0 0 0-.16-.405zM6.461 11.722c.34-1.641 1.324-3.442 2.66-4.157.893-.477 1.869-.43 2.907.137a22.069 22.069 0 0 0-2.294 3.738c-.008-.005-.106-.128-.289-.17-.075-.016-1.519-.327-2.984.452zm3.571 8.507c-.75.75-2.511 1.147-3.624 1.308.162-1.113.558-2.873 1.308-3.623.42-.42.908-.74 1.398-.919l1.836 1.837c-.18.49-.498.977-.918 1.397zm2.488-1.693a.512.512 0 0 1-.477-.155l-1.069-1.069-1.41-1.41a.512.512 0 0 1-.154-.477c.174-.68.403-1.379.681-2.084l4.514 4.513a17.71 17.71 0 0 1-2.085.682zm7.86.288c-.715 1.337-2.515 2.321-4.156 2.66.523-.984.638-2.237.447-2.997-.044-.177-.16-.265-.166-.276a22.077 22.077 0 0 0 3.738-2.293c.568 1.038.615 2.014.137 2.906zm1.23-5.542a19.81 19.81 0 0 1-1.573 1.412 20.97 20.97 0 0 1-4.351 2.698l-5.132-5.132A20.967 20.967 0 0 1 13.25 7.91c.446-.553.92-1.083 1.412-1.574 1.617-1.617 3.704-2.904 6.205-3.83l4.573 4.573c-.926 2.5-2.213 4.587-3.83 6.204zm4.224-7.355l-3.815-3.815a24.539 24.539 0 0 1 4.789-.974c-.087.902-.329 2.71-.974 4.789z"/>
        <path d="M13.12 22.545a.546.546 0 0 0-.772 0l-1.544 1.544a.546.546 0 0 0 .772.772l1.544-1.545a.546.546 0 0 0 0-.771zM5.401 14.826a.546.546 0 0 0-.772 0l-1.544 1.543a.546.546 0 0 0 .772.772L5.4 15.598a.546.546 0 0 0 0-.772zM9.26 23.317a.546.546 0 0 0-.772 0l-3.697 3.697a.546.546 0 1 0 .772.772l3.697-3.697a.546.546 0 0 0 0-.772zM4.894 23.317a.546.546 0 0 0-.772 0L.425 27.014a.546.546 0 1 0 .772.772l3.697-3.697a.546.546 0 0 0 0-.772zM4.629 18.685a.546.546 0 0 0-.772 0L.16 22.382a.546.546 0 0 0 .772.772l3.697-3.697a.546.546 0 0 0 0-.772zM16.98 10.966a.546.546 0 0 0-.773 0l-.772.772a.546.546 0 0 0 .772.772l.772-.772a.546.546 0 0 0 0-.772z"/>
    </g>
</svg>
