<svg xmlns="http://www.w3.org/2000/svg" width="45" height="25" viewBox="0 0 45 25">
    <path fill="#FFF" fill-rule="nonzero" d="M44.03 3.79h-6.41V1.55c0-.852-.692-1.544-1.545-1.544H13.806c-.853 0-1.545.692-1.545 1.545v4.657H6.246a.746.746 0 0 0-.649.373l-3.03 5.29H.747a.746.746 0 0 0-.747.747v8.358c0 .412.334.747.746.747h2.18a4.022 4.022 0 0 0 7.902 0h2.18a.747.747 0 0 0 .32-.083c.152.053.31.08.47.083h9.762a4.022 4.022 0 0 0 7.903 0h4.612c.853 0 1.544-.692 1.544-1.545v-6.814h4.821a.746.746 0 0 0 0-1.492h-4.82V9.32h.843a.746.746 0 0 0 0-1.493h-.844V5.282h6.41a.746.746 0 0 0 0-1.492zM6.68 7.73h5.581v4.142h-7.97L6.679 7.73zm.2 15.776h-.007.008a2.537 2.537 0 1 1 0-5.075 2.537 2.537 0 0 1 0 5.075zm3.948-3.283a4.022 4.022 0 0 0-7.903 0H1.493v-6.859H12.26v6.859h-1.433zm16.694 3.283h-.007.007a2.537 2.537 0 1 1 0-5.075 2.537 2.537 0 0 1 0 5.075zM36.134 3.82h-3.567a.746.746 0 0 0 0 1.492h3.552v2.523h-9.126a.746.746 0 0 0 0 1.492h9.111v2.552H30.97a.746.746 0 0 0 0 1.493h5.12v6.858h-4.62a4.022 4.022 0 0 0-7.903 0l-9.806-.045.052-18.656 22.321.052V3.82z"/>
</svg>
