<svg xmlns="http://www.w3.org/2000/svg" width="37" height="24" viewBox="0 0 37 24">
    <path fill="#FFF" fill-rule="nonzero" stroke="#FFF" stroke-width=".5" d="M34.547 1.015H2.442C1.645 1.015 1 1.66 1 2.457v19.622c0 .796.645 1.442 1.442 1.442h32.105c.796 0 1.442-.646 1.442-1.442V2.457c0-.797-.646-1.442-1.442-1.442zM2.442 2.147h32.105a.31.31 0 0 1 .295.219L18.494 12.577 2.147 2.366a.31.31 0 0 1 .295-.219zm-.31 1.51L13.891 11 2.132 20.328V3.657zm32.725 18.415a.31.31 0 0 1-.31.31H2.442a.31.31 0 0 1-.31-.31v-.302L14.91 11.672l3.283 2.053c.185.116.42.116.604 0l3.283-2.053L34.857 21.77v.302zm0-1.744l-11.79-9.298 11.79-7.305v16.603z"/>
</svg>
