<svg xmlns="http://www.w3.org/2000/svg" width="28" height="35" viewBox="0 0 28 35">
    <g fill="#FFF" fill-rule="nonzero">
        <path d="M13.993 0C6.287 0 .015 6.296.015 14.03c0 .88.08 1.768.248 2.634a13.852 13.852 0 0 0 1.03 3.236c1.507 3.558 4.819 9.025 12.086 14.88a.99.99 0 0 0 1.242 0c7.26-5.855 10.579-11.322 12.085-14.88a13.696 13.696 0 0 0 1.03-3.236c.162-.866.25-1.754.25-2.635C27.97 6.296 21.697 0 13.992 0zm11.785 16.319c0 .014-.008.029-.008.044-.007.036-.029.146-.066.315v.015a11.678 11.678 0 0 1-.811 2.392c-.007.007-.007.022-.015.03-1.367 3.25-4.364 8.21-10.885 13.618-6.521-5.408-9.519-10.368-10.886-13.619-.007-.007-.007-.022-.015-.03-.35-.762-.621-1.57-.811-2.391v-.015c-.044-.169-.059-.279-.066-.315 0-.015-.007-.03-.007-.052a12.025 12.025 0 0 1-.22-2.289c0-6.64 5.389-12.048 12.005-12.048 6.616 0 12.004 5.408 12.004 12.048 0 .778-.073 1.548-.22 2.297z"/>
        <path d="M13.993 5.276c-4.891 0-8.876 3.999-8.876 8.907 0 4.91 3.985 8.908 8.876 8.908 4.89 0 8.875-3.999 8.875-8.908 0-4.908-3.984-8.907-8.875-8.907zm0 15.834c-3.81 0-6.902-3.111-6.902-6.927 0-3.815 3.1-6.926 6.902-6.926 3.801 0 6.901 3.11 6.901 6.926 0 3.816-3.092 6.927-6.901 6.927z"/>
    </g>
</svg>
