<svg xmlns="http://www.w3.org/2000/svg" width="499" height="300" viewBox="0 0 499 300">
    <defs>
        <linearGradient id="a" x1="-29.564%" x2="103.931%" y1="43.469%" y2="58.32%">
            <stop offset="41.82%" stop-color="#E6AF92"/>
            <stop offset="100%" stop-color="#E6A392"/>
        </linearGradient>
        <linearGradient id="b" x1="70.474%" x2="59.169%" y1="83.902%" y2="46.827%">
            <stop offset="41.82%" stop-color="#E6AF92"/>
            <stop offset="100%" stop-color="#E6A392"/>
        </linearGradient>
        <linearGradient id="c" x1="29.459%" x2="40.78%" y1="84.202%" y2="47.041%">
            <stop offset="41.82%" stop-color="#E6AF92"/>
            <stop offset="100%" stop-color="#E6A392"/>
        </linearGradient>
        <linearGradient id="d" x1="-38.442%" x2="99.928%" y1="50.017%" y2="50.017%">
            <stop offset="0%" stop-color="#FFF"/>
            <stop offset="54.55%" stop-color="#9CE6DD"/>
            <stop offset="100%" stop-color="#FFF"/>
        </linearGradient>
    </defs>
    <g fill="none" fill-rule="evenodd">
        <path fill="#AFC6F5" d="M.314 109.985c-.808-8.129 7.366-11.317 9.521-6.377-.673-7.77 3.189-17.964 9.79-18.862 12.53-1.887 8.893 13.203 14.91 13.428 5.48-.18 1.393-13.07 13.878-6.602 3.01 1.437 4.491 6.871 6.602 13.608 4.266-7.635 6.916-2.65 7.68 4.805-20.66 4.805-41.677 4.805-62.38 0z"/>
        <path fill="#E6E6E6" d="M186.916 34.76H390.54v152.022H186.916z"/>
        <path fill="#FDAC19" d="M186.916 34.67H390.54v18.235H186.916z"/>
        <path fill="#3C6CBC" d="M200.748 66.198h175.868v90.988H200.748z"/>
        <path fill="#FFF" d="M318.997 108.683c0 16.706-13.518 30.27-30.27 30.27-16.706 0-30.269-13.564-30.269-30.27 0-16.707 13.563-30.27 30.27-30.27 16.706-.045 30.269 13.563 30.269 30.27z"/>
        <path fill="#FE6A3C" d="M306.916 108.683l-26.721-15.45v30.854l26.721-15.404-26.721-15.45v30.854z"/>
        <path fill="#FFF" d="M209.55 43.787a2.396 2.396 0 0 0 2.381 2.38 2.396 2.396 0 0 0 2.38-2.38 2.396 2.396 0 0 0-2.38-2.38 2.396 2.396 0 0 0-2.38 2.38z"/>
        <path fill="#0086CA" d="M200.3 43.787a2.396 2.396 0 0 0 2.38 2.38 2.396 2.396 0 0 0 2.38-2.38 2.396 2.396 0 0 0-2.38-2.38 2.396 2.396 0 0 0-2.38 2.38z"/>
        <path fill="#FE6A3C" d="M218.847 43.787a2.396 2.396 0 0 0 2.38 2.38 2.396 2.396 0 0 0 2.38-2.38 2.396 2.396 0 0 0-2.38-2.38 2.396 2.396 0 0 0-2.38 2.38z"/>
        <path fill="#FFF" d="M232.23 43.383h144.88v1H232.23z"/>
        <path fill="#FE6A3C" d="M212.784 170.614l-11.272-6.557v13.069l11.272-6.512-11.272-6.557v13.069z"/>
        <path fill="#FFF" d="M247.635 170.21h128.263v1H247.635z"/>
        <g fill="#FFF">
            <path d="M223.473 165.45h2.38v10.283h-2.38zM228.234 165.45h2.38v10.283h-2.38z"/>
        </g>
        <path fill="#FDAC19" d="M276.153 170.614a3.93 3.93 0 0 1-3.952 3.952 3.958 3.958 0 0 1-3.952-3.952c0-2.2 1.796-3.952 3.952-3.952 2.155-.045 3.952 1.751 3.952 3.952z"/>
        <path fill="#0086CA" d="M152.964 165.27c-10.195-.944-14.865 2.47-14.865 2.47l1.572 16.886 13.293.18v-19.537z"/>
        <path fill="#EA5B34" d="M177.17 207.036c-1.796 3.009-3.413 5.3-6.646 5.3-3.234 0-5.883-2.65-5.883-5.884v-10.958c0-3.234-6.827-8.174-3.593-8.174l2.29-2.56c3.234 0 1.887 7.905 7.23 14.82l6.603 7.456z"/>
        <path d="M175.778 211.168c.09.045.764 0 1.572-.09-1.212-.135-1.93-.135-1.572.09z"/>
        <path fill="#FCD4CA" d="M177.17 207.036c-.314.18-.583.36-.898.539-3.547 1.796-5.838 1.706-6.87 1.976l-1.079.27 1.078 2.829c2.92-.27 7.59-.09 9.297-.315 2.245-.27 2.425-.539 2.425-.539-.36-.673-2.38-.539-3.458-.673-.809.09-1.842.09-1.931.045-.36-.225 1.077-.764 2.29-.674 1.213-.135 3.862 1.123 4.087 1.213.494.224 3.143.269 3.503.134.853.045-7.14-4.356-8.443-4.805z"/>
        <path fill="#000" d="M158.398 124.401c-.673 3.279-2.874 25.285-.36 27.755-.852.988-1.526 2.155-2.02 3.458l-.045.045c.36-1.258-.719.539 0 0 0 .045-.045.09-.045.134h-.045c-.404.225-2.38.944-1.033.54-.449.134-.943.269-1.392.404-.404.044-1.347.18-1.572.18-.673 0-.404 1.077-1.123 1.032.494 0-4.805-2.2-4.221-7.41.718-6.108.853-18.773 2.066-23.713 3.099-12.62 8.623-9.835 12.575-10.329 6.96.404 5.748 8.398 6.287 9.431 2.74 4.94-8.533-4.266-9.072-1.527zM187.904 293.802c2.92.899 2.785-2.874 3.503-5.344 2.066 1.033 2.785 4.132 5.21 6.198 1.392 1.122 8.937 3.682 10.913.988-5.165-2.066-6.243-2.111-6.961-2.92-5.3-3.862-6.602-9.88-9.79-15.044-8.668 1.976-1.033 9.7-2.875 16.122z"/>
        <path fill="#EDCAC3" d="M194.64 216.826c-2.649-2.784-10.553-1.661-8.891 5.345.09.404 7.23 53.218 7.23 53.218s.045.135.045.36c-.719.898-2.11 2.155-2.11 2.155s3.951 8.892 7.41 13.428c2.245 2.92 4.176 2.336 4.176 2.336s-.36-.09-1.213-1.707c-1.571-2.964-2.425-9.79-2.964-13.114.674-11.542.719-44.82-2.155-58.787-.674-3.413-.45-2.11-1.527-3.234z"/>
        <path fill="#FCD4CA" d="M161.362 141.602c1.213-2.246-2.11-9.297-1.886-10.06.494-1.572 13.069-6.557 15.045-5.749 1.347.54 6.736-.539-3.099 20.524-.539-.18-1.033-.494-1.482-1.077-1.437-1.932-4.221 5.613-4.536 10.823-.36 5.434-1.527 22.5-1.796 22.994-.18.36-9.072-4.581-10.42-7.455.584-2.695-7.769-16.213-7.005-18.818 14.416 3.997 15.314-11.631 15.18-11.182z"/>
        <path fill="#FCD4CA" d="M177.62 136.347c.045-1.212 1.661-6.197 1.437-7.949-4.806-2.245-5.39-2.335-7.635 1.527-1.168 2.066-5.793 13.024-5.703 13.159.269.135 5.568 4.985 7.5 4.176.269-.09.808-3.278 1.482-3.323.673-.09.808-.449.808-.943 0-.539-.135-.45.404-.539.54-.09.629-.629.225-.988-.674-.584.988-.853 2.02-1.257 1.034-.45-.628-1.078-.538-3.863z"/>
        <path fill="#FFF" d="M175.599 142.545c.135-.135-.943-.629-2.111-.584 0 0 2.066 1.168 2.021.898-.045-.18-.135-.224.09-.314z"/>
        <path fill="url(#a)" d="M46.392 33.054l-2.29-10.374s.584 2.829 1.257 3.862c1.348 1.976 3.054 2.56 2.92 2.65-.764.583-1.887 3.862-1.887 3.862z" transform="translate(120.36 116.317)"/>
        <path fill="#000" d="M164.012 118.787c-11.856 9.701-2.695 23.13-2.695 23.13.719-1.258 2.021-5.255 1.752-6.019-.36-1.078-1.527-1.167-.943-2.515 1.796-4.311 2.245.674 2.245.674.494-1.886 5.794-7.77 7.635-9.162 1.796-1.347 3.638-1.078 3.638-1.078-.315-2.604-6.557-9.161-11.632-5.03z"/>
        <path fill="#FF5B30" d="M170.39 186.153c-8.085 18.862 3.906 37.77 1.347 37.77-7.051 0-23.623 3.188-25.554-9.657 0 0 6.916-23.173-.764-56.497-1.123-4.85 2.021-8.173 7.276-8.173 5.254 0 25.554 17.47 21.691 22.724 0 .09-6.871 10.015-3.997 13.833z"/>
        <path fill="#FE6A3C" d="M168.413 192.216a35.108 35.108 0 0 1 1.931-6.063c-1.572-2.111.674-4.76 3.01-6.692-1.617-.718-27.576-23.308-26.992-21.467 3.638 11.362 10.779 21.737 22.051 34.222z"/>
        <path fill="#000" d="M182.425 124.177c-2.066.494-2.964 1.886-3.638 3.413-1.167-1.886-3.368-4.267-5.568-6.198-1.213.854-2.605 1.527-4.177 2.156-.36.135-.764.27-1.123.404-.135 2.2-4.221 3.279-4.49 5.48.942 1.077 5.748 3.412 6.915 4.58 3.952 3.862 8.084 1.841 9.7-2.92.63-1.84.989-5.433 2.74-6.915-.134-.045-.269 0-.359 0z"/>
        <path fill="#040E31" d="M148.743 194.506c-.584 9.88-17.47 24.745-2.336 36.961 4.76.674 36.422 6.108 39.252 1.752 7.23-11.093 12.71-16.797 14.82-17.246-29.416-3.189-34.401-11.362-32.56-18.772"/>
        <path fill="#FCD4CA" d="M192.44 168.009c2.021-2.605 4.267-3.503 7.276-8.308 1.347-2.156 1.661-1.976 1.661-1.976.404.583-.808 1.571-.808 2.245 0 1.707 2.784-1.033 3.368-1.482 1.392-1.168 2.246-2.245 2.56-1.617.404.719-3.683 2.92-2.92 3.01.72.044.854.224 1.034 1.077.045.135.404.27.629.539 1.347 1.572-6.378 4.266-8.264 6.018-.36.314-4.67 3.054-4.985 3.323-.719-.943 1.123-1.886.45-2.829z"/>
        <path fill="#FCD4CA" d="M198.054 166.662c-9.252 9.835-15.045 16.392-21.198 20.254-3.188 2.021-8.622-.763-1.482-7.365 0 0 13.967-9.341 20.659-14.91 1.257-1.033 2.83 1.167 2.02 2.02z"/>
        <path fill="#FE6A3C" d="M157.096 157.5c4.536 5.39 8.533 13.967 17.964 20.614 1.751 3.054 2.425 8.173.943 9.117-6.916 4.221-14.73-7.59-18.234-10.51-20.568-17.11-9.79-29.73-1.257-20.164l.584.943z"/>
        <path fill="#015288" d="M150.27 245.12c-18.548-.629-26.048-1.976-28.563-5.165-1.617-2.02-1.123-4.49-.494-7.68.898-4.49 3.547-10.598 6.646-17.694 5.434-12.44 12.216-27.89 10.285-38.758l1.167-.224c2.021 11.227-4.85 26.856-10.374 39.43-3.054 7.007-5.748 13.07-6.602 17.426-.584 2.964-.988 5.12.27 6.692 2.2 2.784 9.97 4.131 27.664 4.715v1.258z"/>
        <g fill="#015288">
            <path d="M150 240.45h1.257v54.34H150z"/>
            <path d="M123.778 294.507l25.666-47.897 1.108.594-25.665 47.896zM150.706 247.168l1.108-.595 25.693 47.886-1.108.594z"/>
        </g>
        <path fill="#3C6CBC" d="M185.883 239.461l-52.994-.314-1.751-9.476s26.946-.36 42.305 1.257c15.36 1.617 12.17 4.491 12.17 4.491l.27 4.042z"/>
        <path fill="#015288" d="M186.153 236.766l-60.674-.808 2.021 5.12 59.012-.135z"/>
        <path fill="#000" d="M150.27 280.33c1.661 2.56 3.996-.405 6.107-1.797.898 2.11-.584 4.985-.045 8.084.315 1.751 4.446 8.578 7.68 7.814-2.605-4.94-3.368-5.659-3.413-6.736-1.527-6.423 1.392-11.812 2.29-17.785-7.86-4.132-7.05 6.737-12.62 10.42z"/>
        <path fill="#FCD4CA" d="M203.129 218.847c-.36-3.907-7.23-4.536-10.33 2.066-.18.404-27.53 47.021-27.53 47.021s-.404.719-.943 1.797c-.763.044-1.437.09-1.437.09s-2.784 9.52-3.054 15.314c-.18 3.772 1.707 4.58 1.707 4.58s-.18-.314.18-2.11c.943-4.446 3.053-9.79 5.344-13.383.808-.944 1.706-2.021 2.65-3.19.18-.134.359-.269.494-.358l-.18-.045c9.97-12.036 26.946-33.907 32.335-44.73 1.572-3.19.898-5.48.764-7.052z"/>
        <g>
            <path fill="#B3B3B3" d="M186.332 159.566c-.134-.09-1.257.808-1.392.763l-14.506 26.542 2.47-.045c.18-.224.54-.898.674-1.122l13.114-24.342c.404-.673.404-1.392-.36-1.796z"/>
            <path fill="#FFF" d="M187.77 160.284c-.135-.09-1.168-.628-1.303-.943l-14.865 27.485c.045.135-.045.09-.045.045l-34.716.45c-.045.134-.045 1.302-.045 1.481 0 .899.63 1.258 1.348 1.213l32.155-.404c.54 0 .988-.225 1.213-.674 0 .045 0 .09.045.09.763.449 1.392.045 1.796-.629l14.82-26.317c.405-.629.405-1.347-.404-1.797z"/>
        </g>
        <path fill="#015288" fill-rule="nonzero" d="M67.86 223.518c-3.144-.629-6.243-1.527-9.207-2.56l.27-.763a67.604 67.604 0 0 0 9.071 2.515l-.135.808zm-17.92-6.377c-2.784-1.482-5.524-3.189-8.084-5.12l.494-.629a59.135 59.135 0 0 0 7.95 5.03l-.36.719zm-15.27-11.363a65.06 65.06 0 0 1-6.242-7.23l.629-.494c1.931 2.515 3.997 4.94 6.153 7.14l-.54.584zm-11.496-15.18c-1.572-2.694-2.964-5.568-4.267-8.532l.719-.315c1.257 2.92 2.65 5.794 4.221 8.489l-.673.359zm-7.545-17.514c-.943-3.01-1.707-6.108-2.38-9.252l.763-.18a101.267 101.267 0 0 0 2.335 9.162l-.718.27zM11.81 154.4c-.359-3.144-.539-6.332-.628-9.52h.808c.045 3.143.27 6.332.629 9.43l-.809.09zm.36-18.997l-.809-.045c.225-3.188.584-6.377 1.078-9.476l.764.135a127.59 127.59 0 0 0-1.033 9.386zm3.054-18.638l-.764-.224a79.35 79.35 0 0 1 2.92-9.072l.718.27a92.13 92.13 0 0 0-2.874 9.026zm6.87-17.56l-.718-.359c1.572-2.874 3.279-5.569 5.165-8.039l.629.494a55.419 55.419 0 0 0-5.075 7.905zm77.47-11.9a101.475 101.475 0 0 1-6.421-7.052l.628-.494a100.1 100.1 0 0 0 6.378 7.006l-.584.54zm-4.984-2.875c-2.785-1.706-5.569-3.233-8.309-4.536l.36-.718c2.74 1.302 5.569 2.874 8.353 4.58l-.404.674zm-61.078-.135l-.539-.583a45.978 45.978 0 0 1 7.725-5.66l.404.675c-2.65 1.526-5.21 3.413-7.59 5.568zm44.012-7.949c-3.099-1.033-6.198-1.796-9.162-2.245l.135-.764a62.294 62.294 0 0 1 9.296 2.29l-.269.72zm-27.8-1.257l-.224-.764a40.965 40.965 0 0 1 9.431-1.527l.045.809c-3.144.135-6.287.629-9.251 1.482zm37.815-2.605a56.62 56.62 0 0 1-4.401-8.488l.718-.314a55.029 55.029 0 0 0 4.357 8.353l-.674.449zM80.344 54.88a40.944 40.944 0 0 1-.763-7.724c0-.63 0-1.213.045-1.842l.808.045c-.045.584-.045 1.213-.045 1.797 0 2.47.27 5.03.719 7.545l-.764.18zm1.707-18.727l-.764-.225a42.157 42.157 0 0 1 3.908-8.757l.673.404c-1.617 2.74-2.919 5.614-3.817 8.578zm101.362-13.788c-1.976-2.47-4.132-4.805-6.422-6.871l.539-.584a56.344 56.344 0 0 1 6.512 6.961l-.629.494zM91.482 20.03l-.584-.539a54.176 54.176 0 0 1 7.096-6.422l.494.629a50.097 50.097 0 0 0-7.006 6.332zm78.009-10.284c-2.65-1.662-5.434-3.144-8.353-4.357l.314-.718a55.909 55.909 0 0 1 8.443 4.446l-.404.629zm-63.099-1.123l-.36-.719a72.488 72.488 0 0 1 8.714-3.907l.269.763a62.205 62.205 0 0 0-8.623 3.863zm45.809-6.198a63.652 63.652 0 0 0-9.297-1.482l.045-.808a65.48 65.48 0 0 1 9.431 1.482l-.18.808zm-28.114-.224l-.18-.764c3.144-.674 6.288-1.078 9.476-1.302l.045.808c-3.099.18-6.242.584-9.341 1.258z"/>
        <path fill="#AFC6F5" d="M408.099 97.68c-1.213-7.276 10.733-10.15 13.877-5.704-.988-6.961 4.626-16.123 14.281-16.886 18.234-1.707 12.935 11.811 21.692 12.036 7.994-.135 2.021-11.722 20.21-5.928 4.356 1.302 6.557 6.152 9.655 12.17 6.243-6.871 10.06-2.38 11.183 4.312a324.368 324.368 0 0 1-90.898 0z"/>
        <path fill="#015288" fill-rule="nonzero" d="M404.192 265.599h-.315v-.809h.315c3.009 0 6.062-.269 9.027-.808l.134.764c-3.009.583-6.063.853-9.161.853zm-9.836-.943c-3.054-.584-6.152-1.482-9.206-2.605l.27-.764a57.192 57.192 0 0 0 9.071 2.56l-.135.809zm28.249-2.47l-.27-.719a50.874 50.874 0 0 0 8.443-4.177l.405.674a60.693 60.693 0 0 1-8.578 4.222zm16.257-9.88l-.539-.584a58.462 58.462 0 0 0 6.602-6.737l.629.494a53.396 53.396 0 0 1-6.692 6.826zm12.17-14.641l-.673-.405a52.797 52.797 0 0 0 4.042-8.532l.764.269c-1.123 2.964-2.47 5.883-4.132 8.668zm6.603-17.875l-.764-.134c.404-2.515.629-5.03.629-7.5 0-.63 0-1.258-.045-1.887l.808-.044c.045.628.045 1.302.045 1.93-.045 2.516-.224 5.076-.673 7.635zm-1.662-18.772a38.552 38.552 0 0 0-3.638-8.668l.674-.404c1.572 2.785 2.83 5.749 3.683 8.803l-.719.269zm-9.207-16.213c-2.065-2.245-4.446-4.311-7.05-6.242l.449-.629c2.65 1.931 5.075 4.087 7.14 6.332l-.539.54zm-15.09-11.137a85.25 85.25 0 0 0-8.667-3.728l.27-.763c3.098 1.122 6.062 2.38 8.757 3.727l-.36.764zm-17.739-6.422c-.494-.135-.988-.225-1.527-.36l-.494-.09.225-.449c1.122-2.425 2.2-4.85 3.233-7.23l.719.314c-.988 2.246-1.976 4.536-3.054 6.826.36.09.718.18 1.033.27l-.135.719zm5.794-16.617l-.719-.27a216.043 216.043 0 0 0 3.234-8.892l.763.27a245.492 245.492 0 0 1-3.278 8.892zm6.152-18.01l-.763-.224c.898-3.099 1.706-6.152 2.38-9.161l.763.18a154.657 154.657 0 0 1-2.38 9.206zm4.267-18.547l-.764-.135c.54-3.188.943-6.332 1.258-9.386l.808.09c-.36 3.054-.763 6.242-1.302 9.43zm1.796-18.997h-.808v-1.931c0-2.56-.09-5.075-.27-7.545l.809-.045c.18 2.47.27 5.03.27 7.59.044.673 0 1.302 0 1.93zm-2.2-18.818c-.584-3.143-1.303-6.242-2.201-9.161l.763-.225a86.904 86.904 0 0 1 2.246 9.252l-.808.134zm-5.57-18.008c-1.302-2.875-2.829-5.66-4.49-8.309l.673-.404a62.875 62.875 0 0 1 4.536 8.398l-.718.315zm-10.15-15.854c-2.065-2.38-4.31-4.58-6.69-6.646l.538-.584c2.425 2.066 4.67 4.356 6.737 6.736l-.584.494zM288.324 31.392l-.314-.718c.763-.36 1.527-.719 2.335-1.078l.315.718c-.764.36-1.572.719-2.336 1.078zm111.512-1.302a86.007 86.007 0 0 0-8.218-4.626l.359-.718a70.81 70.81 0 0 1 8.308 4.67l-.449.674zm-100.419-3.368l-.27-.719c2.965-1.123 5.974-2.2 8.983-3.144l.224.764a105.064 105.064 0 0 0-8.937 3.099zm83.398-4.806c-2.919-.988-5.973-1.886-9.116-2.56l.18-.763c3.143.718 6.242 1.572 9.16 2.605l-.224.718zm-65.344-.898l-.18-.764a181.765 181.765 0 0 1 9.297-2.02l.135.763a109.609 109.609 0 0 0-9.252 2.021zm46.931-3.323a106.717 106.717 0 0 0-9.43-.809l.044-.808c3.189.135 6.422.404 9.52.808l-.134.809zm-28.338-.09l-.09-.809c3.189-.359 6.377-.583 9.521-.718l.045.808c-3.099.135-6.288.36-9.476.719z"/>
        <g>
            <path fill="#424DC1" d="M447.979 231.063c-1.707-3.458-1.033-8.668-.09-15.898.584-4.581 1.258-9.79 1.572-16.033l1.707.09c-.315 6.332-.988 11.81-1.572 16.167-.898 6.916-1.527 11.901-.045 14.955l-1.572.719z"/>
            <path fill="#AFC6F5" d="M480.36 153.368c.987 5.03 5.748 12.485 2.47 16.707-2.965 3.817-11.992 3.727-14.058 8.263-3.009 6.647 6.153 6.422 1.078 12.53-2.066 2.515-12.754 11.767-15.628 13.249-1.662.853-5.345 5.793-9.79 3.727-9.791-4.625 10.104-69.52 33.233-74.82 10.598-2.47 1.841 15.943 2.694 20.344z"/>
            <path fill="#424DC1" d="M444.162 207.665l-.854-.18c8.13-36.781 18.234-50.39 28.878-64.805.853-1.123 1.706-2.29 2.515-3.414l.718.54c-.853 1.167-1.706 2.29-2.515 3.413-10.644 14.326-20.703 27.844-28.742 64.446z"/>
            <path fill="#424DC1" d="M472.186 158.578c-5.704-.135-8.399 2.2-12.171 5.434a57.83 57.83 0 0 1-1.707 1.482l-.583-.674a57.83 57.83 0 0 0 1.706-1.482c3.773-3.233 6.737-5.838 12.755-5.658v.898zM451.347 181.841l-.584-.673c.674-.584 1.258-1.123 1.752-1.572 2.38-2.156 3.772-3.458 8.174-4.267l.18.854c-4.132.763-5.435 1.93-7.77 4.042a33.798 33.798 0 0 1-1.752 1.616zM464.416 154.85l-.853.404c1.078-2.155 1.437-5.389 1.751-7.724.225-1.482.405-3.054.809-4.536l.853.225c-.36 1.437-.584 2.964-.808 4.446-.315 2.425-.63 4.895-1.752 7.185zM446.901 239.281c-.763-7.41-.539-13.562-.314-18.503.224-5.793.404-9.97-1.258-12.395l1.393-.988c1.976 2.874 1.796 7.32 1.571 13.428-.224 4.896-.449 10.958.315 18.234l-1.707.224z"/>
            <g>
                <path fill="#424DC1" d="M456.826 134.865c3.503 4.67 6.378 10.06 5.075 16.033-1.167 5.345-9.43 18.368-9.296 24.072.18 8.308 9.61 6.422 7.41 15.18-.898 3.593-2.695 6.826-4.94 9.79-1.258 1.662-2.605 8.623-8.219 8.668-12.35.09-12.305-8.533-15.853-12.44-7.365-7.95-13.653-18.593-10.374-27.171 1.347-3.503 7.23-2.964 8.398-6.512 1.078-3.278-4.132-11.901-4.311-15.898-.36-8.264 7.68-5.524 7.365-9.836-.584-9.251 10.194-26.047 16.302-25.733 12.395.674 5.345 19.76 8.443 23.847z"/>
                <path fill="#FFF" d="M446.452 208.563l-.988-.27c-9.88-41.766-6.108-60.269-2.29-80.344.314-1.572.583-3.144.898-4.76l.853.18c-.314 1.616-.584 3.188-.898 4.76-3.817 19.985-7.41 38.847 2.425 80.434z"/>
                <path fill="#FFF" d="M440.075 158.263l-.809-.359c.36-.808.719-1.572 1.033-2.335 2.246-5.21 3.997-9.297 10.24-12.081l.36.808c-5.929 2.695-7.546 6.423-9.836 11.632-.27.719-.584 1.527-.988 2.335zM441.063 178.473l-.809-.36c.405-.897.72-1.75 1.033-2.47 1.348-3.368 2.156-5.433 6.243-8.397l.539.718c-3.907 2.83-4.626 4.67-5.973 8.039-.315.674-.629 1.527-1.033 2.47zM441.108 144.341l-.674 1.033c0-2.74-1.078-6.467-1.886-9.027-.539-1.616-1.078-3.323-1.392-5.03l.853-.18c.314 1.662.853 3.324 1.392 4.94.853 2.606 1.707 5.345 1.707 8.264z"/>
            </g>
            <g>
                <path fill="#FDAC19" d="M465.494 296.003c1.841-39.386 11.093-66.063 11.766-74.64H418.024c.674 8.577 5.614 26.496 11.766 74.64h35.704z"/>
                <path fill="#FF5B30" d="M479.237 222.036h-64.132s-1.527-6.018 0-6.153c35.03-3.637 64.132 0 64.132 0v6.153z"/>
            </g>
        </g>
        <path fill="#040E31" d="M144.79 292.14l4.177.81c.045 0 2.964-.764 3.009-.764 1.392 2.11 3.189-1.752 5.165-.63 1.93 1.079 2.83 1.348 5.03 2.65.404.27.404.809.045 1.258-1.438 1.796-3.908 1.213-5.435.943-1.527-.27-8.802 2.56-9.43 3.368-.45.54-3.818-.673-3.459-1.706 1.033-2.695.45-4.581.898-5.928zM107.38 291.332l5.21 1.033c.045 0 3.638-.628 3.682-.628 1.842 2.2 3.863-1.572 6.333-.36 2.47 1.213 3.593 1.527 6.377 2.964.539.27.494.809.09 1.258-1.662 1.751-4.76 1.033-6.647.673-1.886-.359-10.733 2.156-11.497 2.92-.494.539-4.76-.854-4.311-1.887 1.123-2.694.27-4.58.763-5.973z"/>
        <path fill="#B6DDD3" d="M91.707 187.814c6.107-4.356 8.398-11.048 9.071-13.338 9.521 8.084 11.318 11.856 26.048 8.937 2.111-.404 5.345 2.2 5.48 5.883.044 2.426-2.875 3.234-8.893 4.85-12.036 3.1-31.706-6.332-31.706-6.332z"/>
        <g>
            <path d="M137.47 185.3c.135.09 1.213-.046 2.515-.18-1.931-.18-3.099-.18-2.515.18z"/>
            <path fill="#FCD4CA" d="M139.716 178.743c-.45.314-.944.583-1.438.853-5.613 2.83-9.206 2.694-10.823 3.144-.584.18-1.168.314-1.706.449.538 1.482 1.122 2.964 1.661 4.49 4.626-.404 12.036-.179 14.73-.493 3.549-.405 3.863-.854 3.863-.854-.539-1.033-3.728-.898-5.479-1.033-1.302.135-2.92.135-3.054.045-.584-.359 1.752-1.212 3.638-1.033 1.886-.18 6.063 1.797 6.467 1.932.808.314 4.94.404 5.524.18 1.302 0-11.362-6.962-13.383-7.68z"/>
        </g>
        <g fill="#B3B3B3">
            <path d="M71.228 298.069l25.868-104.057-9.925-2.38-22.23 106.437z"/>
            <path d="M83.488 248.757l13.608-54.745-9.925-2.38z"/>
        </g>
        <path fill="#E2961B" d="M112.77 218.668c-4.042-2.156-18.459-3.683-21.198-2.515-.809-.584 1.257 11.227.763 6.96l15.988 12.216c9.88 1.303 4.94 32.83-1.796 56.857 7.68 5.973 15.539-.225 19.222.494-.18-1.527 6.467-28.608 4.446-49.312-1.258-13.383-7.32-23.173-17.426-24.7z"/>
        <path fill="#FDAC19" d="M141.198 226.662c-11.318-3.638-26.497-16.123-29.551-14.641-.135.09-23.219.674-26.946 1.527-9.432 2.11-2.156 20.793 5.793 20.928 33.054 1.976 32.11 4.401 37.635 9.296 1.572 1.393 11.137 36.333 16.167 50.974 8.174 2.11 13.114-2.965 12.171-2.83-1.527-1.706-5.344-52.86-15.27-65.254z"/>
        <g fill="#B3B3B3">
            <path d="M168.638 298.069l-22.276-106.437-9.925 2.38 25.868 104.057z"/>
            <path d="M150.045 248.757l-13.608-54.745 9.925-2.38z"/>
        </g>
        <g fill="#B3B3B3">
            <path d="M301.392 298.069L280.69 191.632l-9.926 2.38 25.869 104.057z"/>
            <path d="M284.371 248.757l-13.608-54.745 9.926-2.38z"/>
            <g>
                <path d="M205.554 298.069l25.868-104.057-9.925-2.38-20.659 106.437z"/>
                <path d="M217.814 248.757l13.608-54.745-9.925-2.38z"/>
            </g>
        </g>
        <path fill="#0086CA" d="M152.156 189.746H332.83v6.287H152.156z"/>
        <path fill="#015288" d="M55.868 189.746h109.985v6.287H55.868z"/>
        <g fill="#015288">
            <path d="M93.907 243.862h1.257v54.341h-1.257z"/>
            <path d="M67.661 297.894l25.666-47.896 1.108.593-25.665 47.897zM94.619 250.618l1.108-.594 25.693 47.885-1.109.595z"/>
        </g>
        <g>
            <path fill="#FCD4CA" d="M102.844 121.662c-2.38.045-6.826 2.11-12.8 2.964-.448.09.315 3.368.72 5.928-.045.314.943 1.751.314.988-2.74-3.099-3.997.404-3.368 2.2.943 2.605 1.84 3.279 1.93 3.548.27.719-1.616-.808-2.38 0-.044.09-1.077 7.276-1.077 7.276l-2.336 7.77s1.482 1.526 8.668 1.975c6.961.36 6.422-4.4 6.422-4.4s-.539-7.052.45-6.962c5.209.27 2.424-7.23 3.592-7.32 3.323-.27-.27-1.437-.09-5.614 0-.808.225-8.353-.045-8.353z"/>
            <path fill="url(#b)" d="M8.443 18.144c-.584-.494 6.961 10.554 6.961 10.554s-.494-7.23.45-6.961c.314.044-2.965.134-7.41-3.593z" transform="translate(83.533 121.257)"/>
            <path fill="#000" d="M84.746 123.323c3.862-1.616 1.257-1.437 6.467-4.895 2.604-1.706 4.536-2.066 5.973-1.527.808-.808 1.886-1.302 3.098-1.302a4.36 4.36 0 0 1 4.357 4.356c0 2.425.449 7.32-1.976 7.32-.45 0-.854-.09-1.258-.18-2.02-.134-6.557-2.739-10.509-1.975-.135 1.078-.135 6.108 1.258 7.455-.045.314-.36.404-1.033-.36-2.74-3.098-4.401-.18-3.503 1.528.898 1.706 2.83.943 2.83 1.571 0 1.033-1.258 3.369-2.022 4.132-1.392 1.347-1.841 1.437-1.931-.853-.09-3.234-7.95-12.665-1.751-15.27z"/>
        </g>
        <path fill="#BBE6DD" d="M107.874 160.599c0-4.312-4.356-7.994-8.892-10.285-.225-.134-11.183.988-14.596-.673-.988-.494-14.91 6.152-13.428 16.616 0 0 6.737 24.027 4.805 37.051-1.122 7.68 29.82 9.342 32.111 4.896 1.213-2.38 0-47.605 0-47.605z"/>
        <path fill="#BBE6DD" d="M78.862 167.29c0-4.311.809-7.41 4.626-9.655.18-.135 1.347 1.93 1.347 1.93s9.521-3.637 10.42-3.996c1.077-.45.359-.045 1.392-.629 3.458-1.886 11.856 8.937 11.856 17.47 0 0-.225 25.285 1.392 38.353.943 7.725-29.102 8.803-30.988 4.357-1.078-2.47-.045-47.83-.045-47.83z"/>
        <path fill="#02797D" d="M108.638 188.578c-.18-8.847-.135-16.168-.135-16.168 0-.494-.045-.988-.09-1.482h-8.578c2.156 3.368 8.803 17.65 8.803 17.65z"/>
        <path fill="#000" d="M97.14 134.686c1.348.628 2.606 2.694 5.255 1.796.225-.09.629 2.65.809 5.21.09 1.571 1.571 3.323 1.392 4.805-.27 2.156-1.886 2.92-3.279 2.515-1.122-.314-2.245-.045-3.817-1.302-1.123-.899-2.964-1.752-3.817-3.503-.674-1.348-1.303-3.234-1.617-5.255-.18-1.257.943-3.548-1.527-8.443 2.38 3.368 5.03 3.503 6.602 4.177z"/>
        <path fill="#FFF" d="M102.17 139.58l.046-1.346h-2.38z"/>
        <path fill="#3C6CBC" d="M99.746 172.904c-21.468-2.29-31.213 1.976-31.213 1.976l2.65 16.886 28.473.225c.09-6.377.09-12.754.09-19.087z"/>
        <path fill="#0086CA" d="M93.503 172.365c-17.11-.943-24.97 2.47-24.97 2.47l2.65 16.887 22.32.18v-19.537z" opacity=".5"/>
        <path fill="#0086CA" d="M129.746 242.92l-54.162-.315-1.797-9.476s27.53-.36 43.204 1.257c15.719 1.617 12.44 4.491 12.44 4.491l.315 4.042z"/>
        <path fill="#424DC1" d="M88.249 233.084c-8.533-.09-14.417 0-14.417 0l1.797 9.476 12.62.09v-9.566z" opacity=".5"/>
        <path fill="#015288" d="M130.015 240.225l-61.976-.854 2.066 5.12 60.27-.09z"/>
        <path fill="#015288" d="M88.383 239.64l-20.344-.269 2.066 5.12 18.278-.045z" opacity=".5"/>
        <path fill="#015288" d="M90.763 246.557c-2.065 0-3.817-.539-5.254-1.617-5.165-3.907-5.21-13.742-5.3-22.41 0-1.707-.044-3.323-.09-4.805-.09-2.56 0-5.3.135-8.488.225-6.468.584-15.27-.538-28.833l1.212-.09c1.123 13.608.809 22.5.54 28.967-.136 3.144-.225 5.884-.136 8.399.045 1.482.045 3.143.09 4.805.045 7.994.135 17.92 4.806 21.422 1.976 1.527 4.67 1.797 8.173.853l.315 1.213c-1.393.404-2.74.584-3.953.584z"/>
        <g>
            <path fill="#FCD4CA" d="M145.644 172.5l6.467 4.177c5.928-4.985 19.311-15.27 17.335-16.572-.404-.27-.718-.54-.674-.809.09-.539-.943-1.077-1.526-.988-.584.09-.674-1.212-1.168-1.122-1.213.27-.584-1.348-1.752-.764-1.167.54-2.964 2.246-4.67 3.952-.719.719-4.76 3.1-4.896.27-.044-1.168 1.572-2.695.809-3.638-.584-.763-.629-.584-2.56 2.425-1.841 2.874-.943 5.883-7.365 13.069z"/>
            <path fill="#FFF" d="M165.314 157.186c-1.84 1.84-3.682 3.682-5.793 5.254M167.021 158.308c-1.841 1.842-3.683 3.683-5.793 5.255M168.862 159.521c-1.841 1.841-3.682 3.683-5.793 5.254"/>
        </g>
        <path fill="#BBE6DD" d="M147.665 166.976c-8.848 7.23-9.342 6.108-11.902 7.59-4.985 2.83-1.077 2.874-6.107-1.078-19.536-15.36-11.542-18.009-26.542-19.67-5.21-.809-9.656 16.077-1.258 20.972 3.1 2.29 5.165 6.917 8.668 9.476 5.973 4.447 14.192 6.557 24.88 6.647 8.398-1.617 11.228-9.88 22.455-16.527 1.842-1.033-10.194-7.41-10.194-7.41z"/>
        <path fill="#015288" d="M121.751 189.746h44.102v6.287h-44.102z"/>
        <g>
            <path fill="#BBE6DD" d="M345.898 112.814c-7.77 5.48-10.015 20.57-22.006 30.405.27 2.335-.045 5.613.18 7.949 8.398-1.393 16.527-3.638 22.814-12.44.045-.09 8.443-15.494 8.713-28.743 0 0-7.635 1.347-9.7 2.83z"/>
            <path fill="#FCD4CA" d="M326.811 125.03c1.438-5.12.494-9.7 3.773-17.695 1.482-3.592.943-4.086.943-4.086-1.123-.405-1.213 2.29-2.11 2.694-2.157.898-1.303-5.614-1.213-6.961.134-3.189.763-5.254-.36-5.569-1.257-.36-.27 8.309-1.122 6.871-.719-1.257-1.078-1.392-2.29-1.302-.225 0-.495.314-.989.09-3.278-1.617.314 13.024-.18 17.38-.044.764.45 10.195.405 10.913 1.841.764 1.392-3.054 3.143-2.335zM390.135 175.06l5.12 2.38c-.809 5.614-2.021 17.964-3.593 17.2-.315-.134-.63-.224-.764-.09-.27.27-1.033-.179-1.212-.538-.18-.404-1.033.045-1.168-.314-.314-.854-1.078.18-1.168-.809-.09-.943.27-2.694.674-4.446.18-.718.09-4.132-1.707-3.144-.763.405-1.077 2.021-1.93 1.932-.674-.09-.63-.18.493-2.56 1.033-2.2 3.234-2.83 5.255-9.611z"/>
            <path fill="#FFF" d="M388.204 193.249c.404-1.887.853-3.728 1.033-5.66M389.55 193.877c.405-1.841.854-3.727 1.034-5.658M391.033 194.55c.404-1.84.853-3.727 1.033-5.658"/>
            <path fill="#FCD4CA" d="M348.323 86.677c.674-2.83.36-10.015 4.087-6.827 1.033.899 1.482-1.841 7.545-.943.45.09.494 6.961.09 9.566.045.314-.853 1.258-.18.45 2.83-3.19 5.39-.54 4.716 1.302-.943 2.694.539 1.392 1.347 2.245.045.09-.18 4.311-.18 4.311l1.258 12.53s-1.527 1.572-8.847 2.021c-7.096.36-6.557-4.49-6.557-4.49s.539-7.276-.45-7.096c-3.143.583-3.053 1.257-2.739-7.41 0-.225-1.257-.36-2.02-.764-.54-.27 1.167-1.841 1.93-4.895z"/>
            <path fill="url(#c)" d="M12.485 17.515c.584-.494-7.096 10.734-7.096 10.734s.494-7.366-.449-7.096c-.314.09 3.01.134 7.545-3.638z" transform="translate(346.257 78.593)"/>
            <path fill="#000" d="M385.689 289.042l-5.165-.09h-3.189c-2.2 1.572-5.569 2.021-8.173 2.605-2.605.584-3.728.629-6.647 1.347-.584.135-.674.629-.36 1.078 1.213 1.841 4.312 1.841 6.198 1.886 1.842.045 5.659-.314 7.545-.404 4.177-.224 6.288-1.123 6.871-.27.36.54 4.716.135 4.536-.853-.583-2.56-1.437-3.997-1.616-5.3zM356.677 289.042l-5.165-.09h-3.189c-2.2 1.572-5.569 2.021-8.173 2.605-2.605.584-3.728.629-6.647 1.347-.584.135-.674.629-.36 1.078 1.213 1.841 4.312 1.841 6.198 1.886 1.842.045 5.659-.314 7.545-.404 4.177-.224 6.288-1.123 6.871-.27.36.54 4.716.135 4.536-.853-.628-2.56-1.437-3.997-1.616-5.3z"/>
            <path fill="#0086CA" d="M375.853 165.09c.36-1.841-1.078-1.168-.943-1.617l-26.362 2.92c-5.39 2.424-3.548 103.742-5.659 124.85 2.74 1.616 6.333 2.47 13.967.269 3.01-7.006 5.704-71.811 1.078-95.524.809 18.189 13.383 64.805 13.159 93.907 7.14 3.324 11.99.18 15-.988-.809-12.395-4.491-108.188-10.24-123.817z"/>
            <path fill="#BBE6DD" d="M344.73 121.707c0-4.716 3.324-12.89 7.456-15.36.224-.134 1.437 2.111 1.437 2.111s10.374-3.952 11.362-4.356c1.168-.494.404-.045 1.527-.674 3.772-2.066 12.934 9.7 12.934 18.997 0 0-4.94 26.901-3.189 41.138 1.033 8.398-27.035 10.24-29.101 5.39-1.123-2.65-2.425-47.246-2.425-47.246z"/>
            <path fill="#FFF" d="M349.58 110.479l2.291-5.479s.27 1.302.943 2.156c.584.808 9.79-2.785 14.102-3.907-1.796 2.11-2.335 2.56-8.623 10.329l-5.883-5.48-3.009 3.234.18-.853z"/>
            <path fill="#BBE6DD" d="M352.14 107.92s1.528-.81 2.246-.405c.719.404 1.213 2.47 1.213 2.47l-1.842 3.772.405 35.524-2.38 2.38-1.842-2.874s2.2-35.164 2.38-35.21c.225-.134-1.616-5.03-.18-5.658M386.946 155.793c2.785 8.488 2.874 14.686 1.482 22.141 2.515.719 5.075 2.156 7.545 3.189 2.784-8.803 3.144-20.165 2.38-29.282-1.706-19.805-9.52-34.042-15.898-40.778-9.835-9.297-20.434-2.515-17.29 4.087 7.185 12.754 17.066 26.182 21.781 40.643z"/>
            <path fill="url(#d)" d="M62.92 54.61c-8.174-4.49-9.522 2.112-9.746 11.857v32.11c3.772-1.346 6.332-3.323 6.018-5.972-.943-7.68.09-19.087 1.212-27.934 3.773 6.512 7.23 13.248 9.521 20.21 3.368 10.284 4.76-23.803-7.006-30.27z" opacity=".5" transform="translate(317.066 70.958)"/>
            <path fill="#FFF" d="M348.593 95.165l-.09 1.122c1.033 0 3.728-1.527 3.728-1.527l-3.638.405z"/>
            <path fill="#000" d="M369.027 84.88c-.36-.18.674-2.65.674-4.626 0-2.739-3.234-6.377-7.905-4.76-1.167-1.707-2.74-2.335-4.715-3.234-5.255-2.38-8.578.584-9.7 3.683-.72 1.976-.09 3.458.628 4.222 2.2 2.425 5.569-2.605 6.512 1.616.27 1.213 2.65 1.752 4.042 1.617-.09 2.65.674 7.725 1.078 7.096 2.335-3.683 4.131-1.257 4.042.763-.09 1.797-1.168 1.977-1.168 1.977.18 1.077 3.638 6.96 3.503 2.829-.135-3.368 9.97-7.23 3.009-11.183z"/>
            <path fill="#BBE6DD" d="M322.77 113.039s-6.602 25.06-5.255 34.715c.539 3.818 5.704 5.075 9.207 3.503 3.503-1.571 5.074-5.703 3.503-9.206l.943-29.686c-2.066.764-9.521 0-8.399.674z"/>
            <path fill="#02797D" d="M328.114 141.692c1.212-3.234 1.976-3.997 2.874-6.153l.045-.18c-.135.18-2.605 4.222-3.323 6.467l.404-.134z"/>
            <path fill="#0086CA" d="M357.17 195.808l.764.225 1.841 14.192z"/>
        </g>
        <g>
            <g fill="#FF5B30">
                <path d="M136.033 36.467l-.45-3.189c-.628-4.131-1.257-8.443-1.66-12.754l1.122-.09c.404 4.312 1.033 8.578 1.662 12.71l.449 3.188-1.123.135zM118.518 44.012l-2.695-1.752c-3.503-2.29-7.185-4.67-10.688-7.185l.673-.943c3.503 2.515 7.141 4.895 10.644 7.185l2.695 1.752-.629.943zM99.072 64.76l-.225-1.122c4.222-.809 8.443-1.797 12.485-2.74l3.189-.763.27 1.122-3.19.764c-4.041.943-8.263 1.931-12.53 2.74zM160.958 44.012l-.629-.943 2.695-1.752c3.503-2.29 7.14-4.625 10.644-7.185l.673.943c-3.548 2.56-7.185 4.895-10.688 7.185l-2.695 1.752zM180.404 64.76c-4.266-.808-8.488-1.796-12.575-2.784l-3.188-.763.27-1.123 3.188.763c4.042.943 8.263 1.976 12.485 2.74l-.18 1.167z"/>
            </g>
            <path fill="#424DC1" d="M135.09 105.853c0 .27 1.392 3.413 1.437 3.638h6.871c-.045-.27 1.033-3.413.988-3.638h-9.296z"/>
            <path fill="#FF5B30" d="M130.958 84.296c.674 1.752 1.347 10.33 1.976 12.126h14.64c.675-1.751 1.393-10.374 2.157-12.126 1.661-2.38 9.34-11.317 11.9-19.67 3.504-10.464-6.287-25.285-21.466-25.285-15.135-.134-25.824 13.653-22.32 24.162 2.604 8.668 9.88 16.886 13.113 20.793z"/>
            <path fill="#FFF" fill-rule="nonzero" d="M142.904 95.254c-1.123-6.107-.584-18.907 1.662-28.113-.315.045-.584 0-.898-.045-1.393-.36-2.38-1.931-3.144-3.728-1.033 2.336-2.335 3.638-3.817 3.863-.584.09-1.168 0-1.752-.225 1.302 8.802 2.74 21.602 2.38 28.248l-.898-.044c.36-6.288-1.078-19.491-2.47-28.743-1.482-1.033-2.784-2.874-3.683-4.716-.943-1.93-1.751-4.49-.898-5.344l.045-.045c.764-.539 1.482-.673 2.11-.404 1.573.629 2.067 3.413 2.381 4.895v.045c.27 1.348.54 3.054.853 5.03.584.36 1.168.494 1.797.404 1.033-.134 2.335-1.078 3.503-4.221-.36-1.078-.584-2.156-.764-3.054-.583-2.92.225-5.21 1.303-5.928.449-.315.898-.315 1.302-.09.674.449.898 1.617.584 3.368-.404 2.246-.898 4.177-1.437 5.704.808 2.38 1.796 3.862 2.874 4.132.27.09.584.044.898-.045.719-2.65 1.527-4.985 2.56-6.692l.18-.27c.584-.987 1.078-1.886 1.841-1.84.629.044.898.808.988 1.077.719 2.11-2.11 5.928-2.919 6.871-.629.719-1.213 1.213-1.841 1.527-2.246 9.072-2.92 22.186-1.797 28.294l-.943.09zm6.333-36.96c-.27.134-.719.943-.944 1.347l-.18.314c-.853 1.437-1.571 3.323-2.2 5.569a6.86 6.86 0 0 0 .809-.808c1.257-1.438 3.188-4.626 2.74-5.973-.09-.315-.18-.405-.225-.45zm-19.222-1.303c-.225.314-.09 1.931 1.078 4.266.673 1.348 1.617 2.785 2.694 3.818-.224-1.527-.494-2.874-.718-4.087v-.045c-.225-1.123-.719-3.772-1.841-4.221-.315-.135-.719-.045-1.213.269zm11.317-3.278c-.09 0-.18.044-.224.09-.719.493-1.437 2.335-.898 5.03.134.583.269 1.167.404 1.706.36-1.213.673-2.65.988-4.356.314-1.662 0-2.336-.18-2.426-.045-.044-.09-.044-.09-.044z"/>
            <path fill="#3C6CBC" d="M130.42 94.446c.897.988 1.346 1.482 1.75 1.931-1.661-.134-1.75 2.47.36 2.605-2.11-.09-2.2 2.65-.135 2.65-2.066-.135-2.155 2.964-.224 3.143-.494.54-.899.988-1.303 1.438 2.695 1.257 17.56 1.167 17.875-.135-.36-.45-.764-.898-1.168-1.392 2.11-.18 1.527-2.964-.225-2.83 2.336-.27 1.437-3.009 0-2.83 1.976-.358 1.348-2.38.27-2.604.449-.629.853-1.168 1.437-1.976h-18.638z"/>
        </g>
    </g>
</svg>
