<svg xmlns="http://www.w3.org/2000/svg" width="102" height="135" viewBox="0 0 102 135">
    <g fill="#FFF" fill-rule="evenodd">
        <path fill-rule="nonzero" d="M95.651 84.395L78.443 67.187a23.229 23.229 0 0 1-6.848-16.533v-2.388c0-4.48-1.745-8.694-4.914-11.862l-3.54-3.54V12.548C63.14 5.629 57.51 0 50.592 0c-6.92 0-12.549 5.63-12.549 12.549v20.314l-3.54 3.54a16.665 16.665 0 0 0-4.914 11.863v2.388a23.228 23.228 0 0 1-6.848 16.533L5.533 84.395A18.767 18.767 0 0 0 0 97.752v14.132a6.215 6.215 0 0 0 6.208 6.208h26.277l-.78 14.822A1.982 1.982 0 0 0 33.684 135H67.5a1.98 1.98 0 0 0 1.979-2.086l-.78-14.822h26.277a6.215 6.215 0 0 0 6.208-6.208V97.752c0-5.045-1.965-9.79-5.533-13.357zM39.808 94.843h8.803v27.74H36.217l1.348-25.612a2.246 2.246 0 0 1 2.243-2.128zm12.765 0h8.803c1.195 0 2.18.935 2.243 2.128l1.348 25.612H52.573v-27.74zm-1.981-90.88c4.734 0 8.586 3.851 8.586 8.586V90.88H42.006V33.685 12.549c0-4.735 3.852-8.586 8.586-8.586zM6.208 114.129a2.248 2.248 0 0 1-2.245-2.245V97.752a14.83 14.83 0 0 1 4.372-10.555L25.543 69.99c5.165-5.164 8.009-12.03 8.009-19.335v-2.388a12.73 12.73 0 0 1 3.753-9.06l.738-.739v52.669a6.21 6.21 0 0 0-4.435 5.627l-.47 8.912H10.436a1.981 1.981 0 0 0 0 3.963H32.93l-.236 4.491H6.208zm29.8 12.417h12.603v4.491H35.772l.237-4.491zm16.565 4.491v-4.491h12.602l.237 4.491H52.573zm44.648-19.153a2.248 2.248 0 0 1-2.245 2.245H68.49l-.237-4.491H90.75a1.981 1.981 0 0 0 0-3.963H68.045l-.47-8.912a6.209 6.209 0 0 0-4.434-5.627V38.467l.738.739a12.73 12.73 0 0 1 3.753 9.06v2.388c0 7.304 2.844 14.17 8.008 19.335L92.85 87.197a14.828 14.828 0 0 1 4.372 10.555v14.132z"/>
        <path d="M47.158 19.471a8.523 8.523 0 0 1 3.434-.714c1.196 0 2.353.241 3.437.715a1.982 1.982 0 0 0 1.588-3.63 12.465 12.465 0 0 0-5.025-1.047c-1.745 0-3.434.351-5.021 1.045a1.981 1.981 0 0 0 1.587 3.631z"/>
    </g>
</svg>
