<svg xmlns="http://www.w3.org/2000/svg" width="100" height="100" viewBox="0 0 100 100">
    <g fill="#FFF" fill-rule="nonzero">
        <path d="M13.333 6.667h3.333V10h-3.333zM20 6.667h3.333V10H20zM6.667 6.667H10V10H6.667z"/>
        <path d="M93.333 0H6.667A6.667 6.667 0 0 0 0 6.667v86.666A6.667 6.667 0 0 0 6.667 100h86.666A6.667 6.667 0 0 0 100 93.333V6.667A6.667 6.667 0 0 0 93.333 0zm3.334 93.333a3.333 3.333 0 0 1-3.334 3.334H6.667a3.333 3.333 0 0 1-3.334-3.334V16.667h93.334v76.666zm0-80H3.333V6.667a3.333 3.333 0 0 1 3.334-3.334h86.666a3.333 3.333 0 0 1 3.334 3.334v6.666z"/>
        <path d="M83.333 50h-5.805a27.962 27.962 0 0 0-3.343-8.092l4.1-4.098c.65-.65.65-1.706 0-2.357l-7.072-7.071a1.715 1.715 0 0 0-2.356 0l-4.099 4.1a27.962 27.962 0 0 0-8.091-3.344v-5.805c0-.92-.747-1.666-1.667-1.666H45c-.92 0-1.667.746-1.667 1.666v5.805a27.962 27.962 0 0 0-8.091 3.344l-4.099-4.1a1.667 1.667 0 0 0-2.356 0l-7.072 7.071c-.65.651-.65 1.706 0 2.357l4.1 4.098A27.962 27.962 0 0 0 22.472 50h-5.805c-.92 0-1.667.746-1.667 1.667v10c0 .92.746 1.666 1.667 1.666h5.805a27.962 27.962 0 0 0 3.343 8.092l-4.1 4.098c-.65.651-.65 1.706 0 2.357l7.072 7.072a1.715 1.715 0 0 0 2.356 0l4.099-4.1a27.962 27.962 0 0 0 8.091 3.343V90c0 .92.747 1.667 1.667 1.667h10c.92 0 1.667-.747 1.667-1.667v-5.805a27.962 27.962 0 0 0 8.091-3.343l4.099 4.1c.65.65 1.706.65 2.356 0l7.072-7.072c.65-.65.65-1.706 0-2.357l-4.1-4.098a27.962 27.962 0 0 0 3.343-8.092h5.805c.92 0 1.667-.746 1.667-1.666v-10c0-.92-.746-1.667-1.667-1.667zm-1.666 10h-5.485c-.8 0-1.487.569-1.637 1.355a24.744 24.744 0 0 1-3.867 9.36 1.667 1.667 0 0 0 .199 2.115l3.873 3.872-4.715 4.715-3.868-3.874a1.667 1.667 0 0 0-2.115-.198 24.744 24.744 0 0 1-9.36 3.867 1.667 1.667 0 0 0-1.355 1.636v5.485h-6.67v-5.485c0-.8-.57-1.487-1.355-1.636a24.744 24.744 0 0 1-9.36-3.867 1.667 1.667 0 0 0-2.115.198l-3.872 3.874-4.715-4.715 3.873-3.869a1.667 1.667 0 0 0 .199-2.115 24.744 24.744 0 0 1-3.867-9.36A1.667 1.667 0 0 0 23.818 60h-5.485v-6.667h5.485c.8 0 1.487-.569 1.637-1.355a24.744 24.744 0 0 1 3.867-9.36 1.667 1.667 0 0 0-.199-2.115l-3.873-3.871 4.715-4.715 3.868 3.873a1.667 1.667 0 0 0 2.115.198 24.744 24.744 0 0 1 9.36-3.866 1.667 1.667 0 0 0 1.359-1.637V25h6.666v5.485c0 .8.57 1.487 1.355 1.637 3.353.63 6.54 1.946 9.36 3.866.662.45 1.55.367 2.115-.198l3.872-3.873 4.715 4.715-3.873 3.868a1.667 1.667 0 0 0-.199 2.115 24.744 24.744 0 0 1 3.867 9.36c.15.786.837 1.355 1.637 1.355h5.485V60z"/>
        <path d="M50 35c-11.966 0-21.667 9.7-21.667 21.667 0 11.966 9.7 21.666 21.667 21.666 11.966 0 21.667-9.7 21.667-21.666C71.653 44.707 61.96 35.014 50 35zm0 40c-10.125 0-18.333-8.208-18.333-18.333 0-10.126 8.208-18.334 18.333-18.334 10.125 0 18.333 8.208 18.333 18.334C68.321 66.787 60.12 74.988 50 75z"/>
        <path d="M44.333 53l-2-2.667-6.666 5a1.667 1.667 0 0 0 0 2.667l6.666 5 2-2.667-4.888-3.666L44.333 53zM64.667 55.667a1.673 1.673 0 0 0-.334-.334l-6.666-5-2 2.667 4.888 3.667-4.888 3.666 2 2.667 6.666-5a1.667 1.667 0 0 0 .334-2.333zM45.118 64.388l6.668-16.664 3.095 1.238-6.669 16.665z"/>
    </g>
</svg>
