<svg xmlns="http://www.w3.org/2000/svg" width="89" height="100" viewBox="0 0 89 100">
    <g fill="#FFF" fill-rule="nonzero">
        <path d="M60.038 73.703a1.465 1.465 0 1 0 1.634 2.432 31.547 31.547 0 0 0 8.116-7.903A31.426 31.426 0 0 0 75.607 50a31.293 31.293 0 0 0-5.743-18.102 1.467 1.467 0 0 0-.247-.345c-5.725-7.884-15.012-13.021-25.478-13.021a31.21 31.21 0 0 0-13.191 2.89 1.465 1.465 0 1 0 1.23 2.66 28.277 28.277 0 0 1 5.684-1.93c-1.238 1.563-2.361 3.609-3.33 6.102-.352.906-.676 1.861-.977 2.852H22.758a28.708 28.708 0 0 1 4.467-4.094 1.465 1.465 0 0 0-1.738-2.358 31.77 31.77 0 0 0-6.893 6.974 1.464 1.464 0 0 0-.126.175 31.328 31.328 0 0 0-2.303 3.772A31.555 31.555 0 0 0 12.67 50c0 6.734 2.127 12.98 5.742 18.103.066.126.15.242.248.343 5.724 7.885 15.011 13.022 25.478 13.022a31.28 31.28 0 0 0 12.113-2.416 1.465 1.465 0 1 0-1.129-2.704 28.32 28.32 0 0 1-4.707 1.5c1.238-1.562 2.36-3.609 3.33-6.102.351-.905.675-1.86.977-2.852h10.804a28.674 28.674 0 0 1-5.49 4.81zm5.469-42.597h-6.039a1.465 1.465 0 1 0 0 2.93h8.315a28.364 28.364 0 0 1 4.857 14.5H57.245c-.14-7.644-1.37-14.799-3.5-20.282-.967-2.49-2.088-4.533-3.324-6.094 5.94 1.34 11.183 4.536 15.086 8.946zM33.962 51.465h20.353c-.103 5.502-.784 10.417-1.822 14.5H35.777c-1.088-4.298-1.716-9.267-1.815-14.5zm0-2.93c.104-5.502.784-10.417 1.822-14.5H52.5c1.088 4.298 1.716 9.267 1.815 14.5H33.963zM44.14 21.462c2.43 0 4.937 2.862 6.876 7.853.223.576.434 1.176.636 1.79H36.636c2.001-6.054 4.836-9.643 7.503-9.643zM18.768 36.919a28.383 28.383 0 0 1 1.715-2.883h12.279c-1.038 4.363-1.634 9.318-1.729 14.499H15.639c.203-4.08 1.25-7.98 3.129-11.616zm4.002 31.975h5.874a1.465 1.465 0 0 0 0-2.93h-8.15a28.362 28.362 0 0 1-4.857-14.5h15.396c.14 7.644 1.37 14.799 3.499 20.282.967 2.49 2.088 4.533 3.324 6.094-5.94-1.34-11.182-4.536-15.086-8.946zm21.369 9.644c-2.431 0-4.937-2.862-6.876-7.853a36.411 36.411 0 0 1-.637-1.79h15.016c-2.002 6.054-4.836 9.643-7.503 9.643zm11.377-12.574c1.037-4.363 1.634-9.318 1.729-14.5h15.392a28.49 28.49 0 0 1-4.842 14.5h-12.28zM75.084 22.079L52.847 9.24a1.465 1.465 0 1 0-1.465 2.537l22.237 12.838a1.465 1.465 0 0 0 1.465-2.537zM7.415 62.833V37.167a1.465 1.465 0 0 0-2.93 0v25.666a1.465 1.465 0 0 0 2.93 0zM73.614 75.387L51.382 88.222a1.465 1.465 0 0 0 1.465 2.537L75.08 77.924a1.465 1.465 0 0 0-1.465-2.537zM80.862 37.167v25.666a1.465 1.465 0 1 0 2.93 0V37.167a1.465 1.465 0 1 0-2.93 0zM36.895 88.222L14.66 75.384a1.465 1.465 0 1 0-1.465 2.537L35.43 90.76a1.465 1.465 0 0 0 1.465-2.537zM13.932 24.81c.249 0 .5-.063.731-.197l22.232-12.835A1.465 1.465 0 0 0 35.43 9.24L13.198 22.076a1.465 1.465 0 0 0 .734 2.734zM44.139 11.809a5.911 5.911 0 0 0 5.904-5.905A5.911 5.911 0 0 0 44.14 0a5.911 5.911 0 0 0-5.904 5.904 5.911 5.911 0 0 0 5.904 5.905zm0-8.88a2.978 2.978 0 0 1 2.974 2.975A2.978 2.978 0 0 1 44.14 8.88a2.978 2.978 0 0 1-2.975-2.975A2.978 2.978 0 0 1 44.14 2.93zM8.903 22.839A5.91 5.91 0 0 0 .837 25 5.911 5.911 0 0 0 3 33.065a5.908 5.908 0 0 0 8.065-2.161 5.91 5.91 0 0 0-2.161-8.065zm-.376 6.6a2.978 2.978 0 0 1-4.064 1.09 2.978 2.978 0 0 1-1.088-4.064 2.955 2.955 0 0 1 1.806-1.386c.767-.206 1.569-.1 2.257.297a2.978 2.978 0 0 1 1.089 4.063zM2.999 66.935A5.91 5.91 0 0 0 .837 75a5.908 5.908 0 0 0 8.066 2.161 5.911 5.911 0 0 0 2.161-8.065A5.91 5.91 0 0 0 3 66.935zm4.44 7.689a2.955 2.955 0 0 1-2.258.297 2.955 2.955 0 0 1-1.806-1.386 2.978 2.978 0 0 1 1.088-4.063 2.978 2.978 0 0 1 4.064 1.089 2.978 2.978 0 0 1-1.089 4.063zM44.139 88.191a5.911 5.911 0 0 0-5.904 5.905A5.911 5.911 0 0 0 44.139 100a5.911 5.911 0 0 0 5.904-5.904 5.911 5.911 0 0 0-5.904-5.905zm0 8.88a2.978 2.978 0 0 1-2.975-2.975 2.978 2.978 0 0 1 2.975-2.975 2.978 2.978 0 0 1 2.974 2.975 2.978 2.978 0 0 1-2.974 2.974zM85.279 66.935a5.912 5.912 0 0 0-8.066 2.16 5.911 5.911 0 0 0 5.104 8.86c.513 0 1.03-.068 1.538-.204a5.865 5.865 0 0 0 3.585-2.75 5.866 5.866 0 0 0 .59-4.481 5.864 5.864 0 0 0-2.751-3.585zm-.376 6.6a2.955 2.955 0 0 1-1.807 1.386c-.767.206-1.569.1-2.257-.297a2.978 2.978 0 0 1-1.089-4.063 2.977 2.977 0 0 1 5.45.717c.206.768.1 1.57-.297 2.257zM82.337 33.855a5.869 5.869 0 0 0 2.942-.79 5.866 5.866 0 0 0 2.75-3.585 5.865 5.865 0 0 0-.59-4.48 5.865 5.865 0 0 0-3.584-2.751 5.866 5.866 0 0 0-4.48.59 5.911 5.911 0 0 0-2.162 8.065 5.907 5.907 0 0 0 5.124 2.951zm-1.498-8.479a2.957 2.957 0 0 1 2.258-.297 2.955 2.955 0 0 1 1.806 1.386c.397.688.503 1.49.297 2.257a2.955 2.955 0 0 1-1.386 1.806 2.979 2.979 0 0 1-4.064-1.089 2.978 2.978 0 0 1 1.09-4.063z"/>
    </g>
</svg>
