<svg xmlns="http://www.w3.org/2000/svg" width="108" height="100" viewBox="0 0 108 100">
    <g fill="#FFF" fill-rule="nonzero">
        <path d="M101.786 48.214V8.93C101.786 4.005 97.78 0 92.857 0H14.286C9.363 0 5.357 4.005 5.357 8.929v26.785A5.364 5.364 0 0 0 0 41.071v53.572A5.364 5.364 0 0 0 5.357 100h39.286A5.364 5.364 0 0 0 50 94.643h14.966a5.317 5.317 0 0 0 4.257-2.106 5.318 5.318 0 0 0 .91-4.66L66.624 75h10.163v19.643A5.364 5.364 0 0 0 82.143 100h19.643a5.364 5.364 0 0 0 5.357-5.357V53.57a5.364 5.364 0 0 0-5.357-5.357zM46.429 94.643c0 .984-.802 1.786-1.786 1.786H5.357a1.789 1.789 0 0 1-1.786-1.786V91.07H46.43v3.572zm0-7.143H3.57V48.214H46.43V87.5zm0-42.857H3.57V41.07c0-.983.802-1.785 1.786-1.785h39.286c.984 0 1.786.801 1.786 1.785v3.572zm20.26 44.173a1.77 1.77 0 0 1-.303 1.554 1.771 1.771 0 0 1-1.42.701H50V87.5h16.33l.36 1.316zM50 83.93V75h12.921l2.436 8.929H50zm26.786-12.5H50V60.714h26.786V71.43zm0-17.858v3.572H50V41.07a5.364 5.364 0 0 0-5.357-5.357H8.929V8.93a5.364 5.364 0 0 1 5.357-5.358h78.571a5.364 5.364 0 0 1 5.357 5.358v39.285H82.143a5.364 5.364 0 0 0-5.357 5.357zm26.785 41.072c0 .984-.801 1.786-1.785 1.786H82.143a1.789 1.789 0 0 1-1.786-1.786V91.07h23.214v3.572zm0-7.143H80.357V60.714h23.214V87.5zm0-30.357H80.357V53.57c0-.983.802-1.785 1.786-1.785h19.643c.984 0 1.785.801 1.785 1.785v3.572z"/>
        <path d="M9.45 73.736l7.144-7.143 2.525 2.525-7.143 7.143zM16.594 79.093l21.428-21.429 2.525 2.525L19.12 81.62zM20.164 63.024L30.878 52.31l2.525 2.525L22.69 65.55zM84.448 73.738l8.927-8.927 2.525 2.526-8.927 8.927zM88.018 80.889l8.927-8.927 2.525 2.525-8.927 8.927zM46.95 30.88l10.713-10.712 2.525 2.525-10.713 10.713zM63.022 27.309l10.713-10.714 2.525 2.525-10.713 10.714zM52.306 38.025l7.143-7.143 2.526 2.526-7.143 7.143zM61.224 16.618l7.161-7.161 2.525 2.525-7.16 7.16zM12.5 7.143h3.571v3.571H12.5zM19.643 7.143h3.571v3.571h-3.571zM26.786 7.143h3.571v3.571h-3.571z"/>
    </g>
</svg>
