<svg xmlns="http://www.w3.org/2000/svg" width="102" height="88" viewBox="0 0 102 88">
    <g fill="none" fill-rule="evenodd">
        <path fill="#CAEEFC" d="M3.802 31.782C6.546 46.773 16.989 60.13 30.877 66.407l.167-.371C17.284 59.818 6.918 46.563 4.202 31.709l-.4.073"/>
        <path fill="#54C5B2" d="M4.693 34.869a8.947 8.947 0 0 1-1.795-5.963c.034-.519.149-1.092.572-1.395a.583.583 0 0 1 .4-.123c.228.029.387.238.497.44.588 1.068.581 2.36.447 3.572-.135 1.213-.074 2.139-.12 3.469M6.03 38.97a8.944 8.944 0 0 1 .715-6.185c.238-.462.57-.944 1.078-1.053a.58.58 0 0 1 .417.045c.198.116.26.372.282.6.116 1.215-.403 2.398-1.007 3.458-.604 1.06-.916 1.933-1.486 3.136M8.193 44.136a8.946 8.946 0 0 1-.045-6.226c.18-.489.45-1.007.941-1.178a.584.584 0 0 1 .419-.006c.211.092.305.337.354.562.263 1.19-.107 2.428-.577 3.554-.47 1.125-.673 2.03-1.092 3.294M10.959 48.86a8.947 8.947 0 0 1-.046-6.226c.18-.488.45-1.006.942-1.177a.582.582 0 0 1 .418-.006c.211.091.305.337.355.561.262 1.192-.108 2.429-.578 3.555-.47 1.125-.673 2.03-1.091 3.294M15.406 54.601a8.946 8.946 0 0 1-.69-6.189c.128-.504.343-1.047.814-1.268.13-.061.28-.093.415-.05.22.07.339.304.411.522.385 1.158.145 2.427-.206 3.595-.35 1.169-.459 2.09-.744 3.39M19.038 58.449c-.979-1.712-1.37-3.877-1.077-5.975.072-.514.217-1.08.608-1.369.107-.079.235-.132.356-.11.196.034.317.246.397.45.422 1.079.313 2.361.099 3.561-.214 1.201-.236 2.122-.383 3.443M6.748 40.807c-2.176-.134-4.34-1.085-5.97-2.626-.401-.378-.796-.855-.777-1.39.006-.148.047-.297.15-.396.167-.16.436-.142.67-.093 1.236.264 2.282 1.142 3.183 2.066.902.925 1.692 1.504 2.744 2.44M8.55 44.753c-2.146.39-4.474-.018-6.426-1.125-.479-.272-.976-.64-1.085-1.164-.03-.145-.025-.3.051-.421.123-.195.389-.242.628-.25 1.264-.039 2.488.564 3.585 1.247 1.095.683 2.001 1.056 3.246 1.713M11.492 49.548c-2.024.81-4.386.877-6.521.182-.523-.17-1.084-.431-1.296-.923-.058-.136-.085-.29-.034-.423.082-.215.333-.315.565-.37 1.23-.291 2.551.055 3.762.505 1.21.45 2.172.634 3.524 1.029M19.575 58.884c-1.77 1.274-4.046 1.907-6.285 1.748-.548-.04-1.156-.158-1.48-.585-.089-.116-.152-.26-.135-.401.028-.229.248-.386.46-.495 1.123-.58 2.489-.562 3.772-.417 1.283.145 2.261.092 3.668.15"/>
        <path fill="#99D6F4" d="M83.168 31.557l5.178 20.306-.985.25-6.407-19.991 2.214-.565"/>
        <path fill="#ADE0F8" d="M57.29 1.841a8.17 8.17 0 0 1 .118-.481l-.393-.108a9.17 9.17 0 0 0-.124.505l.399.084M64.45 24.08a6.859 6.859 0 0 1-.45-.2l-.18.366c.148.072.308.143.477.21l.152-.377"/>
        <path fill="#ECE9F1" d="M78.615 78.54c0 .67-13.01 1.213-29.06 1.213-16.048 0-29.059-.543-29.059-1.212 0-.67 13.01-1.213 29.06-1.213 16.049 0 29.06.543 29.06 1.213"/>
        <path fill="#4E86CE" d="M73.287 78.527H25.824a3.752 3.752 0 0 1-3.752-3.752V4.56A3.752 3.752 0 0 1 25.824.808h47.463a3.753 3.753 0 0 1 3.753 3.753v70.214a3.753 3.753 0 0 1-3.753 3.752"/>
        <path fill="#4476C2" d="M25.258 75.48h48.596V3.856H25.258z"/>
        <path fill="#FFF" d="M27.126 73.291h44.859V6.045H27.126z"/>
        <path fill="#54C5B2" d="M67.236 5.016h-35.36V2.748A2.705 2.705 0 0 1 34.58.043h29.95a2.705 2.705 0 0 1 2.705 2.705v2.268"/>
        <path fill="#47AC9B" d="M31.876 5.016V2.9c0-1.367.961-2.51 2.246-2.79-.542.52-.88 1.25-.88 2.06v2.115h33.994v.731h-35.36z"/>
        <path fill="#C6DCEF" d="M36.108 21.056a5.766 5.766 0 1 1 0-11.532 5.766 5.766 0 0 1 0 11.532"/>
        <path fill="#54C5B2" d="M42.804 15.29H42.6a6.472 6.472 0 0 1-1.902 4.591 6.471 6.471 0 0 1-4.591 1.902 6.472 6.472 0 0 1-4.591-1.902 6.471 6.471 0 0 1-1.902-4.591 6.47 6.47 0 0 1 1.902-4.591 6.472 6.472 0 0 1 4.591-1.902c1.793 0 3.415.727 4.59 1.902a6.472 6.472 0 0 1 1.903 4.591H43.008a6.9 6.9 0 1 0-13.8 0 6.9 6.9 0 0 0 13.8 0h-.204"/>
        <path fill="#FFF" d="M37.242 15.377c.567-.371.943-1.01.943-1.737a2.077 2.077 0 0 0-4.154 0c0 .727.376 1.366.943 1.737a2.928 2.928 0 0 0-2.255 2.845v1.726a5.732 5.732 0 0 0 6.777 0v-1.726c0-1.385-.963-2.539-2.254-2.845"/>
        <path fill="#2F60B4" d="M45.466 9.976l.28.567.624.09-.452.442.107.622-.56-.294-.558.294.107-.622-.453-.441.625-.091.28-.567M48.194 9.976l.28.567.624.09-.452.442.107.622-.56-.294-.559.294.108-.622-.453-.441.625-.091.28-.567M50.922 9.976l.28.567.624.09-.452.442.107.622-.56-.294-.558.294.107-.622-.453-.441.625-.091.28-.567M53.65 9.976l.28.567.624.09-.452.442.107.622-.559-.294-.56.294.108-.622-.453-.441.625-.091.28-.567M56.378 9.976l.28.567.624.09-.452.442.107.622-.559-.294-.56.294.108-.622-.452-.441.624-.091.28-.567"/>
        <path fill="#DEECF5" d="M50.666 13.6h-5.804a.407.407 0 0 1 0-.813h5.804a.407.407 0 1 1 0 .814M68.105 15.924h-4.413a.407.407 0 1 1 0-.814h4.413a.407.407 0 0 1 0 .814M61.78 15.924H44.861a.407.407 0 0 1 0-.814H61.78a.407.407 0 0 1 0 .814M68.105 18.247H44.862a.407.407 0 1 1 0-.814h23.243a.407.407 0 0 1 0 .814M68.105 20.57h-7.388a.407.407 0 0 1 0-.814h7.388a.407.407 0 0 1 0 .814M58.879 20.57H44.862a.407.407 0 0 1 0-.814H58.88a.407.407 0 0 1 0 .814M68.105 13.6H52.571a.407.407 0 1 1 0-.813h15.534a.407.407 0 0 1 0 .814"/>
        <path fill="#C6DCEF" d="M36.108 37.347a5.766 5.766 0 1 1 0-11.532 5.766 5.766 0 0 1 0 11.532"/>
        <path fill="#FFF" d="M37.242 31.667c.567-.37.943-1.009.943-1.737a2.077 2.077 0 0 0-4.154 0c0 .728.376 1.366.943 1.737a2.928 2.928 0 0 0-2.255 2.846v1.726a5.735 5.735 0 0 0 6.777 0v-1.726c0-1.385-.963-2.539-2.254-2.846"/>
        <path fill="#2F60B4" d="M45.466 26.268l.28.566.624.09-.452.441.107.623-.56-.294-.558.294.107-.623-.453-.44.625-.091.28-.566M48.194 26.268l.28.566.624.09-.452.441.107.623-.56-.294-.559.294.108-.623-.453-.44.625-.091.28-.566M50.922 26.268l.28.566.624.09-.452.441.107.623-.56-.294-.558.294.107-.623-.453-.44.625-.091.28-.566"/>
        <path fill="#C6DCEF" d="M54.21 27.988l-.56-.294-.56.294.108-.623-.453-.44.625-.091.28-.567.28.567.624.09-.452.441.107.623M56.937 27.988l-.559-.294-.56.294.108-.623-.452-.44.624-.091.28-.567.28.567.624.09-.452.441.107.623"/>
        <path fill="#DEECF5" d="M55.186 29.891H44.862a.407.407 0 0 1 0-.813h10.324a.407.407 0 0 1 0 .813"/>
        <path fill="#DEECF5" fill-rule="nonzero" d="M68.105 32.215h-2.712c-.3-.507-.621-.98-.96-1.418l-.065-.082h3.737c.225 0 .407.335.407.75 0 .414-.182.75-.407.75m-6.645 0h-4.63c.341-.213.694-.38 1.056-.498a4.08 4.08 0 0 1 1.271-.207c.787 0 1.563.238 2.303.705m-8.572 0h-1.914c-.225 0-.407-.336-.407-.75 0-.415.182-.75.407-.75h2.933c-.358.453-.698.954-1.02 1.5"/>
        <path fill="#DEECF5" d="M49.06 32.215h-4.198a.407.407 0 0 1 0-.814h4.199a.407.407 0 1 1 0 .814"/>
        <path fill="#DEECF5" fill-rule="nonzero" d="M68.105 34.538h-.88a22.177 22.177 0 0 0-.507-1.5h1.387c.225 0 .407.336.407.75s-.182.75-.407.75m-3.343 0H53.525c.232-.54.485-1.04.756-1.5h9.72c.275.465.53.967.761 1.5m-13.7 0h-6.2c-.224 0-.406-.336-.406-.75s.182-.75.406-.75h6.709a22.977 22.977 0 0 0-.509 1.5M65.996 36.86h-2.65c-.225 0-.408-.335-.408-.75 0-.413.183-.75.407-.75h2.341c.12.486.223.987.31 1.5m2.129 0a29.456 29.456 0 0 0-.234-1.5h.214c.225 0 .407.337.407.75 0 .403-.172.732-.387.75M61.506 36.86h-9.218c.086-.507.19-1.007.311-1.5h8.907c.225 0 .407.337.407.75 0 .415-.182.75-.407.75m-11.347 0h-5.297c-.224 0-.406-.335-.406-.75 0-.413.182-.75.406-.75h5.531c-.09.496-.17.997-.234 1.5"/>
        <path fill="#DEECF5" d="M68.105 29.891H60.6a9.177 9.177 0 0 0-2.884 0h-.625a.407.407 0 0 1 0-.813h11.014a.407.407 0 0 1 0 .813"/>
        <path fill="#C6DCEF" d="M36.108 53.638a5.766 5.766 0 1 1 0-11.533 5.766 5.766 0 0 1 0 11.533"/>
        <path fill="#FFF" d="M37.242 47.958c.567-.37.943-1.01.943-1.737a2.077 2.077 0 1 0-4.154 0c0 .728.376 1.367.943 1.737a2.928 2.928 0 0 0-2.255 2.846v1.726a5.732 5.732 0 0 0 6.777 0v-1.726c0-1.385-.963-2.539-2.254-2.846"/>
        <path fill="#2F60B4" d="M45.466 42.558l.28.567.624.09-.452.441.107.623-.56-.294-.558.294.107-.623-.453-.44.625-.091.28-.567M48.194 42.558l.28.567.624.09-.452.441.107.623-.56-.294-.559.294.108-.623-.453-.44.625-.091.28-.567M50.922 42.558l.28.567.624.09-.452.441.107.623-.56-.294-.558.294.107-.623-.453-.44.625-.091.28-.567M53.65 42.558l.28.567.624.09-.452.441.107.623-.559-.294-.56.294.108-.623-.453-.44.625-.091.28-.567"/>
        <path fill="#C6DCEF" d="M56.937 44.279l-.559-.294-.56.294.108-.623-.452-.44.624-.091.28-.567.28.567.624.09-.452.441.107.623"/>
        <path fill="#DEECF5" d="M50.666 46.182h-5.804a.407.407 0 0 1 0-.813h5.804a.407.407 0 1 1 0 .813"/>
        <path fill="#DEECF5" fill-rule="nonzero" d="M65.962 48.505H55.511c-.225 0-.408-.335-.408-.75 0-.414.183-.75.408-.75h.436c1.015.693 2.087 1.048 3.175 1.048.542 0 1.09-.088 1.634-.266a6.247 6.247 0 0 0 1.566-.782h2.967l.673 1.5m2.497-.377l-.504-1.123h.15c.225 0 .407.336.407.75 0 .136-.019.263-.053.373"/>
        <path fill="#DEECF5" d="M53.598 48.505h-8.736a.407.407 0 0 1 0-.813h8.736a.407.407 0 0 1 0 .813M67.832 50.828h-22.97a.407.407 0 0 1 0-.813h22.35l.623.752c-.002.02-.003.041-.003.061M68.105 53.152H50.15a.407.407 0 1 1 0-.814h17.955a.407.407 0 0 1 0 .814M48.31 53.152h-3.448a.407.407 0 0 1 0-.814h3.448a.407.407 0 1 1 0 .814"/>
        <path fill="#DEECF5" fill-rule="nonzero" d="M68.105 46.182h-1.4l-.673-1.5h2.073c.225 0 .407.336.407.75 0 .415-.182.75-.407.75m-8.398 0h-1.158c-.967-.144-1.907-.65-2.772-1.5h6.735c-.654.639-1.365 1.092-2.115 1.337-.23.075-.46.13-.69.163m-6.4 0h-.736c-.225 0-.407-.335-.407-.75 0-.334.12-.618.284-.714.266.515.553 1.005.859 1.464"/>
        <path fill="#C6DCEF" d="M36.108 69.929a5.766 5.766 0 1 1 0-11.533 5.766 5.766 0 0 1 0 11.533"/>
        <path fill="#FFF" d="M37.242 64.25a2.077 2.077 0 1 0-3.211-1.737c0 .727.376 1.365.943 1.736a2.929 2.929 0 0 0-2.255 2.846v1.726a5.735 5.735 0 0 0 6.777 0v-1.726c0-1.385-.963-2.54-2.254-2.846"/>
        <path fill="#2F60B4" d="M45.466 58.849l.28.567.624.09-.452.44.107.624-.56-.294-.558.294.107-.623-.453-.44.625-.091.28-.567M48.194 58.849l.28.567.624.09-.452.44.107.624-.56-.294-.559.294.108-.623-.453-.44.625-.091.28-.567M50.922 58.849l.28.567.624.09-.452.44.107.624-.56-.294-.558.294.107-.623-.453-.44.625-.091.28-.567M53.65 58.849l.28.567.624.09-.452.44.107.624-.559-.294-.56.294.108-.623-.453-.44.625-.091.28-.567M56.378 58.849l.28.567.624.09-.452.44.107.624-.559-.294-.56.294.108-.623-.452-.44.624-.091.28-.567"/>
        <path fill="#DEECF5" d="M68.105 69.443h-5.804a.407.407 0 1 1 0-.814h5.804a.407.407 0 0 1 0 .814M49.276 67.12h-4.414a.407.407 0 0 1 0-.814h4.414a.407.407 0 0 1 0 .814M68.105 67.12H51.188a.407.407 0 0 1 0-.814h16.917a.407.407 0 0 1 0 .814M68.105 64.797H44.862a.407.407 0 0 1 0-.814h23.243a.407.407 0 0 1 0 .814M52.25 62.474h-7.388a.407.407 0 0 1 0-.814h7.388a.407.407 0 0 1 0 .814M68.105 62.474H54.09a.407.407 0 0 1 0-.814h14.016a.407.407 0 0 1 0 .814M60.396 69.443H44.862a.407.407 0 0 1 0-.814h15.534a.407.407 0 0 1 0 .814"/>
        <path fill="#4173C2" fill-rule="nonzero" d="M76.941 61.183c-.295 0-.588-.127-.79-.372l-2.297-2.774v-3.22l.162.195h.092l.302.002.269.002c.165 0 .293-.004.356-.022l.074-.022-.013-.03s.87-.54 1.944-1.2v1.892l-1.434.51-.049-.117a1.786 1.786 0 0 0-.333.298l-.059.076 1.875 2.264v2.51l-.099.008m-3.087-10.007v-.307c.929-.28 2.054-.65 2.986-1.051l-.024.018-.106.075-.077.051a4.043 4.043 0 0 1-.116.073l-.088.052a4.99 4.99 0 0 1-.13.073l-.092.05-.15.077-.09.045c-.06.03-.123.058-.186.088l-.07.032c-.088.041-.18.081-.272.121l-.026.011-.256.107-.095.038-.2.08-.106.04c-.064.025-.128.05-.193.073l-.116.044-.19.068-.117.042-.197.07-.09.03m0-2.107v-.084c.712-.437 1.235-.785 1.243-.868.027-.264.756-7.375 1.789-8.485.052-.056.103-.099.155-.147v3.871c-.322 1.977-.516 3.866-.53 4-.013.133-1.342.943-2.656 1.713"/>
        <path fill="#5976C3" fill-rule="nonzero" d="M73.854 58.037l-.334-.402a.59.59 0 0 1-.544-.564.355.355 0 0 1-.393-.03.36.36 0 0 1-.114-.378c.013-.043.036-.086.031-.131-.008-.09-.109-.132-.183-.183a.482.482 0 0 1-.194-.403l-.138-.166v-3.22l1.869 2.257v3.22m-1.869-6.272v-.414l.029.034s.796-.201 1.84-.516v.307l-.019.006c-.07.025-.14.049-.211.072l-.094.032-.258.084-.042.014c-.444.143-.87.272-1.245.38m0-1.616v-.053c.635-.369 1.31-.767 1.869-1.11v.084c-.692.406-1.38.8-1.869 1.08"/>
        <path fill="#BBE4F5" fill-rule="nonzero" d="M71.985 55.78l-2.417-2.919v.002a.615.615 0 0 1-.654-.479c-.01-.06-.013-.122-.045-.172-.055-.089-.173-.106-.274-.136-.384-.112-.629-.501-.722-.892a1.457 1.457 0 0 1-.041-.356h.273a.407.407 0 0 0 0-.813h-.893l-1.25-1.51h2.143a.407.407 0 0 0 .354-.204l1.345 1.624.092.02c.214.079.423.187.576.357.127.141.21.351.206.546.366-.21.825-.473 1.307-.753v.053c-.426.243-.703.399-.703.399l.703.804v.414c-.192.056-.37.106-.532.152l.532.642v3.22m-4.03-8.087h-2.666l-.894-1.08a9.256 9.256 0 0 1-2.073 1.08h-6.375a9.273 9.273 0 0 1-2.64-1.51h5.242a7.223 7.223 0 0 0 1.158 0h6.998l1.25 1.51m-15.507-2.304a9.203 9.203 0 0 1-.99-1.238l-.084-.494.452-.44-.625-.091-.28-.567-.164.335a9.295 9.295 0 0 1-.598-6.032h2.129a7.22 7.22 0 0 0 .968 6.28l-.51.074.452.441-.108.623.56-.294.56.294-.008-.042a7.227 7.227 0 0 0 1.575 1.132H52.57a.41.41 0 0 0-.123.019m13.584-.02h-3.52a7.153 7.153 0 0 0 2.52-2.234 7.134 7.134 0 0 0 1.184-5.37 7.252 7.252 0 0 0-.22-.903h2.129a9.18 9.18 0 0 1-1.41 7.45c-.236.337-.5.65-.773.949l.09.109m1.859-9.322h-2.205a7.094 7.094 0 0 0-.924-1.51h2.464c.265.48.488.985.665 1.51m-15.292 0h-2.206a9.21 9.21 0 0 1 .669-1.51h2.463a7.215 7.215 0 0 0-.925 1.51m14.118-2.323H64a7.277 7.277 0 0 0-2.54-1.51h3.933c.499.457.942.963 1.325 1.51m-12.437 0h-2.71a9.34 9.34 0 0 1 1.317-1.51h3.941a7.1 7.1 0 0 0-2.548 1.51m10.087-2.323H53.907a9.213 9.213 0 0 1 3.809-1.51H60.6a9.202 9.202 0 0 1 3.768 1.51"/>
        <path fill="#A0CFE9" d="M65.393 32.215H61.46a7.105 7.105 0 0 0-2.303-.383 7.284 7.284 0 0 0-2.328.383h-3.941a9.163 9.163 0 0 1 1.019-.814h10.46l.065.045c.34.237.66.494.961.769"/>
        <path fill="#A0CFE9" fill-rule="nonzero" d="M67.226 34.538h-2.464a13.347 13.347 0 0 0-.762-1.5h2.718c.183.483.353.983.508 1.5m-13.701 0h-2.463a22.977 22.977 0 0 1 .509-1.5h2.71c-.27.46-.524.96-.756 1.5"/>
        <path fill="#A0CFE9" d="M68.105 36.86h-2.11a7.155 7.155 0 0 0-.309-.813h2.205c.09.266.168.537.234.813h-.02M52.288 36.86h-2.13c.066-.273.144-.545.235-.813H52.6a7.085 7.085 0 0 0-.311.814M60.6 29.891h-2.884a6.985 6.985 0 0 1 2.884 0"/>
        <path fill="#2953AA" d="M51.458 44.15a9.232 9.232 0 0 1-.701-1.257l.165-.335.28.567.624.09-.452.441.084.494M54.21 44.279l-.56-.294-.56.294.108-.623-.453-.44.511-.075c.274.392.59.76.946 1.096l.007.042"/>
        <path fill="#A0CFE9" fill-rule="nonzero" d="M68.105 48.505h-2.143l-.673-1.5h2.666l.504 1.123c-.07.226-.203.377-.354.377m-8.983-.452c-1.088 0-2.16-.355-3.175-1.048h6.375a6.247 6.247 0 0 1-1.566.782 5.237 5.237 0 0 1-1.634.266"/>
        <path fill="#A0CFE9" d="M68.105 50.828h-.273l.003-.061-.623-.752h.893a.407.407 0 0 1 0 .813"/>
        <path fill="#A0CFE9" fill-rule="nonzero" d="M66.705 46.182h-6.998c.23-.034.46-.088.69-.163.75-.245 1.46-.698 2.115-1.337h3.52l.673 1.5m-8.156 0h-5.242c-.306-.459-.593-.949-.86-1.464a.244.244 0 0 1 .124-.036h3.206c.865.85 1.805 1.356 2.772 1.5"/>
        <path fill="#95D3F3" d="M6.633 49.922s-1.153-.838-2.51-1.886a124.268 124.268 0 0 0 2.51 1.886l.13-.174-.13.174"/>
        <path fill="#B1A08D" d="M6.762 49.748l.177-.239-.177.239"/>
        <path fill="#EDF9FE" d="M16.806 85.324c-4.667 0-8.45-.34-8.45-.76 0-.422 3.783-.762 8.45-.762 4.668 0 8.452.34 8.452.761 0 .42-3.784.761-8.452.761"/>
        <path fill="#AEDFF6" d="M22.176 48.508l-.15-.006V38.106l.15.007v10.395"/>
        <path fill="#4173C2" d="M24.906 48.884a.5.5 0 0 1-.067-.004l-2.767-.372V38.113l3.186.427v10.196a.485.485 0 0 1-.352.148"/>
        <path fill="#95D3F3" d="M25.258 48.736V38.54l1.868.252v2.51l-1.761 7.24a.43.43 0 0 1-.107.194"/>
        <path fill="#BBE4F5" d="M27.126 41.302v-2.51l.086.011c.272.037.453.283.392.534l-.478 1.965"/>
        <path fill="#70CDF4" d="M20.668 37.62L18.8 45.823c-.051.224.1.444.327.476l5.813.835a.393.393 0 0 0 .439-.301l1.868-8.204a.393.393 0 0 0-.327-.476l-5.814-.835a.392.392 0 0 0-.438.302"/>
        <path fill="#EAF8FE" d="M21.031 37.884l-1.788 7.855 5.772.829 1.788-7.855-5.772-.829"/>
        <path fill="#A8D7F2" d="M26.207 39.191l-4.906-.704a.102.102 0 1 0-.029.201l4.906.705a.102.102 0 0 0 .029-.202M26.041 39.934l-4.905-.705a.102.102 0 1 0-.029.202l4.905.704a.102.102 0 0 0 .115-.086.101.101 0 0 0-.086-.115M24 40.549l-3.066-.44a.102.102 0 1 0-.03.201l3.066.44a.102.102 0 1 0 .03-.201M23.781 41.187l-3.065-.44a.102.102 0 0 0-.03.201l3.066.44a.102.102 0 1 0 .029-.201M23.564 41.825l-3.066-.44a.102.102 0 0 0-.029.201l3.066.44a.102.102 0 0 0 .115-.086.102.102 0 0 0-.086-.115M24.687 45.352l-3.065-.44a.101.101 0 0 0-.115.086.101.101 0 0 0 .086.115l3.066.44a.102.102 0 1 0 .028-.201"/>
        <path fill="#F29274" d="M18.43 45.921c.33-.155.574-.442.808-.72l.693-.825c.092-.109.187-.227.197-.368-.387-.032-.637.47-1.024.5.18-.637.44-1.253.77-1.827.08-.14.168-.304.11-.455-.418.16-.77.457-1.076.786-.213.23-.409.479-.582.741-.512.774-.828 1.661-1.044 2.563"/>
        <path fill="#F9B191" d="M12.613 49.028s-1.932 2.62-1.204 5.147c.358 1.244.807 1.86 1.002 2.45.182.55 1.432 8.35 1.339 8.92-.094.57-.765 2.166-1.02 3.844-.308 2.017-.256 8.593-.495 10.335-.239 1.744 1.37 2.039 1.46 1.45.756-5.042 2.755-12.897 3.034-15.418.28-2.52.167-7.135.035-13.226l-4.15-3.502z"/>
        <path fill="#F29274" d="M16.776 57.497l-1.805 4.142a9.281 9.281 0 0 1 1.26 4.342c.03.8-.04 1.6-.019 2.4a.81.81 0 0 0 .024.173c.243-1.185.422-2.161.493-2.798.198-1.78.2-4.61.136-8.264l-.09.005"/>
        <path fill="#F9B191" d="M13.974 79.554s-.386 1.83-.283 2.062c.105.233.479.911.862 1.156.401.257 1.291.562 1.362.674.072.111.076.274-.05.373-.329.258-.897.384-1.27.322-1.206-.2-1.331-.733-2.034-.818-.121-.015-.346.165-.682-.008-.336-.17-.499-.482-.47-.773.05-.505.333-.92.534-1.292.202-.373.344-2.078.344-2.078"/>
        <path fill="#2B2F75" d="M15.958 83.907c.088-.15.11-.378.029-.433-.114-.078-.517-.345-.751-.452-.234-.108-.605-.203-.475-.133.131.071-.11.335-.329.322-.756-.047-1.314-.55-1.745-.657-.621-.155-.882-.89-.91-1.008-.117.074-.39.665-.446.851-.05.168-.14.475-.092.65.033.121.106.364.069.62 0 0 .122.095.447.161.205.043.481.007.481.007l.054-.39s.169-.007.385.038c.214.044.566.249.587.274.087.103.155.291.27.348.302.153.607.225.992.248.811.047 1.284-.188 1.434-.446"/>
        <path fill="#F9B191" d="M22.432 83.831c-.09-.098-1.05-.255-1.502-.443-.43-.18-.95-.757-1.051-1.002-.102-.245-.078-1.486-.065-2.007.09-3.59.753-12.36.849-14.462.167-3.65-.307-7.419-1.712-13.28l-5.23-4.014s-1.466 2.723-.975 5.327c.284 1.51 1.537 1.743 1.75 2.33.211.586 3.376 10.053 3.376 10.053s-.616 2.047-.652 4.289c-.03 1.914.838 7.687.999 9.887.019.43.093 1.458-.034 1.786-.155.401-.55.873-.53 1.38.01.293.223.573.593.688.371.115.578-.1.705-.105.738-.03.942.477 2.215.476.393 0 .962-.216 1.264-.525.117-.12.09-.28 0-.378"/>
        <path fill="#2B2F75" d="M22.542 84.28c.069-.163.06-.391-.032-.433-.128-.057-.583-.256-.84-.324-.256-.068-.652-.101-.508-.053.145.049-.066.349-.294.372-.787.077-1.433-.329-1.893-.365-.664-.051-.907-.735-.952-.848-.111.093-.439.722-.47.915-.028.174-.076.493-.003.658.051.114.162.343.159.602 0 0 .14.073.484.086.218.008.498-.072.498-.072v-.395s.173-.034.402-.025c.229.008.51.125.648.23.109.08.223.217.35.25a2.66 2.66 0 0 0 1.033.078c.844-.086 1.299-.396 1.418-.675"/>
        <path fill="#244382" d="M12.722 48.587c-.354.39-1.62 2.498-1.633 4.214-.014 1.716.596 2.816.652 3.174.4 2.622.789 5.783.789 5.954 0 .172 1.488 1.164 3.489 1.038 3.697-.232 5.134-1.2 5.134-1.2s-.175-6.35-.744-9.481c-.286-1.569-1.53-4.094-1.53-4.094"/>
        <path fill="#F9B191" d="M9.35 41.73s.595 2.96.75 3.486c.157.527.93 3.87 1.662 3.812.732-.059 4.742-3.407 4.742-3.407l-.568-1.136-3.53 1.683s-.319-3.821-.598-4.731"/>
        <path fill="#F29274" d="M10.714 43.552c.374 1.321 1.14 2.713 1.369 3.737.046.206 2.49-.683 2.496-1.6"/>
        <path fill="#CBB16F" d="M11.74 37.63s-1.17.125-1.764.579c-1.513 1.158-.342 5.362-.342 5.362s-.074.224.942.167c1.015-.057 1.83-.346 1.83-.346l-.293-3.444"/>
        <path fill="#CBB16F" d="M10.4 40.01s-.128 2.471.32 3.718c.442-.008.829-.109.829-.109L10.4 40.01"/>
        <path fill="#F9B191" d="M17.335 29.875c.705.914.566 2.2.392 3.342l-.264 1.732c-.042.274-.098.574-.311.75-.216.18-.524.176-.803.164l.008 1.434c-.817.02-1.635.022-2.452.01a2.36 2.36 0 0 0-.212-.974c-.4-.008-.667-.409-.824-.777-.18-.424-.312-.868-.439-1.311-.169-.588-.33-1.186-.346-1.798-.016-.612.13-1.248.518-1.721.266-.323.626-.552.997-.745.507-.264 1.116-.473 1.639-.241"/>
        <path fill="#244382" d="M16.489 34.232c-.096-.48-.09-.752.068-1.072a.708.708 0 0 1 .214-.272.455.455 0 0 1 .437-.045c.092.04.168.115.22.205.166-.645.201-1.333.153-2.003-.076-1.062-.716-1.884-1.652-2.268-1.731-.711-4.219-.008-4.922 1.69-.531 1.285-.262 3.137.755 4.214.9.952 2.195 1.092 3.39.896.61-.1 1.555-.04 1.871-.872.024-.064-.03-.128-.095-.123-.248.02-.42-.262-.439-.35"/>
        <path fill="#244382" d="M16.622 31.971c.065.101.05.237.11.34.101.173.236.236.418.32.294.137.225.564.217.756.222-.147.257-.549.311-.753.06-.228.099-.464.166-.69.064-.221.177-.43.197-.661.072-.804-.432-1.747-1.04-2.198-.443-.328-1.12-.314-1.62.02-.211.14-.37.352-.463.588-.04.1-.068.219-.018.315M12.687 37.64c.042-.279.118-.606.378-.716a.822.822 0 0 1 .23-.049 19.1 19.1 0 0 1 2.402-.113c.332.006.676.022.973.17.465.233.721.735.946 1.204"/>
        <path fill="#EAD18C" d="M19.443 47.9c-.112-.166-.37-.363-.461-.544-.222-.436-.416-2.27-.34-2.738.082-.502.527-.772.727-1.89.258-1.44-.332-2.56-.662-3.039-.467-.677-.19-.674-.35-1.504-.028-.15-.062-.31-.164-.414-.101-.102-.797-.42-.933-.441-1.297-.201-2.06-.044-3.37.013-.649.028-1.296.104-1.933.245-.705.155-1.318.342-1.463 1.298-.224 1.48-.036 2.974.414 4.378.298.929 2.077 4.146 1.636 4.768-.1.143-.353.413-.383.59-.112.65 1.357.88 1.986.93.957.08 2.057.027 3.017-.018.727-.034 2.318-.288 2.431-1.187.022-.176-.065-.318-.152-.447"/>
        <path fill="#CBB16F" d="M19.166 43.006c0 .261-.146.612-.193.75-.183.093-.906.25-1.321.06-.091-.865-.598-2.528-.598-2.528s2.112 1.476 2.112 1.718"/>
        <path fill="#244382" d="M13.113 34.981c-.499-.14-1.037.14-1.369.539-.384.46-.55 1.173-.191 1.653.134.179.325.306.52.415.595.33 1.3.526 1.96.364.66-.163 1.24-.754 1.232-1.434-.007-.615-.456-1.13-.91-1.545"/>
        <path fill="#F9B191" d="M18.237 42.403s2.396 5.789 3.435 5.789c.756 0 2.61-5.344 2.61-5.344l-1.172-.555-1.306 2.239-1.322-4.175"/>
        <path fill="#F9B191" d="M22.878 42.692s.388-.611.36-1.045c-.011-.166-.11-.953-.027-1.107.082-.155.279-.661.391-.76.113-.099.529-.257.631-.186.101.07.228-.253.397-.225.168.028.31.168.31.324 0 .154.224.182.252.295.029.112.015.21.057.295.042.084.166.043.21.253.042.193-.013.211 0 .31.015.098.1.089.071.276-.028.188-.157.431-.269.642a1.853 1.853 0 0 1-.653.662c-.152.091-.236.252-.381.526"/>
        <path fill="#2B2F75" d="M23.522 38.218c-.03-.045-.111-.122-.207-.055-.096.067-.067.183-.046.23l.708 1.603s.058.066.167-.03c.119-.106.08-.158.08-.158s-.673-1.543-.702-1.59"/>
        <path fill="#F29274" d="M24.268 39.705c-.135.24-.291.318-.432.45-.11.104-.097.17-.218.277.213-.016.177-.142.453-.34.128-.093.26-.193.285-.35.008-.054-.056-.083-.088-.037"/>
        <path fill="#CBB16F" d="M16.034 37.24c.624.033 2.44-.286 3.449.77.846.884 1.33 3.203 1.67 4.143-.847.863-1.662 1.56-2.946 1.28-.048-.037-.685-2.04-1.148-2.219"/>
        <path fill="#1C3A77" d="M16.727 62.912c-.236-1.524-1.694-6.246-1.756-6.376-.795-.616-1.319-1.251-1.583-1.765-.18 1.035.292 2.06.734 3.012.773 1.665 1.231 3.474 1.897 5.184"/>
        <path fill="#6888CD" d="M78.3 38.872c-1.034 1.11-1.763 8.22-1.79 8.484-.026.264-5.228 3.19-5.228 3.19l.732.839s5.543-1.397 6.54-2.602c.846-1.023 2.8-9.382 2.8-9.382s-1.341-2.371-3.055-.53"/>
        <path fill="#EDF9FE" d="M86.374 87.853c-8.558 0-15.496-.475-15.496-1.06 0-.587 6.938-1.062 15.496-1.062 8.559 0 15.497.475 15.497 1.061s-6.938 1.06-15.497 1.06"/>
        <path fill="#F9B191" d="M94.19 81.146s.424.817.638 1.076c.213.258 1.14-.327 1.146-.539.006-.211-.823-1.497-.823-1.497"/>
        <path fill="#37354C" d="M96.385 81.764c.2.283.53.847.53.847l-.819.747-.214-.092s-.135.368-.383.605a4.229 4.229 0 0 1-.846.577c-.816.38-1.499.437-1.591.34-.39-.41.688-.923.89-1.057.58-.385.74-1.04.679-1.41-.044-.27-.125-.292.022-.333 0 0 .124-.05.285.028.247.12.548.11.749-.08a.748.748 0 0 0 .24-.398s.257-.058.458.226"/>
        <path fill="#F9B191" d="M78.945 83.95s-.205.503-.179.834c.025.331 1.126.356 1.254.183.128-.171.193-1.693.193-1.693"/>
        <path fill="#37354C" d="M80.311 85.26c0 .345-.1.908-.1.908h-1.269l-.062-.203s-.412.203-.735.203h-1.07c-.784 0-1.23-.095-1.25-.228-.082-.553.855-.527 1.098-.527.7 0 1.459-.315 1.624-.655.12-.247.067-.31.211-.264 0 0 .13.027.218.18.133.235.386.392.661.346a.78.78 0 0 0 .43-.198s.244.093.244.438"/>
        <path fill="#424059" d="M85.41 60.91c-.003.024-.262-.258-.52-.54-.26-.284-.52-.567-.526-.542-.41 2.062-2.311 8.957-2.943 10.766v.004c-.093.252-.581.798-.986.902-.929.242-2.411-.077-2.53-1.853-.015-.196.03-.41.008-.641-.266-2.737 2.352-14.804 2.419-15.573.041-.504.705-.44 1.277-.375.301.034.577.068.723.019 2.114-.702 3.632 4.949 3.079 7.833"/>
        <path fill="#424059" d="M81.543 71.57c-.43-1.284.222-2.788.222-2.788s-3.65-2.806-3.835-1.094c-.019.136-.155 1.297-.154 1.951 0 2.343.815 9.76.755 14.29v.295s.61.121 1.68.11c.048 0 .1 0 .152-.003.305-2.82.965-6.656 1.278-10.516.077-.946-.027-2.032-.098-2.244M90.856 70.993c-.73-.908-1.501-1.314-1.73-2.005-.53-1.607-.387-8.126-.437-9.936.15-.37 1.557-4.07-1.297-6.796 0 0-2.566 1.1-4.62 1.233-1.619.105-2.44-.056-2.44-.056s1.528 2.305 1.617 3.327c.152 1.736 3.397 12.22 3.644 12.794.564 1.309 1.187 1.824 1.393 2.092 1.439 1.872 4.806 5.809 7.359 9.58l.172.243s.513-.176 1.468-.831c-1.376-2.51-2.814-6.769-5.13-9.645"/>
        <path fill="#6888CD" d="M78.3 38.872c.512-.588 2.71-1.497 4.884-1.428 1.498.047 6.26.537 6.715 1.54.233.511.21 5.373-.13 7.182-.257 1.36-1.032 4.855-1.032 5.668 0 .813.437 1.161.233 1.398-.456.528-3.868.765-5.334.765-1.304 0-3.524-.348-3.636-.765-.168-.62.254-.597.311-1.248.057-.65.365-4.938-.017-5.561-.607-.99-1.527-3.793-1.574-4.538-.046-.746-.933-2.425-.42-3.013"/>
        <path fill="#F9B191" d="M81.906 35.598s-.015 1.809-.088 1.882c-.073.073-.43.242-.43.242s.255 1.572.649 1.455c.393-.117 2.995-1.43 2.995-1.43s-.369-.15-.369-.297c0-.146.35-2.99.35-2.99"/>
        <path fill="#1E1F4C" d="M82.608 29.65c-.314-.238-.767-.247-1.122-.075-.355.172-.616.503-.766.868-.145.353-.188.773-.002 1.105-.261.085-.424.37-.424.645 0 .299.176.588.334.83.152.232.48.373.75.313a.85.85 0 0 0 .477-.335c.12-.159.197-.344.27-.529.333-.857.56-1.753.727-2.658"/>
        <path fill="#F9B191" d="M83.712 29.027c-.379.103-1.378-.104-1.654.31-.276.413-.517 1.413-.62 1.689-.206.548-.34 1.135-.49 1.7-.194.738-.696 2.127.026 2.744.207.177.48.197.736.244.342.062.682.131 1.023.193.529.095 1.115.206 1.641.035.702-.228 1.088-1.194 1.268-1.85l1.034-3.756-2.964-1.31"/>
        <path fill="#F9B191" d="M85.264 34.467s-.022.174.1.295c.106.106.291.067.416.01.354-.161.566-.55.592-.927.031-.445-.253-.855-.64-.695-.225.093-.34.375-.31.618"/>
        <path fill="#2B2F75" d="M86.213 32.411c-.122.373-.441 1.22-.78 1.139-.34-.083.137-1.41.43-1.943-.426-.001-.952-.067-1.106-.465-.035-.09-.062-.205-.156-.226-.076-.016-.145.046-.21.088-.3.195-.709.005-.947-.26-.054-.061-.118-.132-.2-.126-.05.003-.093.036-.134.065-.491.35-1.798.332-1.794-.282-.43.218-.71-.314-.683-.68.025-.364.299-.972.892-.957-.03-.448.322-.73.678-1.003.356-.273.811-.395 1.26-.415.708-.033 1.514.26 1.756.926.017.049.035.102.08.129.048.029.11.012.165-.002.538-.144 1.157-.06 1.571.312.416.372.555 1.054.235 1.51.416.098.638.591.573 1.013-.065.421-.342.777-.629 1.092.45.144.63.76.402 1.173-.229.414-.814.638-1.281.57.107-.426-.078-.917-.49-.993M81.94 39.609s-.144 6.658-.415 10.708l.98 1.35.672-1.69s.284-4.885-.637-10.321l-.6-.047"/>
        <path fill="#1E1F4C" d="M81.714 39.024l.023.092c.043.173.112.339.203.493l.6.047s.409-.215.463-.445c.054-.23-.671-.607-.671-.607l-.088.035c-.203.08-.383.21-.523.376l-.007.01"/>
        <path fill="#ECECEC" d="M84.73 36.821s.517.371.819.827c-.31.707-1.228 1.909-1.997 2.48-.36-.964-1.22-1.524-1.22-1.524s2.182-.451 2.397-1.783M82.332 38.604s-.75.298-1.195 1.136c0 0-.143-1.134.163-2.108 0 0 .404-.678.574-.691-.07.802.458 1.663.458 1.663"/>
        <path fill="#37354C" d="M81.543 71.57a3.014 3.014 0 0 1-.145-.925l.023-.047v-.004c.425-1.217 1.424-4.733 2.157-7.533l-1.137-4.055s-.69 8.253-.916 8.845c-.226.593-.93 2.499-.862 2.91.069.41.513 1.163.445 1.813-.068.648-.058 6.48-.058 6.511.225-1.685.446-3.474.591-5.27.077-.946-.027-2.032-.098-2.244"/>
        <path fill="#2B2F75" d="M67.288 42.96l-.834-.582a7.185 7.185 0 0 1-5.905 3.075 7.154 7.154 0 0 1-4.113-1.297 7.184 7.184 0 0 1-3.075-5.905c0-1.424.419-2.855 1.297-4.113a7.184 7.184 0 0 1 5.905-3.075c1.424 0 2.855.42 4.113 1.297a7.183 7.183 0 0 1 3.075 5.905c0 1.424-.419 2.855-1.297 4.113l.834.583.834.582a9.193 9.193 0 0 0 1.664-5.278 9.22 9.22 0 0 0-3.945-7.573 9.194 9.194 0 0 0-5.278-1.663 9.22 9.22 0 0 0-7.573 3.944 9.19 9.19 0 0 0-1.664 5.278 9.22 9.22 0 0 0 3.945 7.573 9.19 9.19 0 0 0 5.278 1.664 9.22 9.22 0 0 0 7.573-3.945l-.834-.582"/>
        <path fill="#2B2F75" d="M65.343 45.272l12.229 14.772a1.017 1.017 0 1 0 1.567-1.297l-12.23-14.772a1.018 1.018 0 0 0-1.566 1.297"/>
        <path fill="#F9B191" d="M77.473 53.921s-.675.21-1.024.312c-.227.065-1.307-.05-1.942.095-.306.07-.625.178-.824.422-.198.245-.21.66.049.838.074.05.173.094.182.183.005.045-.017.088-.03.131a.359.359 0 0 0 .114.377c.109.088.272.1.393.03a.59.59 0 0 0 .547.565c-.011-.16.04-.334.171-.424.127-.087.294-.076.447-.092a1.2 1.2 0 0 0 .72-.342c.136-.137.238-.305.362-.452a1.823 1.823 0 0 1 1.003-.6"/>
        <path fill="#7FC7EF" fill-rule="nonzero" d="M80.068 54.886c.23-.243.501-.487.752-.72-.215.209-.468.45-.752.72m1.231-1.195c.094-.107.173-.21.226-.305l.043.004c-.05.067-.141.168-.269.3"/>
        <path fill="#A23451" d="M80.067 54.89l.001-.004a173.866 173.866 0 0 0 .212-1.12c.022-.123.038-.218.046-.281l.054.022c.11.168.386.603.677 1.118-.36.1-.694.19-.99.266"/>
        <path fill="#7FC7EF" d="M80.319 51.936"/>
        <path fill="#AEDFF6" d="M90.078 41.846h-.026c.01-1.405-.043-2.62-.153-2.863.132.289.209 1.395.179 2.863"/>
        <path fill="#7FC7EF" d="M90.022 43.23c.044-.464.071-.934.08-1.384h.07c-.024.433-.073.898-.15 1.383"/>
        <path fill="#AEDFF6" d="M89.954 38.926c-.002-.002-.002-.003-.002-.005 0 .002 0 .003.002.005"/>
        <path fill="#A23451" d="M81.057 54.625c-.291-.515-.568-.95-.677-1.118.629.251 1.902.44 2.88.481-.76.227-1.526.45-2.203.637"/>
        <path fill="#5976C3" d="M83.26 53.988c-.978-.04-2.251-.23-2.88-.48l-.054-.023-.007-.003a2.28 2.28 0 0 0 .013-.232c-.167-.62-.078-.615-.021-1.266l.004-.048c.01-.105.022-.27.036-.478a52.25 52.25 0 0 1 1.343-.908l.81 1.117.673-1.69.01-.214c.668-.326 1.249-.599 1.249-.599s1.492-5.241 2.24-7.234l3.14-3.07a.57.57 0 0 1 .082.12l.001.003c.11.242.164 1.458.153 2.863-.004.45-.014.92-.03 1.383l-.001.014c-.83 3.501-2.264 9.268-2.54 9.418-.119.064-2.152.711-4.22 1.327"/>
        <path fill="#282D6C" d="M82.504 51.667l-.81-1.117c.168-.109.3-.188.38-.23.34-.177.74-.376 1.113-.557l-.01.214-.673 1.69"/>
        <path fill="#6888CD" d="M86.66 41.595c-.292.831-1.833 8.151-1.833 8.151s-1.508.379-2.456.871c-.736.382-5.86 3.565-5.86 3.565l.51 1.2s9.122-3.233 9.521-3.45c.4-.217 4.063-9.46 4.063-11.109 0-.971-.786-1.966-.786-1.966"/>
        <path fill="#F9B191" d="M70.983 52.101a.61.61 0 0 1-.654-.478c-.011-.059-.014-.121-.045-.172-.055-.089-.174-.106-.274-.136-.385-.113-.63-.501-.722-.891a1.193 1.193 0 0 1-.002-.632c.063-.203.218-.386.423-.445a.2.2 0 0 1 .123-.003c.04.015.068.048.093.082.12.157.209.335.263.525.039.137.067.293.183.378.077.056.179.068.265.11.173.085.26.28.325.462.098.277-.032.911.022 1.2M72.084 50.203c.053-.222-.045-.492-.198-.662-.152-.17-.361-.279-.575-.358-.057-.021-.134-.035-.167.016-.024.036-.01.084.012.121.081.138.252.203.34.337.032.05.051.108.078.163a.71.71 0 0 0 .51.383"/>
        <path fill="#7FC7EF" fill-rule="nonzero" d="M78.594 48.73l.019-.024-.019.024M78.576 48.757c.393-.339.933-1.322 1.496-2.53-.563 1.208-1.103 2.191-1.496 2.53"/>
        <path fill="#5976C3" d="M74.337 50.72s3.483-1.984 3.832-2.298c.348-.314.211-3.99.624-6.09l.004.02c.032.172.09.39.162.63.21.74.527 1.67.841 2.423-.081.282-.163.558-.244.823-.37 1.207-.724 2.19-.981 2.53l-.01.012-.005.007c-.002 0-.002.002-.003.002v.001l-.002.003c-.002 0-.003.002-.004.004a.035.035 0 0 0-.003.004c-.572.678-2.573 1.415-4.21 1.93"/>
        <path fill="#5AAEE4" fill-rule="nonzero" d="M80.279 45.405a18.72 18.72 0 0 1-1.25-2.424c.447 1 1.272 2.374 1.272 2.374l-.022.05m-1.44-3.08l-.014-.072.001-.008.014.08"/>
        <path fill="#F29274" d="M81.904 35.75s1.471.32 1.732.278c.261-.042-.566.449-.72.467-.154.018-1.012-.1-1.012-.1v-.646"/>
    </g>
</svg>
