<svg xmlns="http://www.w3.org/2000/svg" width="99" height="93" viewBox="0 0 99 93">
    <g fill="none" fill-rule="evenodd">
        <path fill="#96C8EA" d="M52.363 8.704v7.608a.174.174 0 0 0 .349 0V8.704a.175.175 0 0 0-.35 0M52.363 5.886V6.9a.175.175 0 0 0 .349 0V5.886a.175.175 0 0 0-.35 0"/>
        <path fill="#2F63B1" d="M67.481 71.822l2.297 15.697s1.822 2.46 8.691 2.46c6.869 0 8.69-2.46 8.69-2.46l2.298-15.697H67.48"/>
        <path fill="#233D72" d="M78.47 80.364c4.044 0 7.639-.51 9.927-1.3l1.026-7.012H67.515l1.026 7.011c2.288.79 5.883 1.3 9.928 1.3"/>
        <path fill="#2F63B1" d="M90.986 75.438c0 1.835-5.604 3.322-12.517 3.322-6.913 0-12.517-1.487-12.517-3.322l-.602-4.99h26.238l-.602 4.99"/>
        <path fill="#4D93BB" d="M91.588 70.448c0 1.923-5.874 3.482-13.119 3.482s-13.12-1.559-13.12-3.482c0-1.922 5.875-3.481 13.12-3.481 7.245 0 13.119 1.559 13.119 3.481"/>
        <path fill="#2A4F93" d="M90.2 70.383c0 1.45-5.252 2.624-11.73 2.624-6.48 0-11.732-1.175-11.732-2.624 0-1.45 5.252-2.624 11.731-2.624s11.73 1.174 11.73 2.624"/>
        <path fill="#17263F" d="M67.275 71.17c1.494-1.065 5.94-1.838 11.194-1.838 5.253 0 9.7.773 11.194 1.838.348-.249.537-.513.537-.787 0-1.45-5.252-2.624-11.73-2.624-6.48 0-11.732 1.174-11.732 2.624 0 .274.189.538.537.787"/>
        <path fill="#54C5B2" d="M86.409 41.37c-1.12-2.719-1.306-5.603-.878-8.462.573-3.88 1.86-7.627.374-11.388-1.392-3.551-2.736-8.23-6.577-9.728-3.735-1.594-6.56 2.089-6.498 5.481.064 3.394 1.99 6.454 1.028 9.803-.732 2.744-1.69 5.991-.26 8.62 1.714 3.256 4.905 5.548 3.711 9.504-.47 1.42-1.24 2.62-1.402 4.051-.193 2.15.894 2.677 1.87 4.393 4.111 7.226-3.42 10.14-.465 18.076a.542.542 0 0 0 .535.355.533.533 0 0 0 .505-.47c.941-8.876 7.268-5.815 7.334-13.006.012-1.338-.401-2.688-.243-4.017.189-2.046 1.774-3.11 2.266-5.041.847-3.047-.182-5.453-1.3-8.171z"/>
        <path fill="#95DBD6" d="M79.137 52.245c0 .01.089 1.04.56 2.149.235.553.567 1.128 1.039 1.6.47.474 1.085.844 1.865.975a.175.175 0 0 0 .058-.344 3.037 3.037 0 0 1-1.676-.877c-.644-.644-1.025-1.53-1.238-2.255a7.896 7.896 0 0 1-.25-1.184c-.008-.063-.01-.094-.01-.094a.175.175 0 0 0-.348.03M76.3 32.573c.001.012.054 1.163.595 2.48.539 1.316 1.58 2.81 3.547 3.447a.175.175 0 1 0 .108-.333c-1.842-.596-2.813-1.986-3.332-3.246a8.222 8.222 0 0 1-.553-2.177 5.336 5.336 0 0 1-.013-.141l-.003-.046a.175.175 0 0 0-.349.016M84.77 26.39l-.004.048a8.06 8.06 0 0 1-.636 2.576c-.26.584-.622 1.167-1.126 1.642a3.905 3.905 0 0 1-1.984 1.006.175.175 0 0 0 .066.343 4.259 4.259 0 0 0 2.265-1.2c.84-.848 1.277-1.948 1.51-2.833.23-.886.257-1.561.257-1.57a.175.175 0 0 0-.349-.013M84.653 41.18l.018.121c.034.241.102.817.102 1.531 0 .803-.087 1.78-.4 2.643-.315.866-.845 1.61-1.733 2.002a.175.175 0 1 0 .14.32c.998-.439 1.588-1.282 1.92-2.203.334-.923.422-1.934.422-2.762 0-.981-.125-1.705-.126-1.711a.174.174 0 1 0-.343.059M83.868 58.52v.048a6.07 6.07 0 0 1-.688 2.514 4.516 4.516 0 0 1-1.362 1.56c-.625.443-1.442.776-2.525.885a.174.174 0 1 0 .035.348c1.211-.122 2.133-.517 2.824-1.046 1.038-.792 1.553-1.871 1.809-2.746a6.109 6.109 0 0 0 .256-1.562.174.174 0 1 0-.349 0M77.96 19.84c.001.008.09 1.207.538 2.52.225.655.54 1.34.986 1.92.446.579 1.029 1.053 1.779 1.265a.174.174 0 1 0 .095-.336c-.662-.187-1.183-.606-1.598-1.142-.62-.804-.99-1.871-1.196-2.735a11.565 11.565 0 0 1-.245-1.406c-.008-.074-.01-.112-.01-.112a.174.174 0 1 0-.349.025"/>
        <path fill="#95DBD6" d="M78.346 16.683c1.156 1.141 1.868 2.833 2.286 4.691.418 1.858.542 3.878.542 5.665 0 1.317-.067 2.508-.133 3.416l.174.012-.174-.014c-.13 1.563-.723 4.51-.723 7.53 0 1.67.18 3.365.728 4.872 1.066 2.935 2.052 5.983 2.052 9.47 0 1.73-.243 3.568-.84 5.558-.565 1.882-1.721 3.343-2.756 5.117-1.034 1.772-1.931 3.862-1.93 6.968 0 .612.035 1.265.11 1.961a.174.174 0 1 0 .347-.037 17.993 17.993 0 0 1-.108-1.924c.002-3.039.866-5.045 1.882-6.793 1.016-1.746 2.198-3.23 2.789-5.192.608-2.022.855-3.896.855-5.659 0-3.553-1.005-6.646-2.073-9.588-.527-1.45-.707-3.109-.707-4.753 0-2.978.587-5.9.722-7.501v-.002c.066-.913.134-2.112.134-3.441 0-1.804-.125-3.846-.55-5.741-.428-1.895-1.155-3.649-2.381-4.863a.175.175 0 0 0-.246.248"/>
        <path fill="#204374" d="M78.392 71.605c.02-.055.044-.11.065-.166-.021.055-.045.11-.065.166"/>
        <path fill="#3BB297" fill-rule="nonzero" d="M77.943 72.062a.176.176 0 0 0 .068-.072.528.528 0 0 0 .065-.092c.09-.16.187-.298.29-.418l-.014.125-.006.033a.52.52 0 0 1-.217.34.549.549 0 0 1-.186.084m-.677-.468a12.17 12.17 0 0 1-.165-.493l-.01-.028c-1.12-3.59-.076-6.135.863-8.593.06.682.407 1.357.698 1.981l.042.092c-.652 1.449-1.123 3.165-1.122 5.415 0 .075 0 .15.002.227-.172.382-.284.837-.308 1.399"/>
        <path fill="#152131" d="M79.016 68.562"/>
        <path fill="#3BB297" fill-rule="nonzero" d="M77.926 69.6c.045-1.868.422-3.336.954-4.6.608 1.61.195 2.43-.379 3.73.197-.123.396-.24.59-.366-.026.065-.05.13-.075.198-.403.313-.786.633-1.09 1.039m2.83-3.817c.15-.75.232-1.606.452-2.393.255-.115.49-.246.704-.39-.16.698-.237 1.43-.369 2.079-.267.215-.53.446-.786.704m.6-2.856c.136-.36.312-.697.552-.99.218-.244.454-.44.699-.615a3.85 3.85 0 0 0-.55 1.137 4.448 4.448 0 0 1-.7.468"/>
        <path fill="#52BFC0" fill-rule="nonzero" d="M85.73800000000001 57.526999999999994a2.13 2.13 0 0 0 .004-.169c0 .057 0 .111-.004.168m.009-.202v-.04.04m0-.086v-.032.032"/>
        <path fill="#3BB297" d="M84.859 59.638c.044-.053.087-.107.13-.164.334-.462.554-.884.688-1.279a7.1 7.1 0 0 1 .009.416v.024l-.001.026v.002l-.005.204c-.257.316-.535.56-.821.771"/>
        <path fill="#52BFC0" fill-rule="nonzero" d="M85.946 56.471c-.215-.259-.403-.518-.513-.776.11.259.298.517.513.776m-.513-.824c-.003-.015-.003-.03-.005-.045.002.015.002.03.005.045m-.005-.01c-.003-.015-.003-.029-.005-.043.002.014.002.028.005.043m-.005-.018l-.002-.029.002.029m.15-1.028l.007-.009c.232-.358.763-.687 1.501-.995-.738.308-1.27.637-1.501.995l-.008.009"/>
        <path fill="#3BB297" fill-rule="nonzero" d="M85.57 57.066c-.408-.896-.932-1.828-1.06-3.03-.276-2.574.453-4.858-.439-7.262.273-.356.478-.76.63-1.18a6.13 6.13 0 0 0 .16-.517c.507 2.122-.045 4.185.2 6.477.082.768.325 1.425.597 2.033a4.26 4.26 0 0 0-.215.995v.009a.03.03 0 0 1-.001.005v.003a6.127 6.127 0 0 0-.022 1.054v.014l.001.006V55.686l.001.009c.016.258.043.517.074.776v.007c.024.196.05.392.073.588m-1.653-10.674a6.877 6.877 0 0 0-.228-.465c-1.656-3.09-3.183-5.883-1.747-9.782-.19 2.69 1.016 4.907 2.299 7.3.167.313.304.623.413.932a6.243 6.243 0 0 1-.28 1.098 4.235 4.235 0 0 1-.457.917"/>
        <path fill="#56C6B2" d="M84.071 46.774a6.799 6.799 0 0 0-.155-.382c.188-.28.338-.59.456-.917.129-.354.22-.726.281-1.098.084.234.152.468.208.7a6.13 6.13 0 0 1-.16.517c-.152.42-.357.824-.63 1.18M81.208 63.391c.043-.158.093-.312.15-.463a4.509 4.509 0 0 0 .7-.468 6.933 6.933 0 0 0-.146.541 4.894 4.894 0 0 1-.704.39"/>
        <path fill="#56C6B2" fill-rule="nonzero" d="M77.979 72.071a.434.434 0 0 0 .166-.166.342.342 0 0 1-.095.147.631.631 0 0 1-.071.02m-.405-1.877a12.968 12.968 0 0 1-.002-.227c-.001-2.25.597-3.966 1.425-5.415.089.156.168.304.236.447-.675 1.264-1.155 2.732-1.212 4.6-.17.18-.321.376-.447.595"/>
        <path fill="#63CAC5" d="M97.379 47.962c-1.848-3.388-1.843-5.628-1.643-9.239.205-3.695-.924-8.622-5.44-9.443-3.387-.616-6.143.758-7.403 3.431-2.078 4.408-.44 7.4 1.347 10.734 1.459 2.722.513 5.235.821 8.11.308 2.874 2.874 4.208.718 7.185-.923 1.232-2.155 1.437-3.079 2.463-.924 1.13-.904 2.899-1.232 4.209-.827 3.308-4.067 2.84-4.202 6.192-.01.25.192.5.369.491.176-.008.315.025.44-.197.76-1.35 2.015-1.142 3.42-1.764 1.045-.463 1.365-1.75 3.874-2.054.914-.11 1.804-.023 2.65.064 2.187.225 4.07.45 5.254-2.732.616-1.54.41-2.874.718-4.414.308-2.053 1.643-3.285 2.977-4.722 2.361-2.669 2.053-5.337.41-8.314"/>
        <path fill="#8BD8D3" d="M85.563 37.51c.004.008.547.971 1.476 1.972.93 1 2.248 2.05 3.826 2.187a.174.174 0 0 0 .03-.348c-1.435-.12-2.7-1.105-3.6-2.076a11.81 11.81 0 0 1-1.405-1.866l-.023-.04a.174.174 0 1 0-.304.172M87.802 49.242c0 .001-.003.123-.003.336 0 .7.031 2.388.303 4.07.136.84.332 1.68.618 2.398.288.717.664 1.319 1.186 1.668a.174.174 0 1 0 .193-.291c-.429-.283-.783-.823-1.054-1.506-.41-1.023-.637-2.352-.757-3.551-.122-1.2-.14-2.271-.14-2.788 0-.21.003-.327.003-.327a.175.175 0 0 0-.35-.009M94.928 44.637l-.004.063c-.02.317-.139 1.779-.678 3.267-.269.745-.642 1.495-1.154 2.112-.513.618-1.16 1.103-1.987 1.336a.175.175 0 1 0 .094.336c.967-.271 1.709-.862 2.269-1.583 1.676-2.165 1.804-5.501 1.808-5.516a.174.174 0 0 0-.348-.015M91.92 61.49l-.018.05a8.799 8.799 0 0 1-1.507 2.547c-.953 1.11-2.376 2.14-4.422 2.141-.354 0-.726-.03-1.119-.098a.175.175 0 0 0-.059.344c.412.07.804.103 1.178.103 2.316 0 3.897-1.256 4.88-2.495.985-1.24 1.393-2.471 1.398-2.483a.175.175 0 0 0-.332-.11M91.145 32.218l.02.062c.094.293.477 1.582.476 2.996 0 1.215-.28 2.505-1.224 3.367a.175.175 0 0 0 .235.258c1.05-.963 1.338-2.363 1.339-3.625-.001-1.687-.513-3.162-.516-3.172a.175.175 0 0 0-.33.114"/>
        <path fill="#8BD8D3" d="M77.839 71.821c.116-.425.36-.787.682-1.103.482-.474 1.139-.837 1.75-1.124.307-.144.601-.27.859-.385.257-.115.476-.217.64-.323 3.094-2.011 5.527-4.697 7.182-8.148 1.655-3.45 2.533-7.663 2.533-12.733 0-4.192-.6-8.972-1.858-14.397a.174.174 0 1 0-.34.08c1.253 5.404 1.849 10.158 1.849 14.317 0 5.03-.871 9.189-2.499 12.582-1.628 3.394-4.013 6.026-7.058 8.006-.172.113-.486.252-.859.415-.56.247-1.256.556-1.868.986-.61.43-1.146.987-1.35 1.736a.175.175 0 1 0 .337.091"/>
        <path fill="#204374" fill-rule="nonzero" d="M78.777 72.096c-.713 0-1.512-.78-1.512-1.58 0 .8.8 1.58 1.512 1.58.012 0 .023 0 .036-.002a93.3 93.3 0 0 0 .113-.003l-.001.001-.112.002c-.013.002-.024.002-.036.002m-1.5-1.656a.245.245 0 0 0 .001-.035l-.001.035"/>
        <path fill="#45C0AA" d="M77.626 72.096c-.17 0-.36-.235-.36-.475v-.017-.007c.05-1.196.497-1.904 1.086-2.472-.334.783-.423 1.348-.445 1.77-.18.249-.32.526-.405.835a.175.175 0 1 0 .337.091 1.97 1.97 0 0 1 .056-.175c-.016.186-.07.325-.233.448l-.027.001h-.009"/>
        <path fill="#55C5B1" d="M77.67 71.95a.175.175 0 0 1-.169-.22c.086-.31.226-.586.406-.835-.017.322.005.561-.012.751a1.97 1.97 0 0 0-.056.175.175.175 0 0 1-.168.13"/>
        <path fill="#63CAC5" d="M77.884 63.48c-1.018-2.188-.057-5.001-1.059-6.597-1.226-1.997-3.275-.478-5.655-3.222-1.997-2.303-.56-5.495-5.106-7.873-1.388-.726-2.998-.37-3.54 1.197-.648 1.47.379 3.58.858 4.995.466 1.204 1.02 2.1.786 3.435l-.009.042c-.263 1.027-.944 1.575-.58 2.782.759 2.944 4.929 2.679 7.034 4.514 1.484 1.294.145 2.84 1.599 4.798 1.44 1.94 2.177-.17 4.77 4.423a.344.344 0 0 0 .64-.194c-.376-4.969 1.761-5.08.262-8.3"/>
        <path fill="#8BD8D3" d="M63.74 49.318c.002.013.066.6.411 1.285.343.684.979 1.473 2.109 1.845a.175.175 0 0 0 .11-.331c-1.024-.338-1.589-1.041-1.907-1.671a4.08 4.08 0 0 1-.363-1.078l-.01-.067-.003-.02a.175.175 0 0 0-.347.037M64.982 55.852c.007.007.39.45 1.038.895.649.444 1.567.894 2.642.895.432 0 .888-.074 1.357-.25a.174.174 0 1 0-.122-.326c-.43.16-.843.227-1.235.227-.975 0-1.83-.414-2.444-.835a6.094 6.094 0 0 1-.909-.766l-.048-.052-.015-.017a.175.175 0 0 0-.264.229M72.97 55.974l.035.06c.08.14.283.516.465.987.182.47.34 1.039.34 1.555 0 .438-.11.829-.395 1.124a.174.174 0 1 0 .251.242c.366-.378.494-.872.493-1.366-.001-.67-.226-1.358-.446-1.886a7.491 7.491 0 0 0-.444-.896.174.174 0 1 0-.3.18M75.45 61.013l.01.04a8.05 8.05 0 0 1 .26 1.938c0 .452-.05.921-.191 1.338-.142.417-.368.778-.722 1.035a.175.175 0 0 0 .206.282c.423-.308.689-.74.846-1.206.158-.467.21-.971.21-1.449 0-1.102-.282-2.066-.284-2.075a.175.175 0 1 0-.335.097M67.825 50.856l.028.073c.13.335.65 1.79.648 3.011 0 .598-.126 1.126-.438 1.446a.175.175 0 0 0 .251.242c.41-.427.535-1.047.536-1.688-.003-1.5-.7-3.204-.702-3.215a.175.175 0 0 0-.323.131M69.807 60.82c.01.016.307.515 1.012 1.012.704.498 1.818.99 3.435.99.161 0 .328-.005.5-.015a.175.175 0 0 0-.021-.349c-.165.01-.325.015-.48.015-1.545-.001-2.58-.466-3.233-.926a3.936 3.936 0 0 1-.704-.63 2.652 2.652 0 0 1-.161-.204l-.037-.055-.008-.013-.002-.002a.174.174 0 1 0-.3.178M72.178 65.271c.004.022.1.588.648 1.216.548.629 1.548 1.308 3.318 1.561a.175.175 0 0 0 .05-.345c-1.703-.246-2.612-.883-3.105-1.446a2.731 2.731 0 0 1-.47-.74 1.962 1.962 0 0 1-.079-.227l-.014-.06-.003-.013v-.002a.174.174 0 0 0-.345.056"/>
        <path fill="#8BD8D3" d="M77.42 71.948c-.067-2.254-.704-3.523-1.312-4.519-.303-.498-.596-.928-.808-1.382a3.49 3.49 0 0 1-.349-1.668c.008-.242.013-.484.013-.725 0-.92-.079-1.827-.453-2.682-.374-.856-1.046-1.65-2.193-2.334-2.166-1.295-3.684-2.608-4.776-4.307-1.091-1.699-1.761-3.796-2.202-6.668a.174.174 0 1 0-.345.053c.445 2.898 1.126 5.048 2.254 6.804 1.127 1.756 2.698 3.108 4.89 4.418 1.098.657 1.706 1.387 2.052 2.174.345.787.424 1.642.424 2.542 0 .235-.005.474-.012.715a3.844 3.844 0 0 0 .381 1.827c.693 1.467 1.981 2.473 2.088 5.763a.175.175 0 1 0 .348-.011"/>
        <path fill="#6888CD" d="M59.193 16.102c-.427 4.533 2.942 7.15 4.445 10.974l5.471-3.335c-2.825-2.989-6.93-3.545-8.23-7.91l-1.686.27"/>
        <path fill="#6888CD" d="M65.677 23.655c-3.466 1.297-11.082 2.215-14.656 3.08 0 2.54 1.462 4.593 2.708 6.7a71.043 71.043 0 0 1 3.412 6.322c.271.649 1.3 3.836 1.842 4.269 2.42-.623 5.254-1.675 7.583-3.459 3.628-2.755 6.442-5.782 7.525-10.213l-2.155-3.278-2.003-2.624-2.81-1.4h-1.051l-.395.603"/>
        <path fill="#9DC3E8" d="M66.566 40.567"/>
        <path fill="#5976C3" d="M62.247 42.963v-1.352c3.653-2 7.148-6.033 7.648-8.072.18 1.44.272 2.704.273 3.843-.992 1.06-2.116 2.04-3.34 2.984-.086.067-.174.135-.262.201-1.333 1.02-2.83 1.8-4.319 2.396"/>
        <path fill="#F9AA6B" d="M68.188 45.92c.153.96-.326.95-.481 1.62-.178.775-.506 1.646.23 2.03.112.058.335-.033.194-.315.084.023.44.306.539.325.384.074.691.178.808-.378.417-.373.566-1.046.455-1.602-.12-.48-.481-.6-.481-1.14 0-.54.48-1.26.661-1.8l-1.925 1.26"/>
        <path fill="#6888CD" d="M69.82 32.971c.861 6.266.113 9.289-2.113 12.829.223.76 1.255.91 2.166.591 9.563-10.89 3.685-20.012.947-21.272l-1 7.852"/>
        <path fill="#9DC3E8" d="M69.453 46.504"/>
        <path fill="#D69869" d="M68.978 46.55c-.09 0-.18-.02-.266-.06.002 0 .004 0 .006-.002a.632.632 0 0 0 .263.056.851.851 0 0 0 .472-.16v.003a.854.854 0 0 1-.475.163"/>
        <path fill="#9DC3E8" fill-rule="nonzero" d="M69.94200000000001 46.323c.013-.017.024-.03.038-.045-.012.013-.027.03-.038.045m.012-.016a.512.512 0 0 1 .04-.045l-.04.045m.012-.014l.042-.047-.042.047m.016-.016l.038-.045c-.012.015-.027.03-.038.045m.01-.012c.013-.016.032-.036.045-.053l-.045.053M70.028 46.222l.058-.065-.058.065m.017-.019l.051-.058-.051.058m.016-.018c.016-.02.031-.035.048-.055-.019.02-.032.035-.048.055m.014-.016c.017-.02.03-.033.045-.053-.013.018-.03.037-.045.053m.012-.014c.016-.02.033-.038.05-.057-.019.02-.034.037-.05.057m-.033.028l.166-.166-.166.166m.099-.104l.055-.065-.055.065m.013-.015l.056-.067-.056.067m.011-.013l.06-.072-.06.072m-.028.021c2.587-3.032 3.984-5.921 4.595-8.536-.61 2.614-2.008 5.504-4.595 8.536"/>
        <path fill="#43BBB3" fill-rule="nonzero" d="M74.746 37.537h-.002c1.933-1.919 2.043-3.689 1.02-5.258 1.024 1.569.915 3.34-1.018 5.258"/>
        <path fill="#5976C3" d="M68.98 46.549a2.09 2.09 0 0 1-.262-.016c.2-.027.62-.246.732-.367 7.868-8.959 5.393-16.674 2.779-19.889l.027-.02c1.143 1.246 2.316 3.338 2.724 6.015v.007c.238 1.57.213 3.34-.236 5.257-.61 2.615-2.008 5.504-4.595 8.536l-.001.001-.013.015v.001l-.012.014-.003.002-.011.014-.002.002a2.8 2.8 0 0 0-.013.016l-.04.046-.003.003-.01.012a.05.05 0 0 1-.004.005l-.01.01c0 .002-.002.004-.003.005l-.01.011-.004.004-.01.013-.002.002-.013.014-.001.002-.027.03c0 .002-.002.004-.003.005l-.01.01a.067.067 0 0 0-.005.006l-.008.01-.005.005-.009.01-.004.006a.108.108 0 0 0-.009.01l-.005.005a.226.226 0 0 0-.008.01l-.005.006a.486.486 0 0 0-.013.014l-.056.019c-.12.04-.243.07-.364.094a2.56 2.56 0 0 1-.472.045"/>
        <path fill="#F9AA6B" d="M68.637 19.684c-.147 1.101-.294 2.202-.588 3.303-.368 1.173-1.177 2.274-.368 3.302 1.986 2.715 6.693-.808 6.693-3.376l-5.737-3.229"/>
        <path fill="#F46E34" d="M68.958 24.38c-.085-.141-.177-.264-.259-.408a.76.76 0 0 1-.092-.248.297.297 0 0 1 .026-.165c.033-.064.08-.09.12-.116.163-.08.308-.11.442-.184a.865.865 0 0 0 .332-.316.692.692 0 0 1-.27.41c-.132.106-.3.166-.42.235-.059.038-.059.05-.057.115.007.06.034.132.06.205.051.146.118.304.118.472"/>
        <path fill="#21355E" d="M75.142 20.834c.319-.868.582-1.839-.457-2.609-2.75-2.036-4.38-.39-5.23-.39-.392-.066-1.161-1.594-1.568.325-.72 3.39 2.484 5.412 5.36 4.304.065.782-.85 1.5-.785 2.086.131.848 1.232.894 1.83.587 1.436-.734 2.746-4.369.85-4.303"/>
        <path fill="#E87938" d="M68.085 49.17c-.038-.127-.1-.27-.04-.404.077-.126.242-.17.383-.163.141.003.305.057.389.191.082.128.099.27.116.408-.055-.128-.1-.262-.178-.363-.074-.104-.203-.14-.332-.158-.126-.008-.274-.01-.371.09-.06.126-.002.271.033.4M69.112 48.326a.387.387 0 0 1 .207.137c.055.065.093.14.127.217.055.156.085.333.025.49a1.477 1.477 0 0 0-.106-.458 1.1 1.1 0 0 0-.1-.21.572.572 0 0 0-.153-.176"/>
        <path fill="#E87938" d="M68.479 48.905c.06-.064.119-.064.176-.07a.79.79 0 0 0 .167.01l-.075.125-.094.03c-.06-.013-.117-.022-.174-.095"/>
        <path fill="#2B737E" fill-rule="nonzero" d="M74.808 24.729a.292.292 0 0 0 .038-.023l-.038.023m.025-.02a.181.181 0 0 0 .018-.01l-.018.01m.01-.008l.018-.012-.019.012m-.005-.011"/>
        <path fill="#172139" d="M73.532 25.31c-.079 0-.157-.005-.233-.016-.408-.059-.765-.283-.837-.744a.619.619 0 0 1-.003-.062c.001-.554.79-1.219.79-1.942 0-.027 0-.055-.002-.082a4.49 4.49 0 0 1-1.615.304c-1.472 0-2.819-.75-3.456-2.005 1.17.902 2.314 1.159 3.281 1.159 1.187 0 2.107-.386 2.478-.436h.006c.196 0-.164 1.337-.156 1.632.007.299.202.6.497.649.05.008.099.013.147.013.84 0 1.446-1.215 1.475-2.043.014-.384-.08-.553-.236-.785.912.53.181 2.755-.848 3.786l-.003.003a10.343 10.343 0 0 1-.005.005l-.002.002-.003.003a2.306 2.306 0 0 1-.39.315.094.094 0 0 0-.008.005l-.004.003-.004.002a.061.061 0 0 1-.01.006l-.002.002h-.002l-.002.002-.002.001-.002.001-.002.002h-.002l-.002.002h-.002c0 .002-.001.002-.002.002l-.001.001-.003.002-.011.006-.003.002h-.001l-.003.002h-.001l-.003.002h-.001l-.003.002-.003.003h-.002a.01.01 0 0 0-.002.002h-.001l-.01.005-.003.002-.001.001a.01.01 0 0 0-.003.001l-.002.001-.002.001-.002.001-.002.001-.002.001-.002.001-.002.001-.002.001-.002.001-.001.002a1.796 1.796 0 0 1-.765.175"/>
        <path fill="#96C8EA" d="M9.548 15.785a1.981 1.981 0 0 1-1.98 1.981H2.144a1.981 1.981 0 0 1-1.98-1.981v-5.422c0-1.095.887-1.981 1.98-1.981h5.423a1.98 1.98 0 0 1 1.98 1.981v5.422"/>
        <path fill="#CCE7F5" fill-rule="nonzero" d="M3.222 12.792l-.614-.412-.616-.821a.174.174 0 0 0-.257-.026l.978-.919a.174.174 0 0 0 .025.27l.116.078-.723.678 1.14.765.35-.93.116.076c.029.02.062.03.097.03h.12l-.345.917h-.252a.174.174 0 0 0-.156.252l.02.042m-.49-2.219a.734.734 0 0 1 .167-.101l-.018.008a.739.739 0 0 0-.148.093"/>
        <path fill="#CCE7F5" fill-rule="nonzero" d="M5.832 11.482h-.878v-.409H5.9l.687-.54-.594-.302H3.915l-.594.303.687.539h.946v.409h-.998a.156.156 0 0 1-.098-.034l-.115-.09-.768-.602-.115-.09a.219.219 0 0 1-.077-.19.22.22 0 0 1 .07-.146.169.169 0 0 1 .035-.023l.004-.002.917-.466.07-.017h2.15l.07.017.919.467a.15.15 0 0 0-.067-.016.163.163 0 0 0-.127.065.23.23 0 0 0 .007.29l.101.111-.767.602-.05-.153c-.025-.081-.092-.132-.163-.132a.157.157 0 0 0-.061.013c-.09.04-.136.158-.102.264l.043.132m1.366-1.15l-.015-.014a.849.849 0 0 0 .015.013"/>
        <path fill="#CCE7F5" d="M6.449 12.792l.02-.042a.174.174 0 0 0-.156-.252h-.252l-.345-.917-.042-.114A.175.175 0 0 1 6 11.345l.048.13.35.93 1.14-.764-.722-.68-.1-.094a.175.175 0 0 1 .208-.277h.002c.01.007.02.014.028.022l.003.003.98.92a.173.173 0 0 0-.118-.046.174.174 0 0 0-.14.07l-.617.822-.614.41"/>
        <path fill="#CCE7F5" fill-rule="nonzero" d="M4.89 15.934a.174.174 0 0 1-.105-.035l-.002-.002-.002-.001-.001-.001h-.001l-.001-.002a.161.161 0 0 1-.028-.03l-2.98-3.971a.175.175 0 0 1 .28-.21l.616.822 1.214 1.619-.6-1.207-.021-.042a.174.174 0 0 1 .156-.252h2.949a.174.174 0 0 1 .157.252l-.021.042-.601 1.207 1.214-1.618.617-.822a.174.174 0 0 1 .258-.024c.065.06.076.161.021.233l-2.98 3.972a.122.122 0 0 1-.006.008.17.17 0 0 1-.133.062M3.696 12.97l1.193 2.396 1.192-2.396H3.697"/>
        <path fill="#C6E7F5" d="M5.463 2.318a.215.215 0 0 1-.153-.063L4.755 1.7l-.555.555a.215.215 0 0 1-.307 0 .217.217 0 0 1 0-.307l.556-.555-.556-.555A.217.217 0 1 1 4.2.532l.555.555.555-.555a.216.216 0 0 1 .306 0 .216.216 0 0 1 0 .306l-.555.555.555.555a.216.216 0 0 1-.153.37"/>
        <path fill="#4476C2" d="M16.148 1.056h43.397a2.702 2.702 0 0 1 2.702 2.702v82.141a2.702 2.702 0 0 1-2.702 2.702H16.148a2.701 2.701 0 0 1-2.702-2.702V3.758a2.702 2.702 0 0 1 2.702-2.702"/>
        <path fill="#FFF" d="M15.484 78.997H60.21V10.66H15.484z"/>
        <path fill="#96C8EA" d="M30.827 6.55v-.52a.35.35 0 0 1 .35-.35h13.339a.35.35 0 0 1 .35.35v.52a.35.35 0 0 1-.35.351H31.177a.35.35 0 0 1-.35-.35M37.846 86.145a2.697 2.697 0 1 1 0-5.394 2.697 2.697 0 0 1 0 5.394"/>
        <path fill="#C6DCEF" d="M56.46 75.084H19.571a.607.607 0 0 1-.595-.618V68.61l.027-.028H21.2a.607.607 0 0 0 .595-.618V65.68h34.665c.329 0 .595.277.595.62v8.166a.607.607 0 0 1-.595.618"/>
        <path fill="#C6DCEF" d="M19.004 68.583h-.027l2.817-2.93v.027l-2.79 2.903"/>
        <path fill="#98BDE0" d="M21.2 68.583h-2.196l2.79-2.903v2.285a.607.607 0 0 1-.595.618"/>
        <path fill="#C6DCEF" d="M18.64 37.66h9.64V19.664h-9.64zM41.781 62.857h15.273V49.03H41.781zM47.622 29.096h9.432v-9.432h-9.432zM29.591 17.776h27.463v-3.203H29.591zM29.759 21.195h15.773v-1.531H29.759zM29.759 25.146h15.773v-1.532H29.759zM29.759 29.096h15.773v-1.532H29.759zM29.759 33.046h27.295v-1.533H29.759zM29.759 36.996h27.295v-1.532H29.759zM19.682 16.658a1.043 1.043 0 1 1 0-2.085 1.043 1.043 0 0 1 0 2.085M23.46 16.658a1.043 1.043 0 1 1 0-2.085 1.043 1.043 0 0 1 0 2.085M27.238 16.658a1.043 1.043 0 1 1 0-2.085 1.043 1.043 0 0 1 0 2.085M18.977 62.983h20.33v-1.638h-20.33zM18.977 58.875h20.33v-1.638h-20.33zM18.977 54.767h20.33v-1.639h-20.33zM18.977 50.659h20.33v-1.64h-20.33zM18.977 46.55h38.077v-1.638H18.977zM18.977 42.442h38.077v-1.638H18.977z"/>
        <path fill="#57BEEE" d="M20.078 81.982H4.335l3.131-4.108H23.21l-3.132 4.108"/>
        <path fill="#4497CB" d="M20.078 81.982v10.923l3.132-4.109V77.874l-3.132 4.108"/>
        <path fill="#50AEE5" d="M4.335 81.982V92.9h15.743V81.982z"/>
        <path fill="#4A9ADA" d="M13.955 81.546c-3.901 0-7.064-.654-7.064-1.459 0-.415.841-.79 2.191-1.056-.12.324-.162.864-.162.864l2.554-.477s.833.112 1.465.112c.386 0 .696-.042.696-.176 0-.305-.932-.371-1.637-.669a33.36 33.36 0 0 1 2.236-.055l-.006.03c-.074.352-.171.381-.304.698-.133.317-.178.906-.178.906l2.553-.478s.834.112 1.466.112c.385 0 .696-.042.696-.176 0-.354-1.254-.387-1.953-.831-.02-.013-.036-.07-.047-.168 2.664.209 4.558.74 4.558 1.364 0 .805-3.163 1.459-7.064 1.459"/>
        <path fill="#F9AA6B" d="M17.559 33.193c.224-.669 1.282-2.188 1.073-2.5-.047-.07-.488.482-.901 1.062.176-.302.337-.612.48-.93.067-.149.108-.365-.037-.438-.3.326-.58.67-.84 1.03.17-.332.272-.624.185-.744-.069-.096-.516.508-.886 1.127.207-.427.366-.83.266-.894-.165-.107-1.316 1.92-1.818 3.293-.38 1.036-1.035 1.861-1.364 2.61l2.334-.173s.247-1.118.497-1.525c.277-.449.896-.713 1.233-1.316.228-.409.829-1.113.637-1.3-.192-.188-.656.694-.86.698M11.474 79.418l-2.554.477s.045-.588.178-.905c.133-.317.23-.347.305-.7.316-1.51-.67-8.543-.275-11.22-.072-5.35.038-10.62-.77-12.902-.867-2.454 3.892-2.872 4.297 0 .406 2.87-1.415 24.073-.973 24.355.699.445 1.953.477 1.953.83 0 .355-2.161.065-2.161.065"/>
        <path fill="#93DCEB" d="M14.623 80.146c-.158.6-4.407.475-5.23.475-.825 0-.469-1.407-.25-1.492.22-.085 1.182.47 2.398.332.271-.031-.38-.614-.365-.87.476-.262.902.315 1.145.42.242.104 2.5.384 2.302 1.135"/>
        <path fill="#1F325C" d="M14.55 79.908c-.158.6-4.407.474-5.231.474-.824 0-.468-1.407-.248-1.491.376.245.9.384 2.116.245.272-.03-.292-.589.185-.85.476-.263.633.381.876.486.242.104 2.5.385 2.302 1.136"/>
        <path fill="#93DCEB" d="M11.95 79.162a.661.661 0 0 1 .347-.403.087.087 0 0 0-.074-.158.835.835 0 0 0-.44.51.087.087 0 1 0 .167.05M12.486 79.305a.7.7 0 0 1 .374-.378.088.088 0 0 0-.067-.161.875.875 0 0 0-.469.473.087.087 0 0 0 .162.066M12.942 79.433a.73.73 0 0 1 .335-.359.087.087 0 1 0-.08-.155.901.901 0 0 0-.415.446.087.087 0 0 0 .16.068"/>
        <path fill="#244382" d="M13.281 57.603c.125 4.955-.538 13.237-1.3 18.699v.003c-.038.273-.077.539-.116.796-.98.121-2.103-.085-2.988-.472-.492-3.573-.605-12.312-.94-15.16-.258-2.24-2.444-8.19-.266-15.133l4.662 1.105.98.23.085.02-.156 3.276-.023 5.279c.027.417.047.87.062 1.357"/>
        <path fill="#2E5BA6" d="M12.116 76.38c-.192-.15-3.333-.038-3.386 0-.08.056.03.772.11.815.09.049 3.008.074 3.148-.003.125-.07.32-.663.128-.813"/>
        <path fill="#F9AA6B" d="M16.3 79.786l-2.554.478s.045-.589.178-.906c.133-.317.23-.346.304-.699.317-1.51-.67-8.543-.275-11.221-.072-5.35.038-10.621-.768-12.903-.868-2.453 2.17-3.988 2.576-1.117.187 1.328 1.619 7.695 1.298 12.982-.373 6.144-.789 12.34-.551 12.491.699.444 1.953.477 1.953.831s-2.162.064-2.162.064"/>
        <path fill="#93DCEB" d="M19.448 80.514c-.157.6-4.406.475-5.23.475-.825 0-.468-1.407-.249-1.492.22-.084 1.181.47 2.397.332.272-.03-.38-.614-.364-.87.476-.263.902.315 1.145.419.242.105 2.499.385 2.301 1.136"/>
        <path fill="#253770" d="M19.375 80.277c-.157.599-4.406.473-5.23.473-.825 0-.468-1.406-.249-1.49.377.245.9.383 2.117.245.272-.031-.292-.59.184-.852.477-.262.634.383.876.487.243.105 2.5.385 2.302 1.137"/>
        <path fill="#93DCEB" d="M16.776 79.53a.663.663 0 0 1 .347-.404.087.087 0 1 0-.074-.157.836.836 0 0 0-.44.51.087.087 0 1 0 .167.05M17.312 79.673a.702.702 0 0 1 .374-.378.087.087 0 0 0-.068-.161.876.876 0 0 0-.468.473.087.087 0 1 0 .162.066M17.768 79.801a.724.724 0 0 1 .335-.358.087.087 0 1 0-.08-.156.898.898 0 0 0-.416.446.087.087 0 0 0 .16.068"/>
        <path fill="#263D7C" d="M11.982 76.302c-.43-4.756.565-11.144-1.375-19.97-.288-1.311-.12-2.65-.053-3.08l.035.006c.348 1.667 1.551 5.599 1.795 6.58.35 1.418.508 3.82.616 6.42-.246 3.532-.619 7.177-1.018 10.044"/>
        <path fill="#244382" d="M16.69 77.101c-.308-.16-.627-.214-.955-.23-.193-.008-.389-.002-.588.003-.485.014-.99.027-1.519-.155-.698-3.507-.362-13.311-1.244-16.88-.261-1.054-1.63-5.508-1.857-6.91-.35-2.147-.031-4.642.34-6.593h5.344c1.014 2.337.998 5.13 1.135 7.624.016.304.031.623.043.959.242 6.02-.031 16.744-.698 22.182"/>
        <path fill="#263D7C" d="M16.69 77.101a1.841 1.841 0 0 0-.23-.1 2.492 2.492 0 0 0-.725-.13c-.035-2.024.066-14.902-.016-18.246-.048-1.897-.096-3.81-.455-5.67.214-.078.422-.168.624-.27.492-.24.946-.558 1.348-.964.044.76.07 1.512.11 2.239.016.304.031.623.043.959.059 1.458.087 3.191.087 5.06 0 5.844-.28 13-.785 17.122"/>
        <path fill="#2E5BA6" d="M16.912 76.695c-.188-.134-3.275-.033-3.327 0-.078.05.03.693.109.733.088.043 2.955.066 3.093-.003.123-.063.314-.596.125-.73"/>
        <path fill="#F9AA6B" d="M14.567 26.955c1.184.355.897.988.123 1.167"/>
        <path fill="#EAD18C" d="M15.888 52.685c-.891.45-1.9.653-2.924.703-.05.004-.104.008-.155.008-.07 0-.137.004-.208.004-3.158.041-6.3-1.306-6.275-1.533.3-2.678.159-10.054.175-12.292.043-6.024 2.308-7.055 3.862-7.336l1.334.066c2.712-.864 5.362 4.703 5.283 5.113.05.363.058 1.326.067 2.612.017 3.162.004 8.295.429 11.432a4.929 4.929 0 0 1-1.588 1.223z"/>
        <path fill="#D4BE86" d="M17.476 51.462a4.929 4.929 0 0 1-1.588 1.223c-.87.413-1.879.625-2.924.703-.05.004-.105.008-.155.008a6.025 6.025 0 0 1-.275.017l.067-.013c.862-.24 3.188-1.687 3.392-4.307.021-.274-.113-8.48-.213-10.973l1.267 1.91c.017 3.162.004 8.295.429 11.432"/>
        <path fill="#F29D2A" d="M18.697 37.124l.758.884s-.728 3.94-1.137 3.064c-.409-.875-.904-2.854-.904-2.854l1.283-1.094"/>
        <path fill="#F9AA6B" d="M28.468 34.399c.097-.27-1.241.663-1.67.937.966-.771 1.6-1.466 1.501-1.617-.098-.15-1.608 1.093-1.934 1.26.253-.283 1.49-1.339 1.317-1.575-.083-.115-1.166.821-1.815 1.275.305-.3.449-.446.418-.695-.053-.43-1.608 1.52-2.125 2.079-.204.22-3.628 1.469-3.978 1.519-.41.059-2.814-2.514-2.814-2.514l-1.244 2.747c1.724 1.25 3.018 2.432 3.647 2.542.857.15 4.849-2.829 5.227-2.92.752-.179 2.01-1.047 2.498-1.47.333-.29.891-.666.967-.885.077-.22-.958.402-1.504.736.597-.413 1.411-1.149 1.509-1.42"/>
        <path fill="#D4BE86" d="M19.455 37.096c-2.497-3.058-5.119-4.632-7.297-5.07l2.439 5.871c.963 1.297 2.188 2.552 3.794 3.278-.286-1.847.658-3.893 1.064-4.079"/>
        <path fill="#F9AA6B" d="M10.478 32.235s-.076-1.136.116-2.332 2.632-1.127 2.29.046c-.341 1.172.1 2.292.1 2.292.018.72-2.306 1.275-2.506-.006"/>
        <path fill="#F9AA6B" d="M13.284 24.195c1.327 1.061 2.394 6.071 1.406 6.866-.487.392-3.035 1.097-4.009 0l2.603-6.866"/>
        <path fill="#21355E" d="M14.897 23.926c-.212-.17-.504-.195-.775-.175-.035.002-.07.011-.106.015l-.04-.042c.094-.074.183-.155.258-.249.154-.188.263-.466.124-.665-.11-.157-.326-.194-.517-.19a2.193 2.193 0 0 0-.928.227c-.014-.191-.097-.378-.257-.48a.793.793 0 0 0-.429-.095 1.96 1.96 0 0 0-.92.243c-.133-.187-.435-.213-.677-.173a2.957 2.957 0 0 0-1.187.486.766.766 0 0 0-.438-.104c-.28.024-.515.22-.692.437a.93.93 0 0 0-.125.194 1.908 1.908 0 0 0-.341-.074c-.185-.02-.383-.01-.541.087a.638.638 0 0 0-.278.603c.018.17.097.329.21.459-.542.04-1.135.34-1.423.78-.333.509-.023 1.018.175 1.104a2.12 2.12 0 0 0-.338.585c-.09.238-.133.51-.028.741.098.215.31.358.532.44.05.018.101.024.152.037a2.42 2.42 0 0 0-.154.448c-.033.149-.047.32.048.44s.27.144.421.117a.807.807 0 0 0 .283-.12c-.112.835.137 1.096.595 1.011.01.092.025.184.046.274.035.15.096.31.234.376a.3.3 0 0 0 .131.027c.03.208.084.403.193.533.16.188.394.183.574.045l.059-.058.02.015c.043.242.143.46.28.609.059.065.127.117.2.13.103.017.207-.046.285-.145l.04-.071c.378.218.705.376.915.487 1.234.654 1.568-1.004 2.258-2.218.864-1.522.881-1.938.354-3.607.02-.034.036-.07.055-.104h.037c.367-.022.74-.169.965-.46a.71.71 0 0 0 .16-.392c.008-.192-.083-.36-.22-.498.222-.042.44-.1.651-.178a.689.689 0 0 0 .253-.139c.194-.189.118-.543-.094-.713"/>
        <path fill="#5779A1" fill-rule="nonzero" d="M9.575 31.965c.137-.042.27-.295.374-.655l.038-.174-.036.174c-.104.366-.24.62-.376.655m.962-.19a29.572 29.572 0 0 1-.52-.778v-.003c.182.283.356.542.52.78m-1.244-.034a2.714 2.714 0 0 1-.151-.362 7.483 7.483 0 0 1 .001-.001c.047.139.098.264.15.363"/>
        <path fill="#25437E" fill-rule="nonzero" d="M14.365 25.663a.43.43 0 0 0 .081-.209c.015-.192-.135-.36-.358-.498.225.137.372.304.359.5a.43.43 0 0 1-.082.207m.843-1.818c-.246-.124-.533-.166-.817-.166-.083 0-.165.004-.247.01h.002c.082-.006.165-.01.248-.01.283 0 .569.04.814.166"/>
        <path fill="#7B5E4A" d="M10.996 32.384a.958.958 0 0 1-.002 0c.403 0 .688-.317.941-.76h.002c-.253.444-.538.76-.94.76"/>
        <path fill="#7B5E4A" fill-rule="nonzero" d="M11.937 31.625h-.002c.165-.288.316-.628.477-.97-.16.342-.311.682-.475.97m1.327-5.384h-.088v-.001l.088.001m-.068.064"/>
        <path fill="#172139" d="M10.994 32.383a.958.958 0 0 1-.334-.065 1.493 1.493 0 0 1-.18-.082c-.15-.08-.359-.183-.603-.313a11.864 11.864 0 0 1-.313-.175h-.001l-.018.032-.022.039a.356.356 0 0 1-.226.146.203.203 0 0 1-.058-.002.276.276 0 0 1-.111-.048.56.56 0 0 1-.09-.081 1.003 1.003 0 0 1-.161-.24 1.317 1.317 0 0 1-.106-.326c.289.16.51.349.702.37.067.008.132.012.194.012 1.055 0 1.413-1.085 2.065-2.23.862-1.522.882-1.94.355-3.605.02-.036.035-.07.055-.106h.035c.367-.023.74-.167.967-.46a.735.735 0 0 0 .16-.394c.008-.191-.086-.36-.218-.496.218-.043.436-.101.647-.179a.669.669 0 0 0 .254-.137.396.396 0 0 0 .113-.289l.022-.003c.05-.004.1-.006.15-.006.174 0 .348.025.499.1a.704.704 0 0 1 .209.165.582.582 0 0 1 .12.29.407.407 0 0 1-.135.362.607.607 0 0 1-.147.085l-.078.03a4.209 4.209 0 0 1-.652.179c.136.139.227.306.218.498a.615.615 0 0 1-.05.209.792.792 0 0 1-.109.183 1.078 1.078 0 0 1-.26.239 1.453 1.453 0 0 1-.69.22l-.014.001h-.039c-.02.035-.035.07-.054.105.375 1.189.475 1.742.187 2.513a1.013 1.013 0 0 0-.327-.475.5.5 0 0 0-.294-.118.237.237 0 0 0-.155.053c-.064.053-.091.137-.115.216-.077.269-.127.55-.102.827.026.279.133.556.335.75l.019.017c-.08.151-.153.306-.226.46-.161.343-.312.683-.477.97-.253.443-.538.76-.94.76"/>
        <path fill="#21355E" d="M14.141 23.752l-.114.014-.052-.052c.047-.033.094-.07.14-.114.016.052.026.1.026.152"/>
        <path fill="#F46E34" d="M13.096 30.387a.703.703 0 0 1-.457-.192c.031-.06.063-.12.097-.178.247-.436.426-.782.541-1.092.016.05.028.1.036.15l.177.757c-.028.303-.012.5-.312.548a.536.536 0 0 1-.082.007"/>
        <path fill="#1D242A" d="M12.639 30.195h-.001a5.8 5.8 0 0 1 .097-.179c.248-.436.426-.782.542-1.092v.001c-.115.31-.294.656-.541 1.092a5.796 5.796 0 0 0-.097.178"/>
        <path fill="#16191D" d="M12.638 30.194l-.02-.017c-.201-.194-.308-.471-.334-.75a2.266 2.266 0 0 1 .102-.827c.024-.08.051-.163.115-.216a.237.237 0 0 1 .155-.053.5.5 0 0 1 .294.118c.153.122.267.29.327.475-.116.31-.294.656-.542 1.092a5.8 5.8 0 0 0-.097.178"/>
        <path fill="#F9AA6B" d="M13.316 28.866a1.01 1.01 0 0 0-.363-.627c-.128-.103-.416-.216-.547-.116-.669.509.014 1.65.216 1.844.148.142.356.236.56.203.3-.047.283-.244.31-.548"/>
    </g>
</svg>
