<svg xmlns="http://www.w3.org/2000/svg" width="114" height="100" viewBox="0 0 114 100">
    <g fill="none" fill-rule="evenodd">
        <path fill="#2A4F93" d="M90.427 78.986H11.44V19.383h78.986v59.603"/>
        <path fill="#C6DCEF" d="M89.115 77.727H12.753V21.86h76.362v55.867"/>
        <path fill="#A8ABDD" d="M23.57 33.963h-5.342a.666.666 0 0 0-.666.666v.103c0 .368.298.666.666.666h5.342a.666.666 0 0 0 .666-.666v-.103a.666.666 0 0 0-.666-.666M33.581 33.963H28.24a.666.666 0 0 0-.666.666v.103c0 .368.298.666.666.666h5.341a.666.666 0 0 0 .666-.666v-.103a.666.666 0 0 0-.666-.666M43.593 33.963h-5.342a.666.666 0 0 0-.666.666v.103c0 .368.298.666.666.666h5.342a.666.666 0 0 0 .666-.666v-.103a.666.666 0 0 0-.666-.666M53.605 33.963h-5.342a.666.666 0 0 0-.666.666v.103c0 .368.298.666.666.666h5.342a.666.666 0 0 0 .666-.666v-.103a.666.666 0 0 0-.666-.666M63.617 33.963h-5.343a.666.666 0 0 0-.665.666v.103c0 .368.298.666.666.666h5.342a.666.666 0 0 0 .666-.666v-.103a.666.666 0 0 0-.666-.666M73.628 33.963h-5.342a.666.666 0 0 0-.666.666v.103c0 .368.298.666.666.666h5.342a.666.666 0 0 0 .666-.666v-.103a.666.666 0 0 0-.666-.666"/>
        <path fill="#878ECF" d="M83.64 33.963h-5.342a.666.666 0 0 0-.666.666v.103c0 .368.298.666.666.666h5.342a.666.666 0 0 0 .666-.666v-.103a.666.666 0 0 0-.666-.666"/>
        <path stroke="#878ECF" stroke-width=".667" d="M83.64 33.963h-5.342a.666.666 0 0 0-.666.666v.103c0 .368.298.666.666.666h5.342a.666.666 0 0 0 .666-.666v-.103a.666.666 0 0 0-.666-.666z"/>
        <path fill="#4476C2" d="M89.115 30.734H12.753V20.403h76.362v10.33"/>
        <path fill="#DFB135" d="M60.373 45.886l.822 1.857 1.853.201-1.463 1.272.441 2.058-1.653-1.07-1.653 1.07.44-2.058-1.462-1.272 1.853-.201.822-1.857"/>
        <path stroke="#878ECF" stroke-width=".667" d="M26.281 37.17v38.294M36.17 37.17v38.294M46.06 37.17v38.294M55.948 37.17v38.294M65.837 37.667v38.294M75.726 37.667v38.294M85.552 44.604H16.316M85.552 52.532H16.316M85.552 60.46H16.316M85.552 68.388H16.316"/>
        <path fill="#A8ABDD" d="M22.628 48.095h-4.725a.398.398 0 0 1-.398-.397v-.062c0-.22.178-.398.398-.398h4.725c.22 0 .397.178.397.398v.062c0 .219-.178.397-.397.397M43.678 41.234h-4.725a.398.398 0 0 1-.398-.398v-.062c0-.22.179-.398.398-.398h4.725c.22 0 .398.178.398.398v.062c0 .22-.178.398-.398.398M53.55 63.816h-5.054a.192.192 0 0 1-.192-.192v-.03c0-.106.086-.192.192-.192h5.054c.106 0 .192.086.192.192v.03a.192.192 0 0 1-.192.192M53.55 64.84h-5.054a.192.192 0 0 1-.192-.193v-.03c0-.105.086-.191.192-.191h5.054c.106 0 .192.086.192.191v.03a.192.192 0 0 1-.192.192M53.55 65.863h-5.054a.192.192 0 0 1-.192-.192v-.03c0-.106.086-.192.192-.192h5.054c.106 0 .192.086.192.192v.03a.192.192 0 0 1-.192.192M21.36 49.458h-3.666a.19.19 0 0 1-.189-.19v-.029c0-.104.085-.189.189-.189h3.666c.104 0 .189.085.189.19v.029a.19.19 0 0 1-.19.189"/>
        <path fill="#6888CD" d="M63.817 53.463c2.606-2.256 2.057-6.38.028-8.85-5.119-6.232-13.513 5.515-6.847 9.226.277.155.57-.22.34-.466-1.804-1.933-2.12-4.775-.623-7.038 1.554-2.348 4.635-3.39 6.555-.888 1.566 2.04 2.095 5.381-.007 7.255-2.204 1.967-5.316 1.048-7.027-1.131-.203-.26-.64.09-.446.364 1.904 2.674 5.392 3.81 8.027 1.528z"/>
        <path fill="#EBDBF0" d="M22.886 23.743c0-.673-.515-1.218-1.15-1.218-.636 0-1.151.545-1.151 1.218 0 .673.515 1.219 1.15 1.219.636 0 1.15-.546 1.15-1.219M27.346 23.743c0-.673-.515-1.218-1.15-1.218-.636 0-1.15.545-1.15 1.218 0 .673.514 1.219 1.15 1.219.635 0 1.15-.546 1.15-1.219"/>
        <path fill="#2A4F93" d="M21.771 16.365h-.104c-.37 0-.67.3-.67.67v6.752c0 .37.3.67.67.67h.104c.37 0 .67-.3.67-.67v-6.752c0-.37-.3-.67-.67-.67M26.248 16.365h-.104c-.37 0-.67.3-.67.67v6.752c0 .37.3.67.67.67h.104c.37 0 .67-.3.67-.67v-6.752c0-.37-.3-.67-.67-.67"/>
        <path fill="#EBDBF0" d="M76.822 23.743c0-.673-.514-1.218-1.15-1.218-.636 0-1.15.545-1.15 1.218 0 .673.514 1.219 1.15 1.219.636 0 1.15-.546 1.15-1.219M81.283 23.743c0-.673-.515-1.218-1.15-1.218-.636 0-1.151.545-1.151 1.218 0 .673.515 1.219 1.15 1.219.636 0 1.151-.546 1.151-1.219"/>
        <path fill="#2A4F93" d="M75.708 16.365h-.104c-.37 0-.67.3-.67.67v6.752c0 .37.3.67.67.67h.104c.37 0 .67-.3.67-.67v-6.752c0-.37-.3-.67-.67-.67M80.185 16.365h-.105c-.37 0-.67.3-.67.67v6.752c0 .37.3.67.67.67h.105c.37 0 .67-.3.67-.67v-6.752c0-.37-.3-.67-.67-.67"/>
        <path fill="#ED9429" d="M74.989 65.505L71.362 66.9l-1.395-3.627 3.627-1.395 1.395 3.627"/>
        <path fill="#CB1868" d="M72.138 62.956a.219.219 0 1 0-.438 0 .219.219 0 0 0 .438 0"/>
        <path fill="#E5B928" d="M71.383 66.908l-3.804-.797.796-3.803 3.804.796-.796 3.804"/>
        <path fill="#CB1868" d="M70.292 63.174a.219.219 0 1 0-.438.001.219.219 0 0 0 .438 0"/>
        <path fill="#253770" d="M25.77 88.302l-1.065.093-4.898 3.22 3.762-5.129 2.315.724-.113 1.092"/>
        <path fill="#294D95" d="M40.022 82.437s.14-2.107-3.111-2.473c-3.25-.366-6.982.445-6.982.445l1.65 3.232 8.443-1.204"/>
        <path fill="#253770" d="M27.651 90.553l-1.182.102-5.434 3.573 4.173-5.69 2.569.803-.126 1.212"/>
        <path fill="#244382" d="M29.523 77.439l2.711 4.684s8.576-1.7 10.684.707c2.107 2.407-.419 6.32-6.688 7.416s-9.007 1.369-9.007 1.369l-.452-2.297s-6.235.57-3.893-11.97c0 0 2.042 1.146 6.645.09"/>
        <path stroke="#4657B0" stroke-width=".667" d="M40.12 86.893s-6.353 2.593-13.304 2.586"/>
        <path fill="#F4708E" d="M31.385 59.715s-.288.697-.548 1.14l.006 1.157-1.03.019-.232-1.437s.039-1.723-.004-2.787c-.024-.591 1.226-1.442 1.982-1.753.448-.184-.147.766-.845 1.291 0 0 .222 1.282.671 2.37"/>
        <path fill="#F9B191" d="M40.647 60.217s.379.652.697 1.056l.149 1.146 1.022-.118.038-1.455s-.27-1.703-.37-2.763c-.055-.59-1.408-1.265-2.199-1.471-.47-.123.249.739 1.01 1.166 0 0-.048 1.3-.347 2.439"/>
        <path fill="#FFF" d="M41.057 61.12l-10.58-.7.586-8.853 10.58.7-.586 8.852"/>
        <path fill="#423497" d="M35.537 53.926a2.439 2.439 0 1 1-2.595 2.272l2.434.161.161-2.433"/>
        <path fill="#CB1868" d="M37.72 55.688a2.439 2.439 0 1 1-3.016-1.673l.672 2.344 2.344-.671"/>
        <path fill="#E5B928" d="M37.81 56.52a2.439 2.439 0 1 1-2.273-2.594l-.161 2.433 2.433.161"/>
        <path fill="#A8ABDD" d="M40.932 53.949l-1.176-.078a.106.106 0 0 1-.098-.112l.002-.03a.106.106 0 0 1 .112-.1l1.176.079a.105.105 0 0 1 .099.112l-.002.03a.105.105 0 0 1-.113.099M40.89 54.586l-1.176-.078a.105.105 0 0 1-.098-.112l.002-.032a.105.105 0 0 1 .112-.098l1.177.078a.106.106 0 0 1 .098.112l-.002.031a.106.106 0 0 1-.113.099M40.846 55.248l-1.176-.078a.106.106 0 0 1-.098-.112l.002-.031a.105.105 0 0 1 .112-.098l1.176.077a.106.106 0 0 1 .099.113l-.002.03a.106.106 0 0 1-.113.099"/>
        <path fill="#CB1868" d="M39.373 53.725a.184.184 0 1 0-.367-.024.184.184 0 0 0 .367.024"/>
        <path fill="#423497" d="M39.331 54.361a.183.183 0 1 0-.367-.024.183.183 0 1 0 .367.024"/>
        <path fill="#E5B928" d="M39.287 55.023a.184.184 0 1 0-.366-.024.184.184 0 0 0 .366.024"/>
        <path fill="#F9B191" d="M41.389 61.242s-.997-2.063-1.557-2.824c-.56-.76.095-.864.775-.27.843.737 1.31.522 1.31.522l.021 1.274-.55 1.298M30.866 61.064s.71-2.178 1.163-3.007c.454-.83-.21-.844-.804-.164-.737.843-1.229.693-1.229.693l.15 1.266.72 1.212"/>
        <path fill="#423497" d="M31.13 60.954s.805 4.564-2.764 5.92l-1.847-1.97c1.83-.986 2.347-2.33 2.553-3.779l2.058-.17"/>
        <path fill="#37354C" d="M19.118 54.197c-.985-.224-2.03.216-2.324 1.322-.264.99.24 2.068.101 3.093-.123.911-.724 1.613-1.269 2.281-.544.668-1.092 1.46-1.067 2.385.024.846.6 1.637 1.318 1.806.215.05.438.051.65.115.865.259 1.264 1.436 1.321 2.466.058 1.03-.083 2.11.272 3.061a3.246 3.246 0 0 0 1.046 1.404c.759.596 1.718.838 2.615.661 1.608-.317 2.858-1.865 4.458-2.227.54-.123 1.1-.103 1.647-.19.546-.087 1.108-.301 1.463-.786.357-.488.45-1.166.745-1.706.389-.715 1.093-1.124 1.526-1.803.48-.75.57-1.81.227-2.664-.428-1.065-1.454-1.802-1.586-2.963-.085-.752.238-1.468.45-2.183.328-1.115.388-2.357.064-3.483-.324-1.125-1.185-2.842-3.355-3.205-1.364-.228-2.957.422-5.44-.025-1.623-.293-2.402.823-2.862 2.641"/>
        <path fill="#F9AA6B" d="M25.993 65.904s-.841-.965-.715-3.646c0 0 1.978-.444 2.055-1.992.055-1.119-.143-2.834-.467-4.321 0 0-.05-.864-1.294-1.21-1.243-.344-4.135.005-4.342 1.09-.207 1.085.176 2.87.176 2.87s-.596-.798-1.557-.382c-.96.417.186 3.56 1.772 2.031 0 0 1.503 4.325.152 4.63 0 0 .49 2.588 3.327 2.024 2.836-.564.893-1.094.893-1.094"/>
        <path stroke="#C6793B" stroke-linecap="round" stroke-width=".667" d="M25.416 57.586s.119.482.484.89c.26.291.211.523-.256.782"/>
        <path fill="#21355E" d="M24.178 57.543c.103.034.134.179.15.28.016.113.035.257.016.368-.025.152-.22.193-.282.039-.055-.135-.163-.777.116-.687M25.975 57.287c.118.029.153.147.18.263.027.118.054.269.04.389-.018.165-.217.178-.282.038a1.224 1.224 0 0 1-.085-.42c-.004-.09.012-.303.147-.27"/>
        <path stroke="#C6793B" stroke-linecap="round" stroke-width=".667" d="M20.069 58.86s.786-.23 1.216 1.024M20.165 59.528s.265-.333.815-.27M25.441 60.009s-.831-.056-1.371-.571"/>
        <path fill="#21355E" d="M23.222 56.961c.28-.242.678-.335 1.033-.24.21.057.327-.232.145-.345-.49-.306-1.183-.074-1.333.495-.025.093.087.15.155.09M26.336 56.444c-.085-.417-.652-.5-.927-.21-.124.132-.003.377.184.316.204-.065.426-.06.629.009.071.024.127-.05.114-.115"/>
        <path fill="#37354C" d="M27.39 53.404c.075.53-.469 1.423-.972 1.604-1.052.38-2.239-.275-3.235.233a2.601 2.601 0 0 0-1.385 2.357c.02.547.213 1.117.014 1.627a4.143 4.143 0 0 1-.88-1.534l.292-3.843 6.166-.444"/>
        <path fill="#EAD18C" d="M30.146 70.221s.204 3.498-.623 7.218c0 0-4.293 1.661-6.645-.091 0 0-2.492-4.401-3.023-7.984-.68-4.579 1.286-10.047 10.291.857"/>
        <path fill="#EAD18C" d="M22.214 63.4s1.293.38 2.947.248c1.655-.132 3.48.119 5.3 1.884 1.819 1.766 2.647 2.305 5.302 2.09 2.051-.167 4.237-2.365 5.173-6.232l1.956.129s-.685 14.916-14.576 9.01c0 0-6.919 1.25-7.738.47-.82-.78-2.263-7.906 1.636-7.6l3.17 10.624"/>
        <path fill="#21355E" d="M49.86 9.308a3.504 3.504 0 0 1-3.409-.617c-.333-.285-.617-.648-.725-1.074-.108-.425-.012-.918.312-1.214.327-.3.836-.371 1.103-.725.335-.443.126-1.064.045-1.614-.098-.654.11-1.46.738-1.67.419-.14.895.032 1.311-.115.414-.147.655-.563.935-.9.28-.339.742-.637 1.136-.443.168.084.286.242.433.36.545.435 1.334.228 2.013.071.68-.156 1.562-.149 1.876.474.38.752-.43 1.775.065 2.458.132.183.335.297.515.432.699.523 1.072 1.573.588 2.299-.604.903-2.016.765-2.857 1.452"/>
        <path fill="#F9AA6B" d="M53.294 14.777s-.5-.42-.443-2.152c0 0 1.508 0 1.815-1.089.307-1.089.307-3.602.279-5.138 0 0 .12-.865-1.043-1.452-1.163-.586-4.095-.81-4.514.224-.419 1.033-.39 2.876-.39 2.876s-.434-.908-1.467-.684c-1.033.223-.517 3.56 1.354 2.36 0 0 .504 4.445-.893 4.481 0 0 .109 2.79 3.028 2.79 2.92 0 2.274-2.216 2.274-2.216"/>
        <path stroke="#C6793B" stroke-linecap="round" stroke-width=".667" d="M53.126 8.307s.022.5.304.976c.2.34.106.56-.408.724"/>
        <path fill="#21355E" d="M51.908 8.02c.096.054.097.203.093.307a1.29 1.29 0 0 1-.056.367c-.055.146-.256.148-.287-.017-.027-.144-.009-.801.25-.656M53.738 8.12c.111.053.122.176.126.296.004.122.001.277-.036.393-.05.16-.25.134-.288-.017a1.237 1.237 0 0 1-.001-.433c.014-.091.072-.298.199-.238"/>
        <path stroke="#C6793B" stroke-linecap="round" stroke-width=".667" d="M47.64 7.945s.825-.071 1.004 1.255M47.605 8.626s.328-.284.86-.11"/>
        <path fill="#21355E" d="M52.146 6.774c.096-.333-.272-.57-.556-.609-.38-.05-.728.191-.921.503-.058.094.015.244.133.233.228-.02.448-.092.678-.1.182-.008.336.068.513.09.068.008.136-.056.153-.117M53.457 6.95c.088.041.186.033.278.062.123.038.235.112.365.116l-.117-.031c.102.044.294.204.38.05.041-.072.012-.16-.012-.232-.035-.108-.06-.2-.144-.288a.53.53 0 0 0-.634-.11c-.112.06-.315.337-.116.432"/>
        <path fill="#21355E" d="M48.766 7.25c.045.312.157.614.327.88.668-.65.093-1.97.772-2.608.245-.231.6-.305.937-.314.658-.018 1.302.17 1.958.218.655.048 1.385-.08 1.803-.587.112-.135.198-.32.131-.483-.048-.115-.16-.188-.268-.25a5.282 5.282 0 0 0-3.248-.642c-.44.055-.877.17-1.266.383-1.2.66-1.711 2.334-1.085 3.552M52.133 10.053c-.315-.253-.535-.242-.717-.164-.181.079-.462.427-.274.907.19.48.726.8 1.138.81.516.011.841-.224.995-.492.153-.269.068-.634-.273-.677-.632-.08-.555-.13-.87-.384"/>
        <path fill="#E93654" d="M51.14 10.82c-.1-.251-.081-.496.012-.649 1.228.156 1.434 1.362 1.44 1.403a1.66 1.66 0 0 1-.348.03 1.284 1.284 0 0 1-1.105-.783z"/>
        <path fill="#F9AA6B" d="M56.447 13.917s-1.039.035-2.329 0c-.613-.017-1.424.068-1.267-1.292l-1.706.145-2.353.98s-.31.43-.8.453c-.49.024-2.042 0-2.544.478-.501.478 3.463 2.842 5.828 2.842s4.347-2.854 4.347-2.854l.824-.752z"/>
        <path fill="#EAD18C" d="M45.405 14.454l-.566.168s-5.087 1.767-7.775 6.568c-2.686 4.8 1.176 12.109 6.37 13.971l1.134-1.367s-4.386-3.683-3.706-8.52c.681-4.837 4.873-5.84 4.873-5.84h12.467l1.362-4.693-3.117-.824-5.427 3.077-5.615-2.54"/>
        <path fill="#EB4D6E" d="M49.986 18.36s-1.24.119-2.106.274c-.533.096-1.238.68-1.429.967-.19.286 1.242-.144 1.863-.526s1.29-.047 1.672-.715"/>
        <path fill="#F4708E" d="M52.685 18.503s-1.791-.169-2.675-.217c-.884-.047-1.752.308-3.606 1.266 0 0-.497.396.483.276.979-.119 1.69-.394 1.69-.394s.597.417 1.281.131c0 0 1.8.466 2.517-.178l.812-.048-.072-.836h-.43"/>
        <path fill="#D4BE86" d="M56.447 13.917s9.16 1.17 12.504 4.61c0 0 1.003 1.05-2.77 1.146-3.775.096-7.979-.239-7.979-.239l.43-1.91-2.185-3.607"/>
        <path fill="#EAD18C" d="M52.422 19.527V18.16s7.262-1.275 12.039-1.047c4.776.228 7.165 2.87 1.098 2.778-6.067-.09-13.137-.364-13.137-.364"/>
        <path fill="#F4708E" d="M43.435 35.161s.195 1.329.722 2.11c.528.782.88.743 1.114.41 0 0 .528.079.645-.39 0 0 .488 0 .488-.469 0 0 .82 1.055 1.368 1.641.547.586.879.215.41-.567a431.897 431.897 0 0 0-1.426-2.344s.469-.937-.04-1.367c-.507-.43-2.148-.391-2.148-.391l-1.133 1.367"/>
        <path stroke="#E43069" stroke-linecap="round" stroke-width=".667" d="M46.15 34.751c.313.352.58.712.58.712"/>
        <path fill="#D4BE86" d="M46.718 14.097s4.395 3.444 7.683-.246c0 0 .67-.403 2.046.033 0 0-1.04 3.322-5.133 3.456-4.863.16-6.475-2.718-6.475-2.718s.604-.615 1.879-.525"/>
        <path fill="#F06C88" d="M109.817 36.783l.491-.612s.597.48 2.222-.831c.005-.043-.254-3.063-.122-3.008-.49-.205-1.972.19-2.448.577-.477.387-.143 3.874-.143 3.874"/>
        <path fill="#F4708E" d="M112.534 35.118c.084.201-1.452 1.588-2.226 1.053l-.217-1.18s.69-.597 1.64-.279c.95.32.803.406.803.406"/>
        <path fill="#CB1868" d="M110.208 28.576l-.066-.609.512-.29.095.878-.541.021"/>
        <path fill="#21355E" d="M110.974 28.603c-.197-.07-.19-.36-.19-.36l-.262.028-.15.016-.261.028s.068.283-.11.392c-.22.137-.346.291-.271.99.062.577.694.45.911.388.226.014.87.005.809-.573-.076-.699-.232-.823-.476-.909"/>
        <path fill="#CB1868" d="M111.985 38.205a.504.504 0 1 0-1.003.108.504.504 0 0 0 1.003-.108"/>
        <path fill="#E93654" d="M112.415 38.16l-1.791.192-.92-8.562 1.791-.192.92 8.561"/>
        <path fill="#333183" d="M112.415 38.16l-1.791.192-.05-.466 1.79-.192.05.465M111.594 30.483l-1.791.192-.05-.465 1.79-.193.051.466"/>
        <path fill="#21355E" d="M110.695 32.712l-.086.01a.155.155 0 0 0-.137.17l.453 4.22c.01.086.086.147.17.138l.087-.01a.155.155 0 0 0 .137-.17l-.453-4.22a.155.155 0 0 0-.17-.138M111.271 32.485l-.055.005a.099.099 0 0 0-.087.109l.483 4.496a.099.099 0 0 0 .109.088l.054-.006a.098.098 0 0 0 .088-.108l-.483-4.497a.098.098 0 0 0-.109-.087"/>
        <path fill="#F9B191" d="M110.108 36.437l-.723.913-.834-1.173.516-.886s-.519-2.362.391-2.807c.669-.327 1-.387 1.225-.531.687-.441.88.473-.753 1.237 0 0 1.113 1.682.178 3.247"/>
        <path fill="#F9B191" d="M112.28 35.532s.71-.298.326-.967c0 0 .91-.331.258-.97 0 0 .641-.505-.08-.859 0 0 .535-.881-.453-.902-.988-.02-1.867.51-1.876 1.072-.007.43.651-.01 1.807-.25 0 0-1.879.36-1.857.691.041.638 1.082.309 1.988.33 0 0-1.783-.017-1.732.405.05.423 1.82.511 1.82.511s-1.584-.298-1.676-.112c-.212.434 1.476 1.05 1.476 1.05"/>
        <path fill="#878ECF" d="M107.547 36.805l1.278-1.31s.48.341 1.303 1.142l-.894 1.26-1.687-1.092"/>
        <path fill="#6888CD" d="M92.159 34.392c.1.239 1.948 5.39 5.257 7.196 3.718 2.029 8.743 1.79 11.907-3.792 0 0-.633-.78-1.41-1.363 0 0-3.391 2.56-6.345 1.504-3.251-1.162-3.855-3.55-4.696-5.382-1.07-2.33-2.197-3.725-4.197-3.113-1.783.546-1.186 5.62-1.186 5.62"/>
        <path fill="#F9AA6B" d="M83.535 28.642s.715-.165.66-1.869c0 0-1.484 0-1.786-1.071-.302-1.071-.302-3.544-.275-5.055 0 0-.118-.852 1.026-1.429 1.145-.577 4.03-.797 4.442.22.412 1.016.384 2.83.384 2.83s.426-.893 1.443-.673c1.016.22.508 3.503-1.333 2.321 0 0-.467 3.984.495 4.561l-2.595 2.595-2.46-2.43"/>
        <path fill="#21355E" d="M88.399 18.73s-.277-2.695-2.36-2.7c-2.327-.004-2.1 1.662-3.91 1.697-3.666.07-1.762 4.512 1.214 2.04.85-.706 2.885-1.154 4.039-.137v1.374s.027 1.071.467.522v.796s-.025.411.167.411c.193 0 .124-.666.124-.666s.443-.431.777-.482c0 0 .108-.337.388-.849.72-1.317-.412-2.219-.906-2.006"/>
        <path stroke="#C6793B" stroke-linecap="round" stroke-width=".667" d="M84.132 24.284s.606-.176 1.484-.812M83.968 21.938s-.052.49-.358.94c-.216.322-.137.543.358.736"/>
        <path fill="#21355E" d="M85.18 21.73c-.096.046-.107.193-.109.295-.002.113 0 .258.033.364.045.147.243.16.283 0 .036-.14.056-.786-.206-.66M83.377 21.718c-.112.045-.13.165-.14.283-.012.12-.019.272.01.388.041.16.239.147.284 0 .038-.121.04-.298.028-.425-.009-.09-.053-.296-.182-.246"/>
        <path fill="#6888CD" d="M89.89 28.807l-1.624-.083.111.823-2.143 1.621-2.548-1.845.256-.599-1.822.083s-3.427.164-4.719.714l.934 6.852s.777 10.593 1.189 13.972c0 0 1.91.689 4.204.03l-.016-2.137h4.636l-.005 2.123c2.295.659 4.294-3.174 4.294-3.174.413-3.38 1.037-11.096 1.037-11.096l.934-6.57c-1.292-.55-4.719-.714-4.719-.714"/>
        <path fill="#F9B191" d="M77.187 48.35s.581.418 1.483 1.052c.902.634.515 2.37.412 3.235-.103.865-.432 2.823-.556 3.359-.124.536-.515.556-.433-.536.083-1.092.127-1.38.127-1.38s-.683 1.545-.868 1.874c-.186.33-.557 0-.02-1.4l.535-1.402s-1.34.927-1.834 1.154c-.495.227-.268-.412.185-.845.454-.432 1.154-.962 1.154-.962s-.123-1.737.083-2.273l-.99-.577.722-1.298"/>
        <path fill="#878ECF" d="M77.191 47.871l.935.886s-.422.595-.857 1.598l-1.93-1.245 1.852-1.239"/>
        <path fill="#D9C8DE" d="M85.658 29.641s-3.059.55.584 3.16c0 0 2.565-2.984.403-3.06l-.447.77-.54-.87"/>
        <path fill="#A71D57" d="M86.833 32.496l-.178-1.083h-.996l-.046 1.032 1.22.05"/>
        <path fill="#CB1868" d="M86.68 29.866l-1.086-.038-.349 1.018.438.672h.996l.438-.672-.437-.98"/>
        <path fill="#878ECF" d="M82.12 28.807s2.104 3.583 4.196 4.946c0 0 2.04-1.46 3.313-4.958 0 0-.517-.235-1.034 0 0 0-.963 2.208-2.397 3.665 0 0-2.538-2.89-3.008-3.736 0 0-.614-.07-1.07.083"/>
        <path fill="#EBDBF0" d="M86.645 29.74l1.499-2.058s.419.858.968.995l-1.269 3.808-1.198-2.744M85.658 29.641l-1.497-1.96s-.703 1.002-1.276.996l1.715 3.808 1.058-2.844"/>
        <path fill="#253770" d="M82.836 88.206s.091 1.402 0 2.144c-.09.741-3.528 2.512-5.588 2.965 0 0 3.107-2.389 3.56-3.254.454-.866.495-1.855.495-1.855h1.533M89.251 88.206s-.09 1.402 0 2.144c.091.741 3.528 2.512 5.589 2.965 0 0-3.107-2.389-3.56-3.254-.454-.866-.495-1.855-.495-1.855H89.25"/>
        <path fill="#333183" d="M92.637 48.795v-1.608H79.214v1.608s.11 32.845.935 40.511c0 0 1.813.495 2.967 0 0 0 1.35-21.103 2.025-35.655H86.869c.674 14.552 2.024 35.655 2.024 35.655 1.154.495 2.967 0 2.967 0 .824-7.666.777-40.511.777-40.511"/>
        <path fill="#6888CD" d="M77.573 29.477c-1.329.45-5.247 3.298-6.796 7.283-1.663 4.278-.685 9.953 5.456 12.961 0 0 .324-1.01.958-1.85 0 0-2.144-2.78-2.578-4.731-.61-2.744.61-6.02 3.782-6.767"/>
        <path fill="#21355E" d="M85.067 21.22c.171-.013.328-.093.501-.102.178-.009.35.055.527.038.17-.017.35-.214.222-.386-.186-.249-.46-.309-.759-.27-.251.033-.567.138-.682.386-.065.138.008.349.191.334M83.592 21.321c-.121-.089-.202-.258-.282-.383-.175-.275-.582-.096-.517.218.07.338.378.521.707.505.19-.01.236-.234.092-.34"/>
        <path stroke="#C6793B" stroke-linecap="round" stroke-width=".667" d="M89.32 22.169s-.81-.07-.986 1.234M89.356 22.839s-.322-.284-.846-.11"/>
        <path fill="#E5B928" d="M86.198 48.23a.423.423 0 1 0-.846 0 .423.423 0 0 0 .846 0"/>
        <path fill="#5C6FBF" d="M79.113 46.115h13.642l-.118 1.072H79.214l-.101-1.072"/>
        <path fill="#63CAC5" d="M7.926 85.214s-1.444-6.642 6.533-12.117L7.926 85.214"/>
        <path fill="#44B2AC" d="M7.884 85.274s6.47-2.68 6.533-12.118L7.884 85.274M6.533 85.214S7.977 78.572 0 73.097l6.533 12.117"/>
        <path fill="#63CAC5" d="M6.574 85.274S.104 82.594.042 73.156l6.532 12.118"/>
        <path fill="#63CAC5" d="M7.199 84.728s-6.344-7.353 0-19.119v19.12"/>
        <path fill="#44B2AC" d="M7.187 84.828s6.344-7.353 0-19.118v19.118"/>
        <path fill="#2F63B1" d="M1.56 83.792h11.56s0 9.02-5.78 9.02-5.78-9.02-5.78-9.02"/>
        <path fill="#96AEBB" d="M55.19 98.597c-.046 0-.092 0-.138.004l-.02-.17a.194.194 0 1 0-.204.024l.02.169c-.192.031-.379.09-.556.175l.088.184a1.86 1.86 0 0 1 1.209-.139l.044-.2a2.094 2.094 0 0 0-.443-.047M56.976 99.285a.163.163 0 1 0-.183-.159l-.113.098a2.06 2.06 0 0 0-.38-.308l-.11.173c.307.194.547.467.693.791l.187-.084a2.007 2.007 0 0 0-.254-.418l.108-.095a.164.164 0 0 0 .052.002"/>
    </g>
</svg>
