<svg xmlns="http://www.w3.org/2000/svg" xmlns:xlink="http://www.w3.org/1999/xlink" width="103" height="88" viewBox="0 0 103 88">
    <defs>
        <path id="a" d="M17.998.014L4.744 4.111l.487 6.562L3.127 7.2l-1.326-.14-.759-.043-1.018.232.282 5.327.773-.512v6.408a4.92 4.92 0 0 0 2.738 4.411c1.249.617 2.54 1.05 2.967 1.068.878.036.915 1.316.915 1.316v2.341l4.06.622.255-3.73s3.258-1.256 4.12-1.59l.173-.07c1.824-.744 3.11-2.409 3.416-4.355l.923-5.872.695.292.512-2.23L17.72 8.99l-1.76 5.56-.398-3.878L17.998.014"/>
        <path id="c" d="M.02.027C.11.424.29 1.06.566 1.274c.137.107.27.143.385.143.125 0 .23-.043.3-.08l-.026-.07L.02.028"/>
        <path id="e" d="M31.985 16c0-8.825-7.155-15.98-15.98-15.98C7.178.02.024 7.175.024 16c0 8.826 7.154 15.98 15.98 15.98 8.825 0 15.98-7.154 15.98-15.98"/>
        <path id="g" d="M31.985 16c0-8.825-7.155-15.98-15.98-15.98C7.178.02.024 7.175.024 16c0 8.826 7.154 15.98 15.98 15.98 8.825 0 15.98-7.154 15.98-15.98"/>
        <path id="i" d="M5.159 14.727s-5.166-.12-5.151-4.144c.017-4.462.06-4.955.06-4.955l3.516-.265-.016 1.768S4.29 5.193 3.54.541L14.81.01l.31 8.393.06-2.645 3.96-.093s0 10.148-7.689 9.446c-4.354-.398-6.292-.383-6.292-.383"/>
        <path id="k" d="M31.985 16c0-8.825-7.155-15.98-15.98-15.98C7.178.02.024 7.175.024 16c0 8.826 7.154 15.98 15.98 15.98 8.825 0 15.98-7.154 15.98-15.98"/>
    </defs>
    <g fill="none" fill-rule="evenodd">
        <path fill="#74A4BC" d="M48.054 60.216h16.862v-4.134H48.054v4.134"/>
        <path fill="#74A4BC" d="M11.696 53.522h70.887v2.917H11.696v-2.917"/>
        <path fill="#74A4BC" d="M23.481 55.587l9.821 29.958.92-.277-8.215-29.685-2.526.004M16.86 55.783L8.34 85.381l.916.287 9.895-29.167-2.292-.718"/>
        <path fill="#CFE1F5" d="M16.78 65.21s5.02 5.162 17.928 3.728c12.907-1.434 12.907-6.023 13.194-7.888.287-1.864 5.307-24.094-7.027-23.95-12.334.143-12.908 19.074-15.346 22.23-2.438 3.154-10.55 4.582-8.748 5.88"/>
        <path fill="#AECEEF" d="M21.475 67.822l-4.953 18.986s.38-.178.648 0 6.714-18.297 6.714-18.297l-2.409-.689M29.567 69.18s.092 17.541.36 17.63c.267.087.802 0 .802 0l.443-17.63h-1.605M38.613 68.337l6.925 18.511.802-.039-5.236-19.092-2.491.62"/>
        <path fill="#BE7570" d="M24.981 82.918l2.511-.396-.05-4.508-3.558 1.058 1.097 3.846"/>
        <path fill="#F9B191" d="M31.674 23.348s-2.057 2.485-2.028 3.057c.028.57-1.112 3.76.488 5.56 1.6 1.799 2.1 1.862 3.968.895.076-.04 2.57-1.257 2.57-1.257l1.743-1.77-.771-2.172-1.685-2.942-.714-.742-3.428-.515-.143-.114"/>
        <g transform="matrix(1 0 0 -1 24.52 60.23)">
            <mask id="b" fill="#fff">
                <use xlink:href="#a"/>
            </mask>
            <g mask="url(#b)">
                <path fill="#BE7570" d="M7.699 27.607v-2.34s-.037-1.28-.915-1.317c-.427-.018-1.718-.451-2.967-1.068a4.92 4.92 0 0 1-2.738-4.411v-6.408l-.841.293-1.353-4.316 2.157-1.024.403.841L3.127 7.2l.622.439-.457-3.402 13.294.988-1.024 5.45-.183 1.243 1.207 2.121 1.134-5.047 4.133 1.682-.512 2.231-.695-.292-1.207 7.68s-.21 1.601-1.649 1.945c-.9.215-5.776 2.261-5.776 2.261l-.255 3.73-4.06-.621"/>
                <path fill="#F9B191" d="M7.699 27.607v-2.34s-.037-1.28-.915-1.317c-.427-.018-1.718-.451-2.967-1.068a4.92 4.92 0 0 1-2.738-4.411v-6.408l-.841.293-1.353-4.316 2.157-1.024.403.841L3.127 7.2l.622.439-.457-3.402 13.294.988-1.024 5.45-.183 1.243 1.207 2.121 1.134-5.047 4.133 1.682-.512 2.231-.695-.292-.923 5.872c-.306 1.946-1.592 3.61-3.416 4.356l-.173.069c-.862.334-4.12 1.59-4.12 1.59l-.255 3.73-4.06-.622"/>
                <path fill="#EAD18C" d="M4.754 23.432c-.036-.015 5.355-4.399 5.355-4.399l5.77 4.06 3.2-.472 4-12.763-6.208-1.276.999-8.9L2.245 3.787l.518 3.208-1.035.069s-.587-.724-.69-.759c-.103-.035-3.38 1.276-3.38 1.276L.245 23.207l4.509.225"/>
                <path fill="#CBB472" d="M15.562 10.673c-.038.004-.029.43.01 1.113.039.684.108 1.628.194 2.668.087 1.042.172 1.984.24 2.665.069.68.108 1.101.147 1.101.038 0 .068-.427.048-1.113a48.905 48.905 0 0 0-.158-2.675c-.172-2.085-.403-3.767-.48-3.759M21.255 12.922c.023-.076-.711-.364-1.604-.74-.895-.373-1.616-.694-1.653-.625-.037.066.636.502 1.545.882.908.381 1.691.554 1.712.483M20.679 13.164c.017-.075-.44-.244-1.021-.378s-1.067-.181-1.084-.107c-.017.075.44.244 1.021.378s1.067.182 1.084.107M14.345 12.934c.017-.03-.13-.163-.43-.273a2.165 2.165 0 0 0-2.294.556c-.215.235-.286.42-.257.44.034.024.16-.117.39-.295.228-.18.575-.39.998-.492a2.67 2.67 0 0 1 1.111-.02c.287.054.463.12.482.084M5.118 9.152c-.018 0-.031.138-.016.383s.057.596.115 1.026c.029.215.061.451.087.702.014.126.024.253.027.385.002.129-.007.256-.058.345-.046.089-.146.145-.282.197-.134.049-.303.12-.439.221-.28.2-.497.502-.597.852-.064.22-.076.45-.037.67.042.218.13.42.249.59.237.345.594.57.954.643l-.091-.156a9.135 9.135 0 0 0-.34 1.812c-.035.446-.019.702.006.703.028.002.061-.25.136-.685.076-.433.2-1.048.431-1.758l.041-.124-.132-.031a1.326 1.326 0 0 1-.982-1.043c-.03-.176-.02-.363.033-.544.08-.289.262-.542.489-.709.116-.085.231-.137.379-.195.072-.03.149-.064.223-.115a.578.578 0 0 0 .185-.207c.085-.168.081-.334.076-.474a4.397 4.397 0 0 0-.042-.405 15.915 15.915 0 0 0-.122-.705L5.21 9.52c-.048-.237-.072-.369-.092-.368M1.794 9.342c-.073-.022-.296.515-.498 1.198-.201.684-.305 1.255-.232 1.277.074.022.297-.515.499-1.198.201-.684.305-1.255.231-1.277M2.26 10.078c-.069-.036-.364.383-.661.936-.297.553-.483 1.031-.415 1.068.067.036.363-.383.66-.936.297-.554.483-1.032.415-1.068"/>
                <path fill="#FAFCFE" d="M7.29 16.222c-.302-.059-.618.262-.706.715-.087.454.086.869.388.927.301.058.616-.262.704-.716.088-.453-.086-.868-.387-.926M12.178 17.23c.275-.136.317-.615.092-1.07-.225-.454-.63-.712-.906-.576-.275.136-.316.615-.091 1.07.225.454.63.712.905.576M9.135 13.695c.307-.01.542-.401.526-.872-.017-.471-.278-.845-.585-.834-.307.01-.543.401-.526.872.016.472.278.845.585.834M15.017 11.4c.191-.241.015-.698-.393-1.022-.408-.323-.893-.39-1.084-.148-.19.24-.014.697.394 1.02.408.323.893.39 1.083.15M14.345 19.755c.009-.307-.267-.564-.615-.574-.35-.01-.639.231-.648.538-.008.307.268.564.616.574.349.01.639-.232.647-.538M18.6 20.33c.14-.272-.004-.627-.324-.79-.32-.165-.692-.076-.832.197s.005.627.324.791c.32.164.692.076.832-.197M14.762 16.209c.236-.197.224-.6-.026-.9-.25-.299-.644-.383-.88-.186-.235.197-.224.6.026.9.25.299.644.382.88.186M18.473 17.037a.57.57 0 0 0-.362-.72.57.57 0 0 0-.735.33.57.57 0 0 0 .362.718.57.57 0 0 0 .735-.328M20.55 15.438a.56.56 0 0 0-.177-.4.747.747 0 0 0-.413-.208.747.747 0 0 0-.457.072.562.562 0 0 0-.29.328.47.47 0 0 0 .094.433c.103.131.275.234.482.266a.764.764 0 0 0 .54-.106.47.47 0 0 0 .22-.385M17.296 13.164c.164-.26.043-.631-.272-.831-.315-.2-.703-.151-.868.108-.165.259-.043.631.272.83.315.2.703.152.868-.107M19.338 9.504a.77.77 0 0 0-.406-.08c-.124.01-.225.048-.29.124-.066.076-.086.182-.077.306a.77.77 0 0 0 .144.389c.09.123.221.2.367.209a.506.506 0 0 0 .412-.183.507.507 0 0 0 .115-.435.493.493 0 0 0-.265-.33M21.944 11.52a.695.695 0 0 0-.117-.399.422.422 0 0 0-.277-.193.42.42 0 0 0-.322.1.696.696 0 0 0-.233.343.532.532 0 0 0 .039.419.48.48 0 0 0 .345.236.48.48 0 0 0 .4-.12.533.533 0 0 0 .165-.386M16.982 23.128c.263-.159.277-.62.03-1.029-.247-.409-.66-.612-.923-.454-.263.159-.276.62-.03 1.028.247.41.66.613.923.455M8.145 20.481c.232-.202.234-.578.005-.841-.228-.263-.601-.313-.833-.11-.232.2-.234.577-.005.84s.602.312.833.111M2.854 23.442c.087.126.267.172.49.128.22-.043.483-.18.71-.4.226-.221.37-.48.42-.7.05-.22.008-.402-.115-.492-.124-.091-.304-.08-.495-.005a1.852 1.852 0 0 0-.586.4c-.19.185-.335.386-.416.575-.08.189-.096.368-.008.494M5.59 20.039a.472.472 0 0 0 .035-.432.632.632 0 0 0-.374-.344.63.63 0 0 0-.508.025.471.471 0 0 0-.25.355.644.644 0 0 0 .09.415c.07.117.167.207.29.25a.561.561 0 0 0 .383-.007.647.647 0 0 0 .334-.262M10.167 18.809c.307-.017.536-.409.511-.875-.025-.468-.293-.833-.6-.817-.306.016-.535.408-.51.875.024.467.293.833.6.817M6.03 13.84a.46.46 0 0 0 .14-.42.742.742 0 0 0-.302-.47.741.741 0 0 0-.538-.15.457.457 0 0 0-.36.258.595.595 0 0 0-.014.434.709.709 0 0 0 .664.49.594.594 0 0 0 .41-.142M7.668 9.204c-.144-.053-.304-.02-.448.068a.994.994 0 0 0-.363.412.994.994 0 0 0-.106.54c.02.168.09.315.22.396.13.082.297.08.46 0a.965.965 0 0 0 .423-.445.963.963 0 0 0 .094-.607c-.036-.177-.136-.31-.28-.364M11.358 9.679c.306-.03.51-.493.457-1.034-.053-.54-.344-.954-.65-.924-.305.03-.51.493-.457 1.033.054.54.345.955.65.925M8.917 6.33c-.134-.277-.585-.335-1.007-.13-.422.204-.656.594-.522.87s.585.335 1.007.13c.422-.205.655-.595.522-.87M14.02 7.78c.307.01.566-.322.58-.74.013-.418-.225-.764-.532-.774-.307-.01-.567.321-.58.74-.013.417.225.764.532.774M12.057 4.602c-.13-.081-.299-.075-.464.012a1.018 1.018 0 0 0-.428.475 1.018 1.018 0 0 0-.086.634c.04.182.144.315.29.362.147.048.306.005.448-.092.142-.097.27-.248.357-.436a1.07 1.07 0 0 0 .102-.554c-.018-.171-.088-.32-.22-.401M3.033 7.45c-.242-.19-.61-.123-.822.149-.212.27-.187.644.055.833.242.19.61.122.822-.15.212-.27.187-.644-.055-.832M4.746 9.249c-.208-.226-.654-.155-.995.16-.342.314-.45.752-.242.978.208.226.653.155.995-.16.341-.314.45-.752.242-.978M.486 14.458c.16.262.666.244 1.13-.039.464-.283.71-.726.55-.988-.16-.262-.665-.245-1.13.039-.464.283-.71.726-.55.988M4.176 15.597a.476.476 0 0 0 .005-.441.737.737 0 0 0-.399-.357.737.737 0 0 0-.535-.013.476.476 0 0 0-.298.327.56.56 0 0 0 .076.428.712.712 0 0 0 .349.292c.151.06.31.065.454.025a.561.561 0 0 0 .348-.26M.368 18.141c.108.288.61.365 1.12.174.51-.192.835-.58.727-.868-.108-.288-.609-.365-1.12-.173-.51.191-.835.58-.727.867M3.04 20.038c.3.067.611-.183.696-.56.084-.376-.09-.736-.39-.803-.3-.067-.61.183-.695.56-.085.377.09.736.39.803M.27 21.418c.143.272.572.327.958.124s.583-.588.44-.86c-.143-.272-.572-.327-.958-.124s-.583.588-.44.86M1.233 9.55c.13-.277-.051-.638-.406-.805-.355-.167-.748-.078-.88.2-.13.278.051.639.406.806.355.167.749.077.88-.2"/>
            </g>
        </g>
        <path fill="#37354C" d="M35.298 32.838c-.007.48.063.957.19 1.42.362 1.308 1.247 3.379 4.172 2.712 3.262-.744 1.635-4.159 1.635-4.159l.213-.15c.269-.19.444-.496.446-.826.002-.489-.366-.617-.366-.617.877-2.405-1.236-2.568-1.236-2.568v-.26c-.495-3.45-2.07-5.35-3.757-6.219-1.192-.615-2.906-.51-2.906-.51s-.78-.747-2.666-.487c-1.885.26-.748 3.056-.748 3.056l-.324.194c-2.113.943-1.268 7.217-1.268 7.217s-1.528 1.105-1.333 2.99c.195 1.886 2.317 2.122 2.317 2.122s2.461-.561 2.591-.594c.13-.032-.067-3.042-.067-3.042-1.335-.55-2.424-1.977-2.403-4.792.02-2.842 2.178-4.68 2.178-4.68.845 1.235 2.828 1.267 2.828 1.267 0 1.203 1.268 2.406 1.268 2.406s.264 2.926-.329 3.836c-.331.509-.427 1.146-.435 1.684"/>
        <path fill="#37354C" d="M35.038 26.49c-.03.075-.484-.065-1.033.043-.55.094-.925.386-.98.327-.025-.026.04-.14.199-.273.079-.066.183-.132.307-.192.124-.057.268-.106.424-.136.157-.028.308-.033.445-.024.137.012.258.037.356.071.196.067.296.151.282.184M35.028 27.666c-.033.024-.12-.054-.272-.126a.95.95 0 0 0-.609-.081.95.95 0 0 0-.513.339c-.105.131-.148.239-.19.232-.033-.004-.062-.136.02-.331a.92.92 0 0 1 .62-.512.918.918 0 0 1 .782.19c.159.14.192.271.162.29"/>
        <path fill="#37354C" d="M33.97 27.45a.31.31 0 0 0 .1.411c.135.081.331.03.41-.105a.31.31 0 0 0-.108-.409M31.346 27.95c-.039.011-.088-.051-.166-.132a1.14 1.14 0 0 0-.325-.247 1.139 1.139 0 0 0-.397-.1c-.111-.01-.191-.01-.206-.047-.015-.033.044-.103.179-.148a.748.748 0 0 1 .544.044.748.748 0 0 1 .374.398c.049.133.032.223-.003.232"/>
        <path fill="#37354C" d="M30.872 27.464c-.073.007-.132.067-.158.136a.277.277 0 0 0 .112.32.277.277 0 0 0 .337-.046.277.277 0 0 0 .021-.338M31.665 26.851c-.06.052-.338-.197-.755-.329-.413-.141-.783-.105-.803-.182-.008-.036.08-.096.245-.13.162-.034.4-.032.645.048.244.08.438.22.548.344.112.125.148.226.12.25"/>
        <path fill="#885254" d="M32.252 29.579c.004.009-.028.041-.104.07a.66.66 0 0 1-.77-.28.378.378 0 0 1-.05-.165.25.25 0 0 1 .016-.103.201.201 0 0 1 .074-.093.216.216 0 0 1 .11-.037.39.39 0 0 1 .094.006c.055.01.1.021.132.017.065-.003.127-.06.168-.132a.641.641 0 0 0 .073-.238 1.5 1.5 0 0 0-.022-.454c-.051-.262-.098-.428-.073-.435.02-.007.104.14.187.408.04.133.076.302.06.497a.757.757 0 0 1-.082.302.499.499 0 0 1-.112.14.331.331 0 0 1-.185.078c-.073.006-.13-.013-.174-.02-.046-.008-.072-.006-.085.003-.013.008-.022.023-.022.056 0 .031.01.068.026.099.072.132.206.219.323.257a.71.71 0 0 0 .296.032c.073-.008.114-.02.12-.008"/>
        <g transform="matrix(1 0 0 -1 32.093 30.504)">
            <mask id="d" fill="#fff">
                <use xlink:href="#c"/>
            </mask>
            <g fill="#C16362" mask="url(#d)">
                <path d="M.02.027h1.232v1.39H.02z"/>
            </g>
        </g>
        <path fill="#885254" d="M33.817 29.714c.017.01-.03.146-.173.327a1.713 1.713 0 0 1-1.616.604c-.227-.041-.351-.113-.344-.132.007-.025.142.006.357.015.215.01.514-.01.818-.123a2.09 2.09 0 0 0 .698-.444c.156-.149.238-.26.26-.247"/>
        <path fill="#885254" d="M34.025 29.975c-.044.017-.124-.079-.247-.15-.12-.076-.243-.1-.248-.148-.002-.022.033-.047.097-.054a.4.4 0 0 1 .237.059.4.4 0 0 1 .163.182c.024.06.018.102-.002.11"/>
        <path fill="#C16362" fill-rule="nonzero" d="M32.757 30.921a.41.41 0 0 1-.155-.031c-.175-.072-.338-.273-.453-.557.056.012.117.019.18.019.198 0 .427-.068.657-.249.22-.172.405-.421.552-.682.015.166.007.343-.02.503-.043.253-.13.464-.232.625-.152.238-.34.372-.529.372m-.62-.887l-.077-.006-.015-.059.15-.085a4.697 4.697 0 0 0-.058.15"/>
        <path fill="#C25A5A" d="M32.141 30.53h-.055a.865.865 0 0 1 .027-.033l1.205-.339c-.129.092-.283.18-.459.247a2.072 2.072 0 0 1-.718.126"/>
        <path fill="#9E4F52" d="M32.309 30.67c-.06 0-.116-.003-.168-.008a.676.676 0 0 1-.09-.133h.035l.055.002c.203 0 .46-.03.718-.126.176-.066.33-.155.459-.247l.065-.018a.343.343 0 0 1 .046.12 1.746 1.746 0 0 1-.511.3c-.214.08-.426.11-.61.11"/>
        <path fill="#244382" d="M40.985 59.46s-15.647-8.743-20.537-6.624c-4.89 2.12-13.446 21.19-13.446 21.19l2.874 1.724s5.837-7.025 12.528-16.29c0 0 12.225 7.592 17.359 4.233 5.134-3.359 1.222-4.233 1.222-4.233"/>
        <path fill="#1E386C" d="M36.975 57.691l4.621-1.609s1.595 3.948.73 5.126c-.864 1.179-.194 0-.194 0l-5.157-3.517"/>
        <path fill="#BE7570" d="M7.22 74.157L5.1 76.962l2.504.382 1.947-1.879s-1.002-1.308-2.33-1.308"/>
        <path fill="#1E386C" d="M24.981 82.918s-2.547 4.26-1.483 4.898c1.064.638 3.994-5.228 3.994-5.228v-.218l-2.51.548M5.292 76.683S-.565 78.91.076 79.846c.641.938 7.496-1.752 7.496-1.752l.38-.829-2.66-.582"/>
        <path fill="#F9B191" d="M33.6 55.808l9.301-3.303-.318-1.356 3.207-1.386s1.463 3.72.168 5.145c-.875.963-9.494 2.153-9.494 2.153l-2.863-1.253"/>
        <path fill="#C4E6F8" d="M38.732 28.855c0 .933-.551 1.69-1.231 1.69s-1.232-.757-1.232-1.69c0-.933.551-1.69 1.232-1.69.68 0 1.231.757 1.231 1.69"/>
        <path fill="#C4E6F8" d="M37.13 27.347s.54-3.968-1.903-5.595c0 0 .819.095 1.368.419 0 0 1.688.83 1.233 5.787l-.699-.61M34.643 31.3c0 .164-.276.296-.616.296-.34 0-.616-.132-.616-.296 0-.163.276-.296.616-.296.34 0 .616.133.616.296"/>
        <path fill="#C4E6F8" d="M37.706 29.66c.017.003-.024.243-.246.558-.216.314-.633.671-1.177.884-.543.212-1.068.266-1.44.286-.374.017-.604.002-.605-.02-.002-.024.228-.05.594-.098.365-.05.873-.12 1.39-.323.515-.202.916-.522 1.145-.801.232-.278.312-.497.339-.487"/>
        <path fill="#1E386C" d="M40.803 61.386c.028-.072.184-.076.348-.01.165.065.275.176.246.247-.028.071-.184.076-.349.01-.164-.065-.274-.176-.245-.247M38.469 60.454c.028-.072.313-.025.635.103.322.13.56.291.532.362-.029.072-.313.025-.635-.103-.323-.13-.56-.291-.532-.362M36.135 59.521c.028-.071.313-.025.635.104s.56.29.532.362c-.029.072-.313.025-.635-.104-.323-.128-.56-.29-.532-.362M33.8 58.59c.03-.072.314-.026.636.103s.56.29.532.362c-.029.071-.313.025-.635-.104-.323-.128-.56-.29-.532-.362M31.467 57.657c.028-.071.313-.025.635.104s.56.29.532.362c-.029.071-.313.025-.635-.104s-.56-.29-.532-.362M29.133 56.725c.028-.072.313-.025.635.104s.56.29.532.362c-.028.071-.313.024-.635-.104-.322-.129-.56-.29-.532-.362M26.8 55.793c.028-.072.312-.025.634.103.322.13.56.291.532.363-.028.07-.313.024-.635-.104-.322-.13-.56-.291-.532-.362M24.456 54.885c.023-.072.309-.034.637.088.164.061.308.13.405.194.096.065.148.124.134.16-.014.035-.092.041-.207.022a2.21 2.21 0 0 1-.428-.115c-.322-.12-.565-.275-.541-.349M21.986 54.606c-.02-.074.26-.202.623-.203.363-.002.64.11.628.184-.012.077-.293.092-.626.095-.332 0-.607 0-.625-.076M20.019 56.06c-.063-.04.043-.317.28-.587.238-.273.514-.404.558-.342.046.062-.13.273-.35.526-.22.25-.423.448-.488.404M18.73 58.218c-.067-.039.021-.313.195-.613.175-.3.37-.512.436-.473.067.038-.02.313-.195.613-.175.3-.37.512-.436.473M17.466 60.39c-.067-.038.021-.313.196-.613.174-.3.37-.511.436-.473.066.039-.022.313-.196.613-.175.3-.37.512-.436.473M16.202 62.562c-.066-.039.022-.313.196-.613.174-.3.37-.511.436-.472.066.038-.021.312-.196.612-.174.3-.37.512-.436.473M14.939 64.735c-.067-.039.02-.314.195-.613.175-.3.37-.512.437-.474.066.039-.022.313-.196.613-.175.3-.37.512-.436.474M13.675 66.907c-.067-.039.021-.313.196-.613.174-.3.37-.512.436-.473.066.038-.021.313-.196.613-.174.3-.37.512-.436.473M12.411 69.08c-.066-.04.022-.314.196-.614.174-.3.37-.512.436-.473.067.039-.021.313-.196.613-.174.3-.37.512-.436.473M11.148 71.252c-.067-.04.02-.314.195-.614.175-.3.37-.511.436-.473.067.039-.02.313-.195.613-.175.3-.37.512-.436.474M9.884 73.424c-.066-.039.021-.313.196-.613.174-.3.37-.512.436-.473.066.038-.022.312-.196.613-.175.3-.37.511-.436.473M8.93 75.065c-.067-.039-.049-.194.04-.347.09-.153.215-.246.281-.207.067.039.048.194-.04.347-.09.153-.215.245-.282.207"/>
        <path fill="#1E386C" d="M7.002 74.025l2.964 1.83 1.037-1.245-3.447-2.229-.554 1.644"/>
        <path fill="#244382" d="M18.984 63.787l4.728 16.732 4.033-.617S28.374 68.538 24.706 64h7.922c-3.592-1.123-6.988-2.661-10.224-4.54-2.308-.08-4.032 2.101-3.42 4.328"/>
        <path fill="#3C41A0" d="M30.305 63.67c.006-.076.296-.118.649-.094.353.025.635.107.63.183-.006.077-.297.12-.65.095-.352-.025-.634-.107-.629-.183M27.749 63.494c.005-.077.296-.12.649-.095.353.025.634.107.63.183-.006.077-.296.119-.65.094-.352-.024-.634-.106-.629-.182M25.193 63.317c.005-.077.296-.12.649-.095.353.025.634.107.629.183-.005.077-.296.119-.649.094-.353-.024-.634-.106-.629-.182M23.713 63.892c-.07.03-.244-.206-.387-.527a2.616 2.616 0 0 1-.049-.116l-.005-.012a.132.132 0 0 1 .075-.172l.063-.009c.292.033.51.105.505.172-.005.067-.23.108-.523.1l.133-.193.054.114c.145.325.205.612.134.643M24.655 66.275c-.073.025-.232-.221-.356-.551-.124-.33-.166-.62-.095-.649.072-.028.23.219.356.551.124.333.167.623.095.649M25.431 68.716c-.073.02-.215-.236-.316-.574-.102-.337-.125-.63-.051-.653.073-.024.215.233.317.574.102.34.124.632.05.653M26.042 71.204c-.075.016-.2-.25-.277-.593-.079-.344-.082-.638-.007-.656.074-.019.199.247.278.594.079.346.082.64.006.655M26.484 73.728c-.076.01-.182-.264-.237-.611-.055-.348-.038-.641.038-.655.075-.013.181.26.237.611.055.351.038.644-.038.655M26.755 76.275c-.077.006-.164-.275-.195-.625-.032-.351.005-.642.081-.65.077-.009.164.27.195.625.032.354-.005.645-.08.65M26.852 78.78c-.077 0-.145-.273-.153-.61-.007-.337.05-.612.126-.615.077-.004.145.27.152.61.008.34-.049.615-.125.615"/>
        <path fill="#1E386C" d="M23.404 80.52l4.906-.475-.211-1.681-4.897.822.202 1.333M35.734 63.996a14.631 14.631 0 0 1-1.481-.088 17.565 17.565 0 0 1-3.31-.712 24.257 24.257 0 0 1-3.12-1.247 30.553 30.553 0 0 1-2.4-1.285c-1.325-.792-2.092-1.365-2.022-1.5.01-.02.041-.03.09-.03.268 0 1.098.315 2.29.83.703.301 1.533.667 2.458 1.05.926.381 1.949.775 3.038 1.121a23.28 23.28 0 0 0 3.116.758c.485.083.95.138 1.385.182.218.018.43.036.632.048.203.008.399.025.585.025.202.006.395.008.576.008.32 0 .604-.007.85-.013.246-.007.453-.014.616-.014.265 0 .415.018.43.081.018.072-.196.202-.613.349-.417.147-1.042.292-1.828.375-.197.025-.403.032-.619.047-.216.011-.44.013-.673.015"/>
        <path fill="#AECEEF" d="M92.759 57.254l-4.656-21.317 5.456 21.317-2.728-19.352 2.728 14.041-1.164-22.117s2.037 18.043 2.183 17.752c.145-.291.582-14.551.582-14.551s-.218 21.39 0 21.172c.218-.219 1.31-11.714 1.31-11.714s.145 10.331 0 10.113c-.146-.218 2.546-17.461 2.546-17.461l-1.091 10.33s1.964-7.856 2.691-8.438c0 0-3.055 10.986-3.274 15.86 0 0 3.274-11.64 3.638-12.15l-3.564 16.515s3.637-12.732 4.437-13.714c.8-.982 0-.4 0-.4l-3.419 14.114-.946 1.019-3.565.582-1.164-1.6"/>
        <path fill="#CFE1F5" d="M92.135 56.66l1.31 6.912 5.02.291.8-7.203h-7.13"/>
        <path fill="#74A4BC" fill-rule="nonzero" d="M97.09 82.007c-.1-.067-.437-15.115-.437-15.115h2.739l2.001 15.115s-4.204.066-4.304 0zm-5.506 0l1.502-15.248 2.402.167.4 15.08h-4.304zm8.568-16.638l-1.725-.146.023-.51c1.396.008 2.433.016 2.433.016v-1.053h-9.696s-.068 1.121 0 1.053c.024-.024 1.14-.031 2.607-.031v.58h-1.6l-1.83 21.175h.411l.382-3.43 4.863.091v3.339h.701v-3.384l5.077-.138.457 3.522h.686l-2.79-21.084z"/>
        <path fill="#74A4BC" d="M72.723 56.439l9.821 29.958.92-.278-8.215-29.684-2.526.004M68.03 55.783l-8.52 29.598.917.287 9.895-29.167-2.292-.718"/>
        <path fill="#CFE1F5" d="M54.398 37.23l-1.483 13.625h20.576l1.483-13.625H54.398"/>
        <path fill="#CFE1F5" d="M61.038 50.07s.465 2.99-.333 3.455h5.848s.876-1.432.163-3.455h-5.678"/>
        <path fill="#AECEEF" d="M53.421 47.965h20.06l1.249-10.453H54.586L53.42 47.965M64.15 49.306a.764.764 0 1 1-1.527 0 .764.764 0 0 1 1.527 0"/>
        <path fill="#88B5D9" d="M54.355 39.442l20.16-.137-.519 4.348-20.111.15.47-4.36"/>
        <path fill="#F2F7FD" d="M58.467 40.627h-3.28v-.309h3.28v.31M61.289 41.11h-6.102v-.15h6.102v.15M61.873 41.539h-6.686v-.15h6.686v.15M58.621 41.95h-3.434v-.15h3.434v.15M57.128 43.022h-1.94v-.567h1.94v.567"/>
        <path fill="#88B5D9" d="M57.031 38.886h-1.648v-.463h1.648v.463M67.99 38.79h-1.668v-.301h1.668v.301M70.308 38.79H68.64v-.301h1.668v.301M72.625 38.79h-1.668v-.301h1.668v.301M58.25 47.965H54.43l.36-3.313h3.915l-.454 3.313M62.933 47.965H59.11l.36-3.313h3.915l-.453 3.313M67.615 47.965h-3.822l.361-3.313h3.915l-.454 3.313M72.297 47.965h-3.821l.36-3.313h3.915l-.454 3.313"/>
        <path fill="#B4CFE6" d="M65.09 43.72l3.458-4.374h4.471l-3.545 4.34-4.385.033"/>
        <path fill="#4F81B7" d="M25.694 84.668c-.023.044-.41-.152-.926-.17-.516-.027-.918.133-.937.088-.009-.02.081-.087.25-.15.168-.065.418-.117.695-.105a1.8 1.8 0 0 1 .682.165c.163.078.247.154.236.172M24.998 84.121c-.009.007-.06-.039-.128-.143a1.258 1.258 0 0 1-.18-.491.62.62 0 0 1 .002-.187.342.342 0 0 1 .1-.2c.064-.06.17-.08.254-.047a.34.34 0 0 1 .19.176c.039.077.052.16.058.24a1.096 1.096 0 0 1-.077.489.662.662 0 0 1-.146.233.338.338 0 0 1-.293.092.636.636 0 0 1-.247-.105 1.88 1.88 0 0 1-.352-.302c-.048-.054-.1-.11-.135-.185a.293.293 0 0 1-.03-.128.196.196 0 0 1 .18-.192c.04-.005.077 0 .11.007a.566.566 0 0 1 .172.076c.194.121.304.274.36.384.057.11.066.18.056.183-.012.005-.041-.055-.11-.149a1.089 1.089 0 0 0-.365-.315.465.465 0 0 0-.139-.053c-.047-.009-.093 0-.107.02-.019.02-.02.053.005.103a.66.66 0 0 0 .115.144c.094.098.205.19.329.27.06.038.124.07.183.078a.17.17 0 0 0 .153-.049.857.857 0 0 0 .142-.775.193.193 0 0 0-.102-.104.109.109 0 0 0-.114.014c-.063.053-.082.176-.074.269.016.205.074.366.12.474.047.108.08.166.07.173"/>
        <path fill="#4F81B7" d="M27.066 82.46c.02.008-.1.345-.34.87a18.235 18.235 0 0 1-2.099 3.441 3.083 3.083 0 0 1-.317.36c-.215.208-.455.302-.621.316-.169.016-.257-.025-.254-.033.002-.014.092.003.243-.031.151-.033.359-.132.55-.336.19-.2.38-.49.599-.798a26.914 26.914 0 0 0 1.793-2.972c.266-.508.424-.827.446-.817M7.912 77.333c.004.01-.097.064-.286.152-.188.089-.464.208-.808.349-.687.28-1.652.634-2.738.962a31.83 31.83 0 0 1-2.815.713c-.364.074-.66.127-.865.157-.206.03-.32.042-.323.03-.004-.023.443-.126 1.163-.302s1.71-.431 2.792-.757a55.132 55.132 0 0 0 2.744-.914c.697-.251 1.126-.413 1.136-.39"/>
        <g transform="matrix(1 0 0 -1 41.38 31.886)">
            <mask id="f" fill="#fff">
                <use xlink:href="#e"/>
            </mask>
            <g mask="url(#f)">
                <path fill="#CFE1F5" d="M31.97 15.958c0-8.826-7.154-15.98-15.98-15.98C7.165-.023.01 7.131.01 15.957c0 8.825 7.155 15.98 15.98 15.98 8.826 0 15.98-7.155 15.98-15.98"/>
                <path fill="#F8A6A0" d="M22.527 6.35V.783h3.438l-.002 5.847-3.436-.28M7.307 6.35V.783h3.17l-.003 5.847-3.167-.28"/>
            </g>
        </g>
        <g transform="matrix(1 0 0 -1 41.38 31.886)">
            <mask id="h" fill="#fff">
                <use xlink:href="#g"/>
            </mask>
            <g mask="url(#h)">
                <g transform="translate(7.137 -.333)">
                    <mask id="j" fill="#fff">
                        <use xlink:href="#i"/>
                    </mask>
                    <g mask="url(#j)">
                        <path fill="#873B91" d="M5.159 14.727s-5.166-.12-5.151-4.144c.017-4.462.06-4.955.06-4.955l3.516-.265-.016 1.768S4.29 5.193 3.54.541l11.553-.685.027 8.546.06-2.645 3.96-.093s0 10.148-7.689 9.446c-4.354-.398-6.292-.383-6.292-.383"/>
                        <path fill="#BD8DBA" d="M9.03 10.686c-4.663 0-8.503.054-9.017.123l.001.032c.521.07 4.358.123 9.015.123 5.012 0 9.075-.062 9.075-.139 0-.077-4.063-.139-9.075-.139"/>
                        <path fill="#BD8DBA" fill-rule="nonzero" d="M10.133 11.968c.13.466.257.97.382 1.5 3.148-.043 5.75-.222 6.922-.462l.061-.558c-1.183-.256-3.989-.446-7.365-.48m-3.26.016c-3.187.065-5.715.27-6.589.533.01.14.022.28.033.417.876.25 3.256.446 6.27.518.09-.517.186-1.01.287-1.468"/>
                        <path fill="#BD8DBA" fill-rule="nonzero" d="M11.673 13.361c.078.504.153 1.006.225 1.5 1.776-.05 3.308-.15 4.406-.276.056-.302.11-.609.165-.921-1.15-.142-2.832-.25-4.796-.303m-5.91.019c-1.86.062-3.422.177-4.457.321.064.297.13.58.196.853 1.003.129 2.435.23 4.119.29.044-.477.091-.968.142-1.464"/>
                        <path fill="#BD8DBA" d="M9.403 9.619c-4.864 0-8.87.054-9.391.123v.03c.52.07 4.526.124 9.391.124 4.301 0 7.931-.042 9.074-.1l.024-.076c-1.116-.059-4.767-.101-9.098-.101M9.51 8.23c-5.22 0-9.45.063-9.45.14 0 .076 4.23.139 9.45.139 4.69 0 8.582-.05 9.322-.117l.008-.044c-.396-.037-1.77-.07-3.717-.09l-.003.144-.096-.145A537.43 537.43 0 0 0 9.51 8.23"/>
                        <path fill="#BD8DBA" fill-rule="nonzero" d="M9.67 6.843c-2.278 0-4.372.06-6.028.161-.026.563-.047.951-.06 1.173 1.665.104 3.783.166 6.088.166 1.661 0 3.225-.033 4.592-.09L14.1 6.926a113.722 113.722 0 0 0-4.43-.083m5.485.13l-.005 1.239c1.88-.1 3.285-.249 3.897-.423l.008-.39c-.607-.175-2.014-.326-3.9-.425M3.57 7.008C1.675 7.127.366 7.3.036 7.495v.195c.329.196 1.637.367 3.532.486l.002-1.168"/>
                        <path fill="#BD8DBA" fill-rule="nonzero" d="M9.67 5.455c-2.186 0-4.204.055-5.827.15l-.019 1.2c1.627.093 3.651.15 5.846.15 1.302 0 2.544-.02 3.68-.055l-.171-1.395c-1.089-.032-2.272-.05-3.509-.05m-6.087.166a37.03 37.03 0 0 0-2.048.174L.17 6.35l-.017.007c.462.174 1.703.326 3.428.432l.002-1.168"/>
                        <path fill="#BD8DBA" d="M9.67 3.64c-2.176 0-4.184.01-5.804.027l.008.223a556.694 556.694 0 0 0 8.28.023l-.178-.27c-.74-.002-1.511-.003-2.306-.003M9.67 2.145c-2.225 0-4.275.01-5.912.029l.022.22a555.45 555.45 0 0 0 7.389.028l-.182-.276H9.67M9.67.864c-1.788 0-3.463.007-4.901.02-.269.07-.533.147-.795.232 1.6.016 3.568.026 5.696.026h.653L10.14.864h-.47"/>
                    </g>
                </g>
            </g>
        </g>
        <g transform="matrix(1 0 0 -1 41.38 31.886)">
            <mask id="l" fill="#fff">
                <use xlink:href="#k"/>
            </mask>
            <g mask="url(#l)">
                <path fill="#244382" d="M10.075 26.621c.431-.386.366-1.078.073-1.57-.293-.491-.76-.865-1.108-1.322-.347-.458-.57-1.084-.294-1.584.093-.17.238-.314.294-.498.087-.286-.067-.593-.28-.812-.211-.219-.48-.381-.695-.597-.71-.71-.688-1.903-.13-2.729.556-.825 1.537-1.317 2.537-1.54 1.007-.226 2.105-.204 3.032.236.805.381 1.518 1.077 2.416 1.055.597-.015 1.124-.351 1.637-.641.68-.385 1.413-.711 2.197-.815.782-.104 1.626.036 2.245.506.62.47.96 1.3.712 2.017-.185.535-.651.936-1.128 1.268-.314.218-.672.465-.718.833-.077.61.729.998.864 1.598.123.545-.343 1.044-.814 1.372-.472.327-1.025.635-1.213 1.162-.16.448-.011.94-.059 1.41-.108 1.058-1.222 1.813-2.326 1.933 0 0-.737 1.762-3.086 1.047l-4.156-2.329"/>
                <path fill="#CF9DA9" d="M18.137 16.29a1.074 1.074 0 0 0-.082.049 4.756 4.756 0 0 0-.068.1l.13-.053.02-.097"/>
                <path fill="#244382" d="M18.057 16.353l-.07.036c-.242.446-.446 1.01-.57 1.723-.171.977-.255 2.162-.29 3.33l1.027.898c.33-1-.385-1.83-.385-1.83-.226-.825.215-3.692.288-4.157"/>
                <path fill="#F8A6A0" d="M11.19 26.928s-2.072-4.554.319-7.492c0 0 1.005-1.438 2.3-1.488 0 0 .071-2.027-.128-2.475-.2-.448-.598-.996-1.395-1.096 0 0 1.146-3.536 3.437-3.337 2.29.2 4.333 3.686 4.333 3.686s-2.092.249-2.64 3.386c-.548 3.138-.2 8.417-.2 8.417l-6.025.399"/>
                <path fill="#244382" d="M16.338 24.284c-.03-.075-.485.065-1.033-.042-.551-.095-.926-.387-.98-.328-.025.026.039.14.198.273.08.066.184.133.307.192.125.057.269.106.425.136.156.028.308.033.445.024.136-.012.258-.037.355-.07.196-.067.296-.152.283-.185M15.155 23.575a.31.31 0 0 1 .1-.41.31.31 0 0 1 .411.104.31.31 0 0 1-.109.409M11.76 23.604c-.072-.007-.132-.067-.157-.136a.277.277 0 0 1 .112-.32.276.276 0 0 1 .336.045c.083.09.093.24.022.339M12.649 23.73c-.065-.055-.359.209-.8.348-.44.15-.833.111-.853.193-.008.038.085.101.26.137.172.037.425.034.684-.05a1.38 1.38 0 0 0 .581-.365c.12-.132.157-.239.128-.264"/>
                <path fill="#B2706F" d="M13.437 21.446c.005-.009-.028-.04-.104-.07a.661.661 0 0 0-.77.28.381.381 0 0 0-.05.165.25.25 0 0 0 .016.103.2.2 0 0 0 .074.094.218.218 0 0 0 .11.037.402.402 0 0 0 .095-.007c.055-.01.1-.02.132-.017.065.003.127.06.168.133.041.07.06.154.072.238.022.166.001.323-.022.453-.05.262-.097.428-.072.436.019.006.103-.141.187-.408.039-.134.076-.303.06-.497a.764.764 0 0 0-.082-.302.511.511 0 0 0-.112-.14.33.33 0 0 0-.186-.079c-.073-.006-.129.013-.173.02-.046.008-.073.006-.085-.003-.013-.008-.022-.023-.022-.056 0-.03.01-.067.025-.098a.578.578 0 0 1 .323-.258.71.71 0 0 1 .297-.031c.072.008.114.019.119.007"/>
                <path fill="#F6857F" d="M13.298 20.529a.99.99 0 0 0 .546.34c.137.03.27.039.385.039.125 0 .23-.012.3-.022l-.025-.019-1.206-.338"/>
                <path fill="#B2706F" d="M15.002 21.311c.018-.01-.029-.146-.173-.326a1.712 1.712 0 0 0-1.615-.605c-.227.041-.352.113-.345.133.008.024.142-.006.358-.016.214-.01.514.01.818.124.303.114.542.295.697.444.157.148.238.26.26.246"/>
                <path fill="#B2706F" d="M15.21 21.05c-.044-.017-.123.08-.246.15-.121.076-.244.101-.249.148-.001.022.034.047.097.054a.397.397 0 0 0 .237-.059.397.397 0 0 0 .163-.181c.024-.06.019-.102-.002-.111"/>
                <path fill="#F6857F" fill-rule="nonzero" d="M13.943 20.104a.402.402 0 0 0-.156.031c-.175.072-.338.274-.453.558a.86.86 0 0 1 .18-.02c.199 0 .428.068.657.248.22.173.406.423.552.683a1.974 1.974 0 0 0-.02-.503 1.708 1.708 0 0 0-.232-.625c-.151-.239-.34-.372-.528-.372m-.62.887l-.077.006-.015.06.15.084a4.707 4.707 0 0 1-.059-.15"/>
                <path fill="#E16E6B" d="M13.327 20.495h-.055l.026.034 1.206.338a2.008 2.008 0 0 0-.46-.246 2.067 2.067 0 0 0-.717-.126"/>
                <path fill="#B96062" d="M13.494 20.355c-.059 0-.115.003-.167.009a.686.686 0 0 0-.09.133l.035-.002h.055c.203 0 .459.029.718.126.176.066.33.154.459.246l.064.018a.344.344 0 0 0 .047-.12 1.745 1.745 0 0 0-.512-.3 1.753 1.753 0 0 0-.609-.11"/>
                <path fill="#244382" d="M16.214 23.36c-.034-.025-.12.053-.272.125a.952.952 0 0 1-.61.082.952.952 0 0 1-.512-.34c-.106-.13-.15-.238-.19-.232-.034.004-.062.137.02.331a.918.918 0 0 0 .62.512.913.913 0 0 0 .782-.19c.158-.14.191-.271.162-.289M12.234 23.117c-.038-.01-.088.052-.165.132-.076.081-.186.18-.326.247-.14.068-.286.092-.397.1-.11.011-.19.01-.206.048-.015.033.045.103.18.147a.746.746 0 0 0 .543-.044.748.748 0 0 0 .375-.397c.049-.133.031-.223-.004-.233M12.74 29.7c.05-.024.102-.044.154-.065 1.045-.405 2.806-1.37 2.17-2.228-2.011-2.71-5.102-.786-5.102-.786s-1.644 1.211-.311 3.012c.759 1.026 2.705.235 3.088.066"/>
                <path fill="#F79791" d="M15.752 22.117c-.285 0-.514.113-.519.26-.005.154.235.286.537.296h.034c.286 0 .515-.113.52-.26.005-.154-.235-.286-.537-.296h-.035M11.357 22.132c-.285 0-.515.113-.52.261-.004.154.236.286.537.296h.035c.285 0 .514-.114.52-.26.004-.154-.236-.287-.537-.296h-.035"/>
                <path fill="#244382" d="M14.206 26.964c.225-.702 1.051-1.149 1.763-.952.126-.414.258-.84.529-1.18.27-.338.884-1.143 1.306-1.042l-.17 3.048-3.108.497-.32-.558v.187"/>
                <path fill="#9DB8D4" d="M22.002 1.184l.024.65.01.235.046 1.26.008.234.059 1.582.009.232.042 1.156.01.232.042 1.16.006.145-.256-6.886"/>
                <path fill="#693B89" fill-rule="nonzero" d="M16.957.048l.32.484c.972 0 1.908.003 2.784.008-1-.262-2.038-.43-3.104-.492m3.982.748C19.87.804 18.697.808 17.46.81l.664 1.005c1.422.003 2.745.01 3.902.02l-.024-.65c-.348-.142-.703-.271-1.063-.388m1.096 1.273c-1.11.01-2.373.017-3.729.02l.807 1.222c1.07.004 2.07.01 2.969.019l-.047-1.261m.055 1.494c-.85.008-1.793.014-2.798.017l1.024 1.552c.648.003 1.261.008 1.833.013l-.059-1.582m.068 1.814c-.524.005-1.083.01-1.671.013l.75 1.135.963.008-.042-1.156m.051 1.388l-.81.007.762 1.152.091.001-.043-1.16"/>
                <path fill="#917AAB" d="M22.161 7.924l.15.15-.008-.149h-.142M21.237 6.525l.163.247.81-.007-.01-.232-.963-.008M20.316 5.132l.17.258 1.672-.013-.009-.232c-.572-.005-1.185-.01-1.833-.013M19.113 3.311l.179.27c1.005-.004 1.948-.01 2.798-.018l-.008-.233c-.898-.009-1.899-.015-2.969-.019M18.124 1.814l.182.275c1.356-.003 2.62-.01 3.73-.02l-.01-.235c-1.157-.01-2.48-.017-3.902-.02M17.277.532l.183.277C18.697.808 19.871.804 20.94.796c-.29-.094-.581-.179-.878-.256-.876-.005-1.812-.008-2.784-.008"/>
            </g>
        </g>
        <path fill="#CFE1F5" d="M43.708 24.156l-1.495 4.91 4.78-1.04"/>
        <path fill="#D2B9C8" d="M67.405 26.98l-.001-.266h.001v.265"/>
        <path fill="#F78E8A" d="M63.906 27.274v-.672l3.436.112v.456l-3.436.104M51.85 28.03l-3.154-.756v-.527l3.154.264v1.019"/>
        <path fill="#244382" d="M58.901 9.31c-.179 0-.358-.025-.414-.033-.002-.509.003-.999.012-1.45.14.178.734.947.827 1.255.055.184-.185.228-.425.228"/>
        <path fill="#244382" d="M58.56 9.277l-.09-.003V7.79l.15.038c-.046.451-.072.941-.06 1.45"/>
        <path fill="#F8A6A0" d="M58.376 9.162s1.106-.442 1.157.383c.051.826-1.157 1.29-1.157 1.29V9.162"/>
        <path fill="#B2706F" d="M58.865 10.135c-.002-.018.071-.028.15-.099.079-.065.162-.21.123-.355-.043-.145-.19-.224-.29-.238-.105-.02-.173.01-.18-.006-.009-.009.054-.072.186-.073a.416.416 0 0 1 .391.287.419.419 0 0 1-.183.449c-.113.068-.2.047-.197.035"/>
        <path fill="#F9B191" d="M24.545 52.983l-8.547-6.874.99-1.55 7.77 3.316-.213 5.108"/>
        <path fill="#F9B191" d="M16.652 46.586l.452-1.813-1.877-3.06a.599.599 0 0 0-.203-.211l-1.97-1.222s-.255.525.7 1.186c1.314.91-.225 2.277-.225 2.277l3.123 2.843"/>
        <path fill="#F9B191" d="M14.966 42.11s-.526.388-.914.305c-.388-.083-2.725-2.854-3.002-2.678-.277.175.381 1.132.653 1.404.362.361 1.184 1.194 1.111 1.286-.082.104-2.39-1.564-2.554-1.507-.54.188.664 1.08 1.965 1.827 1.301.748-.055.21-.055.21s-2.076-.94-2.215-.597c-.115.283 2.38 1.44 2.38 1.44s.222.276-.22.193c-.444-.083-1.828-.664-1.966-.581-.139.083 4.91 3.373 5.849 2.697.938-.676.74-1.55.74-1.55l-1.772-2.449"/>
        <path fill="#885254" d="M15.155 44.337c-.01.018-.165-.022-.401-.147a1.162 1.162 0 0 1-.366-.307.843.843 0 0 1-.136-.26.73.73 0 0 1-.024-.32c.014-.105.04-.199.056-.286a1.43 1.43 0 0 0 .022-.251c0-.163-.025-.312-.047-.437-.048-.25-.082-.41-.059-.416.02-.006.094.137.174.388.038.126.076.28.085.46.005.09 0 .186-.014.284-.016.097-.04.19-.051.28a.637.637 0 0 0 .118.468c.089.13.204.224.305.297.207.144.35.224.338.247"/>
    </g>
</svg>
