<svg width="1440" height="982" viewBox="0 0 1440 982" fill="none" xmlns="http://www.w3.org/2000/svg">
<mask id="mask0" mask-type="alpha" maskUnits="userSpaceOnUse" x="0" y="0" width="1440" height="575">
<path d="M1440 0H0V344.776C148.269 325.19 265.03 373.589 304.876 400.236C660.516 635.933 847.752 630.561 1162.25 400.236C1221.31 346.275 1372.03 340.779 1440 344.776V0Z" fill="white"/>
</mask>
<g mask="url(#mask0)">
<path d="M1440 1H0V345.776C148.269 326.19 265.03 374.589 304.876 401.236C660.516 636.933 847.752 631.561 1162.25 401.236C1221.31 347.275 1372.03 341.779 1440 345.776V1Z" fill="white"/>
<rect x="0.968692" width="92.0498" height="92.0498" transform="matrix(0.968692 -0.248265 0.968692 0.248265 0.0303276 394.129)" stroke="#F2F2F2"/>
<rect x="0.968692" width="92.0498" height="92.0498" transform="matrix(0.968692 -0.248265 0.968692 0.248265 179.991 394.129)" stroke="#F2F2F2"/>
<rect x="0.968692" width="92.0498" height="92.0498" transform="matrix(0.968692 -0.248265 0.968692 0.248265 0.0303276 440.478)" stroke="#F2F2F2"/>
<rect x="0.968692" width="92.0498" height="92.0498" transform="matrix(0.968692 -0.248265 0.968692 0.248265 179.991 440.478)" stroke="#F2F2F2"/>
<rect x="0.968692" width="92.0498" height="92.0498" transform="matrix(0.968692 -0.248265 0.968692 0.248265 0.0303276 116.038)" stroke="#F2F2F2"/>
<rect x="0.968692" width="92.0498" height="92.0498" transform="matrix(0.968692 -0.248265 0.968692 0.248265 179.991 116.038)" stroke="#F2F2F2"/>
<rect x="0.968692" width="92.0498" height="92.0498" transform="matrix(0.968692 -0.248265 0.968692 0.248265 0.0303276 162.387)" stroke="#F2F2F2"/>
<rect x="0.968692" width="92.0498" height="92.0498" transform="matrix(0.968692 -0.248265 0.968692 0.248265 179.991 162.387)" stroke="#F2F2F2"/>
<rect x="0.968692" width="92.0498" height="92.0498" transform="matrix(0.968692 -0.248265 0.968692 0.248265 719.874 394.129)" stroke="#F2F2F2"/>
<rect x="0.968692" width="92.0498" height="92.0498" transform="matrix(0.968692 -0.248265 0.968692 0.248265 899.835 394.129)" stroke="#F2F2F2"/>
<rect x="0.968692" width="92.0498" height="92.0498" transform="matrix(0.968692 -0.248265 0.968692 0.248265 719.874 440.478)" stroke="#F2F2F2"/>
<rect x="0.968692" width="92.0498" height="92.0498" transform="matrix(0.968692 -0.248265 0.968692 0.248265 899.835 440.478)" stroke="#F2F2F2"/>
<rect x="0.968692" width="92.0498" height="92.0498" transform="matrix(0.968692 -0.248265 0.968692 0.248265 719.874 116.038)" stroke="#F2F2F2"/>
<rect x="0.968692" width="92.0498" height="92.0498" transform="matrix(0.968692 -0.248265 0.968692 0.248265 899.835 116.038)" stroke="#F2F2F2"/>
<rect x="0.968692" width="92.0498" height="92.0498" transform="matrix(0.968692 -0.248265 0.968692 0.248265 719.874 162.387)" stroke="#F2F2F2"/>
<rect x="0.968692" width="92.0498" height="92.0498" transform="matrix(0.968692 -0.248265 0.968692 0.248265 899.835 162.387)" stroke="#F2F2F2"/>
<rect x="0.968692" width="92.0498" height="92.0498" transform="matrix(0.968692 -0.248265 0.968692 0.248265 0.0303276 486.826)" stroke="#F2F2F2"/>
<rect x="0.968692" width="92.0498" height="92.0498" transform="matrix(0.968692 -0.248265 0.968692 0.248265 179.991 486.826)" stroke="#F2F2F2"/>
<rect x="0.968692" width="92.0498" height="92.0498" transform="matrix(0.968692 -0.248265 0.968692 0.248265 0.0303276 533.174)" stroke="#F2F2F2"/>
<rect x="0.968692" width="92.0498" height="92.0498" transform="matrix(0.968692 -0.248265 0.968692 0.248265 179.991 533.174)" stroke="#F2F2F2"/>
<rect x="0.968692" width="92.0498" height="92.0498" transform="matrix(0.968692 -0.248265 0.968692 0.248265 0.0303276 208.735)" stroke="#F2F2F2"/>
<rect x="0.968692" width="92.0498" height="92.0498" transform="matrix(0.968692 -0.248265 0.968692 0.248265 179.991 208.735)" stroke="#F2F2F2"/>
<rect x="0.968692" width="92.0498" height="92.0498" transform="matrix(0.968692 -0.248265 0.968692 0.248265 0.0303276 255.084)" stroke="#F2F2F2"/>
<rect x="0.968692" width="92.0498" height="92.0498" transform="matrix(0.968692 -0.248265 0.968692 0.248265 179.991 255.084)" stroke="#F2F2F2"/>
<rect x="0.968692" width="92.0498" height="92.0498" transform="matrix(0.968692 -0.248265 0.968692 0.248265 719.874 486.826)" stroke="#F2F2F2"/>
<rect x="0.968692" width="92.0498" height="92.0498" transform="matrix(0.968692 -0.248265 0.968692 0.248265 899.835 486.826)" stroke="#F2F2F2"/>
<rect x="0.968692" width="92.0498" height="92.0498" transform="matrix(0.968692 -0.248265 0.968692 0.248265 719.874 533.174)" stroke="#F2F2F2"/>
<rect x="0.968692" width="92.0498" height="92.0498" transform="matrix(0.968692 -0.248265 0.968692 0.248265 899.835 533.174)" stroke="#F2F2F2"/>
<rect x="0.968692" width="92.0498" height="92.0498" transform="matrix(0.968692 -0.248265 0.968692 0.248265 719.874 208.735)" stroke="#F2F2F2"/>
<rect x="0.968692" width="92.0498" height="92.0498" transform="matrix(0.968692 -0.248265 0.968692 0.248265 899.835 208.735)" stroke="#F2F2F2"/>
<rect x="0.968692" width="92.0498" height="92.0498" transform="matrix(0.968692 -0.248265 0.968692 0.248265 719.874 255.084)" stroke="#F2F2F2"/>
<rect x="0.968692" width="92.0498" height="92.0498" transform="matrix(0.968692 -0.248265 0.968692 0.248265 899.835 255.084)" stroke="#F2F2F2"/>
<rect x="0.968692" width="92.0498" height="92.0498" transform="matrix(0.968692 -0.248265 0.968692 0.248265 0.0303276 301.432)" stroke="#F2F2F2"/>
<rect x="0.968692" width="92.0498" height="92.0498" transform="matrix(0.968692 -0.248265 0.968692 0.248265 179.991 301.432)" stroke="#F2F2F2"/>
<rect x="0.968692" width="92.0498" height="92.0498" transform="matrix(0.968692 -0.248265 0.968692 0.248265 0.0303276 347.781)" stroke="#F2F2F2"/>
<rect x="0.968692" width="92.0498" height="92.0498" transform="matrix(0.968692 -0.248265 0.968692 0.248265 179.991 347.781)" stroke="#F2F2F2"/>
<rect x="0.968692" width="92.0498" height="92.0498" transform="matrix(0.968692 -0.248265 0.968692 0.248265 0.0303276 23.3414)" stroke="#F2F2F2"/>
<rect x="0.968692" width="92.0498" height="92.0498" transform="matrix(0.968692 -0.248265 0.968692 0.248265 179.991 23.3414)" stroke="#F2F2F2"/>
<rect x="0.968692" width="92.0498" height="92.0498" transform="matrix(0.968692 -0.248265 0.968692 0.248265 0.0303276 69.6898)" stroke="#F2F2F2"/>
<rect x="0.968692" width="92.0498" height="92.0498" transform="matrix(0.968692 -0.248265 0.968692 0.248265 179.991 69.6898)" stroke="#F2F2F2"/>
<rect x="0.968692" width="92.0498" height="92.0498" transform="matrix(0.968692 -0.248265 0.968692 0.248265 719.874 301.432)" stroke="#F2F2F2"/>
<rect x="0.968692" width="92.0498" height="92.0498" transform="matrix(0.968692 -0.248265 0.968692 0.248265 899.835 301.432)" stroke="#F2F2F2"/>
<rect x="0.968692" width="92.0498" height="92.0498" transform="matrix(0.968692 -0.248265 0.968692 0.248265 719.874 347.78)" stroke="#F2F2F2"/>
<rect x="0.968692" width="92.0498" height="92.0498" transform="matrix(0.968692 -0.248265 0.968692 0.248265 899.835 347.78)" stroke="#F2F2F2"/>
<rect x="0.968692" width="92.0498" height="92.0498" transform="matrix(0.968692 -0.248265 0.968692 0.248265 719.874 23.3414)" stroke="#F2F2F2"/>
<rect x="0.968692" width="92.0498" height="92.0498" transform="matrix(0.968692 -0.248265 0.968692 0.248265 899.835 23.3415)" stroke="#F2F2F2"/>
<rect x="0.968692" width="92.0498" height="92.0498" transform="matrix(0.968692 -0.248265 0.968692 0.248265 719.874 69.6898)" stroke="#F2F2F2"/>
<rect x="0.968692" width="92.0498" height="92.0498" transform="matrix(0.968692 -0.248265 0.968692 0.248265 899.835 69.6898)" stroke="#F2F2F2"/>
<rect x="0.968692" width="92.0498" height="92.0498" transform="matrix(0.968692 -0.248265 0.968692 0.248265 359.952 394.129)" stroke="#F2F2F2"/>
<rect x="0.968692" width="92.0498" height="92.0498" transform="matrix(0.968692 -0.248265 0.968692 0.248265 539.913 394.129)" stroke="#F2F2F2"/>
<rect x="0.968692" width="92.0498" height="92.0498" transform="matrix(0.968692 -0.248265 0.968692 0.248265 359.952 440.478)" stroke="#F2F2F2"/>
<rect x="0.968692" width="92.0498" height="92.0498" transform="matrix(0.968692 -0.248265 0.968692 0.248265 539.913 440.478)" stroke="#F2F2F2"/>
<rect x="0.968692" width="92.0498" height="92.0498" transform="matrix(0.968692 -0.248265 0.968692 0.248265 359.952 116.038)" stroke="#F2F2F2"/>
<rect x="0.968692" width="92.0498" height="92.0498" transform="matrix(0.968692 -0.248265 0.968692 0.248265 539.913 116.038)" stroke="#F2F2F2"/>
<rect x="0.968692" width="92.0498" height="92.0498" transform="matrix(0.968692 -0.248265 0.968692 0.248265 359.952 162.387)" stroke="#F2F2F2"/>
<rect x="0.968692" width="92.0498" height="92.0498" transform="matrix(0.968692 -0.248265 0.968692 0.248265 539.913 162.387)" stroke="#F2F2F2"/>
<rect x="0.968692" width="92.0498" height="92.0498" transform="matrix(0.968692 -0.248265 0.968692 0.248265 1079.8 394.129)" stroke="#F2F2F2"/>
<rect x="0.968692" width="92.0498" height="92.0498" transform="matrix(0.968692 -0.248265 0.968692 0.248265 1259.76 394.129)" stroke="#F2F2F2"/>
<rect x="0.968692" width="92.0498" height="92.0498" transform="matrix(0.968692 -0.248265 0.968692 0.248265 1079.8 440.478)" stroke="#F2F2F2"/>
<rect x="0.968692" width="92.0498" height="92.0498" transform="matrix(0.968692 -0.248265 0.968692 0.248265 1259.76 440.478)" stroke="#F2F2F2"/>
<rect x="0.968692" width="92.0498" height="92.0498" transform="matrix(0.968692 -0.248265 0.968692 0.248265 1079.8 116.038)" stroke="#F2F2F2"/>
<rect x="0.968692" width="92.0498" height="92.0498" transform="matrix(0.968692 -0.248265 0.968692 0.248265 1259.76 116.038)" stroke="#F2F2F2"/>
<rect x="0.968692" width="92.0498" height="92.0498" transform="matrix(0.968692 -0.248265 0.968692 0.248265 1079.8 162.387)" stroke="#F2F2F2"/>
<rect x="0.968692" width="92.0498" height="92.0498" transform="matrix(0.968692 -0.248265 0.968692 0.248265 1259.76 162.387)" stroke="#F2F2F2"/>
<rect x="0.968692" width="92.0498" height="92.0498" transform="matrix(0.968692 -0.248265 0.968692 0.248265 359.952 486.826)" stroke="#F2F2F2"/>
<rect x="0.968692" width="92.0498" height="92.0498" transform="matrix(0.968692 -0.248265 0.968692 0.248265 539.913 486.826)" stroke="#F2F2F2"/>
<rect x="0.968692" width="92.0498" height="92.0498" transform="matrix(0.968692 -0.248265 0.968692 0.248265 359.952 533.174)" stroke="#F2F2F2"/>
<rect x="0.968692" width="92.0498" height="92.0498" transform="matrix(0.968692 -0.248265 0.968692 0.248265 539.913 533.174)" stroke="#F2F2F2"/>
<rect x="0.968692" width="92.0498" height="92.0498" transform="matrix(0.968692 -0.248265 0.968692 0.248265 359.952 208.735)" stroke="#F2F2F2"/>
<rect x="0.968692" width="92.0498" height="92.0498" transform="matrix(0.968692 -0.248265 0.968692 0.248265 539.913 208.735)" stroke="#F2F2F2"/>
<rect x="0.968692" width="92.0498" height="92.0498" transform="matrix(0.968692 -0.248265 0.968692 0.248265 359.952 255.084)" stroke="#F2F2F2"/>
<rect x="0.968692" width="92.0498" height="92.0498" transform="matrix(0.968692 -0.248265 0.968692 0.248265 539.913 255.084)" stroke="#F2F2F2"/>
<rect x="0.968692" width="92.0498" height="92.0498" transform="matrix(0.968692 -0.248265 0.968692 0.248265 1079.8 486.826)" stroke="#F2F2F2"/>
<rect x="0.968692" width="92.0498" height="92.0498" transform="matrix(0.968692 -0.248265 0.968692 0.248265 1259.76 486.826)" stroke="#F2F2F2"/>
<rect x="0.968692" width="92.0498" height="92.0498" transform="matrix(0.968692 -0.248265 0.968692 0.248265 1079.8 533.174)" stroke="#F2F2F2"/>
<rect x="0.968692" width="92.0498" height="92.0498" transform="matrix(0.968692 -0.248265 0.968692 0.248265 1259.76 533.174)" stroke="#F2F2F2"/>
<rect x="0.968692" width="92.0498" height="92.0498" transform="matrix(0.968692 -0.248265 0.968692 0.248265 1079.8 208.735)" stroke="#F2F2F2"/>
<rect x="0.968692" width="92.0498" height="92.0498" transform="matrix(0.968692 -0.248265 0.968692 0.248265 1259.76 208.735)" stroke="#F2F2F2"/>
<rect x="0.968692" width="92.0498" height="92.0498" transform="matrix(0.968692 -0.248265 0.968692 0.248265 1079.8 255.084)" stroke="#F2F2F2"/>
<rect x="0.968692" width="92.0498" height="92.0498" transform="matrix(0.968692 -0.248265 0.968692 0.248265 1259.76 255.084)" stroke="#F2F2F2"/>
<rect x="0.968692" width="92.0498" height="92.0498" transform="matrix(0.968692 -0.248265 0.968692 0.248265 359.952 301.432)" stroke="#F2F2F2"/>
<rect x="0.968692" width="92.0498" height="92.0498" transform="matrix(0.968692 -0.248265 0.968692 0.248265 539.913 301.432)" stroke="#F2F2F2"/>
<rect x="0.968692" width="92.0498" height="92.0498" transform="matrix(0.968692 -0.248265 0.968692 0.248265 359.952 347.78)" stroke="#F2F2F2"/>
<rect x="0.968692" width="92.0498" height="92.0498" transform="matrix(0.968692 -0.248265 0.968692 0.248265 539.913 347.78)" stroke="#F2F2F2"/>
<rect x="0.968692" width="92.0498" height="92.0498" transform="matrix(0.968692 -0.248265 0.968692 0.248265 359.952 23.3414)" stroke="#F2F2F2"/>
<rect x="0.968692" width="92.0498" height="92.0498" transform="matrix(0.968692 -0.248265 0.968692 0.248265 539.913 23.3414)" stroke="#F2F2F2"/>
<rect x="0.968692" width="92.0498" height="92.0498" transform="matrix(0.968692 -0.248265 0.968692 0.248265 359.952 69.6898)" stroke="#F2F2F2"/>
<rect x="0.968692" width="92.0498" height="92.0498" transform="matrix(0.968692 -0.248265 0.968692 0.248265 539.913 69.6898)" stroke="#F2F2F2"/>
<rect x="0.968692" width="92.0498" height="92.0498" transform="matrix(0.968692 -0.248265 0.968692 0.248265 1079.8 301.432)" stroke="#F2F2F2"/>
<rect x="0.968692" width="92.0498" height="92.0498" transform="matrix(0.968692 -0.248265 0.968692 0.248265 1259.76 301.432)" stroke="#F2F2F2"/>
<rect x="0.968692" width="92.0498" height="92.0498" transform="matrix(0.968692 -0.248265 0.968692 0.248265 1079.8 347.78)" stroke="#F2F2F2"/>
<rect x="0.968692" width="92.0498" height="92.0498" transform="matrix(0.968692 -0.248265 0.968692 0.248265 1259.76 347.78)" stroke="#F2F2F2"/>
<rect x="0.968692" width="92.0498" height="92.0498" transform="matrix(0.968692 -0.248265 0.968692 0.248265 1079.8 23.3414)" stroke="#F2F2F2"/>
<rect x="0.968692" width="92.0498" height="92.0498" transform="matrix(0.968692 -0.248265 0.968692 0.248265 1259.76 23.3414)" stroke="#F2F2F2"/>
<rect x="0.968692" width="92.0498" height="92.0498" transform="matrix(0.968692 -0.248265 0.968692 0.248265 1079.8 69.6898)" stroke="#F2F2F2"/>
<rect x="0.968692" width="92.0498" height="92.0498" transform="matrix(0.968692 -0.248265 0.968692 0.248265 1259.76 69.6898)" stroke="#F2F2F2"/>
<rect x="0.968692" width="92.0498" height="92.0498" transform="matrix(0.968692 -0.248265 0.968692 0.248265 0.0303276 417.095)" stroke="#F2F2F2"/>
<rect x="0.968692" width="92.0498" height="92.0498" transform="matrix(0.968692 -0.248265 0.968692 0.248265 179.991 417.095)" stroke="#F2F2F2"/>
<rect x="0.968692" width="92.0498" height="92.0498" transform="matrix(0.968692 -0.248265 0.968692 0.248265 0.0303276 463.443)" stroke="#F2F2F2"/>
<rect x="0.968692" width="92.0498" height="92.0498" transform="matrix(0.968692 -0.248265 0.968692 0.248265 179.991 463.443)" stroke="#F2F2F2"/>
<rect x="0.968692" width="92.0498" height="92.0498" transform="matrix(0.968692 -0.248265 0.968692 0.248265 0.0303276 139.004)" stroke="#F2F2F2"/>
<rect x="0.968692" width="92.0498" height="92.0498" transform="matrix(0.968692 -0.248265 0.968692 0.248265 179.991 139.004)" stroke="#F2F2F2"/>
<rect x="0.968692" width="92.0498" height="92.0498" transform="matrix(0.968692 -0.248265 0.968692 0.248265 0.0303276 185.352)" stroke="#F2F2F2"/>
<rect x="0.968692" width="92.0498" height="92.0498" transform="matrix(0.968692 -0.248265 0.968692 0.248265 179.991 185.352)" stroke="#F2F2F2"/>
<rect x="0.968692" width="92.0498" height="92.0498" transform="matrix(0.968692 -0.248265 0.968692 0.248265 719.874 417.095)" stroke="#F2F2F2"/>
<rect x="0.968692" width="92.0498" height="92.0498" transform="matrix(0.968692 -0.248265 0.968692 0.248265 899.835 417.094)" stroke="#F2F2F2"/>
<rect x="0.968692" width="92.0498" height="92.0498" transform="matrix(0.968692 -0.248265 0.968692 0.248265 719.874 463.443)" stroke="#F2F2F2"/>
<rect x="0.968692" width="92.0498" height="92.0498" transform="matrix(0.968692 -0.248265 0.968692 0.248265 899.835 463.443)" stroke="#F2F2F2"/>
<rect x="0.968692" width="92.0498" height="92.0498" transform="matrix(0.968692 -0.248265 0.968692 0.248265 719.874 139.004)" stroke="#F2F2F2"/>
<rect x="0.968692" width="92.0498" height="92.0498" transform="matrix(0.968692 -0.248265 0.968692 0.248265 899.835 139.004)" stroke="#F2F2F2"/>
<rect x="0.968692" width="92.0498" height="92.0498" transform="matrix(0.968692 -0.248265 0.968692 0.248265 719.874 185.352)" stroke="#F2F2F2"/>
<rect x="0.968692" width="92.0498" height="92.0498" transform="matrix(0.968692 -0.248265 0.968692 0.248265 899.835 185.352)" stroke="#F2F2F2"/>
<rect x="0.968692" width="92.0498" height="92.0498" transform="matrix(0.968692 -0.248265 0.968692 0.248265 0.0303276 509.791)" stroke="#F2F2F2"/>
<rect x="0.968692" width="92.0498" height="92.0498" transform="matrix(0.968692 -0.248265 0.968692 0.248265 179.991 509.791)" stroke="#F2F2F2"/>
<rect x="0.968692" width="92.0498" height="92.0498" transform="matrix(0.968692 -0.248265 0.968692 0.248265 0.0303276 556.14)" stroke="#F2F2F2"/>
<rect x="0.968692" width="92.0498" height="92.0498" transform="matrix(0.968692 -0.248265 0.968692 0.248265 179.991 556.14)" stroke="#F2F2F2"/>
<rect x="0.968692" width="92.0498" height="92.0498" transform="matrix(0.968692 -0.248265 0.968692 0.248265 0.0303276 231.701)" stroke="#F2F2F2"/>
<rect x="0.968692" width="92.0498" height="92.0498" transform="matrix(0.968692 -0.248265 0.968692 0.248265 179.991 231.701)" stroke="#F2F2F2"/>
<rect x="0.968692" width="92.0498" height="92.0498" transform="matrix(0.968692 -0.248265 0.968692 0.248265 0.0303276 278.049)" stroke="#F2F2F2"/>
<rect x="0.968692" width="92.0498" height="92.0498" transform="matrix(0.968692 -0.248265 0.968692 0.248265 179.991 278.049)" stroke="#F2F2F2"/>
<rect x="0.968692" width="92.0498" height="92.0498" transform="matrix(0.968692 -0.248265 0.968692 0.248265 719.874 509.791)" stroke="#F2F2F2"/>
<rect x="0.968692" width="92.0498" height="92.0498" transform="matrix(0.968692 -0.248265 0.968692 0.248265 899.835 509.791)" stroke="#F2F2F2"/>
<rect x="0.968692" width="92.0498" height="92.0498" transform="matrix(0.968692 -0.248265 0.968692 0.248265 719.874 556.14)" stroke="#F2F2F2"/>
<rect x="0.968692" width="92.0498" height="92.0498" transform="matrix(0.968692 -0.248265 0.968692 0.248265 899.835 556.14)" stroke="#F2F2F2"/>
<rect x="0.968692" width="92.0498" height="92.0498" transform="matrix(0.968692 -0.248265 0.968692 0.248265 719.874 231.7)" stroke="#F2F2F2"/>
<rect x="0.968692" width="92.0498" height="92.0498" transform="matrix(0.968692 -0.248265 0.968692 0.248265 899.835 231.701)" stroke="#F2F2F2"/>
<rect x="0.968692" width="92.0498" height="92.0498" transform="matrix(0.968692 -0.248265 0.968692 0.248265 719.874 278.049)" stroke="#F2F2F2"/>
<rect x="0.968692" width="92.0498" height="92.0498" transform="matrix(0.968692 -0.248265 0.968692 0.248265 899.835 278.049)" stroke="#F2F2F2"/>
<rect x="0.968692" width="92.0498" height="92.0498" transform="matrix(0.968692 -0.248265 0.968692 0.248265 0.0303276 324.398)" stroke="#F2F2F2"/>
<rect x="0.968692" width="92.0498" height="92.0498" transform="matrix(0.968692 -0.248265 0.968692 0.248265 179.991 324.398)" stroke="#F2F2F2"/>
<rect x="0.968692" width="92.0498" height="92.0498" transform="matrix(0.968692 -0.248265 0.968692 0.248265 0.0303276 370.746)" stroke="#F2F2F2"/>
<rect x="0.968692" width="92.0498" height="92.0498" transform="matrix(0.968692 -0.248265 0.968692 0.248265 179.991 370.746)" stroke="#F2F2F2"/>
<rect x="0.968692" width="92.0498" height="92.0498" transform="matrix(0.968692 -0.248265 0.968692 0.248265 0.0303276 46.3069)" stroke="#F2F2F2"/>
<rect x="0.968692" width="92.0498" height="92.0498" transform="matrix(0.968692 -0.248265 0.968692 0.248265 179.991 46.3069)" stroke="#F2F2F2"/>
<rect x="0.968692" width="92.0498" height="92.0498" transform="matrix(0.968692 -0.248265 0.968692 0.248265 0.0303276 92.6553)" stroke="#F2F2F2"/>
<rect x="0.968692" width="92.0498" height="92.0498" transform="matrix(0.968692 -0.248265 0.968692 0.248265 179.991 92.6553)" stroke="#F2F2F2"/>
<rect x="0.968692" width="92.0498" height="92.0498" transform="matrix(0.968692 -0.248265 0.968692 0.248265 719.874 324.398)" stroke="#F2F2F2"/>
<rect x="0.968692" width="92.0498" height="92.0498" transform="matrix(0.968692 -0.248265 0.968692 0.248265 899.835 324.398)" stroke="#F2F2F2"/>
<rect x="0.968692" width="92.0498" height="92.0498" transform="matrix(0.968692 -0.248265 0.968692 0.248265 719.874 370.746)" stroke="#F2F2F2"/>
<rect x="0.968692" width="92.0498" height="92.0498" transform="matrix(0.968692 -0.248265 0.968692 0.248265 899.835 370.746)" stroke="#F2F2F2"/>
<rect x="0.968692" width="92.0498" height="92.0498" transform="matrix(0.968692 -0.248265 0.968692 0.248265 719.874 46.3069)" stroke="#F2F2F2"/>
<rect x="0.968692" width="92.0498" height="92.0498" transform="matrix(0.968692 -0.248265 0.968692 0.248265 899.835 46.3068)" stroke="#F2F2F2"/>
<rect x="0.968692" width="92.0498" height="92.0498" transform="matrix(0.968692 -0.248265 0.968692 0.248265 719.874 92.6553)" stroke="#F2F2F2"/>
<rect x="0.968692" width="92.0498" height="92.0498" transform="matrix(0.968692 -0.248265 0.968692 0.248265 899.835 92.6553)" stroke="#F2F2F2"/>
<rect x="0.968692" width="92.0498" height="92.0498" transform="matrix(0.968692 -0.248265 0.968692 0.248265 359.952 417.095)" stroke="#F2F2F2"/>
<rect x="0.968692" width="92.0498" height="92.0498" transform="matrix(0.968692 -0.248265 0.968692 0.248265 539.913 417.095)" stroke="#F2F2F2"/>
<rect x="0.968692" width="92.0498" height="92.0498" transform="matrix(0.968692 -0.248265 0.968692 0.248265 359.952 463.443)" stroke="#F2F2F2"/>
<rect x="0.968692" width="92.0498" height="92.0498" transform="matrix(0.968692 -0.248265 0.968692 0.248265 539.913 463.443)" stroke="#F2F2F2"/>
<rect x="0.968692" width="92.0498" height="92.0498" transform="matrix(0.968692 -0.248265 0.968692 0.248265 359.952 139.004)" stroke="#F2F2F2"/>
<rect x="0.968692" width="92.0498" height="92.0498" transform="matrix(0.968692 -0.248265 0.968692 0.248265 539.913 139.004)" stroke="#F2F2F2"/>
<rect x="0.968692" width="92.0498" height="92.0498" transform="matrix(0.968692 -0.248265 0.968692 0.248265 359.952 185.352)" stroke="#F2F2F2"/>
<rect x="0.968692" width="92.0498" height="92.0498" transform="matrix(0.968692 -0.248265 0.968692 0.248265 539.913 185.352)" stroke="#F2F2F2"/>
<rect x="0.968692" width="92.0498" height="92.0498" transform="matrix(0.968692 -0.248265 0.968692 0.248265 1079.8 417.094)" stroke="#F2F2F2"/>
<rect x="0.968692" width="92.0498" height="92.0498" transform="matrix(0.968692 -0.248265 0.968692 0.248265 1259.76 417.095)" stroke="#F2F2F2"/>
<rect x="0.968692" width="92.0498" height="92.0498" transform="matrix(0.968692 -0.248265 0.968692 0.248265 1079.8 463.443)" stroke="#F2F2F2"/>
<rect x="0.968692" width="92.0498" height="92.0498" transform="matrix(0.968692 -0.248265 0.968692 0.248265 1259.76 463.443)" stroke="#F2F2F2"/>
<rect x="0.968692" width="92.0498" height="92.0498" transform="matrix(0.968692 -0.248265 0.968692 0.248265 1079.8 139.004)" stroke="#F2F2F2"/>
<rect x="0.968692" width="92.0498" height="92.0498" transform="matrix(0.968692 -0.248265 0.968692 0.248265 1259.76 139.004)" stroke="#F2F2F2"/>
<rect x="0.968692" width="92.0498" height="92.0498" transform="matrix(0.968692 -0.248265 0.968692 0.248265 1079.8 185.352)" stroke="#F2F2F2"/>
<rect x="0.968692" width="92.0498" height="92.0498" transform="matrix(0.968692 -0.248265 0.968692 0.248265 1259.76 185.352)" stroke="#F2F2F2"/>
<rect x="0.968692" width="92.0498" height="92.0498" transform="matrix(0.968692 -0.248265 0.968692 0.248265 359.952 509.791)" stroke="#F2F2F2"/>
<rect x="0.968692" width="92.0498" height="92.0498" transform="matrix(0.968692 -0.248265 0.968692 0.248265 539.913 509.791)" stroke="#F2F2F2"/>
<rect x="0.968692" width="92.0498" height="92.0498" transform="matrix(0.968692 -0.248265 0.968692 0.248265 359.952 556.14)" stroke="#F2F2F2"/>
<rect x="0.968692" width="92.0498" height="92.0498" transform="matrix(0.968692 -0.248265 0.968692 0.248265 539.913 556.14)" stroke="#F2F2F2"/>
<rect x="0.968692" width="92.0498" height="92.0498" transform="matrix(0.968692 -0.248265 0.968692 0.248265 359.952 231.701)" stroke="#F2F2F2"/>
<rect x="0.968692" width="92.0498" height="92.0498" transform="matrix(0.968692 -0.248265 0.968692 0.248265 539.913 231.701)" stroke="#F2F2F2"/>
<rect x="0.968692" width="92.0498" height="92.0498" transform="matrix(0.968692 -0.248265 0.968692 0.248265 359.952 278.049)" stroke="#F2F2F2"/>
<rect x="0.968692" width="92.0498" height="92.0498" transform="matrix(0.968692 -0.248265 0.968692 0.248265 539.913 278.049)" stroke="#F2F2F2"/>
<rect x="0.968692" width="92.0498" height="92.0498" transform="matrix(0.968692 -0.248265 0.968692 0.248265 1079.8 509.791)" stroke="#F2F2F2"/>
<rect x="0.968692" width="92.0498" height="92.0498" transform="matrix(0.968692 -0.248265 0.968692 0.248265 1259.76 509.791)" stroke="#F2F2F2"/>
<rect x="0.968692" width="92.0498" height="92.0498" transform="matrix(0.968692 -0.248265 0.968692 0.248265 1079.8 556.14)" stroke="#F2F2F2"/>
<rect x="0.968692" width="92.0498" height="92.0498" transform="matrix(0.968692 -0.248265 0.968692 0.248265 1259.76 556.14)" stroke="#F2F2F2"/>
<rect x="0.968692" width="92.0498" height="92.0498" transform="matrix(0.968692 -0.248265 0.968692 0.248265 1079.8 231.701)" stroke="#F2F2F2"/>
<rect x="0.968692" width="92.0498" height="92.0498" transform="matrix(0.968692 -0.248265 0.968692 0.248265 1259.76 231.701)" stroke="#F2F2F2"/>
<rect x="0.968692" width="92.0498" height="92.0498" transform="matrix(0.968692 -0.248265 0.968692 0.248265 1079.8 278.049)" stroke="#F2F2F2"/>
<rect x="0.968692" width="92.0498" height="92.0498" transform="matrix(0.968692 -0.248265 0.968692 0.248265 1259.76 278.049)" stroke="#F2F2F2"/>
<rect x="0.968692" width="92.0498" height="92.0498" transform="matrix(0.968692 -0.248265 0.968692 0.248265 359.952 324.398)" stroke="#F2F2F2"/>
<rect x="0.968692" width="92.0498" height="92.0498" transform="matrix(0.968692 -0.248265 0.968692 0.248265 539.913 324.398)" stroke="#F2F2F2"/>
<rect x="0.968692" width="92.0498" height="92.0498" transform="matrix(0.968692 -0.248265 0.968692 0.248265 359.952 370.746)" stroke="#F2F2F2"/>
<rect x="0.968692" width="92.0498" height="92.0498" transform="matrix(0.968692 -0.248265 0.968692 0.248265 539.913 370.746)" stroke="#F2F2F2"/>
<rect x="0.968692" width="92.0498" height="92.0498" transform="matrix(0.968692 -0.248265 0.968692 0.248265 359.952 46.3069)" stroke="#F2F2F2"/>
<rect x="0.968692" width="92.0498" height="92.0498" transform="matrix(0.968692 -0.248265 0.968692 0.248265 539.913 46.3069)" stroke="#F2F2F2"/>
<rect x="0.968692" width="92.0498" height="92.0498" transform="matrix(0.968692 -0.248265 0.968692 0.248265 359.952 92.6553)" stroke="#F2F2F2"/>
<rect x="0.968692" width="92.0498" height="92.0498" transform="matrix(0.968692 -0.248265 0.968692 0.248265 539.913 92.6553)" stroke="#F2F2F2"/>
<rect x="0.968692" width="92.0498" height="92.0498" transform="matrix(0.968692 -0.248265 0.968692 0.248265 1079.8 324.398)" stroke="#F2F2F2"/>
<rect x="0.968692" width="92.0498" height="92.0498" transform="matrix(0.968692 -0.248265 0.968692 0.248265 1259.76 324.398)" stroke="#F2F2F2"/>
<rect x="0.968692" width="92.0498" height="92.0498" transform="matrix(0.968692 -0.248265 0.968692 0.248265 1079.8 370.746)" stroke="#F2F2F2"/>
<rect x="0.968692" width="92.0498" height="92.0498" transform="matrix(0.968692 -0.248265 0.968692 0.248265 1259.76 370.746)" stroke="#F2F2F2"/>
<rect x="0.968692" width="92.0498" height="92.0498" transform="matrix(0.968692 -0.248265 0.968692 0.248265 1079.8 46.3069)" stroke="#F2F2F2"/>
<rect x="0.968692" width="92.0498" height="92.0498" transform="matrix(0.968692 -0.248265 0.968692 0.248265 1259.76 46.3069)" stroke="#F2F2F2"/>
<rect x="0.968692" width="92.0498" height="92.0498" transform="matrix(0.968692 -0.248265 0.968692 0.248265 1079.8 92.6553)" stroke="#F2F2F2"/>
<rect x="0.968692" width="92.0498" height="92.0498" transform="matrix(0.968692 -0.248265 0.968692 0.248265 1259.76 92.6553)" stroke="#F2F2F2"/>
</g>
<rect x="123.606" y="668.835" width="46.1382" height="38.8699" transform="rotate(-30 123.606 668.835)" fill="#2B2B2B"/>
<path d="M141.482 651.821C151.119 668.512 160.21 692.636 143.891 702.057C127.573 711.479 108.899 690.683 100.217 675.646C93.4454 663.916 94.6735 640.909 106.069 634.33C117.464 627.751 134.71 640.092 141.482 651.821Z" fill="white"/>
<path d="M141.482 651.821C151.119 668.512 160.21 692.636 143.891 702.057C127.573 711.479 108.899 690.683 100.217 675.646C93.4454 663.916 94.6735 640.909 106.069 634.33C117.464 627.751 134.71 640.092 141.482 651.821Z" fill="black"/>
<path d="M133.19 664.017C137.289 671.116 141.075 681.423 133.768 685.641C126.462 689.86 118.408 681.079 114.715 674.684C111.835 669.695 112.601 659.769 117.703 656.823C122.805 653.878 130.31 659.028 133.19 664.017Z" fill="white"/>
<path d="M133.19 664.017C137.289 671.116 141.075 681.423 133.768 685.641C126.462 689.86 118.408 681.079 114.715 674.684C111.835 669.695 112.601 659.769 117.703 656.823C122.805 653.878 130.31 659.028 133.19 664.017Z" fill="white"/>
<path d="M261.448 478.758L144.579 545.204L96.983 517.4C79.2642 507.221 62.8962 508.132 58.3408 508.918L164.371 449.069C187.462 435.875 201.6 443.414 211.496 449.069L261.448 478.758Z" fill="#3F5CC2"/>
<path d="M145.05 544.295L261.919 475.931V596.565L145.05 665.372V544.295Z" fill="#132152"/>
<rect x="36.7207" y="599" width="16" height="18" rx="2" fill="#F2F2F2"/>
<path d="M44.2209 551.5L49.2209 549L51.2207 547.5V551.5L44.2209 554.5V567L51.2207 564.5V567L49.2209 568.5C47.5542 568.5 44.2209 569 44.2209 571C44.2209 573 42.8874 575.5 42.2207 576.5C40.7208 577.5 37.3208 579.5 35.7207 579.5C34.1206 579.5 32.0541 577.5 31.2209 576.5C31.0542 572.333 30.8209 563 31.2209 559C31.7209 554 32.7209 553 37.7209 549C41.7209 545.8 43.7209 546.667 44.2209 547.5V551.5Z" fill="#333333" stroke="#333333"/>
<path d="M37.028 555.949L41.7207 553V570.695C41.7207 572.661 40.3798 573.153 39.7093 573.153C35.9552 575.512 35.0168 575.119 35.0168 574.627C34.7934 570.859 34.4805 562.634 35.0168 559.881C35.5531 557.129 36.5811 556.113 37.028 555.949Z" fill="white"/>
<path d="M43.3493 526.352C61.2752 482.141 99.8345 521.117 146.05 544.261L145.841 664.49L139.514 656.717C109.638 620.347 91.3388 646.847 99.2747 669.991C99.8989 671.812 100.675 674.666 100.675 676.604C98.8079 681.327 94.3883 676.24 92.3654 674.666L45.6833 647.27C40.0814 646.137 38.0586 635.777 37.7474 630.738C37.2806 626.96 36.4403 619.024 36.8138 617.513C37.1872 616.001 39.1479 615.624 40.0815 615.624C47.9241 607.31 43.3493 601.453 40.0815 599.564V585.866C40.0815 583.977 41.3264 583.19 41.9488 583.032C47.5507 581.899 49.2623 578.781 49.4179 577.364V534.854C49.4179 531.075 45.839 527.611 43.3493 526.352Z" fill="#293B7A"/>
<path d="M57.7207 549.423C57.7207 545.627 61.7831 543.216 65.115 545.033L110.115 569.579C111.721 570.455 112.721 572.138 112.721 573.968V608.606C112.721 612.275 108.901 614.694 105.584 613.126L60.5838 591.853C58.8356 591.027 57.7207 589.267 57.7207 587.333V549.423Z" fill="#607AD6"/>
<path d="M63.7207 544.5L110.099 569.582C111.714 570.456 112.721 572.144 112.721 573.98V609.5L67.0791 588.326C65.3325 587.516 64.2063 585.775 64.1836 583.849L63.7207 544.5Z" fill="#A0B3F6"/>
<path d="M436 809L159.5 651V695.5L436 857V809Z" fill="#293B7A"/>
<path d="M437.721 693.65L158.721 531L159.719 652.296L437.721 811V693.65Z" fill="#C2CCDA"/>
<path d="M557.721 624L277.747 463.207L158.721 531L436.337 693.51L557.721 624Z" fill="#F2F2F2"/>
<line x1="1.5" y1="-1.5" x2="18.2298" y2="-1.5" transform="matrix(0.866026 0.499999 -0.500001 0.866025 94.7295 623.984)" stroke="#4F4F4F" stroke-width="3" stroke-linecap="round"/>
<line x1="97.8357" y1="626.334" x2="107.276" y2="631.785" stroke="#E8E8E8" stroke-width="3" stroke-linecap="round"/>
<path d="M119.405 546.776C118.405 548.776 117.341 548.702 115.906 547.874C114.471 547.045 113.406 545.776 114.405 543.776C115.405 541.776 117.471 541.849 118.906 542.678C120.341 543.506 120.405 544.776 119.405 546.776Z" fill="#FFBA07"/>
<path d="M65.4053 518.776C64.4054 520.776 63.3406 520.702 61.9057 519.874C60.4709 519.045 59.4057 517.776 60.4055 515.776C61.4053 513.776 63.4709 513.849 64.9057 514.678C66.3406 515.506 66.4053 516.776 65.4053 518.776Z" fill="#FFBA07"/>
<path d="M396.864 372.29L419.484 386.427L263.973 476.435C258.318 483.221 257.847 489.63 258.318 491.986L259.26 844.478C252.349 840.08 234.096 830.247 231.457 829.87C228.818 829.493 228.472 823.744 228.63 820.916V470.78C230.138 461.355 237.426 456.172 240.882 454.758L384.612 372.29C389.89 368.143 394.979 370.562 396.864 372.29Z" fill="url(#paint0_linear)"/>
<path fill-rule="evenodd" clip-rule="evenodd" d="M259.735 477.844C258.275 478.685 257.375 480.242 257.375 481.927V840.561C257.375 844.188 261.301 846.455 264.442 844.643L340.786 800.609L421.838 753.858C423.297 753.016 424.196 751.459 424.196 749.774L424.071 391.28C424.069 387.655 420.146 385.389 417.005 387.199L259.735 477.844ZM262.563 483.02C261.103 483.861 260.203 485.418 260.203 487.104V833.023C260.203 836.65 264.127 838.917 267.269 837.106L419.009 749.629C420.469 748.787 421.369 747.23 421.368 745.545L421.248 399.76C421.246 396.136 417.324 393.869 414.183 395.679L262.563 483.02Z" fill="#A4B0DB"/>
<path d="M412.5 396.5L287.5 468.5L421.5 546V401.323C421.5 393.5 416.5 394 412.5 396.5Z" fill="url(#paint1_linear)"/>
<path d="M232.872 523.156C232.872 517.986 238.549 514.825 242.944 517.548C244.885 518.751 246.066 520.873 246.066 523.156V584.282C246.066 589.453 240.389 592.614 235.994 589.891C234.053 588.688 232.872 586.566 232.872 584.282V523.156Z" fill="#E3E5EC"/>
<path d="M232.871 522.576C232.871 518.537 237.62 516.37 240.672 519.017C241.703 519.912 242.296 521.21 242.296 522.576V586.748C242.296 590.787 237.547 592.954 234.496 590.308C233.464 589.413 232.871 588.114 232.871 586.748V522.576Z" fill="#A4B0DB"/>
<path d="M232.872 607.693C232.872 603.044 237.551 599.853 241.879 601.551C244.405 602.543 246.066 604.979 246.066 607.693V642.062C246.066 646.711 241.387 649.902 237.059 648.204C234.533 647.213 232.872 644.776 232.872 642.062V607.693Z" fill="#E3E5EC"/>
<path d="M232.871 606.925C232.871 603.342 236.712 601.069 239.853 602.795C241.36 603.623 242.296 605.206 242.296 606.925V644.715C242.296 648.299 238.455 650.571 235.314 648.846C233.808 648.018 232.871 646.435 232.871 644.715V606.925Z" fill="#A4B0DB"/>
<path d="M400 791.5C415 812 412 830.5 396.171 843C383.374 851.681 365.181 837.297 356.5 824.5C347.819 811.703 343.703 788.681 356.5 780C372.5 769.146 391.319 778.703 400 791.5Z" fill="#333333"/>
<path d="M384 805.5C389 814.5 390.232 824.434 384 828C377.768 831.566 367.022 823.428 363.456 817.196C359.891 810.965 358.768 799.066 365 795.5C371.232 791.934 379 796.5 384 805.5Z" fill="#F2F2F2"/>
<path d="M435.867 694.118L557.721 624L557.721 741L435.721 811L435.867 694.118Z" fill="#898989"/>
<path d="M440.396 722.721L479 700.5L555 737L440.396 803.203L440.396 722.721Z" fill="#333333"/>
<path d="M479 700.5L555 656.579L555 737L479 700.5Z" fill="#4F4F4F"/>
<path d="M473.447 651.553L529.74 619.05L529.567 728.124L473.556 760.346L473.447 651.553Z" fill="#D4AA79"/>
<path d="M416.282 619.243L473.449 653.599V759.709L416.282 726.479V619.243Z" fill="#9D734F"/>
<path d="M530.593 619.525L473.45 590L416.001 619.525L473.45 653.6L530.593 619.525Z" fill="#E9BD99"/>
<path d="M437.719 648.003V632.798L444.235 636.056V652.347L437.719 648.003Z" fill="#E0CFBE"/>
<path d="M437.719 633.146L494.78 601.254L501.942 604.324L443.745 636.159L437.719 633.146Z" fill="#F9E8DD"/>
<path d="M439.181 713.047L438.68 713.335L438.68 713.913L438.68 722.08L438.68 723.813L440.181 722.945L554.5 656.866L555 656.577L555 656L555 648L555 646.269L553.501 647.134L439.181 713.047Z" fill="#E0E0E0" stroke="#898989" stroke-width="2"/>
<path d="M439.181 703.114L438.68 703.402L438.68 703.98L438.68 712.147L438.68 713.88L440.181 713.012L554.5 646.932L555 646.644L555 646.067L555 638.067L555 636.336L553.501 637.201L439.181 703.114Z" fill="#E0E0E0" stroke="#898989" stroke-width="2"/>
<path d="M439.181 693.114L438.68 693.402L438.68 693.98L438.68 702.147L438.68 703.88L440.181 703.012L554.5 636.932L555 636.644L555 636.067L555 628.067L555 626.336L553.501 627.201L439.181 693.114Z" fill="#E0E0E0" stroke="#898989" stroke-width="2"/>
<line x1="1.5" y1="-1.5" x2="2.10555" y2="-1.5" transform="matrix(0.866023 -0.500004 0.499996 0.866028 497 687.803)" stroke="black" stroke-width="3" stroke-linecap="round"/>
<path d="M438.08 805.856L438.219 694.741L555.075 627.499L555.075 738.728L438.08 805.856Z" stroke="#898989" stroke-width="5"/>
<path d="M260.221 591L435.867 694.118L435.721 811L260.221 709.5V591Z" fill="#C2CCDA"/>
<path d="M557.721 624L348.215 504.205L288.221 468.5L261.721 483.5C261.721 483.5 260.864 484.213 260.721 484.5C260.471 485 260.221 486 260.221 486L260.221 591L435.867 694.118L557.721 624Z" fill="#F9FAFE"/>
<path d="M435.5 811L557.721 741L558.123 787.077L436 857L435.5 811Z" fill="#3F5CC2"/>
<path d="M260.221 708.5L435.5 811L436 857L402 837C402 837 405 793.164 375 779.5C345 765.836 348.964 806 348.964 806L260.221 754V708.5Z" fill="#293B7A"/>
<path d="M453 815.5C453 812.961 451.402 810.697 449.009 809.847C445.103 808.458 441 811.355 441 815.5V836.218C441 840.377 445.127 843.274 449.039 841.861C451.416 841.002 453 838.746 453 836.218V815.5Z" fill="#923531"/>
<path d="M453 815.646C453 812.932 450.834 810.713 448.12 810.647C445.313 810.58 443 812.837 443 815.646V837.116C443 840.962 447.162 843.368 450.495 841.449C452.045 840.556 453 838.904 453 837.116V815.646Z" fill="#FF523E"/>
<path d="M557 755.5C557 752.961 555.402 750.697 553.009 749.847C549.103 748.458 545 751.355 545 755.5V776.218C545 780.377 549.127 783.274 553.039 781.861C555.416 781.002 557 778.746 557 776.218V755.5Z" fill="#923531"/>
<path d="M557 755.646C557 752.932 554.834 750.713 552.12 750.647C549.313 750.58 547 752.837 547 755.646V777.116C547 780.962 551.162 783.368 554.495 781.449C556.045 780.556 557 778.904 557 777.116V755.646Z" fill="#FF523E"/>
<path d="M487 804L522.5 784.5L522.5 795L487 814.66L487 804Z" fill="#F2F2F2"/>
<path d="M423 813.5C422 815.5 420.935 815.426 419.5 814.598C418.066 813.769 417 812.5 418 810.5C419 808.5 421.066 808.573 422.5 809.402C423.935 810.23 424 811.5 423 813.5Z" fill="#FFBA07"/>
<path fill-rule="evenodd" clip-rule="evenodd" d="M770.208 727.926C767.478 729.573 764.796 730.369 763.537 730.044C760.38 729.229 760.09 717.672 762.532 713.116C764.975 708.56 777.533 706.574 778.166 715.601C778.385 718.734 777.071 721.53 775.128 723.812L778.611 740.057H768.495L770.208 727.926Z" fill="#CEA885"/>
<path fill-rule="evenodd" clip-rule="evenodd" d="M761.577 715.162C761.678 714.571 761.922 713.915 762.12 713.357C762.375 712.636 762.76 711.987 763.185 711.375C763.984 710.223 764.942 709.182 766 708.318C767.932 706.741 770.393 705.831 772.812 706.126C774.033 706.275 775.219 706.742 776.228 707.518C777.14 708.219 778.017 709.251 779.198 709.325C780.483 709.406 781.66 708.271 782.691 707.57C783.852 706.78 785.088 706.205 786.446 705.981C788.721 705.606 790.857 706.375 792.425 708.243C794.093 710.23 795.306 713.144 794.21 715.777C794.007 716.267 793.745 716.679 793.369 717.021C793.024 717.335 792.497 717.669 792.358 718.17C792.209 718.702 792.653 719.39 792.825 719.87C793.071 720.559 793.273 721.282 793.201 722.03C793.083 723.259 792.311 724.433 791.496 725.241C790.667 726.063 789.646 726.534 788.556 726.751C787.827 726.897 787.083 726.977 786.343 726.922C785.976 726.895 785.652 726.793 785.296 726.712C784.95 726.633 782.984 732.208 782.691 732.398C780.439 734.462 777.443 734.462 777.443 734.462C777.443 734.462 767.877 734.837 768.624 729.021C769.371 723.205 774.931 724.255 775.214 722.763C774.914 722.912 774.083 723.004 774.58 722.411C774.776 722.176 775.148 722.08 775.4 721.942C775.694 721.781 775.992 721.573 776.22 721.31C777.141 720.25 776.211 718.092 775.053 717.737C773.333 717.208 772.948 719.643 771.72 720.272C771.014 720.634 770.276 720.139 769.747 719.634C769.038 718.957 768.555 718.06 768.138 717.148C767.795 716.396 767.475 715.634 767.125 714.887C766.962 714.537 766.396 713.55 766.68 713.156C765.448 712.91 764.076 713.422 763.015 714.094C762.576 714.372 762.242 714.678 762.008 715.168C761.958 715.273 761.849 715.586 761.712 715.598C761.457 715.622 761.552 715.31 761.577 715.162Z" fill="#191847"/>
<path d="M790.201 820.604L790.345 777L773.541 782.19L788.268 851.551C788.125 855.548 790.526 857.236 791.833 858.156L791.872 858.183L795.188 854.696L790.201 820.604Z" fill="#CEA885"/>
<path fill-rule="evenodd" clip-rule="evenodd" d="M777.079 785.399L776.935 829.003L781.478 861.835C780.138 862.193 779.733 865.481 778.898 866.401C778.349 867.006 774.541 866.284 772.122 864.383C770.898 863.421 770.459 861.539 770.103 860.634C769.815 857.895 774.429 859.094 774.573 859.048L759.257 782.04L777.079 785.399Z" fill="#CEA885"/>
<path d="M785.098 850.831C786.482 851.638 787.645 851.455 788.27 851.407C788.039 854.868 791.105 857.559 792.451 858.328C788.99 858.04 788.27 857.319 785.098 855.444C781.926 853.57 783.368 849.821 785.098 850.831Z" fill="#CEA885"/>
<path d="M777.456 868.421C779.763 869.689 781.878 868.949 782.647 868.421C784.723 864.845 782.743 862.509 781.493 861.789C779.187 862.365 778.37 864.48 777.745 865.537C773.449 864.249 771.232 863.221 771.257 861.789C772.017 860.041 772.906 859.642 774.429 859.049C771.891 856.165 767.854 857.175 767.076 858.472C764.653 862.509 773.131 866.643 777.456 868.421Z" fill="#E3E3E3"/>
<path d="M791.146 860.765C793.453 862.034 795.567 861.294 796.336 860.765C798.412 857.189 796.432 854.854 795.183 854.133C792.876 854.71 792.497 856.55 791.872 857.607C786.495 856.195 784.866 855.316 785.379 853.556L788.118 851.393C785.581 848.51 781.544 849.519 780.765 850.817C778.343 854.854 786.821 858.987 791.146 860.765Z" fill="#E3E3E3"/>
<path fill-rule="evenodd" clip-rule="evenodd" d="M769.188 778.742L775.204 814.391H793.579L790.839 778.742H769.188Z" fill="#55B06E"/>
<path fill-rule="evenodd" clip-rule="evenodd" d="M762.619 778.742C759.659 792.205 761.495 814.391 761.495 814.391H780.184L785.324 778.742H762.619Z" fill="#6CD98B"/>
<path fill-rule="evenodd" clip-rule="evenodd" d="M769.36 760.929C769.36 760.929 751.532 753.881 750.69 753.412C749.848 752.942 748.461 751.158 748.461 751.158C748.461 751.158 744.679 747.888 743.153 747.884C739.338 747.874 748.825 752.285 740.551 748.409C732.278 744.532 740.685 752.96 741.587 754.272C742.488 755.585 747.594 756.165 749.205 757.191C750.279 757.874 768.158 767.269 768.158 767.269L769.36 760.929Z" fill="#CEA885"/>
<path fill-rule="evenodd" clip-rule="evenodd" d="M782.799 766.07C784.87 763.964 784.989 762.833 781.224 760.997C772.386 760.861 763.373 758.169 754.186 752.921L749.375 761.381C761.217 765.613 773.42 769.979 782.799 766.07Z" fill="#191847"/>
<path fill-rule="evenodd" clip-rule="evenodd" d="M796.999 818L757.5 821.5C757.5 821.5 767.155 745.075 766.27 736.056L777.287 735.498C777.287 735.498 778.982 735.203 779.812 735.067L780.276 735.007C786.445 743.352 794.095 803.276 796.999 818Z" fill="#2F3676"/>
<path fill-rule="evenodd" clip-rule="evenodd" d="M764.727 768.467C764.727 768.467 761.014 787.275 760.704 788.188C760.395 789.101 758.89 790.786 758.89 790.786C758.89 790.786 756.357 795.097 756.628 796.599C757.307 800.353 759.933 790.225 757.615 799.063C755.296 807.9 762.067 798.11 763.195 796.986C764.323 795.862 763.972 790.735 764.689 788.966C765.168 787.786 771.18 768.505 771.18 768.505L764.727 768.467Z" fill="#CEA885"/>
<path fill-rule="evenodd" clip-rule="evenodd" d="M775.588 741.492C775.588 741.492 775.908 761.276 768.942 789.051L758.004 785.222C767.636 763.154 767.824 741.655 767.824 741.655C770.697 738.714 772.418 739.093 775.588 741.492Z" fill="#4E55A5"/>
<path fill-rule="evenodd" clip-rule="evenodd" d="M700.22 689.436C703.011 691.118 705.754 691.931 707.041 691.599C710.27 690.767 710.567 678.957 708.069 674.301C705.571 669.644 692.729 667.615 692.082 676.84C691.857 680.042 693.201 682.899 695.188 685.231L691.626 701.832H701.972L700.22 689.436Z" fill="#CEA885"/>
<path fill-rule="evenodd" clip-rule="evenodd" d="M699.325 674.686C697.867 675.456 696.849 676.952 695.617 678.929C695.324 678.813 695.005 678.75 694.671 678.75C693.242 678.75 692.864 679.65 692.864 681.078C692.864 681.803 695.143 685.327 695.143 685.327C695.143 687.216 693.252 687.343 692.252 686.744C689.365 685.012 685.796 679.021 688.619 674.15C689.399 671.764 691.638 669.072 693.724 668.481C695.414 667.774 699.978 667.671 701.458 668.095C704.361 668.344 709.694 671.818 710.429 672.344C710.429 675.092 703.873 674.758 699.325 674.686Z" fill="#191847"/>
<path fill-rule="evenodd" clip-rule="evenodd" d="M718.128 737.979L720.501 754.873C722.385 758.245 723.664 761.35 724.339 764.187C724.366 764.986 724.084 766.259 722.508 764.373C720.931 762.486 719.188 760.573 718.353 760.915C717.518 761.256 717.838 763.016 716.553 763.315C715.697 763.513 715.543 760.655 716.092 754.74L710.627 741.05L718.128 737.979Z" fill="#CEA885"/>
<path fill-rule="evenodd" clip-rule="evenodd" d="M702.459 692.681L700.557 698.866C700.557 698.866 705.135 731.189 712.609 750.465L720.324 748.83C716.83 732.897 710.071 704.575 710.071 704.575C710.071 704.575 707.243 694.092 702.459 692.681Z" fill="#093061"/>
<path d="M723.884 725.694L703.347 721.209L700.986 727.111C705.393 727.897 715.528 729.613 720.816 730.179C727.425 730.888 727.897 730.652 732.147 733.012C736.396 735.373 738.52 733.72 739.701 733.012C740.881 732.304 743.95 728.999 740.173 729.471C737.151 729.849 734.507 728.842 733.563 728.291C730.541 726.591 725.852 725.852 723.884 725.694Z" fill="#CEA885"/>
<path fill-rule="evenodd" clip-rule="evenodd" d="M684.125 745.489L708.644 747.392C718.634 716.468 705.313 696.963 702.459 692.681H700.08C700.08 692.681 700.556 699.341 700.08 699.341C699.605 699.341 697.702 692.681 697.702 692.681L693.662 692.205C688.758 693.986 688.243 695.43 685.669 697.837C680.959 707.447 685.333 721.881 684.125 745.489Z" fill="#1958A5"/>
<rect width="6.71373" height="11.9395" rx="0.665267" transform="matrix(0.866794 -0.498667 0.866794 0.498667 726.481 727.862)" fill="#333333"/>
<rect width="5.7877" height="10.5828" rx="0.665267" transform="matrix(0.866794 -0.498667 0.866794 0.498667 727.354 727.901)" fill="white"/>
<rect width="2.54659" height="0.814059" rx="0.332633" transform="matrix(0.866794 -0.498667 0.866794 0.498667 728.523 726.958)" fill="#333333"/>
<path d="M726.009 727.819C724.522 728.355 722.872 729.775 722.468 730.179C722.101 729.314 722.359 727.063 726.009 727.819Z" fill="#CEA885"/>
<path fill-rule="evenodd" clip-rule="evenodd" d="M689.501 693.977C689.501 693.977 682.758 695.06 680.855 703.147L688.467 727.886L722.945 733.116L723.897 724.552L700.56 719.799L689.501 693.977Z" fill="#2A6FC3"/>
<path d="M702.801 692.712L700.622 690.393L700.204 692.712L701.827 697.257L702.801 692.712Z" fill="#2A6FC3"/>
<path fill-rule="evenodd" clip-rule="evenodd" d="M688.239 737.733L703.894 781.492L715.317 813.745H723.648L711.51 737.733H688.239Z" fill="#093061"/>
<path fill-rule="evenodd" clip-rule="evenodd" d="M683.998 737.61C683.636 765.878 682.403 781.296 682.024 783.864C681.644 786.432 678.088 804.775 686.114 823.66H693.904C693.904 798.401 695.439 787.657 697.084 783.864C698.73 780.071 703.807 764.653 711.455 737.61H683.998Z" fill="#1958A5"/>
<path d="M739.701 818.619C738.756 815.702 731.608 815.044 725.17 810.517L722.315 798.637H711.373C711.57 801.809 715.508 808.245 712.844 810.517C710.18 812.79 711.734 814.035 712.844 816.106L719.936 818.619L726.717 823.188C726.717 823.188 732.619 825.076 736.16 824.132C739.701 823.188 740.645 821.535 739.701 818.619Z" fill="#191847"/>
<path d="M710.901 834.671C709.957 831.754 702.809 831.096 696.37 826.57L693.516 814.69H682.574C682.77 817.861 686.709 824.297 684.045 826.57C681.381 828.843 682.935 830.088 684.045 832.158L691.137 834.671L697.918 839.24C697.918 839.24 703.819 841.129 707.36 840.184C710.901 839.24 711.845 837.588 710.901 834.671Z" fill="#191847"/>
<path fill-rule="evenodd" clip-rule="evenodd" d="M695.508 677.624C695.508 677.624 696.102 685.899 698.651 685.899C701.2 685.899 705.816 682.731 706.934 682.731C708.776 682.258 709.956 685.191 709.72 685.899L706.934 685.114C705.943 685.899 701.957 687.283 701.957 688.251C701.957 689.219 709.72 686.878 709.72 687.452C709.72 688.401 708.54 692.173 705.631 692.722C700.278 693.732 695.879 691.17 695.06 688.696C694.241 686.221 694.02 678.266 694.02 678.266L695.508 677.624Z" fill="#191847"/>
<path d="M692.737 692.712L694.129 689.466L697.839 692.712V697.35L692.737 692.712Z" fill="#2A6FC3"/>
<path d="M267.5 837L335.5 798L260 754.5L260.5 833C260.394 837.342 265.289 838.334 267.5 837Z" fill="url(#paint2_linear)"/>
<path d="M956 779.424L1268 960.924V621.924L1132.5 406.924C1053.42 463.539 1005.8 505.808 956 508.924V779.424Z" fill="#293B7A"/>
<path d="M1267.5 589.924V959.924L1439.5 873.924V486.924L1267.5 589.924Z" fill="#132152"/>
<path d="M1276.5 637.424L1132 407.424C1222.5 350.424 1311.5 335.424 1440 344.424V546.924L1276.5 637.424Z" fill="#3F5CC2"/>
<path d="M1039 607.424L1149 672.924L1149 913.424L1039 851.424L1039 607.424Z" fill="url(#paint3_linear)"/>
<path fill-rule="evenodd" clip-rule="evenodd" d="M1148.59 668.445C1149.57 669.011 1150.18 670.057 1150.18 671.19V912.359C1150.18 914.798 1147.54 916.323 1145.42 915.104L1094.09 885.493L1039.58 854.055C1038.6 853.489 1038 852.441 1038 851.308L1038.08 610.234C1038.08 607.796 1040.72 606.272 1042.83 607.489L1148.59 668.445ZM1146.69 671.926C1147.67 672.491 1148.28 673.538 1148.28 674.672V907.29C1148.28 909.729 1145.64 911.254 1143.52 910.036L1041.48 851.211C1040.5 850.645 1039.9 849.598 1039.9 848.464L1039.98 615.936C1039.98 613.499 1042.62 611.975 1044.73 613.192L1146.69 671.926Z" fill="#A4B0DB"/>
<path d="M1065.73 791.8L1085.79 782.056C1087.31 781.32 1089.09 781.385 1090.55 782.23L1137.75 809.608C1139.47 810.609 1139.42 813.118 1137.65 814.043L1121.95 822.263C1120.39 823.076 1118.53 823.028 1117.02 822.135L1065.73 791.8Z" fill="#D7D8DF"/>
<path d="M1115.7 822.286L1137.21 810.307C1138.93 809.345 1141.05 810.643 1140.97 812.617L1139.54 849.891C1139.47 851.499 1138.65 852.982 1137.32 853.886L1115.7 868.571L1115.7 822.286Z" fill="#D6D9E4"/>
<path d="M1062.52 795.926C1062.52 791.993 1066.8 789.561 1070.18 791.576L1117.04 819.546C1118.57 820.46 1119.5 822.112 1119.5 823.895L1119.5 863.423C1119.5 867.36 1115.21 869.792 1111.83 867.767L1064.98 839.654C1063.45 838.738 1062.52 837.089 1062.52 835.31L1062.52 795.926Z" fill="#7B94B8"/>
<path d="M967.702 873.083L1061.25 817.917C1062.98 816.895 1065.13 816.901 1066.86 817.934L1120.59 850.06C1122.41 851.145 1122.37 853.788 1120.52 854.818L1028.74 906.015C1027.03 906.968 1024.95 906.941 1023.27 905.946L967.702 873.083Z" fill="#C2CCDA"/>
<path d="M938.93 866.078L958.993 856.333C960.509 855.597 962.291 855.662 963.748 856.508L1010.95 883.885C1012.67 884.886 1012.62 887.395 1010.85 888.32L995.147 896.54C993.593 897.354 991.729 897.305 990.219 896.412L938.93 866.078Z" fill="#D7D8DF"/>
<path d="M988.905 896.564L1010.41 884.584C1012.13 883.623 1014.25 884.92 1014.17 886.894L1012.74 924.168C1012.67 925.776 1011.85 927.259 1010.52 928.164L988.905 942.848L988.905 896.564Z" fill="#D6D9E4"/>
<path d="M935.719 870.203C935.719 866.271 940.004 863.838 943.381 865.853L990.235 893.823C991.767 894.737 992.705 896.389 992.705 898.172L992.704 937.862C992.704 941.764 988.478 944.2 985.101 942.245L938.246 915.123C936.682 914.217 935.719 912.547 935.719 910.739L935.719 870.203Z" fill="#7B94B8"/>
<path d="M987.268 881.286C986.999 881.132 986.998 880.746 987.266 880.59L1127.4 799.357C1128.37 798.794 1129.57 798.795 1130.54 799.36L1157.91 815.275C1158.93 815.873 1158.94 817.357 1157.92 817.969L1022.13 899.376C1021.16 899.957 1019.95 899.97 1018.96 899.408L987.268 881.286Z" fill="#F9FAFE"/>
<path d="M1018.61 900.318L1158.51 816.607L1158.59 878.239C1158.59 879.359 1157.99 880.395 1157.02 880.954L1018.61 960.659L1018.61 900.318Z" fill="#C2CCDA"/>
<path d="M985.756 884.034C985.756 881.605 988.403 880.103 990.489 881.348L1019.43 898.625C1020.38 899.19 1020.96 900.21 1020.96 901.312L1020.96 957.587C1020.96 959.995 1018.35 961.501 1016.26 960.297L987.321 943.591C986.353 943.032 985.756 941.999 985.756 940.881L985.756 884.034Z" fill="#7B94B8"/>
<path d="M1056.38 597.463L1041.16 606.97L1145.74 667.497C1149.54 672.061 1149.86 676.371 1149.54 677.955L1148.91 914.994C1153.56 912.036 1165.83 905.423 1167.61 905.17C1169.38 904.916 1169.61 901.05 1169.51 899.149V663.695C1168.49 657.357 1163.59 653.871 1161.27 652.92L1064.62 597.463C1061.07 594.675 1057.64 596.301 1056.38 597.463Z" fill="url(#paint4_linear)"/>
<path d="M1166.66 755.764C1166.66 752.637 1163.51 750.492 1160.6 751.634C1158.9 752.3 1157.78 753.939 1157.78 755.764V778.876C1157.78 782.002 1160.93 784.148 1163.84 783.006C1165.54 782.339 1166.66 780.701 1166.66 778.876V755.764Z" fill="#E3E5EC"/>
<path d="M1166.66 755.247C1166.66 752.837 1164.07 751.309 1161.96 752.47C1160.95 753.026 1160.32 754.091 1160.32 755.247V780.66C1160.32 783.069 1162.9 784.598 1165.01 783.437C1166.03 782.88 1166.66 781.816 1166.66 780.66V755.247Z" fill="#A4B0DB"/>
<path d="M1166.66 698.916C1166.66 695.439 1162.84 693.313 1159.88 695.145C1158.58 695.954 1157.78 697.38 1157.78 698.916V740.021C1157.78 743.498 1161.6 745.624 1164.56 743.792C1165.86 742.983 1166.66 741.557 1166.66 740.021V698.916Z" fill="#E3E5EC"/>
<path d="M1166.66 698.526C1166.66 695.809 1163.46 694.352 1161.41 696.132C1160.72 696.734 1160.32 697.607 1160.32 698.526V741.679C1160.32 744.395 1163.51 745.852 1165.56 744.073C1166.26 743.471 1166.66 742.597 1166.66 741.679V698.526Z" fill="#A4B0DB"/>
<path d="M937.446 733.553L993.739 701.05L993.566 810.124L937.555 842.346L937.446 733.553Z" fill="#D4AA79"/>
<path d="M880.281 701.242L937.448 735.599V841.709L880.281 808.478V701.242Z" fill="#9D734F"/>
<path d="M994.592 701.525L937.449 672L880 701.525L937.449 735.6L994.592 701.525Z" fill="#E9BD99"/>
<path d="M901.718 730.003V714.798L908.234 718.056V734.347L901.718 730.003Z" fill="#E0CFBE"/>
<path d="M901.718 715.146L958.779 683.254L965.941 686.323L907.744 718.159L901.718 715.146Z" fill="#F9E8DD"/>
<path d="M299.207 911.463L371.836 869.68L371.664 939.578L299.316 981.08L299.207 911.463Z" fill="#D4AA79"/>
<path d="M242.28 877.252L299.205 911.463V980.446L242.28 947.357V877.252Z" fill="#9D734F"/>
<path d="M371.835 869.68L311.027 841L242 877.532L299.206 911.462L371.835 869.68Z" fill="#E9BD99"/>
<path d="M263.628 928.419V890.748L270.117 893.031V931.844L263.628 928.419Z" fill="#E0CFBE"/>
<path d="M263.628 891.097L326.633 855.094L332.633 858.094L269.629 894.097L263.628 891.097Z" fill="#F9E8DD"/>
<path d="M307.051 847.637L354.091 820.575L353.979 865.846L307.121 892.726L307.051 847.637Z" fill="#D4AA79"/>
<path d="M270.181 825.479L307.05 847.637V892.316L270.181 870.884V825.479Z" fill="#A57556"/>
<path d="M354.09 820.575L314.707 802L270 825.661L307.051 847.637L354.09 820.575Z" fill="#E9BD99"/>
<path d="M282.979 850.178V833.677L288.979 836.677V854.679L282.979 850.178Z" fill="#E0CFBE"/>
<path d="M282.979 833.677L326.726 807.652L332.726 810.652L288.979 836.677L282.979 833.677Z" fill="#F9E8DD"/>
<defs>
<linearGradient id="paint0_linear" x1="271.042" y1="460.884" x2="239.939" y2="505.181" gradientUnits="userSpaceOnUse">
<stop stop-color="#96A2CC"/>
<stop offset="0.239538" stop-color="#A6B2DD"/>
<stop offset="0.744445" stop-color="#5E688C"/>
</linearGradient>
<linearGradient id="paint1_linear" x1="398" y1="534.5" x2="472" y2="411" gradientUnits="userSpaceOnUse">
<stop stop-color="#3F55A4"/>
<stop offset="1" stop-color="#607AD6"/>
</linearGradient>
<linearGradient id="paint2_linear" x1="276.697" y1="759.697" x2="233.585" y2="826.512" gradientUnits="userSpaceOnUse">
<stop stop-color="#3F55A4"/>
<stop offset="1" stop-color="#607AD6"/>
</linearGradient>
<linearGradient id="paint3_linear" x1="1136" y1="787.424" x2="1051.5" y2="631.424" gradientUnits="userSpaceOnUse">
<stop offset="0.0213965" stop-color="#293B7A"/>
<stop offset="1" stop-color="#7489D6"/>
</linearGradient>
<linearGradient id="paint4_linear" x1="1140.99" y1="657.04" x2="1161.9" y2="686.828" gradientUnits="userSpaceOnUse">
<stop stop-color="#9EA9D1"/>
<stop offset="0.239538" stop-color="#A6B2DC"/>
<stop offset="0.744445" stop-color="#5F698D"/>
</linearGradient>
</defs>
</svg>
