<svg width="500" height="790" viewBox="0 0 500 790" fill="none" xmlns="http://www.w3.org/2000/svg">
<path d="M289 156L418.518 224.918C500.727 266.485 483.777 283.49 418.518 323.15L323.758 381" stroke="#5B73CB" stroke-width="5" stroke-linejoin="bevel"/>
<path d="M305 147L434.518 215.918C516.726 257.485 514.759 286.34 449.5 326L352.499 386.5" stroke="#5B73CB" stroke-width="5" stroke-linejoin="bevel"/>
<path d="M260 184.5L345.36 235.406C395.465 263.999 386.922 282 348.421 304L116.422 439.5C-55.8359 544 90.1641 688 196.664 749" stroke="#5B73CB" stroke-width="6" stroke-linejoin="bevel"/>
<path d="M272.291 175L377.291 239C416.291 262.5 418.291 284 379.791 306L135.791 447.5C-36.467 552 115.955 684.5 222.455 745.5" stroke="#5B73CB" stroke-width="6" stroke-linejoin="bevel"/>
<rect width="246.125" height="56.2064" transform="matrix(-0.859406 0.511293 0 1 333.434 88.3542)" fill="#293B7A"/>
<path d="M104.302 223.333L51.3494 189.609L0.763675 161.632V238.25L104.302 301.14V223.333Z" fill="#132152"/>
<path d="M147.539 196.93L94.5867 163.206L44.001 135V211.847L147.539 274.737V196.93Z" fill="#132152"/>
<rect width="61.9592" height="78.369" transform="matrix(-0.859406 0.511293 0 1 157.123 190.595)" fill="#22326B"/>
<path d="M333.434 88.1147L226.477 34.4837L44.0015 135L154.756 195.498L333.434 88.1147Z" fill="#3F5CC2"/>
<path d="M157.607 194.39L54.0007 133L0.763607 161.632L104.087 225.004L157.607 194.39Z" fill="#4B69D3"/>
<path d="M109.324 237.172L152.581 212.281L152.581 271.564L109.33 297.415L109.324 237.172Z" fill="#898989"/>
<path d="M110.932 266.259L110.932 250.084L151.616 271.328L110.932 294.829L110.932 266.259Z" fill="#333333"/>
<path d="M151.616 271.328L124.636 257.187L110.81 250.083L110.81 247.421L126.488 238.368L151.616 223.846L151.616 271.328Z" fill="#4F4F4F"/>
<path d="M110.678 244.199L151.261 220.801L151.261 223.641L110.678 247.098L110.678 244.199Z" fill="#E0E0E0"/>
<path d="M110.678 240.673L151.261 217.274L151.261 220.114L110.678 243.572L110.678 240.673Z" fill="#E0E0E0"/>
<path d="M110.678 237.123L151.261 213.724L151.261 216.564L110.678 240.022L110.678 237.123Z" fill="#E0E0E0"/>
<line x1="0.532489" y1="-0.532489" x2="0.747455" y2="-0.532489" transform="matrix(0.866023 -0.500004 0.499996 0.866028 131.026 234.93)" stroke="black" stroke-width="1.06498" stroke-linecap="round"/>
<path d="M166.588 202.576L196.027 185.637L196.027 225.982L166.593 243.575L166.588 202.576Z" fill="#898989"/>
<path d="M167.682 222.371L167.682 211.363L195.37 225.821L167.682 241.815L167.682 222.371Z" fill="#333333"/>
<path d="M195.37 225.822L177.009 216.198L167.599 211.363L167.599 209.551L178.27 203.39L195.37 193.508L195.37 225.822Z" fill="#4F4F4F"/>
<path d="M167.509 207.359L195.128 191.435L195.128 193.368L167.509 209.332L167.509 207.359Z" fill="#E0E0E0"/>
<path d="M167.509 204.96L195.128 189.036L195.128 190.968L167.509 206.933L167.509 204.96Z" fill="#E0E0E0"/>
<path d="M167.509 202.543L195.128 186.619L195.128 188.552L167.509 204.516L167.509 202.543Z" fill="#E0E0E0"/>
<line x1="0.362388" y1="-0.362388" x2="0.508684" y2="-0.362388" transform="matrix(0.866023 -0.500004 0.499996 0.866028 181.357 201.051)" stroke="black" stroke-width="0.724776" stroke-linecap="round"/>
<path d="M209.186 177.136L238.625 160.196L238.625 200.541L209.191 218.134L209.186 177.136Z" fill="#898989"/>
<path d="M210.281 196.931L210.28 185.922L237.968 200.38L210.281 216.374L210.281 196.931Z" fill="#333333"/>
<path d="M237.968 200.381L219.607 190.757L210.198 185.922L210.198 184.111L220.868 177.949L237.968 168.067L237.968 200.381Z" fill="#4F4F4F"/>
<path d="M210.106 181.918L237.725 165.994L237.725 167.927L210.106 183.891L210.106 181.918Z" fill="#E0E0E0"/>
<path d="M210.106 179.519L237.725 163.595L237.725 165.527L210.106 181.492L210.106 179.519Z" fill="#E0E0E0"/>
<path d="M210.106 177.102L237.725 161.178L237.725 163.111L210.106 179.075L210.106 177.102Z" fill="#E0E0E0"/>
<line x1="0.362388" y1="-0.362388" x2="0.508684" y2="-0.362388" transform="matrix(0.866023 -0.500004 0.499996 0.866028 223.954 175.61)" stroke="black" stroke-width="0.724776" stroke-linecap="round"/>
<path d="M251.193 152.286L280.632 135.347L280.632 175.692L251.198 193.285L251.193 152.286Z" fill="#898989"/>
<path d="M252.288 172.081L252.287 161.073L279.975 175.531L252.287 191.525L252.288 172.081Z" fill="#333333"/>
<path d="M279.975 175.531L261.614 165.908L252.205 161.073L252.205 159.261L262.875 153.1L279.975 143.218L279.975 175.531Z" fill="#4F4F4F"/>
<path d="M252.114 157.069L279.733 141.145L279.733 143.078L252.114 159.042L252.114 157.069Z" fill="#E0E0E0"/>
<path d="M252.114 154.67L279.733 138.745L279.733 140.678L252.114 156.643L252.114 154.67Z" fill="#E0E0E0"/>
<path d="M252.114 152.253L279.733 136.329L279.733 138.262L252.114 154.226L252.114 152.253Z" fill="#E0E0E0"/>
<line x1="0.362388" y1="-0.362388" x2="0.508684" y2="-0.362388" transform="matrix(0.866023 -0.500004 0.499996 0.866028 265.962 150.761)" stroke="black" stroke-width="0.724776" stroke-linecap="round"/>
<path d="M292.609 127.437L322.048 110.497L322.048 150.843L292.613 168.436L292.609 127.437Z" fill="#898989"/>
<path d="M293.703 147.232L293.703 136.224L321.39 150.682L293.703 166.676L293.703 147.232Z" fill="#333333"/>
<path d="M321.391 150.682L303.03 141.059L293.62 136.224L293.62 134.412L304.29 128.251L321.391 118.368L321.391 150.682Z" fill="#4F4F4F"/>
<path d="M293.53 132.22L321.149 116.296L321.149 118.228L293.53 134.193L293.53 132.22Z" fill="#E0E0E0"/>
<path d="M293.53 129.82L321.149 113.896L321.149 115.829L293.53 131.793L293.53 129.82Z" fill="#E0E0E0"/>
<path d="M293.53 127.404L321.149 111.48L321.149 113.413L293.53 129.377L293.53 127.404Z" fill="#E0E0E0"/>
<line x1="0.362388" y1="-0.362388" x2="0.508684" y2="-0.362388" transform="matrix(0.866023 -0.500004 0.499996 0.866028 307.378 125.912)" stroke="black" stroke-width="0.724776" stroke-linecap="round"/>
<path d="M283.451 385.937L282.529 386.705L283.912 387.474L284.834 386.705L283.451 385.937Z" fill="#2D2D2E"/>
<path d="M282.528 386.706L283.911 387.474V392.391L282.528 391.777V386.706Z" fill="#4C4C4C"/>
<path d="M294.514 362.679L339.036 337.486L363.777 351.931L319.673 376.98L294.514 362.679Z" fill="#F2F2F2"/>
<path d="M294.778 362.335L320.051 376.781V405.31L294.778 390.611V362.335Z" fill="#898989"/>
<path d="M316.49 403.148V381.788L301.43 387.012L291.441 407.605V424.816L363.052 383.632V380.865L320.024 405.299L316.49 403.148Z" fill="url(#paint0_linear)"/>
<path d="M285.447 378.1L297.895 370.877L316.489 381.788L304.196 388.857L300.968 405.453L291.441 414.366V424.816L273 414.366V406.99V403.456L282.374 394.543L285.447 378.1Z" fill="url(#paint1_linear)"/>
<path d="M302.813 390.24L286.063 380.405L283.758 392.391L300.662 402.072L302.813 390.24Z" fill="url(#paint2_linear)"/>
<path d="M315.568 384.707L305.579 390.24L303.581 401.611L315.568 395.003V384.707Z" fill="url(#paint3_linear)"/>
<path d="M319.673 376.627L363.777 351.578L363.777 380.469L320.134 405.517L319.673 376.627Z" fill="#C2CCDA"/>
<path d="M345.05 392.382C345.05 394.414 343.623 396.885 341.863 397.901C340.103 398.917 340.329 398.734 338.323 396.964C338.205 394.84 340.103 391.559 341.863 390.542C343.623 389.526 345.05 390.35 345.05 392.382Z" fill="#4C4C4C"/>
<path d="M342.467 390.393C342.877 390.291 344.342 390.639 345.08 391.622" stroke="#363636" stroke-width="0.307346"/>
<path d="M339.762 401.366C339.286 401.486 337.642 400.902 336.876 399.46" stroke="#363636" stroke-width="0.307346"/>
<path d="M344.772 393.186C344.772 395.832 342.914 399.05 340.622 400.373C338.331 401.696 338.625 401.458 336.012 399.153C335.859 396.386 338.331 392.114 340.622 390.791C342.914 389.468 344.772 390.54 344.772 393.186Z" fill="#363636"/>
<circle r="4.79104" transform="matrix(0.866025 -0.5 0 1 341.852 396.197)" fill="#535456"/>
<circle r="3.01658" transform="matrix(0.866025 -0.5 0 1 342.159 396.301)" fill="#D1D1D1"/>
<circle r="1.24212" transform="matrix(0.866025 -0.5 0 1 342.159 396.301)" fill="#3A3A3A"/>
<path d="M360.11 383.469C360.11 385.501 358.683 387.972 356.923 388.988C355.164 390.004 355.389 389.821 353.383 388.051C353.265 385.926 355.164 382.645 356.923 381.629C358.683 380.613 360.11 381.437 360.11 383.469Z" fill="#4C4C4C"/>
<path d="M357.526 381.48C357.936 381.378 359.401 381.726 360.139 382.71" stroke="#363636" stroke-width="0.307346"/>
<path d="M354.821 392.453C354.345 392.573 352.701 391.989 351.935 390.547" stroke="#363636" stroke-width="0.307346"/>
<path d="M359.832 384.273C359.832 386.919 357.974 390.137 355.682 391.46C353.391 392.783 353.685 392.545 351.072 390.24C350.919 387.473 353.391 383.201 355.682 381.878C357.974 380.555 359.832 381.627 359.832 384.273Z" fill="#363636"/>
<circle r="4.79104" transform="matrix(0.866025 -0.5 0 1 356.912 387.283)" fill="#535456"/>
<circle r="3.01658" transform="matrix(0.866025 -0.5 0 1 357.219 387.388)" fill="#D1D1D1"/>
<circle r="1.24212" transform="matrix(0.866025 -0.5 0 1 357.219 387.388)" fill="#3A3A3A"/>
<path d="M309.398 413.282C309.398 415.314 307.971 417.785 306.212 418.801C304.452 419.817 304.677 419.634 302.671 417.863C302.553 415.739 304.452 412.458 306.212 411.442C307.971 410.426 309.398 411.25 309.398 413.282Z" fill="#4C4C4C"/>
<path d="M306.815 411.293C307.225 411.19 308.69 411.539 309.428 412.522" stroke="#363636" stroke-width="0.307346"/>
<path d="M304.109 422.266C303.634 422.386 301.99 421.802 301.224 420.36" stroke="#363636" stroke-width="0.307346"/>
<path d="M309.12 414.086C309.12 416.732 307.262 419.95 304.97 421.273C302.679 422.596 302.973 422.357 300.36 420.052C300.207 417.286 302.679 413.014 304.97 411.691C307.262 410.368 309.12 411.44 309.12 414.086Z" fill="#363636"/>
<circle r="4.79104" transform="matrix(0.866025 -0.5 0 1 306.2 417.096)" fill="#535456"/>
<circle r="3.01658" transform="matrix(0.866025 -0.5 0 1 306.507 417.2)" fill="#D1D1D1"/>
<circle r="1.24212" transform="matrix(0.866025 -0.5 0 1 306.507 417.2)" fill="#3A3A3A"/>
<path d="M319.657 376.671L363.761 351.623L363.761 380.513L320.118 405.562L319.657 376.671Z" fill="#C2CCDA"/>
<rect width="4.10706" height="2.05353" transform="matrix(0.859406 0.511293 0 1 286.323 417.594)" fill="#DE9753"/>
<rect width="4.10706" height="2.05353" transform="matrix(0.859406 0.511293 0 1 273.923 410.525)" fill="#DE9753"/>
<rect width="7.29303" height="2.05353" transform="matrix(0.859406 0.511293 0 1 278.486 413.231)" fill="#C4C4C4"/>
<rect width="3.57625" height="1.22938" transform="matrix(0.859406 -0.511293 0 1 305.887 404.977)" fill="#898989"/>
<path d="M305.272 404.378V399.153L306.194 398.539V403.763L305.272 404.378Z" fill="#3A3A3A"/>
<path d="M304.042 397.309L303.12 397.924L305.271 399.153L306.193 398.538L304.042 397.309Z" fill="#303133"/>
<path d="M305.271 399.153L303.12 397.924V403.149L305.271 404.378V399.153Z" fill="#525357"/>
<path d="M266.574 750.937L267.496 751.705L266.113 752.473L265.191 751.705L266.574 750.937Z" fill="#2D2D2E"/>
<path d="M267.497 751.706L266.114 752.474V757.391L267.497 756.777V751.706Z" fill="#4C4C4C"/>
<path d="M255.511 727.679L210.989 702.485L186.248 716.931L230.352 741.979L255.511 727.679Z" fill="#F2F2F2"/>
<path d="M255.247 727.335L229.974 741.781V770.31L255.247 755.611V727.335Z" fill="#898989"/>
<path d="M233.536 768.148V746.788L248.596 752.012L258.584 772.605V789.816L186.973 748.632V745.865L230.001 770.299L233.536 768.148Z" fill="url(#paint4_linear)"/>
<path d="M264.578 743.1L252.13 735.877L233.536 746.788L245.83 753.857L249.057 770.453L258.585 779.366V789.816L277.025 779.366V771.99V768.456L267.651 759.543L264.578 743.1Z" fill="url(#paint5_linear)"/>
<path d="M247.212 755.24L263.963 745.405L266.268 757.391L249.364 767.072L247.212 755.24Z" fill="url(#paint6_linear)"/>
<path d="M234.458 749.707L244.446 755.24L246.444 766.611L234.458 760.003V749.707Z" fill="url(#paint7_linear)"/>
<path d="M230.352 741.627L186.248 716.579L186.248 745.469L229.891 770.518L230.352 741.627Z" fill="#C2CCDA"/>
<path d="M204.976 757.382C204.976 759.415 206.402 761.885 208.162 762.902C209.922 763.918 209.696 763.735 211.703 761.964C211.821 759.84 209.922 756.559 208.162 755.543C206.402 754.527 204.976 755.35 204.976 757.382Z" fill="#4C4C4C"/>
<path d="M207.558 755.393C207.148 755.291 205.683 755.639 204.946 756.623" stroke="#363636" stroke-width="0.307346"/>
<path d="M210.264 766.366C210.739 766.487 212.383 765.902 213.15 764.46" stroke="#363636" stroke-width="0.307346"/>
<path d="M205.254 758.187C205.254 760.833 207.112 764.05 209.403 765.373C211.695 766.696 211.401 766.458 214.013 764.153C214.167 761.387 211.695 757.114 209.403 755.791C207.112 754.468 205.254 755.541 205.254 758.187Z" fill="#363636"/>
<circle r="4.79104" transform="matrix(-0.866025 -0.5 0 1 208.174 761.197)" fill="#535456"/>
<circle r="3.01658" transform="matrix(-0.866025 -0.5 0 1 207.867 761.301)" fill="#D1D1D1"/>
<circle r="1.24212" transform="matrix(-0.866025 -0.5 0 1 207.866 761.301)" fill="#3A3A3A"/>
<path d="M189.915 748.469C189.915 750.501 191.342 752.972 193.102 753.988C194.862 755.004 194.636 754.821 196.642 753.051C196.76 750.926 194.862 747.645 193.102 746.629C191.342 745.613 189.915 746.437 189.915 748.469Z" fill="#4C4C4C"/>
<path d="M192.499 746.48C192.089 746.378 190.624 746.726 189.886 747.71" stroke="#363636" stroke-width="0.307346"/>
<path d="M195.204 757.453C195.68 757.573 197.324 756.989 198.09 755.547" stroke="#363636" stroke-width="0.307346"/>
<path d="M190.194 749.273C190.194 751.919 192.051 755.137 194.343 756.46C196.634 757.783 196.34 757.545 198.953 755.24C199.107 752.473 196.634 748.201 194.343 746.878C192.051 745.555 190.194 746.627 190.194 749.273Z" fill="#363636"/>
<circle r="4.79104" transform="matrix(-0.866025 -0.5 0 1 193.113 752.284)" fill="#535456"/>
<circle r="3.01658" transform="matrix(-0.866025 -0.5 0 1 192.806 752.388)" fill="#D1D1D1"/>
<circle r="1.24212" transform="matrix(-0.866025 -0.5 0 1 192.806 752.388)" fill="#3A3A3A"/>
<path d="M240.627 778.282C240.627 780.314 242.054 782.785 243.814 783.801C245.574 784.817 245.348 784.634 247.354 782.864C247.472 780.739 245.574 777.458 243.814 776.442C242.054 775.426 240.627 776.25 240.627 778.282Z" fill="#4C4C4C"/>
<path d="M243.21 776.293C242.8 776.191 241.335 776.539 240.598 777.522" stroke="#363636" stroke-width="0.307346"/>
<path d="M245.916 787.266C246.391 787.386 248.035 786.802 248.802 785.36" stroke="#363636" stroke-width="0.307346"/>
<path d="M240.906 779.086C240.906 781.732 242.763 784.95 245.055 786.273C247.346 787.596 247.053 787.357 249.665 785.052C249.819 782.286 247.346 778.014 245.055 776.691C242.763 775.368 240.906 776.44 240.906 779.086Z" fill="#363636"/>
<circle r="4.79104" transform="matrix(-0.866025 -0.5 0 1 243.825 782.096)" fill="#535456"/>
<circle r="3.01658" transform="matrix(-0.866025 -0.5 0 1 243.518 782.2)" fill="#D1D1D1"/>
<circle r="1.24212" transform="matrix(-0.866025 -0.5 0 1 243.518 782.201)" fill="#3A3A3A"/>
<path d="M230.368 741.671L186.264 716.623L186.264 745.513L229.907 770.562L230.368 741.671Z" fill="#C2CCDA"/>
<rect width="4.10706" height="2.05353" transform="matrix(-0.859406 0.511293 0 1 263.702 782.594)" fill="#DE9753"/>
<rect width="4.10706" height="2.05353" transform="matrix(-0.859406 0.511293 0 1 276.103 775.525)" fill="#DE9753"/>
<rect width="7.29303" height="2.05353" transform="matrix(-0.859406 0.511293 0 1 271.539 778.231)" fill="#C4C4C4"/>
<rect width="3.57625" height="1.22938" transform="matrix(-0.859406 -0.511293 0 1 244.138 769.977)" fill="#898989"/>
<path d="M244.754 769.378V764.153L243.832 763.538V768.763L244.754 769.378Z" fill="#3A3A3A"/>
<path d="M245.984 762.309L246.906 762.924L244.754 764.153L243.832 763.538L245.984 762.309Z" fill="#303133"/>
<path d="M244.754 764.153L246.906 762.924V768.148L244.754 769.378V764.153Z" fill="#525357"/>
<path d="M291.574 218.937L292.496 219.705L291.113 220.474L290.191 219.705L291.574 218.937Z" fill="#2D2D2E"/>
<path d="M292.497 219.706L291.114 220.474V225.391L292.497 224.777V219.706Z" fill="#4C4C4C"/>
<path d="M280.511 195.679L235.989 170.486L211.248 184.931L255.352 209.98L280.511 195.679Z" fill="#F2F2F2"/>
<path d="M280.247 195.335L254.974 209.781V238.31L280.247 223.611V195.335Z" fill="#898989"/>
<path d="M258.536 236.148V214.788L273.596 220.012L283.584 240.605V257.816L211.973 216.632V213.865L255.001 238.299L258.536 236.148Z" fill="url(#paint8_linear)"/>
<path d="M289.578 211.1L277.13 203.877L258.536 214.788L270.83 221.857L274.057 238.453L283.585 247.366V257.816L302.025 247.366V239.99V236.456L292.651 227.543L289.578 211.1Z" fill="url(#paint9_linear)"/>
<path d="M272.212 223.24L288.963 213.405L291.268 225.391L274.364 235.072L272.212 223.24Z" fill="url(#paint10_linear)"/>
<path d="M259.458 217.707L269.446 223.24L271.444 234.611L259.458 228.003V217.707Z" fill="url(#paint11_linear)"/>
<path d="M255.352 209.627L211.248 184.578L211.248 213.469L254.891 238.517L255.352 209.627Z" fill="#C2CCDA"/>
<path d="M229.976 225.382C229.976 227.414 231.402 229.885 233.162 230.901C234.922 231.917 234.696 231.734 236.703 229.964C236.821 227.84 234.922 224.559 233.162 223.542C231.402 222.526 229.976 223.35 229.976 225.382Z" fill="#4C4C4C"/>
<path d="M232.558 223.393C232.148 223.291 230.683 223.639 229.946 224.622" stroke="#363636" stroke-width="0.307346"/>
<path d="M235.264 234.366C235.739 234.486 237.383 233.902 238.15 232.46" stroke="#363636" stroke-width="0.307346"/>
<path d="M230.254 226.186C230.254 228.832 232.112 232.05 234.403 233.373C236.695 234.696 236.401 234.458 239.013 232.153C239.167 229.386 236.695 225.114 234.403 223.791C232.112 222.468 230.254 223.54 230.254 226.186Z" fill="#363636"/>
<circle r="4.79104" transform="matrix(-0.866025 -0.5 0 1 233.174 229.197)" fill="#535456"/>
<circle r="3.01658" transform="matrix(-0.866025 -0.5 0 1 232.867 229.301)" fill="#D1D1D1"/>
<circle r="1.24212" transform="matrix(-0.866025 -0.5 0 1 232.866 229.301)" fill="#3A3A3A"/>
<path d="M214.916 216.469C214.916 218.501 216.342 220.972 218.102 221.988C219.862 223.004 219.636 222.821 221.642 221.051C221.76 218.926 219.862 215.645 218.102 214.629C216.342 213.613 214.916 214.437 214.916 216.469Z" fill="#4C4C4C"/>
<path d="M217.499 214.48C217.089 214.378 215.624 214.726 214.887 215.71" stroke="#363636" stroke-width="0.307346"/>
<path d="M220.205 225.453C220.68 225.573 222.324 224.989 223.09 223.547" stroke="#363636" stroke-width="0.307346"/>
<path d="M215.194 217.273C215.194 219.919 217.051 223.137 219.343 224.46C221.635 225.783 221.341 225.545 223.953 223.24C224.107 220.473 221.635 216.201 219.343 214.878C217.051 213.555 215.194 214.627 215.194 217.273Z" fill="#363636"/>
<circle r="4.79104" transform="matrix(-0.866025 -0.5 0 1 218.114 220.283)" fill="#535456"/>
<circle r="3.01658" transform="matrix(-0.866025 -0.5 0 1 217.806 220.388)" fill="#D1D1D1"/>
<circle r="1.24212" transform="matrix(-0.866025 -0.5 0 1 217.806 220.388)" fill="#3A3A3A"/>
<path d="M265.627 246.282C265.627 248.314 267.054 250.785 268.814 251.801C270.574 252.817 270.348 252.634 272.354 250.863C272.472 248.739 270.574 245.458 268.814 244.442C267.054 243.426 265.627 244.25 265.627 246.282Z" fill="#4C4C4C"/>
<path d="M268.21 244.293C267.8 244.19 266.335 244.539 265.598 245.522" stroke="#363636" stroke-width="0.307346"/>
<path d="M270.916 255.266C271.391 255.386 273.035 254.802 273.802 253.36" stroke="#363636" stroke-width="0.307346"/>
<path d="M265.906 247.086C265.906 249.732 267.763 252.95 270.055 254.273C272.346 255.596 272.053 255.357 274.665 253.052C274.819 250.286 272.346 246.014 270.055 244.691C267.763 243.368 265.906 244.44 265.906 247.086Z" fill="#363636"/>
<circle r="4.79104" transform="matrix(-0.866025 -0.5 0 1 268.825 250.096)" fill="#535456"/>
<circle r="3.01658" transform="matrix(-0.866025 -0.5 0 1 268.518 250.2)" fill="#D1D1D1"/>
<circle r="1.24212" transform="matrix(-0.866025 -0.5 0 1 268.518 250.2)" fill="#3A3A3A"/>
<path d="M255.368 209.671L211.264 184.623L211.264 213.513L254.907 238.562L255.368 209.671Z" fill="#C2CCDA"/>
<rect width="4.10706" height="2.05353" transform="matrix(-0.859406 0.511293 0 1 288.702 250.594)" fill="#DE9753"/>
<rect width="4.10706" height="2.05353" transform="matrix(-0.859406 0.511293 0 1 301.103 243.525)" fill="#DE9753"/>
<rect width="7.29303" height="2.05353" transform="matrix(-0.859406 0.511293 0 1 296.539 246.231)" fill="#C4C4C4"/>
<rect width="3.57625" height="1.22938" transform="matrix(-0.859406 -0.511293 0 1 269.138 237.977)" fill="#898989"/>
<path d="M269.754 237.378V232.153L268.832 231.539V236.763L269.754 237.378Z" fill="#3A3A3A"/>
<path d="M270.984 230.309L271.906 230.924L269.754 232.153L268.832 231.538L270.984 230.309Z" fill="#303133"/>
<path d="M269.754 232.153L271.906 230.924V236.149L269.754 237.378V232.153Z" fill="#525357"/>
<path d="M249.574 243.937L250.496 244.705L249.113 245.474L248.191 244.705L249.574 243.937Z" fill="#2D2D2E"/>
<path d="M250.497 244.706L249.114 245.474V250.391L250.497 249.777V244.706Z" fill="#4C4C4C"/>
<path d="M238.511 220.679L193.989 195.486L169.248 209.931L213.352 234.98L238.511 220.679Z" fill="#F2F2F2"/>
<path d="M238.247 220.335L212.974 234.781V263.31L238.247 248.611V220.335Z" fill="#898989"/>
<path d="M216.536 261.148V239.788L231.595 245.012L241.584 265.605V282.816L169.973 241.632V238.865L213.001 263.299L216.536 261.148Z" fill="url(#paint12_linear)"/>
<path d="M247.578 236.1L235.13 228.877L216.536 239.788L228.83 246.857L232.057 263.453L241.584 272.366V282.816L260.025 272.366V264.99V261.456L250.651 252.543L247.578 236.1Z" fill="url(#paint13_linear)"/>
<path d="M230.212 248.24L246.962 238.405L249.268 250.391L232.364 260.072L230.212 248.24Z" fill="url(#paint14_linear)"/>
<path d="M217.457 242.707L227.446 248.24L229.444 259.611L217.457 253.003V242.707Z" fill="url(#paint15_linear)"/>
<path d="M213.352 234.627L169.248 209.578L169.248 238.469L212.891 263.517L213.352 234.627Z" fill="#C2CCDA"/>
<path d="M187.976 250.382C187.976 252.414 189.402 254.885 191.162 255.901C192.922 256.917 192.696 256.734 194.703 254.964C194.821 252.84 192.922 249.559 191.162 248.542C189.402 247.526 187.976 248.35 187.976 250.382Z" fill="#4C4C4C"/>
<path d="M190.558 248.393C190.148 248.291 188.683 248.639 187.945 249.622" stroke="#363636" stroke-width="0.307346"/>
<path d="M193.264 259.366C193.739 259.486 195.383 258.902 196.149 257.46" stroke="#363636" stroke-width="0.307346"/>
<path d="M188.254 251.186C188.254 253.832 190.111 257.05 192.403 258.373C194.694 259.696 194.401 259.458 197.013 257.153C197.167 254.386 194.694 250.114 192.403 248.791C190.111 247.468 188.254 248.54 188.254 251.186Z" fill="#363636"/>
<circle r="4.79104" transform="matrix(-0.866025 -0.5 0 1 191.173 254.197)" fill="#535456"/>
<circle r="3.01658" transform="matrix(-0.866025 -0.5 0 1 190.866 254.301)" fill="#D1D1D1"/>
<circle r="1.24212" transform="matrix(-0.866025 -0.5 0 1 190.866 254.301)" fill="#3A3A3A"/>
<path d="M172.915 241.469C172.915 243.501 174.342 245.972 176.102 246.988C177.862 248.004 177.636 247.821 179.642 246.051C179.76 243.926 177.862 240.645 176.102 239.629C174.342 238.613 172.915 239.437 172.915 241.469Z" fill="#4C4C4C"/>
<path d="M175.499 239.48C175.089 239.378 173.624 239.726 172.886 240.71" stroke="#363636" stroke-width="0.307346"/>
<path d="M178.204 250.453C178.68 250.573 180.324 249.989 181.09 248.547" stroke="#363636" stroke-width="0.307346"/>
<path d="M173.194 242.273C173.194 244.919 175.051 248.137 177.343 249.46C179.634 250.783 179.34 250.545 181.953 248.24C182.107 245.473 179.634 241.201 177.343 239.878C175.051 238.555 173.194 239.627 173.194 242.273Z" fill="#363636"/>
<circle r="4.79104" transform="matrix(-0.866025 -0.5 0 1 176.113 245.283)" fill="#535456"/>
<circle r="3.01658" transform="matrix(-0.866025 -0.5 0 1 175.806 245.388)" fill="#D1D1D1"/>
<circle r="1.24212" transform="matrix(-0.866025 -0.5 0 1 175.806 245.388)" fill="#3A3A3A"/>
<path d="M223.627 271.282C223.627 273.314 225.054 275.785 226.814 276.801C228.573 277.817 228.348 277.634 230.354 275.863C230.472 273.739 228.573 270.458 226.814 269.442C225.054 268.426 223.627 269.25 223.627 271.282Z" fill="#4C4C4C"/>
<path d="M226.21 269.293C225.8 269.19 224.335 269.539 223.598 270.522" stroke="#363636" stroke-width="0.307346"/>
<path d="M228.916 280.266C229.391 280.386 231.035 279.802 231.801 278.36" stroke="#363636" stroke-width="0.307346"/>
<path d="M223.905 272.086C223.905 274.732 225.763 277.95 228.055 279.273C230.346 280.596 230.052 280.357 232.665 278.052C232.818 275.286 230.346 271.014 228.055 269.691C225.763 268.368 223.905 269.44 223.905 272.086Z" fill="#363636"/>
<circle r="4.79104" transform="matrix(-0.866025 -0.5 0 1 226.825 275.096)" fill="#535456"/>
<circle r="3.01658" transform="matrix(-0.866025 -0.5 0 1 226.518 275.2)" fill="#D1D1D1"/>
<circle r="1.24212" transform="matrix(-0.866025 -0.5 0 1 226.518 275.2)" fill="#3A3A3A"/>
<path d="M213.368 234.671L169.264 209.623L169.264 238.513L212.907 263.562L213.368 234.671Z" fill="#C2CCDA"/>
<rect width="4.10706" height="2.05353" transform="matrix(-0.859406 0.511293 0 1 246.702 275.594)" fill="#DE9753"/>
<rect width="4.10706" height="2.05353" transform="matrix(-0.859406 0.511293 0 1 259.102 268.525)" fill="#DE9753"/>
<rect width="7.29303" height="2.05353" transform="matrix(-0.859406 0.511293 0 1 254.539 271.231)" fill="#C4C4C4"/>
<rect width="3.57625" height="1.22938" transform="matrix(-0.859406 -0.511293 0 1 227.138 262.977)" fill="#898989"/>
<path d="M227.753 262.378V257.153L226.831 256.539V261.763L227.753 262.378Z" fill="#3A3A3A"/>
<path d="M228.983 255.309L229.906 255.924L227.754 257.153L226.832 256.538L228.983 255.309Z" fill="#303133"/>
<path d="M227.754 257.153L229.906 255.924V261.149L227.754 262.378V257.153Z" fill="#525357"/>
<defs>
<linearGradient id="paint0_linear" x1="313.723" y1="383.171" x2="326.171" y2="404.838" gradientUnits="userSpaceOnUse">
<stop stop-color="#2B4499"/>
<stop offset="0.749464" stop-color="#2B4499"/>
<stop offset="0.75" stop-color="#404143"/>
<stop offset="1" stop-color="#404143"/>
</linearGradient>
<linearGradient id="paint1_linear" x1="301.429" y1="373.489" x2="276.688" y2="416.671" gradientUnits="userSpaceOnUse">
<stop stop-color="#3F5CC2"/>
<stop offset="0.234175" stop-color="#405DC2"/>
<stop offset="0.234275" stop-color="#A3A3A3"/>
<stop offset="0.234375" stop-color="#293B7A"/>
<stop offset="0.552083" stop-color="#2A3C7B"/>
<stop offset="0.552183" stop-color="#3F5CC2"/>
<stop offset="0.804454" stop-color="#405DC2"/>
<stop offset="0.810077" stop-color="#415EC2"/>
<stop offset="0.814339" stop-color="#293B7A"/>
<stop offset="0.865219" stop-color="#2A3C7B"/>
<stop offset="0.867454" stop-color="#535456"/>
<stop offset="1" stop-color="#525356"/>
</linearGradient>
<linearGradient id="paint2_linear" x1="286.524" y1="385.322" x2="316.183" y2="382.863" gradientUnits="userSpaceOnUse">
<stop stop-color="#A0B3F6"/>
<stop offset="0.192159" stop-color="#A0B3F7"/>
<stop offset="0.195181" stop-color="#607AD6"/>
<stop offset="0.886167" stop-color="#607AD6"/>
<stop offset="0.887989" stop-color="#A0B3F7"/>
<stop offset="0.997653" stop-color="#A0B3F7"/>
</linearGradient>
<linearGradient id="paint3_linear" x1="286.524" y1="385.322" x2="316.183" y2="382.863" gradientUnits="userSpaceOnUse">
<stop stop-color="#A0B3F6"/>
<stop offset="0.192159" stop-color="#A0B3F7"/>
<stop offset="0.195181" stop-color="#607AD6"/>
<stop offset="0.886167" stop-color="#607AD6"/>
<stop offset="0.887989" stop-color="#A0B3F7"/>
<stop offset="0.997653" stop-color="#A0B3F7"/>
</linearGradient>
<linearGradient id="paint4_linear" x1="236.302" y1="748.171" x2="223.854" y2="769.838" gradientUnits="userSpaceOnUse">
<stop stop-color="#2B4499"/>
<stop offset="0.749464" stop-color="#2B4499"/>
<stop offset="0.75" stop-color="#404143"/>
<stop offset="1" stop-color="#404143"/>
</linearGradient>
<linearGradient id="paint5_linear" x1="248.596" y1="738.489" x2="273.337" y2="781.671" gradientUnits="userSpaceOnUse">
<stop stop-color="#3F5CC2"/>
<stop offset="0.234175" stop-color="#405DC2"/>
<stop offset="0.234275" stop-color="#A3A3A3"/>
<stop offset="0.234375" stop-color="#293B7A"/>
<stop offset="0.552083" stop-color="#2A3C7B"/>
<stop offset="0.552183" stop-color="#3F5CC2"/>
<stop offset="0.804454" stop-color="#405DC2"/>
<stop offset="0.810077" stop-color="#415EC2"/>
<stop offset="0.814339" stop-color="#293B7A"/>
<stop offset="0.865219" stop-color="#2A3C7B"/>
<stop offset="0.867454" stop-color="#535456"/>
<stop offset="1" stop-color="#525356"/>
</linearGradient>
<linearGradient id="paint6_linear" x1="263.502" y1="750.322" x2="233.843" y2="747.863" gradientUnits="userSpaceOnUse">
<stop stop-color="#A0B3F6"/>
<stop offset="0.192159" stop-color="#A0B3F7"/>
<stop offset="0.195181" stop-color="#607AD6"/>
<stop offset="0.886167" stop-color="#607AD6"/>
<stop offset="0.887989" stop-color="#A0B3F7"/>
<stop offset="0.997653" stop-color="#A0B3F7"/>
</linearGradient>
<linearGradient id="paint7_linear" x1="263.502" y1="750.322" x2="233.843" y2="747.863" gradientUnits="userSpaceOnUse">
<stop stop-color="#A0B3F6"/>
<stop offset="0.192159" stop-color="#A0B3F7"/>
<stop offset="0.195181" stop-color="#607AD6"/>
<stop offset="0.886167" stop-color="#607AD6"/>
<stop offset="0.887989" stop-color="#A0B3F7"/>
<stop offset="0.997653" stop-color="#A0B3F7"/>
</linearGradient>
<linearGradient id="paint8_linear" x1="261.302" y1="216.171" x2="248.854" y2="237.838" gradientUnits="userSpaceOnUse">
<stop stop-color="#2B4499"/>
<stop offset="0.749464" stop-color="#2B4499"/>
<stop offset="0.75" stop-color="#404143"/>
<stop offset="1" stop-color="#404143"/>
</linearGradient>
<linearGradient id="paint9_linear" x1="273.596" y1="206.489" x2="298.337" y2="249.671" gradientUnits="userSpaceOnUse">
<stop stop-color="#3F5CC2"/>
<stop offset="0.234175" stop-color="#405DC2"/>
<stop offset="0.234275" stop-color="#A3A3A3"/>
<stop offset="0.234375" stop-color="#293B7A"/>
<stop offset="0.552083" stop-color="#2A3C7B"/>
<stop offset="0.552183" stop-color="#3F5CC2"/>
<stop offset="0.804454" stop-color="#405DC2"/>
<stop offset="0.810077" stop-color="#415EC2"/>
<stop offset="0.814339" stop-color="#293B7A"/>
<stop offset="0.865219" stop-color="#2A3C7B"/>
<stop offset="0.867454" stop-color="#535456"/>
<stop offset="1" stop-color="#525356"/>
</linearGradient>
<linearGradient id="paint10_linear" x1="288.502" y1="218.322" x2="258.843" y2="215.863" gradientUnits="userSpaceOnUse">
<stop stop-color="#A0B3F6"/>
<stop offset="0.192159" stop-color="#A0B3F7"/>
<stop offset="0.195181" stop-color="#607AD6"/>
<stop offset="0.886167" stop-color="#607AD6"/>
<stop offset="0.887989" stop-color="#A0B3F7"/>
<stop offset="0.997653" stop-color="#A0B3F7"/>
</linearGradient>
<linearGradient id="paint11_linear" x1="288.502" y1="218.322" x2="258.843" y2="215.863" gradientUnits="userSpaceOnUse">
<stop stop-color="#A0B3F6"/>
<stop offset="0.192159" stop-color="#A0B3F7"/>
<stop offset="0.195181" stop-color="#607AD6"/>
<stop offset="0.886167" stop-color="#607AD6"/>
<stop offset="0.887989" stop-color="#A0B3F7"/>
<stop offset="0.997653" stop-color="#A0B3F7"/>
</linearGradient>
<linearGradient id="paint12_linear" x1="219.302" y1="241.171" x2="206.854" y2="262.838" gradientUnits="userSpaceOnUse">
<stop stop-color="#2B4499"/>
<stop offset="0.749464" stop-color="#2B4499"/>
<stop offset="0.75" stop-color="#404143"/>
<stop offset="1" stop-color="#404143"/>
</linearGradient>
<linearGradient id="paint13_linear" x1="231.596" y1="231.489" x2="256.337" y2="274.671" gradientUnits="userSpaceOnUse">
<stop stop-color="#3F5CC2"/>
<stop offset="0.234175" stop-color="#405DC2"/>
<stop offset="0.234275" stop-color="#A3A3A3"/>
<stop offset="0.234375" stop-color="#293B7A"/>
<stop offset="0.552083" stop-color="#2A3C7B"/>
<stop offset="0.552183" stop-color="#3F5CC2"/>
<stop offset="0.804454" stop-color="#405DC2"/>
<stop offset="0.810077" stop-color="#415EC2"/>
<stop offset="0.814339" stop-color="#293B7A"/>
<stop offset="0.865219" stop-color="#2A3C7B"/>
<stop offset="0.867454" stop-color="#535456"/>
<stop offset="1" stop-color="#525356"/>
</linearGradient>
<linearGradient id="paint14_linear" x1="246.501" y1="243.322" x2="216.843" y2="240.863" gradientUnits="userSpaceOnUse">
<stop stop-color="#A0B3F6"/>
<stop offset="0.192159" stop-color="#A0B3F7"/>
<stop offset="0.195181" stop-color="#607AD6"/>
<stop offset="0.886167" stop-color="#607AD6"/>
<stop offset="0.887989" stop-color="#A0B3F7"/>
<stop offset="0.997653" stop-color="#A0B3F7"/>
</linearGradient>
<linearGradient id="paint15_linear" x1="246.501" y1="243.322" x2="216.843" y2="240.863" gradientUnits="userSpaceOnUse">
<stop stop-color="#A0B3F6"/>
<stop offset="0.192159" stop-color="#A0B3F7"/>
<stop offset="0.195181" stop-color="#607AD6"/>
<stop offset="0.886167" stop-color="#607AD6"/>
<stop offset="0.887989" stop-color="#A0B3F7"/>
<stop offset="0.997653" stop-color="#A0B3F7"/>
</linearGradient>
</defs>
</svg>
