<svg xmlns="http://www.w3.org/2000/svg" width="159" height="140" viewBox="0 0 159 140">
    <g fill="#FFF" fill-rule="evenodd">
        <path d="M139.293 64.995a4.238 4.238 0 0 0-8.453.61c.104 1.441.157 2.92.157 4.395 0 33.78-27.482 61.261-61.262 61.261S8.475 103.78 8.475 70s27.48-61.261 61.26-61.261c13.379 0 26.084 4.233 36.742 12.242a4.237 4.237 0 0 0 5.09-6.774C99.43 5.086 84.965.265 69.736.265 31.283.265 0 31.548 0 70s31.283 69.735 69.736 69.735c38.452 0 69.735-31.283 69.735-69.735 0-1.677-.06-3.36-.178-5.005z"/>
        <path fill-rule="nonzero" d="M153.75 9.84c-6.444-6.444-16.931-6.444-23.376 0L69.322 70.891 47.68 49.25c-6.445-6.445-16.932-6.445-23.377 0s-6.445 16.932 0 23.377l37.273 37.273a10.92 10.92 0 0 0 7.746 3.204 10.92 10.92 0 0 0 7.746-3.204l76.683-76.682c6.444-6.445 6.444-16.931 0-23.377zm-5.991 17.385l-76.684 76.683a2.483 2.483 0 0 1-3.506 0L30.295 66.634c-3.14-3.14-3.14-8.251 0-11.392a8.028 8.028 0 0 1 5.696-2.356c2.064 0 4.126.785 5.696 2.356l22.265 22.264a7.547 7.547 0 0 0 5.37 2.224c2.03 0 3.937-.79 5.371-2.224l61.673-61.674c3.14-3.14 8.252-3.14 11.393 0 3.14 3.141 3.14 8.252 0 11.393z"/>
    </g>
</svg>
