<svg xmlns="http://www.w3.org/2000/svg" width="279" height="75" viewBox="0 0 279 75">
    <g fill="none" fill-rule="evenodd">
        <path fill="#1368F6" d="M35.313 36.753a23.103 23.103 0 0 0 3.303-12.796C38.4 11.768 28.586 1.904 16.36 1.495c-.402-.02-.806-.03-1.213-.03A23.483 23.483 0 0 0 .004 6.96 23.23 23.23 0 0 1 16.62.01c12.825 0 23.22 10.325 23.22 23.06 0 5.123-1.681 9.856-4.527 13.684z"/>
        <path fill="#FF6428" fill-rule="nonzero" d="M8.12 21.456c.059.059.098.135.11.216h-.11v-.216zm4.332 4.651h-5.32L5.92 22.893h5.505v.026h.026c.03.276.173.57.264.81.146.387.198.76.342 1.15.14.378.335.801.395 1.228zm-4.978.967h5.242c.115.59.39 1.197.58 1.75.376 1.106.654 2.186 1.026 3.293.34 1.01.759 2.09 1.001 3.161.037.164-.112.421-.158.549-.16.452-.273.923-.421 1.359-.437 1.287-.758 2.603-1.185 3.867-.145.427-.213.846-.37 1.254h-.026c-.017-.165-.104-.291-.158-.418-.159-.379-.272-.766-.421-1.124-.477-1.143-.822-2.326-1.29-3.449-.345-.825-.553-1.655-.896-2.482-1.056-2.539-1.865-5.21-2.924-7.76z"/>
        <path fill="#FF6428" fill-rule="nonzero" d="M7.98 21.51s2.49-3.055 7.218-3.282c4.6-.127 8.489 2.979 8.489 2.979s-2.821-4.317-8.387-4.191c-5.134.151-7.091 4.342-7.32 4.494zm-2.44-3.13s3.24-3.912 9.39-4.203c5.985-.162 11.044 3.814 11.044 3.814s-3.67-5.527-10.911-5.366c-6.68.194-9.225 5.56-9.523 5.754zm-1.88-3.788S7.529 9.927 14.872 9.58c7.146-.192 13.186 4.55 13.186 4.55s-4.382-6.593-13.028-6.4c-7.975.231-11.015 6.63-11.37 6.862z"/>
        <path fill="#1368F6" d="M20.828 22.893h5.137v.026c-.08.095-.078.21-.132.34-.147.352-.265.724-.421 1.097-.44 1.048-.79 2.145-1.238 3.214-1.408 3.364-2.576 6.876-3.978 10.243-.492 1.181-.885 2.393-1.37 3.553-.137.329-.246.656-.368.967l-.132.392h-3.872v-.052c.1-.137.097-.317.158-.497.143-.42.27-.86.422-1.306.49-1.452.923-2.938 1.422-4.416.993-2.944 1.872-5.94 2.871-8.91.352-1.045.668-2.117 1.027-3.188.154-.46.399-.957.474-1.463z"/>
        <path fill="#FF6428" fill-rule="nonzero" d="M54.189 40.473h-4.978V20.89h4.978v19.582zM51.7 12.728c1.686 0 2.73 1.166 2.77 2.694 0 1.488-1.084 2.654-2.81 2.654-1.646 0-2.73-1.166-2.73-2.654 0-1.528 1.124-2.694 2.77-2.694zm7.073 27.745V26.72c0-2.252-.04-4.141-.16-5.83h4.254l.201 2.895h.12c.964-1.528 2.73-3.338 6.022-3.338 2.57 0 4.576 1.448 5.42 3.62h.08c.682-1.086 1.485-1.89 2.408-2.454 1.084-.763 2.328-1.166 3.934-1.166 3.252 0 6.543 2.212 6.543 8.485v11.54h-4.817V29.656c0-3.257-1.124-5.187-3.492-5.187-1.686 0-2.93 1.207-3.452 2.614-.12.482-.241 1.086-.241 1.649v11.74h-4.817V29.135c0-2.735-1.084-4.665-3.373-4.665-1.846 0-3.09 1.448-3.532 2.815-.2.483-.281 1.045-.281 1.608v11.58h-4.817zm48.5-11.782v7.077c0 1.77.08 3.498.281 4.705h-4.456l-.321-2.172h-.12c-1.205 1.528-3.252 2.614-5.781 2.614-3.934 0-6.142-2.855-6.142-5.83 0-4.946 4.376-7.44 11.601-7.399v-.322c0-1.286-.521-3.417-3.974-3.417-1.927 0-3.934.603-5.259 1.447l-.963-3.217c1.445-.884 3.974-1.729 7.065-1.729 6.263 0 8.069 3.981 8.069 8.243zm-4.817 4.906v-2.694c-3.493-.08-6.825.683-6.825 3.659 0 1.93 1.245 2.815 2.81 2.815 1.968 0 3.413-1.287 3.854-2.694.12-.362.16-.764.16-1.086zm27.023-7.077v11.098c0 4.101-.843 7.036-2.89 8.886-2.047 1.81-4.857 2.372-7.547 2.372-2.489 0-5.138-.522-6.824-1.568l1.084-3.74c1.244.725 3.332 1.489 5.7 1.489 3.212 0 5.62-1.69 5.62-5.911v-1.689h-.08c-1.124 1.729-3.131 2.895-5.7 2.895-4.858 0-8.31-4.02-8.31-9.57 0-6.433 4.175-10.334 8.872-10.334 2.97 0 4.736 1.448 5.66 3.056h.08l.2-2.613h4.296a85.76 85.76 0 0 0-.16 5.629zm-4.937 5.388v-3.176c0-.443-.04-.925-.16-1.327-.523-1.81-1.928-3.177-4.015-3.177-2.77 0-4.817 2.413-4.817 6.393 0 3.338 1.686 6.032 4.777 6.032 1.846 0 3.452-1.207 4.014-2.976.12-.522.2-1.206.2-1.769z"/>
        <path fill="#1368F6" fill-rule="nonzero" d="M138.947 40.29h-4.99V20.838h4.99v19.454zm-2.495-27.562c1.69 0 2.736 1.159 2.777 2.677 0 1.478-1.087 2.636-2.817 2.636-1.65 0-2.736-1.158-2.736-2.636 0-1.518 1.126-2.677 2.776-2.677zm7.09 27.563V26.629c0-2.237-.04-4.114-.161-5.792h4.346l.241 2.916h.12c.846-1.518 2.979-3.355 6.238-3.355 3.42 0 6.962 2.197 6.962 8.349V40.29h-4.95V29.306c0-2.796-1.046-4.914-3.742-4.914-1.972 0-3.34 1.399-3.863 2.877-.161.439-.202 1.038-.202 1.597v11.425h-4.99zm22.3 0V26.629c0-2.237-.04-4.114-.16-5.792h4.345l.241 2.916h.121c.845-1.518 2.978-3.355 6.237-3.355 3.42 0 6.962 2.197 6.962 8.349V40.29h-4.95V29.306c0-2.796-1.046-4.914-3.742-4.914-1.972 0-3.34 1.399-3.863 2.877-.161.439-.201 1.038-.201 1.597v11.425h-4.99zm31.193-19.893c5.835 0 9.738 4.074 9.738 9.986 0 7.15-5.07 10.346-10.06 10.346-5.553 0-9.818-3.795-9.818-10.026 0-6.391 4.225-10.306 10.14-10.306zm-.12 3.595c-3.501 0-4.91 3.355-4.91 6.591 0 3.755 1.851 6.591 4.87 6.591 2.816 0 4.788-2.756 4.788-6.67 0-3.037-1.368-6.512-4.748-6.512zm10.67-3.156h5.353l3.178 9.867a52.296 52.296 0 0 1 1.328 4.873h.121c.362-1.598.805-3.115 1.328-4.873l3.098-9.867h5.232l-7.485 19.454h-4.869l-7.283-19.454zm36.908 7.75v7.03c0 1.758.08 3.476.282 4.674h-4.467l-.322-2.157h-.12c-1.208 1.518-3.26 2.596-5.795 2.596-3.944 0-6.157-2.836-6.157-5.792 0-4.913 4.386-7.39 11.63-7.35v-.32c0-1.278-.524-3.395-3.984-3.395-1.932 0-3.944.6-5.272 1.438l-.965-3.195c1.448-.88 3.983-1.718 7.082-1.718 6.277 0 8.088 3.955 8.088 8.189zm-4.829 4.873v-2.676c-3.5-.08-6.84.679-6.84 3.635 0 1.917 1.247 2.796 2.816 2.796 1.972 0 3.42-1.278 3.863-2.676.121-.36.161-.76.161-1.079zm9.947-16.218l4.829-1.398v4.993h4.708v3.675h-4.708v8.589c0 2.356.643 3.595 2.535 3.595.925 0 1.368-.08 1.931-.24l.08 3.755c-.724.28-2.011.52-3.58.52-1.811 0-3.34-.64-4.266-1.638-1.046-1.119-1.53-2.877-1.53-5.433v-9.148h-2.816v-3.675h2.817v-3.595zm29.181 14.7h-13.118c.12 3.515 2.897 5.033 6.036 5.033 2.294 0 3.943-.32 5.432-.878l.725 3.395c-1.69.68-4.024 1.238-6.841 1.238-6.358 0-10.1-3.914-10.1-9.866 0-5.393 3.3-10.466 9.577-10.466 6.398 0 8.45 5.193 8.45 9.467 0 .919-.08 1.638-.16 2.077zm-13.118-3.435h8.611c.04-1.798-.764-4.754-4.064-4.754-3.058 0-4.346 2.757-4.547 4.754z"/>
        <path fill="#2C3E50" fill-rule="nonzero" d="M26.532 70.207c-1.358 0-2.436-.493-3.232-1.48-.796-.985-1.194-2.37-1.194-4.151 0-.877.128-1.665.384-2.366.255-.702.595-1.293 1.018-1.775.424-.482.91-.855 1.457-1.118a3.88 3.88 0 0 1 1.699-.394c.613 0 1.132.106 1.555.318.424.212.847.5 1.27.865l-.087-1.73v-3.9h2.52v15.468H29.84l-.175-1.161h-.087c-.395.394-.855.73-1.38 1.007a3.518 3.518 0 0 1-1.666.417zm.614-2.082c.803 0 1.555-.401 2.256-1.205v-5.017c-.38-.336-.748-.57-1.106-.701a3.124 3.124 0 0 0-1.085-.198c-.7 0-1.292.307-1.774.92-.482.614-.723 1.49-.723 2.63 0 1.168.208 2.056.624 2.662.416.606 1.019.91 1.808.91zm12.671 2.082a5.58 5.58 0 0 1-2.081-.384 4.943 4.943 0 0 1-1.687-1.106 5.047 5.047 0 0 1-1.129-1.764c-.27-.694-.405-1.486-.405-2.377 0-.877.139-1.665.416-2.366.278-.702.647-1.293 1.107-1.775.46-.482.99-.855 1.588-1.118a4.536 4.536 0 0 1 1.84-.394c.731 0 1.374.124 1.929.373a3.762 3.762 0 0 1 1.391 1.051c.372.453.654.993.844 1.622a7.09 7.09 0 0 1 .284 2.06c0 .247-.01.481-.032.7a4.67 4.67 0 0 1-.077.526h-6.836c.117.964.456 1.705 1.019 2.224.562.518 1.281.778 2.158.778.467 0 .902-.07 1.303-.208.402-.14.8-.333 1.195-.581l.854 1.578a7.736 7.736 0 0 1-1.709.832 5.944 5.944 0 0 1-1.972.329zm-2.87-6.66h4.776c0-.834-.179-1.487-.536-1.962-.358-.475-.91-.712-1.655-.712-.642 0-1.205.226-1.687.68-.482.452-.781 1.117-.898 1.993zm12.474 6.66a5.962 5.962 0 0 1-2.202-.428 7.125 7.125 0 0 1-1.873-1.062l1.183-1.621c.482.38.96.675 1.435.887.475.212.99.318 1.545.318.584 0 1.015-.12 1.293-.362.277-.241.416-.551.416-.931a.916.916 0 0 0-.197-.58 1.894 1.894 0 0 0-.526-.45 5.055 5.055 0 0 0-.745-.361c-.277-.11-.555-.223-.832-.34-.351-.131-.709-.285-1.074-.46a4.316 4.316 0 0 1-.975-.636 3.205 3.205 0 0 1-.701-.865c-.183-.329-.274-.72-.274-1.172 0-.95.35-1.724 1.052-2.323.7-.599 1.657-.898 2.87-.898.745 0 1.417.131 2.016.394a7.504 7.504 0 0 1 1.555.899l-1.161 1.533a6.01 6.01 0 0 0-1.15-.668 3.023 3.023 0 0 0-1.216-.252c-.54 0-.939.113-1.194.34a1.081 1.081 0 0 0-.384.843c0 .22.062.406.186.56.125.152.289.288.493.404.205.117.442.227.712.33.27.101.552.204.844.306.365.131.73.281 1.095.449.366.168.698.376.997.624.3.249.54.552.723.91.183.358.274.785.274 1.281a3.011 3.011 0 0 1-1.074 2.355c-.35.3-.788.538-1.314.713-.526.175-1.125.263-1.797.263zm6.537-.263V59.186h2.52v10.758h-2.52zm1.271-12.642c-.453 0-.825-.132-1.117-.395-.292-.263-.439-.606-.439-1.03 0-.423.147-.77.439-1.04.292-.27.664-.406 1.117-.406.453 0 .825.136 1.117.406.293.27.439.617.439 1.04 0 .424-.146.767-.439 1.03-.292.263-.664.395-1.117.395zm8.312 17.396a8.56 8.56 0 0 1-1.786-.175 4.668 4.668 0 0 1-1.413-.526 2.758 2.758 0 0 1-.931-.876c-.227-.35-.34-.76-.34-1.227 0-.453.131-.873.394-1.26s.643-.734 1.14-1.04v-.088a2.184 2.184 0 0 1-.69-.702c-.183-.292-.274-.657-.274-1.095 0-.424.12-.807.361-1.15a3.48 3.48 0 0 1 .822-.844v-.087c-.365-.278-.69-.661-.975-1.15-.285-.49-.427-1.056-.427-1.699 0-.613.116-1.161.35-1.643.234-.482.544-.887.931-1.216a3.974 3.974 0 0 1 1.348-.745 5.161 5.161 0 0 1 1.621-.252c.292 0 .573.026.844.077.27.05.515.113.734.186h3.856v1.862h-1.972c.175.205.321.464.438.778.117.314.175.661.175 1.04 0 .6-.106 1.126-.317 1.578a3.28 3.28 0 0 1-.866 1.14c-.365.306-.796.54-1.292.7-.497.162-1.03.242-1.6.242-.234 0-.475-.022-.723-.066a3.595 3.595 0 0 1-.745-.219c-.16.146-.288.292-.383.438-.095.146-.143.343-.143.592a.83.83 0 0 0 .384.723c.255.175.712.263 1.37.263h1.905c1.3 0 2.283.208 2.947.624.665.416.997 1.092.997 2.027a2.93 2.93 0 0 1-.405 1.49 3.68 3.68 0 0 1-1.15 1.205c-.497.336-1.1.602-1.808.8-.709.197-1.501.295-2.377.295zm.131-9.75c.511 0 .95-.186 1.315-.558.365-.373.547-.91.547-1.61 0-.673-.178-1.195-.536-1.567a1.765 1.765 0 0 0-1.326-.56c-.526 0-.971.184-1.336.549-.366.365-.548.89-.548 1.577 0 .701.182 1.238.548 1.61a1.8 1.8 0 0 0 1.336.56zm.263 8.107c.876 0 1.581-.172 2.114-.515.533-.343.8-.748.8-1.216 0-.423-.164-.708-.493-.854-.329-.146-.8-.22-1.413-.22h-1.468c-.584 0-1.074-.05-1.468-.153-.555.424-.833.899-.833 1.424 0 .482.245.858.734 1.129.49.27 1.165.405 2.027.405zm7.348-3.111V59.186h2.081l.175 1.446h.088a8.529 8.529 0 0 1 1.566-1.205c.563-.336 1.216-.504 1.961-.504 1.154 0 1.994.369 2.52 1.106.526.738.789 1.793.789 3.167v6.748h-2.52v-6.42c0-.89-.131-1.519-.394-1.884s-.694-.548-1.293-.548c-.467 0-.88.113-1.238.34-.358.226-.763.558-1.216.997v7.515h-2.52zm13.789.263c-.468 0-.859-.16-1.173-.482-.314-.322-.47-.73-.47-1.227 0-.497.156-.906.47-1.227a1.573 1.573 0 0 1 1.173-.482c.467 0 .854.16 1.16.482.308.321.46.73.46 1.227 0 .496-.152.905-.46 1.227-.306.321-.693.482-1.16.482zM104.368 70.207c-1.359 0-2.436-.493-3.232-1.48-.796-.985-1.194-2.37-1.194-4.151 0-.877.128-1.665.383-2.366.256-.702.595-1.293 1.02-1.775.423-.482.908-.855 1.456-1.118a3.88 3.88 0 0 1 1.698-.394c.614 0 1.132.106 1.556.318.423.212.847.5 1.27.865l-.087-1.73v-3.9h2.52v15.468h-2.082l-.175-1.161h-.088c-.394.394-.854.73-1.38 1.007a3.518 3.518 0 0 1-1.665.417zm.613-2.082c.804 0 1.556-.401 2.257-1.205v-5.017c-.38-.336-.749-.57-1.107-.701a3.124 3.124 0 0 0-1.084-.198c-.701 0-1.293.307-1.775.92-.482.614-.723 1.49-.723 2.63 0 1.168.208 2.056.625 2.662.416.606 1.018.91 1.807.91zm12.672 2.082a5.58 5.58 0 0 1-2.082-.384 4.943 4.943 0 0 1-1.687-1.106 5.047 5.047 0 0 1-1.128-1.764c-.27-.694-.405-1.486-.405-2.377 0-.877.138-1.665.416-2.366.277-.702.646-1.293 1.106-1.775.46-.482.99-.855 1.589-1.118a4.536 4.536 0 0 1 1.84-.394c.73 0 1.373.124 1.928.373a3.762 3.762 0 0 1 1.392 1.051c.372.453.653.993.843 1.622a7.09 7.09 0 0 1 .285 2.06c0 .247-.01.481-.033.7-.022.22-.047.395-.077.526h-6.835c.116.964.456 1.705 1.018 2.224.563.518 1.282.778 2.158.778.468 0 .902-.07 1.304-.208.402-.14.8-.333 1.194-.581l.855 1.578a7.736 7.736 0 0 1-1.71.832 5.944 5.944 0 0 1-1.971.329zm-2.87-6.66h4.776c0-.834-.179-1.487-.537-1.962-.358-.475-.91-.712-1.654-.712-.643 0-1.205.226-1.687.68-.482.452-.782 1.117-.898 1.993zm11.883 6.397l-3.747-10.758h2.563l1.71 5.587c.145.526.295 1.059.449 1.6.153.54.303 1.088.449 1.643h.087c.161-.555.314-1.103.46-1.644.146-.54.3-1.073.46-1.599l1.71-5.587h2.432l-3.66 10.758h-2.913zm13 .263a5.58 5.58 0 0 1-2.082-.384 4.942 4.942 0 0 1-1.687-1.106 5.047 5.047 0 0 1-1.128-1.764c-.27-.694-.405-1.486-.405-2.377 0-.877.138-1.665.416-2.366.277-.702.646-1.293 1.106-1.775.46-.482.99-.855 1.589-1.118a4.536 4.536 0 0 1 1.84-.394c.73 0 1.373.124 1.928.373a3.762 3.762 0 0 1 1.392 1.051c.372.453.653.993.843 1.622a7.09 7.09 0 0 1 .285 2.06c0 .247-.01.481-.033.7-.022.22-.047.395-.077.526h-6.835c.116.964.456 1.705 1.018 2.224.563.518 1.282.778 2.158.778.468 0 .902-.07 1.304-.208.402-.14.8-.333 1.194-.581l.855 1.578a7.736 7.736 0 0 1-1.71.832 5.944 5.944 0 0 1-1.971.329zm-2.87-6.66h4.776c0-.834-.179-1.487-.537-1.962-.358-.475-.91-.712-1.654-.712-.643 0-1.205.226-1.687.68-.482.452-.782 1.117-.898 1.993zm11.926 6.66c-.905 0-1.54-.27-1.906-.81-.365-.541-.548-1.279-.548-2.214V54.475h2.52v12.84c0 .306.058.522.175.646.117.124.241.186.373.186h.164a.929.929 0 0 0 .23-.044l.329 1.885c-.336.146-.782.219-1.337.219zm7.983 0a5.09 5.09 0 0 1-1.928-.373 4.797 4.797 0 0 1-1.632-1.095 5.241 5.241 0 0 1-1.129-1.775c-.277-.701-.416-1.497-.416-2.388 0-.891.139-1.687.416-2.388a5.241 5.241 0 0 1 1.129-1.775 4.964 4.964 0 0 1 3.56-1.49c.672 0 1.318.128 1.94.383.62.256 1.164.625 1.632 1.107.467.482.843 1.074 1.128 1.775.285.7.427 1.497.427 2.388 0 .89-.142 1.687-.427 2.388-.285.701-.661 1.293-1.128 1.775a4.66 4.66 0 0 1-1.633 1.095 5.174 5.174 0 0 1-1.939.373zm0-2.06c.789 0 1.41-.325 1.863-.975.452-.65.679-1.515.679-2.596 0-1.096-.227-1.968-.68-2.618-.452-.65-1.073-.975-1.862-.975-.789 0-1.406.325-1.851.975-.446.65-.668 1.522-.668 2.618 0 1.08.222 1.946.668 2.596.445.65 1.062.975 1.851.975zm7.72 6.047V59.186h2.082l.175 1.14h.088a7.7 7.7 0 0 1 1.511-.987 3.824 3.824 0 0 1 1.731-.416c.672 0 1.267.128 1.786.383.519.256.96.625 1.326 1.107.365.482.642 1.059.832 1.73.19.673.285 1.425.285 2.258 0 .92-.128 1.741-.383 2.464-.256.723-.596 1.33-1.02 1.819a4.45 4.45 0 0 1-1.467 1.128 3.998 3.998 0 0 1-1.731.395c-.468 0-.935-.103-1.402-.307a5.365 5.365 0 0 1-1.359-.876l.066 1.796v3.374h-2.52zm4.689-6.069c.716 0 1.315-.31 1.797-.93.482-.622.723-1.546.723-2.773 0-1.08-.183-1.92-.548-2.52-.365-.598-.957-.898-1.775-.898-.76 0-1.548.402-2.366 1.206v5.017c.394.336.774.57 1.14.701.364.132.708.197 1.029.197zm8.969 2.082c-.468 0-.858-.16-1.172-.482-.314-.322-.471-.73-.471-1.227 0-.497.157-.906.47-1.227a1.573 1.573 0 0 1 1.173-.482c.467 0 .854.16 1.161.482.307.321.46.73.46 1.227 0 .496-.153.905-.46 1.227-.307.321-.694.482-1.161.482zM195.435 70.207c-1.359 0-2.436-.493-3.232-1.48-.796-.985-1.194-2.37-1.194-4.151 0-.877.128-1.665.383-2.366.256-.702.595-1.293 1.019-1.775.424-.482.91-.855 1.457-1.118a3.88 3.88 0 0 1 1.698-.394c.613 0 1.132.106 1.556.318.423.212.847.5 1.27.865l-.087-1.73v-3.9h2.52v15.468h-2.082l-.175-1.161h-.088c-.394.394-.854.73-1.38 1.007a3.518 3.518 0 0 1-1.665.417zm.613-2.082c.803 0 1.556-.401 2.257-1.205v-5.017c-.38-.336-.749-.57-1.107-.701a3.124 3.124 0 0 0-1.084-.198c-.701 0-1.293.307-1.775.92-.482.614-.723 1.49-.723 2.63 0 1.168.208 2.056.624 2.662.417.606 1.02.91 1.808.91zm12.672 2.082a5.58 5.58 0 0 1-2.082-.384 4.943 4.943 0 0 1-1.687-1.106 5.047 5.047 0 0 1-1.128-1.764c-.27-.694-.406-1.486-.406-2.377 0-.877.14-1.665.417-2.366.277-.702.646-1.293 1.106-1.775.46-.482.99-.855 1.589-1.118a4.536 4.536 0 0 1 1.84-.394c.73 0 1.373.124 1.928.373a3.762 3.762 0 0 1 1.392 1.051c.372.453.653.993.843 1.622a7.09 7.09 0 0 1 .285 2.06c0 .247-.011.481-.033.7a4.67 4.67 0 0 1-.077.526h-6.836c.117.964.457 1.705 1.02 2.224.562.518 1.28.778 2.157.778.468 0 .902-.07 1.304-.208.402-.14.8-.333 1.194-.581l.855 1.578a7.736 7.736 0 0 1-1.71.832 5.944 5.944 0 0 1-1.971.329zm-2.87-6.66h4.776c0-.834-.18-1.487-.537-1.962-.358-.475-.91-.712-1.654-.712-.643 0-1.205.226-1.687.68-.482.452-.782 1.117-.899 1.993zm11.926 6.66c-.905 0-1.54-.27-1.906-.81-.365-.541-.548-1.279-.548-2.214V54.475h2.52v12.84c0 .306.058.522.175.646.117.124.241.186.373.186h.164a.929.929 0 0 0 .23-.044l.329 1.885c-.336.146-.782.219-1.337.219zm3.58-.263V59.186h2.519v10.758h-2.52zm1.27-12.642c-.453 0-.825-.132-1.117-.395-.293-.263-.439-.606-.439-1.03 0-.423.146-.77.439-1.04.292-.27.664-.406 1.117-.406.453 0 .825.136 1.117.406.292.27.439.617.439 1.04 0 .424-.147.767-.439 1.03-.292.263-.664.395-1.117.395zm6.975 12.642l-3.747-10.758h2.564l1.709 5.587c.146.526.296 1.059.449 1.6.153.54.303 1.088.45 1.643h.087c.16-.555.314-1.103.46-1.644.146-.54.3-1.073.46-1.599l1.709-5.587h2.432l-3.659 10.758h-2.914zm13 .263a5.58 5.58 0 0 1-2.081-.384 4.943 4.943 0 0 1-1.687-1.106 5.047 5.047 0 0 1-1.129-1.764c-.27-.694-.405-1.486-.405-2.377 0-.877.139-1.665.416-2.366.278-.702.647-1.293 1.107-1.775.46-.482.99-.855 1.588-1.118a4.536 4.536 0 0 1 1.84-.394c.731 0 1.374.124 1.929.373a3.762 3.762 0 0 1 1.391 1.051c.373.453.654.993.844 1.622a7.09 7.09 0 0 1 .284 2.06c0 .247-.01.481-.032.7-.022.22-.048.395-.077.526h-6.836c.117.964.456 1.705 1.019 2.224.562.518 1.282.778 2.158.778.467 0 .902-.07 1.304-.208.401-.14.8-.333 1.194-.581l.854 1.578a7.736 7.736 0 0 1-1.709.832 5.944 5.944 0 0 1-1.972.329zm-2.87-6.66h4.776c0-.834-.178-1.487-.536-1.962-.358-.475-.91-.712-1.655-.712-.642 0-1.205.226-1.687.68-.482.452-.781 1.117-.898 1.993zm9.473 6.397V59.186h2.081l.176 1.906h.087c.38-.701.84-1.238 1.38-1.61.541-.373 1.096-.559 1.666-.559.511 0 .92.073 1.227.22l-.438 2.19a4.6 4.6 0 0 0-.526-.131 3.376 3.376 0 0 0-.592-.044c-.424 0-.869.164-1.336.493-.468.328-.87.902-1.205 1.72v6.573h-2.52zm8.092.263c-.467 0-.858-.16-1.172-.482-.314-.322-.47-.73-.47-1.227 0-.497.156-.906.47-1.227a1.573 1.573 0 0 1 1.172-.482c.468 0 .855.16 1.162.482.306.321.46.73.46 1.227 0 .496-.154.905-.46 1.227-.307.321-.694.482-1.162.482z"/>
    </g>
</svg>
