<svg width="331" height="280" viewBox="0 0 331 280" fill="none" xmlns="http://www.w3.org/2000/svg">
<path d="M95.052 262.561C92.664 256.932 100.809 257.017 102.941 259.789C103.911 261.05 106.332 262.267 108.683 263.22C109.187 262.726 109.815 262.282 110.597 261.926C115.288 259.794 114.222 265.125 114.222 265.125C114.222 265.125 117.633 266.83 113.155 269.389C108.678 271.948 106.759 269.389 106.759 269.389C106.759 269.389 104.748 268.887 100.588 266.898C96.4278 264.909 95.052 262.561 95.052 262.561Z" fill="#463B31"/>
<path d="M82.4331 270.663C80.0451 265.034 88.1901 265.12 90.3223 267.892C91.292 269.152 93.7127 270.37 96.0641 271.323C96.5677 270.829 97.1957 270.384 97.9779 270.029C102.669 267.897 101.603 273.227 101.603 273.227C101.603 273.227 105.014 274.933 100.537 277.491C96.0589 280.05 94.1399 277.491 94.1399 277.491C94.1399 277.491 90.3223 276.28 87.5817 274.787C84.8411 273.295 82.4331 270.663 82.4331 270.663Z" fill="#463B31"/>
<path fill-rule="evenodd" clip-rule="evenodd" d="M106.319 184.595L106.172 228.87L110.785 262.207C107.587 263.06 106.172 269.03 104.815 263.486L89.256 189.864L106.319 184.595Z" fill="#B59173"/>
<path fill-rule="evenodd" clip-rule="evenodd" d="M92.8461 193.124L92.6992 237.398L97.3124 270.736C94.1141 271.589 92.6992 277.559 91.3423 272.015L78.9988 185.5L92.8461 193.124Z" fill="#CEA885"/>
<path fill-rule="evenodd" clip-rule="evenodd" d="M85.1883 117.466C82.0861 119.337 79.038 120.241 77.6072 119.872C74.0195 118.947 73.6897 105.813 76.4656 100.635C79.2415 95.4576 93.512 93.2008 94.2313 103.46C94.481 107.02 92.9872 110.197 90.7801 112.79L94.738 131.251H83.2412L85.1883 117.466Z" fill="#CEA885"/>
<path fill-rule="evenodd" clip-rule="evenodd" d="M85.6618 101.202C87.3191 102.077 88.4763 103.777 89.8761 106.023C90.209 105.892 90.5716 105.821 90.9509 105.821C92.5742 105.821 93.0047 106.843 93.0047 108.466C93.0047 109.29 90.4144 113.295 90.4144 113.295C90.4144 115.441 92.5639 115.586 93.6997 114.905C96.9809 112.936 101.036 106.129 97.8285 100.593C96.9419 97.8808 94.398 94.8226 92.0274 94.15C90.107 93.3467 84.9203 93.2302 83.2375 93.7118C79.9387 93.9947 73.8783 97.9432 73.0435 98.5406C73.0435 101.664 80.4931 101.283 85.6618 101.202Z" fill="#191847"/>
<path d="M83.2722 93.6937C91.5875 92.8738 92.3976 99.9547 92.2024 103.712L88.5425 102.687C88.4254 95.426 85.273 93.7424 83.2722 93.6937Z" fill="#C4C4C4"/>
<path d="M95.8624 108.305C95.8624 111.085 94.8028 113.471 90.8291 113.339C86.8555 113.206 85.7959 111.085 85.7959 108.305C85.7959 105.526 86.7231 103.272 90.8291 103.272C94.9352 103.272 95.8624 105.526 95.8624 108.305Z" fill="#C4C4C4"/>
<path d="M94.8021 107.511C94.8021 110.29 93.7425 112.676 89.7688 112.544C85.7952 112.411 84.7356 110.29 84.7356 107.511C84.7356 104.731 85.6628 102.477 89.7688 102.477C93.8749 102.477 94.8021 104.731 94.8021 107.511Z" fill="#E0E0E0"/>
<path d="M90.0064 107.601C88.64 109.895 88.0447 115.009 81.9546 114.775" stroke="#C4C4C4" stroke-width="1.75676"/>
<rect x="79.1729" y="113.311" width="3.80631" height="2.92793" rx="1.46396" fill="#191847"/>
<circle cx="89.7133" cy="108.04" r="1.75676" fill="#C4C4C4"/>
<path fill-rule="evenodd" clip-rule="evenodd" d="M84.1294 175.213L101.865 255.545H111.848L108.734 175.213H84.1294Z" fill="#1E2951"/>
<path fill-rule="evenodd" clip-rule="evenodd" d="M76.6644 175.213C73.3013 190.513 87.3706 264.914 87.3706 264.914H96.6259L102.466 175.213H76.6644Z" fill="#4B5884"/>
<path fill-rule="evenodd" clip-rule="evenodd" d="M84.3253 154.971C84.3253 154.971 64.0657 146.962 63.1088 146.428C62.1519 145.895 60.5763 143.867 60.5763 143.867C60.5763 143.867 56.2778 140.151 54.5438 140.146C50.2089 140.135 60.9892 145.148 51.5872 140.743C42.1852 136.338 51.739 145.915 52.7636 147.406C53.7881 148.897 59.5906 149.557 61.421 150.723C62.6413 151.499 82.9596 162.175 82.9596 162.175L84.3253 154.971Z" fill="#CEA885"/>
<path fill-rule="evenodd" clip-rule="evenodd" d="M79.0609 163.537C79.0609 163.537 74.8417 184.91 74.4897 185.948C74.1377 186.985 72.4282 188.901 72.4282 188.901C72.4282 188.901 69.5491 193.8 69.8577 195.506C70.629 199.772 73.6135 188.263 70.9782 198.306C68.343 208.349 76.0378 197.223 77.3196 195.946C78.6014 194.669 78.2026 188.843 79.0182 186.832C79.562 185.492 86.3937 163.58 86.3937 163.58L79.0609 163.537Z" fill="#CEA885"/>
<path fill-rule="evenodd" clip-rule="evenodd" d="M104.164 161.185C106.83 158.535 107 157.129 102.256 154.918C91.046 154.906 80.9293 153.57 68.632 148.299L66.4361 154.918C80.783 161.185 92.197 166.201 104.164 161.185Z" fill="#BD3F30"/>
<path fill-rule="evenodd" clip-rule="evenodd" d="M109.77 183.727L75.5132 185.631C75.5132 185.631 80.4724 141.127 79.4659 130.878L84.5898 121.07L93.3341 121.07L100.693 132.635C102.743 145.811 106.403 155.18 109.77 183.727Z" fill="#CE4333"/>
<path fill-rule="evenodd" clip-rule="evenodd" d="M91.4047 132.883C91.4047 132.883 94.5459 157.083 79.9062 185.631L73.7576 182.849C84.7041 157.771 82.5815 133.067 82.5815 133.067C85.8462 129.725 87.8022 130.155 91.4047 132.883Z" fill="#EF4D3B"/>
<path d="M10.0872 91.6581L59.3575 63.4353C65.3606 60.5642 72.2729 63.9139 72.2729 68.2187V78.2645C72.2729 81.6129 68.2548 89.0754 59.8358 94.0501C57.9224 95.1981 61.1114 98.6741 62.7059 99.7903C59.2618 102.852 52.9794 100.587 50.7471 98.8333L10.0873 125.986C1.47665 122.159 0.998535 122.751 0.998535 117.011V108.879C0.998535 97.3983 3.86865 95.9635 10.0872 91.6581Z" fill="#B0C2FF"/>
<path d="M14.8712 93.5713L64.1414 65.3485C70.1445 62.4774 73.2301 65.8271 73.2301 70.1319V80.1777C73.2301 83.5261 73.0387 90.9886 64.6197 95.9633C62.7063 97.1113 65.8953 100.587 67.4898 101.703C64.0457 104.765 57.7634 102.5 55.531 100.747L17.7413 123.229C8.65258 129.448 5.78247 124.664 5.78247 118.924V110.792C5.78247 99.3115 8.65258 97.8767 14.8712 93.5713Z" fill="white"/>
<path d="M33.3541 95.9321C33.8734 95.6323 34.3299 95.4847 34.7236 95.4894C35.1254 95.4893 35.4322 95.6462 35.644 95.96C35.864 96.2598 35.9693 96.6954 35.9598 97.2669C35.9431 98.2786 35.6589 99.1803 35.1073 99.972C34.564 100.75 33.8258 101.408 32.8927 101.946L32.8305 103.513L32.1003 103.935L32.0889 101.715L32.4053 101.532C33.2411 101.049 33.9008 100.52 34.3845 99.9439C34.8765 99.3537 35.1298 98.6183 35.1444 97.7377C35.1546 97.1194 34.9924 96.7259 34.6577 96.5573C34.331 96.3841 33.8918 96.4567 33.3401 96.7752C32.7883 97.0938 32.3473 97.5201 32.017 98.0541C31.6867 98.5881 31.5165 99.1549 31.5066 99.7544L30.6911 100.225C30.7004 99.6632 30.8181 99.1128 31.044 98.5741C31.2782 98.0214 31.5919 97.5201 31.9851 97.0705C32.3865 96.6067 32.8429 96.2273 33.3541 95.9321ZM32.4211 106.394C32.2426 106.497 32.0937 106.513 31.9743 106.443C31.863 106.368 31.8091 106.228 31.8125 106.022C31.8159 105.816 31.8755 105.614 31.9913 105.417C32.1154 105.207 32.2666 105.05 32.4451 104.947C32.6155 104.848 32.7564 104.837 32.8676 104.911C32.9872 104.972 33.0452 105.106 33.0418 105.312C33.0384 105.518 32.9747 105.726 32.8506 105.937C32.7347 106.143 32.5915 106.296 32.4211 106.394ZM39.5823 92.3363C40.1016 92.0364 40.5581 91.8889 40.9518 91.8935C41.3536 91.8935 41.6604 92.0504 41.8722 92.3642C42.0922 92.6639 42.1975 93.0995 42.1881 93.671C42.1713 94.6828 41.8871 95.5845 41.3355 96.3761C40.7922 97.1537 40.054 97.8119 39.1209 98.3506L39.0588 99.9174L38.3285 100.339L38.3171 98.1188L38.6335 97.9361C39.4693 97.4536 40.129 96.9242 40.6127 96.3481C41.1047 95.7578 41.358 95.0224 41.3726 94.1418C41.3828 93.5235 41.2206 93.1301 40.8859 92.9615C40.5592 92.7882 40.1201 92.8608 39.5683 93.1794C39.0165 93.4979 38.5755 93.9242 38.2452 94.4582C37.9149 94.9922 37.7447 95.559 37.7348 96.1586L36.9193 96.6294C36.9287 96.0673 37.0463 95.5169 37.2722 94.9782C37.5064 94.4255 37.8201 93.9243 38.2133 93.4746C38.6148 93.0108 39.0711 92.6314 39.5823 92.3363ZM38.6494 102.798C38.4708 102.901 38.3219 102.918 38.2025 102.847C38.0912 102.772 38.0373 102.632 38.0407 102.426C38.0442 102.22 38.1038 102.018 38.2195 101.822C38.3436 101.611 38.4948 101.454 38.6734 101.351C38.8438 101.252 38.9846 101.241 39.0959 101.316C39.2154 101.376 39.2734 101.51 39.27 101.716C39.2666 101.922 39.2029 102.131 39.0788 102.341C38.9629 102.548 38.8198 102.7 38.6494 102.798ZM45.8105 88.7404C46.3298 88.4406 46.7863 88.293 47.18 88.2976C47.5818 88.2976 47.8886 88.4545 48.1004 88.7683C48.3205 89.0681 48.4257 89.5037 48.4163 90.0751C48.3995 91.0869 48.1153 91.9886 47.5638 92.7802C47.0205 93.5578 46.2822 94.216 45.3491 94.7547L45.287 96.3216L44.5567 96.7432L44.5453 94.5229L44.8618 94.3402C45.6975 93.8577 46.3572 93.3284 46.8409 92.7522C47.3329 92.162 47.5862 91.4265 47.6008 90.546C47.6111 89.9277 47.4488 89.5342 47.1141 89.3656C46.7875 89.1923 46.3483 89.265 45.7965 89.5835C45.2448 89.9021 44.8037 90.3284 44.4734 90.8624C44.1431 91.3964 43.973 91.9632 43.963 92.5627L43.1476 93.0335C43.1569 92.4714 43.2745 91.9211 43.5004 91.3824C43.7346 90.8296 44.0483 90.3284 44.4415 89.8787C44.843 89.415 45.2993 89.0355 45.8105 88.7404ZM44.8776 99.2023C44.6991 99.3053 44.5501 99.3217 44.4307 99.2515C44.3195 99.1765 44.2655 99.036 44.269 98.8299C44.2724 98.6238 44.332 98.4224 44.4477 98.2257C44.5718 98.0149 44.7231 97.858 44.9016 97.7549C45.072 97.6565 45.2128 97.6448 45.3241 97.7197C45.4436 97.7806 45.5017 97.9141 45.4982 98.1202C45.4948 98.3263 45.4311 98.5347 45.3071 98.7455C45.1911 98.9516 45.048 99.1039 44.8776 99.2023Z" fill="black"/>
<path d="M222.383 230.041L222.236 185.766L239.298 191.035L224.345 261.464C224.49 265.522 222.053 267.237 220.725 268.17L220.685 268.198L217.318 264.657L222.383 230.041Z" fill="#CEA885"/>
<path fill-rule="evenodd" clip-rule="evenodd" d="M235.708 194.295L235.855 238.569L231.242 271.907C232.603 272.27 233.013 275.608 233.861 276.543C234.419 277.157 238.286 276.424 240.742 274.493C241.985 273.517 242.431 271.606 242.792 270.687C243.084 267.905 238.4 269.124 238.253 269.077L253.804 190.883L235.708 194.295Z" fill="#CEA885"/>
<path d="M227.565 260.732C226.16 261.552 224.979 261.366 224.344 261.318C224.579 264.831 221.465 267.564 220.099 268.345C223.612 268.052 224.344 267.32 227.565 265.417C230.786 263.514 229.322 259.707 227.565 260.732Z" fill="#CEA885"/>
<path d="M235.323 278.593C232.981 279.881 230.833 279.13 230.053 278.593C227.944 274.962 229.955 272.591 231.224 271.859C233.566 272.444 234.396 274.591 235.03 275.665C239.392 274.356 241.643 273.313 241.618 271.859C240.846 270.084 239.944 269.679 238.397 269.077C240.974 266.149 245.073 267.174 245.863 268.491C248.323 272.59 239.715 276.787 235.323 278.593Z" fill="#E3E3E3"/>
<path d="M221.422 270.819C219.079 272.108 216.932 271.356 216.151 270.819C214.043 267.189 216.054 264.817 217.322 264.085C219.665 264.671 220.05 266.539 220.684 267.613C226.144 266.179 227.798 265.287 227.277 263.5L224.496 261.304C227.072 258.376 231.172 259.4 231.962 260.718C234.421 264.817 225.813 269.014 221.422 270.819Z" fill="#E3E3E3"/>
<path fill-rule="evenodd" clip-rule="evenodd" d="M244.424 176.385L237.588 216.896H216.706L219.819 176.385H244.424Z" fill="#55B06E"/>
<path fill-rule="evenodd" clip-rule="evenodd" d="M251.888 176.385C255.252 191.684 253.166 216.896 253.166 216.896H231.927L226.087 176.385H251.888Z" fill="#6CD98B"/>
<path d="M249.523 119.148C249.124 120.169 259.097 135.124 259.097 135.124C259.097 135.124 242.494 131.757 236.433 129.268L238.041 139.223L263.196 139.516L259.097 125.901C259.097 125.901 254.351 122.445 254.799 121.07C255.47 119.006 258.286 115.126 258.129 113.324C257.971 111.521 254.303 99.4746 249.849 108.854C247.406 113.997 249.335 112.667 251.024 110.874C250.303 112.891 249.849 115.562 249.849 115.562C249.849 115.562 249.922 118.128 249.523 119.148Z" fill="#C59971"/>
<path fill-rule="evenodd" clip-rule="evenodd" d="M238.601 144.054C234.878 143.542 237.461 135.499 239.919 130.879C239.919 130.879 250.313 132.635 256.461 133.806L252.216 127.951L258.072 123.851C258.072 123.851 273.043 138.825 265.099 144.054C265.099 144.054 241.968 146.836 238.601 144.054Z" fill="#191847"/>
<path fill-rule="evenodd" clip-rule="evenodd" d="M212.501 223.5L257.501 221C257.501 221 246.73 138.125 247.737 127.877L235.217 127.242C235.217 127.242 233.29 126.907 232.347 126.752L231.819 126.684C224.809 136.167 214.001 202 212.501 223.5Z" fill="#2F3676"/>
<path fill-rule="evenodd" clip-rule="evenodd" d="M247.255 162.339C247.255 162.339 254.512 182.88 255.01 183.856C255.508 184.832 257.476 186.481 257.476 186.481C257.476 186.481 261.032 190.913 260.973 192.646C260.825 196.979 256.211 186.021 260.268 195.579C264.324 205.136 255.105 195.237 253.652 194.158C252.2 193.079 251.754 187.256 250.657 185.384C249.925 184.136 240.004 163.439 240.004 163.439L247.255 162.339Z" fill="#CEA885"/>
<rect width="9.67192" height="15.2992" rx="0.351706" transform="matrix(-0.791619 0.611015 0.611015 0.791619 250.209 103.356)" fill="#333333"/>
<rect width="8.2231" height="13.0074" rx="0.299022" transform="matrix(-0.791619 0.611015 0.611015 0.791619 250.336 104.706)" fill="white"/>
<path fill-rule="evenodd" clip-rule="evenodd" d="M242.655 118.258C245.961 120.385 249.32 121.437 250.844 121.044C254.432 120.118 254.762 106.984 251.986 101.807C249.21 96.6289 234.94 94.3721 234.22 104.631C233.967 108.246 235.511 111.466 237.773 114.08L235.769 127.271L243.526 127.658L242.655 118.258Z" fill="#CEA885"/>
<path fill-rule="evenodd" clip-rule="evenodd" d="M253.071 104.132C252.957 103.46 252.679 102.715 252.454 102.08C252.165 101.262 251.726 100.524 251.244 99.828C250.336 98.5185 249.247 97.3359 248.045 96.3545C245.849 94.5617 243.053 93.5276 240.304 93.8634C238.916 94.033 237.568 94.5628 236.421 95.4448C235.385 96.2416 234.388 97.4146 233.047 97.4989C231.587 97.5905 230.248 96.301 229.077 95.5046C227.757 94.6067 226.353 93.9525 224.81 93.6982C222.225 93.2723 219.797 94.1462 218.015 96.2684C216.12 98.5267 214.742 101.839 215.987 104.831C216.218 105.387 216.516 105.856 216.943 106.245C217.335 106.601 217.933 106.98 218.092 107.55C218.261 108.155 217.757 108.936 217.561 109.482C217.281 110.265 217.051 111.086 217.133 111.937C217.267 113.334 218.145 114.667 219.071 115.585C220.013 116.519 221.174 117.055 222.413 117.302C223.24 117.467 224.086 117.558 224.926 117.496C225.344 117.465 225.712 117.349 226.117 117.257C226.51 117.167 228.744 123.503 229.077 123.719C231.636 126.065 235.041 126.065 235.041 126.065C235.041 126.065 245.912 126.491 245.063 119.881C244.214 113.271 237.896 114.465 237.574 112.77C237.915 112.939 238.859 113.044 238.295 112.369C238.072 112.102 237.649 111.993 237.363 111.836C237.029 111.653 236.69 111.417 236.431 111.119C235.384 109.914 236.441 107.461 237.757 107.057C239.711 106.457 240.149 109.223 241.545 109.939C242.347 110.35 243.186 109.788 243.787 109.214C244.592 108.445 245.141 107.426 245.615 106.389C246.005 105.535 246.368 104.669 246.766 103.819C246.952 103.422 247.595 102.3 247.272 101.851C248.672 101.572 250.231 102.154 251.437 102.918C251.936 103.233 252.316 103.581 252.581 104.139C252.638 104.258 252.762 104.613 252.918 104.628C253.208 104.655 253.099 104.3 253.071 104.132Z" fill="#191847"/>
<path fill-rule="evenodd" clip-rule="evenodd" d="M230.639 137.003C230.639 137.003 234.046 159.229 247.139 189.019L258.665 182.648C243.672 159.758 239.368 135.707 239.368 135.707C235.59 132.959 233.734 133.711 230.639 137.003Z" fill="#4E55A5"/>
<path d="M321.801 97.8067L272.53 69.584C266.527 66.7129 259.615 70.0625 259.615 74.3674V84.4131C259.615 87.7616 263.633 95.2241 272.052 100.199C273.966 101.347 270.777 104.823 269.182 105.939C272.626 109 278.909 106.736 281.141 104.982L321.801 132.134C330.411 128.308 330.889 128.9 330.889 123.159V115.027C330.889 103.547 328.019 102.112 321.801 97.8067Z" fill="#B0C2FF"/>
<path d="M317.017 99.7199L267.747 71.4972C261.743 68.6261 258.658 71.9758 258.658 76.2806V86.3263C258.658 89.6748 258.849 97.1373 267.268 102.112C269.182 103.26 265.993 106.736 264.398 107.852C267.842 110.914 274.125 108.649 276.357 106.895L314.147 129.378C323.235 135.597 326.105 130.813 326.105 125.073V116.941C326.105 105.46 323.235 104.025 317.017 99.7199Z" fill="white"/>
<path d="M285.948 93.6036C286.464 93.9102 286.917 94.2979 287.307 94.7669C287.706 95.2406 288.01 95.7623 288.221 96.3319C288.439 96.897 288.543 97.4652 288.534 98.0367C288.517 99.0484 288.235 99.6327 287.688 99.7895C287.148 99.9418 286.416 99.7424 285.49 99.1915L285.428 100.716L284.703 100.285L284.692 98.0075L285.006 98.1943C285.836 98.6877 286.49 98.9259 286.97 98.9087C287.459 98.887 287.71 98.4358 287.725 97.5552C287.735 96.937 287.574 96.3445 287.242 95.778C286.918 95.2162 286.482 94.7724 285.934 94.4467C285.387 94.1209 284.949 94.0356 284.621 94.1906C284.293 94.3456 284.125 94.7228 284.115 95.3224L283.305 94.8409C283.315 94.2789 283.432 93.8564 283.656 93.5735C283.888 93.2861 284.2 93.145 284.59 93.1501C284.988 93.1506 285.441 93.3018 285.948 93.6036ZM285.021 103.17C284.844 103.065 284.696 102.906 284.578 102.693C284.467 102.486 284.414 102.279 284.417 102.073C284.421 101.867 284.48 101.732 284.595 101.668C284.718 101.599 284.868 101.617 285.045 101.723C285.214 101.823 285.354 101.977 285.465 102.185C285.583 102.388 285.641 102.593 285.637 102.799C285.634 103.005 285.571 103.142 285.448 103.211C285.332 103.284 285.19 103.271 285.021 103.17ZM292.129 97.2806C292.644 97.5872 293.097 97.975 293.488 98.4439C293.887 98.9177 294.191 99.4393 294.401 100.009C294.62 100.574 294.724 101.142 294.714 101.714C294.698 102.726 294.416 103.31 293.868 103.467C293.329 103.619 292.596 103.42 291.67 102.869L291.609 104.393L290.884 103.962L290.873 101.685L291.187 101.871C292.016 102.365 292.671 102.603 293.151 102.586C293.639 102.564 293.891 102.113 293.905 101.232C293.915 100.614 293.755 100.022 293.422 99.455C293.098 98.8933 292.663 98.4495 292.115 98.1238C291.567 97.798 291.13 97.7126 290.802 97.8676C290.474 98.0226 290.305 98.3999 290.295 98.9995L289.486 98.518C289.495 97.9559 289.612 97.5335 289.836 97.2506C290.069 96.9632 290.38 96.822 290.77 96.8271C291.169 96.8277 291.622 96.9788 292.129 97.2806ZM291.202 106.847C291.025 106.742 290.877 106.583 290.759 106.37C290.648 106.163 290.595 105.956 290.598 105.75C290.601 105.544 290.661 105.409 290.776 105.345C290.899 105.276 291.049 105.294 291.226 105.4C291.395 105.5 291.535 105.654 291.645 105.862C291.764 106.065 291.821 106.27 291.818 106.476C291.815 106.682 291.751 106.819 291.628 106.888C291.513 106.961 291.371 106.948 291.202 106.847ZM298.31 100.958C298.825 101.264 299.278 101.652 299.669 102.121C300.067 102.595 300.372 103.116 300.582 103.686C300.8 104.251 300.905 104.819 300.895 105.391C300.878 106.403 300.596 106.987 300.049 107.144C299.51 107.296 298.777 107.097 297.851 106.546L297.789 108.07L297.064 107.639L297.053 105.362L297.367 105.548C298.197 106.042 298.852 106.28 299.332 106.263C299.82 106.241 300.071 105.79 300.086 104.909C300.096 104.291 299.935 103.699 299.603 103.132C299.279 102.57 298.843 102.127 298.296 101.801C297.748 101.475 297.31 101.39 296.983 101.545C296.655 101.7 296.486 102.077 296.476 102.677L295.667 102.195C295.676 101.633 295.793 101.211 296.017 100.928C296.249 100.64 296.561 100.499 296.951 100.504C297.349 100.505 297.802 100.656 298.31 100.958ZM297.383 110.524C297.205 110.419 297.058 110.26 296.939 110.048C296.829 109.84 296.775 109.633 296.779 109.427C296.782 109.221 296.841 109.086 296.956 109.022C297.079 108.953 297.229 108.971 297.407 109.077C297.576 109.177 297.715 109.332 297.826 109.539C297.944 109.742 298.002 109.947 297.999 110.153C297.995 110.359 297.932 110.496 297.809 110.565C297.694 110.638 297.552 110.625 297.383 110.524Z" fill="black"/>
<path d="M154.32 3.08477C159.785 -0.948818 167.241 -0.94882 172.705 3.08477C176.401 5.81276 181.118 6.75832 185.58 5.66575L190.69 4.41436C195.749 3.17559 200.941 5.88322 202.822 10.7403C204.246 14.4188 207.634 16.9703 211.563 17.3224L218.255 17.922C222.849 18.3337 225.831 22.9564 224.312 27.3121C223.121 30.7289 224.696 34.4946 227.965 36.0461L230.075 37.0477C234.835 39.3064 235.538 45.7908 231.374 49.0179L231.119 49.2157C228.196 51.4815 227.644 55.6799 229.883 58.6242C232.79 62.4481 230.879 67.9995 226.234 69.2233L221.228 70.5422C217.652 71.4841 215.138 74.6865 215.071 78.3833C214.985 83.1245 210.936 86.821 206.206 86.4751L199.513 85.9857C195.24 85.6732 191.085 87.4767 188.396 90.8118C184.665 95.4371 178.283 96.961 172.865 94.5198L170.347 93.385C166.001 91.4268 161.024 91.4268 156.678 93.385L154.16 94.5198C148.742 96.961 142.36 95.4371 138.63 90.8118C135.94 87.4767 131.785 85.6732 127.512 85.9857L120.819 86.4751C116.09 86.821 112.04 83.1245 111.954 78.3833C111.888 74.6865 109.373 71.4841 105.798 70.5422L100.791 69.2233C96.1459 67.9995 94.2348 62.4481 97.1424 58.6242C99.3812 55.6799 98.8294 51.4815 95.9059 49.2157L95.6508 49.0179C91.4869 45.7908 92.1907 39.3064 96.95 37.0477L99.0604 36.0461C102.33 34.4946 103.904 30.7289 102.713 27.3121C101.194 22.9564 104.176 18.3337 108.771 17.922L115.463 17.3224C119.391 16.9703 122.78 14.4188 124.204 10.7403C126.084 5.88322 131.276 3.17559 136.335 4.41436L141.446 5.66575C145.907 6.75833 150.624 5.81276 154.32 3.08477Z" fill="white" fill-opacity="0.4"/>
<path d="M189.848 50.2465L190.567 50.8542L189.488 51.462L188.769 50.8542L189.848 50.2465Z" fill="#2D2D2E"/>
<path d="M190.568 50.8544L189.489 51.4621V55.3519L190.568 54.8657V50.8544Z" fill="#4C4C4C"/>
<path d="M181.219 31.8491L146.492 11.9211L127.193 23.3473L161.595 43.161L181.219 31.8491Z" fill="#F2F2F2"/>
<path d="M181.013 31.5776L161.3 43.0038V65.5709L181.013 53.9439V31.5776Z" fill="#898989"/>
<path d="M164.078 63.8605V46.9642L175.825 51.0971L183.616 67.3856V80.9999L127.759 48.4229V46.2349L161.321 65.5623L164.078 63.8605Z" fill="url(#paint0_linear)"/>
<path d="M188.291 44.047L178.582 38.3339L164.078 46.9643L173.667 52.5559L176.185 65.684L183.616 72.7342V81L198 72.7342V66.8995V64.1037L190.688 57.0535L188.291 44.047Z" fill="url(#paint1_linear)"/>
<path d="M174.746 53.6498L187.811 45.8702L189.609 55.3516L176.424 63.0096L174.746 53.6498Z" fill="url(#paint2_linear)"/>
<path d="M164.797 49.2738L172.588 53.6498L174.146 62.645L164.797 57.4181V49.2738Z" fill="url(#paint3_linear)"/>
<path d="M161.595 42.8822L127.193 23.0686L127.193 45.9211L161.235 65.7347L161.595 42.8822Z" fill="#C2CCDA"/>
<path d="M141.801 55.3447C141.801 56.9521 142.914 58.9067 144.286 59.7104C145.659 60.5141 145.483 60.3693 147.048 58.969C147.14 57.2885 145.659 54.6932 144.286 53.8895C142.914 53.0858 141.801 53.7373 141.801 55.3447Z" fill="#4C4C4C"/>
<path d="M143.815 53.7713C143.496 53.6903 142.353 53.9656 141.777 54.7436" stroke="#363636" stroke-width="0.307346"/>
<path d="M145.926 62.4508C146.296 62.546 147.579 62.0838 148.177 60.943" stroke="#363636" stroke-width="0.307346"/>
<path d="M142.018 55.9809C142.018 58.074 143.467 60.619 145.254 61.6655C147.042 62.7121 146.812 62.5236 148.85 60.7002C148.97 58.512 147.042 55.1326 145.254 54.0861C143.467 53.0396 142.018 53.8879 142.018 55.9809Z" fill="#363636"/>
<ellipse rx="3.75028" ry="3.78974" transform="matrix(-0.862966 -0.505262 0 1 144.295 58.3619)" fill="#535456"/>
<ellipse rx="2.36129" ry="2.38613" transform="matrix(-0.862966 -0.505261 0 1 144.056 58.4443)" fill="#D1D1D1"/>
<ellipse rx="0.972294" ry="0.982525" transform="matrix(-0.862966 -0.505261 0 1 144.055 58.4443)" fill="#3A3A3A"/>
<path d="M130.054 48.2944C130.054 49.9018 131.167 51.8564 132.54 52.6601C133.912 53.4638 133.736 53.319 135.301 51.9187C135.393 50.2382 133.912 47.6429 132.54 46.8392C131.167 46.0355 130.054 46.687 130.054 48.2944Z" fill="#4C4C4C"/>
<path d="M132.069 46.7211C131.749 46.6401 130.607 46.9155 130.031 47.6934" stroke="#363636" stroke-width="0.307346"/>
<path d="M134.18 55.4006C134.55 55.4958 135.833 55.0336 136.431 53.8929" stroke="#363636" stroke-width="0.307346"/>
<path d="M130.271 48.9306C130.271 51.0237 131.72 53.5687 133.508 54.6153C135.295 55.6618 135.066 55.4733 137.104 53.6499C137.223 51.4617 135.295 48.0823 133.508 47.0358C131.72 45.9893 130.271 46.8376 130.271 48.9306Z" fill="#363636"/>
<ellipse rx="3.75028" ry="3.78974" transform="matrix(-0.862967 -0.505261 0 1 132.549 51.3116)" fill="#535456"/>
<ellipse rx="2.36128" ry="2.38613" transform="matrix(-0.862966 -0.505263 0 1 132.309 51.3941)" fill="#D1D1D1"/>
<ellipse rx="0.972294" ry="0.982526" transform="matrix(-0.862966 -0.505262 0 1 132.309 51.3941)" fill="#3A3A3A"/>
<path d="M169.609 71.8763C169.609 73.4837 170.722 75.4383 172.095 76.242C173.468 77.0457 173.292 76.9009 174.857 75.5006C174.949 73.8201 173.468 71.2248 172.095 70.4211C170.722 69.6174 169.609 70.2689 169.609 71.8763Z" fill="#4C4C4C"/>
<path d="M171.624 70.3032C171.304 70.2221 170.162 70.4975 169.586 71.2755" stroke="#363636" stroke-width="0.307346"/>
<path d="M173.735 78.9826C174.105 79.0779 175.388 78.6157 175.985 77.4749" stroke="#363636" stroke-width="0.307346"/>
<path d="M169.826 72.5126C169.826 74.6056 171.275 77.1507 173.063 78.1972C174.85 79.2437 174.621 79.0552 176.659 77.2318C176.779 75.0436 174.85 71.6642 173.063 70.6177C171.275 69.5712 169.826 70.4195 169.826 72.5126Z" fill="#363636"/>
<ellipse rx="3.75028" ry="3.78974" transform="matrix(-0.862967 -0.505261 0 1 172.104 74.8935)" fill="#535456"/>
<ellipse rx="2.36129" ry="2.38613" transform="matrix(-0.862967 -0.505261 0 1 171.864 74.976)" fill="#D1D1D1"/>
<ellipse rx="0.972294" ry="0.982524" transform="matrix(-0.862967 -0.50526 0 1 171.864 74.9761)" fill="#3A3A3A"/>
<path d="M161.607 42.9174L127.206 23.1037L127.206 45.9563L161.248 65.7699L161.607 42.9174Z" fill="#C2CCDA"/>
<rect width="3.2154" height="1.62435" transform="matrix(-0.856233 0.51659 0 1 187.608 75.2871)" fill="#DE9753"/>
<rect width="3.2154" height="1.62435" transform="matrix(-0.856233 0.516589 0 1 197.28 69.6956)" fill="#DE9753"/>
<rect width="5.70967" height="1.62435" transform="matrix(-0.856233 0.51659 0 1 193.721 71.8361)" fill="#C4C4C4"/>
<rect width="2.79983" height="0.97245" transform="matrix(-0.856233 -0.516591 0 1 172.348 65.3071)" fill="#898989"/>
<path d="M172.828 64.8335V60.7006L172.109 60.2144V64.3473L172.828 64.8335Z" fill="#3A3A3A"/>
<path d="M173.787 59.2418L174.507 59.728L172.828 60.7005L172.109 60.2143L173.787 59.2418Z" fill="#303133"/>
<path d="M172.828 60.7006L174.507 59.7281V63.8611L172.828 64.8335V60.7006Z" fill="#525357"/>
<defs>
<linearGradient id="paint0_linear" x1="166.236" y1="48.0582" x2="156.321" y2="65.0776" gradientUnits="userSpaceOnUse">
<stop stop-color="#2B4499"/>
<stop offset="0.749464" stop-color="#2B4499"/>
<stop offset="0.75" stop-color="#404143"/>
<stop offset="1" stop-color="#404143"/>
</linearGradient>
<linearGradient id="paint1_linear" x1="175.825" y1="40.4003" x2="195.533" y2="74.3194" gradientUnits="userSpaceOnUse">
<stop stop-color="#3F5CC2"/>
<stop offset="0.234175" stop-color="#405DC2"/>
<stop offset="0.234275" stop-color="#A3A3A3"/>
<stop offset="0.234375" stop-color="#293B7A"/>
<stop offset="0.552083" stop-color="#2A3C7B"/>
<stop offset="0.552183" stop-color="#3F5CC2"/>
<stop offset="0.804454" stop-color="#405DC2"/>
<stop offset="0.810077" stop-color="#415EC2"/>
<stop offset="0.814339" stop-color="#293B7A"/>
<stop offset="0.865219" stop-color="#2A3C7B"/>
<stop offset="0.867454" stop-color="#535456"/>
<stop offset="1" stop-color="#525356"/>
</linearGradient>
<linearGradient id="paint2_linear" x1="187.451" y1="49.76" x2="164.313" y2="47.8685" gradientUnits="userSpaceOnUse">
<stop stop-color="#A0B3F6"/>
<stop offset="0.192159" stop-color="#A0B3F7"/>
<stop offset="0.195181" stop-color="#607AD6"/>
<stop offset="0.886167" stop-color="#607AD6"/>
<stop offset="0.887989" stop-color="#A0B3F7"/>
<stop offset="0.997653" stop-color="#A0B3F7"/>
</linearGradient>
<linearGradient id="paint3_linear" x1="187.451" y1="49.76" x2="164.313" y2="47.8685" gradientUnits="userSpaceOnUse">
<stop stop-color="#A0B3F6"/>
<stop offset="0.192159" stop-color="#A0B3F7"/>
<stop offset="0.195181" stop-color="#607AD6"/>
<stop offset="0.886167" stop-color="#607AD6"/>
<stop offset="0.887989" stop-color="#A0B3F7"/>
<stop offset="0.997653" stop-color="#A0B3F7"/>
</linearGradient>
</defs>
</svg>
