<svg xmlns="http://www.w3.org/2000/svg" width="118" height="92" viewBox="0 0 118 92">
    <defs>
        <linearGradient id="a" x1=".11%" x2="100.013%" y1="49.961%" y2="49.961%">
            <stop offset="0%" stop-color="#EAD18C" stop-opacity="0"/>
            <stop offset="100%" stop-color="#524F63" stop-opacity=".7"/>
        </linearGradient>
        <linearGradient id="b" x1="-103.419%" x2="273.447%" y1="82.544%" y2="21.132%">
            <stop offset="0%" stop-color="#EAD18C" stop-opacity="0"/>
            <stop offset="100%" stop-color="#524F63" stop-opacity=".7"/>
        </linearGradient>
        <linearGradient id="c" x1="99.648%" x2="-110.685%" y1="50.834%" y2="45.963%">
            <stop offset="0%" stop-color="#484EC2" stop-opacity="0"/>
            <stop offset="100%" stop-color="#444BCC" stop-opacity=".5"/>
        </linearGradient>
        <linearGradient id="d" x1="99.721%" x2="-.182%" y1="49.961%" y2="49.961%">
            <stop offset="0%" stop-color="#D37897" stop-opacity="0"/>
            <stop offset="89.88%" stop-color="#BC547C"/>
        </linearGradient>
        <linearGradient id="e" x1="203.303%" x2="-135.424%" y1="82.544%" y2="27.347%">
            <stop offset="0%" stop-color="#D37897" stop-opacity="0"/>
            <stop offset="100%" stop-color="#BC547C"/>
        </linearGradient>
        <linearGradient id="f" x1=".279%" x2="210.612%" y1="50.834%" y2="45.963%">
            <stop offset="0%" stop-color="#484EC2" stop-opacity="0"/>
            <stop offset="100%" stop-color="#444BCC" stop-opacity=".5"/>
        </linearGradient>
        <linearGradient id="g" x1="64.142%" x2="-62.19%" y1="49.425%" y2="53.839%">
            <stop offset="0%" stop-color="#484EC2" stop-opacity="0"/>
            <stop offset="100%" stop-color="#444BCC" stop-opacity=".5"/>
        </linearGradient>
    </defs>
    <g fill="none" fill-rule="evenodd">
        <path fill="#C6DCEF" d="M106.199 0h-94.67C9.64 0 8.102 1.54 8.102 3.43v65.182h101.527V3.429c0-1.89-1.54-3.429-3.43-3.429z"/>
        <path fill="#C6DCEF" d="M116.378 67.45H1.35a1.21 1.21 0 0 0-1.215 1.216v1.566c0 .675.54 1.188 1.188 1.188h115.028c.675 0 1.188-.54 1.188-1.188v-1.566c.054-.675-.486-1.215-1.16-1.215z"/>
        <path fill="#4476C2" d="M106.064 1.458h-94.4a2.138 2.138 0 0 0-2.132 2.133v64.076h98.665V3.564a2.115 2.115 0 0 0-2.133-2.106z"/>
        <path fill="#2D2C56" d="M13.069 6.183h91.564v59.188H13.069z"/>
        <path fill="#F7F7F7" d="M59.377 4.104a.513.513 0 0 1-.513.513.531.531 0 0 1-.513-.513c0-.297.243-.513.513-.513s.513.243.513.513z"/>
        <path fill="#737AFB" d="M68.747 69.179H49.008a.455.455 0 0 0-.459.459c0 .27.216.459.46.459h19.738c.27 0 .459-.216.459-.459a.473.473 0 0 0-.46-.46z"/>
        <g opacity=".25">
            <path fill="#D98E9D" d="M24.572 9.45h9.181v1.62h-9.18z"/>
            <path fill="#FFF" d="M16.282 9.45h3.78v1.62h-3.78zM16.282 12.42h3.78v1.62h-3.78zM16.282 15.93h3.78v1.62h-3.78zM16.282 19.442h3.78v1.62h-3.78zM16.282 22.952h3.78v1.62h-3.78zM16.282 26.462h3.78v1.62h-3.78z"/>
            <path fill="#E0E4ED" d="M35.642 9.45h30.782v1.62H35.642z"/>
            <path fill="#D98E9D" d="M27.812 12.42h9.181v1.62h-9.181z"/>
            <path fill="#E0E4ED" d="M38.883 12.42h30.782v1.62H38.883z"/>
            <path fill="#D98E9D" d="M33.212 15.931h9.181v1.62h-9.18z"/>
            <path fill="#E0E4ED" d="M44.283 15.931h30.782v1.62H44.283z"/>
            <path fill="#D98E9D" d="M38.613 19.441h9.18v1.62h-9.18z"/>
            <path fill="#E0E4ED" d="M49.684 19.441h30.782v1.62H49.684z"/>
            <g>
                <path fill="#D98E9D" d="M33.212 22.952h9.181v1.62h-9.18z"/>
                <path fill="#E0E4ED" d="M44.283 22.952h46.983v1.62H44.283z"/>
            </g>
            <g>
                <path fill="#D98E9D" d="M27.812 26.462h9.181v1.62h-9.181z"/>
                <path fill="#E0E4ED" d="M38.883 26.462h19.981v1.62H38.883z"/>
            </g>
        </g>
        <g opacity=".25">
            <path fill="#D98E9D" d="M24.572 31.052h9.181v1.62h-9.18z"/>
            <path fill="#FFF" d="M16.282 31.052h3.78v1.62h-3.78zM16.282 34.022h3.78v1.62h-3.78zM16.282 37.532h3.78v1.62h-3.78zM16.282 41.043h3.78v1.62h-3.78zM16.282 44.553h3.78v1.62h-3.78zM16.282 48.063h3.78v1.62h-3.78z"/>
            <path fill="#E0E4ED" d="M35.642 31.052h30.782v1.62H35.642z"/>
            <path fill="#D98E9D" d="M27.812 34.022h9.181v1.62h-9.181z"/>
            <path fill="#E0E4ED" d="M38.883 34.022h30.782v1.62H38.883z"/>
            <path fill="#D98E9D" d="M33.212 37.533h9.181v1.62h-9.18z"/>
            <path fill="#E0E4ED" d="M44.283 37.533h30.782v1.62H44.283z"/>
            <path fill="#D98E9D" d="M24.572 52.654h9.181v1.62h-9.18z"/>
            <path fill="#FFF" d="M16.282 52.654h3.78v1.62h-3.78zM16.282 55.624h3.78v1.62h-3.78zM16.282 59.134h3.78v1.62h-3.78z"/>
            <path fill="#E0E4ED" d="M35.642 52.654h30.782v1.62H35.642z"/>
            <path fill="#D98E9D" d="M27.812 55.624h9.181v1.62h-9.181z"/>
            <path fill="#E0E4ED" d="M38.883 55.624h30.782v1.62H38.883z"/>
            <path fill="#D98E9D" d="M33.212 59.134h9.181v1.62h-9.18z"/>
            <path fill="#E0E4ED" d="M44.283 59.134h30.782v1.62H44.283z"/>
            <g>
                <path fill="#D98E9D" d="M38.613 41.043h9.18v1.62h-9.18z"/>
                <path fill="#E0E4ED" d="M49.684 41.043h46.983v1.62H49.684z"/>
            </g>
            <g>
                <path fill="#D98E9D" d="M33.212 44.553h9.181v1.62h-9.18z"/>
                <path fill="#E0E4ED" d="M44.283 44.553h30.782v1.62H44.283z"/>
            </g>
            <g>
                <path fill="#D98E9D" d="M27.812 48.063h9.181v1.62h-9.181z"/>
                <path fill="#E0E4ED" d="M38.883 48.063h30.782v1.62H38.883z"/>
            </g>
        </g>
        <path fill="#737AFB" d="M25.517 67.451h3.591v3.969h-3.591zM32.51 67.451h3.591v3.969H32.51zM86.028 67.451h3.591v3.969h-3.591zM92.239 67.451h3.591v3.969h-3.591z" opacity=".3"/>
        <g>
            <path fill="#2D2C56" d="M30.89 83.274l.027 1.944s-.243 1.242-.432 2.565-.35 2.727-.135 3.078c.405.649 1.188 0 1.323-.648s.324-4.725.324-4.725l.135-2.62-1.242.406zM28.892 83.004l.297 1.755s.594 4.78.27 5.508c-.324.73-1.377.405-1.323-.594.054-.972-.189-4.455-.189-4.455l-.594-2.106 1.54-.108z"/>
            <g transform="translate(22.952 40.233)">
                <path fill="#37354C" d="M6.75 21.44l.135 2.16-5.562 2.673A2.408 2.408 0 0 0 .162 29.08l3.834 14.284 1.917-.594-1.7-13.15a1.511 1.511 0 0 1 1.241-1.701l1.972-.297 2.106-2.133-2.43 2.187a2.405 2.405 0 0 0-.784 2.106l1.567 13.258 1.728.432.783-13.069a2.001 2.001 0 0 1 1.404-1.782l3.43-1.08c.54-.324.89-.918.89-1.566l-.135-4.59-9.235.054z"/>
                <path fill="#EAD18C" d="M16.363 26.273l-.918-17.848s-3.807-.216-4.914-.216c-.621 0-1.674.297-2.484.567-.783.243-1.432.216-1.81.945L0 21.656l3.834.35 1.27-1.458-.649-.972 2.322-5.481-.459 9.964 10.045 2.214z"/>
                <path fill="url(#a)" d="M6.696 11.908l-4.13 7.452 1.295 1.512s.513.108 1.026-.054l.216-.27-.648-.972 2.322-5.481-.08-2.187z" opacity=".5"/>
                <path fill="#FFF" d="M11.638 11.34a2.282 2.282 0 0 0 2.268-2.267c0-.243-.054-.486-.108-.73-1.161-.053-2.646-.134-3.267-.134-.27 0-.648.054-1.026.162a2.013 2.013 0 0 0-.108.702c-.027 1.242.999 2.268 2.24 2.268z"/>
                <path fill="url(#b)" d="M15.904 11.503l.46 14.878-6.13-1.485z"/>
                <path fill="#EEBCC5" d="M10.153 6.372c.108.216.864 3.133.864 3.133s.27.486.918.432c.648-.054.918-.945.918-.945l-1.107-3.673-1.593 1.053z"/>
                <path fill="#EEBCC5" d="M14.095 4.563c0 2.025-2.133 4.24-4.158 4.24-2.025 0-3.133-2.242-3.133-4.24A3.647 3.647 0 0 1 10.45.918a3.647 3.647 0 0 1 3.645 3.645z"/>
                <circle cx="10.365" cy="4.841" r="4.104" fill="#EEBCC5" transform="rotate(-80.741 10.365 4.841)"/>
                <path fill="#EFF2F7" fill-rule="nonzero" d="M7.453 7.912c-.487 0-1.027-.405-1.189-.919-.108-.27-.08-.54.054-.702.108-.162.297-.243.54-.243.487 0 1.027.405 1.189.918.108.27.08.54-.054.703a.68.68 0 0 1-.54.243zM6.83 6.183a.488.488 0 0 0-.405.19c-.108.134-.108.35-.027.593.162.46.649.81 1.054.81a.488.488 0 0 0 .405-.188c.108-.135.108-.351.027-.595-.135-.459-.621-.81-1.054-.81zM9.883 7.912c-.486 0-1.026-.405-1.188-.919-.108-.27-.081-.54.054-.702.108-.162.297-.243.54-.243.486 0 1.026.405 1.188.918.108.27.08.54-.054.703a.68.68 0 0 1-.54.243zm-.621-1.729a.488.488 0 0 0-.405.19c-.108.134-.108.35-.027.593.162.46.648.81 1.053.81a.488.488 0 0 0 .405-.188c.108-.135.108-.351.027-.595-.162-.459-.621-.81-1.053-.81z"/>
                <path fill="#2D2B42" d="M7.885 7.21c.054.108.054.243-.027.297-.081.054-.19 0-.27-.135-.054-.108-.054-.243.027-.297.08-.027.189.027.27.135zM9.72 7.29c.055.109.055.244-.026.298-.081.054-.19 0-.27-.135-.054-.108-.054-.243.027-.297.08-.027.189.027.27.135z"/>
            </g>
            <path fill="#EEBCC5" d="M34.076 64.805c-.162-.054-1.512-.702-2.457-.702-.945 0-2.133.999-2.133.999s-.162.54.486.432c.648-.108-.08.405-.08.405s.026.027.782.135c.756.108 3.645-.054 3.645-.054l-.243-1.215z"/>
            <path fill="#EAD18C" d="M38.397 48.657l.513 11.746-4.834 4.375.243 1.215 6.805-3.619a1.782 1.782 0 0 0 .918-1.809L40.8 51.574a3.284 3.284 0 0 0-1.782-2.62l-.621-.297z"/>
            <path fill="#FFF" d="M34.59 67.019H22.303v-.891h12.285c.243 0 .46.189.46.459-.028.216-.217.432-.46.432z"/>
            <path fill="#FFF" d="M31.214 67.019H19.36c-.513 0-.972-.351-1.107-.864l-2.106-7.885c-.189-.729.351-1.458 1.107-1.458h10.342c.513 0 .972.351 1.107.864l2.511 9.343z"/>
            <path fill="url(#c)" d="M1.323.108C.567.108 0 .838.216 1.566l2.106 7.885c.054.243.216.459.378.594L9.91.108H1.323z" transform="translate(15.931 56.704)"/>
            <path fill="#737AFB" d="M24.22 62.617c.136.514-.188.919-.728.919s-1.053-.405-1.188-.919c-.135-.513.189-.918.729-.918.513-.027 1.053.405 1.188.918z"/>
            <path fill="#4476C2" d="M33.32 40.989c-2.106 0-3.834 1.593-4.077 3.645.702.54 1.647.756 2.511.621 1.026-.189 1.971-.89 2.403-1.836-.027.46-.054.918 0 1.377.081.46.27.891.621 1.188.027-.324.054-.648.216-.918.163-.27.514-.459.81-.35.217.08.352.296.379.54.027.215-.027.458-.108.674a3.25 3.25 0 0 1-.567.918c.486.081.999.135 1.485.081.27-.54.405-1.134.405-1.782.027-2.322-1.81-4.158-4.078-4.158z"/>
            <path fill="#EEBCC5" d="M36.83 45.768c0 .675-.566 1.242-1.241 1.242a1.256 1.256 0 0 1-1.243-1.242c0-.675.567-1.242 1.243-1.242.702 0 1.242.54 1.242 1.242zM28.892 83.004l.216 1.296-1.296.432-.378-1.296zM30.89 84.732l1.08.19.081-1.378-1.16-.27z"/>
        </g>
        <g>
            <path fill="#2D2C56" d="M86.676 83.274l-.027 1.944s.243 1.242.432 2.565c.19 1.323.351 2.727.135 3.078-.405.649-1.188 0-1.323-.648s-.324-4.725-.324-4.725l-.135-2.62 1.242.406zM88.674 83.004l-.297 1.755s-.594 4.78-.27 5.508c.324.73 1.377.405 1.323-.594-.054-.972.19-4.455.19-4.455l.593-2.106-1.539-.108z"/>
            <g transform="translate(78.036 40.233)">
                <path fill="#50AEE5" d="M9.829 21.44l-.135 2.16 5.562 2.673c1 .54 1.485 1.701 1.161 2.808l-3.834 14.284-1.917-.594 1.7-13.15a1.511 1.511 0 0 0-1.241-1.701l-1.971-.297-2.106-2.133 2.43 2.187c.594.54.89 1.323.783 2.106L8.695 43.041l-1.729.432-.783-13.069a2.001 2.001 0 0 0-1.404-1.782l-3.429-1.08a1.837 1.837 0 0 1-.891-1.566l.135-4.59 9.235.054z"/>
                <path fill="#D98E9D" d="M.216 26.273l.918-17.848s3.807-.216 4.914-.216c.621 0 1.675.297 2.485.567.783.243 1.43.216 1.809.945l6.237 11.935-3.834.35-1.27-1.458.649-.972-2.322-5.481.459 9.937-10.045 2.24z"/>
                <path fill="url(#d)" d="M9.883 11.908l4.131 7.452-1.296 1.512s-.513.108-1.026-.054l-.216-.27.648-.972-2.322-5.481.08-2.187z" opacity=".5"/>
                <path fill="#FFF" d="M6.21 13.582c-1.242 0-3.564-3.267-3.564-4.536 0-.243.054-.486.108-.73 1.161-.053 2.646-.134 3.267-.134.27 0 .648.054 1.027.162.08.216.108.459.108.702.054 1.269.297 4.536-.946 4.536z"/>
                <path fill="url(#e)" d="M.675 11.503L.216 26.38l6.13-1.485z"/>
                <path fill="#EEBCC5" d="M6.426 6.372c-.108.216-.864 3.133-.864 3.133s-.27.486-.918.432c-.648-.054-.918-.945-.918-.945l1.107-3.673 1.593 1.053z"/>
                <path fill="#EEBCC5" d="M2.484 4.563c0 2.025 2.133 4.24 4.158 4.24 2.026 0 3.133-2.242 3.133-4.24A3.647 3.647 0 0 0 6.129.918a3.647 3.647 0 0 0-3.645 3.645z"/>
                <circle cx="6.212" cy="4.868" r="4.104" fill="#EEBCC5" transform="rotate(-9.259 6.212 4.868)"/>
                <path fill="#2D2B42" d="M8.91 7.102c-.08.135-.08.297.028.35.108.055.243 0 .324-.161.08-.135.08-.298-.027-.352-.081-.054-.243 0-.324.163zM6.858 7.318c-.08.162-.08.324.027.405.108.054.27-.027.352-.162.08-.162.08-.324-.027-.405-.108-.081-.27 0-.352.162z"/>
            </g>
            <path fill="#EEBCC5" d="M83.49 64.805c.162-.054 1.512-.702 2.457-.702.945 0 2.133.999 2.133.999s.162.54-.486.432c-.648-.108.081.405.081.405s-.027.027-.783.135c-.756.108-3.645-.054-3.645-.054l.243-1.215z"/>
            <path fill="#D98E9D" d="M79.143 48.657l-.513 11.746 4.833 4.375-.243 1.215-6.778-3.619a1.782 1.782 0 0 1-.918-1.809l1.242-8.991a3.284 3.284 0 0 1 1.783-2.62l.594-.297z"/>
            <path fill="#FFF" d="M82.977 67.019h12.286v-.891H82.977a.455.455 0 0 0-.46.459c.028.216.217.432.46.432z"/>
            <path fill="#FFF" d="M86.352 67.019h11.854c.513 0 .972-.351 1.107-.864l2.106-7.885c.19-.729-.35-1.458-1.107-1.458H89.97c-.513 0-.972.351-1.107.864l-2.51 9.343z"/>
            <path fill="url(#f)" d="M17.956.108c.756 0 1.323.73 1.107 1.458l-2.106 7.885a1.135 1.135 0 0 1-.378.594L9.37.108h8.587z" transform="translate(82.356 56.704)"/>
            <path fill="#737AFB" d="M93.346 62.617c-.135.514.189.919.729.919s1.053-.405 1.188-.919c.135-.513-.19-.918-.73-.918-.54-.027-1.052.405-1.187.918z"/>
            <path fill="#4476C2" d="M84.246 40.989c2.106 0 3.834 1.593 4.077 3.645-.702.54-1.647.756-2.51.621-1.027-.189-1.972-.89-2.404-1.836.027.46.054.918 0 1.377-.081.46-.27.891-.621 1.188-.027-.324-.054-.648-.216-.918s-.513-.459-.81-.35c-.216.08-.351.296-.378.54-.027.215.027.458.108.674.135.324.324.648.567.918-.486.081-1 .135-1.485.081a3.929 3.929 0 0 1-.405-1.782c-.027-2.322 1.809-4.158 4.077-4.158z"/>
            <path fill="#EEBCC5" d="M80.709 45.768c0 .675.567 1.242 1.242 1.242s1.242-.567 1.242-1.242-.567-1.242-1.242-1.242-1.242.54-1.242 1.242zM88.674 83.004l-.243 1.296 1.323.432.351-1.296zM86.676 84.732l-1.08.19-.08-1.378 1.16-.27z"/>
        </g>
        <circle cx="81.978" cy="40.611" r="2.646" fill="#4476C2"/>
        <path fill="#737AFB" d="M52.006 67.451h3.591v3.969h-3.591zM64.535 67.667h3.591v3.753h-3.591z" opacity=".3"/>
        <g>
            <path fill="#37354C" d="M57.19 41.583l-1.458 1.782-.73 1.512-.674 1.917s-1.188 1.107-1.107 1.107c.08 0-.081 1.35.054 1.54.135.189 1.458 1.782 1.458 1.782s1.296.837 1.809.945c.513.108 3.105 1.242 3.105 1.242l1.593-1.512-.594-.783s1.647-1 1.863-1.134c.19-.135 1-.918 1-.918s-.027-.703-.162-1.135c-.108-.459-.919-2.646-.919-2.646S61.375 43.77 61.24 43.5s-.729-1.134-.729-1.134l-3.32-.783z"/>
            <path fill="#6888CD" d="M63.617 62.644l-10.153.081-.081-10.341c0-.621.486-1.107 1.107-1.107l7.965-.054c.622 0 1.108.486 1.108 1.107l.054 10.314z"/>
            <path fill="#37354C" d="M56.515 51.25s.756.89.756 2.754c0 1.863.054 5.265.054 5.265h2.268v-5.373s-.189-1.836 1.27-3.24l-2.485.054-1.863.54z"/>
            <path fill="#EEBCC5" d="M58.378 53.41c-.675 0-1.242-.54-1.242-1.215l-.027-3.754c0-.08.081-.162.162-.162l2.133-.027c.081 0 .162.081.162.162l.027 3.754c0 .675-.54 1.242-1.215 1.242z"/>
            <path fill="#9B5342" d="M62.671 47.55v-.135c0-.378-.054-.729-.135-1.08v-.486a4.304 4.304 0 0 0-4.293-4.293 4.304 4.304 0 0 0-4.293 4.293v1.674h8.721v.027z"/>
            <path fill="#EEBCC5" d="M62.212 46.362v-.405a3.947 3.947 0 0 0-3.942-3.942 3.947 3.947 0 0 0-3.942 3.942v1.62c0 .108 0 .216.027.324.27 1.972 1.944 3.484 3.97 3.484a4.033 4.033 0 0 0 4.022-4.024c0-.35-.054-.675-.135-.999z"/>
            <path fill="#37354C" d="M57.055 48.063a.3.3 0 0 1-.297.297.3.3 0 0 1-.297-.297.3.3 0 0 1 .297-.297c.135 0 .297.135.297.297zM59.944 48.063a.3.3 0 0 1-.297.297.3.3 0 0 1-.297-.297.3.3 0 0 1 .297-.297c.135 0 .297.135.297.297z"/>
            <path fill="#EEBCC5" d="M55.435 47.928c0 .621-.513 1.107-1.107 1.107a1.112 1.112 0 0 1-1.107-1.107 1.13 1.13 0 0 1 1.107-1.107c.62-.027 1.107.486 1.107 1.107zM63.32 47.928c0 .621-.514 1.107-1.108 1.107a1.112 1.112 0 0 1-1.107-1.107 1.13 1.13 0 0 1 1.107-1.107c.621-.027 1.108.486 1.108 1.107z"/>
            <path fill="#244382" d="M58.567 67.208l-4.995 2.349.918 15.202h-1.782l-3.618-15.58a1.674 1.674 0 0 1 .729-1.782l4.725-2.89 4.023 2.7z"/>
            <path fill="#D98E9D" d="M54.3 47.2a.735.735 0 0 0-.674.728c0 .378.297.702.675.73v-1.459zM62.131 47.2a.735.735 0 0 1 .675.728.735.735 0 0 1-.675.73v-1.459z"/>
            <path fill="#37354C" d="M57.325 54.355h2.295v12.259h-2.295zM61.024 46.362c.108.351.27.73.594.837.27.081.54-.08.783-.216.135-.08.27-.189.27-.35.027-.136-.054-.244-.108-.379-.243-.432-.486-.89-.81-1.242-.297-.324-.837-.864-1.134-.297-.189.351.297 1.27.405 1.647z"/>
            <path fill="#37354C" d="M61.456 43.824a5.184 5.184 0 0 0-3.132-1.026l.054-.702c-1.16 0-2.295 1.08-3.16 1.728.757.864 1.864 1.674 3.133 1.674 1.215 0 2.35-.81 3.105-1.674z"/>
            <path fill="#6888CD" d="M47.82 60.592c-.162-.216-.189-.486-.135-.756.567-2.295 4.672-7.668 4.834-7.884.27-.351 1.674-.648 1.674-.648l.162 3.699-3.7 4.347a.95.95 0 0 0-.134 1.026l2.916 5.94-1.54.433-4.077-6.157z"/>
            <path fill="#244382" d="M61.132 64.508l4.726 2.889c.594.378.89 1.08.729 1.782l-3.619 15.58h-1.782l.918-15.202-4.995-2.35 4.023-2.7z"/>
            <path fill="#6888CD" d="M68.504 60.484c.108-.216.162-.459.108-.675-.46-2.24-4.104-7.614-4.293-7.857-.27-.351-1.675-.648-1.675-.648l-.162 3.699 3.187 4.24c.216.296.27.647.135.998L63.4 66.317l1.539.432 3.564-6.265z"/>
            <path fill="#37354C" d="M55.516 46.362c-.108.351-.27.73-.594.837-.27.081-.54-.08-.783-.216-.135-.08-.27-.189-.27-.35-.027-.136.054-.244.108-.379.243-.432.486-.89.81-1.242.297-.324.837-.864 1.134-.297.189.351-.297 1.27-.405 1.647z"/>
            <path fill="#EEBCC5" d="M54.166 66.344c0 .702-.567 1.296-1.296 1.296a1.28 1.28 0 0 1-1.296-1.296 1.296 1.296 0 0 1 2.592 0z"/>
            <path fill="#6888CD" d="M61.834 42.771c-.54-1.377-3.483-1.863-3.51-1.863-.027 0-2.997.486-3.51 1.863-.54 1.404-2.106 5.292-2.052 6.373.054 1.053 1.998 2.133 1.998 2.133h1.782s-2.646-1.782-2.916-2.593c-.27-.783.729-1.647.999-1.863 1.107-1.89 2.187-3.05 2.89-3.699a1.209 1.209 0 0 1 1.646 0c.702.648 1.782 1.81 2.89 3.7.27.215 1.242 1.08.998 1.862-.27.784-2.646 2.566-2.646 2.566h1.512s1.918-1.053 1.999-2.133c.027-1.054-1.567-4.969-2.08-6.346z"/>
            <path fill="#EEBCC5" d="M65.399 66.587a1.258 1.258 0 0 0-1.215-1.35 1.258 1.258 0 0 0-1.35 1.215 1.258 1.258 0 0 0 1.215 1.35c.675.027 1.296-.513 1.35-1.215z"/>
            <path fill="#737AFB" d="M63.482 60.754v5.536s-3.133 1.16-3.565 1.107c-.459-.054-.459-4.915-.459-4.915l.567-1.485 3.457-.243zM53.464 60.754v5.536s3.132 1.16 3.564 1.107c.46-.054.46-4.915.46-4.915l-.568-1.485-3.456-.243z"/>
            <path fill="#2D2C56" d="M54.49 84.759l.243 2.268s-2.295 3.807-3.213 3.915c-.918.081-.513-1.512 0-2.24.513-.73 1.539-2.269 1.539-2.269l.378-1.647h1.053v-.027zM61.537 84.759l-.243 2.268s2.296 3.807 3.214 3.915c.918.081.513-1.512 0-2.24-.513-.73-1.54-2.269-1.54-2.269l-.378-1.647h-1.053v-.027z"/>
            <g transform="translate(50.224 61.294)">
                <path fill="#FFF" d="M2.484 6.561h11.692c.432 0 .837-.297.918-.729l1-4.239A1.345 1.345 0 0 0 14.77.027L1.377.135C.54.135-.08.891.081 1.728L1.566 5.94a.996.996 0 0 0 .918.621z"/>
                <path fill="url(#g)" d="M9.64.081L1.377.135C.54.135-.08.891.081 1.728L1.566 5.94a.934.934 0 0 0 .891.621h2.106L9.64.081z"/>
                <ellipse cx="7.966" cy="3.861" fill="#737AFB" rx="1.188" ry="1.08"/>
            </g>
        </g>
    </g>
</svg>
