<svg xmlns="http://www.w3.org/2000/svg" width="55" height="50" viewBox="0 0 55 50">
    <g fill="#FF5B30" fill-rule="nonzero">
        <path d="M26.535 9.226c-.054-.054-.118-.083-.177-.126-.35-1.323-.89-2.622-1.303-3.91-.29-.908-.394-2.261-.788-3.316.204-.554-.042-1.315-.685-1.47-11.3-2.74-19.824 11.672-22.407 20.53C-.263 25.872.026 31.516.038 36.593c.005 2.112-.447 8.372 1.639 10.227-.544.6-.473 1.778.494 1.941 3.519.592 7.152.822 10.714.973 1.706.072 5.54.8 6.895-.733.576.3 1.406.02 1.491-.856.628-6.395 1.005-12.87 1.043-19.295.003-.539-.222-.928-.548-1.177.246-.736-.275-1.634-1.306-1.434-2.35.457-4.542.268-6.773-.343.048-.16.017-.334-.161-.476-3.87-3.085 10.423-12.921 12.737-14.082.394-.197.696-.72.666-1.16-.027-.39-.114-.668-.394-.95zM6.177 15.48c.005.005.005.01.01.015 1.577 1.663 3.387 3.896 5.498 5.131-.738 1.284-1.081 2.5-.8 3.538a251.803 251.803 0 0 0-6.222-5.073c.416-1.252.93-2.454 1.514-3.611zm-3.07 31.014c.214-1.555.306-3.16.336-4.79a38.696 38.696 0 0 0 3.897 4.18c.288.264.603.56.938.855-1.724-.088-3.445-.188-5.17-.245zm9.778.414a90.378 90.378 0 0 1-2.262-.061c-.97-.66-1.964-1.285-2.866-2.076-1.416-1.243-2.717-2.629-3.923-4.074-.119-.142-.257-.174-.387-.148 0-1.756-.062-3.536-.126-5.315 2.052 1.865 3.929 3.899 5.829 5.923 1.754 1.868 3.608 4.1 5.793 5.605-.79.074-1.52.153-2.058.146zm4.157-.262c-2.173-2.25-4.774-4.152-7.014-6.368-2.18-2.157-4.38-4.273-6.748-6.22a130.717 130.717 0 0 1-.095-4.454c2.766 2.631 5.344 5.469 7.99 8.216 1.5 1.558 4.536 5.95 7.046 5.857.725-.027.788-.954.163-1.201-.988-.39-2.075-1.68-2.866-2.377-1.54-1.357-3.014-2.79-4.493-4.213-2.594-2.497-5.094-5.137-7.831-7.483.013-.78.037-1.555.086-2.32.05-.788.142-1.565.256-2.335a783.151 783.151 0 0 1 7.911 8.098c2.389 2.482 4.742 5.43 7.545 7.482-.032 2.553-.011 5.105.161 7.649-.576-.251-1.323-.328-2.11-.331zm2.162-17.677c-.006.881-.028 1.764-.046 2.647-.825-.801-1.66-1.593-2.505-2.374a12.94 12.94 0 0 0 2.551-.273zm-5.138.074a477.37 477.37 0 0 1 4.544 4.494.807.807 0 0 0 .505.237c-.03 1.142-.06 2.284-.086 3.425-2.107-2.178-4.534-4.16-6.697-6.239-2.84-2.73-5.668-5.477-8.648-8.054.176-.98.415-1.934.69-2.874 2.238 1.961 4.431 3.96 6.582 6.004-.23.301-.343.55-.364.965-.036.696.494 1.254 1.113 1.462a15.17 15.17 0 0 0 2.361.58zm-1.607-9.6c-.727-.544-1.5-1.04-2.196-1.61-1.17-.96-2.266-2.01-3.364-3.05a.482.482 0 0 0-.29-.132c.57-1.032 1.227-2 1.925-2.935a48.138 48.138 0 0 0 2.867 2.57c.994.816 2.217 2.03 3.498 2.364-.923.924-1.765 1.867-2.44 2.793zm3.212-3.543a.558.558 0 0 0-.104-.138c-.886-.833-2.124-1.367-3.115-2.086-1.16-.843-2.243-1.802-3.294-2.785a24.62 24.62 0 0 1 2.11-2.262 52.456 52.456 0 0 1 3.776 3.175c.824.76 1.634 1.711 2.59 2.357a46.144 46.144 0 0 0-1.963 1.739zm-.177-5.324a67.243 67.243 0 0 0-3.479-2.635c.965-.846 2-1.613 3.096-2.295 1.124.86 2.184 1.796 3.23 2.763.99.915 1.996 2.019 3.168 2.764a59.78 59.78 0 0 0-2.757 2.07c-.903-1.027-2.23-1.836-3.258-2.667zm7.402-.351c-1.176-1.187-2.71-2.143-3.99-3.198a44.3 44.3 0 0 0-2.664-2.042A22.907 22.907 0 0 1 21.5 2.9c.15.845.546 1.713.839 2.427a46.149 46.149 0 0 0 1.91 4.051c-.384.225-.846.514-1.353.848zM53.843 12.954c-.384-1.379-.851-2.727-1.34-4.074-.55-1.512-.91-3.136-1.684-4.55-.01-.018-.024-.025-.035-.043.156-.546-.104-1.183-.775-1.431-4.554-1.682-9.95 3.153-12.416 6.467-2.558 3.439-4.508 7.444-4.683 11.665a.757.757 0 0 0-.748.752c-.497 8.803-.251 17.622-1.157 26.404-.144 1.391 1.455 1.715 2.329 1.007.042.007.074.028.12.031 1.649.13 3.302.195 4.956.206.123.072.241.158.369.217a.522.522 0 0 0 .705-.225 77.949 77.949 0 0 0 3.58-.103c1.883-.102 4.815-.1 6.266-1.579.506.329 1.113-.118 1.043-.677.325.123.688.134.994-.072 1.864-1.257 1.252-6.005 1.378-7.98.238-3.7.525-7.424.44-11.136-.017-.785-.52-1.22-1.099-1.348-.037-.019-.062-.047-.104-.063-2.89-1.123-6.054-.87-9.1-.695.023-.674.185-1.336.438-1.983.225-.09.308-.351.253-.59 1.83-3.713 6.877-6.777 10.05-7.704 1.355-.396 1.182-1.973.22-2.496zM48.5 5.522c.134.713.365 1.428.65 2.14-.72-.587-1.452-1.164-2.153-1.76.497-.133.997-.254 1.503-.38zM36.053 18.526a25.283 25.283 0 0 0 2.865 2.959c.543.47 1.16.978 1.823 1.4-.492 1.244-.537 2.43.101 3.438-.055.068-.116.133-.153.215a2.08 2.08 0 0 0-.194.675 817.193 817.193 0 0 1-5.45-5.127c.24-1.21.599-2.393 1.008-3.56zm-2.088 28.545c.063-.669.107-1.339.154-2.008a28.058 28.058 0 0 0 1.59 1.904c-.582.033-1.163.063-1.744.104zm3.268-.195c-.18-.15-.361-.3-.53-.459-.872-.824-1.658-1.734-2.403-2.673-.027-.034-.06-.052-.09-.074.042-.782.081-1.564.107-2.347 1.232 1.526 2.62 2.911 4.045 4.258.39.368.786.77 1.195 1.165-.774.05-1.549.09-2.324.13zm5.014-.348c-.116.012-.234.019-.351.03-.813-.691-1.695-1.326-2.486-2.025-1.577-1.395-3.112-2.863-4.494-4.452-.157-.181-.37-.21-.567-.157.022-1.115.025-2.231.018-3.347 1.95 1.872 3.909 3.735 5.835 5.634 1.14 1.124 2.424 2.737 3.814 3.993-.605.141-1.2.264-1.769.324zm4.169-.887c-1.478-1.648-3.633-3.078-5.169-4.475-2.282-2.076-4.522-4.23-6.906-6.193a164.25 164.25 0 0 0-.078-2.78c1.861 2.604 4.17 4.85 6.508 7.028 2.179 2.03 4.215 4.207 6.307 6.312-.22.034-.439.062-.662.108zm-3.124-6.118c-3.188-2.77-6.304-5.54-8.88-8.908a.556.556 0 0 0-.215-.167c-.034-.8-.067-1.6-.107-2.4 2.469 2.631 5.182 5.06 7.752 7.582 2.563 2.513 4.733 5.424 7.279 7.915-.014.544.02 1.047.086 1.517-1.622-2.118-4-3.876-5.915-5.539zm6.41-1.376c-.035.642-.204 1.672-.353 2.803-1.554-2.175-3.997-4.027-5.821-5.693-3.126-2.853-6.312-5.66-9.5-8.444-.025-.451-.043-.902-.07-1.353.333-.027.667-.274.698-.674.04-.49.099-.98.17-1.466 2.2 2.253 4.424 4.483 6.636 6.724 2.385 2.417 4.621 5.572 7.367 7.555.348.253.716.09.919-.201-.014.25-.031.5-.045.749zm.567-10.076a259.084 259.084 0 0 1-.25 4.822c-.666-.664-1.472-1.223-2.17-1.828-.941-.818-1.803-1.695-2.664-2.588 1.695-.258 3.394-.525 5.084-.406zm-5.843.518c.675 1.069 1.582 1.985 2.474 2.871.97.964 1.901 2.149 3.03 2.92-.045.729-.09 1.458-.133 2.187-1.477-2.632-4.464-4.798-6.632-6.851-.31-.294-.624-.583-.934-.876.73-.049 1.462-.144 2.195-.25zm-3.08-6.923c-.708-.365-1.414-.74-2.062-1.25-1.06-.835-2.004-1.815-2.897-2.829a30.89 30.89 0 0 1 2.22-4.511 33.33 33.33 0 0 0 2.42 2.54c.958.899 2.03 2.007 3.265 2.53-1.19 1.125-2.235 2.33-2.947 3.52zm3.782-4.276l-.003-.005c-.807-1.1-2.132-1.83-3.176-2.69-.97-.8-1.868-1.679-2.726-2.595.292-.435.608-.85.935-1.257a92.854 92.854 0 0 1 3.9 2.928c.91.724 1.787 1.574 2.74 2.276a30.11 30.11 0 0 0-1.67 1.343zm2.958-2.255c-.97-.909-2.149-1.666-3.198-2.44a85.33 85.33 0 0 0-3.959-2.733 19.623 19.623 0 0 1 2.342-2.145 55.558 55.558 0 0 1 3.723 3.366c.929.924 1.758 1.999 2.645 2.995-.504.289-1.022.602-1.553.957zm3.305-1.844c-.987-1.172-2.216-2.214-3.296-3.21C46.9 8.98 45.615 7.985 44.3 7.033a7.337 7.337 0 0 1 1.349-.686c1.714 1.769 3.531 3.557 5.441 5.092.32.542.643 1.074.951 1.59-.202.07-.426.166-.65.262z"/>
    </g>
</svg>
