<svg xmlns="http://www.w3.org/2000/svg" width="57" height="57" viewBox="0 0 57 57">
    <g fill="none" fill-rule="evenodd" transform="translate(1 1)">
        <circle cx="27.5" cy="27.5" r="27.5" stroke="#FFF" stroke-width="2"/>
        <g fill="#FFF" fill-rule="nonzero">
            <path d="M21.115 18.884h-5.058a1.03 1.03 0 0 0-1.028 1.028v19.06A1.03 1.03 0 0 0 16.057 40h5.058a1.03 1.03 0 0 0 1.028-1.028v-19.06a1.03 1.03 0 0 0-1.028-1.028zm-.733 19.356H16.79V20.645h3.592V38.24zM18.586 10A3.59 3.59 0 0 0 15 13.586a3.59 3.59 0 0 0 3.586 3.586 3.59 3.59 0 0 0 3.586-3.586A3.59 3.59 0 0 0 18.586 10zm0 5.412a1.828 1.828 0 0 1-1.826-1.826c0-1.007.82-1.826 1.826-1.826 1.007 0 1.826.82 1.826 1.826a1.828 1.828 0 0 1-1.826 1.826zM38.499 21.119a6.562 6.562 0 0 0-4.326-1.52 6.632 6.632 0 0 0-2.81.684v-.417a.982.982 0 0 0-.982-.981h-5.15a.982.982 0 0 0-.981.981v19.152c0 .543.44.982.982.982h5.25a.88.88 0 0 0 .881-.88V27.7c0-.977.765-1.804 1.742-1.834a1.798 1.798 0 0 1 1.85 1.796v11.475c0 .476.387.862.862.862h5.047a.862.862 0 0 0 .862-.862V28.012a8.957 8.957 0 0 0-3.227-6.893zm1.467 17.12h-3.25V27.664a3.56 3.56 0 0 0-3.557-3.557 3.56 3.56 0 0 0-3.556 3.557V38.24H26.01V20.645h3.593v1.279h.001a.88.88 0 0 0 1.463.659 4.876 4.876 0 0 1 3.138-1.224 4.796 4.796 0 0 1 3.166 1.111 7.2 7.2 0 0 1 2.595 5.542V38.24z"/>
        </g>
    </g>
</svg>
