<svg width="200" height="37" viewBox="0 0 200 37" fill="none" xmlns="http://www.w3.org/2000/svg">
<path d="M37.6 14.864L33.92 14.864L33.92 30L31.008 30L31.008 14.864L28.736 14.864L28.736 12.464L31.008 12.464L31.008 11.216C31.008 9.25333 31.5093 7.824 32.512 6.928C33.536 6.01067 35.168 5.552 37.408 5.552L37.408 7.984C36.128 7.984 35.2213 8.24 34.688 8.752C34.176 9.24267 33.92 10.064 33.92 11.216L33.92 12.464L37.6 12.464L37.6 14.864ZM41.9873 6.32L41.9873 30L39.0753 30L39.0753 6.32L41.9873 6.32ZM61.0303 20.56C61.0303 21.1147 60.9983 21.7013 60.9343 22.32L46.9183 22.32C47.0249 24.048 47.6116 25.4027 48.6783 26.384C49.7663 27.344 51.0783 27.824 52.6143 27.824C53.8729 27.824 54.9183 27.536 55.7503 26.96C56.6036 26.3627 57.2009 25.5733 57.5423 24.592L60.6783 24.592C60.2089 26.2773 59.2703 27.6533 57.8623 28.72C56.4543 29.7653 54.7049 30.288 52.6143 30.288C50.9503 30.288 49.4569 29.9147 48.1343 29.168C46.8329 28.4213 45.8089 27.3653 45.0623 26C44.3156 24.6133 43.9423 23.0133 43.9423 21.2C43.9423 19.3867 44.3049 17.7973 45.0303 16.432C45.7556 15.0667 46.7689 14.0213 48.0703 13.296C49.3929 12.5493 50.9076 12.176 52.6143 12.176C54.2783 12.176 55.7503 12.5387 57.0303 13.264C58.3103 13.9893 59.2916 14.992 59.9743 16.272C60.6783 17.5307 61.0303 18.96 61.0303 20.56ZM58.0223 19.952C58.0223 18.8427 57.7769 17.8933 57.2863 17.104C56.7956 16.2933 56.1236 15.6853 55.2703 15.28C54.4383 14.8533 53.5103 14.64 52.4863 14.64C51.0143 14.64 49.7556 15.1093 48.7103 16.048C47.6863 16.9867 47.0996 18.288 46.9503 19.952L58.0223 19.952ZM78.954 20.56C78.954 21.1147 78.922 21.7013 78.858 22.32L64.842 22.32C64.9487 24.048 65.5353 25.4027 66.602 26.384C67.69 27.344 69.002 27.824 70.538 27.824C71.7967 27.824 72.842 27.536 73.674 26.96C74.5273 26.3627 75.1247 25.5733 75.466 24.592L78.602 24.592C78.1327 26.2773 77.194 27.6533 75.786 28.72C74.378 29.7653 72.6287 30.288 70.538 30.288C68.874 30.288 67.3807 29.9147 66.058 29.168C64.7567 28.4213 63.7327 27.3653 62.986 26C62.2393 24.6133 61.866 23.0133 61.866 21.2C61.866 19.3867 62.2287 17.7973 62.954 16.432C63.6793 15.0667 64.6927 14.0213 65.994 13.296C67.3167 12.5493 68.8313 12.176 70.538 12.176C72.202 12.176 73.674 12.5387 74.954 13.264C76.234 13.9893 77.2153 14.992 77.898 16.272C78.602 17.5307 78.954 18.96 78.954 20.56ZM75.946 19.952C75.946 18.8427 75.7007 17.8933 75.21 17.104C74.7193 16.2933 74.0473 15.6853 73.194 15.28C72.362 14.8533 71.434 14.64 70.41 14.64C68.938 14.64 67.6793 15.1093 66.634 16.048C65.61 16.9867 65.0233 18.288 64.874 19.952L75.946 19.952ZM84.4298 14.864L84.4298 25.2C84.4298 26.0533 84.6111 26.6613 84.9738 27.024C85.3364 27.3653 85.9658 27.536 86.8618 27.536L89.0058 27.536L89.0058 30L86.3818 30C84.7604 30 83.5444 29.6267 82.7338 28.88C81.9231 28.1333 81.5178 26.9067 81.5178 25.2L81.5177 14.864L79.2457 14.864L79.2457 12.464L81.5177 12.464L81.5177 8.048L84.4298 8.048L84.4298 12.464L89.0058 12.464L89.0058 14.864L84.4298 14.864ZM113.225 20.56C113.225 21.1147 113.193 21.7013 113.129 22.32L99.1133 22.32C99.2199 24.048 99.8066 25.4027 100.873 26.384C101.961 27.344 103.273 27.824 104.809 27.824C106.068 27.824 107.113 27.536 107.945 26.96C108.799 26.3627 109.396 25.5733 109.737 24.592L112.873 24.592C112.404 26.2773 111.465 27.6533 110.057 28.72C108.649 29.7653 106.9 30.288 104.809 30.288C103.145 30.288 101.652 29.9147 100.329 29.168C99.0279 28.4213 98.0039 27.3653 97.2573 26C96.5106 24.6133 96.1373 23.0133 96.1373 21.2C96.1373 19.3867 96.4999 17.7973 97.2253 16.432C97.9506 15.0667 98.9639 14.0213 100.265 13.296C101.588 12.5493 103.103 12.176 104.809 12.176C106.473 12.176 107.945 12.5387 109.225 13.264C110.505 13.9893 111.487 14.992 112.169 16.272C112.873 17.5307 113.225 18.96 113.225 20.56ZM110.217 19.952C110.217 18.8427 109.972 17.8933 109.481 17.104C108.991 16.2933 108.319 15.6853 107.465 15.28C106.633 14.8533 105.705 14.64 104.681 14.64C103.209 14.64 101.951 15.1093 100.905 16.048C99.8813 16.9867 99.2946 18.288 99.1453 19.952L110.217 19.952ZM123.693 12.144C125.826 12.144 127.554 12.7947 128.877 14.096C130.2 15.376 130.861 17.232 130.861 19.664L130.861 30L127.981 30L127.981 20.08C127.981 18.3307 127.544 16.9973 126.669 16.08C125.794 15.1413 124.6 14.672 123.085 14.672C121.549 14.672 120.322 15.152 119.405 16.112C118.509 17.072 118.061 18.4693 118.061 20.304L118.061 30L115.149 30L115.149 12.464L118.061 12.464L118.061 14.96C118.637 14.064 119.416 13.3707 120.397 12.88C121.4 12.3893 122.498 12.144 123.693 12.144ZM132.61 21.168C132.61 19.376 132.972 17.808 133.698 16.464C134.423 15.0987 135.415 14.0427 136.674 13.296C137.954 12.5493 139.372 12.176 140.93 12.176C142.466 12.176 143.799 12.5067 144.93 13.168C146.06 13.8293 146.903 14.6613 147.458 15.664L147.458 12.464L150.402 12.464L150.402 30L147.458 30L147.458 26.736C146.882 27.76 146.018 28.6133 144.866 29.296C143.735 29.9573 142.412 30.288 140.898 30.288C139.34 30.288 137.932 29.904 136.674 29.136C135.415 28.368 134.423 27.2907 133.698 25.904C132.972 24.5173 132.61 22.9387 132.61 21.168ZM147.458 21.2C147.458 19.8773 147.191 18.7253 146.658 17.744C146.124 16.7627 145.399 16.016 144.482 15.504C143.586 14.9707 142.594 14.704 141.506 14.704C140.418 14.704 139.426 14.96 138.53 15.472C137.634 15.984 136.919 16.7307 136.386 17.712C135.852 18.6933 135.586 19.8453 135.586 21.168C135.586 22.512 135.852 23.6853 136.386 24.688C136.919 25.6693 137.634 26.4267 138.53 26.96C139.426 27.472 140.418 27.728 141.506 27.728C142.594 27.728 143.586 27.472 144.482 26.96C145.399 26.4267 146.124 25.6693 146.658 24.688C147.191 23.6853 147.458 22.5227 147.458 21.2ZM156.315 15.728C156.912 14.6827 157.787 13.8293 158.939 13.168C160.091 12.5067 161.403 12.176 162.875 12.176C164.453 12.176 165.872 12.5493 167.131 13.296C168.389 14.0427 169.381 15.0987 170.107 16.464C170.832 17.808 171.195 19.376 171.195 21.168C171.195 22.9387 170.832 24.5173 170.107 25.904C169.381 27.2907 168.379 28.368 167.099 29.136C165.84 29.904 164.432 30.288 162.875 30.288C161.36 30.288 160.027 29.9573 158.875 29.296C157.744 28.6347 156.891 27.792 156.315 26.768L156.315 30L153.403 30L153.403 6.32L156.315 6.32L156.315 15.728ZM168.219 21.168C168.219 19.8453 167.952 18.6933 167.419 17.712C166.885 16.7307 166.16 15.984 165.243 15.472C164.347 14.96 163.355 14.704 162.267 14.704C161.2 14.704 160.208 14.9707 159.291 15.504C158.395 16.016 157.669 16.7733 157.115 17.776C156.581 18.7573 156.315 19.8987 156.315 21.2C156.315 22.5227 156.581 23.6853 157.115 24.688C157.669 25.6693 158.395 26.4267 159.291 26.96C160.208 27.472 161.2 27.728 162.267 27.728C163.355 27.728 164.347 27.472 165.243 26.96C166.16 26.4267 166.885 25.6693 167.419 24.688C167.952 23.6853 168.219 22.512 168.219 21.168ZM176.02 6.32L176.02 30L173.108 30L173.108 6.32L176.02 6.32ZM195.063 20.56C195.063 21.1147 195.031 21.7013 194.967 22.32L180.951 22.32C181.057 24.048 181.644 25.4027 182.711 26.384C183.799 27.344 185.111 27.824 186.647 27.824C187.905 27.824 188.951 27.536 189.783 26.96C190.636 26.3627 191.233 25.5733 191.575 24.592L194.711 24.592C194.241 26.2773 193.303 27.6533 191.895 28.72C190.487 29.7653 188.737 30.288 186.647 30.288C184.983 30.288 183.489 29.9147 182.167 29.168C180.865 28.4213 179.841 27.3653 179.095 26C178.348 24.6133 177.975 23.0133 177.975 21.2C177.975 19.3867 178.337 17.7973 179.063 16.432C179.788 15.0667 180.801 14.0213 182.103 13.296C183.425 12.5493 184.94 12.176 186.647 12.176C188.311 12.176 189.783 12.5387 191.063 13.264C192.343 13.9893 193.324 14.992 194.007 16.272C194.711 17.5307 195.063 18.96 195.063 20.56ZM192.055 19.952C192.055 18.8427 191.809 17.8933 191.319 17.104C190.828 16.2933 190.156 15.6853 189.303 15.28C188.471 14.8533 187.543 14.64 186.519 14.64C185.047 14.64 183.788 15.1093 182.743 16.048C181.719 16.9867 181.132 18.288 180.983 19.952L192.055 19.952Z" fill="#607AD6"/>
<path d="M19.0768 9.49301C20.8453 13.1337 21.3121 22.3623 21.47 30.219L5.9084 16.7574L8.69059 15.3018C8.69059 15.3018 9.00555 17.0111 14.5558 17.0036C16.3604 14.5261 17.1484 12.5805 16.3087 10.9754C15.6228 9.66454 12.8314 9.14868 10.5529 9.35259C9.18285 11.2279 8.07133 13.2065 8.65764 14.9783L5.76844 16.4899C3.65501 12.4504 5.26022 8.68014 9.0158 6.54489C13.6171 4.13753 17.5233 6.52356 19.0768 9.49301Z" fill="#FFBA07"/>
<path d="M9.05948 6.49892L10.5525 9.35259C8.81541 11.8288 8.18864 13.7013 8.65722 14.9783C9.54195 16.8539 10.8007 16.6552 14.5563 16.9958L16.5989 20.9094L21.4696 30.219C13.8769 24.6095 7.85863 20.2006 5.76803 16.4899C3.38088 12.2528 5.6319 8.34916 9.05948 6.49892Z" fill="#DC9F03"/>
</svg>
