<svg xmlns="http://www.w3.org/2000/svg" width="29" height="22" viewBox="0 0 29 22">
    <g fill="#FFF" fill-rule="evenodd">
        <path d="M2.905 6.782c.354.25 1.422.992 3.203 2.226a783.575 783.575 0 0 1 4.094 2.852c.104.073.325.232.663.476.339.245.62.443.844.594.224.151.495.32.813.508.317.187.617.328.898.421.282.094.542.141.781.141h.032c.24 0 .5-.047.781-.14.281-.094.581-.235.899-.422.317-.188.588-.357.812-.508.224-.15.505-.349.844-.594.338-.245.56-.403.664-.476.958-.667 3.396-2.36 7.312-5.079a7.423 7.423 0 0 0 1.906-1.922c.511-.75.766-1.536.766-2.359 0-.687-.247-1.276-.742-1.766S26.394 0 25.717 0h-23C1.915 0 1.297.27.866.812c-.433.542-.649 1.22-.649 2.032 0 .656.287 1.367.86 2.133.572.765 1.182 1.367 1.828 1.805z"/>
        <path d="M26.044 9.718c-3.249 2.097-5.716 3.726-7.4 4.888-.564.396-1.022.706-1.373.927-.352.222-.82.449-1.405.68-.584.232-1.128.347-1.634.347h-.03c-.505 0-1.05-.115-1.634-.347-.584-.231-1.052-.458-1.404-.68-.352-.221-.81-.53-1.374-.927-1.338-.935-3.799-2.564-7.385-4.888a7.778 7.778 0 0 1-1.5-1.232v11.247c0 .624.232 1.157.698 1.601A2.346 2.346 0 0 0 3.282 22h21.87c.654 0 1.214-.222 1.68-.666.465-.444.698-.977.698-1.6V8.485a8.092 8.092 0 0 1-1.486 1.232z"/>
    </g>
</svg>
