<?xml version="1.0" encoding="UTF-8"?>
<svg width="380px" height="180px" viewBox="0 0 380 180" version="1.1" xmlns="http://www.w3.org/2000/svg" xmlns:xlink="http://www.w3.org/1999/xlink">
    <!-- Generator: Sketch 52.4 (67378) - http://www.bohemiancoding.com/sketch -->
    <title>Hero Illustration</title>
    <desc>Created with Sketch.</desc>
    <defs>
        <linearGradient x1="22.235321%" y1="19.154489%" x2="5.9413152%" y2="28.4904369%" id="linearGradient-1">
            <stop stop-color="#96A2CC" offset="0%"></stop>
            <stop stop-color="#A6B2DD" offset="23.9538%"></stop>
            <stop stop-color="#5E688C" offset="74.4445%"></stop>
        </linearGradient>
        <linearGradient x1="82.4626866%" y1="92.3910299%" x2="137.686567%" y2="10.6773074%" id="linearGradient-2">
            <stop stop-color="#3F55A4" offset="0%"></stop>
            <stop stop-color="#607AD6" offset="100%"></stop>
        </linearGradient>
        <linearGradient x1="22.1152318%" y1="6.25754864%" x2="-34.986755%" y2="86.7074453%" id="linearGradient-3">
            <stop stop-color="#3F55A4" offset="0%"></stop>
            <stop stop-color="#607AD6" offset="100%"></stop>
        </linearGradient>
        <linearGradient x1="88.1818182%" y1="58.8235294%" x2="11.3636364%" y2="7.84313725%" id="linearGradient-4">
            <stop stop-color="#293B7A" offset="2.13965%"></stop>
            <stop stop-color="#7489D6" offset="100%"></stop>
        </linearGradient>
        <linearGradient x1="77.7675904%" y1="19.1545436%" x2="94.0564847%" y2="28.4904114%" id="linearGradient-5">
            <stop stop-color="#9EA9D1" offset="0%"></stop>
            <stop stop-color="#A6B2DC" offset="23.9538%"></stop>
            <stop stop-color="#5F698D" offset="74.4445%"></stop>
        </linearGradient>
    </defs>
    <g id="Hero-Illustration" stroke="none" stroke-width="1" fill="none" fill-rule="evenodd">
        <g transform="translate(3.000000, 10.000000)">
            <polygon id="Rectangle" fill="#2B2B2B" transform="translate(32.550187, 88.395567) rotate(-30.000000) translate(-32.550187, -88.395567) " points="26.4104334 83.2230289 38.6899401 83.2230289 38.6899401 93.5681052 26.4104334 93.5681052"></polygon>
            <path d="M29.4043648,82.4576828 C31.9692158,86.899929 34.3887509,93.32044 30.045511,95.8278034 C25.7025373,98.3354329 20.7325231,92.8006565 18.4218417,88.798616 C16.6196061,85.6767211 16.9464603,79.5534954 19.9793293,77.8025195 C23.0120653,76.0515436 27.6020227,79.3360539 29.4043648,82.4576828 Z" id="Path" fill="#FFFFFF"></path>
            <path d="M29.4043648,82.4576828 C31.9692158,86.899929 34.3887509,93.32044 30.045511,95.8278034 C25.7025373,98.3354329 20.7325231,92.8006565 18.4218417,88.798616 C16.6196061,85.6767211 16.9464603,79.5534954 19.9793293,77.8025195 C23.0120653,76.0515436 27.6020227,79.3360539 29.4043648,82.4576828 Z" id="Path" fill="#000000"></path>
            <path d="M27.1974805,85.7036018 C28.2884138,87.5929737 29.2960433,90.3361427 27.351313,91.4587473 C25.4068488,92.5816182 23.2633073,90.2445884 22.2804294,88.5425834 C21.5139283,87.21478 21.7177963,84.5730128 23.0756742,83.7889461 C24.4335522,83.0051455 26.4309794,84.3757984 27.1974805,85.7036018 Z" id="Path" fill="#FFFFFF"></path>
            <path d="M27.1974805,85.7036018 C28.2884138,87.5929737 29.2960433,90.3361427 27.351313,91.4587473 C25.4068488,92.5816182 23.2633073,90.2445884 22.2804294,88.5425834 C21.5139283,87.21478 21.7177963,84.5730128 23.0756742,83.7889461 C24.4335522,83.0051455 26.4309794,84.3757984 27.1974805,85.7036018 Z" id="Path" fill="#FFFFFF"></path>
            <path d="M61.3328602,36.3976224 L30.2286196,54.081973 L17.5611249,46.682044 C12.8453336,43.9729418 8.48905252,44.215401 7.27665011,44.4245919 L35.4961852,28.4960078 C41.6417672,24.9844748 45.4045422,26.990951 48.0383251,28.4960078 L61.3328602,36.3976224 Z" id="Path" fill="#3F5CC2"></path>
            <polygon id="Path" fill="#132152" points="30.3539744 53.8400461 61.458215 35.6452271 61.458215 67.7515082 30.3539744 86.06423"></polygon>
            <rect id="Rectangle" fill="#F2F2F2" x="1.52254258" y="68.3995742" width="4.25833925" height="4.79063165" rx="2"></rect>
            <path d="M3.51869233,55.7576295 L4.84942335,55.092264 L5.38166253,54.6930447 L5.38166253,55.7576295 L3.51869233,56.5560681 L3.51869233,59.8828957 L5.38166253,59.2175302 L5.38166253,59.8828957 L4.84942335,60.282115 C4.40583747,60.282115 3.51869233,60.4151881 3.51869233,60.9474805 C3.51869233,61.4797729 3.16378637,62.1451384 2.9863467,62.4112846 C2.58715401,62.6774308 1.68225692,63.2097232 1.25639638,63.2097232 C0.830535841,63.2097232 0.280544713,62.6774308 0.0587916962,62.4112846 C0.0144251242,61.3022534 -0.047666785,58.8183109 0.0587916962,57.753726 C0.191864798,56.422995 0.458011001,56.1568488 1.78874202,55.092264 C2.85332683,54.2405962 3.38561923,54.4713449 3.51869233,54.6930447 L3.51869233,55.7576295 Z" id="Path" stroke="#333333" fill="#333333"></path>
            <path d="M1.60432931,56.941714 L2.8532736,56.1568488 L2.8532736,60.8663059 C2.8532736,61.3895493 2.49639815,61.5204933 2.31794713,61.5204933 C1.31880767,62.1483322 1.06905607,62.0437367 1.06905607,61.9127928 C1.00959901,60.9099539 0.926321859,58.7209013 1.06905607,57.9882009 C1.21179028,57.2557665 1.48538857,56.985362 1.60432931,56.941714 Z" id="Path" fill="#FFFFFF"></path>
            <path d="M3.2867193,49.0645848 C8.05762952,37.297995 18.3200408,47.6713094 30.6201207,53.8309972 L30.5644961,85.829489 L28.8805891,83.7607346 C20.9292051,74.0809972 16.0589425,81.1338715 18.1710522,87.2935593 C18.3371806,87.7782115 18.5437367,88.5377928 18.5437367,89.0535841 C18.0468151,90.3105926 16.8705554,88.9567069 16.3321682,88.5377928 L3.90790454,81.2464514 C2.41698013,80.9449077 1.87861959,78.1876331 1.79579489,76.8465224 C1.67155784,75.841022 1.44791519,73.7288857 1.54732079,73.3267388 C1.64669979,72.9243258 2.16853265,72.8239886 2.41700674,72.8239886 C4.50428495,70.6112491 3.2867193,69.0524308 2.41700674,68.5496806 L2.41700674,64.9040099 C2.41700674,64.4012598 2.74833215,64.1918027 2.91398155,64.1497516 C4.40490596,63.8482079 4.8604418,63.0183641 4.90185415,62.6412349 L4.90185415,51.3273598 C4.90185415,50.3215933 3.94934351,49.3996629 3.2867193,49.0645848 Z" id="Path" fill="#293B7A"></path>
            <path d="M7.11161285,55.2048439 C7.11161285,54.1945529 8.19280518,53.5528744 9.07957771,54.036462 L21.0561568,60.5692867 C21.4835877,60.8024308 21.7497339,61.2503549 21.7497339,61.7374024 L21.7497339,70.9561746 C21.7497339,71.932665 20.7330554,72.5764727 19.8502484,72.1591554 L7.87361604,66.4974273 C7.40833925,66.2775905 7.11161285,65.8091732 7.11161285,65.2944464 L7.11161285,55.2048439 Z" id="Path" fill="#607AD6"></path>
            <path d="M8.70849006,53.8946061 L21.0518985,60.5700852 C21.4817246,60.8026969 21.7497339,61.2519517 21.7497339,61.7405962 L21.7497339,71.1941093 L9.60231547,65.5587296 C9.13746451,65.3431512 8.83773066,64.8797906 8.83168914,64.367193 L8.70849006,53.8946061 Z" id="Path" fill="#A0B3F6"></path>
            <polygon id="Path" fill="#293B7A" points="107.789212 124.290277 34.1997871 82.2391767 34.1997871 94.0826828 107.789212 137.065295"></polygon>
            <polygon id="Path" fill="#C2CCDA" points="108.24725 93.5903123 33.9924592 50.3016324 34.2580731 82.5841022 108.24725 124.822569"></polygon>
            <polygon id="Path" fill="#F2F2F2" points="140.184794 75.0532292 65.6707771 32.2587828 33.9924592 50.3016324 107.878903 93.5530518"></polygon>
            <path d="M17.2084443,76.0159872 L21.6610171,76.0159872" id="Path" stroke="#4F4F4F" stroke-width="3.00000025" stroke-linecap="round" transform="translate(19.434731, 76.015987) rotate(30.000029) translate(-19.434731, -76.015987) "></path>
            <path d="M17.7880678,75.6744145 L20.3005678,77.1251774" id="Path" stroke="#E8E8E8" stroke-width="3" stroke-linecap="round"></path>
            <path d="M23.5286551,54.5003549 C23.2625089,55.0326473 22.9793293,55.0129524 22.5974095,54.7925834 C22.2154897,54.5719482 21.932044,54.2342087 22.1979241,53.7019163 C22.4640703,53.1696238 23.0139283,53.1890525 23.3958481,53.4096877 C23.7777679,53.6300568 23.7948013,53.9680625 23.5286551,54.5003549 Z" id="Path" fill="#FFBA07"></path>
            <path d="M9.15683996,47.0482612 C8.89072037,47.5805536 8.60732789,47.5608588 8.22543471,47.3404897 C7.84356813,47.1198545 7.5600692,46.782115 7.82616217,46.2498226 C8.09225515,45.7175302 8.64200674,45.7369588 9.02387331,45.957594 C9.4057665,46.1779631 9.42298616,46.5159688 9.15683996,47.0482612 Z" id="Path" fill="#FFBA07"></path>
            <path d="M97.3733144,8.06156849 L103.393542,11.8240774 L62.0048793,35.7793648 C60.4998226,37.5854329 60.3744677,39.2911639 60.4998226,39.9182044 L60.7505323,133.732612 C58.9111959,132.562101 54.0532292,129.945085 53.3508694,129.844748 C52.6485096,129.744411 52.556423,128.214336 52.5984741,127.461675 L52.5984741,34.274308 C52.9998226,31.7658801 54.9394961,30.3864443 55.8592974,30.0101136 L94.1124911,8.06156849 C95.5172108,6.95786018 96.8716288,7.60166785 97.3733144,8.06156849 Z" id="Path" fill="url(#linearGradient-1)"></path>
            <path d="M60.8769517,36.1543648 C60.4883783,36.3781938 60.2488467,36.7925834 60.2488467,37.2410397 L60.2488467,132.690117 C60.2488467,133.655429 61.2937367,134.258783 62.1297019,133.776526 L82.4483676,122.057044 L104.02005,109.614443 C104.408357,109.390348 104.647622,108.975958 104.647622,108.527502 L104.614354,13.1156849 C104.613822,12.1509049 103.56973,11.5478176 102.733765,12.0295422 L60.8769517,36.1543648 Z M61.6296132,37.5319375 C61.2410397,37.7557665 61.0015082,38.1701561 61.0015082,38.6188786 L61.0015082,130.683907 C61.0015082,131.649219 62.0458659,132.252573 62.8820972,131.770582 L103.267122,108.488911 C103.655696,108.264815 103.895227,107.850426 103.894961,107.401969 L103.863023,15.3726047 C103.862491,14.4080908 102.818666,13.8047374 101.9827,14.286462 L61.6296132,37.5319375 Z" id="Shape" fill="#A4B0DB"></path>
            <path d="M101.534776,14.5049681 L68.2665011,33.6674947 L103.930092,54.2938254 L103.930092,15.7885912 C103.930092,13.7065295 102.599361,13.8396026 101.534776,14.5049681 Z" id="Path" fill="url(#linearGradient-2)"></path>
            <path d="M53.7274663,48.2139815 C53.7274663,46.8380057 55.2383783,45.9967175 56.4080908,46.7214336 C56.9246806,47.0416075 57.2389993,47.6063698 57.2389993,48.2139815 L57.2389993,64.4824344 C57.2389993,65.8586764 55.7280873,66.6999645 54.5583747,65.9752484 C54.041785,65.6550745 53.7274663,65.0903123 53.7274663,64.4824344 L53.7274663,48.2139815 Z" id="Path" fill="#E3E5EC"></path>
            <path d="M53.7272001,48.0596167 C53.7272001,46.9846522 54.9911285,46.4079134 55.8034067,47.1124024 C56.0778034,47.3506033 56.2356281,47.696061 56.2356281,48.0596167 L56.2356281,65.1387509 C56.2356281,66.2137154 54.9716998,66.7904542 54.1596877,66.0862314 C53.8850248,65.8480305 53.7272001,65.5023066 53.7272001,65.1387509 L53.7272001,48.0596167 Z" id="Path" fill="#A4B0DB"></path>
            <path d="M53.7274663,70.7131831 C53.7274663,69.4758694 54.9727644,68.6265969 56.1246451,69.0785131 C56.7969304,69.3425302 57.2389993,69.9908623 57.2389993,70.7131831 L57.2389993,79.860362 C57.2389993,81.0976757 55.9937012,81.9469482 54.8418204,81.4950319 C54.1695351,81.2312811 53.7274663,80.5826828 53.7274663,79.860362 L53.7274663,70.7131831 Z" id="Path" fill="#E3E5EC"></path>
            <path d="M53.7272001,70.5087828 C53.7272001,69.555181 54.7494677,68.9502307 55.5854329,69.409599 C55.9865153,69.6299681 56.2356281,70.0512775 56.2356281,70.5087828 L56.2356281,80.5664478 C56.2356281,81.5203158 55.2133605,82.125 54.3773953,81.6658978 C53.9765791,81.4455287 53.7272001,81.0242193 53.7272001,80.5664478 L53.7272001,70.5087828 Z" id="Path" fill="#A4B0DB"></path>
            <path d="M98.2079489,119.632718 C102.200142,125.088715 101.401703,130.01242 97.1888751,133.339248 C93.7830021,135.649663 88.9410043,131.821416 86.6305891,128.415543 C84.3201739,125.00967 83.2247161,118.882452 86.6305891,116.572037 C90.8889283,113.683286 95.8975337,116.226845 98.2079489,119.632718 Z" id="Path" fill="#333333"></path>
            <path d="M93.9496097,123.358765 C95.2803407,125.754081 95.6082328,128.397977 93.9496097,129.347055 C92.2909865,130.296132 89.4309794,128.130234 88.4819021,126.471611 C87.5330908,124.813254 87.2342087,121.64638 88.8928318,120.697303 C90.5514549,119.748226 92.6188786,120.963449 93.9496097,123.358765 Z" id="Path" fill="#F2F2F2"></path>
            <polygon id="Path" fill="#898989" points="107.753815 93.7148687 140.184794 75.0532292 140.184794 106.192335 107.714957 124.822569"></polygon>
            <polygon id="Path" fill="#333333" points="108.959191 101.327449 119.233499 95.4134138 139.46061 105.12775 108.959191 122.747427"></polygon>
            <polygon id="Path" fill="#4F4F4F" points="119.233499 95.4134138 139.46061 83.7240064 139.46061 105.12775"></polygon>
            <polygon id="Path" fill="#D4AA79" points="117.755589 82.3863556 132.737757 73.7358055 132.691714 102.765436 117.784599 111.341199"></polygon>
            <polygon id="Path" fill="#9D734F" points="102.541341 73.7871718 117.756121 82.9308907 117.756121 111.171664 102.541341 102.327626"></polygon>
            <polygon id="Path" fill="#E9BD99" points="132.96478 73.862225 117.756388 66.0042583 102.466554 73.862225 117.756388 82.9311568"></polygon>
            <polygon id="Path" fill="#E0CFBE" points="108.246718 81.4415366 108.246718 77.3947835 109.980926 78.2618879 109.980926 82.5976757"></polygon>
            <polygon id="Path" fill="#F9E8DD" points="108.246718 77.4874024 123.433286 68.9994677 125.339425 69.8165366 109.850515 78.2893009"></polygon>
            <polygon id="Path" stroke="#898989" stroke-width="2" fill="#E0E0E0" points="108.635823 98.7527502 108.502484 98.8294003 108.502484 98.9832328 108.502484 101.156849 108.502484 101.61808 108.901969 101.387065 139.327537 83.8003903 139.46061 83.7234741 139.46061 83.5699077 139.46061 81.4407381 139.46061 80.980039 139.061657 81.2102555"></polygon>
            <polygon id="Path" stroke="#898989" stroke-width="2" fill="#E0E0E0" points="108.635823 96.1091199 108.502484 96.18577 108.502484 96.3396026 108.502484 98.5132186 108.502484 98.97445 108.901969 98.7434351 139.327537 81.156494 139.46061 81.0798439 139.46061 80.9262775 139.46061 78.7971079 139.46061 78.3364088 139.061657 78.5666253"></polygon>
            <polygon id="Path" stroke="#898989" stroke-width="2" fill="#E0E0E0" points="108.635823 93.4476579 108.502484 93.524308 108.502484 93.6781405 108.502484 95.8517566 108.502484 96.3129879 108.901969 96.081973 139.327537 78.4950319 139.46061 78.4183818 139.46061 78.2648155 139.46061 76.1356458 139.46061 75.6749468 139.061657 75.9051632"></polygon>
            <path d="M124.159459,91.4485176 L124.320624,91.4485176" id="Path" stroke="#000000" stroke-width="3.00000025" stroke-linecap="round" transform="translate(124.240042, 91.448518) rotate(-29.999862) translate(-124.240042, -91.448518) "></path>
            <polygon id="Path" stroke="#898989" stroke-width="5" points="108.342796 123.453513 108.379791 93.8806778 139.480571 75.9844748 139.480571 105.587651"></polygon>
            <polygon id="Path" fill="#C2CCDA" points="61.0062988 66.2704045 107.753815 93.7148687 107.714957 124.822569 61.0062988 97.8087296"></polygon>
            <path d="M140.184794,75.0532292 L84.4255678,43.1702449 L68.4583925,33.6674947 L61.4055181,37.6596877 C61.4055181,37.6596877 61.1774308,37.84945 61.1393719,37.9258339 C61.0728353,38.058907 61.0062988,38.3250532 61.0062988,38.3250532 L61.0062988,66.2704045 L107.753815,93.7148687 L140.184794,75.0532292 Z" id="Path" fill="#F9FAFE"></path>
            <polygon id="Path" fill="#3F5CC2" points="107.656139 124.822569 140.184794 106.192335 140.291785 118.455554 107.789212 137.065295"></polygon>
            <path d="M61.0062988,97.5425834 L107.656139,124.822569 L107.789212,137.065295 L98.7402413,131.74237 C98.7402413,131.74237 99.5386799,120.075586 91.5542938,116.438964 C83.5699077,112.802342 84.6249113,123.491838 84.6249113,123.491838 L61.0062988,109.652236 L61.0062988,97.5425834 Z" id="Path" fill="#293B7A"></path>
            <path d="M112.313698,126.020227 C112.313698,125.344482 111.888396,124.741927 111.251508,124.515703 C110.211941,124.146026 109.119943,124.917051 109.119943,126.020227 L109.119943,131.534244 C109.119943,132.641146 110.218329,133.412172 111.259493,133.036107 C111.892122,132.807488 112.313698,132.207062 112.313698,131.534244 L112.313698,126.020227 Z" id="Path" fill="#923531"></path>
            <path d="M112.313698,126.059084 C112.313698,125.336764 111.737225,124.746185 111.014904,124.72862 C110.267832,124.710788 109.652236,125.31148 109.652236,126.059084 L109.652236,131.773243 C109.652236,132.796842 110.759936,133.437189 111.647001,132.926455 C112.059528,132.688786 112.313698,132.249113 112.313698,131.773243 L112.313698,126.059084 Z" id="Path" fill="#FF523E"></path>
            <path d="M139.992903,110.051455 C139.992903,109.37571 139.567601,108.773155 138.930713,108.54693 C137.891146,108.177253 136.799148,108.948279 136.799148,110.051455 L136.799148,115.565472 C136.799148,116.672374 137.897534,117.4434 138.938698,117.067335 C139.571327,116.838715 139.992903,116.23829 139.992903,115.565472 L139.992903,110.051455 Z" id="Path" fill="#923531"></path>
            <path d="M139.992903,110.090312 C139.992903,109.367991 139.41643,108.777413 138.694109,108.759847 C137.947037,108.742016 137.331441,109.342708 137.331441,110.090312 L137.331441,115.804471 C137.331441,116.82807 138.439141,117.468417 139.326207,116.957683 C139.738733,116.720014 139.992903,116.280341 139.992903,115.804471 L139.992903,110.090312 Z" id="Path" fill="#FF523E"></path>
            <polygon id="Path" fill="#F2F2F2" points="121.362669 122.959546 130.810859 117.769695 130.810859 120.56423 121.362669 125.796664"></polygon>
            <path d="M104.329312,125.487935 C104.063165,126.020227 103.77972,126.000532 103.3978,125.780163 C103.016146,125.559528 102.732434,125.221789 102.998581,124.689496 C103.264727,124.157204 103.814585,124.176632 104.196238,124.397268 C104.578158,124.617637 104.595458,124.955642 104.329312,125.487935 Z" id="Path" fill="#FFBA07"></path>
            <path d="M196.737402,102.71274 C196.010823,103.151082 195.297019,103.362935 194.961941,103.276437 C194.121718,103.059528 194.044535,99.9836764 194.694464,98.7711143 C195.344659,97.5585522 198.686923,97.0299858 198.855394,99.4324876 C198.91368,100.266324 198.563964,101.010468 198.046842,101.617814 L198.973829,105.941359 L196.281494,105.941359 L196.737402,102.71274 Z" id="Path" fill="#CEA885"></path>
            <path d="M194.440295,99.3156494 C194.467175,99.158357 194.532115,98.9837651 194.584812,98.8352555 C194.652679,98.6433641 194.755145,98.4706352 194.868258,98.3077537 C195.080908,98.0011533 195.335877,97.7240951 195.617459,97.4941448 C196.131654,97.0744322 196.786639,96.8322392 197.430447,96.9107523 C197.755412,96.9504081 198.071061,97.0746984 198.339603,97.2812278 C198.582328,97.4677963 198.815738,97.7424592 199.130057,97.762154 C199.472055,97.7837119 199.785309,97.4816359 200.059705,97.2950674 C200.368701,97.0848119 200.697658,96.9317779 201.059084,96.8721611 C201.664567,96.7723563 202.233055,96.9770227 202.650373,97.4741838 C203.094304,98.0030163 203.41714,98.7785664 203.125444,99.4793293 C203.071416,99.609741 203.001686,99.7193932 202.901615,99.8104152 C202.809794,99.8939851 202.669535,99.9828779 202.632541,100.116217 C202.592885,100.257807 202.711054,100.440916 202.756831,100.568666 C202.822303,100.75204 202.876065,100.944464 202.856902,101.143542 C202.825497,101.470635 202.620032,101.783091 202.403123,101.998137 C202.182488,102.216909 201.910752,102.342264 201.620653,102.400018 C201.426632,102.438875 201.22862,102.460167 201.031671,102.445529 C200.933996,102.438343 200.847764,102.411196 200.753016,102.389638 C200.66093,102.368612 200.137686,103.852378 200.059705,103.902945 C199.460344,104.452271 198.66297,104.452271 198.66297,104.452271 C198.66297,104.452271 196.117016,104.552076 196.315827,103.00417 C196.514638,101.456263 197.994411,101.735717 198.06973,101.338627 C197.989886,101.378282 197.768719,101.402768 197.900994,101.244943 C197.953158,101.182399 198.052165,101.156849 198.119233,101.120121 C198.19748,101.077271 198.276792,101.021913 198.337473,100.951916 C198.582594,100.669801 198.335078,100.095458 198.026881,100.000976 C197.569109,99.8601845 197.466643,100.508251 197.139815,100.675656 C196.951916,100.772001 196.7555,100.640259 196.614709,100.505855 C196.426011,100.325674 196.297463,100.086941 196.18648,99.8442158 C196.095192,99.6440738 196.010025,99.4412704 195.916874,99.2424592 C195.873492,99.149308 195.722853,98.8866217 195.798439,98.7817601 C195.470546,98.7162881 195.105394,98.852555 194.823013,99.0314053 C194.706175,99.1053939 194.617282,99.1868346 194.555004,99.3172463 C194.541696,99.3451916 194.512686,99.4284954 194.476224,99.4316891 C194.408357,99.4380767 194.433641,99.355039 194.440295,99.3156494 Z" id="Path" fill="#191847"></path>
            <path d="M202.058463,127.378637 L202.096789,115.773598 L197.624468,117.154897 L201.544003,135.615064 C201.505944,136.67885 202.144961,137.128105 202.492814,137.37296 L202.503194,137.380145 L203.385735,136.452094 L202.058463,127.378637 Z" id="Path" fill="#CEA885"></path>
            <path d="M198.566093,118.00896 L198.527768,129.613999 L199.73687,138.352111 C199.380234,138.447392 199.272445,139.32248 199.050213,139.567335 C198.904099,139.728353 197.890614,139.536196 197.246806,139.030252 C196.921043,138.774219 196.804205,138.273332 196.709457,138.03247 C196.632807,137.303495 197.860806,137.622605 197.899131,137.610362 L193.822835,117.114975 L198.566093,118.00896 Z" id="Path" fill="#CEA885"></path>
            <path d="M200.700319,135.423439 C201.068666,135.638219 201.378194,135.589514 201.544535,135.576739 C201.483055,136.497871 202.29906,137.21407 202.657292,137.418737 C201.73616,137.342087 201.544535,137.150195 200.700319,136.651171 C199.856104,136.152413 200.239886,135.154631 200.700319,135.423439 Z" id="Path" fill="#CEA885"></path>
            <path d="M198.66643,140.10495 C199.280429,140.442424 199.843329,140.245476 200.047995,140.10495 C200.600515,139.153211 200.073545,138.531494 199.740862,138.339869 C199.127129,138.493169 198.909688,139.056068 198.743346,139.337385 C197.599982,138.994588 197.009936,138.72099 197.01659,138.339869 C197.218861,137.874645 197.455465,137.768453 197.860806,137.610628 C197.185326,136.843062 196.110894,137.11187 195.903833,137.457062 C195.25896,138.531494 197.515348,139.631742 198.66643,140.10495 Z" id="Path" fill="#E3E3E3"></path>
            <path d="M202.309972,138.067335 C202.923971,138.405075 203.486604,138.208126 203.69127,138.067335 C204.24379,137.115596 203.71682,136.494145 203.384404,136.302253 C202.770405,136.45582 202.669535,136.945529 202.503194,137.226845 C201.072126,136.851047 200.638573,136.617104 200.775106,136.148687 L201.504081,135.573013 C200.828868,134.805713 199.754436,135.074255 199.547108,135.419713 C198.902502,136.494145 201.158889,137.594127 202.309972,138.067335 Z" id="Path" fill="#E3E3E3"></path>
            <polygon id="Path" fill="#55B06E" points="196.465933 116.237225 198.067069 125.725071 202.957505 125.725071 202.228265 116.237225"></polygon>
            <path d="M194.717619,116.237225 C193.929826,119.820351 194.418471,125.725071 194.418471,125.725071 L199.392477,125.725071 L200.760468,116.237225 L194.717619,116.237225 Z" id="Path" fill="#6CD98B"></path>
            <path d="M196.51171,111.496363 C196.51171,111.496363 191.766856,109.620564 191.542761,109.495742 C191.318666,109.370653 190.949521,108.895848 190.949521,108.895848 C190.949521,108.895848 189.942956,108.02555 189.536817,108.024485 C188.521469,108.021824 191.046398,109.195795 188.844304,108.164212 C186.642477,107.132363 188.879968,109.375444 189.120032,109.724627 C189.35983,110.074077 190.718772,110.228442 191.147534,110.501508 C191.433375,110.683286 196.191803,113.18373 196.191803,113.18373 L196.51171,111.496363 Z" id="Path" fill="#CEA885"></path>
            <path d="M200.088449,112.86462 C200.639638,112.304116 200.671309,112.003105 199.669269,111.514461 C197.317069,111.478265 194.918293,110.761799 192.473208,109.365064 L191.192779,111.616661 C194.344482,112.742991 197.592264,113.904986 200.088449,112.86462 Z" id="Path" fill="#191847"></path>
            <path d="M203.867725,126.685593 L193.355216,127.617104 C193.355216,127.617104 195.924858,107.276881 195.689319,104.876508 L198.621451,104.727999 C198.621451,104.727999 199.072569,104.649485 199.293471,104.61329 L199.416962,104.597321 C201.058818,106.818311 203.094837,122.766856 203.867725,126.685593 Z" id="Path" fill="#2F3676"></path>
            <path d="M195.278655,113.502573 C195.278655,113.502573 194.290454,118.508251 194.207949,118.751242 C194.12571,118.994233 193.72516,119.44269 193.72516,119.44269 C193.72516,119.44269 193.051011,120.590046 193.123137,120.989798 C193.30385,121.988911 194.00275,119.293382 193.385823,121.645582 C192.76863,123.997516 194.570706,121.391945 194.870919,121.092796 C195.171132,120.793648 195.077715,119.429116 195.268542,118.958304 C195.396026,118.644251 196.996097,113.512686 196.996097,113.512686 L195.278655,113.502573 Z" id="Path" fill="#CEA885"></path>
            <path d="M198.169269,106.323279 C198.169269,106.323279 198.254436,111.588715 196.400461,118.980926 L193.489354,117.961852 C196.052874,112.088538 196.10291,106.366661 196.10291,106.366661 C196.867548,105.583925 197.325586,105.684794 198.169269,106.323279 Z" id="Path" fill="#4E55A5"></path>
            <path d="M178.110362,92.4687722 C178.853176,92.9164301 179.583215,93.132807 179.925745,93.0444464 C180.785131,92.8230128 180.864177,89.6798261 180.199344,88.4406494 C179.53451,87.2012065 176.116661,86.6611959 175.944464,89.1163946 C175.884581,89.9685947 176.242282,90.7289744 176.771114,91.3496274 L175.823101,95.7679205 L178.57665,95.7679205 L178.110362,92.4687722 Z" id="Path" fill="#CEA885"></path>
            <path d="M177.872161,88.5431157 C177.48412,88.7480483 177.213183,89.146203 176.885291,89.672374 C176.80731,89.6415011 176.72241,89.6247339 176.633517,89.6247339 C176.253194,89.6247339 176.15259,89.8642654 176.15259,90.2443222 C176.15259,90.4372782 176.759138,91.3751774 176.759138,91.3751774 C176.759138,91.8779276 176.255855,91.9117282 175.989709,91.7523066 C175.221345,91.2913414 174.271469,89.6968595 175.0228,88.4004613 C175.230394,87.7654365 175.826295,87.0489709 176.381476,86.8916785 C176.831263,86.7035131 178.045955,86.6761001 178.439851,86.7889461 C179.212473,86.8552165 180.631831,87.7798084 180.827449,87.9198013 C180.827449,88.651171 179.082594,88.5622782 177.872161,88.5431157 Z" id="Path" fill="#191847"></path>
            <path d="M182.876508,105.388307 L183.508073,109.884581 C184.009493,110.782026 184.349894,111.60841 184.529542,112.363467 C184.536728,112.576118 184.461675,112.914922 184.042229,112.41297 C183.622516,111.910752 183.158623,111.401615 182.936391,111.492637 C182.714159,111.583392 182.799326,112.05181 182.457328,112.131388 C182.229507,112.184084 182.18852,111.423439 182.334634,109.849184 L180.880145,106.205642 L182.876508,105.388307 Z" id="Path" fill="#CEA885"></path>
            <path d="M178.706263,93.3324166 L178.200053,94.9785309 C178.200053,94.9785309 179.418471,103.581175 181.407647,108.711409 L183.460965,108.27626 C182.53105,104.035752 180.732168,96.4979595 180.732168,96.4979595 C180.732168,96.4979595 179.979507,93.7079489 178.706263,93.3324166 Z" id="Path" fill="#093061"></path>
            <path d="M184.408446,102.118701 L178.942601,100.925035 L178.31423,102.49583 C179.487136,102.705021 182.184528,103.161728 183.591909,103.312367 C185.350869,103.501065 185.47649,103.438254 186.607612,104.066359 C187.738467,104.69473 188.303762,104.254791 188.61808,104.066359 C188.932133,103.877928 189.748935,102.998314 188.743701,103.123935 C187.939407,103.224539 187.235717,102.956529 186.984475,102.809883 C186.180181,102.357434 184.932221,102.160752 184.408446,102.118701 Z" id="Path" fill="#CEA885"></path>
            <path d="M173.826739,107.387065 L180.352378,107.893542 C183.011178,99.6632363 179.465845,94.4720546 178.706263,93.3324166 L178.073101,93.3324166 C178.073101,93.3324166 178.199787,95.1049503 178.073101,95.1049503 C177.946682,95.1049503 177.440206,93.3324166 177.440206,93.3324166 L176.364975,93.205731 C175.059794,93.6797374 174.922729,94.0640525 174.237669,94.7046664 C172.98412,97.2623314 174.148243,101.103886 173.826739,107.387065 Z" id="Path" fill="#1958A5"></path>
            <path d="M187.023071,101.453657 L187.479371,101.453657 C187.846788,101.453657 188.144638,101.751507 188.144638,102.118924 L188.144638,103.966044 C188.144638,104.333461 187.846788,104.631311 187.479371,104.631311 L187.023071,104.631311 C186.655654,104.631311 186.357804,104.333461 186.357804,103.966044 L186.357804,102.118924 C186.357804,101.751507 186.655654,101.453657 187.023071,101.453657 Z" id="Rectangle" fill="#333333" transform="translate(187.251221, 103.042484) rotate(-45.000000) translate(-187.251221, -103.042484) "></path>
            <path d="M187.11534,101.615998 L187.325181,101.615998 C187.692598,101.615998 187.990448,101.913848 187.990448,102.281265 L187.990448,103.767304 C187.990448,104.134721 187.692598,104.432571 187.325181,104.432571 L187.11534,104.432571 C186.747923,104.432571 186.450073,104.134721 186.450073,103.767304 L186.450073,102.281265 C186.450073,101.913848 186.747923,101.615998 187.11534,101.615998 Z" id="Rectangle" fill="#FFFFFF" transform="translate(187.220261, 103.024285) rotate(-45.000000) translate(-187.220261, -103.024285) "></path>
            <path d="M185.800185,102.231811 L186.261292,102.231811 C186.321121,102.231811 186.369621,102.280312 186.369621,102.340141 L186.369621,102.340141 C186.369621,102.399969 186.321121,102.44847 186.261292,102.44847 L185.800185,102.44847 C185.740357,102.44847 185.691856,102.399969 185.691856,102.340141 L185.691856,102.340141 C185.691856,102.280312 185.740357,102.231811 185.800185,102.231811 Z" id="Rectangle" fill="#333333" transform="translate(186.030739, 102.340141) rotate(-45.000000) translate(-186.030739, -102.340141) "></path>
            <path d="M184.974006,102.684262 C184.578247,102.826916 184.139106,103.204844 184.031583,103.312367 C183.933907,103.08215 184.002573,102.483055 184.974006,102.684262 Z" id="Path" fill="#CEA885"></path>
            <path d="M175.257541,93.6773421 C175.257541,93.6773421 173.462917,93.9655784 172.956441,96.1179028 L174.982346,102.702094 L184.158534,104.094038 L184.411906,101.814762 L178.200852,100.549769 L175.257541,93.6773421 Z" id="Path" fill="#2A6FC3"></path>
            <polygon id="Path" fill="#2A6FC3" points="178.797285 93.3406671 178.217353 92.7234741 178.106104 93.3406671 178.538059 94.5503016"></polygon>
            <polygon id="Path" fill="#093061" points="174.921664 105.322835 179.088183 116.969127 182.128371 125.553141 184.345635 125.553141 181.115153 105.322835"></polygon>
            <path d="M173.792938,105.290099 C173.696593,112.81352 173.368435,116.916962 173.267566,117.600426 C173.16643,118.283889 172.220014,123.165809 174.356104,128.19198 L176.429383,128.19198 C176.429383,121.469393 176.837917,118.609918 177.275727,117.600426 C177.713804,116.590933 179.065028,112.487491 181.100515,105.290099 L173.792938,105.290099 Z" id="Path" fill="#1958A5"></path>
            <path d="M188.61808,126.850337 C188.366572,126.073989 186.464159,125.898864 184.75071,124.694021 L183.990862,121.532204 L181.078691,121.532204 C181.131121,122.376419 182.179205,124.089336 181.470192,124.694021 C180.761178,125.298971 181.174769,125.630323 181.470192,126.181512 L183.3577,126.850337 L185.162438,128.066359 C185.162438,128.066359 186.733233,128.568843 187.675656,128.317601 C188.61808,128.066359 188.869322,127.626419 188.61808,126.850337 Z" id="Path" fill="#191847"></path>
            <path d="M180.95307,131.122516 C180.701828,130.346167 178.799414,130.171043 177.085699,128.966466 L176.326118,125.804649 L173.413946,125.804649 C173.466111,126.648598 174.514461,128.361515 173.805447,128.966466 C173.096434,129.571416 173.510025,129.902768 173.805447,130.453691 L175.692956,131.122516 L177.497693,132.338538 C177.497693,132.338538 179.068222,132.841288 180.010646,132.58978 C180.95307,132.338538 181.204312,131.898864 180.95307,131.122516 Z" id="Path" fill="#191847"></path>
            <path d="M176.856281,89.3250532 C176.856281,89.3250532 177.014372,91.5274131 177.692779,91.5274131 C178.371185,91.5274131 179.599716,90.6842619 179.897268,90.6842619 C180.387509,90.5583747 180.701561,91.3389815 180.638751,91.5274131 L179.897268,91.3184883 C179.633517,91.5274131 178.572658,91.8957594 178.572658,92.1533889 C178.572658,92.4110185 180.638751,91.7879702 180.638751,91.9407381 C180.638751,92.1933109 180.324698,93.1972143 179.550479,93.3433286 C178.125798,93.6121363 176.955021,92.9302697 176.737048,92.271824 C176.519074,91.6131121 176.460256,89.4959191 176.460256,89.4959191 L176.856281,89.3250532 Z" id="Path" fill="#191847"></path>
            <polygon id="Path" fill="#2A6FC3" points="176.11879 93.3406671 176.489265 92.4767566 177.476668 93.3406671 177.476668 94.5750532"></polygon>
            <path d="M62.943577,131.74237 L81.0415188,121.362669 L60.9474805,109.785309 L61.0805536,130.677786 C61.0523421,131.833392 62.3551278,132.09741 62.943577,131.74237 Z" id="Path" fill="url(#linearGradient-3)"></path>
            <path d="M246.185238,116.418737 L329.222853,164.724273 L329.222853,74.5007097 L293.160043,17.2792761 C272.113201,32.3471434 259.439319,43.5968772 246.185238,44.4261888 L246.185238,116.418737 Z" id="Path" fill="#293B7A"></path>
            <polygon id="Path" fill="#132152" points="329.08978 65.9840312 329.08978 164.458126 374.866927 141.569553 374.866927 38.5709723"></polygon>
            <path d="M331.485096,78.6259759 L293.026969,17.4123492 C317.113201,2.24201561 340.800213,-1.75017743 375,0.645138396 L375,54.5397445 L331.485096,78.6259759 Z" id="Path" fill="#3F5CC2"></path>
            <polygon id="Path" fill="url(#linearGradient-4)" points="268.275373 70.6415898 297.551455 88.0741661 297.551455 152.082328 268.275373 135.581263"></polygon>
            <path d="M297.442335,86.8820972 C297.703158,87.032736 297.865507,87.3111249 297.865507,87.6126686 L297.865507,151.798882 C297.865507,152.448013 297.162881,152.853886 296.598652,152.529454 L282.937367,144.648598 L268.429737,136.281494 C268.168914,136.130855 268.009226,135.851934 268.009226,135.55039 L268.030518,71.3894606 C268.030518,70.7405962 268.733144,70.3349894 269.294713,70.6588893 L297.442335,86.8820972 Z M296.936657,87.8085522 C297.19748,87.9589248 297.35983,88.2375798 297.35983,88.5393896 L297.35983,150.449787 C297.35983,151.098918 296.657204,151.504791 296.092974,151.180625 L268.935415,135.524574 C268.674592,135.373935 268.514904,135.09528 268.514904,134.793471 L268.536196,72.9070263 C268.536196,72.258428 269.238822,71.8528211 269.80039,72.1767211 L296.936657,87.8085522 Z" id="Shape" fill="#A4B0DB"></path>
            <path d="M275.389461,119.712562 L280.728353,117.119233 C281.132896,116.92335 281.606636,116.940649 281.995209,117.165543 L294.55731,124.452094 C295.015082,124.718506 295.001774,125.386267 294.530696,125.632452 L290.3522,127.820174 C289.937012,128.036551 289.44198,128.023776 289.040099,127.786107 L275.389461,119.712562 Z" id="Path" fill="#D7D8DF"></path>
            <path d="M288.688786,127.826295 L294.413591,124.63813 C294.871363,124.382097 295.435593,124.727555 295.414301,125.252928 L295.033712,135.173261 C295.015082,135.601224 294.796842,135.995919 294.442867,136.236515 L288.688786,140.144872 L288.688786,127.826295 Z" id="Path" fill="#D6D9E4"></path>
            <path d="M274.535131,120.810681 C274.535131,119.763928 275.674237,119.116661 276.573811,119.652945 L289.045422,127.097055 C289.452626,127.340312 289.700142,127.779986 289.700142,128.254524 L289.700142,138.774752 C289.700142,139.822569 288.558375,140.469837 287.658801,139.930891 L275.189851,132.448722 C274.782647,132.204933 274.535131,131.766057 274.535131,131.292583 L274.535131,120.810681 Z" id="Path" fill="#7B94B8"></path>
            <path d="M249.299681,141.345724 L274.197126,126.663502 C274.657559,126.391501 275.229773,126.393098 275.690206,126.668027 L289.990241,135.21824 C290.474627,135.507009 290.463982,136.210433 289.971611,136.484564 L265.544713,150.110451 C265.089603,150.364088 264.536018,150.356902 264.088893,150.092087 L249.299681,141.345724 Z" id="Path" fill="#C2CCDA"></path>
            <path d="M241.642122,139.48137 L246.981813,136.887775 C247.385291,136.691891 247.859564,136.709191 248.247339,136.934351 L260.809972,144.220635 C261.267743,144.487048 261.254436,145.154808 260.783357,145.400994 L256.604063,147.588715 C256.190472,147.805358 255.694375,147.792317 255.292495,147.554649 L241.642122,139.48137 Z" id="Path" fill="#D7D8DF"></path>
            <path d="M254.942779,147.595103 L260.666253,144.406671 C261.124024,144.150905 261.688254,144.496097 261.666962,145.021469 L261.286373,154.941803 C261.267743,155.369766 261.049503,155.764461 260.695529,156.005323 L254.942779,159.913414 L254.942779,147.595103 Z" id="Path" fill="#D6D9E4"></path>
            <path d="M240.787527,140.579223 C240.787527,139.532736 241.927963,138.885202 242.826739,139.421487 L255.296753,146.865596 C255.704489,147.108854 255.954134,147.548527 255.954134,148.023066 L255.953868,158.586409 C255.953868,159.624911 254.829134,160.273243 253.930358,159.752928 L241.460078,152.53451 C241.043825,152.293382 240.787527,151.848918 240.787527,151.367725 L240.787527,140.579223 Z" id="Path" fill="#7B94B8"></path>
            <path d="M254.507097,143.528921 C254.435504,143.487935 254.435238,143.385202 254.506565,143.343683 L291.802697,121.723829 C292.060859,121.573989 292.380234,121.574255 292.638396,121.724627 L299.922818,125.960344 C300.194287,126.1195 300.196948,126.514461 299.925479,126.677342 L263.785486,148.343506 C263.527324,148.498137 263.205287,148.501597 262.941803,148.352023 L254.507097,143.528921 Z" id="Path" fill="#F9FAFE"></path>
            <path d="M262.848652,148.594216 L300.082505,126.314851 L300.103797,142.717974 C300.103797,143.016057 299.944109,143.291785 299.685947,143.440561 L262.848652,164.653744 L262.848652,148.594216 Z" id="Path" fill="#C2CCDA"></path>
            <path d="M254.104684,144.260291 C254.104684,143.613822 254.809173,143.21407 255.364354,143.545422 L263.066891,148.14363 C263.31973,148.294003 263.474095,148.565472 263.474095,148.858765 L263.474095,163.836143 C263.474095,164.477023 262.779454,164.877839 262.223208,164.557399 L254.521203,160.11116 C254.263573,159.962385 254.104684,159.687456 254.104684,159.389904 L254.104684,144.260291 Z" id="Path" fill="#7B94B8"></path>
            <path d="M272.900994,67.9905075 L268.850248,70.5207594 L296.683818,86.6297906 C297.695174,87.8444819 297.780341,88.991572 297.695174,89.4131476 L297.527502,152.500177 C298.765082,151.712917 302.030696,149.952892 302.504436,149.885557 C302.975515,149.817956 303.036728,148.789035 303.010114,148.283091 L303.010114,85.6179028 C302.738644,83.9310681 301.434528,83.0032825 300.817069,82.7501774 L275.094038,67.9905075 C274.149219,67.2484918 273.236338,67.6812456 272.900994,67.9905075 Z" id="Path" fill="url(#linearGradient-5)"></path>
            <path d="M302.251597,110.121718 C302.251597,109.289478 301.413236,108.718595 300.638751,109.022534 C300.186302,109.199787 299.888219,109.636001 299.888219,110.121718 L299.888219,116.272889 C299.888219,117.104862 300.726579,117.676011 301.501065,117.372072 C301.953513,117.194553 302.251597,116.758605 302.251597,116.272889 L302.251597,110.121718 Z" id="Path" fill="#E3E5EC"></path>
            <path d="M302.251597,109.98412 C302.251597,109.342708 301.562278,108.936036 301.00071,109.245032 C300.731902,109.393009 300.56423,109.676455 300.56423,109.98412 L300.56423,116.747693 C300.56423,117.38884 301.250887,117.795777 301.812456,117.486781 C302.083925,117.338538 302.251597,117.055358 302.251597,116.747693 L302.251597,109.98412 Z" id="Path" fill="#A4B0DB"></path>
            <path d="M302.251597,94.9918382 C302.251597,94.0664478 301.234918,93.500621 300.447126,93.9882009 C300.101136,94.2035131 299.888219,94.5830376 299.888219,94.9918382 L299.888219,105.931778 C299.888219,106.857168 300.904897,107.422995 301.69269,106.935415 C302.03868,106.720103 302.251597,106.340578 302.251597,105.931778 L302.251597,94.9918382 Z" id="Path" fill="#E3E5EC"></path>
            <path d="M302.251597,94.8880412 C302.251597,94.1649219 301.399929,93.7771469 300.854329,94.2508872 C300.670688,94.4111072 300.56423,94.6434528 300.56423,94.8880412 L300.56423,106.373048 C300.56423,107.095901 301.413236,107.483676 301.958836,107.010202 C302.145138,106.849982 302.251597,106.61737 302.251597,106.373048 L302.251597,94.8880412 Z" id="Path" fill="#A4B0DB"></path>
            <polygon id="Path" fill="#D4AA79" points="241.247161 104.210344 256.229329 95.5597942 256.183286 124.589425 241.276171 133.165188"></polygon>
            <polygon id="Path" fill="#9D734F" points="226.032913 95.6108943 241.247693 104.754879 241.247693 132.995653 226.032913 124.151348"></polygon>
            <polygon id="Path" fill="#E9BD99" points="256.456352 95.6862136 241.24796 87.828247 225.958126 95.6862136 241.24796 104.755145"></polygon>
            <polygon id="Path" fill="#E0CFBE" points="231.73829 103.265525 231.73829 99.2187722 233.472498 100.085877 233.472498 104.421664"></polygon>
            <polygon id="Path" fill="#F9E8DD" points="231.73829 99.3113911 246.924858 90.8234564 248.830997 91.640259 233.342087 100.11329"></polygon>
            <polygon id="Path" fill="#D4AA79" points="71.3822747 151.560415 90.7122072 140.440028 90.6664301 159.043116 71.4112846 170.088715"></polygon>
            <polygon id="Path" fill="#9D734F" points="56.2313698 142.455287 71.3817424 151.560415 71.3817424 169.919979 56.2313698 161.113467"></polygon>
            <polygon id="Path" fill="#E9BD99" points="90.7119411 140.440028 74.5281228 132.806955 56.1568488 142.529808 71.3820085 151.560149"></polygon>
            <polygon id="Path" fill="#E0CFBE" points="61.9130589 156.07319 61.9130589 146.047197 63.6400816 146.654808 63.6400816 156.984741"></polygon>
            <polygon id="Path" fill="#F9E8DD" points="61.9130589 146.140082 78.6816004 136.55802 80.2784776 137.356458 63.5102023 146.93852"></polygon>
            <polygon id="Path" fill="#D4AA79" points="73.4699255 134.573368 85.9894429 127.370919 85.9596345 139.419624 73.4885557 146.573634"></polygon>
            <polygon id="Path" fill="#A57556" points="63.657115 128.6761 73.4696593 134.573368 73.4696593 146.464514 63.657115 140.760468"></polygon>
            <polygon id="Path" fill="#E9BD99" points="85.9891767 127.370919 75.5075408 122.427253 63.6089425 128.724539 73.4699255 134.573368"></polygon>
            <polygon id="Path" fill="#E0CFBE" points="67.0632541 135.249645 67.0632541 130.857967 68.6601313 131.656405 68.6601313 136.447569"></polygon>
            <polygon id="Path" fill="#F9E8DD" points="67.0632541 130.857967 78.706352 123.931512 80.3032292 124.72995 68.6601313 131.656405"></polygon>
        </g>
    </g>
</svg>