<svg xmlns="http://www.w3.org/2000/svg" width="20" height="36" viewBox="0 0 20 36">
    <g fill="#FFF" fill-rule="nonzero">
        <path d="M12.976 2.16H7.024c-.329 0-.595.323-.595.72 0 .397.266.72.595.72h5.952c.329 0 .595-.323.595-.72 0-.397-.266-.72-.595-.72zM17.381 2.16h-.476c-.263 0-.476.323-.476.72 0 .397.213.72.476.72h.476c.263 0 .476-.323.476-.72 0-.397-.213-.72-.476-.72zM11.133 30.96H9.582c-.951 0-1.725.743-1.725 1.655v.29c0 .913.774 1.655 1.724 1.655h1.552c.95 0 1.724-.742 1.724-1.655v-.29c0-.912-.774-1.655-1.724-1.655zm.474 1.945c0 .251-.212.455-.474.455H9.582a.465.465 0 0 1-.475-.455v-.29c0-.251.213-.455.475-.455h1.55c.263 0 .475.204.475.455v.29z"/>
        <path d="M17.874 0H2.126C.954 0 0 .973 0 2.169v31.662C0 35.027.954 36 2.126 36h15.748C19.046 36 20 35.027 20 33.832V2.169C20 .973 19.046 0 17.874 0zm.95 33.831a.96.96 0 0 1-.95.969H2.126a.96.96 0 0 1-.95-.968V2.169a.96.96 0 0 1 .95-.969h15.748a.96.96 0 0 1 .95.969v31.662z"/>
        <path d="M19.412 3.6H.588A.597.597 0 0 0 0 4.205v25.43c0 .334.264.605.588.605h18.824a.597.597 0 0 0 .588-.605V4.205a.597.597 0 0 0-.588-.605zm-.588 25.43H1.176V4.81h17.648v24.22z"/>
    </g>
</svg>
