<svg xmlns="http://www.w3.org/2000/svg" width="444" height="380" viewBox="0 0 444 380">
    <defs>
        <linearGradient id="a" x1="48.963%" x2="61.175%" y1="16.282%" y2="64.688%">
            <stop offset=".325%" stop-color="#241084"/>
            <stop offset="98.96%" stop-color="#0A5DE2"/>
        </linearGradient>
        <linearGradient id="b" x1="58.266%" x2="17.801%" y1="28.991%" y2="85.61%">
            <stop offset=".325%" stop-color="#241084"/>
            <stop offset="98.96%" stop-color="#0A5DE2"/>
        </linearGradient>
        <linearGradient id="c" x1="70.937%" x2="-12.368%" y1="34.755%" y2="115.397%">
            <stop offset="0%" stop-color="#241084" stop-opacity=".8"/>
            <stop offset="98.96%" stop-color="#0A5DE2" stop-opacity="0"/>
        </linearGradient>
    </defs>
    <g fill="none" fill-rule="evenodd">
        <path fill="#AFC6F5" d="M49.444 260l-1.222 10.333L41 289.111l6.667 2 5.11-19.555.667-11.112z"/>
        <path fill="url(#a)" d="M33 102l3.222 32.778-1.11 28.778h11.221l.556-2.112-7.667-1.11 4.111-25.445L47 103.222z" transform="translate(1 207.778)"/>
        <path fill="#3878FF" d="M30.333 309.444l-2.555 27.89L10.667 360l2 10.667h5.11l-3-2.223-.555-6.888 16.334-18.334 14.777-32.889z"/>
        <path fill="#F76D59" d="M53.444 260.444l-.222-10.333-2.11-.333L49.443 260zM33.111 274.889c-.778 3.778-.778 9.555 4.889 10.444 5.667.89 9-2.666 9.778-6.444.778-3.778-.556-8.556-6.334-9.333-3.888-.556-7.666 2.222-8.333 5.333z"/>
        <path fill="#1F1F89" d="M37.222 285c-4-1.111-5.555-5-5-8.889.667-4.778 5.445-7.444 9.222-6.555.223 0 .445.11.667.222.111.555 0 1.222-.111 1.666-.667 1.89-2.333 3.445-4.222 4 0-.11-1.222 8.334-.556 9.556z"/>
        <path fill="#F76D59" d="M36.778 276c-.556-.111-1.111.111-1.667.333-1.667.89-1.111 3.334.333 4.111.445.223 1 .334 1.556.445.444 0 .889 0 1.333-.222.334-.223.667-.667.667-1.111.111-.445 0-.89-.111-1.334-.222-.889-1.111-2-2.111-2.222z"/>
        <path fill="#F7F5EF" d="M42.889 273.778c.555 1.333 1.778 2.222 2.778 1.778 1-.334 1.444-1.778 1-3.223-.556-1.333-1.778-2.222-2.778-1.777-1 .333-1.445 1.777-1 3.222z"/>
        <path fill="#8E574A" d="M50 248.667C50 250 51 251 52.333 251c1.334 0 2.334-1 2.334-2.333 0-1.334-1-2.334-2.334-2.334-1.333 0-2.333 1-2.333 2.334z"/>
        <path fill="#AFC6F5" d="M61 264.444l-3.556 1.223c-1.444 4.222-3.888 8-7 11.11l-6.666 6.445-8.222 5.556-6.112 22.666 19.112 1.778.666-24.889 7.111-8.889c2.89-3.666 4.89-7.888 5.778-12.555L61 264.444z"/>
        <path fill="#FF5B30" d="M70 208H43.444a8.204 8.204 0 0 0-8.222 8.222v26.556A8.204 8.204 0 0 0 43.444 251H70a8.204 8.204 0 0 0 8.222-8.222v-26.556A8.204 8.204 0 0 0 70 208z"/>
        <g fill="#FFF" transform="translate(43.222 214.444)">
            <path d="M10.55 15.717h1v8.605h-1zM15.238 15.717h1v8.605h-1zM22.71 22.71h-2.344a.44.44 0 0 1-.44-.439v-6.554h.88v6.115h1.905v.879zM6.3 22.71H3.956v-.878h1.905v-6.115h.879v6.554a.44.44 0 0 1-.44.44z"/>
            <g transform="translate(9.48 20.781)">
                <circle cx="1.51" cy="4.42" r="1.465"/>
                <circle cx="6.198" cy="4.42" r="1.465"/>
                <circle cx="14.111" cy="1.49" r="1.465"/>
            </g>
            <path d="M23.337 7.809a7.881 7.881 0 0 0-8.03-7.808l5.866 16.302h1.19a4.303 4.303 0 0 0 .974-8.494z"/>
            <path d="M22.018 7.809c-.033-4.27-3.013-7.728-6.71-7.808a7.881 7.881 0 0 0-6.754 4.073 3.361 3.361 0 0 0-1.332-.275 3.359 3.359 0 0 0-3.33 2.919 4.84 4.84 0 0 0 .947 9.585h16.334c2.063 0 3.735-1.926 3.735-4.303 0-2.041-1.234-3.75-2.89-4.191z"/>
            <circle cx="3.077" cy="22.271" r="1.465"/>
        </g>
        <path fill="#F76D59" d="M61.667 250.222c0 1.334 1 2.334 2.333 2.334 1.333 0 2.333-1 2.333-2.334 0-1.333-1-2.333-2.333-2.333-1.222 0-2.333 1-2.333 2.333z"/>
        <path fill="#F76D59" d="M57 266.778l4.778 1.666 3.778-17.11-2.778-.667z"/>
        <path stroke="#0A5DE2" stroke-linecap="round" stroke-width="2" d="M1.444 371.111H85.89" opacity=".5"/>
        <path fill="#F7F5EF" d="M265.889 52.222h-93.333c-5.223 0-9.556 4.222-9.556 9.556v223.11c0 5.223 4.222 9.556 9.556 9.556h93.333c5.222 0 9.555-4.222 9.555-9.555V61.778c0-5.334-4.222-9.556-9.555-9.556z"/>
        <path fill="#1F1F89" d="M265.889 52.222h-93.333c-5.223 0-9.556 4.222-9.556 9.556v9.666h112.444v-9.666c0-5.334-4.222-9.556-9.555-9.556zM163.111 272.778V285c0 5.222 4.222 9.556 9.556 9.556H266c5.222 0 9.556-4.223 9.556-9.556v-12.222H163.11z"/>
        <path fill="#FF5B30" d="M257.778 78h-26.556A8.204 8.204 0 0 0 223 86.222v26.556a8.204 8.204 0 0 0 8.222 8.222h26.556a8.204 8.204 0 0 0 8.222-8.222V86.222A8.204 8.204 0 0 0 257.778 78z"/>
        <path fill="#AFC6F5" d="M257.778 208.556h-26.556a8.204 8.204 0 0 0-8.222 8.222v26.555a8.204 8.204 0 0 0 8.222 8.223h26.556a8.204 8.204 0 0 0 8.222-8.223v-26.555a8.204 8.204 0 0 0-8.222-8.222z"/>
        <path fill="#FF5B30" d="M207 208.556h-26.556a8.204 8.204 0 0 0-8.222 8.222v26.555a8.204 8.204 0 0 0 8.222 8.223H207a8.204 8.204 0 0 0 8.222-8.223v-26.555a8.204 8.204 0 0 0-8.222-8.222z"/>
        <g fill="#FFF">
            <path fill-rule="nonzero" d="M182.111 240h22.222v-22.222h-22.222V240zm14.927-9.218c-1.719-.58-2.424-1.52-2.424-2.57 0-1.556 1.284-2.75 3.329-2.75.977 0 1.827.235 2.352.525l-.452 1.556a3.894 3.894 0 0 0-1.864-.507c-.796 0-1.23.398-1.23.941 0 .561.416.814 1.538 1.23 1.61.561 2.334 1.376 2.352 2.678 0 1.61-1.249 2.678-3.583 2.678-1.067 0-2.026-.253-2.678-.615l.453-1.629c.488.308 1.447.652 2.243.652.977 0 1.412-.326 1.412-.905 0-.597-.362-.886-1.448-1.284zm-11.534-8.205c.814-.145 1.918-.254 3.402-.254 1.628 0 2.804.344 3.582.995.724.598 1.194 1.557 1.194 2.696 0 1.158-.361 2.1-1.03 2.75-.905.887-2.28 1.321-3.855 1.321-.416 0-.778-.018-1.085-.09v4.568h-2.208v-11.986z"/>
            <path d="M191.475 226.105c0-1.357-.94-2.063-2.479-2.063-.615 0-1.05.054-1.284.109v4.089c.29.09.633.108 1.085.108 1.665 0 2.678-.832 2.678-2.243z"/>
        </g>
        <path stroke="#0A5DE2" stroke-linecap="round" stroke-width="2" d="M162.556 295.556h121.222" opacity=".5"/>
        <path fill="#FFF" fill-rule="nonzero" d="M235.109 107.745c0 .778.518 1.297 1.296 1.297h1.296v4.537c0 1.037.908 1.944 1.945 1.944s1.944-.907 1.944-1.944v-4.537h2.593v4.537c0 1.037.907 1.944 1.944 1.944s1.945-.907 1.945-1.944v-4.537h1.296c.778 0 1.296-.519 1.296-1.297V94.782H235.11v12.963zm-3.241-12.963c-1.037 0-1.944.908-1.944 1.945v9.074c0 1.037.907 1.944 1.944 1.944s1.944-.907 1.944-1.944v-9.074c0-1.037-.907-1.945-1.944-1.945zm22.037 0c-1.037 0-1.944.908-1.944 1.945v9.074c0 1.037.907 1.944 1.944 1.944s1.944-.907 1.944-1.944v-9.074c0-1.037-.907-1.945-1.944-1.945zm-6.481-7.518l1.685-1.685a.627.627 0 0 0 0-.908.627.627 0 0 0-.908 0l-1.944 1.945c-.908-.648-2.074-.908-3.37-.908-1.297 0-2.463.26-3.5.778l-1.815-1.944c-.26-.13-.778-.13-1.037 0-.13.259-.13.777 0 1.037l1.685 1.685c-1.815 1.426-3.111 3.63-3.111 6.222h15.555c0-2.592-1.296-4.926-3.24-6.222zm-7.13 3.63h-1.296v-1.297h1.296v1.297zm6.481 0h-1.296v-1.297h1.296v1.297z"/>
        <g fill="#1F1F89">
            <path d="M302.995 211.583l1.096-.182 14.76 88.785-1.096.182zM275.88 211.593l1.096-.182 14.76 88.785-1.096.182z"/>
            <path d="M279.555 229.778h27.333v1.111h-27.333zM281.444 241.667h27.333v1.111h-27.333zM283.444 253.444h27.333v1.111h-27.333zM285.333 265.333h27.333v1.111h-27.333zM287.333 277.222h27.333v1.111h-27.333zM289.222 289h27.333v1.111h-27.333z"/>
        </g>
        <g fill="#3878FF">
            <path d="M260.337 300.182l14.769-88.776 1.096.182-14.769 88.776zM287.415 300.139l14.769-88.776 1.096.182-14.77 88.776z"/>
            <path d="M272.222 229.778h27.333v1.111h-27.333zM270.333 241.667h27.333v1.111h-27.333zM268.333 253.444h27.333v1.111h-27.333zM266.445 265.333h27.333v1.111h-27.333zM264.445 277.222h27.333v1.111h-27.333zM262.556 289h27.333v1.111h-27.333z"/>
        </g>
        <path fill="#0A5DE2" d="M273.445 210.111h33.333v3.333h-33.333z"/>
        <path fill="#AFC6F5" d="M335.889 195.111l-3.333-33.555-4.223-35.89 3.334-.444 7.444 34 11.667.89 12.11-34.445 3.223.444-8.778 36.778.445 31.333z"/>
        <path fill="#F76D59" d="M340 149.222c-.889 3.222.556 8.334 3.778 9.222 3.222.89 7-2.888 7.889-6.11a6.051 6.051 0 0 0-4.223-7.445c-3.222-.778-6.555 1.111-7.444 4.333z"/>
        <path fill="#2B159B" d="M344.333 147.444c-.666-.222-1.555-.666-1.889-1.222 0-.11 0-.11-.11-.222 1.444-1 3.333-1.444 5.11-1a6.051 6.051 0 0 1 4.223 7.444c-.667 2.334-2.778 4.89-5.111 5.778 0-.666.222-1.333.333-1.889.667-2.555 1.444-5.11 2.222-7.555a33.67 33.67 0 0 1-4.778-1.334z"/>
        <path fill="#F76D59" d="M348 152.333c.444-.333 1-.444 1.556-.222.11 0 .222.111.333.222.222.223.333.556.333.89-.11.888-.889 1.666-1.778 2-.222.11-.555.11-.777.11-.223 0-.556-.222-.667-.333-.556-.889.444-2.222 1-2.667z"/>
        <path fill="#3878FF" d="M357.778 194.222l-3.222 51.445H351l-3.111-51.111-3.111.222-2 52.11H340l-4.111-51.777-.667-6.333 22.445.222z"/>
        <path fill="#3878FF" d="M354.556 245.667l7.777.889-.222 1.222h-11.555l.444-2.111zM342.778 246.889v1.444l-10.778.445v-1.334l8-.555z"/>
        <path fill="#2B159B" d="M345.778 153.667c-2 .222-3.556-1.778-5.445-2H340l-.333.333c-.223.444-.445 1-.778 1.444-.222.445-.556 1-.667 1.556-.11.667 0 1.333.111 2 .111.556.223 1 .445 1.556.444.888 1.222 1.444 2.11 1.777.89.334 1.89.334 2.779.334.666-.111 1.333-.223 1.889-.445 1.222-.666 2-2.11 1.777-3.555 0-.334-.11-.667-.11-1 0-.334.221-.667.333-1 .222-.334 1.444-2 .444-2-.333 0-.778.555-1 .666-.333.111-.778.223-1.222.334z"/>
        <g fill="#AFC6F5" opacity=".4">
            <path d="M358.667 137.556h4.777l2.667-11.445-3.222-.444zM331.667 125.222l-3.334.445 1.445 11.889h4.555z"/>
        </g>
        <path fill="#AFC6F5" d="M411.333 88.889H302.667c-5.334 0-9.667 4.333-9.667 9.667v16.222c0 5.333 4.333 9.666 9.667 9.666h108.666c5.334 0 9.667-4.333 9.667-9.666V98.556c0-5.334-4.333-9.667-9.667-9.667z"/>
        <path fill="#3C6CBC" d="M408.111 88.889H299.444c-5.333 0-9.666 4.333-9.666 9.667v16.222c0 5.333 4.333 9.666 9.666 9.666h108.667c5.333 0 9.667-4.333 9.667-9.666v-6.176-10.046c0-5.334-4.334-9.667-9.667-9.667z"/>
        <path fill="#FFF" fill-rule="nonzero" d="M409.667 116.222l-5.223-5.444a8.715 8.715 0 0 0 2.112-5.667c0-4.889-4-8.889-8.89-8.889-4.888 0-8.888 4-8.888 8.89 0 4.888 4 8.888 8.889 8.888 1.777 0 3.555-.556 5.11-1.556L408 117.89a1.2 1.2 0 0 0 .778.333c.333 0 .555-.11.778-.333.555-.556.555-1.222.11-1.667zm-12-17.666c3.555 0 6.555 2.888 6.555 6.555 0 3.556-2.889 6.556-6.555 6.556-3.556 0-6.556-2.89-6.556-6.556.111-3.667 3-6.555 6.556-6.555z"/>
        <path stroke="#0A5DE2" stroke-linecap="round" stroke-width="2" d="M300.333 248.889H415.89" opacity=".5"/>
        <path fill="#F76D59" d="M332.444 123.778a2.75 2.75 0 0 1-2.777 2.778 2.75 2.75 0 0 1-2.778-2.778 2.75 2.75 0 0 1 2.778-2.778c1.444 0 2.777 1.222 2.777 2.778zM366.111 124.556a2.75 2.75 0 0 1-2.778 2.777 2.75 2.75 0 0 1-2.777-2.777 2.75 2.75 0 0 1 2.777-2.778 2.75 2.75 0 0 1 2.778 2.778z"/>
        <path fill="#AFC6F5" d="M229.778 132.778c.555 1.555-.222 3.333-1.778 4-1.556.666-3.333-.222-4-1.778-.556-1.556.222-3.333 1.778-4 1.666-.556 3.444.222 4 1.778z"/>
        <path fill="#3C6CBC" d="M220.556 119.444l-26.223-4.555c-4.444-.778-8.777 2.222-9.555 6.667l-4.556 26.222c-.778 4.444 2.222 8.778 6.667 9.555l26.222 4.556c4.445.778 8.778-2.222 9.556-6.667L227.222 129c.778-4.444-2.222-8.778-6.666-9.556z"/>
        <path fill="#FFF" d="M207.771 130.307c-2.217 0-3.395 1.109-5.137 1.086-1.742.023-2.92-1.086-5.137-1.086-1.765 0-4.006 1.086-5.024 2.671-1.878 2.897-1.697 6.044-.905 9.303.86 3.464 3.892 7.719 6.291 7.719 1.969 0 2.852-1.064 4.775-1.064 1.923 0 2.783 1.064 4.73 1.064 2.217 0 4.865-3.645 5.997-6.882-2.173-.86-3.644-3.01-3.644-5.296 0-2.264 1.155-4.007 2.92-5.002-1.086-1.472-3.169-2.513-4.866-2.513zm-.589-5.863c-3.19.34-5.566 3.01-5.363 6.044 3.191-.317 5.545-3.01 5.363-6.044z"/>
        <path fill="#3878FF" d="M93.778 268H113c.444 0 .889-.222 1-.667.222-.444.111-.889-.222-1.222l-18.556-20-1.666 1.556 16.777 18.11H93.667V268h.11z"/>
        <path fill="#D64536" d="M229.111 133.111l8.222 3.222 24.111 2.334-8.11 5.666-16.89-4.11-8.555-3.89z"/>
        <path fill="#AFC6F5" d="M258.111 129.444c1.333 3.445-.444 7.334-3.889 8.667-3.444 1.333-7.333-.444-8.666-3.889-1.334-3.444.444-7.333 3.888-8.666 3.445-1.334 7.334.444 8.667 3.888z"/>
        <path fill="url(#b)" d="M63.444 32.889L60.667 61l1 24.667H52.11l-.555-1.89 6.555-.888-3.444-21.778-3.223-27.222z" transform="translate(219.889 124.444)"/>
        <path fill="#F76D59" d="M225.222 136c3.556 1.444 15.334 4.556 19.111 4.222l7.89-.666 8.221-2.112 18 8.778-9.555 13.334-16.445-13.667-9.666-.445c-4-.222-15.334-4.444-18.778-6.555l1.222-2.889z"/>
        <path fill="#1F1F89" d="M259.222 127.778c-1.444-3.222-7-4-10.222-2.445-.222.111-.333.223-.556.334 0 .555.223 1 .445 1.444.889 1.556 2.667 2.556 4.444 2.667 0 0 .111.333.334.889.222-.223.444-.445.666-.556.445-.222 1-.222 1.556 0 1.667.445 1.555 2.778.444 3.667a2.649 2.649 0 0 1-1.222.666h-.222c-.111 2.223 0 2.445.444 3.112 2.778-1.89 5.667-5.667 3.89-9.778z"/>
        <path fill="#3878FF" d="M312.778 153.667l-16.111 7-18.556-14.334-9.555 13.111 28.11 8.667 16.556-11.222 3.556 4 1.222-1.222z"/>
        <path fill="#AFC6F5" d="M226.222 135.889c.556 1.555-.222 3.333-1.778 4-1.555.555-3.333-.222-4-1.778-.555-1.555.223-3.333 1.778-4 1.667-.555 3.445.222 4 1.778z"/>
        <path fill="#3878FF" fill-rule="nonzero" d="M92.778 58.444h21.778V277H92.778V58.444zm19.555 2.223H95v214.11h17.333V60.668z"/>
        <path fill="#F7F5EF" d="M117.58 285.13H89.911v-19.889h27.667z"/>
        <path fill="#3878FF" d="M93.778 185.889H113c.444 0 .889-.222 1-.667.111-.444.111-.889-.222-1.222l-18.556-20-1.666 1.556 16.777 18.11H93.667v2.223h.11z"/>
        <path fill="#3878FF" d="M93.778 206.333H113c.444 0 .889-.222 1-.666.222-.445.111-.89-.222-1.223l-18.556-20L93.556 186l16.777 18.111H93.667v2.222h.11z"/>
        <path fill="#3878FF" d="M93.778 226.889H113c.444 0 .889-.222 1-.667.222-.444.111-.889-.222-1.222l-18.556-20-1.666 1.556 16.777 18.11H93.667v2.223h.11z"/>
        <path fill="#3878FF" d="M93.778 247.444H113c.444 0 .889-.222 1-.666.111-.445.111-.89-.222-1.222l-18.556-20-1.666 1.555 16.777 18.111H93.667v2.222h.11zM93.778 165.778H113c.444 0 .889-.222 1-.667.222-.444.111-.889-.222-1.222l-18.556-20-1.666 1.555 16.777 18.112H93.667v2.222h.11z"/>
        <path fill="#3878FF" d="M93.778 145.778H113c.444 0 .889-.222 1-.667.222-.444.111-.889-.222-1.222l-18.556-20-1.666 1.555 16.777 18.112H93.667v2.222h.11z"/>
        <path fill="#3878FF" d="M93.778 125.667H113c.444 0 .889-.223 1-.667.222-.444.111-.889-.222-1.222l-18.556-20-1.666 1.555 16.777 18.111H93.667v2.223h.11z"/>
        <path fill="#3878FF" d="M93.778 105.667H113c.444 0 .889-.223 1-.667.222-.444.111-.889-.222-1.222l-18.556-20-1.666 1.555 16.777 18.111H93.667v2.223h.11z"/>
        <path fill="#3878FF" d="M93.778 85.556H113c.444 0 .889-.223 1-.667.111-.445.111-.889-.222-1.222l-18.556-20-1.666 1.555 16.777 18.111H93.667v2.223h.11z"/>
        <path fill="#3878FF" d="M93.778 65.556H113c.444 0 .889-.223 1-.667.222-.445.111-.889-.222-1.222l-18.556-20-1.666 1.555 16.777 18.111H93.667v2.223h.11z"/>
        <path fill="#1F1F89" d="M128.045 66.005H92.823V36.338h35.222zM75.12 53.36H39.898V36.247H75.12z"/>
        <path fill="#3878FF" d="M40.444 38.444h174.112c.666 0 1.11-.444 1.11-1.11 0-.667-.444-1.112-1.11-1.112H40.444c-.666 0-1.11.445-1.11 1.111 0 .667.555 1.111 1.11 1.111zM205.333 42.556h1.111v72.222h-1.111zM127.024 290.28H80.468V281.5h46.556z"/>
        <path fill="#3878FF" d="M110.333 38.111c.111 0 .334 0 .445-.111l9.333-9.333h85.111L214 37.444a.537.537 0 0 0 .778 0 .537.537 0 0 0 0-.777l-9-9h-86l-9.556 9.555a.537.537 0 0 0 0 .778c-.222.111 0 .111.111.111zM39.778 38.111c.222 0 .444-.111.444-.333L49.556 20H72.11l8.778 17.222c.111.222.444.334.778.222.222-.11.333-.444.222-.777l-9-17.778h-24l-9.556 18.333c-.11.222 0 .556.223.778 0 .111.11.111.222.111z"/>
        <path fill="#AFC6F5" d="M201.778 42.556a4.102 4.102 0 0 0 4.11 4.11 4.102 4.102 0 0 0 4.112-4.11 4.102 4.102 0 0 0-4.111-4.112 4.102 4.102 0 0 0-4.111 4.112z"/>
        <path fill="#3878FF" d="M181.778 28.667c.222 0 .444-.111.555-.445.111-.333-.11-.555-.333-.666L99.778 2.444h-.334l-39 16.445c-.333.111-.444.444-.333.778.111.333.445.444.778.333L99.667 3.667l82.11 25c-.11 0 0 0 0 0z"/>
        <path fill="#3878FF" d="M112.444 38.222c.112 0 .223 0 .445-.11.555-.223.889-.89.667-1.445l-13-34.111c-.223-.445-.667-.778-1.112-.667-.444 0-.888.444-1 .889L91.778 36c-.111.556.222 1.222.889 1.333.555.111 1.222-.222 1.333-.889L99.889 7l11.555 30.444c.223.445.556.778 1 .778z"/>
        <path fill="#BCCCFD" d="M97.333 3c0 1.222 1 2.222 2.223 2.222 1.222 0 2.222-1 2.222-2.222s-1-2.222-2.222-2.222c-1.223 0-2.223 1-2.223 2.222z"/>
        <path fill="#3878FF" d="M193.556 38.222c.11 0 .222 0 .333-.11l10.889-8.779v8.223c0 .333.222.555.555.555.334 0 .556-.222.556-.555V28.11a.611.611 0 0 0-.333-.555c-.223-.112-.445-.112-.556.11l-11.778 9.556c-.222.222-.222.556-.11.778.11.222.221.222.444.222z"/>
        <path fill="#3878FF" d="M183 38.222c.111 0 .222 0 .333-.11l10.89-8.779v8.223c0 .333.221.555.555.555.333 0 .555-.222.555-.555V28.11a.611.611 0 0 0-.333-.555c-.222-.112-.444-.112-.556.11l-11.777 9.556c-.223.222-.223.556-.111.778.11.222.222.222.444.222z"/>
        <path fill="#3878FF" d="M172.444 38.222c.112 0 .223 0 .334-.11l10.889-8.779v8.223c0 .333.222.555.555.555.334 0 .556-.222.556-.555V28.11a.611.611 0 0 0-.334-.555c-.222-.112-.444-.112-.555.11l-11.778 9.556c-.222.222-.222.556-.111.778.111.222.222.222.444.222z"/>
        <path fill="#3878FF" d="M161.889 38.222c.111 0 .222 0 .333-.11l10.89-8.779v8.223c0 .333.221.555.555.555.333 0 .555-.222.555-.555V28.11a.611.611 0 0 0-.333-.555c-.222-.112-.445-.112-.556.11l-11.777 9.556c-.223.222-.223.556-.112.778.112.222.223.222.445.222z"/>
        <path fill="#3878FF" d="M151.333 38.222c.111 0 .223 0 .334-.11l10.889-8.779v8.223c0 .333.222.555.555.555.333 0 .556-.222.556-.555V28.11a.611.611 0 0 0-.334-.555c-.222-.112-.444-.112-.555.11L151 37.223c-.222.222-.222.556-.111.778.111.222.222.222.444.222z"/>
        <path fill="#3878FF" d="M140.778 38.222c.11 0 .222 0 .333-.11L152 29.332v8.223c0 .333.222.555.556.555.333 0 .555-.222.555-.555V28.11a.611.611 0 0 0-.333-.555c-.222-.112-.445-.112-.556.11l-11.778 9.556c-.222.222-.222.556-.11.778.11.222.222.222.444.222z"/>
        <path fill="#3878FF" d="M130.222 38.222c.111 0 .222 0 .334-.11l10.888-8.779v8.223c0 .333.223.555.556.555.333 0 .556-.222.556-.555V28.11a.611.611 0 0 0-.334-.555c-.222-.112-.444-.112-.555.11l-11.778 9.556c-.222.222-.222.556-.111.778.11.222.333.222.444.222z"/>
        <path fill="#3878FF" d="M119.667 38.222c.11 0 .222 0 .333-.11l10.889-8.779v8.223c0 .333.222.555.555.555.334 0 .556-.222.556-.555V28.11a.611.611 0 0 0-.333-.555c-.223-.112-.445-.112-.556.11l-11.778 9.556c-.222.222-.222.556-.11.778.11.222.333.222.444.222zM57.333 38.222c.111 0 .334-.11.445-.222L72 21.222v16.222c0 .334.222.556.556.556.333 0 .555-.222.555-.556V19.667a.611.611 0 0 0-.333-.556c-.222-.111-.445 0-.667.111L57 37.112c-.222.221-.222.555.111.777-.111.333.111.333.222.333z"/>
        <path fill="#3878FF" d="M46.444 38.222c.223 0 .334-.11.445-.222l10.778-16.333v15.889c0 .333.222.555.555.555.334 0 .556-.222.556-.555V19.778c0-.222-.111-.445-.445-.556-.222-.11-.444 0-.666.222l-11.778 17.89c-.222.222-.111.555.111.777a.84.84 0 0 0 .444.111z"/>
        <path fill="#1F1F89" d="M202.444 116.222a3.462 3.462 0 0 0 3.445 3.445 3.462 3.462 0 0 0 3.444-3.445 3.462 3.462 0 0 0-3.444-3.444c-1.889-.111-3.445 1.444-3.445 3.444z"/>
        <path stroke="#0A5DE2" stroke-linecap="round" stroke-width="2" d="M60.333 291.111h84.445" opacity=".5"/>
        <g>
            <path fill="#F76D59" d="M411.889 327l-1.222-17.333 1.889-12.89L419.222 259l-3.222-.444-7.333 33.333-11.445.889L385.444 259l-3.222.444 8.667 36.112 3 13.777-.333 16.778z"/>
            <path fill="#1F1F89" d="M396.111 280.444l-1.111 10 6.778.556L406 280.444z"/>
            <path fill="#F7F5EF" d="M408.667 284.111c0 3.778-3.111 6.889-6.89 6.889-3.777 0-6.888-3.111-6.888-6.889s3.111-6.889 6.889-6.889 6.889 3.111 6.889 6.89z"/>
            <path fill="#3C6CBC" d="M414.444 216.889H387.89a8.204 8.204 0 0 0-8.222 8.222v26.556a8.204 8.204 0 0 0 8.222 8.222h26.555a8.204 8.204 0 0 0 8.223-8.222V225.11a8.204 8.204 0 0 0-8.223-8.222z"/>
            <g fill="#FFF">
                <path fill-rule="nonzero" d="M390.452 247.74v5.296h1.352v-1.38l1.23 1.23h2.072l-1.644-1.644s1.183-.02 1.272-1.73c0-1.57-1.184-1.773-2.552-1.773h-1.73zm1.416 1.436h1.165v.944h-1.165v-.944zM397.716 247.76c-.74-.004-1.766.065-1.766 1.459v3.682h1.387V252h1.343v.88h1.395v-3.861c0-1.211-1.346-1.258-2.066-1.258h-.293zm-.358 1.33h1.301v1.451h-1.301v-1.45z"/>
                <path d="M401.464 247.764h1.435v5.067h-1.435zM404.401 247.831v5.068h3.453v-1.346h-2.04v-3.744zM412.429 247.787v1.367h-2.31v.493h.986c.516 0 1.592-.022 1.592 1.593 0 1.614-.74 1.704-2.242 1.704h-1.816v-1.234h2.085c.628 0 .663-.204.663-.382 0-.178-.321-.261-.974-.261s-1.863-.321-1.863-1.577c0-1.255.627-1.726 1.883-1.726s1.996.023 1.996.023z"/>
                <g>
                    <path d="M391.71 246.24h11.929s-2.646-6.01-1.973-11.526c.673-5.515 5.022-8.027 7.489-8.296 2.466-.27 3.812 1.256 3.812 1.256l.538-.808s-3.543-3.587-8.027-3.184c-4.485.404-7.58 3.364-9.507 6.951-1.929 3.588-3.05 6.1-3.812 9.866-.762 3.767-.449 5.74-.449 5.74zM389.334 240.23l2.332.18-.404 2.331-2.197-.269zM393.01 235.297l.629-1.749-2.063-.807-.673 1.883zM395.926 229.288l1.21-1.435-1.569-1.031-1.256 1.39zM399.11 223.727l1.076 1.3 1.48-.851-1.077-1.211zM404.357 222.247l.269 1.301 1.838-.045-.18-1.166z"/>
                    <path d="M410.59 223.638l-.045.807 1.256.672.269-.403zM410.32 227.09v.673l1.212.135v-.538zM406.464 227.674l.583 1.076.852-.673-.179-.717zM404.625 229.064l.897 1.345-.538.942-1.3-1.435zM402.832 232.786l-.583 1.166 1.525 1.3.358-1.48zM402.204 236.867l-.09 1.57 1.884.807-.09-1.48zM402.742 242.428l.449 1.614 2.376.135-.852-1.75z"/>
                </g>
            </g>
            <path fill="#1F1F89" d="M404.333 283.667c.111.11.334.11.445.11.11 0 .222-.221.333-.333.333-.444 1.111-.444 1.556 0 .444.445.444 1.112.222 1.667-.333.556-.889.778-1.445.889-.333 1.333-.555 2.778-.444 4.222.889.111 1.889.111 2.778.222.222 0 .333 0 .555-.11.111-.112.223-.334.223-.445.333-1.667.555-3.222.555-4.889 0-1.556-.222-3.222-1-4.667-1-1.666-5.111-4.333-7.111-2.889-2.333 1.556 1.778 5.445 3.333 6.223z"/>
            <path fill="#1F1F89" d="M398.667 281.333c-1.111 1.111-2.667 2-4.334 2.111-.11-1.777.667-3.666 2.111-4.777.778-.667 3.334-2.111 4.445-1.445 1.111.667-1.445 3.334-2.222 4.111z"/>
            <path fill="#0A5DE2" d="M411.222 314.667l-17.444-.778L380.333 374l-6.222-3.778 7.556 9.222 17.889-49.555-.223 22.444 12.111 16.111.778 5.778.334 2.445 2.11-.223.445-8.888-9.444-15.223L412.333 327z"/>
            <path fill="#AFC6F5" d="M412.333 275.333l3.778 1.334L419.222 259l-3.222-.444zM390.333 273l-4.444 1.667-3.667-15.223 3.222-.444z"/>
            <path fill="#F7F5EF" d="M405.111 292.222L401.89 298l-1.667-5.444z"/>
            <path fill="#AFC6F5" d="M380.778 257.222a2.75 2.75 0 0 0 2.778 2.778 2.75 2.75 0 0 0 2.777-2.778 2.75 2.75 0 0 0-2.777-2.778 2.75 2.75 0 0 0-2.778 2.778zM415.111 257.667a2.75 2.75 0 0 0 2.778 2.777 2.75 2.75 0 0 0 2.778-2.777 2.75 2.75 0 0 0-2.778-2.778c-1.556 0-2.778 1.333-2.778 2.778z"/>
            <path fill="url(#c)" d="M37 126.778l4.222-11.667.445-3.667-5.556-14.222-5.889 26.111c2.556 1.334 5 2.556 6.778 3.445z" transform="translate(357.667 216.667)"/>
            <path stroke="#0A5DE2" stroke-linecap="round" stroke-width="2" d="M358.333 378.333h84.445" opacity=".5"/>
        </g>
        <path stroke="#0A5DE2" stroke-linecap="round" stroke-width="2" d="M245 300h84.444" opacity=".5"/>
        <g>
            <path fill="#3C6CBC" d="M157.778 162.444h-26.556a8.204 8.204 0 0 0-8.222 8.223v26.555a8.204 8.204 0 0 0 8.222 8.222h26.556a8.204 8.204 0 0 0 8.222-8.222v-26.555a8.204 8.204 0 0 0-8.222-8.223z"/>
            <path fill="#AFC6F5" d="M133.333 275.333L130 242l-4.111-35.667 3.222-.444 7.445 33.778 11.555 1 12-34.334 3.222.445-8.777 36.666.444 31z"/>
            <path fill="#F76D59" d="M131 204.556a2.75 2.75 0 0 1-2.778 2.777 2.75 2.75 0 0 1-2.778-2.777 2.75 2.75 0 0 1 2.778-2.778 2.75 2.75 0 0 1 2.778 2.778zM163.333 205.444a2.75 2.75 0 0 1-2.777 2.778 2.75 2.75 0 0 1-2.778-2.778 2.75 2.75 0 0 1 2.778-2.777 2.75 2.75 0 0 1 2.777 2.777zM149.667 229.556a7.09 7.09 0 0 1-7.111 7.11 7.09 7.09 0 0 1-7.112-7.11 7.09 7.09 0 0 1 7.112-7.112c3.888 0 7.11 3.223 7.11 7.112z"/>
            <path fill="#1F1F89" d="M149.667 230.667a7.09 7.09 0 0 1-7.111 7.11 7.09 7.09 0 0 1-7.112-7.11 7.09 7.09 0 0 1 7.112-7.111c3.888 0 7.11 3.222 7.11 7.11z"/>
            <path fill="#3878FF" d="M155 274.444l-3.111 51.112h-3.556l-3-50.778-3.222.222-1.889 51.778-2.778-.111-4.11-51.334-.667-6.333 22.333.333z"/>
            <path fill="#3878FF" d="M151.889 325.556l7.778.888-.334 1.112H148l.333-2zM140.222 326.778v1.444l-10.666.445v-1.334l7.888-.666z"/>
            <path stroke="#0A5DE2" stroke-linecap="round" stroke-width="2" d="M117.222 328.333h62.222" opacity=".5"/>
        </g>
        <g>
            <path fill="#80392E" d="M238.667 340.556v.332c0 .112 0 .112-.111.223 0 .111-.112.111-.223.222l-.222.223c-.111.11-.222.11-.333.222 0 0-.111 0-.111.11-.111.112-.223.112-.334.223 0 0-.11 0-.11.111-.112 0-.223.111-.334.111 0 0-.111 0-.111.111-.222.112-.334.112-.556.223l-19 6.555c-.222.111-.333.111-.555.111-.334.111-.556.111-.89.223-.333.11-.777.11-1.11.222-.223 0-.445.11-.667.11-.333 0-.556.112-.889.112h-3.222c-.556 0-1-.111-1.445-.111-.444-.111-.888-.111-1.333-.222-.444-.111-.889-.223-1.222-.334l-18.667-6.444c-.11 0-.222-.111-.333-.111-.111 0-.222-.111-.222-.111-.111 0-.111-.111-.223-.111-.11 0-.11-.112-.222-.112-.11 0-.11-.11-.222-.11-.111 0-.111-.112-.222-.112s-.111-.11-.111-.11c-.111 0-.111-.112-.223-.112l-.11-.111-.112-.111-.11-.111s0-.111-.112-.111c0 0 0-.112-.111-.112-.111-.11-.111-.222-.111-.444l.11 8.333c0 .111 0 .223.112.445 0 0 0 .11.111.11 0 0 0 .112.111.112l.111.111.111.111.112.111.11.111c.112 0 .112.112.223.112l.111.11c.111 0 .111.112.222.112 0 0 .111 0 .222.11.112 0 .223.112.334.112.11 0 .11 0 .222.111.111 0 .222.111.333.111L206 357.667c.222.11.444.11.667.222.222 0 .333.111.555.111.111 0 .334.111.445.111.11 0 .333.111.555.111.111 0 .334 0 .445.111.11 0 .333 0 .444.111H213.556c.222 0 .333 0 .555-.11.222 0 .445 0 .667-.112H215c.222 0 .556-.11.778-.11h.11c.334-.112.556-.112.89-.223.11 0 .333-.111.444-.111h.111l19-6.556c.223-.11.334-.11.556-.222 0 0 .111 0 .111-.111.111 0 .222-.111.333-.111h.111s.112 0 .112-.111l.11-.111s.112 0 .112-.112c0 0 .11 0 .11-.11H238l.222-.223.111-.111.111-.111c0-.111.112-.111.112-.222 0 0 0-.111.11-.111v-.112-.11-8.778z"/>
            <path fill="#F76D59" d="M236.222 338.667c3.222 1.11 3.111 2.889-.11 4l-19 6.555c-3.223 1.111-8.445 1.111-11.668 0l-18.666-6.444c-3.222-1.111-3.111-2.89.11-4l19-6.556c3.223-1.11 8.445-1.11 11.668 0l18.666 6.445z"/>
        </g>
        <g>
            <path fill="#1F1F89" d="M312.111 333.444v.333c0 .112 0 .112-.111.223 0 .111-.111.111-.222.222l-.222.222c-.112.112-.223.112-.334.223 0 0-.11 0-.11.11-.112.112-.223.112-.334.223 0 0-.111 0-.111.111-.111 0-.223.111-.334.111 0 0-.11 0-.11.111-.223.111-.334.111-.556.223l-19 6.555c-.223.111-.334.111-.556.111-.333.111-.555.111-.889.222-.333.112-.778.112-1.11.223-.223 0-.445.11-.668.11-.333 0-.555.112-.888.112h-3.223c-.555 0-1-.111-1.444-.111-.445-.111-.889-.111-1.333-.222a18.23 18.23 0 0 1-1.223-.334l-18.666-6.444c-.111 0-.223-.111-.334-.111-.11 0-.222-.111-.222-.111-.111 0-.111-.112-.222-.112s-.111-.11-.222-.11-.111-.112-.223-.112c-.11 0-.11-.11-.222-.11-.11 0-.11-.112-.11-.112-.112 0-.112-.111-.223-.111l-.111-.111-.111-.111-.111-.111s0-.112-.112-.112c0 0 0-.11-.11-.11-.112-.112-.112-.223-.112-.445l.111 8.333c0 .111 0 .222.111.445 0 0 0 .11.112.11 0 0 0 .112.11.112l.112.111.11.111.112.111.111.111c.111 0 .111.111.222.111l.111.112c.112 0 .112.11.223.11 0 0 .11 0 .222.112.111 0 .222.11.333.11.111 0 .111 0 .222.112.112 0 .223.111.334.111l18.666 6.445c.223.11.445.11.667.222.222 0 .333.11.556.11.11 0 .333.112.444.112.111 0 .333.111.556.111.11 0 .333 0 .444.111.111 0 .333 0 .445.111H287c.222 0 .333 0 .556-.11.222 0 .444 0 .666-.112h.222c.223 0 .556-.111.778-.111h.111c.334-.111.556-.111.89-.222.11 0 .333-.111.444-.111h.11l19-6.556c.223-.111.334-.111.556-.222 0 0 .111 0 .111-.111.112 0 .223-.111.334-.111h.11s.112 0 .112-.111l.111-.112s.111 0 .111-.11c0 0 .111 0 .111-.112h.111c.112-.11.112-.11.223-.222l.11-.111.112-.111c0-.111.111-.111.111-.222 0 0 0-.112.111-.112v-.11-.112V333.444z"/>
            <path fill="#3878FF" d="M309.667 331.444c3.222 1.112 3.11 2.89-.111 4l-19 6.556c-3.223 1.111-8.445 1.111-11.667 0l-18.667-6.444c-3.222-1.112-3.11-2.89.111-4l19-6.556c3.223-1.111 8.445-1.111 11.667 0l18.667 6.444z"/>
        </g>
    </g>
</svg>
