<svg width="404" height="371" viewBox="0 0 404 371" fill="none" xmlns="http://www.w3.org/2000/svg">
<path d="M326.926 127.362L192.367 204.535V289.872L326.926 209.07V127.362Z" fill="#8E3127"/>
<path d="M153.735 269.368L113.71 243.877L1.11605 182.908V239.597L153.735 328.18V269.368Z" fill="#58140C"/>
<path d="M44.215 198.792L44.9708 121.316L192.742 206.35L193.433 284.582L44.215 198.792Z" fill="#58140C"/>
<path d="M193.66 247.169L153.412 270.601V327.804L193.66 303.859V247.169Z" fill="#8E3127"/>
<path d="M326.906 127.641L178.283 43.1788L44.9705 121.316L192.741 206.35L326.906 127.641Z" fill="#EF4D3B"/>
<path d="M193.119 247.546L41.5549 159.854L0.738417 182.908L153.572 270.631L193.119 247.546Z" fill="#EF4D3B"/>
<path d="M157.531 279.828L190.228 261.014L190.228 305.824L157.536 325.364L157.531 279.828Z" fill="#898989"/>
<path d="M158.747 301.814L158.747 289.588L189.498 305.645L158.747 323.409L158.747 301.814Z" fill="#333333"/>
<path d="M189.498 305.646L169.106 294.957L158.655 289.588L158.655 287.575L170.506 280.732L189.498 269.756L189.498 305.646Z" fill="#4F4F4F"/>
<path d="M158.556 285.14L189.231 267.454L189.231 269.6L158.556 287.331L158.556 285.14Z" fill="#E0E0E0"/>
<path d="M158.556 282.475L189.231 264.789L189.231 266.935L158.556 284.666L158.556 282.475Z" fill="#E0E0E0"/>
<path d="M158.556 279.791L189.231 262.105L189.231 264.252L158.556 281.983L158.556 279.791Z" fill="#E0E0E0"/>
<line x1="0.402488" y1="-0.402488" x2="0.564972" y2="-0.402488" transform="matrix(0.866006 -0.500034 0.499966 0.866045 173.936 278.134)" stroke="black" stroke-width="0.804976" stroke-linecap="round"/>
<path d="M200.814 253.679L223.066 240.875L223.066 271.371L200.818 284.668L200.814 253.679Z" fill="#898989"/>
<path d="M201.642 268.641L201.642 260.321L222.57 271.249L201.642 283.338L201.642 268.641Z" fill="#333333"/>
<path d="M222.568 271.249L208.69 263.975L201.578 260.321L201.578 258.951L209.643 254.294L222.568 246.824L222.568 271.249Z" fill="#4F4F4F"/>
<path d="M201.51 257.294L222.385 245.257L222.385 246.718L201.51 258.785L201.51 257.294Z" fill="#E0E0E0"/>
<path d="M201.51 255.48L222.385 243.444L222.385 244.905L201.51 256.972L201.51 255.48Z" fill="#E0E0E0"/>
<path d="M201.51 253.654L222.385 241.618L222.385 243.078L201.51 255.145L201.51 253.654Z" fill="#E0E0E0"/>
<line x1="0.273915" y1="-0.273915" x2="0.384495" y2="-0.273915" transform="matrix(0.86601 -0.500027 0.499973 0.866041 211.977 252.526)" stroke="black" stroke-width="0.54783" stroke-linecap="round"/>
<path d="M233.014 234.449L255.266 221.645L255.266 252.141L233.017 265.439L233.014 234.449Z" fill="#898989"/>
<path d="M233.841 249.412L233.841 241.091L254.769 252.019L233.841 264.108L233.841 249.412Z" fill="#333333"/>
<path d="M254.768 252.019L240.89 244.745L233.777 241.091L233.777 239.721L241.842 235.064L254.768 227.594L254.768 252.019Z" fill="#4F4F4F"/>
<path d="M233.708 238.064L254.584 226.028L254.584 227.489L233.708 239.555L233.708 238.064Z" fill="#E0E0E0"/>
<path d="M233.708 236.251L254.584 224.214L254.584 225.675L233.708 237.742L233.708 236.251Z" fill="#E0E0E0"/>
<path d="M233.708 234.424L254.584 222.388L254.584 223.849L233.708 235.915L233.708 234.424Z" fill="#E0E0E0"/>
<line x1="0.273915" y1="-0.273915" x2="0.384495" y2="-0.273915" transform="matrix(0.866113 -0.499848 0.500152 0.865938 244.176 233.296)" stroke="black" stroke-width="0.54783" stroke-linecap="round"/>
<path d="M264.764 215.667L287.016 202.862L287.016 233.358L264.767 246.656L264.764 215.667Z" fill="#898989"/>
<path d="M265.591 230.629L265.591 222.308L286.519 233.236L265.591 245.326L265.591 230.629Z" fill="#333333"/>
<path d="M286.518 233.237L272.64 225.963L265.527 222.308L265.527 220.939L273.592 216.282L286.518 208.812L286.518 233.237Z" fill="#4F4F4F"/>
<path d="M265.46 219.282L286.336 207.245L286.336 208.706L265.46 220.773L265.46 219.282Z" fill="#E0E0E0"/>
<path d="M265.46 217.468L286.336 205.432L286.336 206.892L265.46 218.959L265.46 217.468Z" fill="#E0E0E0"/>
<path d="M265.46 215.642L286.336 203.605L286.336 205.066L265.46 217.133L265.46 215.642Z" fill="#E0E0E0"/>
<line x1="0.273915" y1="-0.273915" x2="0.384495" y2="-0.273915" transform="matrix(0.86601 -0.500027 0.499973 0.866041 275.927 214.514)" stroke="black" stroke-width="0.54783" stroke-linecap="round"/>
<path d="M296.069 196.884L318.32 184.08L318.32 214.576L296.072 227.874L296.069 196.884Z" fill="#898989"/>
<path d="M296.896 211.847L296.896 203.526L317.824 214.454L296.896 226.543L296.896 211.847Z" fill="#333333"/>
<path d="M317.823 214.454L303.944 207.18L296.832 203.526L296.832 202.156L304.897 197.499L317.823 190.029L317.823 214.454Z" fill="#4F4F4F"/>
<path d="M296.765 200.499L317.641 188.463L317.641 189.923L296.765 201.99L296.765 200.499Z" fill="#E0E0E0"/>
<path d="M296.765 198.685L317.641 186.649L317.641 188.11L296.765 200.177L296.765 198.685Z" fill="#E0E0E0"/>
<path d="M296.765 196.859L317.641 184.823L317.641 186.283L296.765 198.35L296.765 196.859Z" fill="#E0E0E0"/>
<line x1="0.273915" y1="-0.273915" x2="0.384495" y2="-0.273915" transform="matrix(0.86601 -0.500027 0.499973 0.866041 307.233 195.731)" stroke="black" stroke-width="0.54783" stroke-linecap="round"/>
<path d="M230.392 204.383L227.203 215.852L225.723 216.699L224.039 210.007L221.566 219.078L220.086 219.924L217.874 211.545L219.339 210.708L220.906 217.907L223.464 208.347L224.928 207.509L226.605 214.663L228.975 205.194L230.392 204.383ZM231.032 208.804C231.083 207.789 231.306 206.799 231.701 205.834C232.096 204.857 232.614 203.979 233.255 203.202C233.905 202.419 234.614 201.808 235.38 201.37C236.136 200.937 236.783 200.749 237.32 200.805C237.858 200.861 238.249 201.095 238.494 201.507L238.584 199.695L240.033 198.866L239.537 208.795L238.088 209.624L238.18 207.776C237.868 208.518 237.419 209.244 236.833 209.955C236.257 210.648 235.597 211.207 234.852 211.634C234.086 212.072 233.404 212.251 232.806 212.171C232.209 212.09 231.751 211.76 231.433 211.179C231.116 210.598 230.982 209.806 231.032 208.804ZM238.337 204.641C238.374 203.892 238.276 203.315 238.041 202.91C237.806 202.504 237.471 202.286 237.034 202.254C236.608 202.204 236.128 202.333 235.592 202.639C235.057 202.945 234.562 203.37 234.106 203.912C233.651 204.454 233.278 205.078 232.988 205.784C232.698 206.489 232.534 207.217 232.496 207.966C232.458 208.727 232.556 209.316 232.79 209.733C233.025 210.139 233.355 210.366 233.781 210.416C234.207 210.454 234.688 210.319 235.224 210.013C235.759 209.707 236.254 209.282 236.71 208.74C237.176 208.18 237.554 207.547 237.845 206.841C238.135 206.123 238.3 205.39 238.337 204.641ZM243.806 198.273C244.087 197.561 244.465 196.916 244.943 196.338C245.431 195.754 246.011 195.269 246.683 194.885L246.598 196.588L246.22 196.804C244.614 197.723 243.761 199.185 243.66 201.19L243.391 206.589L241.958 207.409L242.454 197.481L243.887 196.661L243.806 198.273ZM255.971 194.199C255.956 194.513 255.923 194.854 255.874 195.222L248.978 199.168C248.981 200.117 249.232 200.719 249.729 200.974C250.237 201.211 250.869 201.113 251.625 200.681C252.244 200.327 252.766 199.869 253.192 199.309C253.629 198.73 253.945 198.115 254.141 197.464L255.684 196.581C255.405 197.667 254.905 198.71 254.182 199.711C253.459 200.699 252.584 201.487 251.555 202.076C250.736 202.545 250.012 202.754 249.382 202.703C248.763 202.647 248.289 202.337 247.96 201.774C247.632 201.2 247.494 200.399 247.545 199.372C247.597 198.345 247.82 197.343 248.215 196.366C248.611 195.389 249.139 194.512 249.8 193.735C250.472 192.94 251.228 192.302 252.067 191.821C252.886 191.353 253.6 191.144 254.21 191.194C254.819 191.244 255.273 191.536 255.573 192.068C255.884 192.583 256.017 193.293 255.971 194.199ZM254.508 194.701C254.54 194.073 254.446 193.605 254.227 193.296C254.008 192.975 253.695 192.82 253.287 192.831C252.889 192.824 252.439 192.964 251.935 193.252C251.211 193.667 250.578 194.287 250.037 195.113C249.507 195.932 249.181 196.834 249.061 197.819L254.508 194.701ZM262.383 185.901C263.034 185.528 263.614 185.355 264.122 185.381C264.631 185.395 265.017 185.637 265.279 186.109C265.551 186.575 265.665 187.267 265.619 188.185L265.326 194.037L263.909 194.848L264.19 189.232C264.239 188.241 264.062 187.61 263.658 187.336C263.254 187.051 262.679 187.122 261.934 187.548C261.178 187.981 260.561 188.598 260.082 189.4C259.614 190.196 259.354 191.113 259.303 192.152L259.028 197.641L257.595 198.461L258.265 185.054L259.698 184.234L259.454 189.126C259.763 188.456 260.171 187.842 260.678 187.281C261.195 186.715 261.764 186.255 262.383 185.901ZM271.422 190.708C270.613 191.17 269.889 191.38 269.249 191.335C268.619 191.285 268.135 190.981 267.796 190.424C267.468 189.85 267.329 189.049 267.38 188.022C267.431 187.007 267.665 186.006 268.081 185.016C268.509 184.009 269.064 183.111 269.745 182.322C270.428 181.52 271.178 180.886 271.997 180.417C272.816 179.949 273.545 179.737 274.186 179.781C274.826 179.813 275.316 180.108 275.656 180.665C276.005 181.215 276.155 182.004 276.103 183.031C276.052 184.057 275.807 185.077 275.369 186.091C274.942 187.086 274.382 187.987 273.689 188.794C272.996 189.602 272.24 190.239 271.422 190.708ZM271.494 189.259C272.008 188.964 272.498 188.549 272.964 188.013C273.429 187.477 273.812 186.853 274.112 186.141C274.424 185.423 274.599 184.666 274.639 183.869C274.679 183.071 274.576 182.473 274.331 182.074C274.086 181.674 273.749 181.468 273.322 181.454C272.895 181.429 272.424 181.563 271.91 181.857C271.385 182.158 270.895 182.573 270.441 183.103C269.997 183.615 269.63 184.224 269.34 184.93C269.05 185.636 268.885 186.387 268.845 187.184C268.804 187.993 268.896 188.604 269.12 189.015C269.355 189.421 269.681 189.639 270.097 189.671C270.514 189.69 270.98 189.553 271.494 189.259ZM285.886 172.628L285.39 182.557L283.957 183.376L284.031 181.909C283.733 182.572 283.329 183.19 282.822 183.762C282.325 184.316 281.783 184.762 281.195 185.098C280.523 185.482 279.927 185.671 279.408 185.663C278.889 185.643 278.488 185.403 278.205 184.943C277.932 184.477 277.819 183.785 277.865 182.867L278.156 177.052L279.573 176.241L279.293 181.839C279.244 182.818 279.421 183.449 279.825 183.735C280.23 184.008 280.804 183.931 281.55 183.505C282.316 183.066 282.933 182.449 283.401 181.653C283.869 180.857 284.129 179.94 284.181 178.901L284.454 173.448L285.886 172.628ZM290.856 179.587C290.195 179.966 289.608 180.178 289.096 180.225C288.584 180.26 288.188 180.135 287.906 179.85C287.625 179.553 287.484 179.111 287.483 178.526L288.963 177.679C288.98 178.15 289.159 178.44 289.501 178.55C289.852 178.654 290.322 178.538 290.91 178.201C291.456 177.889 291.893 177.504 292.222 177.046C292.551 176.588 292.726 176.147 292.747 175.725C292.768 175.29 292.616 175.066 292.291 175.053C291.966 175.028 291.457 175.113 290.764 175.311C290.133 175.484 289.618 175.591 289.218 175.632C288.83 175.655 288.498 175.557 288.223 175.339C287.96 175.102 287.844 174.664 287.876 174.024C287.902 173.516 288.056 172.976 288.34 172.403C288.623 171.83 289.012 171.285 289.507 170.767C290.003 170.237 290.56 169.795 291.179 169.441C292.135 168.894 292.892 168.73 293.452 168.95C294.012 169.169 294.289 169.75 294.283 170.692L292.85 171.512C292.845 171.011 292.682 170.699 292.362 170.577C292.052 170.449 291.619 170.544 291.063 170.863C290.548 171.157 290.132 171.518 289.815 171.946C289.498 172.374 289.33 172.793 289.309 173.204C289.293 173.53 289.368 173.751 289.536 173.866C289.715 173.963 289.937 174 290.203 173.977C290.481 173.935 290.862 173.852 291.348 173.727C291.957 173.566 292.451 173.471 292.83 173.442C293.21 173.401 293.526 173.489 293.781 173.708C294.045 173.92 294.168 174.325 294.148 174.923C294.121 175.466 293.965 176.031 293.681 176.616C293.397 177.201 293.007 177.758 292.512 178.288C292.027 178.8 291.475 179.233 290.856 179.587ZM304.175 166.615C304.16 166.929 304.127 167.271 304.078 167.639L297.182 171.585C297.186 172.533 297.436 173.135 297.933 173.391C298.441 173.628 299.073 173.53 299.829 173.098C300.448 172.743 300.971 172.286 301.396 171.726C301.833 171.147 302.149 170.532 302.345 169.88L303.888 168.997C303.61 170.084 303.109 171.127 302.386 172.127C301.663 173.116 300.788 173.904 299.759 174.493C298.94 174.961 298.216 175.17 297.587 175.12C296.967 175.064 296.493 174.754 296.165 174.191C295.837 173.616 295.698 172.816 295.749 171.789C295.801 170.762 296.024 169.76 296.42 168.783C296.815 167.806 297.343 166.929 298.004 166.152C298.676 165.356 299.432 164.719 300.272 164.238C301.09 163.77 301.804 163.56 302.414 163.611C303.023 163.661 303.478 163.952 303.777 164.485C304.088 164.999 304.221 165.71 304.175 166.615ZM302.713 167.118C302.744 166.49 302.65 166.022 302.431 165.713C302.213 165.392 301.899 165.237 301.491 165.248C301.093 165.24 300.643 165.381 300.139 165.669C299.415 166.084 298.782 166.704 298.241 167.529C297.711 168.349 297.385 169.251 297.265 170.235L302.713 167.118Z" fill="#58140C"/>
<path d="M231.148 204.395L227.959 215.865L226.479 216.712L224.794 210.02L222.322 219.09L220.842 219.937L218.63 211.558L220.095 210.72L221.662 217.919L224.22 208.36L225.684 207.522L227.361 214.676L229.731 205.206L231.148 204.395ZM231.788 208.816C231.839 207.802 232.061 206.812 232.456 205.847C232.852 204.869 233.37 203.992 234.01 203.215C234.661 202.432 235.37 201.821 236.136 201.383C236.892 200.95 237.539 200.762 238.076 200.818C238.614 200.874 239.005 201.108 239.249 201.519L239.34 199.708L240.789 198.879L240.292 208.807L238.844 209.636L238.936 207.788C238.624 208.53 238.175 209.257 237.588 209.968C237.013 210.66 236.353 211.22 235.608 211.646C234.842 212.085 234.16 212.264 233.562 212.183C232.965 212.103 232.507 211.772 232.189 211.191C231.872 210.61 231.738 209.819 231.788 208.816ZM239.093 204.654C239.13 203.905 239.032 203.328 238.797 202.922C238.562 202.517 238.227 202.298 237.79 202.267C237.364 202.217 236.883 202.345 236.348 202.652C235.813 202.958 235.317 203.382 234.862 203.924C234.407 204.467 234.034 205.091 233.744 205.796C233.454 206.502 233.29 207.229 233.252 207.978C233.214 208.739 233.312 209.329 233.546 209.746C233.781 210.152 234.111 210.379 234.537 210.429C234.963 210.466 235.444 210.332 235.98 210.026C236.515 209.719 237.01 209.295 237.466 208.753C237.932 208.193 238.31 207.56 238.6 206.854C238.891 206.136 239.055 205.403 239.093 204.654ZM244.562 198.286C244.842 197.574 245.221 196.929 245.699 196.351C246.187 195.766 246.767 195.282 247.439 194.897L247.354 196.601L246.976 196.817C245.37 197.736 244.517 199.198 244.416 201.203L244.146 206.602L242.714 207.422L243.21 197.493L244.643 196.673L244.562 198.286ZM256.727 194.211C256.711 194.525 256.679 194.867 256.63 195.235L249.734 199.181C249.737 200.129 249.988 200.731 250.485 200.986C250.993 201.224 251.625 201.126 252.381 200.694C253 200.339 253.522 199.882 253.948 199.321C254.385 198.743 254.701 198.128 254.897 197.476L256.44 196.593C256.161 197.68 255.66 198.723 254.937 199.723C254.215 200.712 253.34 201.5 252.311 202.089C251.492 202.557 250.768 202.766 250.138 202.716C249.519 202.66 249.045 202.35 248.716 201.787C248.388 201.212 248.25 200.411 248.301 199.385C248.352 198.358 248.576 197.356 248.971 196.379C249.367 195.402 249.895 194.524 250.556 193.747C251.228 192.952 251.984 192.314 252.823 191.834C253.642 191.365 254.356 191.156 254.965 191.207C255.575 191.257 256.029 191.548 256.329 192.081C256.64 192.595 256.772 193.305 256.727 194.211ZM255.264 194.714C255.296 194.086 255.202 193.617 254.983 193.309C254.764 192.988 254.451 192.833 254.042 192.844C253.645 192.836 253.194 192.977 252.691 193.265C251.966 193.679 251.334 194.3 250.793 195.125C250.262 195.945 249.937 196.847 249.816 197.831L255.264 194.714ZM263.139 185.913C263.79 185.541 264.37 185.368 264.878 185.394C265.387 185.407 265.773 185.65 266.035 186.122C266.307 186.588 266.42 187.28 266.375 188.198L266.082 194.05L264.665 194.861L264.946 189.244C264.995 188.254 264.818 187.622 264.413 187.349C264.01 187.064 263.435 187.135 262.69 187.561C261.934 187.993 261.317 188.611 260.838 189.412C260.37 190.208 260.11 191.125 260.058 192.164L259.784 197.654L258.351 198.474L259.021 185.067L260.454 184.247L260.21 189.139C260.518 188.469 260.926 187.854 261.434 187.294C261.951 186.728 262.52 186.268 263.139 185.913ZM272.178 190.721C271.369 191.183 270.645 191.392 270.005 191.348C269.375 191.298 268.891 190.994 268.552 190.437C268.223 189.862 268.085 189.061 268.136 188.035C268.187 187.02 268.421 186.018 268.837 185.029C269.265 184.022 269.819 183.123 270.501 182.334C271.184 181.533 271.934 180.898 272.753 180.43C273.572 179.961 274.301 179.749 274.941 179.794C275.582 179.826 276.072 180.12 276.411 180.677C276.761 181.228 276.91 182.017 276.859 183.043C276.808 184.07 276.563 185.09 276.125 186.104C275.698 187.099 275.138 188 274.445 188.807C273.752 189.614 272.996 190.252 272.178 190.721ZM272.25 189.271C272.764 188.977 273.254 188.562 273.719 188.026C274.185 187.49 274.568 186.866 274.868 186.154C275.179 185.436 275.355 184.679 275.395 183.881C275.435 183.084 275.332 182.486 275.087 182.086C274.842 181.687 274.505 181.48 274.078 181.467C273.651 181.441 273.18 181.576 272.666 181.87C272.141 182.17 271.651 182.586 271.196 183.116C270.753 183.628 270.386 184.237 270.096 184.942C269.805 185.648 269.64 186.4 269.601 187.197C269.56 188.006 269.652 188.617 269.876 189.028C270.111 189.433 270.436 189.652 270.853 189.683C271.27 189.703 271.736 189.566 272.25 189.271ZM286.642 172.641L286.146 182.569L284.713 183.389L284.787 181.922C284.488 182.585 284.085 183.203 283.578 183.775C283.081 184.329 282.538 184.774 281.951 185.111C281.279 185.495 280.683 185.684 280.164 185.676C279.644 185.656 279.244 185.416 278.961 184.956C278.688 184.49 278.575 183.798 278.621 182.88L278.911 177.064L280.329 176.253L280.049 181.852C280 182.83 280.177 183.462 280.581 183.747C280.986 184.02 281.56 183.944 282.306 183.517C283.072 183.079 283.689 182.462 284.157 181.666C284.625 180.87 284.885 179.953 284.937 178.914L285.21 173.46L286.642 172.641ZM291.612 179.6C290.95 179.979 290.364 180.191 289.852 180.238C289.34 180.272 288.944 180.147 288.662 179.862C288.381 179.566 288.24 179.124 288.239 178.538L289.719 177.691C289.736 178.162 289.915 178.453 290.256 178.563C290.608 178.667 291.078 178.55 291.666 178.214C292.212 177.902 292.649 177.517 292.978 177.059C293.306 176.601 293.481 176.16 293.503 175.737C293.524 175.303 293.372 175.079 293.047 175.065C292.722 175.04 292.213 175.126 291.52 175.323C290.889 175.496 290.374 175.603 289.974 175.644C289.585 175.667 289.254 175.57 288.979 175.351C288.716 175.115 288.6 174.677 288.632 174.036C288.657 173.529 288.812 172.989 289.095 172.416C289.379 171.843 289.768 171.298 290.263 170.78C290.759 170.25 291.316 169.808 291.935 169.453C292.891 168.907 293.648 168.743 294.208 168.962C294.768 169.182 295.045 169.762 295.039 170.705L293.606 171.525C293.601 171.023 293.438 170.712 293.117 170.59C292.808 170.462 292.375 170.557 291.818 170.876C291.304 171.17 290.888 171.531 290.571 171.959C290.254 172.387 290.085 172.806 290.065 173.217C290.049 173.543 290.124 173.763 290.292 173.879C290.47 173.976 290.693 174.013 290.959 173.99C291.237 173.948 291.618 173.865 292.104 173.74C292.713 173.578 293.207 173.483 293.586 173.454C293.965 173.413 294.282 173.502 294.536 173.72C294.801 173.933 294.924 174.338 294.904 174.936C294.877 175.479 294.721 176.043 294.437 176.628C294.153 177.213 293.763 177.771 293.267 178.301C292.783 178.813 292.231 179.246 291.612 179.6ZM304.931 166.628C304.916 166.942 304.883 167.283 304.834 167.652L297.938 171.598C297.941 172.546 298.192 173.148 298.689 173.403C299.197 173.641 299.829 173.543 300.585 173.11C301.204 172.756 301.727 172.299 302.152 171.738C302.589 171.16 302.905 170.545 303.101 169.893L304.644 169.01C304.365 170.096 303.865 171.14 303.142 172.14C302.419 173.128 301.544 173.917 300.515 174.506C299.696 174.974 298.972 175.183 298.342 175.133C297.723 175.076 297.249 174.767 296.921 174.204C296.592 173.629 296.454 172.828 296.505 171.802C296.557 170.775 296.78 169.773 297.176 168.796C297.571 167.818 298.099 166.941 298.76 166.164C299.432 165.369 300.188 164.731 301.028 164.251C301.846 163.782 302.56 163.573 303.17 163.623C303.779 163.674 304.233 163.965 304.533 164.498C304.844 165.012 304.977 165.722 304.931 166.628ZM303.468 167.131C303.5 166.503 303.406 166.034 303.187 165.725C302.968 165.405 302.655 165.25 302.247 165.26C301.849 165.253 301.399 165.394 300.895 165.682C300.171 166.096 299.538 166.716 298.997 167.542C298.467 168.362 298.141 169.264 298.021 170.248L303.468 167.131Z" fill="#8E3127"/>
<path d="M231.134 205.151L227.946 216.621L226.466 217.468L224.781 210.775L222.309 219.846L220.829 220.693L218.617 212.314L220.081 211.476L221.649 218.675L224.207 209.116L225.671 208.278L227.348 215.432L229.717 205.962L231.134 205.151ZM231.775 209.572C231.825 208.557 232.048 207.568 232.443 206.602C232.839 205.625 233.357 204.748 233.997 203.971C234.648 203.188 235.357 202.577 236.123 202.138C236.879 201.706 237.525 201.518 238.063 201.574C238.601 201.63 238.992 201.864 239.236 202.275L239.327 200.464L240.775 199.635L240.279 209.563L238.831 210.392L238.923 208.544C238.611 209.286 238.161 210.013 237.575 210.723C237 211.416 236.34 211.976 235.595 212.402C234.828 212.841 234.147 213.02 233.549 212.939C232.951 212.859 232.494 212.528 232.176 211.947C231.858 211.366 231.725 210.575 231.775 209.572ZM239.08 205.41C239.117 204.661 239.018 204.084 238.784 203.678C238.549 203.273 238.213 203.054 237.777 203.023C237.351 202.973 236.87 203.101 236.335 203.408C235.8 203.714 235.304 204.138 234.849 204.68C234.393 205.222 234.021 205.846 233.731 206.552C233.44 207.258 233.277 207.985 233.239 208.734C233.201 209.495 233.299 210.084 233.533 210.502C233.768 210.907 234.098 211.135 234.524 211.185C234.95 211.222 235.431 211.088 235.966 210.782C236.502 210.475 236.997 210.051 237.452 209.509C237.919 208.949 238.297 208.316 238.587 207.61C238.878 206.892 239.042 206.159 239.08 205.41ZM244.549 199.042C244.829 198.33 245.208 197.685 245.686 197.106C246.174 196.522 246.754 196.038 247.425 195.653L247.34 197.356L246.962 197.573C245.356 198.492 244.503 199.954 244.403 201.959L244.133 207.358L242.701 208.178L243.197 198.249L244.63 197.429L244.549 199.042ZM256.714 194.967C256.698 195.281 256.666 195.622 256.617 195.991L249.72 199.937C249.724 200.885 249.974 201.487 250.471 201.742C250.98 201.98 251.612 201.882 252.367 201.449C252.987 201.095 253.509 200.638 253.935 200.077C254.372 199.499 254.688 198.884 254.884 198.232L256.427 197.349C256.148 198.435 255.647 199.479 254.924 200.479C254.202 201.467 253.326 202.256 252.298 202.845C251.479 203.313 250.755 203.522 250.125 203.472C249.506 203.415 249.032 203.106 248.703 202.543C248.375 201.968 248.237 201.167 248.288 200.141C248.339 199.114 248.563 198.112 248.958 197.135C249.354 196.157 249.882 195.28 250.543 194.503C251.215 193.708 251.97 193.07 252.81 192.59C253.629 192.121 254.343 191.912 254.952 191.962C255.561 192.013 256.016 192.304 256.316 192.837C256.626 193.351 256.759 194.061 256.714 194.967ZM255.251 195.47C255.282 194.842 255.189 194.373 254.97 194.065C254.751 193.744 254.438 193.589 254.029 193.599C253.632 193.592 253.181 193.733 252.677 194.021C251.953 194.435 251.321 195.055 250.78 195.881C250.249 196.701 249.924 197.603 249.803 198.587L255.251 195.47ZM263.126 186.669C263.777 186.297 264.356 186.124 264.865 186.149C265.374 186.163 265.76 186.406 266.022 186.878C266.294 187.344 266.407 188.036 266.361 188.954L266.069 194.806L264.652 195.617L264.933 190C264.982 189.01 264.805 188.378 264.4 188.105C263.996 187.82 263.422 187.89 262.677 188.317C261.921 188.749 261.304 189.366 260.825 190.168C260.357 190.964 260.097 191.881 260.045 192.92L259.771 198.41L258.338 199.23L259.008 185.822L260.441 185.003L260.196 189.894C260.505 189.225 260.913 188.61 261.42 188.05C261.938 187.484 262.507 187.024 263.126 186.669ZM272.164 191.477C271.356 191.939 270.632 192.148 269.992 192.104C269.362 192.053 268.878 191.75 268.538 191.193C268.21 190.618 268.072 189.817 268.123 188.791C268.174 187.776 268.407 186.774 268.824 185.785C269.252 184.777 269.806 183.879 270.488 183.09C271.171 182.289 271.921 181.654 272.74 181.186C273.559 180.717 274.288 180.505 274.928 180.549C275.569 180.582 276.059 180.876 276.398 181.433C276.748 181.984 276.897 182.773 276.846 183.799C276.795 184.826 276.55 185.846 276.112 186.859C275.685 187.855 275.125 188.756 274.432 189.563C273.739 190.37 272.983 191.008 272.164 191.477ZM272.237 190.027C272.751 189.733 273.241 189.318 273.706 188.781C274.171 188.245 274.554 187.621 274.855 186.91C275.166 186.192 275.342 185.434 275.382 184.637C275.421 183.84 275.319 183.242 275.074 182.842C274.829 182.443 274.492 182.236 274.065 182.223C273.638 182.197 273.167 182.332 272.653 182.626C272.128 182.926 271.638 183.342 271.183 183.872C270.74 184.384 270.373 184.992 270.082 185.698C269.792 186.404 269.627 187.156 269.587 187.953C269.547 188.762 269.639 189.372 269.863 189.784C270.098 190.189 270.423 190.408 270.84 190.439C271.257 190.459 271.722 190.321 272.237 190.027ZM286.629 173.396L286.133 183.325L284.7 184.145L284.773 182.677C284.475 183.341 284.072 183.959 283.564 184.531C283.068 185.085 282.525 185.53 281.937 185.867C281.266 186.251 280.67 186.439 280.15 186.432C279.631 186.412 279.23 186.172 278.947 185.712C278.675 185.246 278.562 184.554 278.608 183.636L278.898 177.82L280.315 177.009L280.036 182.608C279.987 183.586 280.164 184.218 280.568 184.503C280.972 184.776 281.547 184.7 282.292 184.273C283.059 183.835 283.676 183.217 284.144 182.422C284.612 181.626 284.872 180.709 284.924 179.67L285.196 174.216L286.629 173.396ZM291.599 180.356C290.937 180.734 290.351 180.947 289.838 180.994C289.327 181.028 288.93 180.903 288.649 180.618C288.368 180.321 288.227 179.88 288.226 179.294L289.706 178.447C289.723 178.918 289.902 179.209 290.243 179.319C290.595 179.423 291.065 179.306 291.653 178.97C292.198 178.658 292.636 178.272 292.965 177.814C293.293 177.356 293.468 176.916 293.489 176.493C293.511 176.058 293.359 175.834 293.034 175.821C292.708 175.796 292.199 175.882 291.506 176.079C290.876 176.252 290.361 176.359 289.961 176.4C289.572 176.423 289.241 176.325 288.966 176.107C288.703 175.871 288.587 175.432 288.619 174.792C288.644 174.285 288.799 173.745 289.082 173.172C289.366 172.599 289.755 172.054 290.25 171.536C290.745 171.006 291.303 170.564 291.922 170.209C292.877 169.663 293.635 169.499 294.195 169.718C294.755 169.938 295.032 170.518 295.026 171.461L293.593 172.28C293.587 171.779 293.424 171.467 293.104 171.346C292.795 171.218 292.362 171.313 291.805 171.631C291.291 171.926 290.875 172.287 290.558 172.715C290.241 173.142 290.072 173.562 290.052 173.972C290.035 174.299 290.111 174.519 290.279 174.635C290.457 174.732 290.68 174.769 290.946 174.745C291.223 174.704 291.605 174.621 292.09 174.495C292.7 174.334 293.194 174.239 293.573 174.21C293.952 174.169 294.269 174.258 294.523 174.476C294.788 174.688 294.91 175.093 294.891 175.691C294.864 176.235 294.708 176.799 294.424 177.384C294.14 177.969 293.75 178.527 293.254 179.057C292.77 179.568 292.218 180.002 291.599 180.356ZM304.918 167.384C304.902 167.698 304.87 168.039 304.821 168.407L297.925 172.354C297.928 173.302 298.179 173.904 298.676 174.159C299.184 174.396 299.816 174.299 300.572 173.866C301.191 173.512 301.713 173.055 302.139 172.494C302.576 171.916 302.892 171.301 303.088 170.649L304.631 169.766C304.352 170.852 303.851 171.896 303.128 172.896C302.406 173.884 301.531 174.673 300.502 175.261C299.683 175.73 298.959 175.939 298.329 175.889C297.71 175.832 297.236 175.523 296.907 174.96C296.579 174.385 296.441 173.584 296.492 172.557C296.543 171.531 296.767 170.529 297.162 169.552C297.558 168.574 298.086 167.697 298.747 166.92C299.419 166.125 300.175 165.487 301.014 165.007C301.833 164.538 302.547 164.329 303.156 164.379C303.766 164.43 304.22 164.721 304.52 165.253C304.831 165.768 304.963 166.478 304.918 167.384ZM303.455 167.887C303.487 167.259 303.393 166.79 303.174 166.481C302.955 166.16 302.642 166.005 302.233 166.016C301.836 166.009 301.386 166.149 300.882 166.438C300.157 166.852 299.525 167.472 298.984 168.298C298.454 169.118 298.128 170.02 298.007 171.004L303.455 167.887Z" fill="#E0E0E0"/>
<path d="M78.1633 170.304C77.0617 169.672 76.0593 168.894 75.1561 167.971C74.2514 167.027 73.5194 166.028 72.96 164.973C72.3991 163.898 72.058 162.843 71.9367 161.807L74.4022 163.221C74.5286 164.085 74.907 164.95 75.5373 165.813C76.1852 166.687 76.9987 167.405 77.9779 167.966C78.8872 168.487 79.5882 168.667 80.0811 168.506C80.574 168.344 80.7963 167.911 80.7481 167.207C80.6985 166.483 80.3822 165.79 79.7992 165.127C79.2148 164.444 78.3252 163.596 77.1302 162.583C76.0415 161.649 75.1452 160.826 74.4412 160.113C73.7533 159.391 73.1425 158.567 72.6088 157.643C72.0912 156.709 71.7959 155.709 71.7229 154.643C71.665 153.798 71.8305 153.149 72.2194 152.696C72.6083 152.243 73.1912 152.046 73.968 152.105C74.7434 152.144 75.6469 152.459 76.6786 153.051C78.2698 153.963 79.5867 155.162 80.6293 156.649C81.6718 158.135 82.2832 159.703 82.4634 161.352L80.0766 159.983C79.9649 159.089 79.6114 158.219 79.016 157.376C78.4381 156.542 77.6858 155.859 76.759 155.328C75.9022 154.837 75.2348 154.657 74.7566 154.788C74.2785 154.92 74.0628 155.328 74.1097 156.011C74.1469 156.554 74.3265 157.092 74.6486 157.624C74.9868 158.147 75.3907 158.649 75.8605 159.131C76.3464 159.602 77.0092 160.205 77.849 160.937C78.9027 161.851 79.7641 162.654 80.4331 163.346C81.1007 164.019 81.6832 164.797 82.1806 165.681C82.6954 166.575 82.996 167.53 83.0824 168.546C83.1444 169.451 82.9817 170.14 82.5941 170.613C82.2066 171.086 81.6251 171.303 80.8497 171.265C80.0904 171.216 79.195 170.895 78.1633 170.304ZM92.7405 162.231C93.8246 162.853 94.8224 163.686 95.7339 164.73C96.644 165.754 97.3804 166.94 97.9431 168.286C98.5232 169.643 98.8656 171.085 98.9704 172.613L99.638 182.356L97.2775 181.003L96.6367 171.652C96.5236 170.003 96.0791 168.541 95.3029 167.265C94.5253 165.969 93.5158 164.965 92.2743 164.253C91.0153 163.532 90.0409 163.407 89.3511 163.881C88.6787 164.365 88.4017 165.472 88.5202 167.201L89.1466 176.341L86.7598 174.972L85.2301 152.651L87.6169 154.019L88.175 162.164C88.5893 161.59 89.1915 161.307 89.9816 161.316C90.7892 161.335 91.7088 161.64 92.7405 162.231ZM103.453 166.084C102.998 165.824 102.601 165.422 102.262 164.88C101.922 164.337 101.734 163.805 101.699 163.282C101.663 162.759 101.79 162.407 102.08 162.225C102.37 162.044 102.742 162.084 103.197 162.344C103.634 162.595 104.013 162.986 104.335 163.519C104.675 164.061 104.863 164.594 104.898 165.117C104.934 165.64 104.807 165.992 104.517 166.173C104.245 166.365 103.89 166.335 103.453 166.084ZM104.791 169.431L105.924 185.961L103.537 184.592L102.404 168.062L104.791 169.431ZM111.454 176.178C111.862 175.504 112.507 175.121 113.391 175.029C114.292 174.927 115.362 175.232 116.604 175.943C117.88 176.675 119.059 177.689 120.138 178.984C121.236 180.29 122.126 181.756 122.809 183.384C123.49 184.992 123.888 186.641 124.004 188.33C124.119 189.999 123.923 191.316 123.418 192.283C122.913 193.249 122.161 193.793 121.162 193.915C120.18 194.048 119.05 193.748 117.774 193.016C116.55 192.314 115.444 191.381 114.457 190.216C113.487 189.041 112.724 187.841 112.17 186.615L112.916 197.504L110.529 196.136L108.859 171.763L111.246 173.132L111.454 176.178ZM121.565 186.931C121.479 185.684 121.186 184.473 120.686 183.297C120.185 182.122 119.543 181.077 118.758 180.163C117.99 179.26 117.161 178.552 116.269 178.041C115.395 177.539 114.599 177.324 113.881 177.396C113.18 177.458 112.634 177.831 112.244 178.515C111.871 179.189 111.726 180.14 111.81 181.367C111.895 182.613 112.189 183.835 112.691 185.03C113.209 186.216 113.852 187.271 114.621 188.195C115.406 189.108 116.236 189.816 117.11 190.317C118.002 190.829 118.798 191.054 119.5 190.992C120.217 190.92 120.763 190.547 121.137 189.873C121.509 189.179 121.652 188.198 121.565 186.931ZM129.179 186.342C129.587 185.667 130.232 185.284 131.116 185.192C132.016 185.09 133.087 185.395 134.329 186.107C135.605 186.839 136.783 187.852 137.863 189.148C138.961 190.453 139.851 191.92 140.533 193.548C141.215 195.155 141.613 196.804 141.729 198.493C141.843 200.162 141.648 201.48 141.143 202.446C140.638 203.412 139.886 203.956 138.886 204.079C137.904 204.211 136.775 203.911 135.499 203.179C134.275 202.478 133.169 201.544 132.182 200.379C131.211 199.205 130.449 198.004 129.894 196.778L130.641 207.667L128.254 206.299L126.584 181.927L128.97 183.295L129.179 186.342ZM139.29 197.094C139.204 195.848 138.911 194.636 138.411 193.461C137.91 192.285 137.267 191.24 136.483 190.327C135.715 189.423 134.885 188.715 133.994 188.204C133.119 187.703 132.324 187.488 131.606 187.559C130.905 187.621 130.359 187.994 129.969 188.678C129.596 189.353 129.451 190.303 129.535 191.53C129.62 192.777 129.914 193.998 130.416 195.194C130.934 196.379 131.577 197.434 132.346 198.358C133.131 199.272 133.961 199.979 134.835 200.481C135.727 200.992 136.523 201.217 137.225 201.155C137.942 201.084 138.488 200.711 138.861 200.036C139.234 199.342 139.377 198.361 139.29 197.094ZM157.946 207.241C157.982 207.764 157.993 208.302 157.981 208.855L146.493 202.268C146.692 203.947 147.26 205.499 148.198 206.926C149.152 208.342 150.258 209.411 151.517 210.133C152.549 210.724 153.387 210.944 154.031 210.792C154.692 210.63 155.131 210.167 155.347 209.402L157.918 210.876C157.642 212.244 156.961 213.1 155.876 213.444C154.79 213.767 153.39 213.438 151.676 212.455C150.312 211.673 149.064 210.62 147.932 209.294C146.817 207.979 145.909 206.502 145.209 204.864C144.508 203.206 144.098 201.522 143.981 199.813C143.864 198.104 144.058 196.776 144.565 195.83C145.071 194.884 145.834 194.375 146.854 194.303C147.89 194.221 149.107 194.581 150.506 195.383C151.87 196.165 153.1 197.198 154.196 198.484C155.292 199.769 156.161 201.175 156.803 202.703C157.462 204.22 157.842 205.733 157.946 207.241ZM155.441 205.254C155.369 204.208 155.107 203.198 154.654 202.224C154.199 201.229 153.609 200.34 152.884 199.557C152.174 198.764 151.4 198.126 150.56 197.645C149.354 196.953 148.352 196.804 147.556 197.198C146.778 197.601 146.381 198.552 146.366 200.051L155.441 205.254ZM163.144 205.469C163.499 204.765 164.043 204.372 164.777 204.29C165.528 204.218 166.463 204.503 167.582 205.145L167.776 207.98L167.147 207.619C164.471 206.085 163.248 206.987 163.477 210.325L164.093 219.314L161.706 217.946L160.573 201.416L162.96 202.785L163.144 205.469Z" fill="#EF4D3B"/>
<path d="M388.963 261.713L402.366 269.343L389.787 280.89L378.652 269.343L388.963 261.713Z" fill="black"/>
<path d="M388.706 279.289C388.706 280.575 387.803 282.139 386.689 282.782C385.575 283.425 385.718 283.309 384.448 282.189C384.374 280.844 385.575 278.768 386.689 278.125C387.803 277.482 388.706 278.003 388.706 279.289Z" fill="#4C4C4C"/>
<path d="M387.072 278.031C387.331 277.966 388.258 278.186 388.725 278.808" stroke="#363636" stroke-width="0.194512"/>
<path d="M385.36 284.975C385.06 285.051 384.019 284.681 383.534 283.769" stroke="#363636" stroke-width="0.194512"/>
<path d="M388.53 279.798C388.53 281.473 387.354 283.509 385.904 284.347C384.453 285.184 384.639 285.033 382.986 283.574C382.889 281.824 384.453 279.12 385.904 278.282C387.354 277.445 388.53 278.124 388.53 279.798Z" fill="#363636"/>
<circle r="3.03214" transform="matrix(0.866026 -0.5 0 1 386.681 281.703)" fill="#535456"/>
<circle r="1.90913" transform="matrix(0.866023 -0.500004 0 1 386.876 281.769)" fill="#D1D1D1"/>
<circle r="0.78611" transform="matrix(0.86603 -0.499991 0 1 386.875 281.77)" fill="#3A3A3A"/>
<path d="M387.354 260.898V239.806L388.42 239.598V260.272L387.354 260.898Z" fill="#414244"/>
<path d="M389.581 250.372L401.747 258.002L401.335 267.693L389.581 262.126V250.372Z" fill="#363636" stroke="#414244" stroke-width="0.412407"/>
<path d="M388.963 260.476L400.922 267.281L393.087 274.498L381.333 267.075L388.963 260.476Z" fill="#D0A772"/>
<path d="M402.727 271.041C402.727 272.327 401.825 273.891 400.711 274.534C399.597 275.177 399.74 275.061 398.47 273.941C398.395 272.596 399.597 270.52 400.711 269.877C401.825 269.234 402.727 269.755 402.727 271.041Z" fill="#4C4C4C"/>
<path d="M401.094 269.782C401.353 269.718 402.281 269.938 402.747 270.56" stroke="#363636" stroke-width="0.194512"/>
<path d="M399.383 276.727C399.082 276.803 398.041 276.433 397.556 275.521" stroke="#363636" stroke-width="0.194512"/>
<path d="M402.551 271.55C402.551 273.225 401.376 275.261 399.925 276.098C398.475 276.936 398.661 276.785 397.008 275.326C396.91 273.575 398.475 270.871 399.925 270.034C401.376 269.197 402.551 269.876 402.551 271.55Z" fill="#363636"/>
<circle r="3.03214" transform="matrix(0.866026 -0.5 0 1 400.703 273.455)" fill="#535456"/>
<circle r="1.90913" transform="matrix(0.866023 -0.500004 0 1 400.898 273.521)" fill="#D1D1D1"/>
<circle r="0.78611" transform="matrix(0.866014 -0.500021 0 1 400.897 273.521)" fill="#3A3A3A"/>
<path d="M389.168 238.266C373.703 243.834 378.032 253.671 377.208 266.868L377.826 266.456C378.913 254.553 374.939 244.598 388.08 240.062V263.468L389.167 262.83L389.168 238.266Z" fill="#525357"/>
<path d="M386.693 255.973C387.578 255.984 387.797 256.316 387.93 257.211L387.724 260.51C389.379 260.894 391.642 259.233 392.879 260.264C394.221 260.191 394.701 260.219 394.323 255.561C394.461 254.341 393.582 253.655 392.054 252.634C390.365 252.822 390.274 252.858 389.58 252.262C387.772 251.963 387.369 253.364 386.693 255.973Z" fill="#FF523E"/>
<path d="M389.514 274.286L388.895 271.399L387.312 271.193H386.693L386.487 273.255L386.215 273.873C385.871 274.08 385.101 274.574 384.771 274.904C384.441 275.234 384.425 275.66 384.631 276.142L386.215 276.348L389.514 274.286Z" fill="#272727"/>
<path d="M385.524 273.049L384.906 270.162L383.322 269.956H382.704L382.497 272.018L382.225 272.636C381.881 272.842 381.111 273.337 380.781 273.667C380.452 273.997 380.435 274.423 380.641 274.904L382.225 275.111L385.524 273.049Z" fill="#272727"/>
<path d="M388.704 255.109L389.117 252.222L389.735 252.428L389.117 254.903H390.56L392.004 252.428H392.622L391.385 255.315L390.766 259.233C392.197 260.219 392.88 260.264 393.911 260.264C394.546 262.771 394.521 264.487 392.416 265.419C392.416 265.419 389.942 266.656 389.735 267.069C389.529 267.481 389.117 272.636 389.117 272.636C387.964 273.382 387.369 273.847 386.436 273.049C386.436 273.049 386.23 269.131 386.436 267.481C386.642 265.831 387.88 264.594 387.88 264.594C387.88 264.594 386.024 265.625 385.611 266.863C385.199 268.1 385.044 270.987 385.044 270.987C384.022 271.466 382.691 272.704 382.157 271.193C382.157 271.193 382.518 265.419 383.756 263.976C384.993 262.532 387.467 260.676 387.467 260.676L387.88 257.996L388.292 255.728L388.704 255.109Z" fill="#6C78A4"/>
<path d="M389.483 253.709L389.217 252.112H389.749C389.973 252.447 390.17 252.643 390.38 252.721C390.67 252.83 390.987 252.713 391.435 252.428L392.146 252.378L390.814 253.976L390.38 252.721L389.483 253.709Z" fill="#FF7565"/>
<path d="M382.982 266.268L384.219 264.721C382.982 262.556 382.776 260.082 386.487 261.525C389.374 264 387.783 265.965 384.897 265.346L385.25 265.031C387.65 265.345 388.137 263.587 386.075 261.938C384.219 261.113 383.396 261.938 384.631 264.206C384.626 262.73 384.352 262.032 385.456 263.175L386.075 264L383.188 267.299L382.982 266.268Z" fill="#363636"/>
<path d="M388.625 249.954C389.862 254.284 392.13 253.253 392.13 249.335L388.625 249.954Z" fill="#F2CBC3"/>
<path d="M384.501 259.439C384.956 258.005 385.457 257.238 386.769 255.934C387.681 256.01 387.96 256.327 388.006 257.171C388.006 257.171 385.944 258.408 385.738 259.439C385.532 260.47 385.614 261.24 384.913 261.707C384.212 261.41 383.983 261.066 384.501 259.439Z" fill="#F2CBC3"/>
<path d="M393.161 259.439C392.959 258.262 392.586 257.901 391.305 257.996L389.243 260.47L386.769 261.089C385.944 261.295 384.762 262.815 386.15 262.738L387.724 262.126L390.405 261.707L393.161 259.439Z" fill="#F2CBC3"/>
<path d="M388.755 249.244C387.93 246.563 390.817 245.624 392.26 248.098V249.335L391.023 251.1C389.866 250.581 389.194 250.546 387.93 251.1L388.755 249.244Z" fill="#FFBA07"/>
<path d="M385.756 256.904C385.754 256.405 385.839 256.147 386.554 255.839C387.377 255.58 387.939 256.005 388.152 256.904C387.944 257.449 387.759 257.6 387.353 257.703C386.776 256.945 386.67 256.881 385.756 256.904Z" fill="#FF7565"/>
<path d="M390.939 258.725C391.339 258.104 391.627 257.835 392.542 257.886C393.517 258.061 393.699 258.929 393.172 260.175C392.54 260.725 392.246 260.801 391.784 260.683C391.857 259.393 391.81 259.25 390.939 258.725Z" fill="#FF7565"/>
<path d="M388.754 238L402.364 245.63L401.126 246.042L388.754 239.031C387.86 239.321 387.037 239.635 386.28 239.971L398.858 247.485L397.827 247.898L385.249 240.474C384.398 240.938 383.233 241.642 382.568 242.169L395.146 249.96L394.322 250.578L381.828 242.772C378.195 245.984 377.865 250.278 377.619 252.022C376.805 257.806 377.78 264.085 377.413 266.044H376.382C376.382 247.898 376.588 243.361 388.754 238Z" fill="#414244"/>
<path d="M375.764 253.671L378.032 252.434L378.651 253.053V276.148L376.795 275.117L375.764 266.044V253.671Z" fill="#525357"/>
<path d="M380.713 256.146L382.362 255.115L383.187 255.527V268.106L385.249 269.343V275.117L389.373 279.034C386.13 276.531 384.012 279.859 383.187 283.571L381.744 279.859L380.713 277.591V256.146Z" fill="#525357"/>
<path d="M375.763 253.671L376.794 254.29V274.704L375.557 267.075L375.763 253.671Z" fill="#414244"/>
<path d="M380.712 277.385V256.352L381.537 256.764V279.447L380.712 277.385Z" fill="#414244"/>
<path d="M380.711 256.971L378.03 255.321C377.411 255.321 377.618 256.146 378.03 256.352L380.711 258.002V256.971Z" fill="#414244"/>
<path d="M380.711 259.033L378.03 257.383C377.411 257.383 377.618 258.208 378.03 258.414L380.711 260.064V259.033Z" fill="#473A3A"/>
<path d="M359.473 285.839V285.014L367.722 280.066L370.608 281.715L361.329 286.87L359.473 285.839Z" fill="#555555"/>
<path d="M367.722 290.994L365.866 289.963V289.139L375.364 283.278L377.413 284.396L367.722 290.994Z" fill="#555555"/>
<path d="M359.473 285.014L360.917 284.19L367.722 279.241L370.608 280.89L361.329 286.045L359.473 285.014Z" fill="#C4C4C4"/>
<path d="M365.866 289.138L375.377 282.46L377.413 283.571L367.722 290.17L365.866 289.138Z" fill="#C4C4C4"/>
<path d="M357.001 285.014V282.334L368.754 275.117L383.601 282.334V284.602L370.747 293.056V290.218L365.661 287.301L363.187 288.932V285.882L359.269 283.635L357.001 285.014Z" fill="#512A25"/>
<path d="M371.465 266.489L382.81 259.939L382.775 281.921L371.486 288.415L371.465 266.489Z" fill="#D4AA79"/>
<path d="M359.944 259.977L371.465 266.901V288.287L359.944 281.59V259.977Z" fill="#9D734F"/>
<path d="M382.983 260.034L371.466 254.084L359.888 260.034L371.466 266.902L382.983 260.034Z" fill="#E9BD99"/>
<path d="M364.264 265.774V262.709L365.578 263.366V266.649L364.264 265.774Z" fill="#E0CFBE"/>
<path d="M364.264 262.779L375.764 256.352L377.208 256.971L365.479 263.387L364.264 262.779Z" fill="#F9E8DD"/>
<path fill-rule="evenodd" clip-rule="evenodd" d="M401.333 245.011V268.246C399.065 268.518 396.276 271.774 396.591 275.323L389.786 280.89L389.167 279.653C389.233 273.561 390.611 253.465 390.611 253.465C391.848 250.166 396.399 246.421 401.333 245.011ZM400.301 247.073V266.662C396.796 267.899 394.473 270.464 393.29 273.879L390.816 275.323L391.847 253.878C393.848 250.299 395.603 248.741 400.301 247.073Z" fill="#414244"/>
<path fill-rule="evenodd" clip-rule="evenodd" d="M402.158 245.836V269.071C399.889 269.343 397.1 272.599 397.415 276.148L389.992 280.478C390.057 274.386 391.435 254.29 391.435 254.29C392.672 250.991 397.224 247.245 402.158 245.836ZM401.127 247.898V267.487C397.622 268.724 395.299 271.288 394.116 274.704L391.642 276.148L392.673 254.702C394.674 251.124 396.428 249.566 401.127 247.898Z" fill="#525357"/>
<path d="M402.158 269.071L402.182 269.276L402.364 269.254V269.071H402.158ZM402.158 245.836H402.364V245.562L402.101 245.637L402.158 245.836ZM397.415 276.148L397.519 276.326L397.632 276.26L397.62 276.129L397.415 276.148ZM389.992 280.478L389.786 280.476L389.782 280.839L390.096 280.656L389.992 280.478ZM391.435 254.29L391.242 254.218L391.232 254.246L391.229 254.276L391.435 254.29ZM401.127 267.487L401.196 267.682L401.333 267.633V267.487H401.127ZM401.127 247.898H401.333V247.606L401.058 247.703L401.127 247.898ZM394.116 274.704L394.22 274.882L394.286 274.844L394.311 274.772L394.116 274.704ZM391.642 276.148L391.436 276.138L391.417 276.517L391.746 276.326L391.642 276.148ZM392.673 254.702L392.493 254.602L392.469 254.644L392.467 254.693L392.673 254.702ZM402.364 269.071V245.836H401.952V269.071H402.364ZM397.62 276.129C397.468 274.414 398.066 272.761 398.984 271.502C399.907 270.237 401.126 269.402 402.182 269.276L402.133 268.866C400.922 269.011 399.612 269.941 398.651 271.259C397.686 272.583 397.047 274.333 397.21 276.166L397.62 276.129ZM390.096 280.656L397.519 276.326L397.311 275.97L389.888 280.3L390.096 280.656ZM391.435 254.29C391.229 254.276 391.229 254.276 391.229 254.276C391.229 254.276 391.229 254.277 391.229 254.277C391.229 254.277 391.229 254.278 391.229 254.28C391.229 254.282 391.229 254.286 391.228 254.291C391.228 254.3 391.227 254.315 391.225 254.334C391.223 254.372 391.219 254.429 391.214 254.503C391.204 254.652 391.189 254.871 391.17 255.152C391.132 255.713 391.078 256.522 391.013 257.512C390.883 259.491 390.708 262.194 390.532 265.087C390.18 270.871 389.818 277.423 389.786 280.476L390.198 280.48C390.23 277.44 390.591 270.899 390.944 265.112C391.12 262.22 391.294 259.518 391.425 257.539C391.49 256.549 391.544 255.741 391.582 255.179C391.6 254.899 391.615 254.68 391.625 254.531C391.63 254.457 391.634 254.4 391.637 254.362C391.638 254.343 391.639 254.328 391.64 254.319C391.64 254.314 391.64 254.31 391.641 254.308C391.641 254.307 391.641 254.306 391.641 254.305C391.641 254.305 391.641 254.305 391.641 254.304C391.641 254.304 391.641 254.304 391.435 254.29ZM402.101 245.637C399.605 246.35 397.21 247.653 395.281 249.193C393.356 250.731 391.879 252.52 391.242 254.218L391.628 254.362C392.229 252.76 393.646 251.027 395.539 249.515C397.429 248.006 399.776 246.731 402.214 246.034L402.101 245.637ZM401.333 267.487V247.898H400.921V267.487H401.333ZM394.311 274.772C395.475 271.409 397.755 268.896 401.196 267.682L401.058 267.293C397.488 268.553 395.123 271.168 393.921 274.637L394.311 274.772ZM391.746 276.326L394.22 274.882L394.012 274.526L391.538 275.97L391.746 276.326ZM392.467 254.693L391.436 276.138L391.848 276.158L392.879 254.712L392.467 254.693ZM401.058 247.703C398.699 248.541 397.06 249.357 395.758 250.424C394.453 251.492 393.499 252.801 392.493 254.602L392.853 254.803C393.847 253.025 394.771 251.766 396.019 250.743C397.269 249.719 398.857 248.923 401.196 248.092L401.058 247.703Z" fill="#525357"/>
<path d="M228.305 316.641L227.043 317.708L228.936 318.774L230.198 317.708L228.305 316.641Z" fill="#2D2D2E"/>
<path d="M227.042 317.708L228.935 318.774V325.6L227.042 324.747V317.708Z" fill="#4C4C4C"/>
<path d="M243.448 284.359L304.385 249.39L338.248 269.44L277.883 304.208L243.448 284.359Z" fill="#F2F2F2"/>
<path d="M243.809 283.882L278.4 303.932V343.531L243.809 323.129V283.882Z" fill="#898989"/>
<path d="M273.525 340.53V310.882L252.913 318.134L239.241 346.716V370.606L337.256 313.441V309.602L278.363 343.517L273.525 340.53Z" fill="url(#paint0_linear)"/>
<path d="M231.038 305.763L248.075 295.738L273.525 310.882L256.698 320.694L252.281 343.73L239.241 356.101V370.606L214.001 356.101V345.863V340.957L226.831 328.586L231.038 305.763Z" fill="url(#paint1_linear)"/>
<path d="M254.806 322.613L231.88 308.962L228.725 325.6L251.862 339.037L254.806 322.613Z" fill="url(#paint2_linear)"/>
<path d="M272.264 314.935L258.592 322.613L255.858 338.397L272.264 329.226V314.935Z" fill="url(#paint3_linear)"/>
<path d="M277.882 303.719L338.248 268.951L338.248 309.051L278.513 343.819L277.882 303.719Z" fill="#C2CCDA"/>
<path d="M312.616 325.587C312.616 328.408 310.663 331.838 308.254 333.248C305.846 334.658 306.155 334.404 303.409 331.947C303.247 328.998 305.846 324.444 308.254 323.034C310.663 321.624 312.616 322.767 312.616 325.587Z" fill="#4C4C4C"/>
<path d="M309.081 322.827C309.642 322.684 311.647 323.168 312.656 324.533" stroke="#363636" stroke-width="0.539312"/>
<path d="M305.377 338.057C304.727 338.224 302.476 337.413 301.428 335.411" stroke="#363636" stroke-width="0.539312"/>
<path d="M312.235 326.704C312.235 330.376 309.692 334.842 306.556 336.679C303.419 338.515 303.822 338.184 300.246 334.985C300.036 331.145 303.419 325.215 306.556 323.379C309.692 321.542 312.235 323.031 312.235 326.704Z" fill="#363636"/>
<ellipse rx="6.58077" ry="6.65002" transform="matrix(0.862966 -0.505262 0 1 308.239 330.882)" fill="#535456"/>
<ellipse rx="4.14345" ry="4.18705" transform="matrix(0.862966 -0.505261 0 1 308.659 331.026)" fill="#D1D1D1"/>
<ellipse rx="1.70612" ry="1.72408" transform="matrix(0.862966 -0.505261 0 1 308.659 331.026)" fill="#3A3A3A"/>
<path d="M333.228 313.216C333.228 316.036 331.276 319.466 328.867 320.876C326.458 322.287 326.767 322.033 324.021 319.576C323.86 316.627 326.458 312.073 328.867 310.662C331.276 309.252 333.228 310.395 333.228 313.216Z" fill="#4C4C4C"/>
<path d="M329.692 310.455C330.253 310.313 332.258 310.796 333.268 312.161" stroke="#363636" stroke-width="0.539312"/>
<path d="M325.988 325.685C325.338 325.853 323.087 325.042 322.039 323.04" stroke="#363636" stroke-width="0.539312"/>
<path d="M332.847 314.332C332.847 318.005 330.305 322.471 327.168 324.307C324.032 326.144 324.434 325.813 320.858 322.613C320.648 318.774 324.032 312.844 327.168 311.007C330.305 309.171 332.847 310.66 332.847 314.332Z" fill="#363636"/>
<ellipse rx="6.58078" ry="6.65002" transform="matrix(0.862967 -0.505261 0 1 328.851 318.51)" fill="#535456"/>
<ellipse rx="4.14344" ry="4.18705" transform="matrix(0.862966 -0.505263 0 1 329.271 318.655)" fill="#D1D1D1"/>
<ellipse rx="1.70613" ry="1.72408" transform="matrix(0.862966 -0.505262 0 1 329.272 318.655)" fill="#3A3A3A"/>
<path d="M263.819 354.596C263.819 357.417 261.866 360.846 259.458 362.257C257.049 363.667 257.358 363.413 254.612 360.956C254.45 358.007 257.049 353.453 259.458 352.042C261.866 350.632 263.819 351.775 263.819 354.596Z" fill="#4C4C4C"/>
<path d="M260.283 351.835C260.844 351.693 262.85 352.176 263.859 353.542" stroke="#363636" stroke-width="0.539312"/>
<path d="M256.58 367.066C255.929 367.233 253.679 366.422 252.63 364.42" stroke="#363636" stroke-width="0.539312"/>
<path d="M263.438 355.712C263.438 359.385 260.895 363.851 257.759 365.687C254.622 367.524 255.024 367.193 251.449 363.994C251.238 360.154 254.622 354.224 257.759 352.387C260.895 350.551 263.438 352.04 263.438 355.712Z" fill="#363636"/>
<ellipse rx="6.58077" ry="6.65001" transform="matrix(0.862967 -0.505261 0 1 259.442 359.891)" fill="#535456"/>
<ellipse rx="4.14345" ry="4.18704" transform="matrix(0.862967 -0.505261 0 1 259.862 360.035)" fill="#D1D1D1"/>
<ellipse rx="1.70613" ry="1.72408" transform="matrix(0.862967 -0.50526 0 1 259.862 360.035)" fill="#3A3A3A"/>
<path d="M277.86 303.78L338.226 269.013L338.226 309.113L278.491 343.881L277.86 303.78Z" fill="#C2CCDA"/>
<rect width="5.64219" height="2.85032" transform="matrix(0.856233 0.51659 0 1 232.236 360.581)" fill="#DE9753"/>
<rect width="5.64219" height="2.85032" transform="matrix(0.856233 0.516589 0 1 215.264 350.769)" fill="#DE9753"/>
<rect width="10.019" height="2.85032" transform="matrix(0.856233 0.51659 0 1 221.509 354.526)" fill="#C4C4C4"/>
<rect width="4.91298" height="1.7064" transform="matrix(0.856233 -0.516591 0 1 259.013 343.069)" fill="#898989"/>
<path d="M258.171 342.238V334.986L259.433 334.132V341.384L258.171 342.238Z" fill="#3A3A3A"/>
<path d="M256.487 332.426L255.225 333.279L258.17 334.985L259.432 334.132L256.487 332.426Z" fill="#303133"/>
<path d="M258.17 334.986L255.225 333.279V340.531L258.17 342.238V334.986Z" fill="#525357"/>
<defs>
<linearGradient id="paint0_linear" x1="269.739" y1="312.801" x2="287.138" y2="342.666" gradientUnits="userSpaceOnUse">
<stop stop-color="#2B4499"/>
<stop offset="0.749464" stop-color="#2B4499"/>
<stop offset="0.75" stop-color="#404143"/>
<stop offset="1" stop-color="#404143"/>
</linearGradient>
<linearGradient id="paint1_linear" x1="252.912" y1="299.364" x2="218.33" y2="358.883" gradientUnits="userSpaceOnUse">
<stop stop-color="#3F5CC2"/>
<stop offset="0.234175" stop-color="#405DC2"/>
<stop offset="0.234275" stop-color="#A3A3A3"/>
<stop offset="0.234375" stop-color="#293B7A"/>
<stop offset="0.552083" stop-color="#2A3C7B"/>
<stop offset="0.552183" stop-color="#3F5CC2"/>
<stop offset="0.804454" stop-color="#405DC2"/>
<stop offset="0.810077" stop-color="#415EC2"/>
<stop offset="0.814339" stop-color="#293B7A"/>
<stop offset="0.865219" stop-color="#2A3C7B"/>
<stop offset="0.867454" stop-color="#535456"/>
<stop offset="1" stop-color="#525356"/>
</linearGradient>
<linearGradient id="paint2_linear" x1="232.511" y1="315.788" x2="273.113" y2="312.469" gradientUnits="userSpaceOnUse">
<stop stop-color="#A0B3F6"/>
<stop offset="0.192159" stop-color="#A0B3F7"/>
<stop offset="0.195181" stop-color="#607AD6"/>
<stop offset="0.886167" stop-color="#607AD6"/>
<stop offset="0.887989" stop-color="#A0B3F7"/>
<stop offset="0.997653" stop-color="#A0B3F7"/>
</linearGradient>
<linearGradient id="paint3_linear" x1="232.511" y1="315.788" x2="273.113" y2="312.469" gradientUnits="userSpaceOnUse">
<stop stop-color="#A0B3F6"/>
<stop offset="0.192159" stop-color="#A0B3F7"/>
<stop offset="0.195181" stop-color="#607AD6"/>
<stop offset="0.886167" stop-color="#607AD6"/>
<stop offset="0.887989" stop-color="#A0B3F7"/>
<stop offset="0.997653" stop-color="#A0B3F7"/>
</linearGradient>
</defs>
</svg>
