<svg width="364" height="339" viewBox="0 0 364 339" fill="none" xmlns="http://www.w3.org/2000/svg">
<path d="M233.321 275.15L313.013 320.78L342.898 338.132L362.79 325.836V315.553L290.198 281.576C285.985 278.255 285.904 276.22 290.198 272.258L304.016 264.224C311.985 258.826 318.904 262.832 321.368 265.51C330.108 280.42 348.36 279.327 354.787 272.258C363.142 263.067 356.072 248.8 339.684 251.049L323.939 241.731C314.467 237.078 308.981 237.175 298.874 241.731L269.633 258.761C262.593 262.025 258.72 261.923 251.959 258.761L239.748 252.013C234.285 247.836 233.643 239.481 237.499 236.91L345.79 173.607C362.178 165.895 366.355 148.543 345.79 136.653L264.491 87.4885C258.707 83.3111 258.386 75.599 264.491 70.779L273.81 64.9949C280.169 61.3611 284.041 60.7267 292.126 64.9949L315.263 78.4911C318.155 89.4165 340.648 94.8793 353.502 85.2392C365.638 76.1366 354.144 65.3162 337.756 64.9949L324.581 57.2828C289.865 32.3588 271.642 32.2804 241.355 57.2828C224.324 74.635 227.216 95.522 253.887 107.411C261.599 111.268 261.492 115.273 257.422 118.337L245.211 117.931L244.216 125.322L266.067 138.175C266.067 138.175 278.921 129.178 281.813 128.214C284.705 127.25 289.672 127.819 296.625 131.512L321.368 146.615C329.723 151.113 334.221 157.219 321.368 163.324L228.18 216.666C197.653 234.018 202.473 262.296 233.321 275.15Z" fill="#2C459A"/>
<path d="M231.393 265.51L311.085 311.139L340.969 328.492L363.142 315.317L288.27 271.936C284.057 268.614 283.976 266.58 288.27 262.617L302.087 254.584C310.057 249.186 316.976 253.192 319.44 255.869C328.18 270.779 346.432 269.687 352.859 262.617C361.214 253.427 354.144 239.16 337.756 241.409L322.01 232.09C312.539 227.437 307.053 227.535 296.946 232.09L267.704 249.121C260.665 252.385 256.792 252.283 250.031 249.121L237.82 242.373C232.357 238.196 231.715 229.841 235.571 227.27L343.861 163.967C360.25 156.255 364.427 138.903 343.861 127.013L262.563 77.8484C256.779 73.671 256.458 65.9589 262.563 61.1388L271.882 55.3548C278.241 51.721 282.113 51.0866 290.198 55.3548L313.334 68.8509C316.226 79.7764 338.72 85.2392 351.573 75.599C363.71 66.4964 352.216 55.6761 335.828 55.3548L322.653 47.6426C287.937 22.7187 269.713 22.6403 239.427 47.6426C222.396 64.9949 225.288 85.8818 251.959 97.7713C259.671 101.627 259.564 105.633 255.494 108.697L237.468 121.466L259.319 134.319L276.702 121.872C283.809 117.843 287.744 118.179 294.697 121.872L319.44 136.975C327.794 141.473 332.293 147.579 319.44 153.684L226.252 207.026C195.725 224.378 200.545 252.656 231.393 265.51Z" fill="#405DC2"/>
<path d="M133.676 72.6223L53.9842 26.9924L24.0998 9.64014L-0.000488281 13.1748L0.320849 21.2083L76.7992 66.1955C81.0126 69.5173 81.0933 71.5517 76.7992 75.5143L62.9817 83.5478C55.0125 88.9463 48.093 84.9402 45.6294 82.2624C36.8891 67.3524 18.6371 68.4449 12.2103 75.5143C3.85556 84.7045 10.925 98.972 27.3132 96.7226L43.0587 106.041C52.5306 110.694 58.016 110.597 68.1231 106.041L97.3648 89.0105C104.404 85.747 108.277 85.8489 115.038 89.0105L127.249 95.7586C132.712 99.936 133.355 108.291 129.499 110.861L21.2078 174.165C4.81958 181.877 0.642188 199.229 21.2078 211.119L102.506 260.283C108.29 264.461 108.612 272.173 102.506 276.993L93.1874 282.777C86.828 286.411 82.9562 287.045 74.8711 282.777L51.7348 269.281C48.8428 258.355 26.3492 252.893 13.4957 262.533C1.35888 271.635 12.853 282.456 29.2412 282.777L42.4161 290.489C77.1322 315.413 95.3557 315.492 125.642 290.489C142.673 273.137 139.781 252.25 113.11 240.361C105.398 236.504 105.505 232.499 109.576 229.435L119.858 223.33L117.93 213.689L97.6861 210.476L88.3673 216.26C81.2602 220.289 77.3256 219.953 70.3724 216.26L45.6294 201.157C37.2746 196.659 32.7759 190.553 45.6294 184.448L138.817 131.106C169.344 113.754 164.524 85.4758 133.676 72.6223Z" fill="#2C459A"/>
<path d="M131.748 62.9822L52.0567 17.3522L22.1723 0L0 13.1748L74.8717 56.5554C79.0851 59.8772 79.1658 61.9116 74.8717 65.8742L61.0541 73.9076C53.085 79.3061 46.1655 75.3001 43.7019 72.6223C34.9615 57.7122 16.7096 58.8048 10.2828 65.8742C1.92803 75.0644 8.99745 89.3318 25.3856 87.0825L41.1312 96.4013C50.603 101.054 56.0885 100.957 66.1955 96.4013L95.4372 79.3704C102.476 76.1068 106.35 76.2088 113.111 79.3704L125.322 86.1185C130.784 90.2959 131.427 98.6506 127.571 101.221L19.2802 164.525C2.89204 172.237 -1.28535 189.589 19.2802 201.479L100.579 250.643C106.363 254.821 106.684 262.533 100.579 267.353L91.2598 273.137C84.9005 276.771 81.0287 277.405 72.9436 273.137L49.8073 259.641C46.9153 248.715 24.4217 243.253 11.5682 252.893C-0.568657 261.995 10.9255 272.816 27.3137 273.137L40.4885 280.849C75.2047 305.773 93.4281 305.851 123.715 280.849C140.746 263.497 137.854 242.61 111.183 230.72C103.471 226.864 103.577 222.859 107.648 219.795L117.931 213.689L95.7586 200.836L86.4398 206.62C79.3326 210.649 75.398 210.313 68.4449 206.62L43.7019 191.517C35.3471 187.018 30.8484 180.913 43.7019 174.808L136.89 121.466C167.417 104.113 162.597 75.8357 131.748 62.9822Z" fill="#405DC2"/>
<path d="M324.871 37.8465C326.156 34.9545 328.834 34.2047 330.012 33.9905L336.439 37.2039L341.259 44.916C340.723 47.4867 343.444 49.2861 344.472 53.9134C345.5 58.5407 341.58 64.5175 337.081 69.0163L333.547 70.9443L335.475 66.4456L338.688 56.4841L339.009 52.3067L339.652 46.5226L335.796 41.7026L324.871 37.8465Z" fill="#CD9400"/>
<path fill-rule="evenodd" clip-rule="evenodd" d="M337.081 69.0162C337.081 69.0162 347.242 62.352 347.242 51.4125C347.242 45.1625 342.881 37.5782 337.502 34.4724C332.123 31.3667 324.365 34.3704 324.549 40.4172C324.87 51.0213 337.081 69.0162 337.081 69.0162ZM337.223 51.6639C339.683 53.0837 341.676 51.9328 341.676 49.0932C341.676 46.2537 339.683 42.8009 337.223 41.3811C334.764 39.9614 332.771 41.1123 332.771 43.9518C332.771 46.7914 334.764 50.2442 337.223 51.6639Z" fill="#CD9400"/>
<path fill-rule="evenodd" clip-rule="evenodd" d="M339.519 63.1233C341.358 60.4224 343.387 57.4433 343.387 53.3406C343.387 47.0906 339.026 39.5062 333.647 36.4005C328.267 33.2948 323.907 35.8437 323.907 42.0938C323.907 53.4104 333.554 71.0514 333.554 71.0514C333.554 71.0514 336.203 68.0527 339.01 63.8749C339.177 63.6263 339.347 63.376 339.519 63.1233ZM333.369 53.592C335.828 55.0117 337.821 53.8608 337.821 51.0213C337.821 48.1818 335.828 44.7289 333.369 43.3092C330.91 41.8894 328.916 43.0404 328.916 45.8799C328.916 48.7194 330.91 52.1722 333.369 53.592Z" fill="#FFBA07"/>
<path d="M13.8169 44.2738C15.1022 41.3817 17.7801 40.6319 18.9583 40.4177L25.385 43.6311L30.2051 51.3432C29.6695 53.9139 32.3902 55.7134 33.4185 60.3407C34.4468 64.9679 30.5265 70.9448 26.0277 75.4435L22.493 77.3715L24.421 72.8728L27.6344 62.9114L27.9557 58.734L28.5984 52.9499L24.7424 48.1298L13.8169 44.2738Z" fill="#CD9400"/>
<path fill-rule="evenodd" clip-rule="evenodd" d="M26.028 75.4435C26.028 75.4435 36.1893 68.7792 36.1893 57.8398C36.1893 51.5897 31.8285 44.0054 26.4493 40.8997C21.07 37.794 13.3127 40.7977 13.4959 46.8444C13.8171 57.4486 26.028 75.4435 26.028 75.4435ZM26.1702 58.0912C28.6293 59.5109 30.6228 58.36 30.6228 55.5205C30.6228 52.681 28.6293 49.2281 26.1702 47.8084C23.7111 46.3886 21.7176 47.5396 21.7176 50.3791C21.7176 53.2186 23.7111 56.6714 26.1702 58.0912Z" fill="#CD9400"/>
<path fill-rule="evenodd" clip-rule="evenodd" d="M28.4654 69.5505C30.3045 66.8496 32.3331 63.8705 32.3331 59.7678C32.3331 53.5178 27.9723 45.9335 22.5931 42.8278C17.2138 39.722 12.853 42.271 12.853 48.521C12.853 59.8377 22.5003 77.4787 22.5003 77.4787C22.5003 77.4787 25.1496 74.4799 27.9559 70.3021C28.1229 70.0536 28.2933 69.8033 28.4654 69.5505ZM22.3142 60.0192C24.7733 61.439 26.7668 60.288 26.7668 57.4485C26.7668 54.609 24.7733 51.1562 22.3142 49.7364C19.8551 48.3166 17.8616 49.4676 17.8616 52.3071C17.8616 55.1466 19.8551 58.5995 22.3142 60.0192Z" fill="#FFBA07"/>
<path d="M17.0312 229.364C18.3166 226.472 20.9944 225.722 22.1727 225.508L28.5994 228.721L33.4195 236.434C32.8839 239.004 35.6046 240.804 36.6328 245.431C37.6611 250.058 33.7408 256.035 29.2421 260.534L25.7074 262.462L27.6354 257.963L30.8488 248.002L31.1701 243.824L31.8128 238.04L27.9567 233.22L17.0312 229.364Z" fill="#CD9400"/>
<path fill-rule="evenodd" clip-rule="evenodd" d="M29.2424 260.534C29.2424 260.534 39.4037 253.87 39.4037 242.93C39.4037 236.68 35.0429 229.096 29.6636 225.99C24.2844 222.885 16.527 225.888 16.7102 231.935C17.0315 242.539 29.2424 260.534 29.2424 260.534ZM29.3851 243.182C31.8442 244.602 33.8377 243.451 33.8377 240.611C33.8377 237.772 31.8442 234.319 29.3851 232.899C26.926 231.479 24.9325 232.63 24.9325 235.47C24.9325 238.309 26.926 241.762 29.3851 243.182Z" fill="#CD9400"/>
<path fill-rule="evenodd" clip-rule="evenodd" d="M31.6798 254.641C33.5189 251.94 35.5474 248.961 35.5474 244.858C35.5474 238.608 31.1867 231.024 25.8074 227.918C20.4281 224.813 16.0674 227.362 16.0674 233.612C16.0674 244.928 25.7146 262.569 25.7146 262.569C25.7146 262.569 28.3639 259.571 31.1702 255.393C31.3372 255.144 31.5077 254.894 31.6798 254.641ZM25.5289 245.11C27.988 246.53 29.9815 245.379 29.9815 242.539C29.9815 239.7 27.988 236.247 25.5289 234.827C23.0698 233.407 21.0764 234.558 21.0764 237.398C21.0764 240.237 23.0698 243.69 25.5289 245.11Z" fill="#FFBA07"/>
<path d="M328.728 225.508C330.013 222.616 332.691 221.866 333.869 221.652L340.296 224.865L345.116 232.577C344.58 235.148 347.301 236.948 348.329 241.575C349.357 246.202 345.437 252.179 340.938 256.678L337.404 258.606L339.332 254.107L342.545 244.145L342.866 239.968L343.509 234.184L339.653 229.364L328.728 225.508Z" fill="#CD9400"/>
<path fill-rule="evenodd" clip-rule="evenodd" d="M340.938 256.678C340.938 256.678 351.099 250.013 351.099 239.074C351.099 232.824 346.738 225.24 341.359 222.134C335.98 219.028 328.222 222.032 328.406 228.079C328.727 238.683 340.938 256.678 340.938 256.678ZM341.081 239.325C343.54 240.745 345.534 239.594 345.534 236.755C345.534 233.915 343.54 230.462 341.081 229.043C338.622 227.623 336.628 228.774 336.628 231.613C336.628 234.453 338.622 237.906 341.081 239.325Z" fill="#CD9400"/>
<path fill-rule="evenodd" clip-rule="evenodd" d="M343.376 250.785C345.215 248.084 347.244 245.105 347.244 241.002C347.244 234.752 342.883 227.168 337.504 224.062C332.124 220.956 327.764 223.505 327.764 229.755C327.764 241.072 337.411 258.713 337.411 258.713C337.411 258.713 340.06 255.714 342.867 251.536C343.034 251.288 343.204 251.037 343.376 250.785ZM337.226 241.253C339.685 242.673 341.679 241.522 341.679 238.683C341.679 235.843 339.685 232.39 337.226 230.971C334.767 229.551 332.774 230.702 332.774 233.541C332.774 236.381 334.767 239.834 337.226 241.253Z" fill="#FFBA07"/>
<path d="M191.539 112.101C194.037 110.877 197.679 110.82 200.29 111.963L280.374 147.023C282.132 147.793 283.153 148.995 283.127 150.265L282.916 160.569C282.895 161.612 282.169 162.61 280.89 163.35L153.736 237.027C150.98 238.624 146.482 238.606 143.764 236.987L65.0774 190.123C63.8205 189.375 63.118 188.374 63.118 187.334L63.118 176.862C63.118 175.685 64.0152 174.568 65.5726 173.805L191.539 112.101Z" fill="#333333"/>
<rect width="88.4572" height="135.077" rx="4.8844" transform="matrix(0.866794 0.498667 -0.866794 0.498667 196.717 104.128)" fill="#E2E2E2"/>
<rect width="88.4572" height="135.077" rx="4.8844" transform="matrix(0.866794 0.498667 -0.866794 0.498667 196.717 108.684)" fill="white"/>
<rect width="26.6732" height="90.8971" rx="3.28686" transform="matrix(0.866794 0.498667 -0.866794 0.498667 207.967 135.604)" fill="#AAAAAA" fill-opacity="0.2"/>
<path fill-rule="evenodd" clip-rule="evenodd" d="M201.688 101.275C198.962 99.7066 194.543 99.7066 191.818 101.275L65.2116 174.111C62.4861 175.679 62.4861 178.221 65.2116 179.789L144.715 225.528C147.441 227.096 151.86 227.096 154.585 225.528L281.191 152.691C283.917 151.123 283.917 148.581 281.191 147.013L201.688 101.275ZM200.951 106.565C198.613 105.219 194.822 105.219 192.484 106.565L83.8678 169.051C81.5295 170.397 81.5295 172.578 83.8678 173.923L152.074 213.162C154.413 214.507 158.204 214.507 160.542 213.162L269.158 150.675C271.496 149.33 271.496 147.149 269.158 145.804L200.951 106.565Z" fill="#4D4D4D"/>
<path d="M135.405 139.259L134.402 140.095L135.906 140.931L136.91 140.095L135.405 139.259Z" fill="#2D2D2E"/>
<path d="M134.401 140.095L135.905 140.931V146.281L134.401 145.612V140.095Z" fill="#4C4C4C"/>
<path d="M147.44 113.957L195.875 86.5495L222.79 102.264L174.81 129.514L147.44 113.957Z" fill="#F2F2F2"/>
<path d="M147.728 113.584L175.221 129.298V160.335L147.728 144.345V113.584Z" fill="#898989"/>
<path d="M171.347 157.983V134.745L154.963 140.429L144.097 162.831V181.555L222.002 136.751V133.742L175.192 160.324L171.347 157.983Z" fill="url(#paint0_linear)"/>
<path d="M137.577 130.733L151.118 122.876L171.347 134.745L157.972 142.436L154.462 160.491L144.097 170.187V181.555L124.035 170.187V162.163V158.318L134.233 148.621L137.577 130.733Z" fill="url(#paint1_linear)"/>
<path d="M156.468 143.94L138.246 133.241L135.738 146.281L154.128 156.813L156.468 143.94Z" fill="url(#paint2_linear)"/>
<path d="M170.344 137.922L159.478 143.94L157.304 156.311L170.344 149.123V137.922Z" fill="url(#paint3_linear)"/>
<path d="M174.81 129.131L222.79 101.881L222.79 133.311L175.312 160.561L174.81 129.131Z" fill="#C2CCDA"/>
<path d="M202.418 146.271C202.418 148.482 200.866 151.17 198.951 152.276C197.037 153.381 197.282 153.182 195.099 151.256C194.971 148.945 197.037 145.375 198.951 144.27C200.866 143.165 202.418 144.061 202.418 146.271Z" fill="#4C4C4C"/>
<path d="M199.607 144.108C200.053 143.996 201.647 144.375 202.449 145.445" stroke="#363636" stroke-width="0.334358"/>
<path d="M196.665 156.045C196.148 156.176 194.359 155.54 193.525 153.971" stroke="#363636" stroke-width="0.334358"/>
<path d="M202.115 147.146C202.115 150.025 200.094 153.525 197.601 154.965C195.108 156.404 195.428 156.145 192.586 153.637C192.418 150.627 195.108 145.98 197.601 144.54C200.094 143.101 202.115 144.268 202.115 147.146Z" fill="#363636"/>
<circle r="5.21212" transform="matrix(0.866025 -0.5 0 1 198.939 150.421)" fill="#535456"/>
<circle r="3.2817" transform="matrix(0.866025 -0.5 0 1 199.272 150.534)" fill="#D1D1D1"/>
<circle r="1.35129" transform="matrix(0.866025 -0.5 0 1 199.273 150.535)" fill="#3A3A3A"/>
<path d="M218.801 136.575C218.801 138.786 217.249 141.474 215.335 142.579C213.42 143.684 213.666 143.485 211.483 141.559C211.355 139.248 213.42 135.679 215.335 134.573C217.249 133.468 218.801 134.364 218.801 136.575Z" fill="#4C4C4C"/>
<path d="M215.991 134.411C216.437 134.3 218.03 134.679 218.833 135.749" stroke="#363636" stroke-width="0.334358"/>
<path d="M213.048 146.348C212.531 146.479 210.742 145.844 209.908 144.275" stroke="#363636" stroke-width="0.334358"/>
<path d="M218.498 137.45C218.498 140.328 216.478 143.829 213.985 145.268C211.492 146.707 211.811 146.448 208.969 143.94C208.802 140.931 211.492 136.283 213.985 134.844C216.478 133.404 218.498 134.571 218.498 137.45Z" fill="#363636"/>
<circle r="5.21212" transform="matrix(0.866025 -0.5 0 1 215.322 140.725)" fill="#535456"/>
<circle r="3.2817" transform="matrix(0.866025 -0.5 0 1 215.656 140.838)" fill="#D1D1D1"/>
<circle r="1.35129" transform="matrix(0.866025 -0.5 0 1 215.657 140.838)" fill="#3A3A3A"/>
<path d="M163.632 169.008C163.632 171.218 162.08 173.907 160.166 175.012C158.251 176.117 158.497 175.918 156.314 173.992C156.186 171.681 158.251 168.112 160.166 167.006C162.08 165.901 163.632 166.797 163.632 169.008Z" fill="#4C4C4C"/>
<path d="M160.822 166.844C161.268 166.733 162.862 167.111 163.664 168.181" stroke="#363636" stroke-width="0.334358"/>
<path d="M157.879 178.781C157.362 178.912 155.574 178.277 154.74 176.708" stroke="#363636" stroke-width="0.334358"/>
<path d="M163.33 169.883C163.33 172.761 161.309 176.262 158.816 177.701C156.323 179.14 156.642 178.881 153.8 176.373C153.633 173.364 156.323 168.716 158.816 167.277C161.309 165.837 163.33 167.004 163.33 169.883Z" fill="#363636"/>
<circle r="5.21212" transform="matrix(0.866025 -0.5 0 1 160.153 173.158)" fill="#535456"/>
<circle r="3.2817" transform="matrix(0.866025 -0.5 0 1 160.487 173.271)" fill="#D1D1D1"/>
<circle r="1.35129" transform="matrix(0.866025 -0.5 0 1 160.488 173.271)" fill="#3A3A3A"/>
<path d="M174.792 129.179L222.773 101.929L222.773 133.359L175.294 160.609L174.792 129.179Z" fill="#C2CCDA"/>
<rect width="4.46802" height="2.23401" transform="matrix(0.859406 0.511293 0 1 138.529 173.698)" fill="#DE9753"/>
<rect width="4.46802" height="2.23401" transform="matrix(0.859406 0.511293 0 1 125.039 166.008)" fill="#DE9753"/>
<rect width="7.934" height="2.23401" transform="matrix(0.859406 0.511293 0 1 130.003 168.952)" fill="#C4C4C4"/>
<rect width="3.89056" height="1.33743" transform="matrix(0.859406 -0.511293 0 1 159.812 159.973)" fill="#898989"/>
<path d="M159.143 159.321V153.637L160.146 152.969V158.653L159.143 159.321Z" fill="#3A3A3A"/>
<path d="M157.805 151.631L156.802 152.3L159.143 153.637L160.146 152.968L157.805 151.631Z" fill="#303133"/>
<path d="M159.143 153.637L156.802 152.3V157.984L159.143 159.321V153.637Z" fill="#525357"/>
<defs>
<linearGradient id="paint0_linear" x1="168.338" y1="136.25" x2="181.879" y2="159.822" gradientUnits="userSpaceOnUse">
<stop stop-color="#2B4499"/>
<stop offset="0.749464" stop-color="#2B4499"/>
<stop offset="0.75" stop-color="#404143"/>
<stop offset="1" stop-color="#404143"/>
</linearGradient>
<linearGradient id="paint1_linear" x1="154.963" y1="125.718" x2="128.047" y2="172.695" gradientUnits="userSpaceOnUse">
<stop stop-color="#3F5CC2"/>
<stop offset="0.234175" stop-color="#405DC2"/>
<stop offset="0.234275" stop-color="#A3A3A3"/>
<stop offset="0.234375" stop-color="#293B7A"/>
<stop offset="0.552083" stop-color="#2A3C7B"/>
<stop offset="0.552183" stop-color="#3F5CC2"/>
<stop offset="0.804454" stop-color="#405DC2"/>
<stop offset="0.810077" stop-color="#415EC2"/>
<stop offset="0.814339" stop-color="#293B7A"/>
<stop offset="0.865219" stop-color="#2A3C7B"/>
<stop offset="0.867454" stop-color="#535456"/>
<stop offset="1" stop-color="#525356"/>
</linearGradient>
<linearGradient id="paint2_linear" x1="138.747" y1="138.59" x2="171.013" y2="135.916" gradientUnits="userSpaceOnUse">
<stop stop-color="#A0B3F6"/>
<stop offset="0.192159" stop-color="#A0B3F7"/>
<stop offset="0.195181" stop-color="#607AD6"/>
<stop offset="0.886167" stop-color="#607AD6"/>
<stop offset="0.887989" stop-color="#A0B3F7"/>
<stop offset="0.997653" stop-color="#A0B3F7"/>
</linearGradient>
<linearGradient id="paint3_linear" x1="138.747" y1="138.59" x2="171.013" y2="135.916" gradientUnits="userSpaceOnUse">
<stop stop-color="#A0B3F6"/>
<stop offset="0.192159" stop-color="#A0B3F7"/>
<stop offset="0.195181" stop-color="#607AD6"/>
<stop offset="0.886167" stop-color="#607AD6"/>
<stop offset="0.887989" stop-color="#A0B3F7"/>
<stop offset="0.997653" stop-color="#A0B3F7"/>
</linearGradient>
</defs>
</svg>
