<svg xmlns="http://www.w3.org/2000/svg" width="98" height="135" viewBox="0 0 98 135">
    <g fill="#FFF" fill-rule="nonzero">
        <path d="M48.925 45.865c5.776 0 10.476-4.7 10.476-10.476 0-5.777-4.7-10.477-10.476-10.477-5.777 0-10.477 4.7-10.477 10.477 0 5.776 4.7 10.476 10.477 10.476zm0-16.974a6.506 6.506 0 0 1 6.498 6.498 6.506 6.506 0 0 1-6.498 6.498 6.506 6.506 0 0 1-6.498-6.498 6.506 6.506 0 0 1 6.498-6.498z"/>
        <path d="M97.567 132.665l-5.345-32.069a27.566 27.566 0 0 0-5.117-11.957L65.766 60.187v-26.92c0-5.279-1.53-16.281-11.783-30.657A6.226 6.226 0 0 0 48.925 0a6.226 6.226 0 0 0-5.059 2.61C33.614 16.986 32.083 27.988 32.083 33.267v26.92L10.744 88.64a27.569 27.569 0 0 0-5.116 11.957L.283 132.665a1.99 1.99 0 0 0 3.205 1.88l30.197-24.158.177 1.95a6.195 6.195 0 0 0 4.586 5.455v6.712c0 1.099.89 1.99 1.99 1.99h6.497v6.498a1.99 1.99 0 0 0 3.979 0v-6.498h6.498a1.99 1.99 0 0 0 1.99-1.99v-6.712a6.195 6.195 0 0 0 4.585-5.454l.178-1.95 30.197 24.157a1.987 1.987 0 0 0 2.249.162 1.99 1.99 0 0 0 .956-2.042zM47.105 4.919a2.211 2.211 0 0 1 1.82-.94c.73 0 1.392.342 1.819.94 1.669 2.34 3.795 5.596 5.735 9.384H41.37c1.941-3.788 4.068-7.044 5.736-9.384zm-7.6 13.362h18.84c1.98 4.661 3.443 9.842 3.443 14.986v57.421H50.914V60.85a1.99 1.99 0 0 0-3.978 0v29.838H36.06V33.267c0-5.144 1.464-10.325 3.444-14.986zm-6.676 87.696L5.062 128.19l4.49-26.94a23.568 23.568 0 0 1 4.375-10.225l18.156-24.208v25.86c0 .06.002.12.008.18l.002.023 1.167 12.835a1.99 1.99 0 0 0-.43.26zm3.421-11.31h10.685v19.361H40.07a2.244 2.244 0 0 1-2.245-2.05L36.25 94.667zm6.177 27.848v-4.509h4.508v4.51h-4.508zm8.487 0v-4.509h4.509v4.51h-4.51zm6.866-8.487h-6.866V94.667h10.685l-1.574 17.31a2.243 2.243 0 0 1-2.245 2.051zm7.24-8.051a1.989 1.989 0 0 0-.43-.26l1.166-12.836.002-.023c.006-.06.008-.12.008-.18v-25.86l18.157 24.208a23.568 23.568 0 0 1 4.375 10.225l4.49 26.94-27.768-22.214z"/>
    </g>
</svg>
