<svg xmlns="http://www.w3.org/2000/svg" width="200" height="180" viewBox="0 0 200 180">
    <g fill="none" fill-rule="evenodd">
        <g fill="#E1E1FF">
            <path d="M122.102 39.472c-.496 0-1.771-.07-3.614-.212-12.827-.85-25.228-4.252-36.78-10.063-9.708-4.89-22.606-6.945-29.621-5.103h-.071c-2.551.71-5.103-.85-5.811-3.401-1.63-6.024-9.709-10.347-18.213-10.347-10.205 0-18.425 5.74-18.425 12.756 0 2.977 1.488 5.74 3.968 7.867 7.016 6.165 10.914 15.165 10.063 24.52-.212 2.48-.141 4.96.355 7.298.212 1.134.567 2.268.992 3.331 2.693 6.874 13.252 15.307 13.89 21.685 4.96 49.181 17.858 67.04 65.196 74.055 47.268 7.016 89.717-14.74 94.678-48.614 4.96-33.732-3.118-72.78-76.607-73.772zM63.638 3.685c-.992-.07-1.843-.567-2.551-1.276C59.669.921 57.472 0 55.063 0c-4.252 0-7.724 2.906-7.724 6.449 0 3.543 3.472 6.449 7.724 6.449 2.126 0 3.968-.709 5.386-1.843.708-.567 1.63-.709 2.48-.638 1.843.213 3.685-1.275 3.685-3.33 0-1.772-1.346-3.19-2.976-3.402zM73.417 16.157c0 .993-1.134 1.843-2.48 1.843-1.417 0-2.48-.78-2.48-1.843 0-.992 1.134-1.842 2.48-1.842 1.417 0 2.48.85 2.48 1.842zM170.362 37.205c0 1.771-2.41 3.189-5.315 3.189-2.905 0-5.315-1.418-5.315-3.19 0-1.77 2.41-3.188 5.315-3.188 2.977 0 5.315 1.417 5.315 3.189zM175.04 31.535c0 .922-.71 1.63-1.63 1.63-.922 0-1.63-.708-1.63-1.63 0-.92.708-1.63 1.63-1.63.85 0 1.63.71 1.63 1.63z"/>
        </g>
        <path fill="#E1E1FF" d="M20.693 128.268c-.496-3.544-1.205-9.142-4.677-13.536C10.63 107.93.78 106.724.78 106.724s-1.063 9.85 4.464 16.654c2.976 3.685 9.213 6.378 12.685 7.512 1.488.496 2.48 1.842 2.48 3.401-.354 23.67-3.968 35.008-3.968 35.008l3.472-.425c2.977-25.654 1.489-35.646.78-40.606zM30.685 124.3c.921-2.906 2.41-7.583 6.024-10.702 5.598-4.96 14.031-4.535 14.031-4.535s-.638 8.433-6.236 13.394c-3.047 2.693-8.717 4.04-11.835 4.393-1.346.213-2.41 1.205-2.622 2.552-3.26 20.055-1.842 30.118-1.842 30.118l-2.906-.85c1.276-22.11 4.11-30.331 5.386-34.37z"/>
        <path fill="#B0B0FF" d="M25.866 108.921c.78-3.543 1.984-9.141 5.811-13.252 6.024-6.449 15.945-6.874 15.945-6.874s.284 9.992-5.811 16.37c-3.33 3.473-9.78 5.67-13.394 6.52-1.559.354-2.693 1.7-2.763 3.26-1.56 23.81.425 43.228.425 43.228l-3.473-.708c-.921-26.008 2.197-43.654 3.26-48.544zM18.354 146.551a11.753 11.753 0 0 0-2.055-4.96c-.496-.71-1.063-1.347-1.771-1.843-3.048-2.126-7.229-1.488-7.229-1.488s.709 4.18 3.685 6.307c1.772 1.276 3.969 1.559 5.457 1.559.921 0 1.63.78 1.63 1.63-.071 4.819-1.063 11.41-1.063 11.41l1.913-.355c.567-4.465-.07-9.567-.567-12.26z"/>
        <path fill="#B0B0FF" d="M36.709 131.811s-3.898 1.63-5.315 5.102c-.78 1.914-.355 4.82-.213 5.882.071.284.071.638 0 .922l-1.488 12.826h2.338c-.566-4.606-.354-8.787-.141-10.984.07-.921.567-1.772 1.275-2.339 1.205-.85 2.977-2.338 3.685-4.11 1.489-3.401-.141-7.299-.141-7.299z"/>
        <path fill="#8888EA" d="M19.772 177.732h9.283c.284 0 .567-.07.85-.212 3.615-1.985 6.024-5.74 6.024-10.134v-9c0-.992-.85-1.843-1.842-1.843H14.669c-.992 0-1.842.85-1.842 1.843v9c0 4.394 2.48 8.22 6.023 10.134.284.141.567.212.922.212z"/>
        <path fill="#E1E1FF" d="M12.827 161.788h23.102v5.528H12.827z"/>
        <path fill="#FFF0F2" d="M12.827 161.788h23.102v1.346H12.827z"/>
        <path fill="#FFF" d="M79.708 28.985l1.671.313-6.448 34.41-1.672-.314z"/>
        <path fill="#FFA50A" d="M101.693 41.811c-7.087-4.535-16.228 2.197-23.173-3.26-.284-.283-.496-.638-.426-1.063l2.552-13.535c.141-.78.992-1.063 1.63-.709 7.086 4.536 16.228-2.197 23.173 3.26.283.283.496.638.425 1.063-.85 4.535-1.7 9.07-2.551 13.535a1.053 1.053 0 0 1-1.63.709z"/>
        <path fill="#FAB9AF" d="M76.323 55.417c-.142.071-.425.213-.638.78-.07.142-.07.212 0 .283 0 .284-.07.496-.283.709a1.543 1.543 0 0 0-.355.567c-.141.354-.212.85-.07 1.205.07.283.07.637 0 .92-.071.213 0 .355.07.568.213.425.709.567 1.134.354.284-.142.496-.496.425-.78 0-.141.071-.354.142-.425l.07-.07c.143-.213.143-.426.143-.638-.071-.213 0-.425.212-.567.142-.142.355-.354.425-.638.071-.213.071-.354 0-.496-.07-.213 0-.425.213-.567a.898.898 0 0 0 .283-.638c-.141-.638-1.346-.85-1.771-.567z"/>
        <path fill="#FAB9AF" d="M71.362 57.685c.213-.354.425-.709.638-.992l.921-.992c.638-.638.992-1.134 1.772-1.205 1.276-.142 2.976-.213 3.047.496.071.638-1.559 1.063-2.551 1.205-.283.07-.567.283-.638.567 0 0 .496 3.685-1.488 3.827l-.496 1.346-2.268-.354.496-2.268c.142-.567.355-1.134.567-1.63z"/>
        <path fill="#5046AF" d="M51.803 74.835s-5.315-2.126-7.228 1.275c-1.984 3.473.921 12.614-6.095 13.89-7.086 1.276-7.795 8.291-7.228 11.41 1.63 8.929 14.528 17.858 23.457 8.433 8.929-9.426-2.126-15.804-2.977-20.552-.921-4.748 4.677-11.055.071-14.456z"/>
        <path fill="#41378C" d="M55.63 91.276c-.07-3.685 7.3-7.512-.354-14.953-.213-.213-.567-.213-.78-.071-.638.496-2.622.78-3.685 1.7-1.913 1.702-4.89 6.379-3.968 8.717 1.984 5.032-1.347 9.355-1.63 15.024-.213 5.882 9.354 11.693 13.96 10.063 1.63-.567 2.622-1.772 3.118-3.19.355-1.133.284-2.338-.283-3.33-1.843-3.401-6.236-1.771-6.378-13.96z"/>
        <path fill="#FAB9AF" d="M67.606 144.213c2.197-12.19 1.276-22.465.425-27.922-.354-2.41-2.338-4.252-4.818-4.535-3.473-.354-6.52 2.551-6.307 6.024.07 1.559.283 3.33.708 5.456 1.63 8.22 4.394 47.835 4.394 47.835 0 .212 0 .425-.071.567-.213.708-.425.992-.638 1.275-.567.78-.212 1.347.992 2.339.992.78.496 2.197 1.489 2.339 1.417.212 2.409.141 2.55-.213.142-.496-.212-.567-1.417-1.134-.92-.496-1.063-3.33-1.063-4.464 0-.284 0-.567.071-.85l3.685-26.717z"/>
        <path fill="#FAB9AF" d="M55.488 145.913c2.268-6.732 6.307-28.346 5.457-34.37l-5.457-.425a5.964 5.964 0 0 0-6.023 4.252c-1.205 3.969-2.339 10.56-1.276 20.268 0 0 .85 5.244 0 8.645-.78 3.048-5.032 22.182-5.811 25.654a8.02 8.02 0 0 1-.425 1.134c-.355.638-.567.78-.85.992-.78.638-.568 1.276.354 2.48.78.992-.071 2.268.921 2.693 1.346.567 2.268.709 2.48.425.284-.425-.07-.567-1.134-1.488-.425-.354-.354-1.559-.212-2.693.142-1.204.496-2.41 1.063-3.543 2.197-4.606 9-18.425 10.913-24.024z"/>
        <path fill="#6469D4" d="M66.827 149.74c-6.307 1.63-12.969 1.63-19.984 0a215.754 215.754 0 0 1 1.275-5.598c.85-3.402 0-8.646 0-8.646-1.063-9.638.071-16.3 1.276-20.268a5.964 5.964 0 0 1 6.023-4.252l5.457.426 2.268.212c2.41.284 4.393 2.126 4.819 4.536.85 5.385 1.771 15.732-.426 27.92l-.708 5.67z"/>
        <path fill="#5159BF" d="M50.528 135c-.71 1.63-1.347 3.33-1.985 5.031-.07-2.409-.354-4.464-.354-4.464-1.063-9.638.07-16.3 1.276-20.268a5.964 5.964 0 0 1 6.023-4.252l1.984.142 3.473.283 2.268.213c2.409.284 4.393 2.126 4.818 4.535.142.85.284 1.914.426 2.977-9.071-.284-14.67 8.079-17.93 15.803z"/>
        <path fill="#B0B0FF" d="M71.433 76.677c.85-4.252 1.7-15.236 1.7-15.236-.424-.567-2.196-1.347-2.763-.567l-3.472 15.095c-3.756 4.748-6.874 9.07-8.292 11.196-.567.78-1.488 1.347-2.41 1.418-1.842.141-4.18.425-6.094.92-9.283 2.41-5.456 5.812-5.456 5.812 1.134 1.134 2.055 2.48 2.763 3.898 1.205 2.55 2.693 5.81 3.615 7.724.354 1.205-.709 4.819-1.134 5.953l-.85 2.55c-.142.355.07.78.425.922 4.18 1.418 12.614 1.63 18-.07.637-.213.92-.851.566-1.418l-3.968-10.843c-1.063-2.267-.85-2.834-.142-4.18.425-.71.567-1.63.284-2.48-.142-.497-.567-1.277-1.063-2.127-.78-1.205-.638-2.835.283-3.968 3.047-3.827 7.229-10.63 8.008-14.599z"/>
        <path fill="#FAB9AF" d="M49.252 75.685c-2.764.78-3.26 3.047-2.268 6.732.355 1.347 1.347 2.552 2.126 3.26.567.567.85 1.276.85 2.055L49.89 90c.141 2.055 1.346 2.835 2.764 2.835.708 0 1.488-.355 1.984-.922.567-.637.354-1.63 0-2.41l-.355-.566c-.425-.709-.212-1.7.567-2.126.567-.283 1.205-.78 1.56-1.205.354-.425.566-3.685-.922-7.015-1.559-3.473-3.472-3.685-6.236-2.906z"/>
        <path fill="#FA968C" d="M55.56 82.843c.212.354-.072.85-.426.92-.354.072-.709-.141-.78-.495l-.637-2.764c0-.07 0-.213.07-.284.071-.07.142-.141.213-.141.142 0 .283.07.354.141l1.205 2.623z"/>
        <path fill="#FAB9AF" d="M48.402 82.63c.212.85.496 1.913-.213 2.126-.78.213-1.913-1.134-2.126-1.984-.213-.85.213-1.205.921-1.418.709-.212 1.205.426 1.418 1.276z"/>
        <path fill="#5046AF" d="M45.567 78.449c2.268-4.323 7.087-5.74 9.496-4.252 1.346.78 3.118 4.252.213 4.323a3.81 3.81 0 0 1-1.985-.567c-.212-.142-.425-.142-.637-.142l-1.914.638c-1.559.567-2.41 2.197-1.842 3.827l.212.567c.071.283-.212.566-.496.425l-.142-.213c-.283-.567-.78-.921-1.417-1.134-1.275-.425-2.835-.921-1.488-3.472z"/>
        <path fill="#FAB9AF" d="M49.96 130.606c-.425-.708-.85-1.417-1.062-1.63-.071-.07-.426-.283-.496-.354-.284-.213-.71-.425-.78-.78l-.496-1.275c-.213-.638-.709-.992-1.346-.709-.638.284-.78.922-.426 1.56l.355.92c.283.497.283 1.064.283 1.63.071 1.134.78 2.268 1.488 3.119.426.567 1.347.637 2.551.637.567 0 1.56-.141.993-.637-.496-.426-2.268-.567-2.48-2.41 0-.07 0-.283.07-.354.284-.142.638.567.85.78.355.354.78.425.922.354.212-.142-.142-.355-.425-.85z"/>
        <g>
            <path fill="#827DDC" d="M93.969 123.024l-9.497 7.937c-4.322 3.614-6.803 8.929-6.803 14.598v32.173a6.654 6.654 0 0 0 6.662-6.661v-3.756c0-8.291 3.685-16.087 9.992-21.402l8.787-7.37-9.141-15.52zM127.984 123.024l9.496 7.937c4.323 3.614 6.803 8.929 6.803 14.598v32.173a6.654 6.654 0 0 1-6.661-6.661v-3.756c0-8.291-3.685-16.087-9.992-21.402l-8.787-7.37 9.141-15.52z"/>
            <path fill="#000" d="M127.984 123.024l9.496 7.937c4.323 3.614 6.803 8.929 6.803 14.598v32.173a6.654 6.654 0 0 1-6.661-6.661v-3.756c0-8.291-3.685-16.087-9.992-21.402l-8.787-7.37 9.141-15.52z" opacity=".21"/>
            <path fill="#6469D4" d="M123.307 161.15H98.93c-1.7 0-3.047-1.489-2.835-3.19l2.197-17.929h25.725l2.197 17.93c.07 1.7-1.205 3.189-2.906 3.189z"/>
            <path fill="#6469D4" d="M123.307 161.15h-6.732v-21.048h7.37l2.197 17.93c.141 1.63-1.134 3.118-2.835 3.118z"/>
            <path fill="#FFF" d="M119.622 144.142c4.252 0 7.937-2.977 8.717-7.158 1.913-9.921 3.047-21.614 3.047-34.086 0-35.717-15.945-72.992-20.339-72.992-5.244 0-20.338 37.275-20.338 72.992 0 12.543 1.134 24.236 3.047 34.086.85 4.181 4.464 7.158 8.716 7.158h17.15z"/>
            <path fill="#FFF" d="M124.937 59.528c-4.96-17.292-11.268-29.622-13.89-29.622-3.047 0-9.354 12.33-14.102 29.622h27.992z"/>
            <path fill="#827DDC" d="M123.59 55.134c-4.677-14.953-10.204-25.228-12.543-25.228-2.764 0-8.22 10.275-12.827 25.228h25.37z"/>
            <path fill="#928DEB" d="M100.843 55.134h2.692c2.552-8.291 3.685-14.103 5.811-19.56.142-.424-.496-.779-.708-.354-2.126 3.544-4.748 9.71-7.795 19.914z"/>
            <path fill="#000" d="M125.504 96.874c0 8.008-6.52 14.528-14.528 14.528-8.007 0-14.527-6.52-14.527-14.528 0-8.008 6.52-14.528 14.527-14.528 8.008 0 14.528 6.52 14.528 14.528z" opacity=".39"/>
            <path fill="#827DDC" d="M125.504 95.386c0 8.008-6.52 14.527-14.528 14.527-8.007 0-14.527-6.52-14.527-14.527 0-8.008 6.52-14.528 14.527-14.528 8.008 0 14.528 6.52 14.528 14.528z"/>
            <path fill="#000" d="M110.976 80.858h-.141v29.055h.141c8.008 0 14.528-6.52 14.528-14.527 0-8.008-6.52-14.528-14.528-14.528z" opacity=".21"/>
            <path fill="#D2F0FF" d="M120.898 95.386c0 5.457-4.465 9.921-9.922 9.921-5.456 0-9.92-4.464-9.92-9.921 0-5.457 4.464-9.921 9.92-9.921a9.905 9.905 0 0 1 9.922 9.92z"/>
            <path fill="#B0B0FF" d="M120.402 168.378h-18.638c-1.701 0-3.118-1.417-3.118-3.118v-4.11h24.803v4.11c.07 1.7-1.347 3.118-3.047 3.118z"/>
            <path fill="#9797EF" d="M120.402 168.378h-2.268v-7.228h5.386v4.11c0 1.7-1.418 3.118-3.118 3.118z"/>
            <path fill="#827DDC" d="M111.26 177.52l-.142.212c-1.488-1.7-2.41-3.826-2.48-6.094l-1.347-42.024c-.07-3.118 1.276-6.094 3.756-8.008a9.622 9.622 0 0 1 3.756 8.079l-1.417 42.165c0 1.985-.78 4.04-2.126 5.67z"/>
            <path fill="#000" d="M111.26 177.52l-.142.212v-56.197a9.622 9.622 0 0 1 3.756 8.08l-1.417 42.165c-.071 2.055-.85 4.11-2.197 5.74z" opacity=".21"/>
            <path fill="#AFE6FF" d="M116.433 87.094v.567c0 7.087-5.74 12.898-12.898 12.898-.425 0-.78 0-1.133-.07 1.771 2.905 4.89 4.818 8.504 4.818 5.456 0 9.92-4.464 9.92-9.921.072-3.473-1.7-6.52-4.393-8.292z"/>
        </g>
        <path fill="#B0B0FF" d="M44.717 91.772c.92-.922 3.047-1.205 5.031-.78 1.913.354-2.197 13.536-5.953 19.7-.425.639-.567 1.49-.354 2.198l4.04 14.315c-.497.992-1.347 1.134-2.268 1.275l-6.804-14.882a6.929 6.929 0 0 1-.425-4.464c1.276-4.606 4.04-14.528 6.733-17.362z"/>
        <g>
            <path fill="#FAB9AF" d="M163.772 168.732l1.063 4.181.212.426.78 1.133c.496.71.142 1.701-.709 1.914 0 0-1.559.567-3.118 1.063-1.63.496-3.614.07-3.614-.355 0-.92.85-.212 2.338-1.204l1.489-1.063c1.275-.992.141-3.544-.638-4.96-.284-.497 0-1.773.567-1.914l.354-.071c.567 0 1.134.283 1.276.85zM162.85 132.732c-.283-.78-.567-1.559-.708-1.913-.071-.142-.355-.425-.425-.496-.213-.284-.567-.638-.638-.921l-.213-1.347c-.07-.638-.496-1.134-1.134-.992-.708.142-.921.78-.78 1.488l.142.992c.142.567.071 1.134-.07 1.701-.142 1.205.283 2.48.78 3.473.283.637 1.204.92 2.409 1.204.567.142 1.559.213 1.063-.425-.355-.496-2.197-1.063-1.914-2.905 0-.071.071-.355.142-.355.354-.07.496.638.709.992.283.496.708.638.92.567.213-.212-.07-.496-.283-1.063z"/>
            <path fill="#B0B0FF" d="M166.606 89.93c-1.913 5.952-6.732 17.149-13.89 21.117-4.818 2.693-16.511 6.662-16.511 6.662s-.355-.496-.638-.922c-.284-.425-.425-1.063-.425-1.063s14.527-7.44 16.512-9.637c1.913-2.126 8.433-15.945 10.417-18.071 2.197-2.48 5.598-1.418 4.535 1.913z"/>
            <path fill="#FAB9AF" d="M160.3 118.913l4.535-32.315 12.401-1.7 6.52 33.732zM186.874 167.882l1.276 4.181c.07.213.141.354.212.496l.921 1.347c.567.85.142 1.984-.78 2.267 0 0-1.77.638-3.613 1.205-1.914.638-4.252.07-4.252-.425 0-1.134 1.063-.213 2.764-1.418.567-.354 1.204-.78 1.7-1.204 1.489-1.205.213-4.11-.708-5.811-.355-.567 0-1.347.708-1.489l.426-.07c.566-.071 1.204.354 1.346.92z"/>
            <path fill="#5046AF" d="M174.118 119.197l-13.748-1.134s-4.89 17.433-6.165 25.228c-.922 5.599 7.582 27.284 7.582 27.284.85.354 1.63-.071 2.552-.284 0 0-2.552-19.134-1.701-23.81.921-4.89 8.22-14.74 8.716-17.292.922-5.386 2.764-9.992 2.764-9.992z"/>
            <path fill="#5046AF" d="M171.283 119.41c-1.417 7.582-4.606 18.992 1.489 29.692a3834.335 3834.335 0 0 0 12.543 21.827c.85 0 1.559-.283 2.268-.78 0 0-1.063-4.818-2.622-10.488-1.772-6.448-4.04-14.102-3.402-18.07 1.205-7.441 2.551-17.363 2.126-22.182-.354-4.89-11.693-4.039-12.402 0z"/>
            <path fill="#D2F0FF" d="M160.44 119.339c-.495-.213-.779-.78-.637-1.276l5.103-31.465 12.401-1.7 6.662 33.236c.141.638-.284 1.205-.922 1.346-2.338.426-7.866 1.347-14.102 1.347-4.677 0-7.3-.921-8.504-1.488z"/>
            <path fill="#B0B0FF" d="M174.472 93.189c1.489 4.11 3.898 12.189 2.552 19.276-1.914 9.992-4.465 14.031-1.205 16.37 3.26 2.338 9.425-1.56 9.638-2.835.212-1.276-1.205-17.22-2.764-24.094-1.56-6.875-5.953-16.796-5.953-16.796l-2.268.213c-.07-.071-.708 5.953 0 7.866zM167.031 86.315s-.992 4.465-.212 11.197c.78 6.661 2.48 27-3.614 30.118-1.914.992-6.307-4.04-6.307-4.96 0-1.63 1.488-6.946 2.834-11.835 1.134-3.898 2.268-16.937 2.622-21.969.071-1.134.992-2.055 2.126-2.197l2.551-.354z"/>
            <path fill="#41378C" d="M176.031 72.638s-.212 1.842.922 3.26c1.134 1.346-.496 2.622-.922 3.543-.354.921.071 2.339-.992 2.976-1.063.638-4.11.78-4.606-.283-.496-1.205 2.126-10.134 5.598-9.496z"/>
            <path fill="#41378C" d="M163.772 75.118c-.142 6.095 5.527 7.3 8.858 7.3 3.33 0 3.472-7.3 3.472-9.993 0-2.622-2.622-3.047-5.882-3.047-2.622 0-5.102 2.055-6.094 3.968-.354.497-.354 1.205-.354 1.772z"/>
            <path fill="#FAB9AF" d="M169.937 71.717c2.764 0 3.827 1.984 3.827 5.598 0 1.346-.567 2.693-1.063 3.614-.355.638-.496 1.417-.284 2.126l.638 2.055c.425 1.914-.496 2.977-1.842 3.33-.638.214-1.489.072-2.056-.353-.708-.426-.779-1.418-.637-2.197l.141-.567c.213-.78-.212-1.63-1.063-1.843-2.126-.496-2.409-2.693-2.976-6.165-.496-3.543 2.551-5.598 5.315-5.598z"/>
            <path fill="#41378C" d="M163.488 70.087l1.56.496a2.54 2.54 0 0 0 1.77 0l3.19-.922c1.913 0 5.102 1.063 4.677 3.827l-.354 1.984a1.73 1.73 0 0 1-1.56 1.418c-.07.283-.354.425-.566.425a.635.635 0 0 1-.638-.638c0-.85-.638-1.63-1.488-1.842-1.063-.213-2.197-.284-3.402 0-2.197.567-4.535-.78-4.748-3.048v-.425c.071-.78.78-1.488 1.56-1.275z"/>
            <path fill="#FAB9AF" d="M172.276 77.386c0 .85.283 1.559 1.133 1.559.78 0 1.347-1.134 1.347-1.984 0-.85-.496-1.063-1.347-1.063-.78 0-1.133.637-1.133 1.488z"/>
            <path fill="#FA968C" d="M165.543 79.937c-.07.425.213.78.638.78.354 0 .638-.284.638-.567v-2.693c0-.071-.071-.213-.142-.284-.07-.07-.142-.142-.283-.142-.142 0-.284.071-.284.213l-.567 2.693z"/>
            <path fill="#AFE6FF" d="M171.213 91.134c.141 0 .283.142.354.283.425 1.347 2.339 7.583 2.764 10.985.354 2.763-.78 7.582-1.418 10.063-.283.992-.85 1.771-1.771 2.338l-.425.284c-.355.212-.85.07-1.063-.284l-.284-.709c-.283-.496-.283-.992-.142-1.559.78-1.984 2.622-7.157 2.41-10.559-.071-1.204-1.205-8.574-1.56-10.417-.07-.213.142-.425.355-.425h.78z"/>
            <path fill="#5159BF" d="M170.787 90.213c.142 0 .284.141.355.283.425 1.347 2.197 7.654 2.55 11.055.284 2.764-.92 7.583-1.629 9.992a3.81 3.81 0 0 1-1.772 2.268l-.425.213c-.354.212-.85.07-1.063-.284l-.354-.638a1.731 1.731 0 0 1-.071-1.559c.78-1.913 2.764-7.086 2.693-10.488 0-1.205-1.063-8.575-1.276-10.488 0-.213.142-.425.355-.425l.637.07z"/>
            <path fill="#5159BF" d="M169.724 90.425h1.205c.213 0 .354-.142.354-.354v-1.205c0-.212-.141-.354-.354-.354l-1.063-.142c-.212 0-.496.284-.496.496v1.205c0 .212.213.354.354.354z"/>
            <path fill="#FFF" d="M172.984 84.827l1.985.354s-.426 3.26-1.985 5.67a.343.343 0 0 1-.496 0l-1.417-1.985c-.142-.212-.213-.567 0-.78l1.913-3.26zM168.661 85.677l-1.984.638s-.07 1.984 1.488 4.323a.343.343 0 0 0 .496 0l1.134-1.843c.142-.212.142-.496.071-.708l-1.205-2.41z"/>
            <g transform="translate(126.85 82.205)">
                <path fill="#6E64C3" fill-rule="nonzero" d="M45.638 28.417v-4.18c0-.993-.78-1.772-1.772-1.772h-1.275c-.85 0-1.56-.496-1.843-1.276-.213-.567-.425-1.205-.709-1.7-.354-.78-.212-1.63.355-2.198l.921-.92c.709-.71.709-1.773 0-2.481l-2.976-2.977c-.71-.708-1.772-.708-2.48 0l-.922.922a1.946 1.946 0 0 1-2.197.354c-.567-.283-1.134-.496-1.7-.709-.78-.283-1.276-.992-1.276-1.842V8.362c0-.992-.78-1.771-1.772-1.771h-4.181c-.992 0-1.772.78-1.772 1.771v1.276c0 .85-.496 1.559-1.275 1.842-.567.213-1.205.426-1.701.709-.78.354-1.63.213-2.197-.354l-.921-.922c-.709-.708-1.772-.708-2.48 0l-2.977 2.977c-.708.708-.708 1.771 0 2.48l.921.921c.567.567.71 1.489.355 2.197-.284.567-.496 1.134-.709 1.701-.283.78-.992 1.276-1.842 1.276H7.795c-.992 0-1.771.78-1.771 1.771v4.181c0 .992.78 1.772 1.771 1.772h1.276c.85 0 1.559.496 1.842 1.276.213.566.426 1.204.709 1.7.354.78.213 1.63-.354 2.197l-.922.921c-.708.71-.708 1.772 0 2.48l2.977 2.977c.708.709 1.771.709 2.48 0l.921-.921a1.946 1.946 0 0 1 2.197-.354c.567.283 1.134.496 1.701.708.78.284 1.276.992 1.276 1.843v1.275c0 .992.78 1.772 1.771 1.772h4.181c.993 0 1.772-.78 1.772-1.772v-1.275c0-.85.496-1.56 1.276-1.843.567-.212 1.204-.425 1.7-.708.78-.355 1.63-.213 2.197.354l.922.921c.708.709 1.771.709 2.48 0l2.976-2.976c.709-.709.709-1.772 0-2.48l-.921-.922a1.946 1.946 0 0 1-.354-2.197c.283-.567.496-1.134.708-1.7.284-.78.992-1.276 1.843-1.276h1.275c1.134 0 1.914-.78 1.914-1.772zm-19.063 7.441c-5.882.496-10.772-4.393-10.276-10.275.355-4.607 4.11-8.363 8.717-8.717 5.882-.496 10.771 4.394 10.275 10.276-.283 4.606-4.039 8.362-8.716 8.716z"/>
                <path fill="#827DDC" fill-rule="nonzero" d="M51.52 29.055v-5.457a2.239 2.239 0 0 0-2.268-2.267h-1.7a2.607 2.607 0 0 1-2.41-1.701 30.428 30.428 0 0 0-.922-2.268c-.496-.992-.283-2.126.497-2.905l1.204-1.205c.922-.921.922-2.339 0-3.189l-3.827-3.827c-.92-.921-2.338-.921-3.188 0L37.7 7.441c-.78.78-1.914.992-2.906.496-.708-.354-1.488-.638-2.267-.921a2.537 2.537 0 0 1-1.701-2.41v-1.7A2.239 2.239 0 0 0 28.559.638h-5.457a2.239 2.239 0 0 0-2.267 2.268v1.7a2.607 2.607 0 0 1-1.701 2.41c-.78.283-1.488.567-2.268.921-.992.496-2.126.283-2.905-.496l-1.205-1.205c-.921-.921-2.339-.921-3.19 0L5.74 10.063c-.921.921-.921 2.339 0 3.189l1.205 1.205c.78.78.992 1.913.496 2.905-.354.709-.638 1.488-.921 2.268a2.537 2.537 0 0 1-2.41 1.7h-1.7a2.239 2.239 0 0 0-2.268 2.268v5.457c0 1.276.992 2.268 2.267 2.268H4.11c1.063 0 2.055.708 2.41 1.7.283.78.567 1.489.92 2.268.497.992.284 2.126-.495 2.906L5.74 39.402c-.921.92-.921 2.338 0 3.189l3.827 3.826c.921.922 2.339.922 3.189 0l1.205-1.204c.78-.78 1.913-.993 2.905-.496.709.354 1.488.637 2.268.92a2.537 2.537 0 0 1 1.7 2.41v1.701c0 1.276.993 2.268 2.268 2.268h5.457a2.239 2.239 0 0 0 2.268-2.268v-1.7c0-1.064.708-2.056 1.7-2.41.78-.284 1.489-.567 2.268-.921.992-.497 2.126-.284 2.906.496l1.205 1.204c.92.922 2.338.922 3.188 0l3.827-3.826c.922-.922.922-2.339 0-3.19l-1.204-1.204c-.78-.78-.993-1.914-.497-2.906.355-.708.638-1.488.922-2.267a2.537 2.537 0 0 1 2.41-1.701h1.7c1.205 0 2.268-.992 2.268-2.268zm-24.662 9.638c-7.582.567-13.96-5.74-13.323-13.323.496-6.024 5.315-10.842 11.339-11.339 7.583-.566 13.96 5.74 13.323 13.323-.496 6.024-5.386 10.843-11.339 11.339z"/>
                <circle cx="25.812" cy="26.401" r="16.512" stroke="#41378C" stroke-width="2.961" transform="rotate(-48.409 25.812 26.4)"/>
                <path stroke="#5046AF" stroke-linecap="round" stroke-width="2.962" d="M9.354 26.362c0-9.07 7.37-16.512 16.512-16.512"/>
            </g>
            <path fill="#FAB9AF" d="M153 92.126c.425-.354.567-1.063.142-1.56l-.425-.566c-.497-.638-.85-1.417-.85-2.268 0-.567-.355-2.197-.922-2.055-.496.071 0 2.055-.496 1.984-.213 0-1.063-1.417-1.701-2.267-.354-.425-.992-.709-1.063-.284-.07.284-.354.284-.638.496-.283.213-.141 1.63-.141 2.055 0 .496-.142.638.566 1.418.567.638 2.977 2.197 2.977 2.197l1.063.708c.425.496 1.063.496 1.488.142z"/>
            <path fill="#B0B0FF" d="M152.646 89.93s9.992 9.637 12.33 10.416c2.339.78 9.071-13.11 10.276-14.527 1.984-2.41 6.307.07 5.528 4.464-.922 5.528-14.174 16.3-15.804 16.441-1.63.142-14.102-14.669-14.102-14.669.213-.709.78-1.417 1.772-2.126z"/>
        </g>
        <path fill="#FFF" d="M92.906 29.268l.496 1.559c.07.142.212.283.354.354l1.559.496c.425.142.496.638.142.921l-1.347.993c-.141.07-.212.283-.212.425v1.63c0 .425-.496.637-.78.425l-1.346-.992c-.142-.071-.284-.142-.496-.071l-1.56.567c-.425.142-.779-.213-.637-.638l.496-1.559c.07-.142 0-.354-.071-.496l-.992-1.276c-.284-.354 0-.85.425-.85h1.63c.142 0 .354-.071.425-.213l.921-1.346c.355-.425.922-.284.993.07z"/>
        <path fill="#FFF" fill-rule="nonzero" d="M91.984 27.142c.284 0 .567 0 .78.07 2.976.426 5.031 3.19 4.535 6.166-.425 2.622-2.693 4.606-5.386 4.606-.283 0-.567 0-.78-.07a5.465 5.465 0 0 1-3.542-2.127c-.85-1.133-1.205-2.622-.993-4.039.426-2.622 2.693-4.606 5.386-4.606zm0-.496c-2.905 0-5.456 2.126-5.882 5.031-.496 3.26 1.772 6.236 4.961 6.732.283.071.567.071.921.071 2.906 0 5.457-2.126 5.882-5.031.496-3.26-1.772-6.236-4.96-6.732-.355-.071-.638-.071-.922-.071z"/>
        <path fill="#D2F0FF" d="M196.795 180H10.417a1.12 1.12 0 0 1-1.134-1.134 1.12 1.12 0 0 1 1.134-1.134h186.378a1.12 1.12 0 0 1 1.134 1.134c.071.638-.496 1.134-1.134 1.134z"/>
    </g>
</svg>
