<svg xmlns="http://www.w3.org/2000/svg" width="71" height="184" viewBox="0 0 71 184">
    <g fill="#FA8F5A" fill-rule="evenodd" transform="translate(-129 -7)">
        <ellipse cx="142.371" cy="18.223" rx="2.781" ry="2.783" transform="rotate(-22.5 142.37 18.223)"/>
        <ellipse cx="142.367" cy="35.323" rx="2.781" ry="2.783" transform="rotate(-22.5 142.367 35.323)"/>
        <ellipse cx="161.167" cy="35.325" rx="2.781" ry="2.784"/>
        <ellipse cx="142.364" cy="52.423" rx="2.781" ry="2.783" transform="rotate(-22.5 142.364 52.423)"/>
        <ellipse cx="161.167" cy="52.424" rx="2.781" ry="2.784"/>
        <path d="M179.905 55.207a2.8 2.8 0 0 0 2.781-2.783 2.8 2.8 0 0 0-2.78-2.784 2.8 2.8 0 0 0-2.782 2.784 2.8 2.8 0 0 0 2.781 2.783z"/>
        <ellipse cx="142.361" cy="69.523" rx="2.781" ry="2.783" transform="rotate(-22.5 142.36 69.523)"/>
        <ellipse cx="161.167" cy="69.523" rx="2.781" ry="2.784"/>
        <path d="M179.905 72.306a2.8 2.8 0 0 0 2.781-2.783 2.8 2.8 0 0 0-2.78-2.784 2.8 2.8 0 0 0-2.782 2.784 2.8 2.8 0 0 0 2.781 2.783zM142.362 89.405a2.8 2.8 0 0 0 2.78-2.783 2.8 2.8 0 0 0-2.78-2.784 2.8 2.8 0 0 0-2.781 2.784 2.757 2.757 0 0 0 2.78 2.783zM161.167 89.405a2.8 2.8 0 0 0 2.78-2.783 2.8 2.8 0 0 0-2.78-2.784 2.8 2.8 0 0 0-2.781 2.784c0 1.59 1.191 2.783 2.78 2.783zM179.905 89.405a2.8 2.8 0 0 0 2.781-2.783 2.8 2.8 0 0 0-2.78-2.784 2.8 2.8 0 0 0-2.782 2.784 2.757 2.757 0 0 0 2.781 2.783zM195.93 86.622a2.8 2.8 0 0 0 2.78 2.783h.133c-.199-1.855-.398-3.645-.729-5.5a2.772 2.772 0 0 0-2.185 2.717z"/>
        <ellipse cx="142.38" cy="103.785" rx="2.781" ry="2.783" transform="rotate(-22.5 142.38 103.785)"/>
        <ellipse cx="161.167" cy="103.787" rx="2.781" ry="2.784"/>
        <path d="M179.905 106.504a2.8 2.8 0 0 0 2.781-2.783 2.8 2.8 0 0 0-2.78-2.784 2.8 2.8 0 0 0-2.782 2.784 2.757 2.757 0 0 0 2.781 2.783zM195.93 103.787a2.8 2.8 0 0 0 2.78 2.784c.133 0 .265 0 .398-.067.132-1.789.198-3.578.198-5.434-.198-.066-.397-.066-.662-.066-1.523 0-2.715 1.193-2.715 2.783z"/>
        <ellipse cx="142.377" cy="120.885" rx="2.781" ry="2.783" transform="rotate(-22.5 142.377 120.885)"/>
        <ellipse cx="161.167" cy="120.886" rx="2.781" ry="2.784"/>
        <path d="M179.905 123.67a2.8 2.8 0 0 0 2.781-2.784 2.8 2.8 0 0 0-2.78-2.783 2.8 2.8 0 0 0-2.782 2.783 2.8 2.8 0 0 0 2.781 2.784zM195.93 120.886c0 .73.264 1.392.728 1.856.33-1.458.662-2.916.927-4.374-.994.397-1.656 1.325-1.656 2.518zM142.362 140.769a2.8 2.8 0 0 0 2.78-2.784 2.8 2.8 0 0 0-2.78-2.783 2.8 2.8 0 0 0-2.781 2.783 2.8 2.8 0 0 0 2.78 2.784zM161.167 140.769a2.8 2.8 0 0 0 2.78-2.784 2.8 2.8 0 0 0-2.78-2.783 2.8 2.8 0 0 0-2.781 2.783c0 1.524 1.191 2.784 2.78 2.784zM179.905 140.769a2.8 2.8 0 0 0 2.781-2.784 2.8 2.8 0 0 0-2.78-2.783 2.8 2.8 0 0 0-2.782 2.783 2.8 2.8 0 0 0 2.781 2.784zM142.362 157.868a2.8 2.8 0 0 0 2.78-2.784 2.8 2.8 0 0 0-2.78-2.783 2.8 2.8 0 0 0-2.781 2.783 2.8 2.8 0 0 0 2.78 2.784zM161.167 157.868a2.8 2.8 0 0 0 2.78-2.784 2.8 2.8 0 0 0-2.78-2.783 2.8 2.8 0 0 0-2.781 2.783c0 1.525 1.191 2.784 2.78 2.784zM179.905 152.3a2.8 2.8 0 0 0-2.78 2.784 2.8 2.8 0 0 0 2.78 2.784c.265 0 .464-.067.662-.067a80.111 80.111 0 0 0 2.053-2.982c-.132-1.392-1.258-2.518-2.715-2.518z"/>
        <ellipse cx="142.367" cy="172.185" rx="2.781" ry="2.783" transform="rotate(-22.5 142.367 172.185)"/>
        <ellipse cx="161.167" cy="172.183" rx="2.781" ry="2.784"/>
        <path d="M142.362 186.499a2.8 2.8 0 0 0-2.781 2.783c0 .53.132.994.397 1.392a84.705 84.705 0 0 0 4.966-2.386c-.397-.994-1.39-1.79-2.582-1.79z"/>
        <ellipse cx="132.494" cy="9.88" rx="2.781" ry="2.783" transform="rotate(-22.328 132.494 9.88)"/>
        <ellipse cx="132.491" cy="26.979" rx="2.781" ry="2.783" transform="rotate(-22.328 132.49 26.979)"/>
        <ellipse cx="151.301" cy="26.974" rx="2.781" ry="2.784"/>
        <ellipse cx="132.487" cy="44.078" rx="2.781" ry="2.783" transform="rotate(-22.328 132.487 44.078)"/>
        <ellipse cx="151.301" cy="44.073" rx="2.781" ry="2.784"/>
        <ellipse cx="170.039" cy="44.073" rx="2.781" ry="2.784"/>
        <path d="M132.496 63.956a2.8 2.8 0 0 0 2.78-2.784 2.8 2.8 0 0 0-2.78-2.783 2.8 2.8 0 0 0-2.781 2.783 2.8 2.8 0 0 0 2.78 2.784zM151.3 63.956a2.8 2.8 0 0 0 2.782-2.784 2.8 2.8 0 0 0-2.781-2.783 2.8 2.8 0 0 0-2.781 2.783 2.8 2.8 0 0 0 2.78 2.784zM170.04 63.956a2.8 2.8 0 0 0 2.78-2.784 2.8 2.8 0 0 0-2.78-2.783 2.8 2.8 0 0 0-2.782 2.783 2.8 2.8 0 0 0 2.781 2.784zM188.844 58.389a2.8 2.8 0 0 0-2.78 2.783 2.8 2.8 0 0 0 2.78 2.784 2.8 2.8 0 0 0 2.781-2.784v-.265c-.198-.53-.463-1.06-.728-1.657-.53-.464-1.258-.861-2.053-.861z"/>
        <ellipse cx="132.481" cy="78.277" rx="2.781" ry="2.783" transform="rotate(-22.328 132.48 78.277)"/>
        <ellipse cx="151.301" cy="78.271" rx="2.781" ry="2.784"/>
        <ellipse cx="170.039" cy="78.271" rx="2.781" ry="2.784"/>
        <ellipse cx="188.844" cy="78.271" rx="2.781" ry="2.784"/>
        <ellipse cx="132.502" cy="95.437" rx="2.781" ry="2.783" transform="rotate(-22.328 132.502 95.437)"/>
        <ellipse cx="151.301" cy="95.436" rx="2.781" ry="2.784"/>
        <ellipse cx="170.039" cy="95.436" rx="2.781" ry="2.784"/>
        <ellipse cx="188.844" cy="95.436" rx="2.781" ry="2.784"/>
        <ellipse cx="132.499" cy="112.536" rx="2.781" ry="2.783" transform="rotate(-22.328 132.499 112.536)"/>
        <ellipse cx="151.301" cy="112.535" rx="2.781" ry="2.784"/>
        <ellipse cx="170.039" cy="112.535" rx="2.781" ry="2.784"/>
        <ellipse cx="188.844" cy="112.535" rx="2.781" ry="2.784"/>
        <path d="M132.496 132.418a2.8 2.8 0 0 0 2.78-2.784 2.8 2.8 0 0 0-2.78-2.783 2.8 2.8 0 0 0-2.781 2.783 2.8 2.8 0 0 0 2.78 2.784zM151.3 132.418a2.8 2.8 0 0 0 2.782-2.784 2.8 2.8 0 0 0-2.781-2.783 2.8 2.8 0 0 0-2.781 2.783 2.8 2.8 0 0 0 2.78 2.784zM170.04 132.418a2.8 2.8 0 0 0 2.78-2.784 2.8 2.8 0 0 0-2.78-2.783 2.8 2.8 0 0 0-2.782 2.783 2.8 2.8 0 0 0 2.781 2.784zM188.844 132.418a2.8 2.8 0 0 0 2.781-2.784 2.8 2.8 0 0 0-2.78-2.783 2.8 2.8 0 0 0-2.782 2.783 2.8 2.8 0 0 0 2.781 2.784z"/>
        <ellipse cx="132.492" cy="146.735" rx="2.781" ry="2.783" transform="rotate(-22.328 132.492 146.735)"/>
        <ellipse cx="151.301" cy="146.734" rx="2.781" ry="2.784"/>
        <ellipse cx="170.039" cy="146.734" rx="2.781" ry="2.784"/>
        <path d="M186.063 146.734c0 .596.199 1.192.53 1.656.795-1.458 1.59-2.916 2.318-4.374h-.067c-1.523-.066-2.78 1.193-2.78 2.718z"/>
        <ellipse cx="132.489" cy="163.834" rx="2.781" ry="2.783" transform="rotate(-22.328 132.489 163.834)"/>
        <ellipse cx="151.301" cy="163.833" rx="2.781" ry="2.784"/>
        <ellipse cx="170.039" cy="163.833" rx="2.781" ry="2.784"/>
        <path d="M132.496 183.715a2.8 2.8 0 0 0 2.78-2.783 2.8 2.8 0 0 0-2.78-2.784 2.8 2.8 0 0 0-2.781 2.784 2.8 2.8 0 0 0 2.78 2.783zM151.3 183.715a2.8 2.8 0 0 0 2.782-2.783 2.8 2.8 0 0 0-2.781-2.784 2.8 2.8 0 0 0-2.781 2.784 2.8 2.8 0 0 0 2.78 2.783z"/>
    </g>
</svg>
