<svg xmlns="http://www.w3.org/2000/svg" width="100" height="100" viewBox="0 0 100 100">
    <g fill="#FFF" fill-rule="nonzero">
        <path d="M43.085 86.358V60.782c0-.882-.714-1.596-1.596-1.596H30.851a1.596 1.596 0 1 0 0 3.192h9.043v23.98c-3.046.723-5.32 3.463-5.32 6.727A6.923 6.923 0 0 0 41.49 100a6.923 6.923 0 0 0 6.915-6.915c0-3.264-2.273-6.004-5.319-6.727zm-1.596 10.45a3.728 3.728 0 0 1-3.723-3.723 3.728 3.728 0 0 1 3.723-3.723 3.728 3.728 0 0 1 3.724 3.723 3.728 3.728 0 0 1-3.724 3.724zM60.106 86.358V60.782c0-.882-.714-1.596-1.595-1.596H47.873a1.596 1.596 0 1 0 0 3.192h9.042v23.98c-3.046.723-5.32 3.463-5.32 6.727A6.923 6.923 0 0 0 58.512 100a6.923 6.923 0 0 0 6.915-6.915c0-3.264-2.274-6.004-5.32-6.727zm-1.595 10.45a3.728 3.728 0 0 1-3.724-3.723 3.728 3.728 0 0 1 3.724-3.723 3.728 3.728 0 0 1 3.723 3.723 3.728 3.728 0 0 1-3.723 3.724zM87.234 75.532c-3.264 0-6.004 2.273-6.727 5.32h-3.38v-20.07c0-.882-.714-1.596-1.595-1.596H64.894a1.596 1.596 0 1 0 0 3.192h9.042v20.069c0 .881.714 1.596 1.596 1.596h4.975c.723 3.045 3.463 5.319 6.727 5.319a6.923 6.923 0 0 0 6.915-6.915 6.923 6.923 0 0 0-6.915-6.915zm0 10.638a3.728 3.728 0 0 1-3.723-3.723 3.728 3.728 0 0 1 3.723-3.724 3.728 3.728 0 0 1 3.723 3.724 3.728 3.728 0 0 1-3.723 3.723z"/>
        <path d="M96.2 34.374a17.321 17.321 0 0 0-8.322-5.658c-.366-7.554-3.5-14.602-8.902-19.959C73.281 3.11 65.728 0 57.708 0a30.238 30.238 0 0 0-25.76 14.423 13.704 13.704 0 0 0-4.134-.633c-6.518 0-12.124 4.602-13.476 10.874C5.967 26.836 0 34.466 0 43.213 0 53.78 8.597 62.378 19.164 62.378h3.708V80.85h-3.379c-.723-3.046-3.463-5.32-6.727-5.32a6.923 6.923 0 0 0-6.915 6.916 6.923 6.923 0 0 0 6.915 6.915c3.264 0 6.004-2.274 6.727-5.32h4.975c.882 0 1.596-.714 1.596-1.595V60.782c0-.882-.714-1.596-1.596-1.596h-5.304c-8.807 0-15.973-7.165-15.973-15.973 0-7.6 5.404-14.189 12.848-15.665a1.595 1.595 0 0 0 1.272-1.358c.687-5.25 5.202-9.208 10.503-9.208 1.458 0 2.873.292 4.203.868a1.596 1.596 0 0 0 2.03-.692A27.047 27.047 0 0 1 57.708 3.19C72.47 3.191 84.59 15.2 84.723 29.96a1.596 1.596 0 0 0 1.236 1.54c6.389 1.479 10.85 7.096 10.85 13.66 0 7.734-6.291 14.026-14.025 14.026h-.868a1.596 1.596 0 1 0 0 3.192h.868c9.493 0 17.217-7.724 17.217-17.218a17.25 17.25 0 0 0-3.8-10.786zM12.766 86.17a3.728 3.728 0 0 1-3.723-3.723 3.728 3.728 0 0 1 3.723-3.724 3.728 3.728 0 0 1 3.723 3.724 3.728 3.728 0 0 1-3.723 3.723z"/>
        <path d="M77.807 31.618h.014a1.596 1.596 0 0 0 1.582-1.61c-.024-2.629-.52-5.2-1.475-7.645a1.596 1.596 0 0 0-2.973 1.161 18.288 18.288 0 0 1 1.256 6.513 1.596 1.596 0 0 0 1.596 1.581zM71.974 18.459a1.592 1.592 0 0 0 2.246.214c.68-.562.776-1.567.214-2.247-4.155-5.03-10.252-7.915-16.726-7.915a1.596 1.596 0 1 0 0 3.191c5.519 0 10.719 2.463 14.266 6.757z"/>
    </g>
</svg>
