<svg xmlns="http://www.w3.org/2000/svg" width="91" height="100" viewBox="0 0 91 100">
    <g fill="#FFF" fill-rule="nonzero">
        <path d="M86.462 39.42h-.797A40.867 40.867 0 0 0 60.41 7.29h18.327a5.836 5.836 0 0 0 5.638 4.36A5.832 5.832 0 0 0 90.2 5.825 5.832 5.832 0 0 0 84.375 0a5.836 5.836 0 0 0-5.638 4.36H51.05v-.602A3.763 3.763 0 0 0 47.293 0H43.16A3.763 3.763 0 0 0 39.4 3.758v.601H11.478A5.836 5.836 0 0 0 5.84 0 5.832 5.832 0 0 0 .015 5.825a5.832 5.832 0 0 0 5.825 5.826 5.835 5.835 0 0 0 5.638-4.36h18.565A40.867 40.867 0 0 0 4.787 39.42H3.773a3.763 3.763 0 0 0-3.758 3.759v4.133a3.763 3.763 0 0 0 3.758 3.758h4.134a3.763 3.763 0 0 0 3.758-3.758v-4.133a3.763 3.763 0 0 0-3.758-3.759h-.159c2.497-16.2 15.456-29.17 31.653-31.68v.153a3.763 3.763 0 0 0 3.758 3.758h4.134a3.763 3.763 0 0 0 3.758-3.758v-.153c16.197 2.51 29.156 15.48 31.653 31.68h-.375a3.763 3.763 0 0 0-3.76 3.759v4.133a3.763 3.763 0 0 0 3.76 3.758h4.133a3.763 3.763 0 0 0 3.758-3.758v-4.133a3.762 3.762 0 0 0-3.758-3.759zM81.49 5.65a2.895 2.895 0 0 1 2.885-2.718 2.897 2.897 0 0 1 2.894 2.893 2.897 2.897 0 0 1-2.894 2.894 2.895 2.895 0 0 1-2.885-2.718 1.487 1.487 0 0 0 0-.351zM5.84 8.719a2.897 2.897 0 0 1-2.894-2.894A2.897 2.897 0 0 1 5.84 2.932a2.897 2.897 0 0 1 2.893 2.893A2.897 2.897 0 0 1 5.84 8.72zM7.906 42.35c.457 0 .827.37.827.827v4.133c0 .456-.37.827-.826.827H3.773a.828.828 0 0 1-.827-.827v-4.133c0-.456.371-.827.827-.827h4.133zM48.12 7.892c0 .456-.371.827-.827.827h-4.134a.828.828 0 0 1-.827-.827V3.759c0-.456.371-.827.827-.827h4.134c.456 0 .827.37.827.827v4.133zm39.169 39.42c0 .455-.371.826-.827.826h-4.133a.828.828 0 0 1-.827-.827v-4.133c0-.456.37-.827.827-.827h4.133c.456 0 .827.37.827.827v4.133z"/>
        <path d="M59.651 71.46l10.977-11.132a1.465 1.465 0 1 0-2.088-2.058L57.564 69.4a5.195 5.195 0 0 0-1.505 3.67v5.037h-21.47V73.07a5.196 5.196 0 0 0-1.506-3.67L21.627 57.784a2.468 2.468 0 0 1-.281-3.116L43.858 21.63v32.38h-.559a5.126 5.126 0 0 0-5.12 5.12 5.126 5.126 0 0 0 5.12 5.121h4.049a5.126 5.126 0 0 0 5.12-5.12 5.126 5.126 0 0 0-5.12-5.12h-.559v-32.38l21.57 31.652a1.466 1.466 0 0 0 2.422-1.651L47.678 17.73c-1.13-1.659-3.583-1.652-4.71 0L18.924 53.017a5.406 5.406 0 0 0 .617 6.825L30.996 71.46a2.28 2.28 0 0 1 .66 1.611v5.08a3.814 3.814 0 0 0-3.265 3.768v5.68a3.816 3.816 0 0 0 3.811 3.81h1.732v4.997A3.598 3.598 0 0 0 37.528 100h4.17a1.466 1.466 0 1 0 0-2.932h-4.17a.663.663 0 0 1-.662-.663v-4.997H53.78v4.997a.664.664 0 0 1-.662.663h-4.581a1.466 1.466 0 1 0 0 2.932h4.58a3.598 3.598 0 0 0 3.595-3.595v-4.997h1.732a3.816 3.816 0 0 0 3.811-3.81v-5.68a3.814 3.814 0 0 0-3.265-3.767v-5.08c0-.608.234-1.18.66-1.612zM47.348 56.943a2.19 2.19 0 0 1 2.188 2.188 2.191 2.191 0 0 1-2.188 2.189h-4.049a2.191 2.191 0 0 1-2.188-2.189c0-1.207.982-2.188 2.188-2.188h4.049zm11.976 24.974v5.68c0 .476-.402.879-.88.879H32.203a.891.891 0 0 1-.88-.88v-5.679c0-.476.403-.88.88-.88h26.243c.477 0 .88.403.88.88z"/>
    </g>
</svg>
