<?xml version="1.0" encoding="UTF-8"?>
<svg width="297px" height="256px" viewBox="0 0 297 256" version="1.1" xmlns="http://www.w3.org/2000/svg" xmlns:xlink="http://www.w3.org/1999/xlink">
    <!-- Generator: Sketch 52.4 (67378) - http://www.bohemiancoding.com/sketch -->
    <title>transportation-logistics@1x</title>
    <desc>Created with Sketch.</desc>
    <g id="Page-1" stroke="none" stroke-width="1" fill="none" fill-rule="evenodd">
        <g id="transportation-logistics" transform="translate(-2.000000, 0.000000)">
            <path d="M209.857895,118.267464 L268.082297,118.267464 L268.082297,231.496651 L209.857895,231.496651 L209.857895,118.267464 Z M180.81244,75.3602871 L180.81244,64.0435407 L153.249761,64.0435407 L153.249761,75.3602871 L142.939234,75.3602871 L142.939234,202.195694 L191.055502,202.195694 L191.055502,75.3588517 L180.81244,75.3602871 Z M27.7708134,122.712919 L89.7014354,122.712919 L89.7014354,231.496651 L27.7708134,231.496651 L27.7708134,122.712919 Z" id="Shape" fill="#9DCFF9" fill-rule="nonzero" opacity="0.25"></path>
            <polygon id="Path" fill="#9DCFF9" opacity="0.25" points="207.835407 75.3602871 197.592344 75.3602871 197.592344 202.195694 245.708612 202.195694 245.708612 49.2244019"></polygon>
            <polygon id="Path" fill="#9DCFF9" opacity="0.5" points="136.066507 64.9866029 136.066507 41.0755981 124.946411 41.0755981 124.946411 19.3191388 97.9909091 19.3191388 97.9909091 41.0755981 86.8722488 41.0755981 86.8722488 64.9866029 71.6411483 64.9866029 71.6411483 231.496651 151.362201 231.496651 151.362201 64.9866029"></polygon>
            <g id="Group" opacity="0.5" transform="translate(78.172249, 58.076555)" fill="#84C3F7" fill-rule="nonzero">
                <path d="M1.28755981,32.7760766 L9.77799043,32.7760766 L9.77799043,38.9052632 L1.28755981,38.9052632 L1.28755981,32.7760766 Z M15.8425837,32.7760766 L24.3330144,32.7760766 L24.3330144,38.9052632 L15.8425837,38.9052632 L15.8425837,32.7760766 Z M30.1291866,32.7760766 L38.6196172,32.7760766 L38.6196172,38.9052632 L30.1291866,38.9052632 L30.1291866,32.7760766 Z M44.6181818,32.7760766 L53.1086124,32.7760766 L53.1086124,38.9052632 L44.6181818,38.9052632 L44.6181818,32.7760766 Z M58.9047847,32.7760766 L67.3952153,32.7760766 L67.3952153,38.9052632 L58.9047847,38.9052632 L58.9047847,32.7760766 Z M1.28755981,41.061244 L9.77799043,41.061244 L9.77799043,47.1904306 L1.28755981,47.1904306 L1.28755981,41.061244 Z M15.8425837,41.061244 L24.3330144,41.061244 L24.3330144,47.1904306 L15.8425837,47.1904306 L15.8425837,41.061244 Z M30.1291866,41.061244 L38.6196172,41.061244 L38.6196172,47.1904306 L30.1291866,47.1904306 L30.1291866,41.061244 Z M44.6181818,41.061244 L53.1086124,41.061244 L53.1086124,47.1904306 L44.6181818,47.1904306 L44.6181818,41.061244 Z M58.9047847,41.061244 L67.3952153,41.061244 L67.3952153,47.1904306 L58.9047847,47.1904306 L58.9047847,41.061244 Z" id="Shape"></path>
                <g transform="translate(0.000000, 48.803828)" id="Shape">
                    <path d="M1.28755981,0.8784689 L9.77799043,0.8784689 L9.77799043,7.0076555 L1.28755981,7.0076555 L1.28755981,0.8784689 Z M15.8425837,0.8784689 L24.3330144,0.8784689 L24.3330144,7.0076555 L15.8425837,7.0076555 L15.8425837,0.8784689 Z M30.1291866,0.8784689 L38.6196172,0.8784689 L38.6196172,7.0076555 L30.1291866,7.0076555 L30.1291866,0.8784689 Z M44.6181818,0.8784689 L53.1086124,0.8784689 L53.1086124,7.0076555 L44.6181818,7.0076555 L44.6181818,0.8784689 Z M58.9047847,0.8784689 L67.3952153,0.8784689 L67.3952153,7.0076555 L58.9047847,7.0076555 L58.9047847,0.8784689 Z"></path>
                </g>
                <g transform="translate(0.000000, 35.885167)" id="Shape">
                    <path d="M58.0291866,1.40382775 L68.2722488,1.40382775 L68.2722488,3.02009569 L58.0291866,3.02009569 L58.0291866,1.40382775 Z M58.0291866,9.82248804 L68.2722488,9.82248804 L68.2722488,11.3038278 L58.0291866,11.3038278 L58.0291866,9.82248804 Z M58.0291866,18.3100478 L68.2722488,18.3100478 L68.2722488,19.9263158 L58.0291866,19.9263158 L58.0291866,18.3100478 Z M43.7425837,1.40382775 L53.9856459,1.40382775 L53.9856459,3.02009569 L43.7425837,3.02009569 L43.7425837,1.40382775 Z M43.7425837,9.82248804 L53.9856459,9.82248804 L53.9856459,11.3038278 L43.7425837,11.3038278 L43.7425837,9.82248804 Z M43.7425837,18.3100478 L53.9856459,18.3100478 L53.9856459,19.9263158 L43.7425837,19.9263158 L43.7425837,18.3100478 Z"></path>
                    <path d="M29.2535885,1.40382775 L39.4966507,1.40382775 L39.4966507,3.02009569 L29.2535885,3.02009569 L29.2535885,1.40382775 Z M29.2535885,9.82248804 L39.4966507,9.82248804 L39.4966507,11.3038278 L29.2535885,11.3038278 L29.2535885,9.82248804 Z M29.2535885,18.3100478 L39.4966507,18.3100478 L39.4966507,19.9263158 L29.2535885,19.9263158 L29.2535885,18.3100478 Z"></path>
                    <path d="M14.8995215,1.40382775 L25.1425837,1.40382775 L25.1425837,3.02009569 L14.8995215,3.02009569 L14.8995215,1.40382775 Z M14.8995215,9.82248804 L25.1425837,9.82248804 L25.1425837,11.3038278 L14.8995215,11.3038278 L14.8995215,9.82248804 Z M14.8995215,18.3100478 L25.1425837,18.3100478 L25.1425837,19.9263158 L14.8995215,19.9263158 L14.8995215,18.3100478 Z"></path>
                    <path d="M0.410526316,1.40382775 L10.6535885,1.40382775 L10.6535885,3.02009569 L0.410526316,3.02009569 L0.410526316,1.40382775 Z M0.410526316,9.82248804 L10.6535885,9.82248804 L10.6535885,11.3038278 L0.410526316,11.3038278 L0.410526316,9.82248804 Z M0.410526316,18.3100478 L10.6535885,18.3100478 L10.6535885,19.9263158 L0.410526316,19.9263158 L0.410526316,18.3100478 Z"></path>
                </g>
                <g transform="translate(15.789474, 0.000000)" id="Shape">
                    <path d="M0.861244019,0.511004785 L8.61244019,0.511004785 L8.61244019,6.16937799 L0.861244019,6.16937799 L0.861244019,0.511004785 Z M14.1373206,0.511004785 L21.8870813,0.511004785 L21.8870813,6.16937799 L14.1358852,6.16937799 L14.1373206,0.511004785 Z M27.2784689,0.511004785 L35.0282297,0.511004785 L35.0282297,6.16937799 L27.2770335,6.16937799 L27.2784689,0.511004785 Z"></path>
                    <path d="M0.861244019,8.12440191 L8.61244019,8.12440191 L8.61244019,13.7799043 L0.861244019,13.7799043 L0.861244019,8.12440191 Z M14.1373206,8.12440191 L21.8870813,8.12440191 L21.8870813,13.7799043 L14.1358852,13.7799043 L14.1373206,8.12440191 Z M27.2784689,8.12440191 L35.0282297,8.12440191 L35.0282297,13.7799043 L27.2770335,13.7799043 L27.2784689,8.12440191 Z"></path>
                    <path d="M0.861244019,16.0708134 L8.61244019,16.0708134 L8.61244019,21.7291866 L0.861244019,21.7291866 L0.861244019,16.0708134 Z M14.1373206,16.0708134 L21.8870813,16.0708134 L21.8870813,21.7291866 L14.1358852,21.7291866 L14.1373206,16.0708134 Z M27.2784689,16.0708134 L35.0282297,16.0708134 L35.0282297,21.7291866 L27.2770335,21.7291866 L27.2784689,16.0708134 Z"></path>
                </g>
                <g transform="translate(15.789474, 4.306220)" id="Shape">
                    <path d="M26.4703349,0.381818182 L35.837799,0.381818182 L35.837799,1.86315789 L26.4703349,1.86315789 L26.4703349,0.381818182 Z M26.4703349,8.12727273 L35.837799,8.12727273 L35.837799,9.56267943 L26.4703349,9.56267943 L26.4703349,8.12727273 Z M26.4703349,15.9416268 L35.837799,15.9416268 L35.837799,17.4229665 L26.4703349,17.4229665 L26.4703349,15.9416268 Z"></path>
                    <path d="M13.3291866,0.381818182 L22.6966507,0.381818182 L22.6966507,1.86315789 L13.3291866,1.86315789 L13.3291866,0.381818182 Z M13.3291866,8.12727273 L22.6966507,8.12727273 L22.6966507,9.56267943 L13.3291866,9.56267943 L13.3291866,8.12727273 Z M13.3291866,15.9416268 L22.6966507,15.9416268 L22.6966507,17.4229665 L13.3291866,17.4229665 L13.3291866,15.9416268 Z"></path>
                    <path d="M0.0531100478,0.381818182 L9.42057416,0.381818182 L9.42057416,1.86315789 L0.0531100478,1.86315789 L0.0531100478,0.381818182 Z M0.0531100478,8.12727273 L9.42057416,8.12727273 L9.42057416,9.56267943 L0.0531100478,9.56267943 L0.0531100478,8.12727273 Z M0.0531100478,15.9416268 L9.42057416,15.9416268 L9.42057416,17.4229665 L0.0531100478,17.4229665 L0.0531100478,15.9416268 Z"></path>
                </g>
                <g transform="translate(0.000000, 60.287081)" id="Shape">
                    <path d="M1.28755981,0.172248804 L9.77799043,0.172248804 L9.77799043,6.30143541 L1.28755981,6.30143541 L1.28755981,0.172248804 Z M15.8425837,0.172248804 L24.3330144,0.172248804 L24.3330144,6.30143541 L15.8425837,6.30143541 L15.8425837,0.172248804 Z M30.1291866,0.172248804 L38.6196172,0.172248804 L38.6196172,6.30143541 L30.1291866,6.30143541 L30.1291866,0.172248804 Z M44.6181818,0.172248804 L53.1086124,0.172248804 L53.1086124,6.30143541 L44.6181818,6.30143541 L44.6181818,0.172248804 Z M58.9047847,0.172248804 L67.3952153,0.172248804 L67.3952153,6.30143541 L58.9047847,6.30143541 L58.9047847,0.172248804 Z"></path>
                    <path d="M1.28755981,8.45885167 L9.77799043,8.45885167 L9.77799043,14.5880383 L1.28755981,14.5880383 L1.28755981,8.45885167 Z M15.8425837,8.45885167 L24.3330144,8.45885167 L24.3330144,14.5880383 L15.8425837,14.5880383 L15.8425837,8.45885167 Z M30.1291866,8.45885167 L38.6196172,8.45885167 L38.6196172,14.5880383 L30.1291866,14.5880383 L30.1291866,8.45885167 Z M44.6181818,8.45885167 L53.1086124,8.45885167 L53.1086124,14.5880383 L44.6181818,14.5880383 L44.6181818,8.45885167 Z M58.9047847,8.45885167 L67.3952153,8.45885167 L67.3952153,14.5880383 L58.9047847,14.5880383 L58.9047847,8.45885167 Z"></path>
                    <path d="M1.28755981,17.1473684 L9.77799043,17.1473684 L9.77799043,23.276555 L1.28755981,23.276555 L1.28755981,17.1473684 Z M15.8425837,17.1473684 L24.3330144,17.1473684 L24.3330144,23.276555 L15.8425837,23.276555 L15.8425837,17.1473684 Z M30.1291866,17.1473684 L38.6196172,17.1473684 L38.6196172,23.276555 L30.1291866,23.276555 L30.1291866,17.1473684 Z M44.6181818,17.1473684 L53.1086124,17.1473684 L53.1086124,23.276555 L44.6181818,23.276555 L44.6181818,17.1473684 Z M58.9047847,17.1473684 L67.3952153,17.1473684 L67.3952153,23.276555 L58.9047847,23.276555 L58.9047847,17.1473684 Z"></path>
                </g>
                <g transform="translate(0.000000, 64.593301)" id="Shape">
                    <path d="M58.0291866,0.446411483 L68.2722488,0.446411483 L68.2722488,2.06267943 L58.0291866,2.06267943 L58.0291866,0.446411483 Z M58.0291866,8.86650718 L68.2722488,8.86650718 L68.2722488,10.3478469 L58.0291866,10.3478469 L58.0291866,8.86650718 Z M58.0291866,17.354067 L68.2722488,17.354067 L68.2722488,18.9703349 L58.0291866,18.9703349 L58.0291866,17.354067 Z M43.7425837,0.446411483 L53.9856459,0.446411483 L53.9856459,2.06267943 L43.7425837,2.06267943 L43.7425837,0.446411483 Z M43.7425837,8.86650718 L53.9856459,8.86650718 L53.9856459,10.3478469 L43.7425837,10.3478469 L43.7425837,8.86650718 Z M43.7425837,17.354067 L53.9856459,17.354067 L53.9856459,18.9703349 L43.7425837,18.9703349 L43.7425837,17.354067 Z"></path>
                    <path d="M29.2535885,0.446411483 L39.4966507,0.446411483 L39.4966507,2.06267943 L29.2535885,2.06267943 L29.2535885,0.446411483 Z M29.2535885,8.86650718 L39.4966507,8.86650718 L39.4966507,10.3478469 L29.2535885,10.3478469 L29.2535885,8.86650718 Z M29.2535885,17.354067 L39.4966507,17.354067 L39.4966507,18.9703349 L29.2535885,18.9703349 L29.2535885,17.354067 Z"></path>
                    <path d="M14.8995215,0.446411483 L25.1425837,0.446411483 L25.1425837,2.06267943 L14.8995215,2.06267943 L14.8995215,0.446411483 Z M14.8995215,8.86650718 L25.1425837,8.86650718 L25.1425837,10.3478469 L14.8995215,10.3478469 L14.8995215,8.86650718 Z M14.8995215,17.354067 L25.1425837,17.354067 L25.1425837,18.9703349 L14.8995215,18.9703349 L14.8995215,17.354067 Z"></path>
                    <path d="M0.410526316,0.446411483 L10.6535885,0.446411483 L10.6535885,2.06267943 L0.410526316,2.06267943 L0.410526316,0.446411483 Z M0.410526316,8.86650718 L10.6535885,8.86650718 L10.6535885,10.3478469 L0.410526316,10.3478469 L0.410526316,8.86650718 Z M0.410526316,17.354067 L10.6535885,17.354067 L10.6535885,18.9703349 L0.410526316,18.9703349 L0.410526316,17.354067 Z"></path>
                </g>
                <g transform="translate(0.000000, 87.559809)" id="Shape">
                    <path d="M1.28755981,0.651674641 L9.77799043,0.651674641 L9.77799043,6.78086124 L1.28755981,6.78086124 L1.28755981,0.651674641 Z M15.8425837,0.651674641 L24.3330144,0.651674641 L24.3330144,6.78086124 L15.8425837,6.78086124 L15.8425837,0.651674641 Z M30.1291866,0.651674641 L38.6196172,0.651674641 L38.6196172,6.78086124 L30.1291866,6.78086124 L30.1291866,0.651674641 Z M44.6181818,0.651674641 L53.1086124,0.651674641 L53.1086124,6.78086124 L44.6181818,6.78086124 L44.6181818,0.651674641 Z M58.9047847,0.651674641 L67.3952153,0.651674641 L67.3952153,6.78086124 L58.9047847,6.78086124 L58.9047847,0.651674641 Z"></path>
                    <path d="M1.28755981,8.93684211 L9.77799043,8.93684211 L9.77799043,15.0660287 L1.28755981,15.0660287 L1.28755981,8.93684211 Z M15.8425837,8.93684211 L24.3330144,8.93684211 L24.3330144,15.0660287 L15.8425837,15.0660287 L15.8425837,8.93684211 Z M30.1291866,8.93684211 L38.6196172,8.93684211 L38.6196172,15.0660287 L30.1291866,15.0660287 L30.1291866,8.93684211 Z M44.6181818,8.93684211 L53.1086124,8.93684211 L53.1086124,15.0660287 L44.6181818,15.0660287 L44.6181818,8.93684211 Z M58.9047847,8.93684211 L67.3952153,8.93684211 L67.3952153,15.0660287 L58.9047847,15.0660287 L58.9047847,8.93684211 Z"></path>
                    <path d="M1.28755981,17.5593301 L9.77799043,17.5593301 L9.77799043,23.6885167 L1.28755981,23.6885167 L1.28755981,17.5593301 Z M15.8425837,17.5593301 L24.3330144,17.5593301 L24.3330144,23.6885167 L15.8425837,23.6885167 L15.8425837,17.5593301 Z M30.1291866,17.5593301 L38.6196172,17.5593301 L38.6196172,23.6885167 L30.1291866,23.6885167 L30.1291866,17.5593301 Z M44.6181818,17.5593301 L53.1086124,17.5593301 L53.1086124,23.6885167 L44.6181818,23.6885167 L44.6181818,17.5593301 Z M58.9047847,17.5593301 L67.3952153,17.5593301 L67.3952153,23.6885167 L58.9047847,23.6885167 L58.9047847,17.5593301 Z"></path>
                </g>
                <g transform="translate(0.000000, 91.866029)" id="Shape">
                    <path d="M58.0291866,0.925837321 L68.2722488,0.925837321 L68.2722488,2.54210526 L58.0291866,2.54210526 L58.0291866,0.925837321 Z M58.0291866,9.2784689 L68.2722488,9.2784689 L68.2722488,10.7598086 L58.0291866,10.7598086 L58.0291866,9.2784689 Z M58.0291866,17.8320574 L68.2722488,17.8320574 L68.2722488,19.4483254 L58.0291866,19.4483254 L58.0291866,17.8320574 Z M43.7425837,0.925837321 L53.9856459,0.925837321 L53.9856459,2.54210526 L43.7425837,2.54210526 L43.7425837,0.925837321 Z M43.7425837,9.2784689 L53.9856459,9.2784689 L53.9856459,10.7598086 L43.7425837,10.7598086 L43.7425837,9.2784689 Z M43.7425837,17.8320574 L53.9856459,17.8320574 L53.9856459,19.4483254 L43.7425837,19.4483254 L43.7425837,17.8320574 Z"></path>
                    <path d="M29.2535885,0.925837321 L39.4966507,0.925837321 L39.4966507,2.54210526 L29.2535885,2.54210526 L29.2535885,0.925837321 Z M29.2535885,9.2784689 L39.4966507,9.2784689 L39.4966507,10.7598086 L29.2535885,10.7598086 L29.2535885,9.2784689 Z M29.2535885,17.8320574 L39.4966507,17.8320574 L39.4966507,19.4483254 L29.2535885,19.4483254 L29.2535885,17.8320574 Z"></path>
                    <path d="M14.8995215,0.925837321 L25.1425837,0.925837321 L25.1425837,2.54210526 L14.8995215,2.54210526 L14.8995215,0.925837321 Z M14.8995215,9.2784689 L25.1425837,9.2784689 L25.1425837,10.7598086 L14.8995215,10.7598086 L14.8995215,9.2784689 Z M14.8995215,17.8320574 L25.1425837,17.8320574 L25.1425837,19.4483254 L14.8995215,19.4483254 L14.8995215,17.8320574 Z"></path>
                    <path d="M0.410526316,0.925837321 L10.6535885,0.925837321 L10.6535885,2.54210526 L0.410526316,2.54210526 L0.410526316,0.925837321 Z M0.410526316,9.2784689 L10.6535885,9.2784689 L10.6535885,10.7598086 L0.410526316,10.7598086 L0.410526316,9.2784689 Z M0.410526316,17.8320574 L10.6535885,17.8320574 L10.6535885,19.4483254 L0.410526316,19.4483254 L0.410526316,17.8320574 Z"></path>
                </g>
            </g>
            <polygon id="Path" fill="#9DCFF9" opacity="0.5" points="164.705742 91.0550239 212.619617 91.0550239 212.619617 231.496651 164.705742 231.496651"></polygon>
            <g id="Group" opacity="0.5" transform="translate(170.038278, 99.703349)" fill="#84C3F7" fill-rule="nonzero">
                <path d="M1.40669856,0.377511962 L10.708134,0.377511962 L10.708134,4.284689 L1.40669856,4.284689 L1.40669856,0.377511962 Z M1.40669856,9.80669856 L10.708134,9.80669856 L10.708134,13.7138756 L1.40669856,13.7138756 L1.40669856,9.80669856 Z M1.40669856,19.3062201 L10.708134,19.3062201 L10.708134,23.2119617 L1.40669856,23.2119617 L1.40669856,19.3062201 Z M1.40669856,28.7339713 L10.708134,28.7339713 L10.708134,32.6411483 L1.40669856,32.6411483 L1.40669856,28.7339713 Z M1.40669856,38.1645933 L10.708134,38.1645933 L10.708134,42.0717703 L1.40669856,42.0717703 L1.40669856,38.1645933 Z M1.40669856,47.5952153 L10.708134,47.5952153 L10.708134,51.5023923 L1.40669856,51.5023923 L1.40669856,47.5952153 Z M1.40669856,57.0244019 L10.708134,57.0244019 L10.708134,60.9315789 L1.40669856,60.9315789 L1.40669856,57.0244019 Z M1.40669856,66.522488 L10.708134,66.522488 L10.708134,70.4296651 L1.40669856,70.4296651 L1.40669856,66.522488 Z M1.40669856,75.95311 L10.708134,75.95311 L10.708134,79.8602871 L1.40669856,79.8602871 L1.40669856,75.95311 Z" id="Shape"></path>
                <g transform="translate(14.354067, 0.000000)" id="Shape">
                    <path d="M0.330143541,0.377511962 L9.62870813,0.377511962 L9.62870813,4.284689 L0.328708134,4.284689 L0.330143541,0.377511962 Z M0.330143541,9.80669856 L9.62870813,9.80669856 L9.62870813,13.7138756 L0.328708134,13.7138756 L0.330143541,9.80669856 Z M0.330143541,19.3062201 L9.62870813,19.3062201 L9.62870813,23.2119617 L0.328708134,23.2119617 L0.330143541,19.3062201 Z M0.330143541,28.7339713 L9.62870813,28.7339713 L9.62870813,32.6411483 L0.328708134,32.6411483 L0.330143541,28.7339713 Z M0.330143541,38.1645933 L9.62870813,38.1645933 L9.62870813,42.0717703 L0.328708134,42.0717703 L0.330143541,38.1645933 Z M0.330143541,47.5952153 L9.62870813,47.5952153 L9.62870813,51.5023923 L0.328708134,51.5023923 L0.330143541,47.5952153 Z M0.330143541,57.0244019 L9.62870813,57.0244019 L9.62870813,60.9315789 L0.328708134,60.9315789 L0.330143541,57.0244019 Z M0.330143541,66.522488 L9.62870813,66.522488 L9.62870813,70.4296651 L0.328708134,70.4296651 L0.330143541,66.522488 Z M0.330143541,75.95311 L9.62870813,75.95311 L9.62870813,79.8602871 L0.328708134,79.8602871 L0.330143541,75.95311 Z"></path>
                </g>
                <g transform="translate(27.272727, 0.000000)" id="Shape">
                    <path d="M0.686124402,0.377511962 L9.98755981,0.377511962 L9.98755981,4.284689 L0.686124402,4.284689 L0.686124402,0.377511962 Z M0.686124402,9.80669856 L9.98755981,9.80669856 L9.98755981,13.7138756 L0.686124402,13.7138756 L0.686124402,9.80669856 Z M0.686124402,19.3062201 L9.98755981,19.3062201 L9.98755981,23.2119617 L0.686124402,23.2119617 L0.686124402,19.3062201 Z M0.686124402,28.7339713 L9.98755981,28.7339713 L9.98755981,32.6411483 L0.686124402,32.6411483 L0.686124402,28.7339713 Z M0.686124402,38.1645933 L9.98755981,38.1645933 L9.98755981,42.0717703 L0.686124402,42.0717703 L0.686124402,38.1645933 Z M0.686124402,47.5952153 L9.98755981,47.5952153 L9.98755981,51.5023923 L0.686124402,51.5023923 L0.686124402,47.5952153 Z M0.686124402,57.0244019 L9.98755981,57.0244019 L9.98755981,60.9315789 L0.686124402,60.9315789 L0.686124402,57.0244019 Z M0.686124402,66.522488 L9.98755981,66.522488 L9.98755981,70.4296651 L0.686124402,70.4296651 L0.686124402,66.522488 Z M0.686124402,75.95311 L9.98755981,75.95311 L9.98755981,79.8602871 L0.686124402,79.8602871 L0.686124402,75.95311 Z"></path>
                </g>
                <g id="Shape">
                    <path d="M1.40669856,0.377511962 L3.69904306,0.377511962 L3.69904306,4.284689 L1.40813397,4.284689 L1.40669856,0.377511962 Z M1.40669856,9.80669856 L3.69904306,9.80669856 L3.69904306,13.7138756 L1.40813397,13.7138756 L1.40669856,9.80669856 Z M1.40669856,19.3062201 L3.69904306,19.3062201 L3.69904306,23.2119617 L1.40813397,23.2119617 L1.40669856,19.3062201 Z M1.40669856,28.7339713 L3.69904306,28.7339713 L3.69904306,32.6411483 L1.40813397,32.6411483 L1.40669856,28.7339713 Z M1.40669856,38.1645933 L3.69904306,38.1645933 L3.69904306,42.0717703 L1.40813397,42.0717703 L1.40669856,38.1645933 Z M1.40669856,47.5952153 L3.69904306,47.5952153 L3.69904306,51.5023923 L1.40813397,51.5023923 L1.40669856,47.5952153 Z M1.40669856,57.0244019 L3.69904306,57.0244019 L3.69904306,60.9315789 L1.40813397,60.9315789 L1.40669856,57.0244019 Z M1.40669856,66.522488 L3.69904306,66.522488 L3.69904306,70.4296651 L1.40813397,70.4296651 L1.40669856,66.522488 Z M1.40669856,75.95311 L3.69904306,75.95311 L3.69904306,79.8602871 L1.40813397,79.8602871 L1.40669856,75.95311 Z"></path>
                    <path d="M14.6842105,0.377511962 L16.9736842,0.377511962 L16.9736842,4.284689 L14.6827751,4.284689 L14.6842105,0.377511962 Z M14.6842105,9.80669856 L16.9736842,9.80669856 L16.9736842,13.7138756 L14.6827751,13.7138756 L14.6842105,9.80669856 Z M14.6842105,19.3062201 L16.9736842,19.3062201 L16.9736842,23.2119617 L14.6827751,23.2119617 L14.6842105,19.3062201 Z M14.6842105,28.7339713 L16.9736842,28.7339713 L16.9736842,32.6411483 L14.6827751,32.6411483 L14.6842105,28.7339713 Z M14.6842105,38.1645933 L16.9736842,38.1645933 L16.9736842,42.0717703 L14.6827751,42.0717703 L14.6842105,38.1645933 Z M14.6842105,47.5952153 L16.9736842,47.5952153 L16.9736842,51.5023923 L14.6827751,51.5023923 L14.6842105,47.5952153 Z M14.6842105,57.0244019 L16.9736842,57.0244019 L16.9736842,60.9315789 L14.6827751,60.9315789 L14.6842105,57.0244019 Z M14.6842105,66.522488 L16.9736842,66.522488 L16.9736842,70.4296651 L14.6827751,70.4296651 L14.6842105,66.522488 Z M14.6842105,75.95311 L16.9736842,75.95311 L16.9736842,79.8602871 L14.6827751,79.8602871 L14.6842105,75.95311 Z"></path>
                    <path d="M27.9588517,0.377511962 L30.0473684,0.377511962 L30.0473684,4.284689 L27.9588517,4.284689 L27.9588517,0.377511962 Z M27.9588517,9.80669856 L30.0473684,9.80669856 L30.0473684,13.7138756 L27.9588517,13.7138756 L27.9588517,9.80669856 Z M27.9588517,19.3062201 L30.0473684,19.3062201 L30.0473684,23.2119617 L27.9588517,23.2119617 L27.9588517,19.3062201 Z M27.9588517,28.7339713 L30.0473684,28.7339713 L30.0473684,32.6411483 L27.9588517,32.6411483 L27.9588517,28.7339713 Z M27.9588517,38.1645933 L30.0473684,38.1645933 L30.0473684,42.0717703 L27.9588517,42.0717703 L27.9588517,38.1645933 Z M27.9588517,47.5952153 L30.0473684,47.5952153 L30.0473684,51.5023923 L27.9588517,51.5023923 L27.9588517,47.5952153 Z M27.9588517,57.0244019 L30.0473684,57.0244019 L30.0473684,60.9315789 L27.9588517,60.9315789 L27.9588517,57.0244019 Z M27.9588517,66.522488 L30.0473684,66.522488 L30.0473684,70.4296651 L27.9588517,70.4296651 L27.9588517,66.522488 Z M27.9588517,75.95311 L30.0473684,75.95311 L30.0473684,79.8602871 L27.9588517,79.8602871 L27.9588517,75.95311 Z"></path>
                </g>
            </g>
            <polygon id="Path" fill="#9DCFF9" opacity="0.5" points="230.816268 142.785646 287.087081 142.785646 287.087081 231.496651 230.816268 231.496651"></polygon>
            <g id="Group" opacity="0.5" transform="translate(241.808612, 155.684211)" fill="#84C3F7" fill-rule="nonzero">
                <path d="M0.261244019,0.236842105 L7.20287081,0.236842105 L7.20287081,13.5717703 L0.261244019,13.5717703 L0.261244019,0.236842105 Z M0.261244019,20.0382775 L7.20287081,20.0382775 L7.20287081,33.3760766 L0.261244019,33.3760766 L0.261244019,20.0382775 Z M0.261244019,39.7751196 L7.20287081,39.7751196 L7.20287081,53.1100478 L0.261244019,53.1100478 L0.261244019,39.7751196 Z M0.261244019,59.5779904 L7.20287081,59.5779904 L7.20287081,72.9129187 L0.261244019,72.9129187 L0.261244019,59.5779904 Z" id="Shape"></path>
                <g transform="translate(14.354067, 0.000000)" id="Shape">
                    <path d="M0.193779904,0.236842105 L7.1354067,0.236842105 L7.1354067,13.5717703 L0.193779904,13.5717703 L0.193779904,0.236842105 Z M0.193779904,20.0382775 L7.1354067,20.0382775 L7.1354067,33.3760766 L0.193779904,33.3760766 L0.193779904,20.0382775 Z M0.193779904,39.7751196 L7.1354067,39.7751196 L7.1354067,53.1100478 L0.193779904,53.1100478 L0.193779904,39.7751196 Z M0.193779904,59.5779904 L7.1354067,59.5779904 L7.1354067,72.9129187 L0.193779904,72.9129187 L0.193779904,59.5779904 Z"></path>
                </g>
                <g transform="translate(28.708134, 0.000000)" id="Shape">
                    <path d="M0.0588516746,0.236842105 L7.00047847,0.236842105 L7.00047847,13.5717703 L0.0588516746,13.5717703 L0.0588516746,0.236842105 Z M0.0588516746,20.0382775 L7.00047847,20.0382775 L7.00047847,33.3760766 L0.0588516746,33.3760766 L0.0588516746,20.0382775 Z M0.0588516746,39.7751196 L7.00047847,39.7751196 L7.00047847,53.1100478 L0.0588516746,53.1100478 L0.0588516746,39.7751196 Z M0.0588516746,59.5779904 L7.00047847,59.5779904 L7.00047847,72.9129187 L0.0588516746,72.9129187 L0.0588516746,59.5779904 Z"></path>
                </g>
            </g>
            <polygon id="Path" fill="#9DCFF9" opacity="0.5" points="68.9454545 161.107177 13.6191388 161.107177 13.6191388 165.957416 14.9684211 165.957416 14.9684211 231.496651 67.1267943 231.496651 67.1267943 165.955981 68.9454545 165.955981"></polygon>
            <g id="Group" opacity="0.5" transform="translate(22.191388, 177.215311)" fill="#84C3F7" fill-rule="nonzero">
                <path d="M2.21052632,1.67511962 L34.5559809,1.67511962 L34.5559809,7.80430622 L2.21052632,7.80430622 L2.21052632,1.67511962 Z M2.21052632,10.7009569 L34.5559809,10.7009569 L34.5559809,16.8301435 L2.21052632,16.8301435 L2.21052632,10.7009569 Z M2.21052632,19.7942584 L34.5559809,19.7942584 L34.5559809,25.923445 L2.21052632,25.923445 L2.21052632,19.7942584 Z M2.21052632,28.8875598 L34.5559809,28.8875598 L34.5559809,35.0167464 L2.21052632,35.0167464 L2.21052632,28.8875598 Z M2.21052632,47.0066986 L34.5559809,47.0066986 L34.5559809,53.1358852 L2.21052632,53.1358852 L2.21052632,47.0066986 Z M2.21052632,37.9133971 L34.5559809,37.9133971 L34.5559809,44.0425837 L2.21052632,44.0425837 L2.21052632,37.9133971 Z" id="Shape"></path>
                <path d="M0.660287081,0.933014354 L2.21052632,0.933014354 L2.21052632,54.1478469 L0.660287081,54.1478469 L0.660287081,0.933014354 Z M33.7478469,1.06794258 L35.2980861,1.06794258 L35.2980861,54.2813397 L33.7478469,54.2813397 L33.7478469,1.06794258 Z" id="Shape"></path>
            </g>
            <polygon id="Path" fill="#9DCFF9" opacity="0.75" points="114.838278 219.37177 37.408134 219.37177 37.408134 224.22201 39.2942584 224.22201 39.2942584 231.496651 112.007656 231.496651 112.007656 224.22201 114.838278 224.22201"></polygon>
            <polygon id="Path" fill="#9DCFF9" opacity="0.5" points="201.028708 191.282297 201.028708 147.163636 151.162679 147.163636 151.162679 191.283732 130.607656 191.283732 130.607656 231.496651 221.583732 231.496651 221.583732 191.282297"></polygon>
            <g id="Group" opacity="0.5" transform="translate(139.894737, 152.813397)" fill="#84C3F7" fill-rule="nonzero">
                <path d="M1.42822967,51.5368421 L70.9062201,51.5368421 L70.9062201,60.9 L1.42822967,60.9 L1.42822967,51.5368421 Z M1.42822967,65.4129187 L70.9062201,65.4129187 L70.9062201,74.7760766 L1.42822967,74.7760766 L1.42822967,65.4129187 Z M20.2966507,1.42248804 L52.1712919,1.42248804 L52.1712919,10.7856459 L20.2966507,10.7856459 L20.2966507,1.42248804 Z M20.2966507,15.2311005 L52.1712919,15.2311005 L52.1712919,24.5942584 L20.2966507,24.5942584 L20.2966507,15.2311005 Z M20.2966507,29.107177 L52.1712919,29.107177 L52.1712919,38.4703349 L20.2966507,38.4703349 L20.2966507,29.107177 Z" id="Shape"></path>
                <path d="M17.8033493,37.4583732 L54.7334928,37.4583732 L54.7334928,39.4794258 L17.8033493,39.4794258 L17.8033493,37.4583732 Z M17.8033493,23.5837321 L54.7334928,23.5837321 L54.7334928,25.6047847 L17.8033493,25.6047847 L17.8033493,23.5837321 Z M17.8033493,9.77511962 L54.7334928,9.77511962 L54.7334928,11.7961722 L17.8033493,11.7961722 L17.8033493,9.77511962 Z" id="Shape"></path>
            </g>
            <polygon id="Path" fill="#9DCFF9" opacity="0.75" points="191.460287 201.723445 234.185167 201.723445 234.185167 231.495215 191.460287 231.495215"></polygon>
            <path d="M250.224402,253.388038 C250.224402,254.801914 200.085646,255.947368 138.222488,255.947368 C76.3593301,255.947368 50.4818182,254.801914 50.4818182,253.388038 C50.4818182,251.972727 76.3593301,250.827273 138.222488,250.827273 C200.085646,250.894737 250.224402,251.972727 250.224402,253.388038 Z" id="Path" fill="#D8D8D8"></path>
            <path d="M83.8392344,225.973206 C91.7239234,225.973206 98.1933014,232.372249 98.1933014,240.320096 C98.1933014,248.200478 91.7913876,254.666986 83.8392344,254.666986 L79.8631579,254.666986 L79.8631579,226.04067 L83.8392344,226.04067 L83.8392344,225.973206 Z M158.641148,225.973206 C166.525837,225.973206 172.995215,232.372249 172.995215,240.320096 C172.995215,248.200478 166.593301,254.666986 158.641148,254.666986 L154.665072,254.666986 L154.665072,226.04067 L158.641148,226.04067 L158.641148,225.973206 Z" id="Shape" fill="#0F222C" fill-rule="nonzero"></path>
            <path d="M83.8392344,225.973206 C91.7239234,225.973206 98.1933014,232.372249 98.1933014,240.320096 C98.1933014,248.200478 91.7913876,254.666986 83.8392344,254.666986 L79.8631579,254.666986 L79.8631579,226.04067 L83.8392344,226.04067 L83.8392344,225.973206 Z" id="Path" fill="#0F222C"></path>
            <path d="M96.5755981,237.625837 C96.5755981,229.745455 102.977512,223.278947 110.929665,223.278947 C118.814354,223.278947 125.283732,229.67799 125.283732,237.625837 C125.283732,245.50622 118.881818,251.972727 110.929665,251.972727 C103.044976,251.905263 96.5755981,245.50622 96.5755981,237.625837 Z M191.392823,223.277512 C199.277512,223.277512 205.74689,229.67799 205.74689,237.625837 C205.74689,245.50622 199.344976,251.972727 191.392823,251.972727 L187.416746,251.972727 L187.416746,223.346411 L191.392823,223.346411 L191.392823,223.278947 L191.392823,223.277512 Z" id="Shape" fill="#0F222C" fill-rule="nonzero"></path>
            <path d="M173.130144,237.625837 C173.130144,229.745455 179.532057,223.278947 187.484211,223.278947 C195.3689,223.278947 201.838278,229.67799 201.838278,237.625837 C201.838278,245.50622 195.436364,251.972727 187.484211,251.972727 C179.532057,251.905263 173.130144,245.50622 173.130144,237.625837 Z" id="Path" fill="#0F222C"></path>
            <polygon id="Path" fill="#E8BF7C" points="228.143541 172.053589 154.689474 172.053589 154.689474 146.659809 228.143541 146.659809"></polygon>
            <polygon id="Path" fill="#E8BF7C" points="184.037799 230.722967 125.272249 230.722967 125.272249 171.986124 184.037799 171.986124"></polygon>
            <polygon id="Path" fill="#D0A569" points="184.026316 196.863158 184.026316 205.888995 125.263636 205.888995 125.263636 196.863158"></polygon>
            <polygon id="Path" fill="#AB7A45" points="160.788517 205.8689 148.522967 205.8689 148.522967 196.843062 160.788517 196.843062"></polygon>
            <polygon id="Path" fill="#D0A569" points="159.170813 230.722967 150.14067 230.722967 150.14067 171.986124 159.169378 171.986124"></polygon>
            <polygon id="Path" fill="#D0A56B" points="228.157895 230.722967 184.083732 230.722967 184.083732 171.986124 228.156459 171.986124"></polygon>
            <polygon id="Path" fill="#AB7A45" points="228.123445 196.840191 228.123445 205.866029 184.050718 205.866029 184.050718 196.840191"></polygon>
            <polygon id="Path" fill="#986E3E" points="212.0311 205.8689 199.76555 205.8689 199.76555 196.843062 212.0311 196.843062"></polygon>
            <polygon id="Path" fill="#A87944" points="184.047847 172.086603 228.120574 172.086603 250.224402 150.127751 206.084211 150.127751"></polygon>
            <polygon id="Path" fill="#AB7A45" points="201.433493 172.019139 210.463636 172.019139 210.463636 230.755981 201.434928 230.755981"></polygon>
            <polygon id="Path" fill="#986E3E" points="201.433493 172.019139 210.463636 172.019139 232.299043 150.127751 223.2689 150.127751"></polygon>
            <polygon id="Path" fill="#D0A56B" points="184.047847 172.019139 125.282297 172.019139 103.245933 149.925359 162.010048 149.925359"></polygon>
            <polygon id="Path" fill="#AB7A45" points="159.180861 172.019139 150.150718 172.019139 128.114354 149.925359 137.143062 149.925359"></polygon>
            <path d="M53.3110048,240.252632 L184.047847,240.252632 L184.047847,230.754545 L53.3110048,230.754545 C51.7607656,230.754545 50.4818182,232.034928 50.4818182,233.583732 L50.4818182,237.423445 C50.4818182,238.973684 51.762201,240.252632 53.3124402,240.252632 L53.3110048,240.252632 Z" id="Path" fill="#1D4259"></path>
            <path d="M53.3110048,230.755981 L125.216268,230.755981 L125.216268,172.019139 L89.1631579,172.019139 C82.154067,172.019139 75.5497608,175.521531 71.6411483,181.314833 L56.9511962,203.071292 C54.583687,206.571912 53.316536,210.700275 53.3124402,214.926316 L53.3124402,230.754545 L53.3110048,230.755981 Z" id="Path" fill="#FF524F"></path>
            <path d="M108.031579,206.776077 L108.031579,178.620574 L89.230622,178.620574 C84.3789474,178.620574 79.8631579,181.044976 77.1674641,185.019617 L62.4760766,206.776077 L108.031579,206.776077 Z" id="Path" fill="#F2F2F2"></path>
            <polygon id="Path" fill="#CE3836" points="125.27799 230.722967 116.585167 230.722967 116.585167 171.986124 125.27799 171.986124"></polygon>
            <path d="M153.990431,223.277512 C163.35933,223.277512 170.974163,230.889474 170.974163,240.252632 L136.942105,240.252632 C137.009569,230.889474 144.624402,223.278947 153.991866,223.278947 L153.990431,223.277512 Z M79.1899522,223.277512 C88.5559809,223.277512 96.1708134,230.889474 96.1708134,240.252632 L62.1401914,240.252632 C62.2076555,230.889474 69.822488,223.278947 79.1899522,223.278947 L79.1899522,223.277512 Z" id="Shape" fill="#0F222C" fill-rule="nonzero"></path>
            <path d="M140.311005,240.252632 C140.311005,232.372249 146.712919,225.905742 154.665072,225.905742 C162.549761,225.905742 169.019139,232.304785 169.019139,240.252632 C169.019139,248.133014 162.617225,254.599522 154.665072,254.599522 C146.712919,254.599522 140.311005,248.200478 140.311005,240.252632 Z" id="Path" fill="#222846"></path>
            <ellipse id="Oval" fill="#F2F2F2" transform="translate(154.657895, 240.268421) rotate(-80.811000) translate(-154.657895, -240.268421) " cx="154.657895" cy="240.268421" rx="7.0722488" ry="7.07655502"></ellipse>
            <ellipse id="Oval" fill="#222846" cx="79.8631579" cy="240.252632" rx="14.354067" ry="14.34689"></ellipse>
            <ellipse id="Oval" fill="#F2F2F2" transform="translate(79.853110, 240.271292) rotate(-80.811000) translate(-79.853110, -240.271292) " cx="79.85311" cy="240.271292" rx="7.0722488" ry="7.07655502"></ellipse>
            <polygon id="Path" fill="#CE3836" points="190.205742 226.168421 184.073684 226.168421 184.073684 220.307656 190.205742 220.307656"></polygon>
            <polygon id="Path" fill="#FF524F" points="184.056459 226.168421 177.924402 226.168421 177.924402 220.307656 184.056459 220.307656"></polygon>
            <polygon id="Path" fill="#CE3836" points="228.167943 226.168421 222.035885 226.168421 222.035885 220.307656 228.167943 220.307656"></polygon>
            <g id="Group" transform="translate(98.267943, 208.794258)">
                <path d="M2.28373206,3.37033493 L7.94497608,3.37033493 C8.95550239,3.37033493 9.76363636,2.56220096 9.76363636,1.55167464 L9.76363636,0.271291866 L0.531100478,0.271291866 L0.531100478,1.55167464 C0.46507177,2.62822967 1.27320574,3.37033493 2.28373206,3.37033493 Z" id="Path" fill="#CE3836"></path>
                <path d="M2.28373206,2.62966507 L7.94497608,2.62966507 C8.95550239,2.62966507 9.76363636,1.8215311 9.76363636,0.811004785 L9.76363636,0.271291866 L0.531100478,0.271291866 L0.531100478,0.811004785 C0.46507177,1.8215311 1.27320574,2.62966507 2.28373206,2.62966507 Z" id="Path" fill="#222846"></path>
            </g>
            <path d="M58.9047847,223.277512 C58.9078444,221.793658 58.3195432,220.369739 57.2700282,219.320763 C56.2205132,218.271787 54.7962927,217.684217 53.3124402,217.68802 L53.3124402,228.869875 C54.796542,228.87368 56.2209812,228.285913 57.2705378,227.236626 C58.3200945,226.187338 58.9082268,224.76305 58.9047847,223.278947 L58.9047847,223.277512 Z" id="Path" fill="#F2F2F2"></path>
            <path d="M228.120574,230.755981 L184.047847,230.755981 C182.497608,230.755981 181.217225,232.034928 181.217225,233.583732 L181.217225,237.423445 C181.217225,238.973684 182.497608,240.252632 184.047847,240.252632 L228.120574,240.252632 C229.670813,240.252632 230.951196,238.972249 230.951196,237.42488 L230.951196,233.583732 C230.951196,232.034928 229.738278,230.755981 228.120574,230.755981 Z" id="Path" fill="#1B3241"></path>
            <path d="M189.169378,235.537321 C189.169378,234.391866 188.29378,233.516268 187.14689,233.516268 C186.001435,233.516268 185.125837,234.391866 185.125837,235.537321 C185.125837,236.682775 186.001435,237.558373 187.14689,237.558373 C188.226316,237.558373 189.169378,236.615311 189.169378,235.537321 Z M192.605742,235.537321 C192.592134,234.984957 192.147579,234.540402 191.595215,234.526794 C191.042852,234.540402 190.598296,234.984957 190.584689,235.537321 C190.584689,236.077033 191.055502,236.547847 191.595215,236.547847 C191.864761,236.552967 192.124778,236.448147 192.31541,236.257515 C192.506041,236.066883 192.610862,235.806866 192.605742,235.537321 Z M223.066507,235.537321 C223.066507,236.682775 223.942105,237.558373 225.08756,237.558373 C226.233014,237.558373 227.110048,236.682775 227.110048,235.537321 C227.110048,234.391866 226.23445,233.516268 225.08756,233.516268 C223.942105,233.516268 223.066507,234.391866 223.066507,235.537321 Z M219.561244,235.537321 C219.561244,236.077033 220.033493,236.547847 220.573206,236.547847 C221.125569,236.534239 221.570125,236.089684 221.583732,235.537321 C221.570125,234.984957 221.125569,234.540402 220.573206,234.526794 C220.303414,234.521278 220.04302,234.625924 219.852073,234.8166 C219.661126,235.007276 219.556111,235.267521 219.561244,235.537321 Z" id="Shape" fill="#F2F2F2" fill-rule="nonzero"></path>
            <g id="Group" transform="translate(0.660287, 0.660287)" stroke="#F2F2F2">
                <path d="M216.205263,134.715789 L216.205263,9.76650718 C216.205263,4.37799043 211.825837,0.0674641148 206.501914,0.0674641148 L92.8837321,0.0674641148 C87.525841,0.0666709998 83.1813251,4.40861655 83.1789474,9.76650718 L83.1789474,160.042105" id="Path"></path>
                <path d="M94.0966507,160.042105 L94.0966507,18.6602871 L205.288995,18.6602871 L205.288995,134.717225 L94.0966507,160.042105 Z M126.10622,9.36315789 C126.10622,10.5746411 127.049282,11.5177033 128.262201,11.5177033 L171.189474,11.5177033 C172.402392,11.5177033 173.345455,10.5746411 173.345455,9.36315789 C173.345455,8.15023923 172.402392,7.20717703 171.189474,7.20717703 L128.262201,7.20717703 C127.049282,7.20717703 126.10622,8.15023923 126.10622,9.36315789 Z M184.937799,9.36315789 C184.937799,10.5746411 183.993301,11.5177033 182.780383,11.5177033 C182.206596,11.5250981 181.654126,11.3005243 181.248228,10.8948971 C180.842331,10.4892699 180.617389,9.93694967 180.624402,9.36315789 C180.624402,8.15023923 181.567464,7.20717703 182.780383,7.20717703 C183.993301,7.20717703 184.937799,8.15023923 184.937799,9.36315789 Z" id="Shape"></path>
                <g transform="translate(226.794258, 54.545455)" id="Shape">
                    <path d="M70.5488038,176.290909 L70.5488038,9.91578947 M70.5488038,134.865072 L70.5488038,9.91578947 C70.5488038,4.52727273 66.1679426,0.216746411 60.8454545,0.216746411 L0.666028708,0.216746411"></path>
                    <path d="M0.666028708,18.8066986 L59.6325359,18.8066986 L59.6325359,176.290909 L0.666028708,18.8066986 Z M0.666028708,11.6669856 L25.4655502,11.6669856 C26.6784689,11.6669856 27.6215311,10.7239234 27.6215311,9.51244019 C27.6215311,8.29952153 26.6784689,7.35645933 25.4655502,7.35645933 L0.666028708,7.35645933 L0.666028708,11.6669856 Z M39.2799043,9.51244019 C39.2799043,10.7239234 38.3368421,11.6669856 37.1239234,11.6669856 C36.5498892,11.6747708 35.9970456,11.4503695 35.5908346,11.044699 C35.1846237,10.6390286 34.9594864,10.0864843 34.9665072,9.51244019 C34.9665072,8.29952153 35.9110048,7.35645933 37.1239234,7.35645933 C38.3368421,7.35645933 39.2799043,8.29952153 39.2799043,9.51244019 Z"></path>
                </g>
                <g transform="translate(0.000000, 68.899522)" id="Shape">
                    <path d="M2.04258373,161.936842 L2.04258373,10.1770335 M2.04258373,120.511005 L2.04258373,10.1784689 C2.04258373,4.78995215 6.42200957,0.479425837 11.745933,0.479425837 L71.9253589,0.479425837"></path>
                    <path d="M71.9253589,19.069378 L12.9588517,19.069378 L12.9588517,161.935407 L71.9253589,19.069378 Z M71.9253589,11.9296651 L47.1244019,11.9296651 C46.5503677,11.9374502 45.9975241,11.7130489 45.5913131,11.3073785 C45.1851021,10.901708 44.9599648,10.3491637 44.9669856,9.77511962 C44.9669856,8.56220096 45.9114833,7.61913876 47.1244019,7.61913876 L71.9239234,7.61913876 L71.9253589,11.9296651 Z M33.3100478,9.77511962 C33.3100478,10.9866029 34.2545455,11.9296651 35.4674641,11.9296651 C36.6803828,11.9296651 37.623445,10.9866029 37.623445,9.77511962 C37.623445,8.56220096 36.6803828,7.61913876 35.4674641,7.61913876 C34.2545455,7.61913876 33.3100478,8.56220096 33.3100478,9.77511962 Z"></path>
                </g>
            </g>
            <g id="Group" transform="translate(33.674641, 50.899522)">
                <g transform="translate(8.612440, 25.837321)" id="Path" stroke="#FFFFFF">
                    <path d="M207.937321,45.9760766 C207.937321,45.9760766 207.667464,45.5712919 207.127751,44.8995215"></path>
                    <path d="M205.444019,42.8095694 C197.829187,33.515311 173.36555,8.32248804 143.311005,26.7114833 C106.920574,49.0076555 110.019617,0.442105263 88.6578947,0.442105263 C58.062201,0.442105263 75.7191388,58.8416268 3.54401914,62.5464115" stroke-dasharray="4.0253,4.0253"></path>
                    <path d="M2.12870813,62.6124402 C1.65789474,62.6124402 1.25311005,62.6813397 0.780861244,62.6813397"></path>
                </g>
                <path d="M219.648804,71.8133971 C219.648804,70.062201 218.233493,68.64689 216.482297,68.64689 C214.7311,68.64689 213.314354,70.062201 213.314354,71.8133971 C213.314354,73.5645933 214.729665,74.9799043 216.482297,74.9799043 C218.233493,74.9799043 219.648804,73.5645933 219.648804,71.8133971 Z" id="Path" fill="#1D4259"></path>
                <path d="M222.479426,49.0464115 C219.17799,45.7449761 213.852632,45.7449761 210.551196,49.0464115 C207.976287,51.6238649 207.35074,55.5648103 209.000957,58.8129187 L209.000957,58.8803828 C209.135885,59.1502392 209.270813,59.4200957 209.474641,59.6210526 L216.549761,71.8133971 L223.626316,59.6210526 C223.759809,59.3526316 223.962201,59.0827751 224.097129,58.8803828 L224.097129,58.8129187 C225.647368,55.6478469 225.107656,51.6732057 222.479426,49.0464115 Z M216.549761,59.015311 C214.32488,59.015311 212.573684,57.2641148 212.573684,55.0406699 C212.564784,53.9837078 212.980925,52.9674903 213.728606,52.2203488 C214.476288,51.4732072 215.492805,51.0578001 216.549761,51.0674641 C218.773206,51.0674641 220.525837,52.8186603 220.525837,55.0406699 C220.525837,57.1966507 218.705742,59.0167464 216.549761,59.0167464 L216.549761,59.015311 Z" id="Shape" fill="#FF524F" fill-rule="nonzero"></path>
                <path d="M97.538756,26.2794258 C97.538756,24.5282297 96.1248804,23.1129187 94.3722488,23.1129187 C92.6210526,23.1129187 91.2043062,24.5282297 91.2043062,26.2794258 C91.2043062,28.030622 92.6196172,29.445933 94.3722488,29.445933 C96.123445,29.3784689 97.538756,27.9631579 97.538756,26.2794258 Z" id="Path" fill="#1D4259"></path>
                <path d="M100.369378,3.44497608 C97.0679426,0.14354067 91.7425837,0.14354067 88.4411483,3.44497608 C85.866239,6.02242944 85.2406921,9.96337491 86.8909091,13.2114833 L86.8909091,13.2789474 C87.0272727,13.5488038 87.1607656,13.8186603 87.3645933,14.0196172 L94.4397129,26.2119617 L101.516268,14.0196172 C101.649761,13.7511962 101.852153,13.4813397 101.987081,13.2789474 L101.987081,13.2114833 C103.537321,10.0464115 103.065072,6.07177033 100.369378,3.44497608 Z M94.4397129,13.4138756 C92.2148325,13.4138756 90.4636364,11.6626794 90.4636364,9.43923445 C90.4547357,8.38227244 90.870877,7.36605488 91.6185584,6.61891335 C92.3662397,5.87177182 93.3827576,5.45636464 94.4397129,5.46602871 C96.6645933,5.46602871 98.4157895,7.21722488 98.4157895,9.43923445 C98.4157895,11.5952153 96.5956938,13.415311 94.4397129,13.415311 L94.4397129,13.4138756 Z" id="Shape" fill="#FF524F" fill-rule="nonzero"></path>
                <g transform="translate(0.000000, 63.157895)">
                    <path d="M12.561244,25.291866 C12.561244,23.5406699 11.145933,22.1267943 9.39330144,22.1267943 C7.64210526,22.1267943 6.22679426,23.5421053 6.22679426,25.2933014 C6.22679426,27.0444976 7.64210526,28.4583732 9.39330144,28.4583732 C11.145933,28.4583732 12.561244,27.0444976 12.561244,25.2933014 L12.561244,25.291866 Z" id="Path" fill="#1D4259"></path>
                    <path d="M15.391866,2.52631579 C12.0904306,-0.775119617 6.76507177,-0.775119617 3.46363636,2.52631579 C0.888727026,5.10376916 0.263180127,9.04471462 1.91339713,12.292823 L1.91339713,12.3602871 C2.04832536,12.6301435 2.18325359,12.8985646 2.38564593,13.1009569 L9.46220096,25.2933014 L16.5373206,13.1009569 C16.6722488,12.8311005 16.8746411,12.5626794 17.0095694,12.3602871 L17.0095694,12.292823 C18.5598086,9.1277512 18.0200957,5.15311005 15.391866,2.52631579 Z M9.39330144,12.4952153 C7.16985646,12.4952153 5.41722488,10.7440191 5.41722488,8.52057416 C5.40832424,7.46361216 5.82446552,6.44739459 6.57214689,5.70025306 C7.31982827,4.95311153 8.33634613,4.53770436 9.39330144,4.54736842 C11.6181818,4.54736842 13.369378,6.29856459 13.369378,8.52057416 C13.4368421,10.676555 11.6181818,12.4952153 9.39330144,12.4952153 Z" id="Shape" fill="#FF524F" fill-rule="nonzero"></path>
                </g>
            </g>
        </g>
    </g>
</svg>