<svg xmlns="http://www.w3.org/2000/svg" width="208" height="179" viewBox="0 0 208 179">
    <g fill="none" fill-rule="evenodd" transform="translate(.46 .46)">
        <path fill="#9DCFF9" d="M144.741 81.933h40.563v78.883h-40.563zM124.506 52.041v-7.884h-19.202v7.884h-7.183v88.362h33.521V52.04zM17.887 85.03h43.145v75.786H17.887z" opacity=".25"/>
        <path fill="#9DCFF9" d="M143.332 52.041h-7.136v88.362h33.521V33.833z" opacity=".25"/>
        <path fill="#9DCFF9" d="M93.333 44.814V28.156h-7.747V12.999H66.807v15.157h-7.746v16.658H48.45v116.002h55.539V44.814z" opacity=".5"/>
        <g fill="#84C3F7" opacity=".5">
            <path d="M53.897 62.834h5.915v4.27h-5.915zM64.037 62.834h5.915v4.27h-5.915zM73.99 62.834h5.915v4.27H73.99zM84.084 62.834h5.915v4.27h-5.915zM94.037 62.834h5.915v4.27h-5.915zM53.897 68.606h5.915v4.27h-5.915zM64.037 68.606h5.915v4.27h-5.915zM73.99 68.606h5.915v4.27H73.99zM84.084 68.606h5.915v4.27h-5.915zM94.037 68.606h5.915v4.27h-5.915z"/>
            <g>
                <path d="M53.897 74.612h5.915v4.27h-5.915zM64.037 74.612h5.915v4.27h-5.915zM73.99 74.612h5.915v4.27H73.99zM84.084 74.612h5.915v4.27h-5.915zM94.037 74.612h5.915v4.27h-5.915z"/>
            </g>
            <g>
                <path d="M93.427 65.978h7.136v1.126h-7.136zM93.427 71.843h7.136v1.032h-7.136zM93.427 77.756h7.136v1.126h-7.136zM83.474 65.978h7.136v1.126h-7.136zM83.474 71.843h7.136v1.032h-7.136zM83.474 77.756h7.136v1.126h-7.136z"/>
                <g>
                    <path d="M73.38 65.978h7.136v1.126H73.38zM73.38 71.843h7.136v1.032H73.38zM73.38 77.756h7.136v1.126H73.38z"/>
                </g>
                <g>
                    <path d="M63.38 65.978h7.136v1.126H63.38zM63.38 71.843h7.136v1.032H63.38zM63.38 77.756h7.136v1.126H63.38z"/>
                </g>
                <g>
                    <path d="M53.286 65.978h7.136v1.126h-7.136zM53.286 71.843h7.136v1.032h-7.136zM53.286 77.756h7.136v1.126h-7.136z"/>
                </g>
            </g>
            <g>
                <path d="M64.6 40.356H70v3.942h-5.4zM73.849 40.356h5.399v3.942h-5.4zM83.004 40.356h5.399v3.942h-5.4z"/>
                <g>
                    <path d="M64.6 45.66H70V49.6h-5.4zM73.849 45.66h5.399V49.6h-5.4zM83.004 45.66h5.399V49.6h-5.4z"/>
                </g>
                <g>
                    <path d="M64.6 51.196H70v3.942h-5.4zM73.849 51.196h5.399v3.942h-5.4zM83.004 51.196h5.399v3.942h-5.4z"/>
                </g>
            </g>
            <g>
                <path d="M82.441 43.266h6.526v1.032h-6.526zM82.441 48.662h6.526v1h-6.526zM82.441 54.106h6.526v1.032h-6.526z"/>
                <g>
                    <path d="M73.286 43.266h6.526v1.032h-6.526zM73.286 48.662h6.526v1h-6.526zM73.286 54.106h6.526v1.032h-6.526z"/>
                </g>
                <g>
                    <path d="M64.037 43.266h6.526v1.032h-6.526zM64.037 48.662h6.526v1h-6.526zM64.037 54.106h6.526v1.032h-6.526z"/>
                </g>
            </g>
            <g>
                <path d="M53.897 82.12h5.915v4.27h-5.915zM64.037 82.12h5.915v4.27h-5.915zM73.99 82.12h5.915v4.27H73.99zM84.084 82.12h5.915v4.27h-5.915zM94.037 82.12h5.915v4.27h-5.915z"/>
                <g>
                    <path d="M53.897 87.893h5.915v4.27h-5.915zM64.037 87.893h5.915v4.27h-5.915zM73.99 87.893h5.915v4.27H73.99zM84.084 87.893h5.915v4.27h-5.915zM94.037 87.893h5.915v4.27h-5.915z"/>
                </g>
                <g>
                    <path d="M53.897 93.946h5.915v4.27h-5.915zM64.037 93.946h5.915v4.27h-5.915zM73.99 93.946h5.915v4.27H73.99zM84.084 93.946h5.915v4.27h-5.915zM94.037 93.946h5.915v4.27h-5.915z"/>
                </g>
            </g>
            <g>
                <path d="M93.427 85.311h7.136v1.126h-7.136zM93.427 91.177h7.136v1.032h-7.136zM93.427 97.09h7.136v1.126h-7.136zM83.474 85.311h7.136v1.126h-7.136zM83.474 91.177h7.136v1.032h-7.136zM83.474 97.09h7.136v1.126h-7.136z"/>
                <g>
                    <path d="M73.38 85.311h7.136v1.126H73.38zM73.38 91.177h7.136v1.032H73.38zM73.38 97.09h7.136v1.126H73.38z"/>
                </g>
                <g>
                    <path d="M63.38 85.311h7.136v1.126H63.38zM63.38 91.177h7.136v1.032H63.38zM63.38 97.09h7.136v1.126H63.38z"/>
                </g>
                <g>
                    <path d="M53.286 85.311h7.136v1.126h-7.136zM53.286 91.177h7.136v1.032h-7.136zM53.286 97.09h7.136v1.126h-7.136z"/>
                </g>
            </g>
            <g>
                <path d="M53.897 101.454h5.915v4.27h-5.915zM64.037 101.454h5.915v4.27h-5.915zM73.99 101.454h5.915v4.27H73.99zM84.084 101.454h5.915v4.27h-5.915zM94.037 101.454h5.915v4.27h-5.915z"/>
                <g>
                    <path d="M53.897 107.226h5.915v4.27h-5.915zM64.037 107.226h5.915v4.27h-5.915zM73.99 107.226h5.915v4.27H73.99zM84.084 107.226h5.915v4.27h-5.915zM94.037 107.226h5.915v4.27h-5.915z"/>
                </g>
                <g>
                    <path d="M53.897 113.233h5.915v4.27h-5.915zM64.037 113.233h5.915v4.27h-5.915zM73.99 113.233h5.915v4.27H73.99zM84.084 113.233h5.915v4.27h-5.915zM94.037 113.233h5.915v4.27h-5.915z"/>
                </g>
            </g>
            <g>
                <path d="M93.427 104.645h7.136v1.126h-7.136zM93.427 110.464h7.136v1.032h-7.136zM93.427 116.423h7.136v1.126h-7.136zM83.474 104.645h7.136v1.126h-7.136zM83.474 110.464h7.136v1.032h-7.136zM83.474 116.423h7.136v1.126h-7.136z"/>
                <g>
                    <path d="M73.38 104.645h7.136v1.126H73.38zM73.38 110.464h7.136v1.032H73.38zM73.38 116.423h7.136v1.126H73.38z"/>
                </g>
                <g>
                    <path d="M63.38 104.645h7.136v1.126H63.38zM63.38 110.464h7.136v1.032H63.38zM63.38 116.423h7.136v1.126H63.38z"/>
                </g>
                <g>
                    <path d="M53.286 104.645h7.136v1.126h-7.136zM53.286 110.464h7.136v1.032h-7.136zM53.286 116.423h7.136v1.126h-7.136z"/>
                </g>
            </g>
        </g>
        <path fill="#9DCFF9" d="M113.285 62.975h33.38v97.841h-33.38z" opacity=".5"/>
        <g fill="#84C3F7" opacity=".5">
            <path d="M117.98 69.263h6.48v2.722h-6.48zM117.98 75.832h6.48v2.722h-6.48zM117.98 82.45h6.48v2.721h-6.48zM117.98 89.018h6.48v2.722h-6.48zM117.98 95.588h6.48v2.722h-6.48zM117.98 102.158h6.48v2.722h-6.48zM117.98 108.727h6.48v2.722h-6.48zM117.98 115.344h6.48v2.722h-6.48zM117.98 121.914h6.48v2.722h-6.48z"/>
            <g>
                <path d="M127.23 69.263h6.478v2.722h-6.479zM127.23 75.832h6.478v2.722h-6.479zM127.23 82.45h6.478v2.721h-6.479zM127.23 89.018h6.478v2.722h-6.479zM127.23 95.588h6.478v2.722h-6.479zM127.23 102.158h6.478v2.722h-6.479zM127.23 108.727h6.478v2.722h-6.479zM127.23 115.344h6.478v2.722h-6.479zM127.23 121.914h6.478v2.722h-6.479z"/>
            </g>
            <g>
                <path d="M136.478 69.263h6.48v2.722h-6.48zM136.478 75.832h6.48v2.722h-6.48zM136.478 82.45h6.48v2.721h-6.48zM136.478 89.018h6.48v2.722h-6.48zM136.478 95.588h6.48v2.722h-6.48zM136.478 102.158h6.48v2.722h-6.48zM136.478 108.727h6.48v2.722h-6.48zM136.478 115.344h6.48v2.722h-6.48zM136.478 121.914h6.48v2.722h-6.48z"/>
            </g>
            <g>
                <path d="M117.98 69.263h1.597v2.722h-1.596zM117.98 75.832h1.597v2.722h-1.596zM117.98 82.45h1.597v2.721h-1.596zM117.98 89.018h1.597v2.722h-1.596zM117.98 95.588h1.597v2.722h-1.596zM117.98 102.158h1.597v2.722h-1.596zM117.98 108.727h1.597v2.722h-1.596zM117.98 115.344h1.597v2.722h-1.596zM117.98 121.914h1.597v2.722h-1.596z"/>
                <g>
                    <path d="M127.23 69.263h1.595v2.722h-1.596zM127.23 75.832h1.595v2.722h-1.596zM127.23 82.45h1.595v2.721h-1.596zM127.23 89.018h1.595v2.722h-1.596zM127.23 95.588h1.595v2.722h-1.596zM127.23 102.158h1.595v2.722h-1.596zM127.23 108.727h1.595v2.722h-1.596zM127.23 115.344h1.595v2.722h-1.596zM127.23 121.914h1.595v2.722h-1.596z"/>
                </g>
                <g>
                    <path d="M136.478 69.263h1.455v2.722h-1.455zM136.478 75.832h1.455v2.722h-1.455zM136.478 82.45h1.455v2.721h-1.455zM136.478 89.018h1.455v2.722h-1.455zM136.478 95.588h1.455v2.722h-1.455zM136.478 102.158h1.455v2.722h-1.455zM136.478 108.727h1.455v2.722h-1.455zM136.478 115.344h1.455v2.722h-1.455zM136.478 121.914h1.455v2.722h-1.455z"/>
                </g>
            </g>
        </g>
        <path fill="#9DCFF9" d="M159.342 99.014h39.202v61.802h-39.202z" opacity=".5"/>
        <g fill="#84C3F7" opacity=".5">
            <path d="M167.182 108.165h4.836v9.29h-4.836zM167.182 121.96h4.836v9.292h-4.836zM167.182 135.71h4.836V145h-4.836zM167.182 149.506h4.836v9.29h-4.836z"/>
            <g>
                <path d="M177.135 108.165h4.836v9.29h-4.836zM177.135 121.96h4.836v9.292h-4.836zM177.135 135.71h4.836V145h-4.836zM177.135 149.506h4.836v9.29h-4.836z"/>
            </g>
            <g>
                <path d="M187.041 108.165h4.836v9.29h-4.836zM187.041 121.96h4.836v9.292h-4.836zM187.041 135.71h4.836V145h-4.836zM187.041 149.506h4.836v9.29h-4.836z"/>
            </g>
        </g>
        <path fill="#9DCFF9" d="M46.572 111.778H8.028v3.379h.94v45.659h36.337v-45.66h1.267z" opacity=".5"/>
        <g fill="#84C3F7" opacity=".5">
            <path d="M15.54 124.167h22.534v4.27H15.54zM15.54 130.455h22.534v4.27H15.54zM15.54 136.79h22.534v4.27H15.54zM15.54 143.125h22.534v4.27H15.54zM15.54 155.748h22.534v4.27H15.54zM15.54 149.413h22.534v4.27H15.54z"/>
            <path d="M14.46 123.65h1.08v37.073h-1.08zM37.511 123.744h1.08v37.072h-1.08z"/>
        </g>
        <path fill="#9DCFF9" d="M78.544 152.369H24.601v3.379h1.314v5.068h50.657v-5.068h1.972z" opacity=".75"/>
        <path fill="#9DCFF9" d="M138.59 132.8v-30.736h-34.74v30.737H89.53v28.015h63.38V132.8z" opacity=".5"/>
        <g fill="#84C3F7" opacity=".5">
            <path d="M96.995 141.904h48.403v6.523H96.995zM96.995 151.571h48.403v6.523H96.995zM110.14 106.991h22.206v6.523H110.14zM110.14 116.611h22.206v6.523H110.14zM110.14 126.278h22.206v6.523H110.14z"/>
            <path d="M108.403 132.096h25.728v1.408h-25.728zM108.403 122.43h25.728v1.408h-25.728zM108.403 112.81h25.728v1.408h-25.728z"/>
        </g>
        <path fill="#9DCFF9" d="M131.924 140.074h29.765v20.741h-29.765z" opacity=".75"/>
        <path fill="#D8D8D8" d="M172.863 176.067c0 .985-34.93 1.783-78.028 1.783-43.098 0-61.126-.798-61.126-1.783 0-.986 18.028-1.784 61.126-1.784 43.098.047 78.028.798 78.028 1.784z"/>
        <path fill="#0F222C" d="M56.948 156.968c5.493 0 10 4.458 10 9.995 0 5.49-4.46 9.995-10 9.995h-2.77v-19.943h2.77v-.047zM109.06 156.968c5.493 0 10 4.458 10 9.995 0 5.49-4.46 9.995-10 9.995h-2.77v-19.943h2.77v-.047z"/>
        <path fill="#0F222C" d="M56.948 156.968c5.493 0 10 4.458 10 9.995 0 5.49-4.46 9.995-10 9.995h-2.77v-19.943h2.77v-.047z"/>
        <path fill="#0F222C" d="M65.821 165.086c0-5.49 4.46-9.995 10-9.995 5.493 0 10 4.458 10 9.995 0 5.49-4.46 9.995-10 9.995-5.493-.047-10-4.505-10-9.995zM131.877 155.09c5.493 0 10 4.459 10 9.996 0 5.49-4.46 9.995-10 9.995h-2.77v-19.943h2.77v-.047z"/>
        <path fill="#0F222C" d="M119.154 165.086c0-5.49 4.46-9.995 10-9.995 5.493 0 10 4.458 10 9.995 0 5.49-4.46 9.995-10 9.995-5.54-.047-10-4.505-10-9.995z"/>
        <path fill="#E8BF7C" d="M157.48 119.404h-51.173v-17.691h51.173z"/>
        <path fill="#E8BF7C" d="M126.753 160.277h-40.94v-40.92h40.94z"/>
        <path fill="#D0A569" d="M126.745 136.688v6.288H85.807v-6.288z"/>
        <path fill="#AB7A45" d="M110.556 142.962h-8.545v-6.288h8.545z"/>
        <path fill="#D0A569" d="M109.429 160.277h-6.291v-40.92h6.29z"/>
        <path fill="#D0A56B" d="M157.49 160.277h-30.705v-40.92h30.704z"/>
        <path fill="#AB7A45" d="M157.466 136.672v6.288h-30.704v-6.288z"/>
        <path fill="#986E3E" d="M146.255 142.962h-8.545v-6.288h8.545z"/>
        <path fill="#A87944" d="M126.76 119.427h30.704l15.399-15.298h-30.751z"/>
        <path fill="#AB7A45" d="M138.872 119.38h6.291v40.92h-6.29z"/>
        <path fill="#986E3E" d="M138.872 119.38h6.291l15.212-15.251h-6.291z"/>
        <path fill="#D0A56B" d="M126.76 119.38H85.82l-15.352-15.392h40.939z"/>
        <path fill="#AB7A45" d="M109.436 119.38h-6.291l-15.352-15.392h6.29z"/>
        <path fill="#1D4259" d="M35.68 166.916h91.08v-6.617H35.68c-1.08 0-1.971.892-1.971 1.971v2.675c0 1.08.892 1.971 1.972 1.971z"/>
        <path fill="#FF524F" d="M35.68 160.3h50.094v-40.92H60.657c-4.883 0-9.484 2.44-12.207 6.476l-10.234 15.157a14.768 14.768 0 0 0-2.535 8.259v11.027z"/>
        <path fill="#F2F2F2" d="M73.802 143.594v-19.615H60.704c-3.38 0-6.526 1.689-8.404 4.458l-10.235 15.157h31.737z"/>
        <path fill="#CE3836" d="M85.817 160.277h-6.056v-40.92h6.056z"/>
        <path fill="#0F222C" d="M105.82 155.09c6.527 0 11.832 5.303 11.832 11.826H93.943c.047-6.523 5.352-11.825 11.878-11.825zM53.709 155.09c6.525 0 11.83 5.303 11.83 11.826H41.831c.047-6.523 5.352-11.825 11.878-11.825z"/>
        <path fill="#222846" d="M96.29 166.916c0-5.49 4.46-9.995 10-9.995 5.493 0 10 4.458 10 9.995 0 5.49-4.46 9.995-10 9.995s-10-4.458-10-9.995z"/>
        <ellipse cx="106.285" cy="166.927" fill="#F2F2F2" rx="4.927" ry="4.93" transform="rotate(-80.811 106.285 166.927)"/>
        <ellipse cx="54.178" cy="166.916" fill="#222846" rx="10" ry="9.995"/>
        <ellipse cx="54.171" cy="166.929" fill="#F2F2F2" rx="4.927" ry="4.93" transform="rotate(-80.811 54.171 166.929)"/>
        <path fill="#CE3836" d="M131.05 157.104h-4.272v-4.083h4.272z"/>
        <path fill="#FF524F" d="M126.766 157.104h-4.272v-4.083h4.272z"/>
        <path fill="#CE3836" d="M157.497 157.104h-4.272v-4.083h4.272z"/>
        <g>
            <path fill="#CE3836" d="M68.591 147.348h3.944c.704 0 1.267-.563 1.267-1.267v-.892H67.37v.892c-.046.75.517 1.267 1.221 1.267z"/>
            <path fill="#222846" d="M68.591 146.832h3.944c.704 0 1.267-.563 1.267-1.267v-.376H67.37v.376c-.046.704.517 1.267 1.221 1.267z"/>
        </g>
        <path fill="#F2F2F2" d="M39.577 155.09a3.886 3.886 0 0 0-3.896-3.894v7.79a3.886 3.886 0 0 0 3.896-3.895z"/>
        <path fill="#1B3241" d="M157.464 160.3H126.76c-1.08 0-1.972.891-1.972 1.97v2.675c0 1.08.892 1.971 1.972 1.971h30.704c1.08 0 1.972-.892 1.972-1.97v-2.676c0-1.079-.845-1.97-1.972-1.97z"/>
        <path fill="#F2F2F2" d="M130.328 163.631c0-.798-.61-1.408-1.409-1.408-.798 0-1.408.61-1.408 1.408 0 .798.61 1.408 1.408 1.408.752 0 1.409-.657 1.409-1.408zM132.722 163.631a.722.722 0 0 0-.704-.704.722.722 0 0 0-.704.704c0 .376.328.704.704.704a.691.691 0 0 0 .704-.704zM153.943 163.631c0 .798.61 1.408 1.408 1.408.798 0 1.409-.61 1.409-1.408 0-.798-.61-1.408-1.409-1.408-.798 0-1.408.61-1.408 1.408zM151.501 163.631c0 .376.329.704.705.704a.722.722 0 0 0 .704-.704.722.722 0 0 0-.704-.704.691.691 0 0 0-.705.704z"/>
        <g stroke="#F2F2F2">
            <path d="M149.623 93.852V6.804c0-3.754-3.051-6.757-6.76-6.757H63.709a6.76 6.76 0 0 0-6.761 6.757v104.692"/>
            <path d="M64.554 111.496V13h77.464v80.853M86.854 6.523c0 .844.657 1.501 1.502 1.501h29.906c.845 0 1.502-.657 1.502-1.501 0-.845-.657-1.502-1.502-1.502H88.356c-.845 0-1.502.657-1.502 1.502zM127.84 6.523c0 .844-.658 1.501-1.503 1.501a1.483 1.483 0 0 1-1.502-1.501c0-.845.657-1.502 1.502-1.502s1.503.657 1.503 1.502z"/>
            <g>
                <path d="M206.149 160.816V44.908M206.149 131.956V44.908c0-3.754-3.052-6.757-6.76-6.757h-41.925"/>
                <path d="M157.464 51.102h41.08v109.714M157.464 46.128h17.277c.845 0 1.502-.657 1.502-1.501 0-.845-.657-1.502-1.502-1.502h-17.277M184.365 44.627c0 .844-.657 1.501-1.502 1.501a1.483 1.483 0 0 1-1.503-1.501c0-.845.658-1.502 1.503-1.502.845 0 1.502.657 1.502 1.502z"/>
            </g>
            <g>
                <path d="M.423 160.816V55.09M.423 131.956V55.091c0-3.754 3.051-6.757 6.76-6.757h41.925"/>
                <path d="M49.108 61.285H8.028v99.53M49.108 56.311H31.83a1.483 1.483 0 0 1-1.503-1.501c0-.845.658-1.502 1.503-1.502h17.277M22.206 54.81c0 .844.658 1.501 1.503 1.501.845 0 1.502-.657 1.502-1.501 0-.845-.657-1.502-1.502-1.502s-1.503.657-1.503 1.502z"/>
            </g>
        </g>
        <g>
            <g stroke="#FFF">
                <path d="M172.863 85.03s-.188-.282-.564-.75"/>
                <path stroke-dasharray="4.0253,4.0253" d="M171.126 82.824c-5.305-6.475-22.348-24.026-43.286-11.215-25.352 15.533-23.193-18.301-38.075-18.301-21.315 0-9.014 40.685-59.296 43.266"/>
                <path d="M29.483 96.62c-.328 0-.61.048-.939.048"/>
            </g>
            <path fill="#1D4259" d="M175.022 85.03c0-1.22-.986-2.206-2.206-2.206s-2.207.986-2.207 2.206.986 2.206 2.207 2.206c1.22 0 2.206-.986 2.206-2.206z"/>
            <path fill="#FF524F" fill-rule="nonzero" d="M176.994 69.169c-2.3-2.3-6.01-2.3-8.31 0a5.867 5.867 0 0 0-1.08 6.804v.047c.094.188.188.376.33.516l4.929 8.494 4.93-8.494c.093-.187.234-.375.328-.516v-.047c1.08-2.205.704-4.974-1.127-6.804zm-4.131 6.945c-1.55 0-2.77-1.22-2.77-2.769a2.745 2.745 0 0 1 2.77-2.768c1.549 0 2.77 1.22 2.77 2.768 0 1.502-1.268 2.77-2.77 2.77z"/>
            <path fill="#1D4259" d="M89.952 53.308c0-1.22-.985-2.206-2.206-2.206-1.22 0-2.207.986-2.207 2.206s.986 2.206 2.207 2.206c1.22-.047 2.206-1.033 2.206-2.206z"/>
            <path fill="#FF524F" fill-rule="nonzero" d="M91.924 37.4c-2.3-2.3-6.01-2.3-8.31 0a5.867 5.867 0 0 0-1.08 6.804v.047c.095.188.188.376.33.516l4.929 8.494 4.93-8.494c.093-.187.234-.375.328-.516v-.047c1.08-2.205.751-4.974-1.127-6.804zm-4.131 6.945c-1.55 0-2.77-1.22-2.77-2.769a2.745 2.745 0 0 1 2.77-2.768c1.55 0 2.77 1.22 2.77 2.768 0 1.502-1.268 2.77-2.77 2.77z"/>
            <g>
                <path fill="#1D4259" d="M30.751 96.62c0-1.22-.986-2.205-2.207-2.205-1.22 0-2.206.986-2.206 2.206s.986 2.205 2.206 2.205c1.221 0 2.207-.985 2.207-2.205z"/>
                <path fill="#FF524F" fill-rule="nonzero" d="M32.723 80.76c-2.3-2.3-6.01-2.3-8.31 0a5.867 5.867 0 0 0-1.08 6.804v.047c.094.188.188.375.329.516l4.93 8.494 4.929-8.494c.094-.188.235-.375.329-.516v-.047c1.08-2.205.704-4.974-1.127-6.804zm-4.179 6.945c-1.549 0-2.77-1.22-2.77-2.769a2.745 2.745 0 0 1 2.77-2.768c1.55 0 2.77 1.22 2.77 2.768.047 1.502-1.22 2.769-2.77 2.769z"/>
            </g>
        </g>
    </g>
</svg>
