<svg xmlns="http://www.w3.org/2000/svg" width="57" height="57" viewBox="0 0 57 57">
    <g fill="none" fill-rule="evenodd" transform="translate(1 1)">
        <path fill="#FFF" fill-rule="nonzero" d="M22.582 41.94c-3.32 0-6.61-.919-9.513-2.657L11 38.043l2.411.041c.078.004.204.01.402.01.918 0 3.842-.147 6.84-1.84-2.253-.67-4.116-2.412-4.883-4.693l-.38-1.13 1.035.27a7.337 7.337 0 0 1-2.862-5.416l-.057-1.045.96.42c.174.076.352.144.533.202-1.362-1.907-2.187-4.853-.468-7.983l.474-.863.602.779a16.268 16.268 0 0 0 11.821 6.313c-.028-.29-.048-.556-.048-.639 0-3.46 2.633-7.04 7.039-7.04 1.85 0 3.63.736 4.941 2.029 1.758-.413 3.438-1.438 3.456-1.449l1.523-.938-.575 1.695a7.025 7.025 0 0 1-1.236 2.212c.294-.096.583-.207.88-.336l1.83-.894-.768 1.651a7.061 7.061 0 0 1-3.008 3.21c.289 4.516-1.568 9.555-4.91 13.255-2.479 2.747-6.895 6.03-13.852 6.075l-.118.001zm-6.78-2.703a17.117 17.117 0 0 0 6.78 1.413h.11c6.487-.042 10.598-3.096 12.903-5.65 3.215-3.562 4.958-8.432 4.548-12.71l-.043-.454.413-.192a5.764 5.764 0 0 0 1.733-1.244c-.55.14-1.139.243-1.816.325l-.495.06-.385-.978.449-.346a5.79 5.79 0 0 0 1.62-1.41c-.701.299-1.529.591-2.357.745l-.353.066-.242-.266a5.759 5.759 0 0 0-4.248-1.877c-3.598 0-5.749 2.923-5.749 5.749 0 .17.085.949.116 1.149l.293.833-.932-.02a17.542 17.542 0 0 1-12.899-6.04c-1.29 3.387.876 6.094 1.911 6.905l1.513 1.186-1.922-.034a7.308 7.308 0 0 1-1.762-.244 6.05 6.05 0 0 0 4.622 4.582l2.545.547-2.505.706a5.474 5.474 0 0 1-1.473.184c-.253 0-.495-.013-.718-.034 1.008 1.774 2.884 2.966 4.96 3.067l1.814.09-1.463 1.074c-2.507 1.845-5.108 2.555-6.968 2.818z"/>
        <circle cx="27.5" cy="27.5" r="27.5" stroke="#FFF" stroke-width="2"/>
    </g>
</svg>
